G04*
G04 #@! TF.GenerationSoftware,Altium Limited,Altium Designer,24.1.2 (44)*
G04*
G04 Layer_Color=128*
%FSLAX44Y44*%
%MOMM*%
G71*
G04*
G04 #@! TF.SameCoordinates,08E163FE-A1B1-404E-B758-27256C6DDFFB*
G04*
G04*
G04 #@! TF.FilePolarity,Positive*
G04*
G01*
G75*
%ADD18R,0.6000X1.0000*%
%ADD19R,1.2500X1.8000*%
G04:AMPARAMS|DCode=20|XSize=0.275mm|YSize=0.3mm|CornerRadius=0.0688mm|HoleSize=0mm|Usage=FLASHONLY|Rotation=90.000|XOffset=0mm|YOffset=0mm|HoleType=Round|Shape=RoundedRectangle|*
%AMROUNDEDRECTD20*
21,1,0.2750,0.1625,0,0,90.0*
21,1,0.1375,0.3000,0,0,90.0*
1,1,0.1375,0.0813,0.0688*
1,1,0.1375,0.0813,-0.0688*
1,1,0.1375,-0.0813,-0.0688*
1,1,0.1375,-0.0813,0.0688*
%
%ADD20ROUNDEDRECTD20*%
G04:AMPARAMS|DCode=21|XSize=0.275mm|YSize=0.3mm|CornerRadius=0.0688mm|HoleSize=0mm|Usage=FLASHONLY|Rotation=0.000|XOffset=0mm|YOffset=0mm|HoleType=Round|Shape=RoundedRectangle|*
%AMROUNDEDRECTD21*
21,1,0.2750,0.1625,0,0,0.0*
21,1,0.1375,0.3000,0,0,0.0*
1,1,0.1375,0.0688,-0.0813*
1,1,0.1375,-0.0688,-0.0813*
1,1,0.1375,-0.0688,0.0813*
1,1,0.1375,0.0688,0.0813*
%
%ADD21ROUNDEDRECTD21*%
G04:AMPARAMS|DCode=22|XSize=0.55mm|YSize=0.6mm|CornerRadius=0.1375mm|HoleSize=0mm|Usage=FLASHONLY|Rotation=0.000|XOffset=0mm|YOffset=0mm|HoleType=Round|Shape=RoundedRectangle|*
%AMROUNDEDRECTD22*
21,1,0.5500,0.3250,0,0,0.0*
21,1,0.2750,0.6000,0,0,0.0*
1,1,0.2750,0.1375,-0.1625*
1,1,0.2750,-0.1375,-0.1625*
1,1,0.2750,-0.1375,0.1625*
1,1,0.2750,0.1375,0.1625*
%
%ADD22ROUNDEDRECTD22*%
G04:AMPARAMS|DCode=23|XSize=0.55mm|YSize=0.6mm|CornerRadius=0.1375mm|HoleSize=0mm|Usage=FLASHONLY|Rotation=90.000|XOffset=0mm|YOffset=0mm|HoleType=Round|Shape=RoundedRectangle|*
%AMROUNDEDRECTD23*
21,1,0.5500,0.3250,0,0,90.0*
21,1,0.2750,0.6000,0,0,90.0*
1,1,0.2750,0.1625,0.1375*
1,1,0.2750,0.1625,-0.1375*
1,1,0.2750,-0.1625,-0.1375*
1,1,0.2750,-0.1625,0.1375*
%
%ADD23ROUNDEDRECTD23*%
%ADD24R,1.0000X0.3500*%
%ADD25R,1.0000X0.5000*%
%ADD26R,2.1000X3.0000*%
%ADD27R,0.8000X1.6000*%
G04:AMPARAMS|DCode=29|XSize=1.65mm|YSize=2.55mm|CornerRadius=0.2475mm|HoleSize=0mm|Usage=FLASHONLY|Rotation=90.000|XOffset=0mm|YOffset=0mm|HoleType=Round|Shape=RoundedRectangle|*
%AMROUNDEDRECTD29*
21,1,1.6500,2.0550,0,0,90.0*
21,1,1.1550,2.5500,0,0,90.0*
1,1,0.4950,1.0275,0.5775*
1,1,0.4950,1.0275,-0.5775*
1,1,0.4950,-1.0275,-0.5775*
1,1,0.4950,-1.0275,0.5775*
%
%ADD29ROUNDEDRECTD29*%
G04:AMPARAMS|DCode=30|XSize=1.64mm|YSize=0.59mm|CornerRadius=0.1475mm|HoleSize=0mm|Usage=FLASHONLY|Rotation=180.000|XOffset=0mm|YOffset=0mm|HoleType=Round|Shape=RoundedRectangle|*
%AMROUNDEDRECTD30*
21,1,1.6400,0.2950,0,0,180.0*
21,1,1.3450,0.5900,0,0,180.0*
1,1,0.2950,-0.6725,0.1475*
1,1,0.2950,0.6725,0.1475*
1,1,0.2950,0.6725,-0.1475*
1,1,0.2950,-0.6725,-0.1475*
%
%ADD30ROUNDEDRECTD30*%
G04:AMPARAMS|DCode=37|XSize=1.32mm|YSize=0.6mm|CornerRadius=0.075mm|HoleSize=0mm|Usage=FLASHONLY|Rotation=270.000|XOffset=0mm|YOffset=0mm|HoleType=Round|Shape=RoundedRectangle|*
%AMROUNDEDRECTD37*
21,1,1.3200,0.4500,0,0,270.0*
21,1,1.1700,0.6000,0,0,270.0*
1,1,0.1500,-0.2250,-0.5850*
1,1,0.1500,-0.2250,0.5850*
1,1,0.1500,0.2250,0.5850*
1,1,0.1500,0.2250,-0.5850*
%
%ADD37ROUNDEDRECTD37*%
%ADD44O,1.4000X0.3500*%
%ADD56C,1.0000*%
G04:AMPARAMS|DCode=57|XSize=1.2mm|YSize=1.3mm|CornerRadius=0.246mm|HoleSize=0mm|Usage=FLASHONLY|Rotation=90.000|XOffset=0mm|YOffset=0mm|HoleType=Round|Shape=RoundedRectangle|*
%AMROUNDEDRECTD57*
21,1,1.2000,0.8080,0,0,90.0*
21,1,0.7080,1.3000,0,0,90.0*
1,1,0.4920,0.4040,0.3540*
1,1,0.4920,0.4040,-0.3540*
1,1,0.4920,-0.4040,-0.3540*
1,1,0.4920,-0.4040,0.3540*
%
%ADD57ROUNDEDRECTD57*%
G04:AMPARAMS|DCode=58|XSize=1.21mm|YSize=0.59mm|CornerRadius=0.0738mm|HoleSize=0mm|Usage=FLASHONLY|Rotation=180.000|XOffset=0mm|YOffset=0mm|HoleType=Round|Shape=RoundedRectangle|*
%AMROUNDEDRECTD58*
21,1,1.2100,0.4425,0,0,180.0*
21,1,1.0625,0.5900,0,0,180.0*
1,1,0.1475,-0.5313,0.2213*
1,1,0.1475,0.5313,0.2213*
1,1,0.1475,0.5313,-0.2213*
1,1,0.1475,-0.5313,-0.2213*
%
%ADD58ROUNDEDRECTD58*%
%ADD176C,0.2500*%
%ADD177O,1.7000X0.3000*%
%ADD178O,0.3000X1.7000*%
%ADD179C,0.4064*%
G04:AMPARAMS|DCode=180|XSize=2.7mm|YSize=1.3mm|CornerRadius=0.247mm|HoleSize=0mm|Usage=FLASHONLY|Rotation=270.000|XOffset=0mm|YOffset=0mm|HoleType=Round|Shape=RoundedRectangle|*
%AMROUNDEDRECTD180*
21,1,2.7000,0.8060,0,0,270.0*
21,1,2.2060,1.3000,0,0,270.0*
1,1,0.4940,-0.4030,-1.1030*
1,1,0.4940,-0.4030,1.1030*
1,1,0.4940,0.4030,1.1030*
1,1,0.4940,0.4030,-1.1030*
%
%ADD180ROUNDEDRECTD180*%
G04:AMPARAMS|DCode=181|XSize=0.9mm|YSize=0.95mm|CornerRadius=0.099mm|HoleSize=0mm|Usage=FLASHONLY|Rotation=180.000|XOffset=0mm|YOffset=0mm|HoleType=Round|Shape=RoundedRectangle|*
%AMROUNDEDRECTD181*
21,1,0.9000,0.7520,0,0,180.0*
21,1,0.7020,0.9500,0,0,180.0*
1,1,0.1980,-0.3510,0.3760*
1,1,0.1980,0.3510,0.3760*
1,1,0.1980,0.3510,-0.3760*
1,1,0.1980,-0.3510,-0.3760*
%
%ADD181ROUNDEDRECTD181*%
%ADD182R,1.2700X3.4300*%
%ADD183R,2.9210X0.5588*%
%ADD184R,1.0414X2.3876*%
%ADD185R,1.0414X1.1938*%
%ADD186R,1.0414X1.0922*%
%ADD187R,0.7112X0.7874*%
%ADD188R,0.5080X0.9906*%
%ADD189C,0.4900*%
G04:AMPARAMS|DCode=190|XSize=1.397mm|YSize=1.1938mm|CornerRadius=0mm|HoleSize=0mm|Usage=FLASHONLY|Rotation=135.000|XOffset=0mm|YOffset=0mm|HoleType=Round|Shape=Rectangle|*
%AMROTATEDRECTD190*
4,1,4,0.9160,-0.0718,0.0718,-0.9160,-0.9160,0.0718,-0.0718,0.9160,0.9160,-0.0718,0.0*
%
%ADD190ROTATEDRECTD190*%

G04:AMPARAMS|DCode=191|XSize=0.275mm|YSize=0.3mm|CornerRadius=0.0688mm|HoleSize=0mm|Usage=FLASHONLY|Rotation=45.000|XOffset=0mm|YOffset=0mm|HoleType=Round|Shape=RoundedRectangle|*
%AMROUNDEDRECTD191*
21,1,0.2750,0.1625,0,0,45.0*
21,1,0.1375,0.3000,0,0,45.0*
1,1,0.1375,0.1061,-0.0088*
1,1,0.1375,0.0088,-0.1061*
1,1,0.1375,-0.1061,0.0088*
1,1,0.1375,-0.0088,0.1061*
%
%ADD191ROUNDEDRECTD191*%
G04:AMPARAMS|DCode=192|XSize=0.275mm|YSize=0.3mm|CornerRadius=0.0688mm|HoleSize=0mm|Usage=FLASHONLY|Rotation=315.000|XOffset=0mm|YOffset=0mm|HoleType=Round|Shape=RoundedRectangle|*
%AMROUNDEDRECTD192*
21,1,0.2750,0.1625,0,0,315.0*
21,1,0.1375,0.3000,0,0,315.0*
1,1,0.1375,-0.0088,-0.1061*
1,1,0.1375,-0.1061,-0.0088*
1,1,0.1375,0.0088,0.1061*
1,1,0.1375,0.1061,0.0088*
%
%ADD192ROUNDEDRECTD192*%
%ADD194R,3.2700X1.0700*%
%ADD195R,1.3000X1.6000*%
G04:AMPARAMS|DCode=196|XSize=0.9mm|YSize=0.95mm|CornerRadius=0.099mm|HoleSize=0mm|Usage=FLASHONLY|Rotation=90.000|XOffset=0mm|YOffset=0mm|HoleType=Round|Shape=RoundedRectangle|*
%AMROUNDEDRECTD196*
21,1,0.9000,0.7520,0,0,90.0*
21,1,0.7020,0.9500,0,0,90.0*
1,1,0.1980,0.3760,0.3510*
1,1,0.1980,0.3760,-0.3510*
1,1,0.1980,-0.3760,-0.3510*
1,1,0.1980,-0.3760,0.3510*
%
%ADD196ROUNDEDRECTD196*%
G04:AMPARAMS|DCode=200|XSize=0.4572mm|YSize=1.3716mm|CornerRadius=0.1143mm|HoleSize=0mm|Usage=FLASHONLY|Rotation=180.000|XOffset=0mm|YOffset=0mm|HoleType=Round|Shape=RoundedRectangle|*
%AMROUNDEDRECTD200*
21,1,0.4572,1.1430,0,0,180.0*
21,1,0.2286,1.3716,0,0,180.0*
1,1,0.2286,-0.1143,0.5715*
1,1,0.2286,0.1143,0.5715*
1,1,0.2286,0.1143,-0.5715*
1,1,0.2286,-0.1143,-0.5715*
%
%ADD200ROUNDEDRECTD200*%
G04:AMPARAMS|DCode=201|XSize=1.2mm|YSize=1.3mm|CornerRadius=0.246mm|HoleSize=0mm|Usage=FLASHONLY|Rotation=180.000|XOffset=0mm|YOffset=0mm|HoleType=Round|Shape=RoundedRectangle|*
%AMROUNDEDRECTD201*
21,1,1.2000,0.8080,0,0,180.0*
21,1,0.7080,1.3000,0,0,180.0*
1,1,0.4920,-0.3540,0.4040*
1,1,0.4920,0.3540,0.4040*
1,1,0.4920,0.3540,-0.4040*
1,1,0.4920,-0.3540,-0.4040*
%
%ADD201ROUNDEDRECTD201*%
%ADD230R,0.9652X1.2192*%
%ADD231R,0.8000X1.4000*%
%ADD232R,1.6000X1.4000*%
%ADD233R,1.1000X1.4000*%
%ADD234R,1.3494X1.2224*%
G36*
X90618Y299388D02*
X91004Y299228D01*
X91353Y298995D01*
X91649Y298699D01*
X91881Y298351D01*
X92041Y297965D01*
X92123Y297554D01*
Y297345D01*
Y292095D01*
Y291886D01*
X92041Y291475D01*
X91881Y291088D01*
X91649Y290740D01*
X91353Y290444D01*
X91004Y290212D01*
X90618Y290051D01*
X90207Y289970D01*
X83567D01*
X78853Y294720D01*
X83567Y299470D01*
X90207D01*
X90618Y299388D01*
D02*
G37*
G36*
Y204138D02*
X91004Y203978D01*
X91353Y203745D01*
X91649Y203449D01*
X91881Y203101D01*
X92041Y202715D01*
X92123Y202304D01*
Y202095D01*
Y196845D01*
Y196635D01*
X92041Y196225D01*
X91881Y195838D01*
X91649Y195490D01*
X91353Y195194D01*
X91004Y194962D01*
X90618Y194802D01*
X90207Y194720D01*
X83567D01*
X78853Y199470D01*
X83567Y204220D01*
X90207D01*
X90618Y204138D01*
D02*
G37*
G36*
X90588Y112618D02*
X90975Y112458D01*
X91323Y112226D01*
X91619Y111930D01*
X91851Y111581D01*
X92011Y111195D01*
X92093Y110784D01*
Y110575D01*
Y105325D01*
Y105116D01*
X92011Y104705D01*
X91851Y104319D01*
X91619Y103970D01*
X91323Y103674D01*
X90975Y103442D01*
X90588Y103282D01*
X90177Y103200D01*
X83537D01*
X78823Y107950D01*
X83537Y112700D01*
X90177D01*
X90588Y112618D01*
D02*
G37*
G36*
X192248Y110158D02*
X192635Y109998D01*
X192983Y109765D01*
X193279Y109469D01*
X193511Y109121D01*
X193671Y108735D01*
X193753Y108324D01*
Y108115D01*
Y102865D01*
Y102655D01*
X193671Y102245D01*
X193511Y101858D01*
X193279Y101510D01*
X192983Y101214D01*
X192635Y100982D01*
X192248Y100822D01*
X191837Y100740D01*
X185197D01*
X180483Y105490D01*
X185197Y110240D01*
X191837D01*
X192248Y110158D01*
D02*
G37*
G36*
X513785Y51288D02*
X514171Y51128D01*
X514520Y50896D01*
X514816Y50600D01*
X515048Y50251D01*
X515208Y49865D01*
X515290Y49454D01*
Y49245D01*
Y42814D01*
X510540Y38100D01*
X505790Y42814D01*
Y49245D01*
Y49454D01*
X505872Y49865D01*
X506032Y50251D01*
X506264Y50600D01*
X506560Y50896D01*
X506908Y51128D01*
X507295Y51288D01*
X507706Y51370D01*
X513374D01*
X513785Y51288D01*
D02*
G37*
G36*
X90618Y591408D02*
X91004Y591248D01*
X91353Y591016D01*
X91649Y590720D01*
X91881Y590372D01*
X92041Y589985D01*
X92123Y589574D01*
Y589365D01*
Y584115D01*
Y583906D01*
X92041Y583495D01*
X91881Y583108D01*
X91649Y582760D01*
X91353Y582464D01*
X91004Y582232D01*
X90618Y582072D01*
X90207Y581990D01*
X83567D01*
X78853Y586740D01*
X83567Y591490D01*
X90207D01*
X90618Y591408D01*
D02*
G37*
G36*
X129875Y573628D02*
X130261Y573468D01*
X130610Y573236D01*
X130906Y572940D01*
X131138Y572592D01*
X131298Y572205D01*
X131380Y571794D01*
Y571585D01*
Y566335D01*
Y566126D01*
X131298Y565715D01*
X131138Y565328D01*
X130906Y564980D01*
X130610Y564684D01*
X130261Y564452D01*
X129875Y564292D01*
X129464Y564210D01*
X122824D01*
X118110Y568960D01*
X122824Y573710D01*
X129464D01*
X129875Y573628D01*
D02*
G37*
G36*
X81724Y568960D02*
X77010Y564210D01*
X70370D01*
X69959Y564292D01*
X69573Y564452D01*
X69224Y564684D01*
X68928Y564980D01*
X68696Y565328D01*
X68536Y565715D01*
X68454Y566126D01*
Y566335D01*
Y571585D01*
Y571794D01*
X68536Y572205D01*
X68696Y572592D01*
X68928Y572940D01*
X69224Y573236D01*
X69573Y573468D01*
X69959Y573628D01*
X70370Y573710D01*
X77010D01*
X81724Y568960D01*
D02*
G37*
G36*
X90618Y492106D02*
X91004Y491945D01*
X91353Y491713D01*
X91649Y491417D01*
X91881Y491069D01*
X92041Y490682D01*
X92123Y490271D01*
Y490062D01*
Y484812D01*
Y484603D01*
X92041Y484192D01*
X91881Y483806D01*
X91649Y483458D01*
X91353Y483162D01*
X91004Y482929D01*
X90618Y482769D01*
X90207Y482687D01*
X83567D01*
X78853Y487437D01*
X83567Y492187D01*
X90207D01*
X90618Y492106D01*
D02*
G37*
G36*
Y392018D02*
X91004Y391858D01*
X91353Y391626D01*
X91649Y391330D01*
X91881Y390981D01*
X92041Y390595D01*
X92123Y390184D01*
Y389975D01*
Y384725D01*
Y384516D01*
X92041Y384105D01*
X91881Y383718D01*
X91649Y383370D01*
X91353Y383074D01*
X91004Y382842D01*
X90618Y382682D01*
X90207Y382600D01*
X83567D01*
X78853Y387350D01*
X83567Y392100D01*
X90207D01*
X90618Y392018D01*
D02*
G37*
D18*
X159950Y78358D02*
D03*
X174950D02*
D03*
X189950D02*
D03*
X204950D02*
D03*
X219950D02*
D03*
X234950D02*
D03*
X249950D02*
D03*
X264950D02*
D03*
X992907Y721300D02*
D03*
X1007907D02*
D03*
X1022907D02*
D03*
X1037907D02*
D03*
X1052907D02*
D03*
X1067907D02*
D03*
X1082907D02*
D03*
X1097907D02*
D03*
X1283685D02*
D03*
X1268685D02*
D03*
X1253685D02*
D03*
X1238685D02*
D03*
X1223685D02*
D03*
X1208685D02*
D03*
X1193685D02*
D03*
X1178685D02*
D03*
X1469462D02*
D03*
X1454462D02*
D03*
X1439462D02*
D03*
X1424462D02*
D03*
X1409462D02*
D03*
X1394462D02*
D03*
X1379462D02*
D03*
X1364462D02*
D03*
X1655240D02*
D03*
X1640240D02*
D03*
X1625240D02*
D03*
X1610240D02*
D03*
X1595240D02*
D03*
X1580240D02*
D03*
X1565240D02*
D03*
X1550240D02*
D03*
D19*
X291000Y26458D02*
D03*
X133900D02*
D03*
X1123957Y773200D02*
D03*
X966857D02*
D03*
X1152635D02*
D03*
X1309735D02*
D03*
X1338412D02*
D03*
X1495513D02*
D03*
X1524190D02*
D03*
X1681290D02*
D03*
D20*
X600882Y544548D02*
D03*
Y539298D02*
D03*
X593902Y544548D02*
D03*
Y539298D02*
D03*
X614241Y544915D02*
D03*
Y539665D02*
D03*
X607621Y544680D02*
D03*
Y539430D02*
D03*
X620743Y544680D02*
D03*
Y539430D02*
D03*
X627246Y544915D02*
D03*
Y539665D02*
D03*
X640251Y544915D02*
D03*
Y539665D02*
D03*
X633748Y544915D02*
D03*
Y539665D02*
D03*
X646753Y544915D02*
D03*
Y539665D02*
D03*
X653256Y544915D02*
D03*
Y539665D02*
D03*
X666261Y544915D02*
D03*
Y539665D02*
D03*
X659759Y544915D02*
D03*
Y539665D02*
D03*
X673060Y544915D02*
D03*
Y539665D02*
D03*
X579230Y340275D02*
D03*
Y345525D02*
D03*
X572767Y340283D02*
D03*
Y345533D02*
D03*
X592235Y340275D02*
D03*
Y345525D02*
D03*
X585732Y340275D02*
D03*
Y345525D02*
D03*
X605092Y340274D02*
D03*
Y345524D02*
D03*
X598737Y340275D02*
D03*
Y345525D02*
D03*
X638747Y340274D02*
D03*
Y345523D02*
D03*
X632245Y340275D02*
D03*
Y345525D02*
D03*
X646970Y345523D02*
D03*
Y340274D02*
D03*
X1028518Y246656D02*
D03*
Y241406D02*
D03*
X1035189Y241406D02*
D03*
Y246656D02*
D03*
X1048531Y246656D02*
D03*
Y241406D02*
D03*
X1041860Y246656D02*
D03*
Y241406D02*
D03*
X1055203Y241406D02*
D03*
Y246656D02*
D03*
X1061874Y246656D02*
D03*
Y241406D02*
D03*
X1068545Y246656D02*
D03*
Y241406D02*
D03*
X1081888Y246656D02*
D03*
Y241406D02*
D03*
X1075217Y241406D02*
D03*
Y246656D02*
D03*
X1088559Y246656D02*
D03*
Y241406D02*
D03*
X1095231Y246656D02*
D03*
Y241406D02*
D03*
X1108573Y246656D02*
D03*
Y241406D02*
D03*
X1101902Y241406D02*
D03*
Y246656D02*
D03*
X1121916Y241406D02*
D03*
Y246656D02*
D03*
X1128587Y241406D02*
D03*
Y246656D02*
D03*
X1115245Y246656D02*
D03*
Y241406D02*
D03*
X1141930Y246656D02*
D03*
Y241406D02*
D03*
X1135259Y241406D02*
D03*
Y246656D02*
D03*
X1148601Y241406D02*
D03*
Y246656D02*
D03*
X1161944Y246656D02*
D03*
Y241406D02*
D03*
X1155272Y246656D02*
D03*
Y241406D02*
D03*
X1168615Y241406D02*
D03*
Y246656D02*
D03*
X1181958Y246656D02*
D03*
Y241406D02*
D03*
X1175286Y241406D02*
D03*
Y246656D02*
D03*
X1188629Y246656D02*
D03*
Y241406D02*
D03*
X1201972Y241406D02*
D03*
Y246656D02*
D03*
X1195300Y246656D02*
D03*
Y241406D02*
D03*
X1032913Y515123D02*
D03*
Y509873D02*
D03*
X1026410Y515123D02*
D03*
Y509873D02*
D03*
X1039415Y515123D02*
D03*
Y509873D02*
D03*
X1045918Y515123D02*
D03*
Y509873D02*
D03*
X1058923Y515123D02*
D03*
Y509873D02*
D03*
X1052420Y515123D02*
D03*
Y509873D02*
D03*
X1065425Y515123D02*
D03*
Y509873D02*
D03*
X1078430Y509873D02*
D03*
Y515123D02*
D03*
X1071928Y509873D02*
D03*
Y515123D02*
D03*
X1091435Y509873D02*
D03*
Y515123D02*
D03*
X1084933Y509873D02*
D03*
Y515123D02*
D03*
X1104441Y509873D02*
D03*
Y515123D02*
D03*
X1097938Y509873D02*
D03*
Y515123D02*
D03*
X1110943Y509873D02*
D03*
Y515123D02*
D03*
X1117446Y509873D02*
D03*
Y515123D02*
D03*
X1130451Y515123D02*
D03*
Y509873D02*
D03*
X1123948Y509873D02*
D03*
Y515123D02*
D03*
X1143456Y509873D02*
D03*
Y515123D02*
D03*
X1136953Y515123D02*
D03*
Y509873D02*
D03*
X1149958Y509873D02*
D03*
Y515123D02*
D03*
X1156461Y509873D02*
D03*
Y515123D02*
D03*
X1169466Y515123D02*
D03*
Y509873D02*
D03*
X1162963Y509873D02*
D03*
Y515123D02*
D03*
X1175968Y515123D02*
D03*
Y509873D02*
D03*
X1188973Y515123D02*
D03*
Y509873D02*
D03*
X1182471Y515123D02*
D03*
Y509873D02*
D03*
X1195476Y509873D02*
D03*
Y515123D02*
D03*
D21*
X739030Y446639D02*
D03*
X733780D02*
D03*
X733825Y453904D02*
D03*
X739075D02*
D03*
X733825Y460152D02*
D03*
X739075D02*
D03*
X739030Y466147D02*
D03*
X733780D02*
D03*
X739115Y472649D02*
D03*
X733865D02*
D03*
Y479152D02*
D03*
X739115D02*
D03*
X739115Y485654D02*
D03*
X733865D02*
D03*
X734214Y543510D02*
D03*
X739464D02*
D03*
X734119Y537030D02*
D03*
X739370D02*
D03*
X739244Y530657D02*
D03*
X733994D02*
D03*
X739305Y524222D02*
D03*
X734055D02*
D03*
X739238Y518051D02*
D03*
X733988D02*
D03*
X733865Y511978D02*
D03*
X739115D02*
D03*
X739137Y505582D02*
D03*
X733887D02*
D03*
X739115Y499152D02*
D03*
X733865D02*
D03*
X739115Y492157D02*
D03*
X733865D02*
D03*
X532760Y504623D02*
D03*
X538010D02*
D03*
X532760Y498121D02*
D03*
X538010D02*
D03*
X532760Y491505D02*
D03*
X538010D02*
D03*
X532760Y473963D02*
D03*
X538010D02*
D03*
X532760Y467460D02*
D03*
X538010D02*
D03*
X532860Y460957D02*
D03*
X538110D02*
D03*
X538237Y454455D02*
D03*
X532987D02*
D03*
X533106Y447952D02*
D03*
X538356D02*
D03*
X532770Y402421D02*
D03*
X538020D02*
D03*
X532860Y395918D02*
D03*
X538110D02*
D03*
X532760Y389416D02*
D03*
X538010D02*
D03*
X532760Y382913D02*
D03*
X538010D02*
D03*
X532860Y376411D02*
D03*
X538110D02*
D03*
X532749Y408923D02*
D03*
X537999D02*
D03*
X532801Y428445D02*
D03*
X538051D02*
D03*
X724916Y330200D02*
D03*
X719666D02*
D03*
X725001Y336550D02*
D03*
X719751D02*
D03*
X719666Y325120D02*
D03*
X724916D02*
D03*
X719751Y341630D02*
D03*
X725001D02*
D03*
X739833Y345160D02*
D03*
X745082D02*
D03*
X614518Y306324D02*
D03*
X609268D02*
D03*
X623366Y306324D02*
D03*
X628616D02*
D03*
X978176Y280339D02*
D03*
X983427D02*
D03*
X978176Y286858D02*
D03*
X983427D02*
D03*
X978176Y293377D02*
D03*
X983427D02*
D03*
X983427Y299879D02*
D03*
X978177D02*
D03*
X983427Y306382D02*
D03*
X978177D02*
D03*
X978176Y312884D02*
D03*
X983427D02*
D03*
X983427Y325889D02*
D03*
X978177D02*
D03*
X983427Y332392D02*
D03*
X978177D02*
D03*
X978176Y345397D02*
D03*
X983427D02*
D03*
X983427Y338895D02*
D03*
X978177D02*
D03*
X983427Y351900D02*
D03*
X978177D02*
D03*
X978176Y358402D02*
D03*
X983427D02*
D03*
X983427Y364905D02*
D03*
X978177D02*
D03*
X983427Y371407D02*
D03*
X978177D02*
D03*
X978176Y377910D02*
D03*
X983427D02*
D03*
X978176Y384412D02*
D03*
X983427D02*
D03*
X983427Y390915D02*
D03*
X978177D02*
D03*
X978176Y397417D02*
D03*
X983427D02*
D03*
X983427Y403920D02*
D03*
X978177D02*
D03*
X983427Y410422D02*
D03*
X978177D02*
D03*
X978176Y416925D02*
D03*
X983427D02*
D03*
X978176Y423427D02*
D03*
X983427D02*
D03*
X983365Y429930D02*
D03*
X978115D02*
D03*
X978176Y273820D02*
D03*
X983427D02*
D03*
X983487Y436432D02*
D03*
X978237D02*
D03*
X1215959Y543791D02*
D03*
X1210709D02*
D03*
X1226646Y543791D02*
D03*
X1231896D02*
D03*
X1251668Y376806D02*
D03*
X1246418D02*
D03*
X1246418Y476098D02*
D03*
X1251668D02*
D03*
X1251668Y277514D02*
D03*
X1246418D02*
D03*
X367199Y354584D02*
D03*
X372449D02*
D03*
X367199Y341291D02*
D03*
X372449D02*
D03*
X367199Y327999D02*
D03*
X372449D02*
D03*
X366945Y314706D02*
D03*
X372195D02*
D03*
X1246418Y310611D02*
D03*
X1251668D02*
D03*
X1246418Y323850D02*
D03*
X1251668D02*
D03*
X1246418Y297372D02*
D03*
X1251668D02*
D03*
X1246418Y443001D02*
D03*
X1251668D02*
D03*
X1246418Y403284D02*
D03*
X1251668D02*
D03*
X1246418Y409903D02*
D03*
X1251668D02*
D03*
X1246418Y436381D02*
D03*
X1251668D02*
D03*
X1251668Y290753D02*
D03*
X1246418D02*
D03*
X1246418Y303992D02*
D03*
X1251668D02*
D03*
X1251668Y317231D02*
D03*
X1246418D02*
D03*
X1251668Y330470D02*
D03*
X1246418D02*
D03*
X1251668Y343709D02*
D03*
X1246418D02*
D03*
X1246418Y429762D02*
D03*
X1251668D02*
D03*
X1246418Y370187D02*
D03*
X1251668D02*
D03*
X1246418Y350328D02*
D03*
X1251668D02*
D03*
X1251668Y396665D02*
D03*
X1246418D02*
D03*
X1246418Y337089D02*
D03*
X1251668D02*
D03*
X1251668Y390045D02*
D03*
X1246418D02*
D03*
X1246418Y284133D02*
D03*
X1251668D02*
D03*
X1251668Y423142D02*
D03*
X1246418D02*
D03*
X1246418Y469479D02*
D03*
X1251668D02*
D03*
X1246418Y462859D02*
D03*
X1251668D02*
D03*
X1246418Y456240D02*
D03*
X1251668D02*
D03*
X1246418Y449620D02*
D03*
X1251668D02*
D03*
X1246418Y356948D02*
D03*
X1251668D02*
D03*
X1246418Y383425D02*
D03*
X1251668D02*
D03*
X1246418Y416523D02*
D03*
X1251668D02*
D03*
X1251668Y363567D02*
D03*
X1246418D02*
D03*
D22*
X75593Y214630D02*
D03*
X84593D02*
D03*
X75510Y402590D02*
D03*
X84510D02*
D03*
X75621Y309960D02*
D03*
X84621D02*
D03*
X85459Y502677D02*
D03*
X76459D02*
D03*
X76610Y601980D02*
D03*
X85610D02*
D03*
X212780Y330454D02*
D03*
X203780D02*
D03*
X1349430Y247650D02*
D03*
X1340430D02*
D03*
X406211Y676495D02*
D03*
X415211D02*
D03*
X457320Y549440D02*
D03*
X466320D02*
D03*
X457320Y561378D02*
D03*
X466320D02*
D03*
X457320Y573316D02*
D03*
X466320D02*
D03*
X457320Y585254D02*
D03*
X466320D02*
D03*
X457320Y597192D02*
D03*
X466320D02*
D03*
X457320Y609130D02*
D03*
X466320D02*
D03*
X457320Y537502D02*
D03*
X466320D02*
D03*
X457320Y525564D02*
D03*
X466320D02*
D03*
X457320Y513626D02*
D03*
X466320D02*
D03*
X457320Y501688D02*
D03*
X466320D02*
D03*
X457320Y489750D02*
D03*
X466320D02*
D03*
X623241Y342900D02*
D03*
X614241D02*
D03*
X981044Y445435D02*
D03*
X972044D02*
D03*
X971984Y456936D02*
D03*
X980984D02*
D03*
X965329Y555573D02*
D03*
X956329D02*
D03*
X1217151Y508191D02*
D03*
X1226151D02*
D03*
X1710790Y270002D02*
D03*
X1719790D02*
D03*
X1710790Y255226D02*
D03*
X1719790D02*
D03*
X1710790Y240450D02*
D03*
X1719790D02*
D03*
X1710790Y225673D02*
D03*
X1719790D02*
D03*
Y210210D02*
D03*
X1710790D02*
D03*
X1629090Y184810D02*
D03*
X1638090D02*
D03*
X1684600Y135865D02*
D03*
X1693600D02*
D03*
X1602922Y110463D02*
D03*
X1593922D02*
D03*
Y122544D02*
D03*
X1602922D02*
D03*
X1593922Y135863D02*
D03*
X1602922D02*
D03*
X1540497Y135865D02*
D03*
X1549497D02*
D03*
X1456025Y110463D02*
D03*
X1447025D02*
D03*
Y123161D02*
D03*
X1456025D02*
D03*
X1447025Y135863D02*
D03*
X1456025D02*
D03*
X1395862Y135865D02*
D03*
X1404862D02*
D03*
X1258616Y110463D02*
D03*
X1249616D02*
D03*
X1258616Y123165D02*
D03*
X1249616D02*
D03*
Y135865D02*
D03*
X1258616D02*
D03*
X1168741Y110463D02*
D03*
X1159741D02*
D03*
X1159744Y135863D02*
D03*
X1168744D02*
D03*
X1159744Y123161D02*
D03*
X1168744D02*
D03*
X1123898Y104024D02*
D03*
X1114898D02*
D03*
Y116724D02*
D03*
X1123898D02*
D03*
X1114898Y129424D02*
D03*
X1123898D02*
D03*
Y142124D02*
D03*
X1114898D02*
D03*
X985713Y103821D02*
D03*
X976713D02*
D03*
Y116521D02*
D03*
X985713D02*
D03*
X976713Y129221D02*
D03*
X985713D02*
D03*
Y141921D02*
D03*
X976713D02*
D03*
X1012028Y142124D02*
D03*
X1021028D02*
D03*
Y129424D02*
D03*
X1012028D02*
D03*
X1021028Y116724D02*
D03*
X1012028D02*
D03*
Y104024D02*
D03*
X1021028D02*
D03*
X1060398Y157037D02*
D03*
X1051398D02*
D03*
X1074258Y157037D02*
D03*
X1083258D02*
D03*
X1062808Y172428D02*
D03*
X1071808D02*
D03*
X936073Y157037D02*
D03*
X945073D02*
D03*
X873843Y141921D02*
D03*
X882843D02*
D03*
Y129221D02*
D03*
X873843D02*
D03*
X882843Y116521D02*
D03*
X873843D02*
D03*
Y103821D02*
D03*
X882843D02*
D03*
X320170Y105410D02*
D03*
X311170D02*
D03*
X330780Y105410D02*
D03*
X339780D02*
D03*
X507420D02*
D03*
X498420D02*
D03*
X517620D02*
D03*
X526620D02*
D03*
X352480Y173223D02*
D03*
X343480D02*
D03*
X460457D02*
D03*
X451457D02*
D03*
X473047D02*
D03*
X482047D02*
D03*
X186110Y120650D02*
D03*
X177110D02*
D03*
X177253Y133430D02*
D03*
X186253D02*
D03*
X83240Y127000D02*
D03*
X74240D02*
D03*
X75593Y227410D02*
D03*
X84593D02*
D03*
X75623Y322660D02*
D03*
X84623D02*
D03*
X75623Y415370D02*
D03*
X84623D02*
D03*
X85459Y515377D02*
D03*
X76459D02*
D03*
X76610Y614680D02*
D03*
X85610D02*
D03*
X212780Y530018D02*
D03*
X203780D02*
D03*
X417277Y173223D02*
D03*
X408277D02*
D03*
X429867D02*
D03*
X438867D02*
D03*
X387184D02*
D03*
X396184D02*
D03*
X374334D02*
D03*
X365334D02*
D03*
X922213Y157037D02*
D03*
X913213D02*
D03*
X752063Y83544D02*
D03*
X761063D02*
D03*
X873842D02*
D03*
X882842D02*
D03*
X1303914Y123161D02*
D03*
X1312914D02*
D03*
X1303914Y135863D02*
D03*
X1312914D02*
D03*
Y110463D02*
D03*
X1303914D02*
D03*
X752065Y73507D02*
D03*
X761065D02*
D03*
X752065Y63472D02*
D03*
X761065D02*
D03*
X873843Y73507D02*
D03*
X882843D02*
D03*
X873843Y63472D02*
D03*
X882843D02*
D03*
D23*
X665400Y713160D02*
D03*
Y704160D02*
D03*
X652900Y713160D02*
D03*
Y704160D02*
D03*
X640400Y713160D02*
D03*
Y704160D02*
D03*
X628122Y713160D02*
D03*
Y704160D02*
D03*
X361221Y678914D02*
D03*
Y687914D02*
D03*
X512172Y678914D02*
D03*
Y687914D02*
D03*
X751614Y465426D02*
D03*
Y474426D02*
D03*
X713351Y328621D02*
D03*
Y337621D02*
D03*
X980862Y477438D02*
D03*
Y468438D02*
D03*
X933531Y515121D02*
D03*
Y524121D02*
D03*
X201168Y596210D02*
D03*
Y605210D02*
D03*
X212598Y596210D02*
D03*
Y605210D02*
D03*
D24*
X450610Y271780D02*
D03*
X420610D02*
D03*
X450610Y387350D02*
D03*
X420610D02*
D03*
D25*
X450610Y277780D02*
D03*
Y265780D02*
D03*
X420610D02*
D03*
Y277780D02*
D03*
X450610Y393350D02*
D03*
Y381350D02*
D03*
X420610D02*
D03*
Y393350D02*
D03*
D26*
X539900Y759000D02*
D03*
X690900D02*
D03*
X914000D02*
D03*
X738000D02*
D03*
X740210Y39115D02*
D03*
X651710D02*
D03*
X862130D02*
D03*
X773630D02*
D03*
X1701000Y39000D02*
D03*
X1587500D02*
D03*
X1554403D02*
D03*
X1440903D02*
D03*
X1407807D02*
D03*
X1294307D02*
D03*
X1261210D02*
D03*
X1147710D02*
D03*
D27*
X665400Y730000D02*
D03*
X652900D02*
D03*
X640400D02*
D03*
X627900D02*
D03*
X615400D02*
D03*
X602900D02*
D03*
X590400D02*
D03*
X577900D02*
D03*
X565400D02*
D03*
X763500D02*
D03*
X776000D02*
D03*
X788500D02*
D03*
X801000D02*
D03*
X813500D02*
D03*
X826000D02*
D03*
X838500D02*
D03*
X851000D02*
D03*
X863500D02*
D03*
X876000D02*
D03*
X888500D02*
D03*
X677210Y68115D02*
D03*
X689710D02*
D03*
X702210D02*
D03*
X714710D02*
D03*
X799130D02*
D03*
X811630D02*
D03*
X824130D02*
D03*
X836630D02*
D03*
X1675500Y68000D02*
D03*
X1663000D02*
D03*
X1650500D02*
D03*
X1638000D02*
D03*
X1625500D02*
D03*
X1613000D02*
D03*
X1528903D02*
D03*
X1516403D02*
D03*
X1503903D02*
D03*
X1491403D02*
D03*
X1478903D02*
D03*
X1466403D02*
D03*
X1382307D02*
D03*
X1369807D02*
D03*
X1357307D02*
D03*
X1344807D02*
D03*
X1332307D02*
D03*
X1319807D02*
D03*
X1235710D02*
D03*
X1223210D02*
D03*
X1210710D02*
D03*
X1198210D02*
D03*
X1185710D02*
D03*
X1173210D02*
D03*
D29*
X186510Y273050D02*
D03*
X227510D02*
D03*
X186510Y469730D02*
D03*
X227510D02*
D03*
D30*
X902793Y141921D02*
D03*
Y129221D02*
D03*
Y116521D02*
D03*
Y103821D02*
D03*
X955493D02*
D03*
Y116521D02*
D03*
Y129221D02*
D03*
Y141921D02*
D03*
X1040978Y142124D02*
D03*
Y129424D02*
D03*
Y116724D02*
D03*
Y104024D02*
D03*
X1093678D02*
D03*
Y116724D02*
D03*
Y129424D02*
D03*
Y142124D02*
D03*
D37*
X327228Y692856D02*
D03*
X346228D02*
D03*
X336728Y672856D02*
D03*
X478179Y692856D02*
D03*
X497179D02*
D03*
X487679Y672856D02*
D03*
D44*
X1623896Y113232D02*
D03*
Y119733D02*
D03*
Y126232D02*
D03*
Y132732D02*
D03*
X1664896Y113232D02*
D03*
Y119733D02*
D03*
Y126232D02*
D03*
Y132732D02*
D03*
X1520084D02*
D03*
Y126232D02*
D03*
Y119733D02*
D03*
Y113232D02*
D03*
X1479084Y132732D02*
D03*
Y126232D02*
D03*
Y119733D02*
D03*
Y113232D02*
D03*
X1375272Y132732D02*
D03*
Y126232D02*
D03*
Y119733D02*
D03*
Y113232D02*
D03*
X1334272Y132732D02*
D03*
Y126232D02*
D03*
Y119733D02*
D03*
Y113232D02*
D03*
X1189461D02*
D03*
Y119733D02*
D03*
Y126232D02*
D03*
Y132732D02*
D03*
X1230461Y113232D02*
D03*
Y119733D02*
D03*
Y126232D02*
D03*
Y132732D02*
D03*
D56*
X816760Y351419D02*
D03*
X677846Y191439D02*
D03*
D57*
X206754Y641460D02*
D03*
Y623460D02*
D03*
D58*
X499260Y92050D02*
D03*
Y82550D02*
D03*
Y73050D02*
D03*
X524360D02*
D03*
Y82550D02*
D03*
Y92050D02*
D03*
X337670Y73050D02*
D03*
Y82550D02*
D03*
Y92050D02*
D03*
X312570D02*
D03*
Y82550D02*
D03*
Y73050D02*
D03*
D176*
X636621Y451121D02*
D03*
Y438121D02*
D03*
X701621Y509621D02*
D03*
X695121D02*
D03*
X688621D02*
D03*
X682121D02*
D03*
X675621D02*
D03*
X669121D02*
D03*
X662621D02*
D03*
X656121D02*
D03*
X649621D02*
D03*
X636621D02*
D03*
X623621D02*
D03*
X617121D02*
D03*
X610621D02*
D03*
X604121D02*
D03*
X597621D02*
D03*
X591121D02*
D03*
X584621D02*
D03*
X578121D02*
D03*
X571621D02*
D03*
X701621Y503121D02*
D03*
X695121D02*
D03*
X688621D02*
D03*
X682121D02*
D03*
X669121D02*
D03*
X662621D02*
D03*
X649621D02*
D03*
X623621D02*
D03*
X610621D02*
D03*
X604121D02*
D03*
X591121D02*
D03*
X584621D02*
D03*
X578121D02*
D03*
X571621D02*
D03*
X701621Y496621D02*
D03*
X695121D02*
D03*
X688621D02*
D03*
X682121D02*
D03*
X675621D02*
D03*
X669121D02*
D03*
X662621D02*
D03*
X656121D02*
D03*
X636621D02*
D03*
X617121D02*
D03*
X610621D02*
D03*
X604121D02*
D03*
X597621D02*
D03*
X591121D02*
D03*
X584621D02*
D03*
X578121D02*
D03*
X571621D02*
D03*
X701621Y490121D02*
D03*
X695121D02*
D03*
X688621D02*
D03*
X682121D02*
D03*
X675621D02*
D03*
X669121D02*
D03*
X662621D02*
D03*
X656121D02*
D03*
X649621D02*
D03*
X623621D02*
D03*
X617121D02*
D03*
X610621D02*
D03*
X604121D02*
D03*
X597621D02*
D03*
X591121D02*
D03*
X584621D02*
D03*
X578121D02*
D03*
X571621D02*
D03*
X701621Y483621D02*
D03*
X688621D02*
D03*
X682121D02*
D03*
X675621D02*
D03*
X669121D02*
D03*
X662621D02*
D03*
X656121D02*
D03*
X617121D02*
D03*
X610621D02*
D03*
X604121D02*
D03*
X597621D02*
D03*
X591121D02*
D03*
X584621D02*
D03*
X571621D02*
D03*
X701621Y477121D02*
D03*
X695121D02*
D03*
X688621D02*
D03*
X682121D02*
D03*
X675621D02*
D03*
X669121D02*
D03*
X662621D02*
D03*
X656121D02*
D03*
X649621D02*
D03*
X623621D02*
D03*
X617121D02*
D03*
X610621D02*
D03*
X604121D02*
D03*
X597621D02*
D03*
X591121D02*
D03*
X584621D02*
D03*
X578121D02*
D03*
X571621D02*
D03*
X701621Y470621D02*
D03*
X695121D02*
D03*
X688621D02*
D03*
X682121D02*
D03*
X675621D02*
D03*
X669121D02*
D03*
X662621D02*
D03*
X656121D02*
D03*
X649621D02*
D03*
X643121D02*
D03*
X636621D02*
D03*
X630121D02*
D03*
X623621D02*
D03*
X617121D02*
D03*
X610621D02*
D03*
X604121D02*
D03*
X597621D02*
D03*
X591121D02*
D03*
X584621D02*
D03*
X578121D02*
D03*
X571621D02*
D03*
X701621Y464121D02*
D03*
X688621D02*
D03*
X682121D02*
D03*
X675621D02*
D03*
X669121D02*
D03*
X662621D02*
D03*
X656121D02*
D03*
X649621D02*
D03*
X643121D02*
D03*
X636621D02*
D03*
X630121D02*
D03*
X623621D02*
D03*
X617121D02*
D03*
X610621D02*
D03*
X604121D02*
D03*
X597621D02*
D03*
X591121D02*
D03*
X584621D02*
D03*
X571621D02*
D03*
X701621Y457621D02*
D03*
X695121D02*
D03*
X662621D02*
D03*
X656121D02*
D03*
X649621D02*
D03*
X643121D02*
D03*
X636621D02*
D03*
X630121D02*
D03*
X623621D02*
D03*
X617121D02*
D03*
X610621D02*
D03*
X604121D02*
D03*
X591121D02*
D03*
X578121D02*
D03*
X571621D02*
D03*
X662621Y451121D02*
D03*
X656121D02*
D03*
X649621D02*
D03*
X643121D02*
D03*
X630121D02*
D03*
X623621D02*
D03*
X617121D02*
D03*
X610621D02*
D03*
X701621Y444621D02*
D03*
X688621D02*
D03*
X662621D02*
D03*
X656121D02*
D03*
X649621D02*
D03*
X636621D02*
D03*
X623621D02*
D03*
X617121D02*
D03*
X610621D02*
D03*
X584621D02*
D03*
X571621D02*
D03*
X662621Y438121D02*
D03*
X656121D02*
D03*
X649621D02*
D03*
X643121D02*
D03*
X630121D02*
D03*
X623621D02*
D03*
X617121D02*
D03*
X610621D02*
D03*
X701621Y431621D02*
D03*
X695121D02*
D03*
X682121D02*
D03*
X669121D02*
D03*
X662621D02*
D03*
X656121D02*
D03*
X649621D02*
D03*
X643121D02*
D03*
X636621D02*
D03*
X630121D02*
D03*
X623621D02*
D03*
X617121D02*
D03*
X610621D02*
D03*
X604121D02*
D03*
X591121D02*
D03*
X578121D02*
D03*
X571621D02*
D03*
X701621Y425121D02*
D03*
X688621D02*
D03*
X682121D02*
D03*
X675621D02*
D03*
X669121D02*
D03*
X662621D02*
D03*
X656121D02*
D03*
X649621D02*
D03*
X643121D02*
D03*
X636621D02*
D03*
X630121D02*
D03*
X623621D02*
D03*
X617121D02*
D03*
X610621D02*
D03*
X604121D02*
D03*
X597621D02*
D03*
X591121D02*
D03*
X584621D02*
D03*
X571621D02*
D03*
X701621Y418621D02*
D03*
X695121D02*
D03*
X688621D02*
D03*
X682121D02*
D03*
X675621D02*
D03*
X669121D02*
D03*
X662621D02*
D03*
X656121D02*
D03*
X649621D02*
D03*
X643121D02*
D03*
X636621D02*
D03*
X630121D02*
D03*
X623621D02*
D03*
X617121D02*
D03*
X610621D02*
D03*
X604121D02*
D03*
X597621D02*
D03*
X591121D02*
D03*
X584621D02*
D03*
X578121D02*
D03*
X571621D02*
D03*
X701621Y412121D02*
D03*
X695121D02*
D03*
X688621D02*
D03*
X682121D02*
D03*
X675621D02*
D03*
X669121D02*
D03*
X662621D02*
D03*
X656121D02*
D03*
X649621D02*
D03*
X623621D02*
D03*
X617121D02*
D03*
X610621D02*
D03*
X604121D02*
D03*
X597621D02*
D03*
X591121D02*
D03*
X584621D02*
D03*
X578121D02*
D03*
X571621D02*
D03*
X701621Y405621D02*
D03*
X688621D02*
D03*
X682121D02*
D03*
X675621D02*
D03*
X669121D02*
D03*
X662621D02*
D03*
X656121D02*
D03*
X617121D02*
D03*
X610621D02*
D03*
X604121D02*
D03*
X597621D02*
D03*
X591121D02*
D03*
X584621D02*
D03*
X571621D02*
D03*
X701621Y399121D02*
D03*
X695121D02*
D03*
X688621D02*
D03*
X682121D02*
D03*
X675621D02*
D03*
X669121D02*
D03*
X662621D02*
D03*
X656121D02*
D03*
X649621D02*
D03*
X623621D02*
D03*
X617121D02*
D03*
X610621D02*
D03*
X604121D02*
D03*
X597621D02*
D03*
X591121D02*
D03*
X584621D02*
D03*
X578121D02*
D03*
X571621D02*
D03*
X701621Y392621D02*
D03*
X695121D02*
D03*
X688621D02*
D03*
X682121D02*
D03*
X675621D02*
D03*
X669121D02*
D03*
X662621D02*
D03*
X656121D02*
D03*
X636621D02*
D03*
X617121D02*
D03*
X610621D02*
D03*
X604121D02*
D03*
X597621D02*
D03*
X591121D02*
D03*
X584621D02*
D03*
X578121D02*
D03*
X571621D02*
D03*
X701621Y386121D02*
D03*
X695121D02*
D03*
X688621D02*
D03*
X682121D02*
D03*
X669121D02*
D03*
X662621D02*
D03*
X649621D02*
D03*
X623621D02*
D03*
X610621D02*
D03*
X604121D02*
D03*
X591121D02*
D03*
X584621D02*
D03*
X578121D02*
D03*
X571621D02*
D03*
X701621Y379621D02*
D03*
X695121D02*
D03*
X688621D02*
D03*
X682121D02*
D03*
X675621D02*
D03*
X669121D02*
D03*
X662621D02*
D03*
X656121D02*
D03*
X649621D02*
D03*
X636621D02*
D03*
X623621D02*
D03*
X617121D02*
D03*
X610621D02*
D03*
X604121D02*
D03*
X597621D02*
D03*
X591121D02*
D03*
X584621D02*
D03*
X578121D02*
D03*
X571621D02*
D03*
X682121Y457621D02*
D03*
X669121D02*
D03*
D177*
X1009471Y464690D02*
D03*
Y459690D02*
D03*
Y454690D02*
D03*
Y449690D02*
D03*
Y444690D02*
D03*
Y439690D02*
D03*
Y434690D02*
D03*
Y419690D02*
D03*
Y414690D02*
D03*
Y409690D02*
D03*
Y404690D02*
D03*
Y399690D02*
D03*
Y394690D02*
D03*
Y389690D02*
D03*
Y384690D02*
D03*
Y379690D02*
D03*
Y374690D02*
D03*
Y369690D02*
D03*
Y364690D02*
D03*
Y359690D02*
D03*
Y354690D02*
D03*
Y349690D02*
D03*
Y344690D02*
D03*
Y339690D02*
D03*
Y334690D02*
D03*
Y329690D02*
D03*
Y324690D02*
D03*
Y319690D02*
D03*
Y314690D02*
D03*
Y309690D02*
D03*
Y304690D02*
D03*
Y299690D02*
D03*
Y294690D02*
D03*
Y289690D02*
D03*
X1220471D02*
D03*
Y294690D02*
D03*
Y299690D02*
D03*
Y304690D02*
D03*
Y309690D02*
D03*
Y314690D02*
D03*
Y319690D02*
D03*
Y324690D02*
D03*
Y329690D02*
D03*
Y334690D02*
D03*
Y339690D02*
D03*
Y344690D02*
D03*
Y349690D02*
D03*
Y354690D02*
D03*
Y359690D02*
D03*
Y364690D02*
D03*
Y369690D02*
D03*
Y374690D02*
D03*
Y379690D02*
D03*
Y384690D02*
D03*
Y389690D02*
D03*
Y394690D02*
D03*
Y399690D02*
D03*
Y404690D02*
D03*
Y409690D02*
D03*
Y414690D02*
D03*
Y419690D02*
D03*
Y424690D02*
D03*
Y429690D02*
D03*
Y434690D02*
D03*
Y439690D02*
D03*
Y444690D02*
D03*
Y449690D02*
D03*
Y454690D02*
D03*
Y459690D02*
D03*
Y464690D02*
D03*
X1009471Y424690D02*
D03*
Y429690D02*
D03*
D178*
X1027471Y271190D02*
D03*
X1032471D02*
D03*
X1037471D02*
D03*
X1042471D02*
D03*
X1047471D02*
D03*
X1052471D02*
D03*
X1057471D02*
D03*
X1062471D02*
D03*
X1067471D02*
D03*
X1072471D02*
D03*
X1077471D02*
D03*
X1082471D02*
D03*
X1087471D02*
D03*
X1092471D02*
D03*
X1097471D02*
D03*
X1102471D02*
D03*
X1107471D02*
D03*
X1112471D02*
D03*
X1117471D02*
D03*
X1122471D02*
D03*
X1127471D02*
D03*
X1132471D02*
D03*
X1137471D02*
D03*
X1142471D02*
D03*
X1147471D02*
D03*
X1152471D02*
D03*
X1157471D02*
D03*
X1162471D02*
D03*
X1167471D02*
D03*
X1172471D02*
D03*
X1177471D02*
D03*
X1182471D02*
D03*
X1187471D02*
D03*
X1192471D02*
D03*
X1197471D02*
D03*
X1202471D02*
D03*
Y483190D02*
D03*
X1197471D02*
D03*
X1192471D02*
D03*
X1187471D02*
D03*
X1182471D02*
D03*
X1177471D02*
D03*
X1172471D02*
D03*
X1167471D02*
D03*
X1162471D02*
D03*
X1157471D02*
D03*
X1152471D02*
D03*
X1147471D02*
D03*
X1142471D02*
D03*
X1137471D02*
D03*
X1132471D02*
D03*
X1127471D02*
D03*
X1122471D02*
D03*
X1117471D02*
D03*
X1112471D02*
D03*
X1107471D02*
D03*
X1102471D02*
D03*
X1097471D02*
D03*
X1092471D02*
D03*
X1087471D02*
D03*
X1082471D02*
D03*
X1077471D02*
D03*
X1072471D02*
D03*
X1067471D02*
D03*
X1062471D02*
D03*
X1057471D02*
D03*
X1052471D02*
D03*
X1047471D02*
D03*
X1042471D02*
D03*
X1037471D02*
D03*
X1032471D02*
D03*
X1027471D02*
D03*
D179*
X818621Y328621D02*
D03*
X810621D02*
D03*
X802621D02*
D03*
X770621D02*
D03*
X762621D02*
D03*
X754621D02*
D03*
X818621Y320621D02*
D03*
X810621D02*
D03*
X802621D02*
D03*
X770621D02*
D03*
X762621D02*
D03*
X754621D02*
D03*
X818621Y312621D02*
D03*
X810621D02*
D03*
X802621D02*
D03*
X770621D02*
D03*
X762621D02*
D03*
X754621D02*
D03*
X818621Y304621D02*
D03*
X810621D02*
D03*
X802621D02*
D03*
X770621D02*
D03*
X762621D02*
D03*
X754621D02*
D03*
X818621Y296621D02*
D03*
X810621D02*
D03*
X802621D02*
D03*
X770621D02*
D03*
X762621D02*
D03*
X754621D02*
D03*
X818621Y288621D02*
D03*
X810621D02*
D03*
X802621D02*
D03*
X770621D02*
D03*
X762621D02*
D03*
X754621D02*
D03*
X818621Y280621D02*
D03*
X810621D02*
D03*
X802621D02*
D03*
X770621D02*
D03*
X762621D02*
D03*
X754621D02*
D03*
X818621Y272621D02*
D03*
X810621D02*
D03*
X802621D02*
D03*
X770621D02*
D03*
X762621D02*
D03*
X754621D02*
D03*
X818621Y264621D02*
D03*
X810621D02*
D03*
X802621D02*
D03*
X770621D02*
D03*
X762621D02*
D03*
X754621D02*
D03*
X818621Y256621D02*
D03*
X810621D02*
D03*
X802621D02*
D03*
X770621D02*
D03*
X762621D02*
D03*
X754621D02*
D03*
X818621Y248621D02*
D03*
X810621D02*
D03*
X802621D02*
D03*
X770621D02*
D03*
X762621D02*
D03*
X754621D02*
D03*
X818621Y240621D02*
D03*
X810621D02*
D03*
X802621D02*
D03*
X770621D02*
D03*
X762621D02*
D03*
X754621D02*
D03*
X818621Y232621D02*
D03*
X810621D02*
D03*
X802621D02*
D03*
X770621D02*
D03*
X762621D02*
D03*
X754621D02*
D03*
X818621Y224621D02*
D03*
X810621D02*
D03*
X802621D02*
D03*
X770621D02*
D03*
X762621D02*
D03*
X754621D02*
D03*
X818621Y216621D02*
D03*
X810621D02*
D03*
X802621D02*
D03*
X770621D02*
D03*
X762621D02*
D03*
X754621D02*
D03*
X818621Y208621D02*
D03*
X810621D02*
D03*
X802621D02*
D03*
X770621D02*
D03*
X762621D02*
D03*
X754621D02*
D03*
D180*
X167640Y156210D02*
D03*
X195640D02*
D03*
X246440D02*
D03*
X218440D02*
D03*
X66010Y345440D02*
D03*
X94010D02*
D03*
X66010Y438150D02*
D03*
X94010D02*
D03*
X94846Y538158D02*
D03*
X66846D02*
D03*
X221008Y352116D02*
D03*
X193008D02*
D03*
X221010Y394800D02*
D03*
X193010D02*
D03*
X218440Y113030D02*
D03*
X246440D02*
D03*
X115540D02*
D03*
X143540D02*
D03*
X221010Y198120D02*
D03*
X193010D02*
D03*
X92740Y156210D02*
D03*
X64740D02*
D03*
X93980Y250190D02*
D03*
X65980D02*
D03*
X116700Y207021D02*
D03*
X144700D02*
D03*
X116780Y250190D02*
D03*
X144780D02*
D03*
X116810Y345440D02*
D03*
X144810D02*
D03*
X116780Y302340D02*
D03*
X144780D02*
D03*
X116810Y438150D02*
D03*
X144810D02*
D03*
X116810Y395050D02*
D03*
X144810D02*
D03*
X145646Y495057D02*
D03*
X117647D02*
D03*
X145646Y538158D02*
D03*
X117647D02*
D03*
X117797Y594360D02*
D03*
X145797D02*
D03*
X94997Y637460D02*
D03*
X66997D02*
D03*
X117797D02*
D03*
X145797D02*
D03*
X94222Y702362D02*
D03*
X66222D02*
D03*
X117022Y702362D02*
D03*
X145022D02*
D03*
X218482Y702362D02*
D03*
X246482D02*
D03*
X221010Y550418D02*
D03*
X193010D02*
D03*
X115540Y156210D02*
D03*
X143540D02*
D03*
X195682Y702362D02*
D03*
X167682D02*
D03*
D181*
X1229314Y586772D02*
D03*
X1195703Y586740D02*
D03*
X930609Y613378D02*
D03*
X964220Y613410D02*
D03*
X964731Y586772D02*
D03*
X931120Y586740D02*
D03*
X1721819Y613378D02*
D03*
X1755430Y613410D02*
D03*
X1755940Y586772D02*
D03*
X1722330Y586740D02*
D03*
X1018663Y586772D02*
D03*
X985053Y586740D02*
D03*
X1071326Y586772D02*
D03*
X1037715Y586740D02*
D03*
X1123988Y586772D02*
D03*
X1090378Y586740D02*
D03*
X1176651Y586772D02*
D03*
X1143040Y586740D02*
D03*
X1281976Y586772D02*
D03*
X1248366Y586740D02*
D03*
X1334639Y586772D02*
D03*
X1301028Y586740D02*
D03*
X984542Y613378D02*
D03*
X1018153Y613410D02*
D03*
X1037205Y613378D02*
D03*
X1070815Y613410D02*
D03*
X1089867Y613378D02*
D03*
X1123478Y613410D02*
D03*
X1142530Y613378D02*
D03*
X1176141Y613410D02*
D03*
X1195193Y613378D02*
D03*
X1228803Y613410D02*
D03*
X1247855Y613378D02*
D03*
X1281466Y613410D02*
D03*
X1300518Y613378D02*
D03*
X1334128Y613410D02*
D03*
X1387302Y586772D02*
D03*
X1353691Y586740D02*
D03*
X1439964Y586772D02*
D03*
X1406354Y586740D02*
D03*
X1492627Y586772D02*
D03*
X1459016Y586740D02*
D03*
X1545289Y586772D02*
D03*
X1511679Y586740D02*
D03*
X1597952Y586772D02*
D03*
X1564342Y586740D02*
D03*
X1650615Y586772D02*
D03*
X1617004Y586740D02*
D03*
X1703277Y586772D02*
D03*
X1669667Y586740D02*
D03*
X1353181Y613378D02*
D03*
X1386791Y613410D02*
D03*
X1405843Y613378D02*
D03*
X1439454Y613410D02*
D03*
X1458506Y613378D02*
D03*
X1492116Y613410D02*
D03*
X1511168Y613378D02*
D03*
X1544779Y613410D02*
D03*
X1563831Y613378D02*
D03*
X1597442Y613410D02*
D03*
X1616494Y613378D02*
D03*
X1650104Y613410D02*
D03*
X1669156Y613378D02*
D03*
X1702767Y613410D02*
D03*
D182*
X919297Y44195D02*
D03*
X944697Y73396D02*
D03*
X970097Y44195D02*
D03*
X995497Y73396D02*
D03*
X1020897Y44195D02*
D03*
X1046297Y73396D02*
D03*
X1071697Y44195D02*
D03*
X1097097Y73396D02*
D03*
X481838Y755524D02*
D03*
X456438Y726324D02*
D03*
X431038Y755524D02*
D03*
X405638Y726324D02*
D03*
X380238Y755524D02*
D03*
X354838Y726324D02*
D03*
X329438Y755524D02*
D03*
X304038Y726324D02*
D03*
D183*
X402850Y154900D02*
D03*
X444750D02*
D03*
D184*
X476550Y110600D02*
D03*
D185*
X476550Y142450D02*
D03*
X370050Y148150D02*
D03*
D186*
Y122050D02*
D03*
D187*
X370200Y109350D02*
D03*
D188*
X464800Y82550D02*
D03*
X453800D02*
D03*
X442800D02*
D03*
X431800D02*
D03*
X420800D02*
D03*
X409800D02*
D03*
X398800D02*
D03*
X387800D02*
D03*
D189*
X429090Y502610D02*
D03*
Y512610D02*
D03*
Y582610D02*
D03*
Y592610D02*
D03*
X419090Y502610D02*
D03*
Y592610D02*
D03*
X399090Y512610D02*
D03*
Y522610D02*
D03*
Y532610D02*
D03*
Y542610D02*
D03*
Y552610D02*
D03*
Y562610D02*
D03*
Y572610D02*
D03*
Y582610D02*
D03*
X389090Y512610D02*
D03*
Y522610D02*
D03*
Y532610D02*
D03*
Y542610D02*
D03*
Y552610D02*
D03*
Y562610D02*
D03*
Y572610D02*
D03*
Y582610D02*
D03*
X379090Y512610D02*
D03*
Y522610D02*
D03*
Y532610D02*
D03*
Y542610D02*
D03*
Y552610D02*
D03*
Y562610D02*
D03*
Y572610D02*
D03*
Y582610D02*
D03*
X369090Y512610D02*
D03*
Y522610D02*
D03*
Y532610D02*
D03*
Y542610D02*
D03*
Y552610D02*
D03*
Y562610D02*
D03*
Y572610D02*
D03*
Y582610D02*
D03*
X359090Y512610D02*
D03*
Y522610D02*
D03*
Y532610D02*
D03*
Y542610D02*
D03*
Y552610D02*
D03*
Y562610D02*
D03*
Y572610D02*
D03*
Y582610D02*
D03*
X349090Y512610D02*
D03*
Y522610D02*
D03*
Y532610D02*
D03*
Y542610D02*
D03*
Y552610D02*
D03*
Y562610D02*
D03*
Y572610D02*
D03*
Y582610D02*
D03*
X339090Y512610D02*
D03*
Y522610D02*
D03*
Y532610D02*
D03*
Y542610D02*
D03*
Y552610D02*
D03*
Y562610D02*
D03*
Y572610D02*
D03*
Y582610D02*
D03*
X329090Y512610D02*
D03*
Y522610D02*
D03*
Y532610D02*
D03*
Y542610D02*
D03*
Y552610D02*
D03*
Y562610D02*
D03*
Y572610D02*
D03*
Y582610D02*
D03*
X319090Y512610D02*
D03*
Y522610D02*
D03*
Y532610D02*
D03*
Y542610D02*
D03*
Y552610D02*
D03*
Y562610D02*
D03*
Y572610D02*
D03*
Y582610D02*
D03*
X309090Y512610D02*
D03*
Y522610D02*
D03*
Y532610D02*
D03*
Y542610D02*
D03*
Y552610D02*
D03*
Y562610D02*
D03*
Y572610D02*
D03*
Y582610D02*
D03*
X299090Y512610D02*
D03*
Y522610D02*
D03*
Y532610D02*
D03*
Y542610D02*
D03*
Y552610D02*
D03*
Y562610D02*
D03*
Y572610D02*
D03*
Y582610D02*
D03*
X279090Y502610D02*
D03*
Y592610D02*
D03*
X269090Y502610D02*
D03*
Y512610D02*
D03*
Y582610D02*
D03*
Y592610D02*
D03*
D190*
X791036Y460286D02*
D03*
X775410Y475911D02*
D03*
X787444Y487945D02*
D03*
X803070Y472319D02*
D03*
D191*
X812873Y456443D02*
D03*
X809161Y452731D02*
D03*
D192*
X809497Y489749D02*
D03*
X805785Y493461D02*
D03*
D194*
X947219Y637172D02*
D03*
Y698272D02*
D03*
X1001152Y637172D02*
D03*
Y698272D02*
D03*
X1053815Y637172D02*
D03*
Y698272D02*
D03*
X1106477Y637172D02*
D03*
Y698272D02*
D03*
X1159140Y637172D02*
D03*
Y698272D02*
D03*
X1211803Y637172D02*
D03*
Y698272D02*
D03*
X1264465Y637172D02*
D03*
Y698272D02*
D03*
X1317128Y637172D02*
D03*
Y698272D02*
D03*
X1369790Y637172D02*
D03*
Y698272D02*
D03*
X1422453Y637172D02*
D03*
Y698272D02*
D03*
X1475116Y637172D02*
D03*
Y698272D02*
D03*
X1527778Y637172D02*
D03*
Y698272D02*
D03*
X1580441Y637172D02*
D03*
Y698272D02*
D03*
X1633104Y637172D02*
D03*
Y698272D02*
D03*
X1685766Y637172D02*
D03*
Y698272D02*
D03*
X1738429Y637172D02*
D03*
Y698272D02*
D03*
D195*
X949783Y538621D02*
D03*
Y500621D02*
D03*
X972783D02*
D03*
Y538621D02*
D03*
D196*
X560102Y105109D02*
D03*
X560070Y138720D02*
D03*
X719977Y105109D02*
D03*
X719945Y138720D02*
D03*
X597403Y105109D02*
D03*
X597372Y138720D02*
D03*
X755669Y105109D02*
D03*
X755638Y138720D02*
D03*
X634705Y105109D02*
D03*
X634673Y138720D02*
D03*
X791363Y105109D02*
D03*
X791331Y138720D02*
D03*
X672007Y105109D02*
D03*
X671975Y138720D02*
D03*
X827056Y105109D02*
D03*
X827024Y138720D02*
D03*
D200*
X587072Y59714D02*
D03*
X580572D02*
D03*
X574072D02*
D03*
X567572D02*
D03*
X561072D02*
D03*
D201*
X114397Y669185D02*
D03*
X96397D02*
D03*
X216587D02*
D03*
X198587D02*
D03*
D230*
X626618Y323596D02*
D03*
X611378D02*
D03*
X1214031Y527738D02*
D03*
X1229271D02*
D03*
D231*
X558578Y33114D02*
D03*
D232*
X585572D02*
D03*
D233*
X607822D02*
D03*
X540322D02*
D03*
D234*
X549197Y58864D02*
D03*
X598947D02*
D03*
M02*
