G04*
G04 #@! TF.GenerationSoftware,Altium Limited,Altium Designer,24.1.2 (44)*
G04*
G04 Layer_Color=255*
%FSLAX44Y44*%
%MOMM*%
G71*
G04*
G04 #@! TF.SameCoordinates,08E163FE-A1B1-404E-B758-27256C6DDFFB*
G04*
G04*
G04 #@! TF.FilePolarity,Positive*
G04*
G01*
G75*
%ADD18R,0.6000X1.0000*%
%ADD19R,1.2500X1.8000*%
G04:AMPARAMS|DCode=20|XSize=0.275mm|YSize=0.3mm|CornerRadius=0.0688mm|HoleSize=0mm|Usage=FLASHONLY|Rotation=90.000|XOffset=0mm|YOffset=0mm|HoleType=Round|Shape=RoundedRectangle|*
%AMROUNDEDRECTD20*
21,1,0.2750,0.1625,0,0,90.0*
21,1,0.1375,0.3000,0,0,90.0*
1,1,0.1375,0.0813,0.0688*
1,1,0.1375,0.0813,-0.0688*
1,1,0.1375,-0.0813,-0.0688*
1,1,0.1375,-0.0813,0.0688*
%
%ADD20ROUNDEDRECTD20*%
G04:AMPARAMS|DCode=21|XSize=0.275mm|YSize=0.3mm|CornerRadius=0.0688mm|HoleSize=0mm|Usage=FLASHONLY|Rotation=0.000|XOffset=0mm|YOffset=0mm|HoleType=Round|Shape=RoundedRectangle|*
%AMROUNDEDRECTD21*
21,1,0.2750,0.1625,0,0,0.0*
21,1,0.1375,0.3000,0,0,0.0*
1,1,0.1375,0.0688,-0.0813*
1,1,0.1375,-0.0688,-0.0813*
1,1,0.1375,-0.0688,0.0813*
1,1,0.1375,0.0688,0.0813*
%
%ADD21ROUNDEDRECTD21*%
G04:AMPARAMS|DCode=22|XSize=0.55mm|YSize=0.6mm|CornerRadius=0.1375mm|HoleSize=0mm|Usage=FLASHONLY|Rotation=0.000|XOffset=0mm|YOffset=0mm|HoleType=Round|Shape=RoundedRectangle|*
%AMROUNDEDRECTD22*
21,1,0.5500,0.3250,0,0,0.0*
21,1,0.2750,0.6000,0,0,0.0*
1,1,0.2750,0.1375,-0.1625*
1,1,0.2750,-0.1375,-0.1625*
1,1,0.2750,-0.1375,0.1625*
1,1,0.2750,0.1375,0.1625*
%
%ADD22ROUNDEDRECTD22*%
G04:AMPARAMS|DCode=23|XSize=0.55mm|YSize=0.6mm|CornerRadius=0.1375mm|HoleSize=0mm|Usage=FLASHONLY|Rotation=90.000|XOffset=0mm|YOffset=0mm|HoleType=Round|Shape=RoundedRectangle|*
%AMROUNDEDRECTD23*
21,1,0.5500,0.3250,0,0,90.0*
21,1,0.2750,0.6000,0,0,90.0*
1,1,0.2750,0.1625,0.1375*
1,1,0.2750,0.1625,-0.1375*
1,1,0.2750,-0.1625,-0.1375*
1,1,0.2750,-0.1625,0.1375*
%
%ADD23ROUNDEDRECTD23*%
%ADD24R,1.0000X0.3500*%
%ADD25R,1.0000X0.5000*%
%ADD26R,2.1000X3.0000*%
%ADD27R,0.8000X1.6000*%
G04:AMPARAMS|DCode=29|XSize=1.65mm|YSize=2.55mm|CornerRadius=0.2475mm|HoleSize=0mm|Usage=FLASHONLY|Rotation=90.000|XOffset=0mm|YOffset=0mm|HoleType=Round|Shape=RoundedRectangle|*
%AMROUNDEDRECTD29*
21,1,1.6500,2.0550,0,0,90.0*
21,1,1.1550,2.5500,0,0,90.0*
1,1,0.4950,1.0275,0.5775*
1,1,0.4950,1.0275,-0.5775*
1,1,0.4950,-1.0275,-0.5775*
1,1,0.4950,-1.0275,0.5775*
%
%ADD29ROUNDEDRECTD29*%
G04:AMPARAMS|DCode=30|XSize=1.64mm|YSize=0.59mm|CornerRadius=0.1475mm|HoleSize=0mm|Usage=FLASHONLY|Rotation=180.000|XOffset=0mm|YOffset=0mm|HoleType=Round|Shape=RoundedRectangle|*
%AMROUNDEDRECTD30*
21,1,1.6400,0.2950,0,0,180.0*
21,1,1.3450,0.5900,0,0,180.0*
1,1,0.2950,-0.6725,0.1475*
1,1,0.2950,0.6725,0.1475*
1,1,0.2950,0.6725,-0.1475*
1,1,0.2950,-0.6725,-0.1475*
%
%ADD30ROUNDEDRECTD30*%
G04:AMPARAMS|DCode=37|XSize=1.32mm|YSize=0.6mm|CornerRadius=0.075mm|HoleSize=0mm|Usage=FLASHONLY|Rotation=270.000|XOffset=0mm|YOffset=0mm|HoleType=Round|Shape=RoundedRectangle|*
%AMROUNDEDRECTD37*
21,1,1.3200,0.4500,0,0,270.0*
21,1,1.1700,0.6000,0,0,270.0*
1,1,0.1500,-0.2250,-0.5850*
1,1,0.1500,-0.2250,0.5850*
1,1,0.1500,0.2250,0.5850*
1,1,0.1500,0.2250,-0.5850*
%
%ADD37ROUNDEDRECTD37*%
%ADD44O,1.4000X0.3500*%
%ADD56C,1.0000*%
G04:AMPARAMS|DCode=57|XSize=1.2mm|YSize=1.3mm|CornerRadius=0.246mm|HoleSize=0mm|Usage=FLASHONLY|Rotation=90.000|XOffset=0mm|YOffset=0mm|HoleType=Round|Shape=RoundedRectangle|*
%AMROUNDEDRECTD57*
21,1,1.2000,0.8080,0,0,90.0*
21,1,0.7080,1.3000,0,0,90.0*
1,1,0.4920,0.4040,0.3540*
1,1,0.4920,0.4040,-0.3540*
1,1,0.4920,-0.4040,-0.3540*
1,1,0.4920,-0.4040,0.3540*
%
%ADD57ROUNDEDRECTD57*%
G04:AMPARAMS|DCode=58|XSize=1.21mm|YSize=0.59mm|CornerRadius=0.0738mm|HoleSize=0mm|Usage=FLASHONLY|Rotation=180.000|XOffset=0mm|YOffset=0mm|HoleType=Round|Shape=RoundedRectangle|*
%AMROUNDEDRECTD58*
21,1,1.2100,0.4425,0,0,180.0*
21,1,1.0625,0.5900,0,0,180.0*
1,1,0.1475,-0.5313,0.2213*
1,1,0.1475,0.5313,0.2213*
1,1,0.1475,0.5313,-0.2213*
1,1,0.1475,-0.5313,-0.2213*
%
%ADD58ROUNDEDRECTD58*%
%ADD151C,1.5000*%
%ADD164C,0.3000*%
%ADD165C,6.0000*%
%ADD166C,0.4000*%
%ADD176C,0.2500*%
%ADD177O,1.7000X0.3000*%
%ADD178O,0.3000X1.7000*%
%ADD179C,0.4064*%
G04:AMPARAMS|DCode=180|XSize=2.7mm|YSize=1.3mm|CornerRadius=0.247mm|HoleSize=0mm|Usage=FLASHONLY|Rotation=270.000|XOffset=0mm|YOffset=0mm|HoleType=Round|Shape=RoundedRectangle|*
%AMROUNDEDRECTD180*
21,1,2.7000,0.8060,0,0,270.0*
21,1,2.2060,1.3000,0,0,270.0*
1,1,0.4940,-0.4030,-1.1030*
1,1,0.4940,-0.4030,1.1030*
1,1,0.4940,0.4030,1.1030*
1,1,0.4940,0.4030,-1.1030*
%
%ADD180ROUNDEDRECTD180*%
G04:AMPARAMS|DCode=181|XSize=0.9mm|YSize=0.95mm|CornerRadius=0.099mm|HoleSize=0mm|Usage=FLASHONLY|Rotation=180.000|XOffset=0mm|YOffset=0mm|HoleType=Round|Shape=RoundedRectangle|*
%AMROUNDEDRECTD181*
21,1,0.9000,0.7520,0,0,180.0*
21,1,0.7020,0.9500,0,0,180.0*
1,1,0.1980,-0.3510,0.3760*
1,1,0.1980,0.3510,0.3760*
1,1,0.1980,0.3510,-0.3760*
1,1,0.1980,-0.3510,-0.3760*
%
%ADD181ROUNDEDRECTD181*%
%ADD182R,1.2700X3.4300*%
%ADD183R,2.9210X0.5588*%
%ADD184R,1.0414X2.3876*%
%ADD185R,1.0414X1.1938*%
%ADD186R,1.0414X1.0922*%
%ADD187R,0.7112X0.7874*%
%ADD188R,0.5080X0.9906*%
%ADD189C,0.4900*%
G04:AMPARAMS|DCode=190|XSize=1.397mm|YSize=1.1938mm|CornerRadius=0mm|HoleSize=0mm|Usage=FLASHONLY|Rotation=135.000|XOffset=0mm|YOffset=0mm|HoleType=Round|Shape=Rectangle|*
%AMROTATEDRECTD190*
4,1,4,0.9160,-0.0718,0.0718,-0.9160,-0.9160,0.0718,-0.0718,0.9160,0.9160,-0.0718,0.0*
%
%ADD190ROTATEDRECTD190*%

G04:AMPARAMS|DCode=191|XSize=0.275mm|YSize=0.3mm|CornerRadius=0.0688mm|HoleSize=0mm|Usage=FLASHONLY|Rotation=45.000|XOffset=0mm|YOffset=0mm|HoleType=Round|Shape=RoundedRectangle|*
%AMROUNDEDRECTD191*
21,1,0.2750,0.1625,0,0,45.0*
21,1,0.1375,0.3000,0,0,45.0*
1,1,0.1375,0.1061,-0.0088*
1,1,0.1375,0.0088,-0.1061*
1,1,0.1375,-0.1061,0.0088*
1,1,0.1375,-0.0088,0.1061*
%
%ADD191ROUNDEDRECTD191*%
G04:AMPARAMS|DCode=192|XSize=0.275mm|YSize=0.3mm|CornerRadius=0.0688mm|HoleSize=0mm|Usage=FLASHONLY|Rotation=315.000|XOffset=0mm|YOffset=0mm|HoleType=Round|Shape=RoundedRectangle|*
%AMROUNDEDRECTD192*
21,1,0.2750,0.1625,0,0,315.0*
21,1,0.1375,0.3000,0,0,315.0*
1,1,0.1375,-0.0088,-0.1061*
1,1,0.1375,-0.1061,-0.0088*
1,1,0.1375,0.0088,0.1061*
1,1,0.1375,0.1061,0.0088*
%
%ADD192ROUNDEDRECTD192*%
%ADD193R,1.0160X1.2700*%
%ADD194R,3.2700X1.0700*%
%ADD195R,1.3000X1.6000*%
G04:AMPARAMS|DCode=196|XSize=0.9mm|YSize=0.95mm|CornerRadius=0.099mm|HoleSize=0mm|Usage=FLASHONLY|Rotation=90.000|XOffset=0mm|YOffset=0mm|HoleType=Round|Shape=RoundedRectangle|*
%AMROUNDEDRECTD196*
21,1,0.9000,0.7520,0,0,90.0*
21,1,0.7020,0.9500,0,0,90.0*
1,1,0.1980,0.3760,0.3510*
1,1,0.1980,0.3760,-0.3510*
1,1,0.1980,-0.3760,-0.3510*
1,1,0.1980,-0.3760,0.3510*
%
%ADD196ROUNDEDRECTD196*%
%ADD197R,1.0000X1.6000*%
%ADD198R,1.8000X1.6000*%
%ADD199R,1.5494X1.4224*%
G04:AMPARAMS|DCode=200|XSize=0.4572mm|YSize=1.3716mm|CornerRadius=0.1143mm|HoleSize=0mm|Usage=FLASHONLY|Rotation=180.000|XOffset=0mm|YOffset=0mm|HoleType=Round|Shape=RoundedRectangle|*
%AMROUNDEDRECTD200*
21,1,0.4572,1.1430,0,0,180.0*
21,1,0.2286,1.3716,0,0,180.0*
1,1,0.2286,-0.1143,0.5715*
1,1,0.2286,0.1143,0.5715*
1,1,0.2286,0.1143,-0.5715*
1,1,0.2286,-0.1143,-0.5715*
%
%ADD200ROUNDEDRECTD200*%
G04:AMPARAMS|DCode=201|XSize=1.2mm|YSize=1.3mm|CornerRadius=0.246mm|HoleSize=0mm|Usage=FLASHONLY|Rotation=180.000|XOffset=0mm|YOffset=0mm|HoleType=Round|Shape=RoundedRectangle|*
%AMROUNDEDRECTD201*
21,1,1.2000,0.8080,0,0,180.0*
21,1,0.7080,1.3000,0,0,180.0*
1,1,0.4920,-0.3540,0.4040*
1,1,0.4920,0.3540,0.4040*
1,1,0.4920,0.3540,-0.4040*
1,1,0.4920,-0.3540,-0.4040*
%
%ADD201ROUNDEDRECTD201*%
G36*
G01X510517Y35595D02*
G01X505790Y40322D01*
G01X505790Y29625D01*
G03X507915Y27500I2125J0D01*
G01X513165D01*
G03X515290Y29625I0J2125D01*
G01Y40368D01*
G01X510517Y35595D01*
D02*
G37*
G36*
G01X505790Y49245D02*
G01Y42814D01*
G01X510540Y38100D01*
G01X515290Y42814D01*
G01Y49245D01*
G03X513165Y51370I-2125J0D01*
G01X507915D01*
G03X505790Y49245I0J-2125D01*
D02*
G37*
G36*
G01X76318Y107973D02*
G01X81045Y112700D01*
G01X70348Y112700D01*
G03X68223Y110575I0J-2125D01*
G01Y105325D01*
G03X70348Y103200I2125J0D01*
G01X81091D01*
G01X76318Y107973D01*
D02*
G37*
G36*
G01X89968Y112700D02*
G01X83537D01*
G01X78823Y107950D01*
G01X83537Y103200D01*
G01X89968D01*
G03X92093Y105325I0J2125D01*
G01Y110575D01*
G03X89968Y112700I-2125J0D01*
D02*
G37*
G36*
G01X84229Y568937D02*
G01X79502Y564210D01*
G01X90199Y564210D01*
G03X92324Y566335I0J2125D01*
G01Y571585D01*
G03X90199Y573710I-2125J0D01*
G01X79456D01*
G01X84229Y568937D01*
D02*
G37*
G36*
G01X70579Y564210D02*
G01X77010D01*
G01X81724Y568960D01*
G01X77010Y573710D01*
G01X70579D01*
G03X68454Y571585I0J-2125D01*
G01Y566335D01*
G03X70579Y564210I2125J0D01*
D02*
G37*
G36*
G01X115605Y568983D02*
G01X120332Y573710D01*
G01X109635Y573710D01*
G03X107510Y571585I0J-2125D01*
G01Y566335D01*
G03X109635Y564210I2125J0D01*
G01X120378D01*
G01X115605Y568983D01*
D02*
G37*
G36*
G01X129255Y573710D02*
G01X122824D01*
G01X118110Y568960D01*
G01X122824Y564210D01*
G01X129255D01*
G03X131380Y566335I0J2125D01*
G01Y571585D01*
G03X129255Y573710I-2125J0D01*
D02*
G37*
G36*
G01X76348Y294743D02*
G01X81075Y299470D01*
G01X70378Y299470D01*
G03X68253Y297345I0J-2125D01*
G01Y292095D01*
G03X70378Y289970I2125J0D01*
G01X81121D01*
G01X76348Y294743D01*
D02*
G37*
G36*
G01X89998Y299470D02*
G01X83567D01*
G01X78853Y294720D01*
G01X83567Y289970D01*
G01X89998D01*
G03X92123Y292095I0J2125D01*
G01Y297345D01*
G03X89998Y299470I-2125J0D01*
D02*
G37*
G36*
G01X76348Y387373D02*
G01X81075Y392100D01*
G01X70378Y392100D01*
G03X68253Y389975I0J-2125D01*
G01Y384725D01*
G03X70378Y382600I2125J0D01*
G01X81121D01*
G01X76348Y387373D01*
D02*
G37*
G36*
G01X89998Y392100D02*
G01X83567D01*
G01X78853Y387350D01*
G01X83567Y382600D01*
G01X89998D01*
G03X92123Y384725I0J2125D01*
G01Y389975D01*
G03X89998Y392100I-2125J0D01*
D02*
G37*
G36*
G01Y492187D02*
G01X83567D01*
G01X78853Y487437D01*
G01X83567Y482687D01*
G01X89998D01*
G03X92123Y484812I0J2125D01*
G01Y490062D01*
G03X89998Y492187I-2125J0D01*
D02*
G37*
G36*
G01X76348Y487460D02*
G01X81075Y492187D01*
G01X70378Y492187D01*
G03X68253Y490062I0J-2125D01*
G01Y484812D01*
G03X70378Y482687I2125J0D01*
G01X81121D01*
G01X76348Y487460D01*
D02*
G37*
G36*
G01Y586763D02*
G01X81075Y591490D01*
G01X70378Y591490D01*
G03X68253Y589365I0J-2125D01*
G01Y584115D01*
G03X70378Y581990I2125J0D01*
G01X81121D01*
G01X76348Y586763D01*
D02*
G37*
G36*
G01X89998Y591490D02*
G01X83567D01*
G01X78853Y586740D01*
G01X83567Y581990D01*
G01X89998D01*
G03X92123Y584115I0J2125D01*
G01Y589365D01*
G03X89998Y591490I-2125J0D01*
D02*
G37*
G36*
G01X76348Y199493D02*
G01X81075Y204220D01*
G01X70378Y204220D01*
G03X68253Y202095I0J-2125D01*
G01Y196845D01*
G03X70378Y194720I2125J0D01*
G01X81121D01*
G01X76348Y199493D01*
D02*
G37*
G36*
G01X89998Y204220D02*
G01X83567D01*
G01X78853Y199470D01*
G01X83567Y194720D01*
G01X89998D01*
G03X92123Y196845I0J2125D01*
G01Y202095D01*
G03X89998Y204220I-2125J0D01*
D02*
G37*
G36*
G01X177978Y105513D02*
G01X182705Y110240D01*
G01X172008Y110240D01*
G03X169883Y108115I0J-2125D01*
G01Y102865D01*
G03X172008Y100740I2125J0D01*
G01X182751D01*
G01X177978Y105513D01*
D02*
G37*
G36*
G01X191628Y110240D02*
G01X185197D01*
G01X180483Y105490D01*
G01X185197Y100740D01*
G01X191628D01*
G03X193753Y102865I0J2125D01*
G01Y108115D01*
G03X191628Y110240I-2125J0D01*
D02*
G37*
D18*
X159950Y78358D02*
D03*
X174950D02*
D03*
X189950D02*
D03*
X204950D02*
D03*
X219950D02*
D03*
X234950D02*
D03*
X249950D02*
D03*
X264950D02*
D03*
X992907Y721300D02*
D03*
X1007907D02*
D03*
X1022907D02*
D03*
X1037907D02*
D03*
X1052907D02*
D03*
X1067907D02*
D03*
X1082907D02*
D03*
X1097907D02*
D03*
X1283685D02*
D03*
X1268685D02*
D03*
X1253685D02*
D03*
X1238685D02*
D03*
X1223685D02*
D03*
X1208685D02*
D03*
X1193685D02*
D03*
X1178685D02*
D03*
X1469462D02*
D03*
X1454462D02*
D03*
X1439462D02*
D03*
X1424462D02*
D03*
X1409462D02*
D03*
X1394462D02*
D03*
X1379462D02*
D03*
X1364462D02*
D03*
X1655240D02*
D03*
X1640240D02*
D03*
X1625240D02*
D03*
X1610240D02*
D03*
X1595240D02*
D03*
X1580240D02*
D03*
X1565240D02*
D03*
X1550240D02*
D03*
D19*
X291000Y26458D02*
D03*
X133900D02*
D03*
X1123957Y773200D02*
D03*
X966857D02*
D03*
X1152635D02*
D03*
X1309735D02*
D03*
X1338412D02*
D03*
X1495513D02*
D03*
X1524190D02*
D03*
X1681290D02*
D03*
D20*
X600882Y544548D02*
D03*
Y539298D02*
D03*
X593902Y544548D02*
D03*
Y539298D02*
D03*
X614241Y544915D02*
D03*
Y539665D02*
D03*
X607621Y544680D02*
D03*
Y539430D02*
D03*
X620743Y544680D02*
D03*
Y539430D02*
D03*
X627246Y544915D02*
D03*
Y539665D02*
D03*
X640251Y544915D02*
D03*
Y539665D02*
D03*
X633748Y544915D02*
D03*
Y539665D02*
D03*
X646753Y544915D02*
D03*
Y539665D02*
D03*
X653256Y544915D02*
D03*
Y539665D02*
D03*
X666261Y544915D02*
D03*
Y539665D02*
D03*
X659759Y544915D02*
D03*
Y539665D02*
D03*
X673060Y544915D02*
D03*
Y539665D02*
D03*
X579230Y340275D02*
D03*
Y345525D02*
D03*
X572767Y340283D02*
D03*
Y345533D02*
D03*
X592235Y340275D02*
D03*
Y345525D02*
D03*
X585732Y340275D02*
D03*
Y345525D02*
D03*
X605092Y340274D02*
D03*
Y345524D02*
D03*
X598737Y340275D02*
D03*
Y345525D02*
D03*
X638747Y340274D02*
D03*
Y345523D02*
D03*
X632245Y340275D02*
D03*
Y345525D02*
D03*
X646970Y345523D02*
D03*
Y340274D02*
D03*
X1028518Y246656D02*
D03*
Y241406D02*
D03*
X1035189Y241406D02*
D03*
Y246656D02*
D03*
X1048531Y246656D02*
D03*
Y241406D02*
D03*
X1041860Y246656D02*
D03*
Y241406D02*
D03*
X1055203Y241406D02*
D03*
Y246656D02*
D03*
X1061874Y246656D02*
D03*
Y241406D02*
D03*
X1068545Y246656D02*
D03*
Y241406D02*
D03*
X1081888Y246656D02*
D03*
Y241406D02*
D03*
X1075217Y241406D02*
D03*
Y246656D02*
D03*
X1088559Y246656D02*
D03*
Y241406D02*
D03*
X1095231Y246656D02*
D03*
Y241406D02*
D03*
X1108573Y246656D02*
D03*
Y241406D02*
D03*
X1101902Y241406D02*
D03*
Y246656D02*
D03*
X1121916Y241406D02*
D03*
Y246656D02*
D03*
X1128587Y241406D02*
D03*
Y246656D02*
D03*
X1115245Y246656D02*
D03*
Y241406D02*
D03*
X1141930Y246656D02*
D03*
Y241406D02*
D03*
X1135259Y241406D02*
D03*
Y246656D02*
D03*
X1148601Y241406D02*
D03*
Y246656D02*
D03*
X1161944Y246656D02*
D03*
Y241406D02*
D03*
X1155272Y246656D02*
D03*
Y241406D02*
D03*
X1168615Y241406D02*
D03*
Y246656D02*
D03*
X1181958Y246656D02*
D03*
Y241406D02*
D03*
X1175286Y241406D02*
D03*
Y246656D02*
D03*
X1188629Y246656D02*
D03*
Y241406D02*
D03*
X1201972Y241406D02*
D03*
Y246656D02*
D03*
X1195300Y246656D02*
D03*
Y241406D02*
D03*
X1032913Y515123D02*
D03*
Y509873D02*
D03*
X1026410Y515123D02*
D03*
Y509873D02*
D03*
X1039415Y515123D02*
D03*
Y509873D02*
D03*
X1045918Y515123D02*
D03*
Y509873D02*
D03*
X1058923Y515123D02*
D03*
Y509873D02*
D03*
X1052420Y515123D02*
D03*
Y509873D02*
D03*
X1065425Y515123D02*
D03*
Y509873D02*
D03*
X1078430Y509873D02*
D03*
Y515123D02*
D03*
X1071928Y509873D02*
D03*
Y515123D02*
D03*
X1091435Y509873D02*
D03*
Y515123D02*
D03*
X1084933Y509873D02*
D03*
Y515123D02*
D03*
X1104441Y509873D02*
D03*
Y515123D02*
D03*
X1097938Y509873D02*
D03*
Y515123D02*
D03*
X1110943Y509873D02*
D03*
Y515123D02*
D03*
X1117446Y509873D02*
D03*
Y515123D02*
D03*
X1130451Y515123D02*
D03*
Y509873D02*
D03*
X1123948Y509873D02*
D03*
Y515123D02*
D03*
X1143456Y509873D02*
D03*
Y515123D02*
D03*
X1136953Y515123D02*
D03*
Y509873D02*
D03*
X1149958Y509873D02*
D03*
Y515123D02*
D03*
X1156461Y509873D02*
D03*
Y515123D02*
D03*
X1169466Y515123D02*
D03*
Y509873D02*
D03*
X1162963Y509873D02*
D03*
Y515123D02*
D03*
X1175968Y515123D02*
D03*
Y509873D02*
D03*
X1188973Y515123D02*
D03*
Y509873D02*
D03*
X1182471Y515123D02*
D03*
Y509873D02*
D03*
X1195476Y509873D02*
D03*
Y515123D02*
D03*
D21*
X739030Y446639D02*
D03*
X733780D02*
D03*
X733825Y453904D02*
D03*
X739075D02*
D03*
X733825Y460152D02*
D03*
X739075D02*
D03*
X739030Y466147D02*
D03*
X733780D02*
D03*
X739115Y472649D02*
D03*
X733865D02*
D03*
Y479152D02*
D03*
X739115D02*
D03*
X739115Y485654D02*
D03*
X733865D02*
D03*
X734214Y543510D02*
D03*
X739464D02*
D03*
X734119Y537030D02*
D03*
X739370D02*
D03*
X739244Y530657D02*
D03*
X733994D02*
D03*
X739305Y524222D02*
D03*
X734055D02*
D03*
X739238Y518051D02*
D03*
X733988D02*
D03*
X733865Y511978D02*
D03*
X739115D02*
D03*
X739137Y505582D02*
D03*
X733887D02*
D03*
X739115Y499152D02*
D03*
X733865D02*
D03*
X739115Y492157D02*
D03*
X733865D02*
D03*
X532760Y504623D02*
D03*
X538010D02*
D03*
X532760Y498121D02*
D03*
X538010D02*
D03*
X532760Y491505D02*
D03*
X538010D02*
D03*
X532760Y473963D02*
D03*
X538010D02*
D03*
X532760Y467460D02*
D03*
X538010D02*
D03*
X532860Y460957D02*
D03*
X538110D02*
D03*
X538237Y454455D02*
D03*
X532987D02*
D03*
X533106Y447952D02*
D03*
X538356D02*
D03*
X532770Y402421D02*
D03*
X538020D02*
D03*
X532860Y395918D02*
D03*
X538110D02*
D03*
X532760Y389416D02*
D03*
X538010D02*
D03*
X532760Y382913D02*
D03*
X538010D02*
D03*
X532860Y376411D02*
D03*
X538110D02*
D03*
X532749Y408923D02*
D03*
X537999D02*
D03*
X532801Y428445D02*
D03*
X538051D02*
D03*
X724916Y330200D02*
D03*
X719666D02*
D03*
X725001Y336550D02*
D03*
X719751D02*
D03*
X719666Y325120D02*
D03*
X724916D02*
D03*
X719751Y341630D02*
D03*
X725001D02*
D03*
X739833Y345160D02*
D03*
X745082D02*
D03*
X614518Y306324D02*
D03*
X609268D02*
D03*
X623366Y306324D02*
D03*
X628616D02*
D03*
X978176Y280339D02*
D03*
X983427D02*
D03*
X978176Y286858D02*
D03*
X983427D02*
D03*
X978176Y293377D02*
D03*
X983427D02*
D03*
X983427Y299879D02*
D03*
X978177D02*
D03*
X983427Y306382D02*
D03*
X978177D02*
D03*
X978176Y312884D02*
D03*
X983427D02*
D03*
X983427Y325889D02*
D03*
X978177D02*
D03*
X983427Y332392D02*
D03*
X978177D02*
D03*
X978176Y345397D02*
D03*
X983427D02*
D03*
X983427Y338895D02*
D03*
X978177D02*
D03*
X983427Y351900D02*
D03*
X978177D02*
D03*
X978176Y358402D02*
D03*
X983427D02*
D03*
X983427Y364905D02*
D03*
X978177D02*
D03*
X983427Y371407D02*
D03*
X978177D02*
D03*
X978176Y377910D02*
D03*
X983427D02*
D03*
X978176Y384412D02*
D03*
X983427D02*
D03*
X983427Y390915D02*
D03*
X978177D02*
D03*
X978176Y397417D02*
D03*
X983427D02*
D03*
X983427Y403920D02*
D03*
X978177D02*
D03*
X983427Y410422D02*
D03*
X978177D02*
D03*
X978176Y416925D02*
D03*
X983427D02*
D03*
X978176Y423427D02*
D03*
X983427D02*
D03*
X983365Y429930D02*
D03*
X978115D02*
D03*
X978176Y273820D02*
D03*
X983427D02*
D03*
X983487Y436432D02*
D03*
X978237D02*
D03*
X1215959Y543791D02*
D03*
X1210709D02*
D03*
X1226646Y543791D02*
D03*
X1231896D02*
D03*
X1251668Y376806D02*
D03*
X1246418D02*
D03*
X1246418Y476098D02*
D03*
X1251668D02*
D03*
X1251668Y277514D02*
D03*
X1246418D02*
D03*
X367199Y354584D02*
D03*
X372449D02*
D03*
X367199Y341291D02*
D03*
X372449D02*
D03*
X367199Y327999D02*
D03*
X372449D02*
D03*
X366945Y314706D02*
D03*
X372195D02*
D03*
X1246418Y310611D02*
D03*
X1251668D02*
D03*
X1246418Y323850D02*
D03*
X1251668D02*
D03*
X1246418Y297372D02*
D03*
X1251668D02*
D03*
X1246418Y443001D02*
D03*
X1251668D02*
D03*
X1246418Y403284D02*
D03*
X1251668D02*
D03*
X1246418Y409903D02*
D03*
X1251668D02*
D03*
X1246418Y436381D02*
D03*
X1251668D02*
D03*
X1251668Y290753D02*
D03*
X1246418D02*
D03*
X1246418Y303992D02*
D03*
X1251668D02*
D03*
X1251668Y317231D02*
D03*
X1246418D02*
D03*
X1251668Y330470D02*
D03*
X1246418D02*
D03*
X1251668Y343709D02*
D03*
X1246418D02*
D03*
X1246418Y429762D02*
D03*
X1251668D02*
D03*
X1246418Y370187D02*
D03*
X1251668D02*
D03*
X1246418Y350328D02*
D03*
X1251668D02*
D03*
X1251668Y396665D02*
D03*
X1246418D02*
D03*
X1246418Y337089D02*
D03*
X1251668D02*
D03*
X1251668Y390045D02*
D03*
X1246418D02*
D03*
X1246418Y284133D02*
D03*
X1251668D02*
D03*
X1251668Y423142D02*
D03*
X1246418D02*
D03*
X1246418Y469479D02*
D03*
X1251668D02*
D03*
X1246418Y462859D02*
D03*
X1251668D02*
D03*
X1246418Y456240D02*
D03*
X1251668D02*
D03*
X1246418Y449620D02*
D03*
X1251668D02*
D03*
X1246418Y356948D02*
D03*
X1251668D02*
D03*
X1246418Y383425D02*
D03*
X1251668D02*
D03*
X1246418Y416523D02*
D03*
X1251668D02*
D03*
X1251668Y363567D02*
D03*
X1246418D02*
D03*
D22*
X75593Y214630D02*
D03*
X84593D02*
D03*
X75510Y402590D02*
D03*
X84510D02*
D03*
X75621Y309960D02*
D03*
X84621D02*
D03*
X85459Y502677D02*
D03*
X76459D02*
D03*
X76610Y601980D02*
D03*
X85610D02*
D03*
X212780Y330454D02*
D03*
X203780D02*
D03*
X1349430Y247650D02*
D03*
X1340430D02*
D03*
X406211Y676495D02*
D03*
X415211D02*
D03*
X457320Y549440D02*
D03*
X466320D02*
D03*
X457320Y561378D02*
D03*
X466320D02*
D03*
X457320Y573316D02*
D03*
X466320D02*
D03*
X457320Y585254D02*
D03*
X466320D02*
D03*
X457320Y597192D02*
D03*
X466320D02*
D03*
X457320Y609130D02*
D03*
X466320D02*
D03*
X457320Y537502D02*
D03*
X466320D02*
D03*
X457320Y525564D02*
D03*
X466320D02*
D03*
X457320Y513626D02*
D03*
X466320D02*
D03*
X457320Y501688D02*
D03*
X466320D02*
D03*
X457320Y489750D02*
D03*
X466320D02*
D03*
X623241Y342900D02*
D03*
X614241D02*
D03*
X981044Y445435D02*
D03*
X972044D02*
D03*
X971984Y456936D02*
D03*
X980984D02*
D03*
X965329Y555573D02*
D03*
X956329D02*
D03*
X1217151Y508191D02*
D03*
X1226151D02*
D03*
X1710790Y270002D02*
D03*
X1719790D02*
D03*
X1710790Y255226D02*
D03*
X1719790D02*
D03*
X1710790Y240450D02*
D03*
X1719790D02*
D03*
X1710790Y225673D02*
D03*
X1719790D02*
D03*
Y210210D02*
D03*
X1710790D02*
D03*
X1629090Y184810D02*
D03*
X1638090D02*
D03*
X1684600Y135865D02*
D03*
X1693600D02*
D03*
X1602922Y110463D02*
D03*
X1593922D02*
D03*
Y122544D02*
D03*
X1602922D02*
D03*
X1593922Y135863D02*
D03*
X1602922D02*
D03*
X1540497Y135865D02*
D03*
X1549497D02*
D03*
X1456025Y110463D02*
D03*
X1447025D02*
D03*
Y123161D02*
D03*
X1456025D02*
D03*
X1447025Y135863D02*
D03*
X1456025D02*
D03*
X1395862Y135865D02*
D03*
X1404862D02*
D03*
X1258616Y110463D02*
D03*
X1249616D02*
D03*
X1258616Y123165D02*
D03*
X1249616D02*
D03*
Y135865D02*
D03*
X1258616D02*
D03*
X1168741Y110463D02*
D03*
X1159741D02*
D03*
X1159744Y135863D02*
D03*
X1168744D02*
D03*
X1159744Y123161D02*
D03*
X1168744D02*
D03*
X1123898Y104024D02*
D03*
X1114898D02*
D03*
Y116724D02*
D03*
X1123898D02*
D03*
X1114898Y129424D02*
D03*
X1123898D02*
D03*
Y142124D02*
D03*
X1114898D02*
D03*
X985713Y103821D02*
D03*
X976713D02*
D03*
Y116521D02*
D03*
X985713D02*
D03*
X976713Y129221D02*
D03*
X985713D02*
D03*
Y141921D02*
D03*
X976713D02*
D03*
X1012028Y142124D02*
D03*
X1021028D02*
D03*
Y129424D02*
D03*
X1012028D02*
D03*
X1021028Y116724D02*
D03*
X1012028D02*
D03*
Y104024D02*
D03*
X1021028D02*
D03*
X1060398Y157037D02*
D03*
X1051398D02*
D03*
X1074258Y157037D02*
D03*
X1083258D02*
D03*
X1062808Y172428D02*
D03*
X1071808D02*
D03*
X936073Y157037D02*
D03*
X945073D02*
D03*
X873843Y141921D02*
D03*
X882843D02*
D03*
Y129221D02*
D03*
X873843D02*
D03*
X882843Y116521D02*
D03*
X873843D02*
D03*
Y103821D02*
D03*
X882843D02*
D03*
X320170Y105410D02*
D03*
X311170D02*
D03*
X330780Y105410D02*
D03*
X339780D02*
D03*
X507420D02*
D03*
X498420D02*
D03*
X517620D02*
D03*
X526620D02*
D03*
X352480Y173223D02*
D03*
X343480D02*
D03*
X460457D02*
D03*
X451457D02*
D03*
X473047D02*
D03*
X482047D02*
D03*
X186110Y120650D02*
D03*
X177110D02*
D03*
X177253Y133430D02*
D03*
X186253D02*
D03*
X83240Y127000D02*
D03*
X74240D02*
D03*
X75593Y227410D02*
D03*
X84593D02*
D03*
X75623Y322660D02*
D03*
X84623D02*
D03*
X75623Y415370D02*
D03*
X84623D02*
D03*
X85459Y515377D02*
D03*
X76459D02*
D03*
X76610Y614680D02*
D03*
X85610D02*
D03*
X212780Y530018D02*
D03*
X203780D02*
D03*
X417277Y173223D02*
D03*
X408277D02*
D03*
X429867D02*
D03*
X438867D02*
D03*
X387184D02*
D03*
X396184D02*
D03*
X374334D02*
D03*
X365334D02*
D03*
X922213Y157037D02*
D03*
X913213D02*
D03*
X752063Y83544D02*
D03*
X761063D02*
D03*
X873842D02*
D03*
X882842D02*
D03*
X1303914Y123161D02*
D03*
X1312914D02*
D03*
X1303914Y135863D02*
D03*
X1312914D02*
D03*
Y110463D02*
D03*
X1303914D02*
D03*
X752065Y73507D02*
D03*
X761065D02*
D03*
X752065Y63472D02*
D03*
X761065D02*
D03*
X873843Y73507D02*
D03*
X882843D02*
D03*
X873843Y63472D02*
D03*
X882843D02*
D03*
D23*
X665400Y713160D02*
D03*
Y704160D02*
D03*
X652900Y713160D02*
D03*
Y704160D02*
D03*
X640400Y713160D02*
D03*
Y704160D02*
D03*
X628122Y713160D02*
D03*
Y704160D02*
D03*
X361221Y678914D02*
D03*
Y687914D02*
D03*
X512172Y678914D02*
D03*
Y687914D02*
D03*
X751614Y465426D02*
D03*
Y474426D02*
D03*
X713351Y328621D02*
D03*
Y337621D02*
D03*
X980862Y477438D02*
D03*
Y468438D02*
D03*
X933531Y515121D02*
D03*
Y524121D02*
D03*
X201168Y596210D02*
D03*
Y605210D02*
D03*
X212598Y596210D02*
D03*
Y605210D02*
D03*
D24*
X450610Y271780D02*
D03*
X420610D02*
D03*
X450610Y387350D02*
D03*
X420610D02*
D03*
D25*
X450610Y277780D02*
D03*
Y265780D02*
D03*
X420610D02*
D03*
Y277780D02*
D03*
X450610Y393350D02*
D03*
Y381350D02*
D03*
X420610D02*
D03*
Y393350D02*
D03*
D26*
X539900Y759000D02*
D03*
X690900D02*
D03*
X914000D02*
D03*
X738000D02*
D03*
X740210Y39115D02*
D03*
X651710D02*
D03*
X862130D02*
D03*
X773630D02*
D03*
X1701000Y39000D02*
D03*
X1587500D02*
D03*
X1554403D02*
D03*
X1440903D02*
D03*
X1407807D02*
D03*
X1294307D02*
D03*
X1261210D02*
D03*
X1147710D02*
D03*
D27*
X665400Y730000D02*
D03*
X652900D02*
D03*
X640400D02*
D03*
X627900D02*
D03*
X615400D02*
D03*
X602900D02*
D03*
X590400D02*
D03*
X577900D02*
D03*
X565400D02*
D03*
X763500D02*
D03*
X776000D02*
D03*
X788500D02*
D03*
X801000D02*
D03*
X813500D02*
D03*
X826000D02*
D03*
X838500D02*
D03*
X851000D02*
D03*
X863500D02*
D03*
X876000D02*
D03*
X888500D02*
D03*
X677210Y68115D02*
D03*
X689710D02*
D03*
X702210D02*
D03*
X714710D02*
D03*
X799130D02*
D03*
X811630D02*
D03*
X824130D02*
D03*
X836630D02*
D03*
X1675500Y68000D02*
D03*
X1663000D02*
D03*
X1650500D02*
D03*
X1638000D02*
D03*
X1625500D02*
D03*
X1613000D02*
D03*
X1528903D02*
D03*
X1516403D02*
D03*
X1503903D02*
D03*
X1491403D02*
D03*
X1478903D02*
D03*
X1466403D02*
D03*
X1382307D02*
D03*
X1369807D02*
D03*
X1357307D02*
D03*
X1344807D02*
D03*
X1332307D02*
D03*
X1319807D02*
D03*
X1235710D02*
D03*
X1223210D02*
D03*
X1210710D02*
D03*
X1198210D02*
D03*
X1185710D02*
D03*
X1173210D02*
D03*
D29*
X186510Y273050D02*
D03*
X227510D02*
D03*
X186510Y469730D02*
D03*
X227510D02*
D03*
D30*
X902793Y141921D02*
D03*
Y129221D02*
D03*
Y116521D02*
D03*
Y103821D02*
D03*
X955493D02*
D03*
Y116521D02*
D03*
Y129221D02*
D03*
Y141921D02*
D03*
X1040978Y142124D02*
D03*
Y129424D02*
D03*
Y116724D02*
D03*
Y104024D02*
D03*
X1093678D02*
D03*
Y116724D02*
D03*
Y129424D02*
D03*
Y142124D02*
D03*
D37*
X327228Y692856D02*
D03*
X346228D02*
D03*
X336728Y672856D02*
D03*
X478179Y692856D02*
D03*
X497179D02*
D03*
X487679Y672856D02*
D03*
D44*
X1623896Y113232D02*
D03*
Y119733D02*
D03*
Y126232D02*
D03*
Y132732D02*
D03*
X1664896Y113232D02*
D03*
Y119733D02*
D03*
Y126232D02*
D03*
Y132732D02*
D03*
X1520084D02*
D03*
Y126232D02*
D03*
Y119733D02*
D03*
Y113232D02*
D03*
X1479084Y132732D02*
D03*
Y126232D02*
D03*
Y119733D02*
D03*
Y113232D02*
D03*
X1375272Y132732D02*
D03*
Y126232D02*
D03*
Y119733D02*
D03*
Y113232D02*
D03*
X1334272Y132732D02*
D03*
Y126232D02*
D03*
Y119733D02*
D03*
Y113232D02*
D03*
X1189461D02*
D03*
Y119733D02*
D03*
Y126232D02*
D03*
Y132732D02*
D03*
X1230461Y113232D02*
D03*
Y119733D02*
D03*
Y126232D02*
D03*
Y132732D02*
D03*
D56*
X816760Y351419D02*
D03*
X677846Y191439D02*
D03*
D57*
X206754Y641460D02*
D03*
Y623460D02*
D03*
D58*
X499260Y92050D02*
D03*
Y82550D02*
D03*
Y73050D02*
D03*
X524360D02*
D03*
Y82550D02*
D03*
Y92050D02*
D03*
X337670Y73050D02*
D03*
Y82550D02*
D03*
Y92050D02*
D03*
X312570D02*
D03*
Y82550D02*
D03*
Y73050D02*
D03*
D151*
X1752600Y184810D02*
D03*
X1600200Y438810D02*
D03*
Y464210D02*
D03*
Y489610D02*
D03*
X1752600Y235610D02*
D03*
Y261010D02*
D03*
Y515010D02*
D03*
Y286410D02*
D03*
Y489610D02*
D03*
Y311810D02*
D03*
Y464210D02*
D03*
Y337210D02*
D03*
Y438810D02*
D03*
Y362610D02*
D03*
Y413410D02*
D03*
Y388010D02*
D03*
Y210210D02*
D03*
X1600200Y515010D02*
D03*
Y413410D02*
D03*
Y388010D02*
D03*
Y362610D02*
D03*
Y337210D02*
D03*
Y311810D02*
D03*
Y286410D02*
D03*
Y261010D02*
D03*
Y235610D02*
D03*
Y210210D02*
D03*
Y184810D02*
D03*
X1375410Y247410D02*
D03*
X1426210D02*
D03*
X1451610D02*
D03*
X1477010D02*
D03*
X1375410Y522110D02*
D03*
X1400810D02*
D03*
X1426210D02*
D03*
X1477010D02*
D03*
X1451610D02*
D03*
X1400810Y247410D02*
D03*
D164*
X213510Y236370D02*
D03*
Y223370D02*
D03*
X226510Y236370D02*
D03*
X200510D02*
D03*
Y223370D02*
D03*
X187510Y236370D02*
D03*
Y223370D02*
D03*
X226510D02*
D03*
X213510Y433050D02*
D03*
Y420050D02*
D03*
X226510Y433050D02*
D03*
X200510D02*
D03*
Y420050D02*
D03*
X187510Y433050D02*
D03*
Y420050D02*
D03*
X226510D02*
D03*
D165*
X40000Y760000D02*
D03*
Y40000D02*
D03*
X1760000Y760000D02*
D03*
Y40000D02*
D03*
D166*
X1771149Y787686D02*
D03*
X1778881Y783079D02*
D03*
X1784894Y776383D02*
D03*
X1788681Y768218D02*
D03*
X1789829Y759292D02*
D03*
Y750292D02*
D03*
Y741292D02*
D03*
X1789829Y732292D02*
D03*
Y723292D02*
D03*
X1789829Y714292D02*
D03*
Y705292D02*
D03*
Y696292D02*
D03*
X1789829Y687292D02*
D03*
Y678292D02*
D03*
X1789829Y669292D02*
D03*
Y660292D02*
D03*
Y651292D02*
D03*
X1789829Y642292D02*
D03*
Y633292D02*
D03*
X1789829Y624292D02*
D03*
Y615292D02*
D03*
Y606292D02*
D03*
X1789829Y597292D02*
D03*
Y588292D02*
D03*
X1789829Y579292D02*
D03*
Y570292D02*
D03*
Y561292D02*
D03*
X1789829Y552292D02*
D03*
Y543292D02*
D03*
X1789829Y534292D02*
D03*
Y525292D02*
D03*
Y516292D02*
D03*
X1789830Y507292D02*
D03*
Y498292D02*
D03*
X1789830Y489292D02*
D03*
Y480292D02*
D03*
Y471292D02*
D03*
X1789830Y462292D02*
D03*
Y453292D02*
D03*
X1789830Y444292D02*
D03*
Y435292D02*
D03*
Y426292D02*
D03*
X1789830Y417292D02*
D03*
Y408293D02*
D03*
X1789830Y399292D02*
D03*
Y390293D02*
D03*
Y381292D02*
D03*
X1789830Y372293D02*
D03*
Y363293D02*
D03*
X1789830Y354293D02*
D03*
Y345293D02*
D03*
Y336293D02*
D03*
X1789830Y327293D02*
D03*
Y318293D02*
D03*
X1789830Y309293D02*
D03*
Y300293D02*
D03*
Y291293D02*
D03*
X1789830Y282293D02*
D03*
Y273293D02*
D03*
X1789830Y264293D02*
D03*
Y255293D02*
D03*
Y246293D02*
D03*
X1789830Y237293D02*
D03*
Y228293D02*
D03*
X1789830Y219293D02*
D03*
Y210293D02*
D03*
Y201293D02*
D03*
X1789830Y192293D02*
D03*
Y183293D02*
D03*
X1789830Y174293D02*
D03*
Y165293D02*
D03*
Y156293D02*
D03*
X1789830Y147293D02*
D03*
Y138293D02*
D03*
X1789830Y129293D02*
D03*
Y120293D02*
D03*
Y111293D02*
D03*
X1789830Y102293D02*
D03*
Y93293D02*
D03*
X1789830Y84293D02*
D03*
Y75293D02*
D03*
Y66293D02*
D03*
X1789830Y57293D02*
D03*
Y48293D02*
D03*
X1789818Y39293D02*
D03*
X1788224Y30436D02*
D03*
X1784104Y22434D02*
D03*
X1777774Y16036D02*
D03*
X1769803Y11857D02*
D03*
X1760957Y10198D02*
D03*
X1751957Y10170D02*
D03*
X1742957Y10170D02*
D03*
X1733957Y10170D02*
D03*
X1724957Y10170D02*
D03*
X1717903Y15759D02*
D03*
X1709768Y19609D02*
D03*
X1700786Y20170D02*
D03*
X1691786D02*
D03*
X1682786D02*
D03*
X1673786D02*
D03*
X1664786D02*
D03*
X1655786D02*
D03*
X1646786D02*
D03*
X1637786D02*
D03*
X1628786D02*
D03*
X1619786D02*
D03*
X1610786D02*
D03*
X1601786D02*
D03*
X1592786D02*
D03*
X1583786D02*
D03*
X1574786D02*
D03*
X1565786Y20170D02*
D03*
X1556786D02*
D03*
X1547786D02*
D03*
X1538786D02*
D03*
X1529786D02*
D03*
X1520786D02*
D03*
X1511786D02*
D03*
X1502786D02*
D03*
X1493786D02*
D03*
X1484786D02*
D03*
X1475786D02*
D03*
X1466786D02*
D03*
X1457786D02*
D03*
X1448786D02*
D03*
X1439786D02*
D03*
X1430786Y20170D02*
D03*
X1421786D02*
D03*
X1412787D02*
D03*
X1403786D02*
D03*
X1394787D02*
D03*
X1385786D02*
D03*
X1376786D02*
D03*
X1367787D02*
D03*
X1358787D02*
D03*
X1349787D02*
D03*
X1340787D02*
D03*
X1331787D02*
D03*
X1322787D02*
D03*
X1313787D02*
D03*
X1304787D02*
D03*
X1295787Y20170D02*
D03*
X1286787D02*
D03*
X1277787D02*
D03*
X1268787D02*
D03*
X1259787D02*
D03*
X1250787D02*
D03*
X1241787D02*
D03*
X1232787D02*
D03*
X1223787D02*
D03*
X1214787D02*
D03*
X1205787D02*
D03*
X1196787D02*
D03*
X1187787D02*
D03*
X1178787D02*
D03*
X1169787D02*
D03*
X1160787Y20170D02*
D03*
X1151787D02*
D03*
X1142787D02*
D03*
X1133787D02*
D03*
X1124787D02*
D03*
X1115787D02*
D03*
X1106787D02*
D03*
X1097787D02*
D03*
X1088787D02*
D03*
X1079787D02*
D03*
X1070787D02*
D03*
X1061787D02*
D03*
X1052787D02*
D03*
X1043787D02*
D03*
X1034787D02*
D03*
X1025787Y20170D02*
D03*
X1016787D02*
D03*
X1007787D02*
D03*
X998787D02*
D03*
X989787D02*
D03*
X980787D02*
D03*
X971787D02*
D03*
X962787D02*
D03*
X953787D02*
D03*
X944787D02*
D03*
X935787D02*
D03*
X926787D02*
D03*
X917787D02*
D03*
X908788D02*
D03*
X899788D02*
D03*
X890788Y20170D02*
D03*
X881787D02*
D03*
X872787D02*
D03*
X863788D02*
D03*
X854788D02*
D03*
X845788D02*
D03*
X836788D02*
D03*
X827788D02*
D03*
X818788D02*
D03*
X809788D02*
D03*
X800788D02*
D03*
X791788D02*
D03*
X782788D02*
D03*
X773788D02*
D03*
X764788Y20170D02*
D03*
X755788D02*
D03*
X746788D02*
D03*
X737788D02*
D03*
X728788D02*
D03*
X719788D02*
D03*
X710788D02*
D03*
X701788D02*
D03*
X692788D02*
D03*
X683788D02*
D03*
X674788D02*
D03*
X665788D02*
D03*
X656788D02*
D03*
X647788D02*
D03*
X638788D02*
D03*
X629788Y20170D02*
D03*
X620788D02*
D03*
X611788D02*
D03*
X602788D02*
D03*
X593788D02*
D03*
X584788D02*
D03*
X575788D02*
D03*
X566788D02*
D03*
X557788D02*
D03*
X548788D02*
D03*
X539788D02*
D03*
X530788D02*
D03*
X521788D02*
D03*
X512788D02*
D03*
X503788D02*
D03*
X494788Y20170D02*
D03*
X485788D02*
D03*
X476788D02*
D03*
X467788D02*
D03*
X458788D02*
D03*
X449788D02*
D03*
X440788D02*
D03*
X431788D02*
D03*
X422788D02*
D03*
X413788D02*
D03*
X404789D02*
D03*
X395788D02*
D03*
X386788D02*
D03*
X377789D02*
D03*
X368788D02*
D03*
X359789Y20170D02*
D03*
X350789D02*
D03*
X341789D02*
D03*
X332789D02*
D03*
X323789D02*
D03*
X314789D02*
D03*
X305789D02*
D03*
X296789D02*
D03*
X287789D02*
D03*
X278789D02*
D03*
X269789D02*
D03*
X260789D02*
D03*
X251789D02*
D03*
X242789D02*
D03*
X233789D02*
D03*
X224789Y20170D02*
D03*
X215789D02*
D03*
X206789D02*
D03*
X197789D02*
D03*
X188789D02*
D03*
X179789D02*
D03*
X170789D02*
D03*
X161789D02*
D03*
X152789D02*
D03*
X143789D02*
D03*
X134789D02*
D03*
X125789D02*
D03*
X116789D02*
D03*
X107789D02*
D03*
X98789D02*
D03*
X89807Y19603D02*
D03*
X81679Y15739D02*
D03*
X74608Y10170D02*
D03*
X65609Y10170D02*
D03*
X56609Y10170D02*
D03*
X47608Y10170D02*
D03*
X38609Y10202D02*
D03*
X29769Y11891D02*
D03*
X21824Y16121D02*
D03*
X15593Y22614D02*
D03*
X11584Y30672D02*
D03*
X10166Y39560D02*
D03*
X10170Y48560D02*
D03*
Y57560D02*
D03*
Y66560D02*
D03*
Y75560D02*
D03*
Y84560D02*
D03*
Y93560D02*
D03*
Y102559D02*
D03*
Y111559D02*
D03*
Y120560D02*
D03*
Y129559D02*
D03*
Y138560D02*
D03*
Y147559D02*
D03*
Y156559D02*
D03*
Y165559D02*
D03*
Y174559D02*
D03*
Y183559D02*
D03*
Y192559D02*
D03*
Y201559D02*
D03*
Y210559D02*
D03*
Y219559D02*
D03*
Y228559D02*
D03*
Y237559D02*
D03*
Y246559D02*
D03*
Y255559D02*
D03*
Y264559D02*
D03*
Y273559D02*
D03*
Y282559D02*
D03*
Y291559D02*
D03*
Y300559D02*
D03*
Y309559D02*
D03*
Y318559D02*
D03*
Y327559D02*
D03*
Y336559D02*
D03*
Y345559D02*
D03*
Y354559D02*
D03*
Y363559D02*
D03*
Y372559D02*
D03*
Y381559D02*
D03*
Y390559D02*
D03*
Y399559D02*
D03*
Y408559D02*
D03*
Y417559D02*
D03*
Y426559D02*
D03*
Y435559D02*
D03*
Y444559D02*
D03*
Y453559D02*
D03*
Y462559D02*
D03*
Y471559D02*
D03*
Y480559D02*
D03*
Y489559D02*
D03*
Y498559D02*
D03*
Y507559D02*
D03*
Y516559D02*
D03*
Y525559D02*
D03*
Y534559D02*
D03*
Y543559D02*
D03*
Y552559D02*
D03*
Y561559D02*
D03*
Y570559D02*
D03*
Y579559D02*
D03*
Y588559D02*
D03*
Y597559D02*
D03*
Y606558D02*
D03*
Y615559D02*
D03*
Y624558D02*
D03*
Y633559D02*
D03*
Y642559D02*
D03*
Y651558D02*
D03*
Y660558D02*
D03*
Y669558D02*
D03*
Y678558D02*
D03*
Y687558D02*
D03*
Y696558D02*
D03*
Y705558D02*
D03*
Y714558D02*
D03*
Y723558D02*
D03*
Y732558D02*
D03*
Y741558D02*
D03*
Y750558D02*
D03*
Y759558D02*
D03*
X11406Y768473D02*
D03*
X15256Y776608D02*
D03*
X21322Y783257D02*
D03*
X29107Y787773D02*
D03*
X37892Y789726D02*
D03*
X46891Y789829D02*
D03*
X55891Y789829D02*
D03*
X64892Y789829D02*
D03*
X73892Y789829D02*
D03*
X81376Y784832D02*
D03*
X89322Y780605D02*
D03*
X98288Y779829D02*
D03*
X107288D02*
D03*
X116288D02*
D03*
X125288D02*
D03*
X134288D02*
D03*
X143288D02*
D03*
X152288D02*
D03*
X161288D02*
D03*
X170288D02*
D03*
X179288D02*
D03*
X188288D02*
D03*
X197288D02*
D03*
X206288D02*
D03*
X215288D02*
D03*
X224288D02*
D03*
X233288Y779829D02*
D03*
X242288D02*
D03*
X251288D02*
D03*
X260288D02*
D03*
X269288D02*
D03*
X278288D02*
D03*
X287288D02*
D03*
X296288D02*
D03*
X305288D02*
D03*
X314288D02*
D03*
X323288D02*
D03*
X332288D02*
D03*
X341288D02*
D03*
X350288D02*
D03*
X359288D02*
D03*
X368288Y779829D02*
D03*
X377288D02*
D03*
X386288D02*
D03*
X395288D02*
D03*
X404288D02*
D03*
X413288D02*
D03*
X422288D02*
D03*
X431288D02*
D03*
X440288D02*
D03*
X449288D02*
D03*
X458288D02*
D03*
X467288D02*
D03*
X476288D02*
D03*
X485288D02*
D03*
X494288D02*
D03*
X503288Y779829D02*
D03*
X512288D02*
D03*
X521288D02*
D03*
X530288D02*
D03*
X539287D02*
D03*
X548288D02*
D03*
X557287D02*
D03*
X566287D02*
D03*
X575287D02*
D03*
X584287D02*
D03*
X593287D02*
D03*
X602287D02*
D03*
X611287D02*
D03*
X620287D02*
D03*
X629287D02*
D03*
X638287Y779829D02*
D03*
X647287D02*
D03*
X656287D02*
D03*
X665287D02*
D03*
X674287D02*
D03*
X683287D02*
D03*
X692287D02*
D03*
X701287D02*
D03*
X710287D02*
D03*
X719287D02*
D03*
X728287D02*
D03*
X737287D02*
D03*
X746287D02*
D03*
X755287D02*
D03*
X764287D02*
D03*
X773287Y779829D02*
D03*
X782287D02*
D03*
X791287D02*
D03*
X800287D02*
D03*
X809287D02*
D03*
X818287D02*
D03*
X827287D02*
D03*
X836287D02*
D03*
X845287D02*
D03*
X854287D02*
D03*
X863287D02*
D03*
X872287D02*
D03*
X881287D02*
D03*
X890287D02*
D03*
X899287D02*
D03*
X908287Y779829D02*
D03*
X917287D02*
D03*
X926287D02*
D03*
X935287D02*
D03*
X944287D02*
D03*
X953287D02*
D03*
X962287D02*
D03*
X971287D02*
D03*
X980287D02*
D03*
X989287D02*
D03*
X998287D02*
D03*
X1007287D02*
D03*
X1016287D02*
D03*
X1025286D02*
D03*
X1034286D02*
D03*
X1043287Y779829D02*
D03*
X1052287D02*
D03*
X1061286D02*
D03*
X1070286D02*
D03*
X1079286D02*
D03*
X1088286D02*
D03*
X1097286D02*
D03*
X1106286D02*
D03*
X1115286D02*
D03*
X1124286D02*
D03*
X1133286D02*
D03*
X1142286D02*
D03*
X1151286D02*
D03*
X1160286D02*
D03*
X1169286D02*
D03*
X1178286Y779829D02*
D03*
X1187286D02*
D03*
X1196286D02*
D03*
X1205286D02*
D03*
X1214286D02*
D03*
X1223286D02*
D03*
X1232286D02*
D03*
X1241286D02*
D03*
X1250286D02*
D03*
X1259286D02*
D03*
X1268286D02*
D03*
X1277286D02*
D03*
X1286286D02*
D03*
X1295286D02*
D03*
X1304286D02*
D03*
X1313286Y779829D02*
D03*
X1322286D02*
D03*
X1331286D02*
D03*
X1340286D02*
D03*
X1349286D02*
D03*
X1358286D02*
D03*
X1367286D02*
D03*
X1376286D02*
D03*
X1385286D02*
D03*
X1394286D02*
D03*
X1403286D02*
D03*
X1412286D02*
D03*
X1421286D02*
D03*
X1430286D02*
D03*
X1439286D02*
D03*
X1448286Y779829D02*
D03*
X1457286D02*
D03*
X1466286D02*
D03*
X1475286D02*
D03*
X1484286D02*
D03*
X1493286D02*
D03*
X1502286D02*
D03*
X1511286D02*
D03*
X1520286D02*
D03*
X1529285D02*
D03*
X1538286D02*
D03*
X1547285D02*
D03*
X1556286D02*
D03*
X1565285D02*
D03*
X1574285D02*
D03*
X1583285Y779829D02*
D03*
X1592285D02*
D03*
X1601285D02*
D03*
X1610285D02*
D03*
X1619285D02*
D03*
X1628285D02*
D03*
X1637285D02*
D03*
X1646285D02*
D03*
X1655285D02*
D03*
X1664285D02*
D03*
X1673285D02*
D03*
X1682285D02*
D03*
X1691285D02*
D03*
X1700285D02*
D03*
X1709277Y780214D02*
D03*
X1717578Y783690D02*
D03*
X1724160Y789829D02*
D03*
X1733160Y789829D02*
D03*
X1742160Y789829D02*
D03*
X1751160Y789829D02*
D03*
X1760160Y789854D02*
D03*
D176*
X636621Y451121D02*
D03*
Y438121D02*
D03*
X701621Y509621D02*
D03*
X695121D02*
D03*
X688621D02*
D03*
X682121D02*
D03*
X675621D02*
D03*
X669121D02*
D03*
X662621D02*
D03*
X656121D02*
D03*
X649621D02*
D03*
X636621D02*
D03*
X623621D02*
D03*
X617121D02*
D03*
X610621D02*
D03*
X604121D02*
D03*
X597621D02*
D03*
X591121D02*
D03*
X584621D02*
D03*
X578121D02*
D03*
X571621D02*
D03*
X701621Y503121D02*
D03*
X695121D02*
D03*
X688621D02*
D03*
X682121D02*
D03*
X669121D02*
D03*
X662621D02*
D03*
X649621D02*
D03*
X623621D02*
D03*
X610621D02*
D03*
X604121D02*
D03*
X591121D02*
D03*
X584621D02*
D03*
X578121D02*
D03*
X571621D02*
D03*
X701621Y496621D02*
D03*
X695121D02*
D03*
X688621D02*
D03*
X682121D02*
D03*
X675621D02*
D03*
X669121D02*
D03*
X662621D02*
D03*
X656121D02*
D03*
X636621D02*
D03*
X617121D02*
D03*
X610621D02*
D03*
X604121D02*
D03*
X597621D02*
D03*
X591121D02*
D03*
X584621D02*
D03*
X578121D02*
D03*
X571621D02*
D03*
X701621Y490121D02*
D03*
X695121D02*
D03*
X688621D02*
D03*
X682121D02*
D03*
X675621D02*
D03*
X669121D02*
D03*
X662621D02*
D03*
X656121D02*
D03*
X649621D02*
D03*
X623621D02*
D03*
X617121D02*
D03*
X610621D02*
D03*
X604121D02*
D03*
X597621D02*
D03*
X591121D02*
D03*
X584621D02*
D03*
X578121D02*
D03*
X571621D02*
D03*
X701621Y483621D02*
D03*
X688621D02*
D03*
X682121D02*
D03*
X675621D02*
D03*
X669121D02*
D03*
X662621D02*
D03*
X656121D02*
D03*
X617121D02*
D03*
X610621D02*
D03*
X604121D02*
D03*
X597621D02*
D03*
X591121D02*
D03*
X584621D02*
D03*
X571621D02*
D03*
X701621Y477121D02*
D03*
X695121D02*
D03*
X688621D02*
D03*
X682121D02*
D03*
X675621D02*
D03*
X669121D02*
D03*
X662621D02*
D03*
X656121D02*
D03*
X649621D02*
D03*
X623621D02*
D03*
X617121D02*
D03*
X610621D02*
D03*
X604121D02*
D03*
X597621D02*
D03*
X591121D02*
D03*
X584621D02*
D03*
X578121D02*
D03*
X571621D02*
D03*
X701621Y470621D02*
D03*
X695121D02*
D03*
X688621D02*
D03*
X682121D02*
D03*
X675621D02*
D03*
X669121D02*
D03*
X662621D02*
D03*
X656121D02*
D03*
X649621D02*
D03*
X643121D02*
D03*
X636621D02*
D03*
X630121D02*
D03*
X623621D02*
D03*
X617121D02*
D03*
X610621D02*
D03*
X604121D02*
D03*
X597621D02*
D03*
X591121D02*
D03*
X584621D02*
D03*
X578121D02*
D03*
X571621D02*
D03*
X701621Y464121D02*
D03*
X688621D02*
D03*
X682121D02*
D03*
X675621D02*
D03*
X669121D02*
D03*
X662621D02*
D03*
X656121D02*
D03*
X649621D02*
D03*
X643121D02*
D03*
X636621D02*
D03*
X630121D02*
D03*
X623621D02*
D03*
X617121D02*
D03*
X610621D02*
D03*
X604121D02*
D03*
X597621D02*
D03*
X591121D02*
D03*
X584621D02*
D03*
X571621D02*
D03*
X701621Y457621D02*
D03*
X695121D02*
D03*
X662621D02*
D03*
X656121D02*
D03*
X649621D02*
D03*
X643121D02*
D03*
X636621D02*
D03*
X630121D02*
D03*
X623621D02*
D03*
X617121D02*
D03*
X610621D02*
D03*
X604121D02*
D03*
X591121D02*
D03*
X578121D02*
D03*
X571621D02*
D03*
X662621Y451121D02*
D03*
X656121D02*
D03*
X649621D02*
D03*
X643121D02*
D03*
X630121D02*
D03*
X623621D02*
D03*
X617121D02*
D03*
X610621D02*
D03*
X701621Y444621D02*
D03*
X688621D02*
D03*
X662621D02*
D03*
X656121D02*
D03*
X649621D02*
D03*
X636621D02*
D03*
X623621D02*
D03*
X617121D02*
D03*
X610621D02*
D03*
X584621D02*
D03*
X571621D02*
D03*
X662621Y438121D02*
D03*
X656121D02*
D03*
X649621D02*
D03*
X643121D02*
D03*
X630121D02*
D03*
X623621D02*
D03*
X617121D02*
D03*
X610621D02*
D03*
X701621Y431621D02*
D03*
X695121D02*
D03*
X682121D02*
D03*
X669121D02*
D03*
X662621D02*
D03*
X656121D02*
D03*
X649621D02*
D03*
X643121D02*
D03*
X636621D02*
D03*
X630121D02*
D03*
X623621D02*
D03*
X617121D02*
D03*
X610621D02*
D03*
X604121D02*
D03*
X591121D02*
D03*
X578121D02*
D03*
X571621D02*
D03*
X701621Y425121D02*
D03*
X688621D02*
D03*
X682121D02*
D03*
X675621D02*
D03*
X669121D02*
D03*
X662621D02*
D03*
X656121D02*
D03*
X649621D02*
D03*
X643121D02*
D03*
X636621D02*
D03*
X630121D02*
D03*
X623621D02*
D03*
X617121D02*
D03*
X610621D02*
D03*
X604121D02*
D03*
X597621D02*
D03*
X591121D02*
D03*
X584621D02*
D03*
X571621D02*
D03*
X701621Y418621D02*
D03*
X695121D02*
D03*
X688621D02*
D03*
X682121D02*
D03*
X675621D02*
D03*
X669121D02*
D03*
X662621D02*
D03*
X656121D02*
D03*
X649621D02*
D03*
X643121D02*
D03*
X636621D02*
D03*
X630121D02*
D03*
X623621D02*
D03*
X617121D02*
D03*
X610621D02*
D03*
X604121D02*
D03*
X597621D02*
D03*
X591121D02*
D03*
X584621D02*
D03*
X578121D02*
D03*
X571621D02*
D03*
X701621Y412121D02*
D03*
X695121D02*
D03*
X688621D02*
D03*
X682121D02*
D03*
X675621D02*
D03*
X669121D02*
D03*
X662621D02*
D03*
X656121D02*
D03*
X649621D02*
D03*
X623621D02*
D03*
X617121D02*
D03*
X610621D02*
D03*
X604121D02*
D03*
X597621D02*
D03*
X591121D02*
D03*
X584621D02*
D03*
X578121D02*
D03*
X571621D02*
D03*
X701621Y405621D02*
D03*
X688621D02*
D03*
X682121D02*
D03*
X675621D02*
D03*
X669121D02*
D03*
X662621D02*
D03*
X656121D02*
D03*
X617121D02*
D03*
X610621D02*
D03*
X604121D02*
D03*
X597621D02*
D03*
X591121D02*
D03*
X584621D02*
D03*
X571621D02*
D03*
X701621Y399121D02*
D03*
X695121D02*
D03*
X688621D02*
D03*
X682121D02*
D03*
X675621D02*
D03*
X669121D02*
D03*
X662621D02*
D03*
X656121D02*
D03*
X649621D02*
D03*
X623621D02*
D03*
X617121D02*
D03*
X610621D02*
D03*
X604121D02*
D03*
X597621D02*
D03*
X591121D02*
D03*
X584621D02*
D03*
X578121D02*
D03*
X571621D02*
D03*
X701621Y392621D02*
D03*
X695121D02*
D03*
X688621D02*
D03*
X682121D02*
D03*
X675621D02*
D03*
X669121D02*
D03*
X662621D02*
D03*
X656121D02*
D03*
X636621D02*
D03*
X617121D02*
D03*
X610621D02*
D03*
X604121D02*
D03*
X597621D02*
D03*
X591121D02*
D03*
X584621D02*
D03*
X578121D02*
D03*
X571621D02*
D03*
X701621Y386121D02*
D03*
X695121D02*
D03*
X688621D02*
D03*
X682121D02*
D03*
X669121D02*
D03*
X662621D02*
D03*
X649621D02*
D03*
X623621D02*
D03*
X610621D02*
D03*
X604121D02*
D03*
X591121D02*
D03*
X584621D02*
D03*
X578121D02*
D03*
X571621D02*
D03*
X701621Y379621D02*
D03*
X695121D02*
D03*
X688621D02*
D03*
X682121D02*
D03*
X675621D02*
D03*
X669121D02*
D03*
X662621D02*
D03*
X656121D02*
D03*
X649621D02*
D03*
X636621D02*
D03*
X623621D02*
D03*
X617121D02*
D03*
X610621D02*
D03*
X604121D02*
D03*
X597621D02*
D03*
X591121D02*
D03*
X584621D02*
D03*
X578121D02*
D03*
X571621D02*
D03*
X682121Y457621D02*
D03*
X669121D02*
D03*
D177*
X1009471Y464690D02*
D03*
Y459690D02*
D03*
Y454690D02*
D03*
Y449690D02*
D03*
Y444690D02*
D03*
Y439690D02*
D03*
Y434690D02*
D03*
Y419690D02*
D03*
Y414690D02*
D03*
Y409690D02*
D03*
Y404690D02*
D03*
Y399690D02*
D03*
Y394690D02*
D03*
Y389690D02*
D03*
Y384690D02*
D03*
Y379690D02*
D03*
Y374690D02*
D03*
Y369690D02*
D03*
Y364690D02*
D03*
Y359690D02*
D03*
Y354690D02*
D03*
Y349690D02*
D03*
Y344690D02*
D03*
Y339690D02*
D03*
Y334690D02*
D03*
Y329690D02*
D03*
Y324690D02*
D03*
Y319690D02*
D03*
Y314690D02*
D03*
Y309690D02*
D03*
Y304690D02*
D03*
Y299690D02*
D03*
Y294690D02*
D03*
Y289690D02*
D03*
X1220471D02*
D03*
Y294690D02*
D03*
Y299690D02*
D03*
Y304690D02*
D03*
Y309690D02*
D03*
Y314690D02*
D03*
Y319690D02*
D03*
Y324690D02*
D03*
Y329690D02*
D03*
Y334690D02*
D03*
Y339690D02*
D03*
Y344690D02*
D03*
Y349690D02*
D03*
Y354690D02*
D03*
Y359690D02*
D03*
Y364690D02*
D03*
Y369690D02*
D03*
Y374690D02*
D03*
Y379690D02*
D03*
Y384690D02*
D03*
Y389690D02*
D03*
Y394690D02*
D03*
Y399690D02*
D03*
Y404690D02*
D03*
Y409690D02*
D03*
Y414690D02*
D03*
Y419690D02*
D03*
Y424690D02*
D03*
Y429690D02*
D03*
Y434690D02*
D03*
Y439690D02*
D03*
Y444690D02*
D03*
Y449690D02*
D03*
Y454690D02*
D03*
Y459690D02*
D03*
Y464690D02*
D03*
X1009471Y424690D02*
D03*
Y429690D02*
D03*
D178*
X1027471Y271190D02*
D03*
X1032471D02*
D03*
X1037471D02*
D03*
X1042471D02*
D03*
X1047471D02*
D03*
X1052471D02*
D03*
X1057471D02*
D03*
X1062471D02*
D03*
X1067471D02*
D03*
X1072471D02*
D03*
X1077471D02*
D03*
X1082471D02*
D03*
X1087471D02*
D03*
X1092471D02*
D03*
X1097471D02*
D03*
X1102471D02*
D03*
X1107471D02*
D03*
X1112471D02*
D03*
X1117471D02*
D03*
X1122471D02*
D03*
X1127471D02*
D03*
X1132471D02*
D03*
X1137471D02*
D03*
X1142471D02*
D03*
X1147471D02*
D03*
X1152471D02*
D03*
X1157471D02*
D03*
X1162471D02*
D03*
X1167471D02*
D03*
X1172471D02*
D03*
X1177471D02*
D03*
X1182471D02*
D03*
X1187471D02*
D03*
X1192471D02*
D03*
X1197471D02*
D03*
X1202471D02*
D03*
Y483190D02*
D03*
X1197471D02*
D03*
X1192471D02*
D03*
X1187471D02*
D03*
X1182471D02*
D03*
X1177471D02*
D03*
X1172471D02*
D03*
X1167471D02*
D03*
X1162471D02*
D03*
X1157471D02*
D03*
X1152471D02*
D03*
X1147471D02*
D03*
X1142471D02*
D03*
X1137471D02*
D03*
X1132471D02*
D03*
X1127471D02*
D03*
X1122471D02*
D03*
X1117471D02*
D03*
X1112471D02*
D03*
X1107471D02*
D03*
X1102471D02*
D03*
X1097471D02*
D03*
X1092471D02*
D03*
X1087471D02*
D03*
X1082471D02*
D03*
X1077471D02*
D03*
X1072471D02*
D03*
X1067471D02*
D03*
X1062471D02*
D03*
X1057471D02*
D03*
X1052471D02*
D03*
X1047471D02*
D03*
X1042471D02*
D03*
X1037471D02*
D03*
X1032471D02*
D03*
X1027471D02*
D03*
D179*
X818621Y328621D02*
D03*
X810621D02*
D03*
X802621D02*
D03*
X770621D02*
D03*
X762621D02*
D03*
X754621D02*
D03*
X818621Y320621D02*
D03*
X810621D02*
D03*
X802621D02*
D03*
X770621D02*
D03*
X762621D02*
D03*
X754621D02*
D03*
X818621Y312621D02*
D03*
X810621D02*
D03*
X802621D02*
D03*
X770621D02*
D03*
X762621D02*
D03*
X754621D02*
D03*
X818621Y304621D02*
D03*
X810621D02*
D03*
X802621D02*
D03*
X770621D02*
D03*
X762621D02*
D03*
X754621D02*
D03*
X818621Y296621D02*
D03*
X810621D02*
D03*
X802621D02*
D03*
X770621D02*
D03*
X762621D02*
D03*
X754621D02*
D03*
X818621Y288621D02*
D03*
X810621D02*
D03*
X802621D02*
D03*
X770621D02*
D03*
X762621D02*
D03*
X754621D02*
D03*
X818621Y280621D02*
D03*
X810621D02*
D03*
X802621D02*
D03*
X770621D02*
D03*
X762621D02*
D03*
X754621D02*
D03*
X818621Y272621D02*
D03*
X810621D02*
D03*
X802621D02*
D03*
X770621D02*
D03*
X762621D02*
D03*
X754621D02*
D03*
X818621Y264621D02*
D03*
X810621D02*
D03*
X802621D02*
D03*
X770621D02*
D03*
X762621D02*
D03*
X754621D02*
D03*
X818621Y256621D02*
D03*
X810621D02*
D03*
X802621D02*
D03*
X770621D02*
D03*
X762621D02*
D03*
X754621D02*
D03*
X818621Y248621D02*
D03*
X810621D02*
D03*
X802621D02*
D03*
X770621D02*
D03*
X762621D02*
D03*
X754621D02*
D03*
X818621Y240621D02*
D03*
X810621D02*
D03*
X802621D02*
D03*
X770621D02*
D03*
X762621D02*
D03*
X754621D02*
D03*
X818621Y232621D02*
D03*
X810621D02*
D03*
X802621D02*
D03*
X770621D02*
D03*
X762621D02*
D03*
X754621D02*
D03*
X818621Y224621D02*
D03*
X810621D02*
D03*
X802621D02*
D03*
X770621D02*
D03*
X762621D02*
D03*
X754621D02*
D03*
X818621Y216621D02*
D03*
X810621D02*
D03*
X802621D02*
D03*
X770621D02*
D03*
X762621D02*
D03*
X754621D02*
D03*
X818621Y208621D02*
D03*
X810621D02*
D03*
X802621D02*
D03*
X770621D02*
D03*
X762621D02*
D03*
X754621D02*
D03*
D180*
X167640Y156210D02*
D03*
X195640D02*
D03*
X246440D02*
D03*
X218440D02*
D03*
X66010Y345440D02*
D03*
X94010D02*
D03*
X66010Y438150D02*
D03*
X94010D02*
D03*
X94846Y538158D02*
D03*
X66846D02*
D03*
X221008Y352116D02*
D03*
X193008D02*
D03*
X221010Y394800D02*
D03*
X193010D02*
D03*
X218440Y113030D02*
D03*
X246440D02*
D03*
X115540D02*
D03*
X143540D02*
D03*
X221010Y198120D02*
D03*
X193010D02*
D03*
X92740Y156210D02*
D03*
X64740D02*
D03*
X93980Y250190D02*
D03*
X65980D02*
D03*
X116700Y207021D02*
D03*
X144700D02*
D03*
X116780Y250190D02*
D03*
X144780D02*
D03*
X116810Y345440D02*
D03*
X144810D02*
D03*
X116780Y302340D02*
D03*
X144780D02*
D03*
X116810Y438150D02*
D03*
X144810D02*
D03*
X116810Y395050D02*
D03*
X144810D02*
D03*
X145646Y495057D02*
D03*
X117647D02*
D03*
X145646Y538158D02*
D03*
X117647D02*
D03*
X117797Y594360D02*
D03*
X145797D02*
D03*
X94997Y637460D02*
D03*
X66997D02*
D03*
X117797D02*
D03*
X145797D02*
D03*
X94222Y702362D02*
D03*
X66222D02*
D03*
X117022Y702362D02*
D03*
X145022D02*
D03*
X218482Y702362D02*
D03*
X246482D02*
D03*
X221010Y550418D02*
D03*
X193010D02*
D03*
X115540Y156210D02*
D03*
X143540D02*
D03*
X195682Y702362D02*
D03*
X167682D02*
D03*
D181*
X1229314Y586772D02*
D03*
X1195703Y586740D02*
D03*
X930609Y613378D02*
D03*
X964220Y613410D02*
D03*
X964731Y586772D02*
D03*
X931120Y586740D02*
D03*
X1721819Y613378D02*
D03*
X1755430Y613410D02*
D03*
X1755940Y586772D02*
D03*
X1722330Y586740D02*
D03*
X1018663Y586772D02*
D03*
X985053Y586740D02*
D03*
X1071326Y586772D02*
D03*
X1037715Y586740D02*
D03*
X1123988Y586772D02*
D03*
X1090378Y586740D02*
D03*
X1176651Y586772D02*
D03*
X1143040Y586740D02*
D03*
X1281976Y586772D02*
D03*
X1248366Y586740D02*
D03*
X1334639Y586772D02*
D03*
X1301028Y586740D02*
D03*
X984542Y613378D02*
D03*
X1018153Y613410D02*
D03*
X1037205Y613378D02*
D03*
X1070815Y613410D02*
D03*
X1089867Y613378D02*
D03*
X1123478Y613410D02*
D03*
X1142530Y613378D02*
D03*
X1176141Y613410D02*
D03*
X1195193Y613378D02*
D03*
X1228803Y613410D02*
D03*
X1247855Y613378D02*
D03*
X1281466Y613410D02*
D03*
X1300518Y613378D02*
D03*
X1334128Y613410D02*
D03*
X1387302Y586772D02*
D03*
X1353691Y586740D02*
D03*
X1439964Y586772D02*
D03*
X1406354Y586740D02*
D03*
X1492627Y586772D02*
D03*
X1459016Y586740D02*
D03*
X1545289Y586772D02*
D03*
X1511679Y586740D02*
D03*
X1597952Y586772D02*
D03*
X1564342Y586740D02*
D03*
X1650615Y586772D02*
D03*
X1617004Y586740D02*
D03*
X1703277Y586772D02*
D03*
X1669667Y586740D02*
D03*
X1353181Y613378D02*
D03*
X1386791Y613410D02*
D03*
X1405843Y613378D02*
D03*
X1439454Y613410D02*
D03*
X1458506Y613378D02*
D03*
X1492116Y613410D02*
D03*
X1511168Y613378D02*
D03*
X1544779Y613410D02*
D03*
X1563831Y613378D02*
D03*
X1597442Y613410D02*
D03*
X1616494Y613378D02*
D03*
X1650104Y613410D02*
D03*
X1669156Y613378D02*
D03*
X1702767Y613410D02*
D03*
D182*
X919297Y44195D02*
D03*
X944697Y73396D02*
D03*
X970097Y44195D02*
D03*
X995497Y73396D02*
D03*
X1020897Y44195D02*
D03*
X1046297Y73396D02*
D03*
X1071697Y44195D02*
D03*
X1097097Y73396D02*
D03*
X481838Y755524D02*
D03*
X456438Y726324D02*
D03*
X431038Y755524D02*
D03*
X405638Y726324D02*
D03*
X380238Y755524D02*
D03*
X354838Y726324D02*
D03*
X329438Y755524D02*
D03*
X304038Y726324D02*
D03*
D183*
X402850Y154900D02*
D03*
X444750D02*
D03*
D184*
X476550Y110600D02*
D03*
D185*
X476550Y142450D02*
D03*
X370050Y148150D02*
D03*
D186*
Y122050D02*
D03*
D187*
X370200Y109350D02*
D03*
D188*
X464800Y82550D02*
D03*
X453800D02*
D03*
X442800D02*
D03*
X431800D02*
D03*
X420800D02*
D03*
X409800D02*
D03*
X398800D02*
D03*
X387800D02*
D03*
D189*
X429090Y502610D02*
D03*
Y512610D02*
D03*
Y582610D02*
D03*
Y592610D02*
D03*
X419090Y502610D02*
D03*
Y592610D02*
D03*
X399090Y512610D02*
D03*
Y522610D02*
D03*
Y532610D02*
D03*
Y542610D02*
D03*
Y552610D02*
D03*
Y562610D02*
D03*
Y572610D02*
D03*
Y582610D02*
D03*
X389090Y512610D02*
D03*
Y522610D02*
D03*
Y532610D02*
D03*
Y542610D02*
D03*
Y552610D02*
D03*
Y562610D02*
D03*
Y572610D02*
D03*
Y582610D02*
D03*
X379090Y512610D02*
D03*
Y522610D02*
D03*
Y532610D02*
D03*
Y542610D02*
D03*
Y552610D02*
D03*
Y562610D02*
D03*
Y572610D02*
D03*
Y582610D02*
D03*
X369090Y512610D02*
D03*
Y522610D02*
D03*
Y532610D02*
D03*
Y542610D02*
D03*
Y552610D02*
D03*
Y562610D02*
D03*
Y572610D02*
D03*
Y582610D02*
D03*
X359090Y512610D02*
D03*
Y522610D02*
D03*
Y532610D02*
D03*
Y542610D02*
D03*
Y552610D02*
D03*
Y562610D02*
D03*
Y572610D02*
D03*
Y582610D02*
D03*
X349090Y512610D02*
D03*
Y522610D02*
D03*
Y532610D02*
D03*
Y542610D02*
D03*
Y552610D02*
D03*
Y562610D02*
D03*
Y572610D02*
D03*
Y582610D02*
D03*
X339090Y512610D02*
D03*
Y522610D02*
D03*
Y532610D02*
D03*
Y542610D02*
D03*
Y552610D02*
D03*
Y562610D02*
D03*
Y572610D02*
D03*
Y582610D02*
D03*
X329090Y512610D02*
D03*
Y522610D02*
D03*
Y532610D02*
D03*
Y542610D02*
D03*
Y552610D02*
D03*
Y562610D02*
D03*
Y572610D02*
D03*
Y582610D02*
D03*
X319090Y512610D02*
D03*
Y522610D02*
D03*
Y532610D02*
D03*
Y542610D02*
D03*
Y552610D02*
D03*
Y562610D02*
D03*
Y572610D02*
D03*
Y582610D02*
D03*
X309090Y512610D02*
D03*
Y522610D02*
D03*
Y532610D02*
D03*
Y542610D02*
D03*
Y552610D02*
D03*
Y562610D02*
D03*
Y572610D02*
D03*
Y582610D02*
D03*
X299090Y512610D02*
D03*
Y522610D02*
D03*
Y532610D02*
D03*
Y542610D02*
D03*
Y552610D02*
D03*
Y562610D02*
D03*
Y572610D02*
D03*
Y582610D02*
D03*
X279090Y502610D02*
D03*
Y592610D02*
D03*
X269090Y502610D02*
D03*
Y512610D02*
D03*
Y582610D02*
D03*
Y592610D02*
D03*
D190*
X791036Y460286D02*
D03*
X775410Y475911D02*
D03*
X787444Y487945D02*
D03*
X803070Y472319D02*
D03*
D191*
X812873Y456443D02*
D03*
X809161Y452731D02*
D03*
D192*
X809497Y489749D02*
D03*
X805785Y493461D02*
D03*
D193*
X626618Y323596D02*
D03*
X611378D02*
D03*
X1214031Y527738D02*
D03*
X1229271D02*
D03*
D194*
X947219Y637172D02*
D03*
Y698272D02*
D03*
X1001152Y637172D02*
D03*
Y698272D02*
D03*
X1053815Y637172D02*
D03*
Y698272D02*
D03*
X1106477Y637172D02*
D03*
Y698272D02*
D03*
X1159140Y637172D02*
D03*
Y698272D02*
D03*
X1211803Y637172D02*
D03*
Y698272D02*
D03*
X1264465Y637172D02*
D03*
Y698272D02*
D03*
X1317128Y637172D02*
D03*
Y698272D02*
D03*
X1369790Y637172D02*
D03*
Y698272D02*
D03*
X1422453Y637172D02*
D03*
Y698272D02*
D03*
X1475116Y637172D02*
D03*
Y698272D02*
D03*
X1527778Y637172D02*
D03*
Y698272D02*
D03*
X1580441Y637172D02*
D03*
Y698272D02*
D03*
X1633104Y637172D02*
D03*
Y698272D02*
D03*
X1685766Y637172D02*
D03*
Y698272D02*
D03*
X1738429Y637172D02*
D03*
Y698272D02*
D03*
D195*
X949783Y538621D02*
D03*
Y500621D02*
D03*
X972783D02*
D03*
Y538621D02*
D03*
X607822Y33114D02*
D03*
X540322D02*
D03*
D196*
X560102Y105109D02*
D03*
X560070Y138720D02*
D03*
X719977Y105109D02*
D03*
X719945Y138720D02*
D03*
X597403Y105109D02*
D03*
X597372Y138720D02*
D03*
X755669Y105109D02*
D03*
X755638Y138720D02*
D03*
X634705Y105109D02*
D03*
X634673Y138720D02*
D03*
X791363Y105109D02*
D03*
X791331Y138720D02*
D03*
X672007Y105109D02*
D03*
X671975Y138720D02*
D03*
X827056Y105109D02*
D03*
X827024Y138720D02*
D03*
D197*
X558578Y33114D02*
D03*
D198*
X585572D02*
D03*
D199*
X549197Y58864D02*
D03*
X598947D02*
D03*
D200*
X587072Y59714D02*
D03*
X580572D02*
D03*
X574072D02*
D03*
X567572D02*
D03*
X561072D02*
D03*
D201*
X114397Y669185D02*
D03*
X96397D02*
D03*
X216587D02*
D03*
X198587D02*
D03*
M02*
