M48
;Layer_Color=9474304
;FILE_FORMAT=4:3
METRIC,TZ
;TYPE=PLATED
T01F00S00C0.200
T02F00S00C0.300
T03F00S00C1.000
T04F00S00C3.180
%
T01
X148479Y2017
X149379
X150279
X151179
X152079
X152979
X153879
X154779
X155679
X156579
X157479Y2017
X158379
X159279
X160179
X161079
X161979
X162879
X163779
X164679
X165579
X166479
X167379
X168279
X169179
X170079
X170977Y1961
X171790Y1576
X172496Y1017
X173396Y1017
X174296Y1017
X175196Y1017
X176096Y1020
X176980Y1186
X177777Y1604
X178410Y2243
X178822Y3044
X178982Y3929
X178983Y4829
Y5729
X178983Y6629
Y7529
Y8429
X176762Y8773
X176750Y8000
X175238Y8773
X173714
X174250Y8000
X171750
X172190Y8773
X170666
X168000Y5500
X163800Y4572
X164081Y3644
X161750Y8000
X159250
X158822Y8622
Y7290
X157012
X156750Y8000
X157012Y8622
X155446Y8313
X153317Y8297
X153000Y5500
X150359Y7264
X149581Y8661
X149146Y4900
X171750Y3000
X147579Y2017
X146679
X145779
X144879
X143979
X143079Y2017
X142179
X141279
X140379
X139479
X138579
X137679
X136779
X135879
X134979
X134079
X133179
X132279
X131379
X130479
X129579Y2017
X128679
X127779
X126879
X125979
X125079
X124179
X123279
X122379
X121479
X120579
X119679
X118779
X117879
X116979
X116079Y2017
X115179
X114279
X113379
X112479
X111579
X110679
X109779
X108879
X109745Y6721
X114440Y6105
X115917Y6902
X117412Y5398
X119820Y4848
X120412Y5398
X121058Y4900
X123420Y5398
X125237Y6075
X126082Y6857
X126086Y7544
X125653Y8529
X129250Y8000
X131750
X133984Y9004
X134440Y4850
X135714Y4900
X138261Y4850
X140570Y9054
X146750Y8000
X119594Y8501
X113789Y9105
X107979Y2017
X107079
X106179
X105279
X104379
X103479
X102579Y2017
X101679
X100779
X99879
X98979
X98079
X97179
X96279
X95379
X94479
X93579
X92679
X91779
X90879
X89979
X89079Y2017
X88179
X87279
X86379
X85479
X84579
X83679
X82779
X81879
X80979
X80079
X79179
X78279
X77379
X76479Y2017
X75579
X74679
X73779
X72879
X71979
X71079
X70179
X69279
X75710Y5732
X77250Y6444
X77842Y6443
X78433
X77126Y7309
X77169Y8367
X73109Y8354
X80500Y5500
X86312Y6347
X86346Y6993
X88000Y5500
X91170Y7410
X91750Y8000
X94640Y6036
X97673Y6748
X96777Y9026
X100640Y6036
X103640
X104648Y5334
X102130Y3484
X83790Y9057
X67183Y8834
X63448Y8849
X63233Y6443
X62558Y6411
X61862
X59685Y8815
X55990Y8881
X53945Y7404
X51039Y5714
X49321Y6280
X47725Y7305
X45923Y6826
X42098Y6929
X42279Y2017
X43179
X44079
X44979
X45879
X46779
X47679
X48579
X49479
X50379Y2017
X51279
X52179
X53079
X53979
X54879
X55779
X56679
X57579
X58479
X59379
X60279
X61179
X62079
X62979
X63879Y2017
X64779
X65679
X66579
X67479
X68379
X41379Y2017
X40479
X39579
X38679
X37779
X36879
X35979Y2017
X35079
X34179
X33279
X32379
X31479
X30579
X29679
X34213Y6313
X36276Y7305
X28779Y2017
X27879
X26979
X26079
X25179
X24279
X23379
X22479Y2017
X21579
X20679
X19779
X18879
X17979
X17079
X16179
X15279
X14379
X13479
X12579
X11679
X10779
X9879
X8981Y1960
X8168Y1574
X7461Y1017
X6561Y1017
X5661Y1017
X4761Y1017
X3861Y1020
X2977Y1189
X2182Y1612
X1559Y2261
X1158Y3067
X1017Y3956
X1017Y4856
Y5756
Y6656
Y7556
Y8456
X11106Y8159
X12124
X11615Y7555
X10597
X11106Y6950
X12124
X12633Y7550
X13000Y5500
X15500
X18284Y6037
X19707Y6598
X20293Y5975
X21208Y6600
X22193Y6598
X10500Y5500
X13385Y10967
X15341Y11527
X16319Y11334
Y10826
Y10318
Y9809
X17112Y12286
X17032Y13361
X18700Y13343
X18275Y14624
X20704Y14605
X20450Y13335
X20686Y17078
X18292Y17074
X18504Y18274
X19206Y18283
X18855Y18813
X19558Y18821
X21844
X22547Y18813
X22195Y18283
X22898Y18274
X22651Y22337
X21351
X20051
X18751
Y23637
X20051
X21351
X22651
X26010Y23444
X26750Y23000
X26010Y21850
Y20287
X28363Y22626
X28438Y25913
X27938
X27438
X27616Y29570
X28191
X28791
X28339Y32320
X27109Y31770
X26413Y31276
X27397Y33274
X26536Y34280
X27016Y36405
X27591
X28166
X28766
X28438Y39993
X27938
X27438
X27619Y41253
X28389Y42014
X26750Y43000
X26875Y44130
X27813Y45479
X26750Y48000
X23626Y48870
X21895
X21351Y43305
X20051
X18751
Y42005
X20051
X21351
X22651
Y43305
X21336Y39955
X20696Y38746
X20697Y38133
Y37520
X19756Y37342
X21650
X23258Y36702
Y35875
Y33761
Y32935
X22978Y30010
X21974Y29434
X23670Y28849
X18000Y25500
X17084Y24412
Y23637
X17071Y22875
Y22054
Y21280
X17058Y20518
X18000Y20500
X15847Y20925
X13501Y20402
X12037Y18757
X10923
X9809
X10396Y17078
X8002Y17074
X7985Y14624
X10380Y14627
X15341Y13382
X19975Y9434
X21089
X22203
X24032Y9505
X23674Y10995
X25680Y11524
X27038Y11502
X6028Y11585
Y11077
Y10568
Y10060
X1017Y10256
Y9356
Y11156
Y12056
Y12956
Y13856
Y14756
Y15656
Y16556
Y17456
Y18356
Y19256
Y20156
Y21056
Y21956
Y22856
Y23756
Y24656
Y25556
Y26456
Y27356
Y28256
Y29156
Y30056
Y30956
Y31856
Y32756
Y33656
Y34556
Y35456
Y36356
Y37256
Y38156
Y39056
Y39956
Y40856
Y41756
Y42656
Y43556
Y44456
Y45356
Y46256
Y47156
Y48056
X6180Y48009
Y48517
X6566Y46378
X7328Y46365
X8102
X9012Y46378
X9774Y46365
X10548
X11362Y46378
X12124Y46365
X12898
X13719
X14481Y46352
X15256
X15708Y48777
X12124Y47554
X11010
X9896
X10523Y45272
X8129Y45268
X8112Y42818
X8537Y41537
X6881Y41530
X6858Y40507
X6129Y39525
Y39017
Y38508
Y38000
X2454Y38002
Y38510
Y39018
Y39527
Y31871
X6843Y32266
X8537
X8112Y33547
X10541Y33528
X10247Y32390
X10523Y36001
X11393Y36872
X12155Y36859
X12929
X13750
X14512Y36846
X16158Y36496
X16988Y36487
X17743Y36454
X17378Y35970
X16590Y35972
X12040Y37553
X10926
X9812
X8129Y35997
X10259Y41629
X10541Y42799
X13043Y39961
X13532Y39276
X17419Y41964
X17432Y42726
Y43501
X18000Y45500
X15850Y30450
X13545Y29911
X13784Y27493
X14546Y27480
X15321
X15500Y25500
X12963Y27493
X12189
X11427Y27506
X10926Y28282
X12040
X10520Y26476
X8126Y26472
X8109Y24022
X8534Y22741
X6847Y22699
X7010Y22062
X6140Y20975
Y20467
Y19958
Y19450
X10284Y22733
X10538Y24003
X6031Y28737
Y29245
Y29753
Y30262
X29406Y31770
X29019Y32775
X29374Y33270
X29116Y33898
X29113Y35200
X30620Y36955
Y37430
Y37880
X31541Y36680
X31991
Y36230
X32788Y36255
Y36880
Y37505
Y38130
Y40005
X33313
X33813
X33000Y40500
X32263Y40005
X31763
X32244Y41253
X31473Y42014
X31750Y43000
X34054Y43128
X35013Y41850
X36251Y43399
X36365Y45212
X35500Y45500
X37128Y46037
X38000Y45500
X38532Y47660
X39618Y47720
X34250Y48000
X33304Y48184
X31750Y48000
X30998Y48184
X29250Y48000
X32334Y46002
X30702Y41253
X29931Y42014
X29160Y41253
X28963Y39993
X29488
X29988
X33589Y36680
X34013
X33589Y36230
X34963Y36955
Y37430
Y37880
X36738Y36430
X37338
X37913
X38488
X38791Y35492
X38263Y34950
Y34138
Y33147
X39694Y33094
Y32475
X39676Y33714
Y34334
X41967Y35162
X41593Y35655
Y36155
X41993Y36570
X44425Y36500
X44458Y33823
Y32981
X43616
X42775
Y33823
X43616
X46393Y33259
X46157Y35236
X47880Y34989
X47882Y35658
X48980Y34276
Y33376
Y32381
Y31481
X49581Y31938
X48540Y30751
X47587Y30086
X46006Y29089
X46308Y27778
Y27249
X46304Y26721
X46230Y25730
X45701Y25729
X45030Y25730
X44443Y23886
X43561
X42951Y24335
X42439Y24677
X41890Y25730
X41168Y25729
Y28539
X41890
X42074Y29276
X41593Y29743
Y30243
X39707Y30400
X38513Y29595
X37938
X37363
X36763
X34963Y29066
Y28616
Y28141
X34038Y29345
X33563
Y29795
X32791Y29770
Y29145
Y28520
Y27895
Y26020
X32266
X31766
X33316
X33816
X33000Y25500
X29988Y25913
X29488
X28963
X30620Y28141
Y28616
Y29066
X31541Y29345
X32016
Y29795
X31591Y31820
Y33020
Y34220
X32791
X33991
Y33020
X32792Y33020
X32791Y31820
X33991
X36123Y31611
X36307Y32767
X36093Y35382
X38263Y31565
X44524Y28539
X49488Y27581
X49817Y27204
X49797Y25345
X51729Y24033
X51407Y23194
X50842Y22957
X50472Y20780
X51274
X53000Y20500
X53594Y20504
Y19113
X54250Y18000
X55193Y17723
X55500Y15500
X57277Y15189
X60500Y15500
X61011Y15189
X63000Y15500
X64266Y15720
X64767Y15061
X68478
X62382Y17780
X61919Y17392
X61886Y18415
X60212
X60848Y19580
X60500Y20500
X59715Y20726
X57946
X58776Y21741
X59250Y23000
X57946Y22729
X57895Y23676
X56819Y23421
X56933Y21741
X54229Y22454
X53594Y21895
X48768Y20826
X48176Y18273
X47319Y18237
X46041Y18215
X45254Y18693
X45164Y20817
X43430Y22641
X41314Y22622
X36923Y22632
X34933Y22615
X33301Y20436
X35248Y18009
X35909Y16872
X35919Y16001
X37411Y18023
X38718Y18021
X41728Y18009
X42987
X46751Y13344
X50181Y9855
X51245Y9726
X53945Y10761
X58000Y10500
X53207Y15743
X59055Y19580
X62696Y20340
X63825Y19338
X64335Y23642
X63807Y24850
X64256Y25402
X63375Y25833
X62569Y30132
X60271Y32515
X59412Y32847
X59001Y32304
X58580Y31740
X57789Y31725
X57836Y32316
X57911Y32838
X56888Y33244
X55568Y33186
X56332Y30493
X56881Y30912
X57294Y28977
X56869Y27494
X57491Y25383
X54795Y29016
X54486Y29639
X54095Y30337
X52604Y27875
X52198Y37480
X52251Y40236
X49624Y40627
X49109Y40631
X48609
X48073Y40627
X47767Y41435
Y41935
X48021Y43479
X48585Y43744
X48953Y44082
X47157Y44557
X47530Y46496
X48006Y48242
X50929Y48477
X51189Y47935
X51087Y45735
X50841Y45229
X50427Y45883
X50773Y43081
X55449Y43469
X56532Y42507
X57807Y42515
X58232Y43082
X58737Y43162
X58778Y42166
X58777Y41553
X58178Y41492
X57985Y40587
X58137Y39587
X58787Y38937
X59762Y38887
X60087Y39587
Y40237
Y40887
X60737
X59437
Y40237
Y41537
Y42187
X60087
X60688Y42188
X60716Y42829
X60011Y43162
X61394Y43480
X62037Y43487
X62037Y44115
X61412Y44140
X60511Y44412
X60037Y45762
X58763
X58262
X58114Y46515
X58835Y46677
X59437Y46737
X59439Y47356
X59423Y48065
X59437Y48687
X60087
X60737Y48037
X61387Y48687
Y47387
Y46737
Y46087
X62037
X62676Y46112
X63339Y46131
X63364Y44781
X63979Y44846
X64009Y45424
X65273Y45381
X65291Y46108
X65315Y46650
X65920Y46752
X65937Y47397
X65937Y48037
X65908Y48669
X66517Y48671
X67263Y48709
X67887Y48687
Y47387
X67262Y47412
X66587Y47387
X66610Y46713
X67252Y46712
X67880Y46722
X68537Y46737
X67263Y45747
X65962Y46087
X65927Y44762
X66637Y44514
X66601Y42830
X66587Y42187
X67214Y42181
X67237Y41562
X67880Y41481
X68537Y41537
Y40887
Y40237
X67887Y40237
Y39587
X68537
Y38963
X67234Y38941
X67228Y39580
X67255Y40207
X66527Y40330
X66587Y40887
X65338Y40888
X65287Y41537
X65937Y41537
X65937Y42187
X65314Y42206
X65287Y42837
Y43487
Y44137
X64637Y43487
Y42837
X63339Y42831
X63337Y43487
X63973Y44070
X62636Y44788
X62037Y44771
X62014Y42164
X61405Y41525
X61387Y40237
X62390Y40834
X62388Y39590
X61686Y38894
X60749Y38962
X61686Y37587
X61254Y36438
X60857Y35329
X62324Y35040
X63662Y37587
X64623Y38937
Y39587
X64241Y40237
X64614Y40856
X63662Y41318
X63314Y42181
X67864Y42206
X67287Y43145
X68561Y43162
X66526Y39603
X65935Y39583
X65596Y38451
X65605Y37137
X67562Y37237
X67590Y38529
X59762Y37587
X57484Y38287
X56729Y38202
X56782Y40577
X56787Y44462
X58098Y44469
X58157Y47388
X58087Y48362
X56704
X56192Y48356
X55665Y48008
X56799Y46515
X62362Y48087
X63652Y47425
X64971Y48196
X49145Y39025
X49139Y38433
Y37897
X47591Y37908
X46308Y38135
Y38735
Y39335
X46230Y40183
X45630
X45030
X42129Y40591
X39675Y40861
X37766Y40916
X37970Y42672
X30513Y22563
X29250Y18000
X30447Y10025
X32562Y9862
X34019Y11439
X36276Y10922
X35791Y9665
X37234Y11990
X69520Y11057
Y9601
X70500Y10500
X73109Y9922
X76757
X78000Y10500
X80308Y9917
X83789Y9922
X85660Y10922
X85677Y12022
X85660Y13238
X86518Y15004
X86420Y17425
X85394Y17034
X87109Y18461
X87851Y19113
X88165Y20168
Y21061
X87689Y22372
Y23672
X87746Y24729
X87932Y25625
X90406Y25577
X90904Y21686
X94183Y22184
X93467Y18461
X96583Y18520
X99528Y18265
X99076Y17728
X99580Y19773
X99983Y20893
X100430Y21380
X101414Y21156
X101532Y21868
X101487Y22623
X101812Y23073
X102846Y22627
X104186Y22316
X104186Y22982
X104853
X105520Y22982
X106109Y21420
X107088Y21427
X107085Y19291
X106553Y19777
X105867Y20173
X108191Y22912
X107559Y23572
X104747Y25546
X104874Y28624
X103253Y28554
X102597
X102605Y30416
X103207Y31420
X102770Y32176
X103162Y32824
X104893Y32403
X107245Y32436
X106430Y33761
X106000Y35640
X107967Y37240
X107301Y39744
X105772Y40356
X105495Y39008
X104250Y38000
X102248Y35971
X102250Y41442
X104006Y41806
X105209Y43458
X104858Y43959
X102250Y43973
Y45973
X103749Y47018
X104751Y47016
X106204Y47009
X106795Y47002
X107579Y44434
X108102Y44856
X98941Y43008
X97254Y41527
X95524Y41144
X94439Y40411
X94356Y42124
X93216Y43529
X92582Y44786
X91717Y44675
X90551Y43713
X90404Y42604
X89641Y42005
X89615Y43211
X89317Y45577
X88774Y45143
X89014Y47771
X90295Y46579
X94229Y46952
X94971Y46266
X94045Y44777
X93495Y47718
X97654Y46266
X95766Y39046
X95727Y36919
X96038Y35569
X97172Y35329
X97121Y34541
X97110Y33295
X97125Y32692
X97818Y32075
X97121Y30622
X96641Y29969
X95927Y30465
Y31263
X94293Y31015
X93880Y30614
X93447Y30201
X92989Y30785
X91872Y31046
X91464Y31648
X91044Y32131
X90237Y32791
X89112Y32799
X90172Y31489
X87919Y30931
X87160Y32028
X87919Y34288
X92132Y34541
X92110Y33962
X92567Y36881
X94020Y37383
X91914Y38234
X91118Y38244
X89518Y38489
X97134Y37196
X95912Y33962
X94336Y32791
X94327Y32073
X95562Y29357
X95951Y28752
X96377Y26633
X97051Y26605
X97086Y26060
X97005Y25419
X97815Y25400
X98677Y25419
X99641Y25451
X99235Y26140
X98247Y26086
X106846Y29201
X107887Y16986
X107456Y13443
X106038Y13442
X107188Y10363
X108000Y10500
X100439Y10393
X98591Y9721
X93000Y10500
X94250Y13000
X92221Y14350
X91321Y14998
X89996Y16502
X89077Y16482
X89531Y17015
X95500Y15500
X100439Y15034
X100796Y15704
X100763Y16817
X102696Y16774
X83927Y15061
X83286Y14955
X82680Y12894
X82706Y11912
X79157Y12901
X79121Y15259
X80391Y15061
X78071Y14548
X76810Y15061
X73279
X74250Y13000
X74862Y20862
Y21662
Y22462
Y23262
Y24062
Y24862
Y25662
Y26462
X75862Y26062
Y24462
Y22862
Y22062
X77462Y21262
X81062Y20262
X81862
X82462Y21662
Y22462
X84052
Y23420
X82462Y24062
Y24862
Y25662
Y26462
Y28462
Y29662
X82473Y30459
X82466Y31263
X82477Y32038
X82212Y32462
X82477Y32886
X82462Y33437
Y34037
X81462Y31662
X81462Y30862
X80662Y30862
X80662Y30062
X81462Y30062
X81462Y29262
X80662
X79862
X79862Y28462
Y27662
X80662
X80662Y28462
X81462Y27662
X80662Y26062
X79862Y25262
X80662Y24462
X80662Y23662
X81462Y23662
X77462Y27662
X76662Y27662
X75862Y27662
X76662Y28462
X77462Y28462
X76662Y29262
X76637Y30037
X75865Y30067
X75862Y30862
X76662Y30862
X76662Y31662
X75862
X75888Y32462
X76662Y32462
Y33262
X74862Y32862
Y32062
X74889Y31252
X74862Y30462
X75862Y29262
X71375Y32419
X71352Y34256
X69860Y37104
X69854Y37626
X69837Y38287
X69807Y38920
Y39625
X69162Y39612
X69187Y40887
X69697Y40650
X71012Y40562
X70862Y42537
X69512
X69062Y43145
X69237Y44476
X70524Y44478
X70549Y46525
X69237Y46412
X68757Y45762
X69236Y48362
X70537Y48348
X72900Y47811
X72669Y47298
X72741Y45873
X75140Y45026
X76029Y45110
X76721Y45912
X76396Y46711
X75191Y48111
X74689Y48195
X81394Y48153
X82282Y47373
X82037Y46167
X83489Y46579
X86243Y45541
X71281Y38558
X70525Y38514
X109613Y40356
X109411Y44356
X108378Y43608
X111416Y43488
X113543Y44172
X113982Y44706
X115122Y43988
X115316Y45353
X116354Y47018
X117447Y47020
X118749Y47018
X119745Y44959
X120456Y45589
X120700Y43697
X120746Y42926
X120741Y40977
X119880Y41071
X120741Y39980
X119712Y37861
X119185Y37279
X118692Y36768
X116819Y36777
X114319Y36362
X114009Y37217
X111810Y36811
X111472Y35146
X109938Y35082
X108735
X108730Y31865
X108704Y28731
X109474Y28672
X110386Y28643
X113094Y29566
X112500Y30166
X114897Y30601
X117289Y31010
X118339Y31420
X118501Y32101
X118339Y33319
X119000Y34544
X119555Y35171
X120222Y35707
X120746Y34467
X120223Y33730
X120471Y32491
X119358Y30160
X120386Y29028
X117049Y28691
X115923Y28654
X114247Y25546
X112538Y25160
X112211Y22572
X112203Y21682
X113535Y21548
X114203
X115133Y21526
X115702Y21733
X116202Y21551
X117000Y21251
X116131Y20438
X118124Y20457
X118603Y21024
X120420Y20538
X120910Y19264
X121787Y19786
X122700Y20273
X123326Y20706
X124003Y20518
X123904Y18523
X124865Y18202
X125095Y17415
X125875Y17094
X126683
X127490
X128297
X129104
X128658Y17692
X127472Y18354
X127472Y20462
X127821Y23051
X126750Y23000
X126010Y23058
X123970Y23064
X122432Y21667
X121397
X120652Y22548
X119557Y23116
X118876Y23408
X121468Y24738
X121469Y25650
X122432
X123000Y25500
X125500
X128000
X127182Y28523
X126248Y28498
X126248Y29768
X126248Y31098
X126248Y31760
Y32416
X126243Y33081
Y33730
X126239Y34356
X126248Y35707
Y38355
X127100Y38565
X127440Y39712
X127075Y40267
X125802Y40977
Y41647
X126658Y42300
X125802Y43633
X125661Y44958
Y45639
X127473Y44232
X130500Y45500
X133309Y47632
X135170Y48731
X136144Y46888
X136957Y46228
X140500Y45500
X143000
X145500
X146750Y43000
X144250
X141750
X139250
X140500Y40500
X143000
X145500
X146750Y38000
X144250
X141750
X139250
X138573Y36923
X138000Y40500
X133245Y40688
X133218Y39726
X131048Y39293
X130500Y38940
X130488Y40294
X131048Y40688
X133283Y42394
X133309Y42926
X134250Y43000
X132022Y37073
Y36345
X132588Y35052
X134250Y33000
X135500Y30500
X138000
X137415Y28611
X136523Y27408
X134250Y28000
X132517Y29070
X133000Y30500
X131593Y30385
X133000Y25500
X132683Y24733
X134250Y23000
X136750
X135500Y25500
X139250Y28000
X140500Y30500
X144250Y33000
X146750
X145500Y35500
X143000
X144250Y23000
X141750
X142667Y20909
X143189Y20273
X143828Y20725
X142276Y19786
X141399Y19267
X143367Y17560
Y16610
X142467
X142444Y14402
X144730Y14955
X144202Y12316
X144721Y10408
X146533Y10222
X147989Y15119
X147979Y17094
X147172
X146365
X145585Y17425
X145310Y18828
X144568Y18685
X147973Y18620
Y19143
X138902Y17735
X138542Y17094
X137734
X136927
X136120
X135340Y17425
X134934Y17861
X134329Y18671
X133123Y17560
Y16610
X132223
X132176Y14740
X130391Y14383
X128495Y14514
X127765Y14510
X126683Y14415
X125875
X124473Y14764
X121947Y14380
X121978Y16610
X122878
Y17560
X119495Y17084
X118862Y17094
X118237
X118413Y17657
X115892Y16682
X115831Y15939
X116593Y15925
X114672Y17657
X112417Y16531
X112903Y15295
X111580Y15058
X110500Y15500
X110778Y17217
X110813Y20445
X110463Y21858
X110905Y22313
X110835Y22925
X110200Y22912
X109523Y22925
X108820
X109367Y22037
X113535Y22572
X114692
X114671Y13161
X114238Y12102
X115177Y12101
X116427Y10512
X117723Y11060
X113181Y11176
X126857Y11100
X127273Y10546
Y11662
X127148Y12365
X129321Y11749
X130370Y10357
X131291Y10367
X136267Y10318
X138098Y10489
X139724Y10884
X139829Y11662
X139586Y14383
X138542Y14415
X137734
X136927
X136120
X134715Y14720
X134493Y15304
X138000Y15500
X139349Y17094
X137670Y18158
X133583Y20725
X132945Y20273
X132153Y19785
X132048Y20725
X131431Y19279
X129610Y23044
X123952Y31745
X117551Y39195
Y40361
X117917Y42307
X117825Y43018
X116750Y43000
X115357Y38811
X108743Y47032
X122615Y48447
X148000Y45500
X150876Y45415
X153000Y45500
X155500
X156750Y43000
X154250
X151750
X149250
X150500Y40500
X153000
X155500
X156750Y38000
X154250
X151750
X149250
X150500Y35500
X153000
X155500
X156750Y33000
X154250
X151750
X149250
X150500Y30500
X153000
X155500
X156750Y28000
X154250
X151750
X149250
X148000Y30500
Y35500
Y40500
X149250Y23000
X154250
X154072Y20725
X153245Y20084
X152521Y19786
X152362Y20790
X151644Y19258
X153612Y17560
Y16610
X152712
X152748Y14270
X151191Y15093
X149751Y13883
X149593Y17094
X148786
X149147Y17735
X154713Y18616
X155534Y18310
X155829Y17425
X156400Y17094
X157032
X157658
Y14415
X157032
X156400
X154950Y14780
X154307Y11659
X154201Y10880
X152018Y10470
X157012Y10023
X159385Y10352
X158497Y12254
X162309Y14408
X164181Y13707
X165360Y12245
X165355Y11523
X166486Y10353
X164207Y10273
X171903Y10491
X173134Y10029
X174658
X175500Y10500
X175238Y11129
X176762
X176182Y10029
X178000Y10500
X178983Y10229
Y9329
X178983Y11129
Y12029
Y12929
X178983Y13829
Y14729
X178983Y15629
Y16529
Y17429
X178983Y18329
Y19229
X178983Y20129
Y21029
Y21929
X178983Y22829
Y23729
X178983Y24629
Y25529
Y26429
X178983Y27329
Y28229
X178983Y29129
Y30029
Y30929
X178983Y31829
Y32729
X178983Y33629
Y34529
Y35429
X178983Y36329
Y37229
X178983Y38129
Y39029
Y39929
X178983Y40829
Y41729
X178983Y42629
Y43529
Y44429
X178983Y45329
Y46229
X178983Y47129
Y48029
Y48929
X170904Y48258
X172099Y44503
X171750Y28000
X174250
X176750
X178000Y25500
X176750Y23000
X178000Y20500
X176750Y18000
X178000Y15500
X175500
X173000
X171901Y13995
X174250Y13000
X173714Y11129
X176750Y13000
X171750Y18000
X169250
X166750
X168000Y20500
X170500
X169250Y23000
X170180Y24054
Y27009
X169250Y28000
X166750
X164250
X161750
X163000Y25500
X164250Y23000
X166750
X168000Y25500
X173000
X161750Y23000
X163000Y20500
X156412Y20633
X156750Y23000
X155500Y25500
X153000
X168416Y14732
X169783Y52031
X169049Y55248
X167568Y56317
X162821Y56737
X162813Y59247
X161852Y60259
X158895Y58047
X154275Y60144
X152033Y57452
X150772Y55468
X150097Y54074
X155682Y54071
X156409Y52909
X156426Y52130
X155747Y51501
X154833
X155500Y50500
X155964Y63601
X156116Y66516
X157728Y64919
X153298Y64854
X152358Y64935
X161364Y67349
X163632Y65225
X167199Y65284
X167878Y64722
X172483Y65232
X174758Y64781
X178983Y65129
Y66029
Y66929
X178983Y67829
Y68729
X178983Y69629
Y70529
Y71429
X178983Y72329
Y73229
X178983Y74129
Y75029
Y75929
X178868Y76822
X178489Y77638
X177888Y78308
X177115Y78769
X176016Y78985
X175116Y78983
X174216Y78983
X173316Y78983
X172416Y78983
X171758Y78369
X170928Y78021
X170029Y77983
X169129
X168229
X167329
X166429
X165529
X164629
X163729
X162829
X161929
X161029
X160129
X159229
X158329
X157429Y77983
X156529
X155629
X154729
X153829
X152929
X152029
X151129
X150229
X149329
X148429
X174250Y73000
X178000Y70500
X178983Y64229
Y63329
X178983Y62429
Y61529
Y60629
X178983Y59729
Y58829
X178983Y57929
Y57029
Y56129
X178983Y55229
Y54329
X178983Y53429
Y52529
Y51629
X178983Y50729
Y49829
X174703Y58452
Y60241
X147101Y59216
Y58268
X145947Y60002
X143000Y60500
X144424Y62306
X145196Y64399
X146133Y65284
X147523Y64794
X142390Y64781
X139515Y63470
X137026Y64611
X136500Y65191
X134793Y66355
X133387Y66821
X131674Y67353
X129750Y67750
X128368Y68250
X126591Y64908
X125500Y65500
X125467Y62381
X128776Y63391
X132095Y64908
X135092Y62447
X136584Y59189
Y58241
X132966Y57532
X133000Y55500
X131064Y55626
X130025Y54610
X131521Y53492
X131750Y53000
X132676Y52336
X134925Y50444
X135500Y50500
X139543Y54600
X140500Y55500
X141226Y55909
X142498Y57532
X141750Y53000
X144250
X146498Y55295
X140101Y68835
X134620Y70263
X133943Y69779
X133209Y71921
X131750Y73000
X129250
X124926Y73214
X123410Y73172
X121750Y73000
X116750
X116929Y77983
X116029
X115129
X114229
X113329
X112429
X111529
X110629
X109729
X108829
X109615Y75196
X111115Y75190
X117829Y77983
X118729
X119629
X120529
X121429
X122329
X123229
X124129
X125029
X125929
X126829
X127729
X128629
X129529
X130429
X131329Y77983
X132229
X133129
X134029
X134929
X135829
X136729
X137629
X138529
X139429
X140329
X141229
X142129
X143029
X143929
X144829Y77983
X145729
X146629
X147529
X121325Y64908
X116058Y64892
X110792Y64908
X111189Y58047
X110163
X112069Y55914
X110866Y54334
X110274Y53971
X110864Y53347
X109888Y52961
X109247Y53512
X109145Y52176
X108493Y52164
X110407Y52188
X111087Y52168
X111750Y52185
X113047Y52176
X113658Y52188
X114338Y52168
X115023Y52153
X114365Y50350
X113683
X113045
X112395
X111747
X111239Y50346
X110270Y50369
X109770
X109247Y50351
X112406Y53391
X117754
X117597Y52158
X118897Y52158
X118410Y50482
X120287Y50834
X116276Y50333
X119673Y55990
X120563Y55949
X123196Y55727
X124387Y55662
X122145Y54574
X126750Y53000
X126512Y51119
X127457Y50216
X128397Y49200
X107747Y50351
X106962Y52164
X105883Y52165
X105203Y52185
X104591Y52174
X103941
X103359Y52101
X103359Y52627
X102721Y52595
X102446Y53453
X102568Y54249
X101953Y54693
X101275Y54242
X100660Y54686
X100037Y55623
X100839Y53055
X101559Y53062
X101953Y51444
X98019Y51769
X96919Y56486
X95931Y60327
X94866Y64781
X98000Y65500
X96750Y68000
X91750
X91500Y71313
X90250
X89015Y71519
X92850Y71293
X93000Y75500
X93999Y75680
Y76183
X94429Y77983
X93529
X92629
X91729
X90829
X89929Y77983
X89029
X88129
X87229
X86329
X85429
X84529
X83629
X82729
X81829
X80929
X80029
X79129
X78229
X77329
X76429Y77983
X75529
X74629
X73729
X72829
X71929
X71029
X70129
X69229
X70797Y74875
X71482Y75300
X72136Y75723
X71972Y69605
X73172
X75667Y70688
X77929
X79547Y68219
X79760Y67219
X80684Y67296
X80565Y69154
X86956Y69022
X87897Y68019
X84551Y65294
X85263Y64439
Y63304
X87452Y61417
X88661
X89726
X90327Y59325
X89166Y57347
X86437
Y56320
Y55290
Y54114
X86801Y50781
X89741Y51862
X90312Y52481
X90826Y53208
X92360Y52101
X92304Y54490
X90826Y56027
X81750Y58000
X81484Y59661
X80393
X79413
X78413
X77373Y59626
X78689Y58445
X79138Y57747
X79569Y57250
X79978Y56775
X78000Y55500
X75082Y55941
X74697Y54363
X74698Y53710
X75301Y52747
X76388Y53135
X75989Y51812
X75082Y51196
X75085Y50557
X76331Y49177
X79563Y51037
X80531Y51015
X80500Y50500
X81700Y49327
X81636Y51918
X79544Y52339
X72695Y52973
X70626Y53913
X70118Y53907
X70177Y52152
X69876Y51287
X69837Y50637
X70712Y50812
X71222Y51156
X71012Y49662
X70150Y55941
X69956Y56917
X69242Y56468
X68743Y55351
X71166Y62026
X71393Y64300
X71399Y64800
X72712Y64645
X73058Y63986
Y63486
X72712Y63048
X73600Y64352
X73709Y64938
Y65438
X74549Y62548
X75184Y62864
X75747Y62548
X76200Y62864
X76750Y63000
X77498Y62036
X82556Y60308
X84000Y74443
X85250
X86500
X87750
X95329Y77983
X96229
X97129
X98029
X98929
X99829
X100729
X101629
X102529
X103429
X104329Y77983
X105229
X106129
X107029
X107929
X108115Y75196
X106614Y75191
X105102Y73977
X103616Y74477
X100500Y75500
X98000
X98368Y73649
X99314Y73660
X102848Y66467
X105800Y64921
X107921Y60241
X107153Y54665
X106468Y54249
X105853Y54693
X105168Y54249
X104553Y54693
X103868Y54249
X103253Y54693
X99969Y61897
X68789Y68270
X69416Y69365
X68126Y69421
X68404Y70393
X66916Y69359
X66296Y68252
X65310Y69694
X64050Y69717
X62822Y69717
X57937Y69682
X57519Y70119
X56683
X56265Y69682
X55847Y69245
X57099Y69215
X58374Y69219
X57782Y62639
X59685Y61839
X59707Y60960
X60077Y60334
X57698Y59826
X56099Y60512
X55070
X55587Y61085
X56099Y61603
X55070
X52702Y60835
X51206Y61362
X50218Y61735
X50000Y60427
X50823Y60335
X48336Y60665
X47302Y60876
X47357Y59737
Y58544
X47890Y57910
X47357Y57350
Y56156
Y54962
Y53768
Y52575
Y51381
Y50187
Y48993
X48709Y51980
X49600Y53210
X49182Y53762
X49803Y54689
X50791Y54685
X51189Y51445
X54706Y51988
X56099Y52770
X57087Y52736
X57562Y53132
X58139Y53461
X57721Y52322
X57487Y50637
X56837
X55837Y50495
X58137Y49987
Y49337
X58787Y49987
X59762Y50037
X60087Y49312
X60741Y49292
X62007Y49314
X62365Y49836
X61716Y50037
X61980Y51593
X63659Y51431
X63662Y50037
X64962Y49437
X65612Y50037
X66587Y50036
X66588Y50638
X67539Y50056
X67258Y49326
X67903Y49357
X67594Y51482
X65647Y51426
X64515Y52488
X65112Y55087
X63778Y54952
X62650Y56370
X63069Y57393
X64299Y57840
X64720Y58999
X67181Y58946
X67536Y59298
X67258Y57909
X66629Y57393
X65975Y56906
X64995Y61824
X68517Y61541
X60084Y56371
X59344Y55571
X58609Y55208
X59779Y51436
X53328Y59200
X49178Y58507
X40576Y58293
X40634Y57279
X38358Y56692
X37402Y56699
X36430Y56826
X35358Y55692
X34478Y55710
X34460Y54830
X35340Y54812
X33358Y54692
X32460Y54830
X31478Y54812
Y55812
Y56812
Y57794
X32464Y57767
X32460Y56830
X33358Y56692
X33478Y57710
Y58710
X33859Y59919
X32712
X31562
X31750Y63000
X31614Y65153
X30500Y65500
X33000
X35500
X36080Y66188
X38000Y65500
X40500
X43000
X42202Y67667
X39977Y67656
X44250Y68000
X44272Y68741
X46200Y70500
X47818Y68126
X48773Y68741
X50230Y68223
X51164Y69541
X51217Y66944
X54034Y66283
X46899Y66944
X42991Y62468
X39188Y62456
X36750Y63000
X36246Y59919
X35054
X37431Y58705
X37462Y53588
X38358Y53692
X36478Y52710
X37340Y50812
X38000Y50500
X35500
X35094Y49744
X33478
X33397Y50684
X33358Y51692
X32460Y51830
Y52830
X31478Y52812
Y53812
Y51812
Y50812
X30500Y50500
X29896Y49479
X29250Y53000
X29178Y55315
X29131Y57348
X29250Y58000
X30407Y56705
X33478Y52710
X40634Y52279
Y51279
X35135Y68223
X33678Y68741
X32723Y68126
X31804Y66944
X29250Y68000
X31100Y70500
X35500Y70500
X36069Y69541
X35929Y77983
X35029
X34129
X33229
X32329
X31429
X30529
X29629
X36829Y77983
X37729
X38629
X39529
X40429
X41329
X42229
X43129
X44029
X44929
X45829
X46729
X47629
X48529
X49429
X50329Y77983
X51229
X52129
X53029
X53929
X54829
X55729
X56629
X57529
X58429
X59329
X60229
X61129
X62029
X62929
X63829Y77983
X64729
X65629
X66529
X67429
X68329
X67629Y74484
X65138Y74476
X63879
X63997Y75576
X64250Y76924
X65100Y76902
X62629Y74476
X61379
X57790Y75900
X56525Y75939
X56528Y75357
X55500Y75500
X28729Y77983
X27829
X26929
X26029
X25129
X24229
X23329
X22429Y77983
X21529
X20629
X19729
X18829
X17929
X17029
X16129
X15229
X14329
X13429
X12529
X11629
X10729
X9829
X8932Y78060
X8138Y78483
X7389Y78983
X6489Y78983
X5589Y78983
X4689Y78983
X3789Y78973
X2911Y78777
X2132Y78326
X1526Y77661
X1141Y76847
X1017Y75956
Y75056
Y74156
Y73256
Y72356
Y71456
Y70556
Y69656
Y68756
Y67856
Y66956
Y66056
Y65156
Y64256
Y63356
Y62456
Y61556
Y60656
Y59756
Y58856
Y57956
Y57056
Y56156
Y55256
Y54356
Y53456
Y52556
Y51656
Y50756
Y49856
Y48956
X6180Y49025
Y49534
X6941Y50507
X6958Y51520
X8621Y51538
X8195Y52819
X10625Y52800
X10343Y51661
X10607Y55272
X8212Y55269
X6231Y56332
Y56840
Y57349
Y58447
Y58956
Y59464
X7179Y60944
X6928Y61499
X8636Y61468
X8210Y62749
X10640Y62730
X10386Y61460
X10622Y65203
X8227Y65199
X8128Y66599
X7620Y67158
X8687Y67183
X9220Y66573
X9906Y67183
X12598
X13665
X14732Y67158
X14224Y66599
X13132Y66573
X17275Y66615
X16767Y67174
X17833Y67199
X18900
X18404Y66593
X18763Y64149
X17995
X17226
X15723Y63792
X15736Y64554
X15723Y63017
X15948Y59652
X17518
X18429
X18399Y58640
X19441Y60742
Y61885
Y62990
X20678Y61885
X21878
Y62990
X21862Y60747
X21275Y57154
X23189Y56384
Y55153
Y53932
X23155Y49703
X26750Y53000
X28000Y55500
Y60500
X28478Y60765
X28900Y63840
Y64600
X24381Y66615
X24889Y67174
X23823Y67199
X22756
X23289Y66589
X21750Y68000
X20701Y70231
Y71006
Y71624
X15658Y71044
X15645Y70282
Y69507
X12802Y70917
X10592Y71006
X10605Y71768
X10592Y70231
X3000Y70500
X2375Y67167
X2028Y64615
X9555Y57611
X10089Y57266
X10669Y57611
X13902Y57400
Y56891
Y56383
X13699Y59108
X15721Y54623
X15708Y53861
Y53087
X15721Y50313
X15708Y49551
X13616Y49276
X13127Y49961
X19250Y53000
T02
X149187Y73484
X151643Y72473
X156750Y75554
X158250
X159930
X161500
X162967Y75572
X165501Y74527
X168006Y73507
X170812Y72150
X145158Y74485
X142748Y75257
X140998
X139504Y75294
X138006Y75308
X136572Y75275
T03
X137541Y24741
X140081
X142621
X145161
X147701
X160020Y23561
Y26101
Y28641
Y31181
Y33721
Y36261
Y38801
Y41341
Y43881
Y46421
X175260
Y43881
Y41341
Y38801
Y36261
Y33721
Y31181
Y28641
Y26101
Y23561
Y21021
Y18481
X160020
Y21021
Y48961
Y51501
X175260
Y48961
X147701Y52211
X145161
X142621
X140081
X137541
T04
X176000Y4000
X4000
X176000Y76000
X4000
M30
