G04*
G04 #@! TF.GenerationSoftware,Altium Limited,Altium Designer,24.1.2 (44)*
G04*
G04 Layer_Color=128*
%FSLAX44Y44*%
%MOMM*%
G71*
G04*
G04 #@! TF.SameCoordinates,08E163FE-A1B1-404E-B758-27256C6DDFFB*
G04*
G04*
G04 #@! TF.FilePolarity,Positive*
G04*
G01*
G75*
%ADD13C,0.1270*%
D13*
X212510Y236370D02*
X214510D01*
X213510Y235370D02*
Y237370D01*
X212510Y223370D02*
X214510D01*
X213510Y222370D02*
Y224370D01*
X225510Y236370D02*
X227510D01*
X226510Y235370D02*
Y237370D01*
X199510Y236370D02*
X201510D01*
X200510Y235370D02*
Y237370D01*
X199510Y223370D02*
X201510D01*
X200510Y222370D02*
Y224370D01*
X186510Y236370D02*
X188510D01*
X187510Y235370D02*
Y237370D01*
X186510Y223370D02*
X188510D01*
X187510Y222370D02*
Y224370D01*
X225510Y223370D02*
X227510D01*
X226510Y222370D02*
Y224370D01*
X212510Y433050D02*
X214510D01*
X213510Y432050D02*
Y434050D01*
X212510Y420050D02*
X214510D01*
X213510Y419050D02*
Y421050D01*
X225510Y433050D02*
X227510D01*
X226510Y432050D02*
Y434050D01*
X199510Y433050D02*
X201510D01*
X200510Y432050D02*
Y434050D01*
X199510Y420050D02*
X201510D01*
X200510Y419050D02*
Y421050D01*
X186510Y433050D02*
X188510D01*
X187510Y432050D02*
Y434050D01*
X186510Y420050D02*
X188510D01*
X187510Y419050D02*
Y421050D01*
X225510Y420050D02*
X227510D01*
X226510Y419050D02*
Y421050D01*
X24100Y760000D02*
X55900D01*
X40000Y744100D02*
Y775900D01*
X24100Y40000D02*
X55900D01*
X40000Y24100D02*
Y55900D01*
X1744100Y760000D02*
X1775900D01*
X1760000Y744100D02*
Y775900D01*
X1744100Y40000D02*
X1775900D01*
X1760000Y24100D02*
Y55900D01*
X1747600Y184810D02*
X1757600D01*
X1752600Y179810D02*
Y189810D01*
X1595200Y438810D02*
X1605200D01*
X1600200Y433810D02*
Y443810D01*
X1595200Y464210D02*
X1605200D01*
X1600200Y459210D02*
Y469210D01*
X1595200Y489610D02*
X1605200D01*
X1600200Y484610D02*
Y494610D01*
X1747600Y235610D02*
X1757600D01*
X1752600Y230610D02*
Y240610D01*
X1747600Y261010D02*
X1757600D01*
X1752600Y256010D02*
Y266010D01*
X1747600Y515010D02*
X1757600D01*
X1752600Y510010D02*
Y520010D01*
X1747600Y286410D02*
X1757600D01*
X1752600Y281410D02*
Y291410D01*
X1747600Y489610D02*
X1757600D01*
X1752600Y484610D02*
Y494610D01*
X1747600Y311810D02*
X1757600D01*
X1752600Y306810D02*
Y316810D01*
X1747600Y464210D02*
X1757600D01*
X1752600Y459210D02*
Y469210D01*
X1747600Y337210D02*
X1757600D01*
X1752600Y332210D02*
Y342210D01*
X1747600Y438810D02*
X1757600D01*
X1752600Y433810D02*
Y443810D01*
X1747600Y362610D02*
X1757600D01*
X1752600Y357610D02*
Y367610D01*
X1747600Y413410D02*
X1757600D01*
X1752600Y408410D02*
Y418410D01*
X1747600Y388010D02*
X1757600D01*
X1752600Y383010D02*
Y393010D01*
X1747600Y210210D02*
X1757600D01*
X1752600Y205210D02*
Y215210D01*
X1595200Y515010D02*
X1605200D01*
X1600200Y510010D02*
Y520010D01*
X1595200Y413410D02*
X1605200D01*
X1600200Y408410D02*
Y418410D01*
X1595200Y388010D02*
X1605200D01*
X1600200Y383010D02*
Y393010D01*
X1595200Y362610D02*
X1605200D01*
X1600200Y357610D02*
Y367610D01*
X1595200Y337210D02*
X1605200D01*
X1600200Y332210D02*
Y342210D01*
X1595200Y311810D02*
X1605200D01*
X1600200Y306810D02*
Y316810D01*
X1595200Y286410D02*
X1605200D01*
X1600200Y281410D02*
Y291410D01*
X1595200Y261010D02*
X1605200D01*
X1600200Y256010D02*
Y266010D01*
X1595200Y235610D02*
X1605200D01*
X1600200Y230610D02*
Y240610D01*
X1595200Y210210D02*
X1605200D01*
X1600200Y205210D02*
Y215210D01*
X1595200Y184810D02*
X1605200D01*
X1600200Y179810D02*
Y189810D01*
X1370410Y247410D02*
X1380410D01*
X1375410Y242410D02*
Y252410D01*
X1421210Y247410D02*
X1431210D01*
X1426210Y242410D02*
Y252410D01*
X1446610Y247410D02*
X1456610D01*
X1451610Y242410D02*
Y252410D01*
X1472010Y247410D02*
X1482010D01*
X1477010Y242410D02*
Y252410D01*
X1370410Y522110D02*
X1380410D01*
X1375410Y517110D02*
Y527110D01*
X1395810Y522110D02*
X1405810D01*
X1400810Y517110D02*
Y527110D01*
X1421210Y522110D02*
X1431210D01*
X1426210Y517110D02*
Y527110D01*
X1472010Y522110D02*
X1482010D01*
X1477010Y517110D02*
Y527110D01*
X1446610Y522110D02*
X1456610D01*
X1451610Y517110D02*
Y527110D01*
X1395810Y247410D02*
X1405810D01*
X1400810Y242410D02*
Y252410D01*
X1770149Y787686D02*
X1772149D01*
X1771149Y786686D02*
Y788686D01*
X1777881Y783079D02*
X1779881D01*
X1778881Y782079D02*
Y784079D01*
X1783894Y776383D02*
X1785894D01*
X1784894Y775383D02*
Y777383D01*
X1787681Y768218D02*
X1789681D01*
X1788681Y767218D02*
Y769218D01*
X1788829Y759292D02*
X1790829D01*
X1789829Y758292D02*
Y760292D01*
X1788829Y750292D02*
X1790829D01*
X1789829Y749292D02*
Y751292D01*
X1788829Y741292D02*
X1790829D01*
X1789829Y740292D02*
Y742292D01*
X1788829Y732292D02*
X1790829D01*
X1789829Y731292D02*
Y733292D01*
X1788829Y723292D02*
X1790829D01*
X1789829Y722292D02*
Y724292D01*
X1788829Y714292D02*
X1790829D01*
X1789829Y713292D02*
Y715292D01*
X1788829Y705292D02*
X1790829D01*
X1789829Y704292D02*
Y706292D01*
X1788829Y696292D02*
X1790829D01*
X1789829Y695292D02*
Y697292D01*
X1788829Y687292D02*
X1790829D01*
X1789829Y686292D02*
Y688292D01*
X1788829Y678292D02*
X1790829D01*
X1789829Y677292D02*
Y679292D01*
X1788829Y669292D02*
X1790829D01*
X1789829Y668292D02*
Y670292D01*
X1788829Y660292D02*
X1790829D01*
X1789829Y659292D02*
Y661292D01*
X1788829Y651292D02*
X1790829D01*
X1789829Y650292D02*
Y652292D01*
X1788829Y642292D02*
X1790829D01*
X1789829Y641292D02*
Y643292D01*
X1788829Y633292D02*
X1790829D01*
X1789829Y632292D02*
Y634292D01*
X1788829Y624292D02*
X1790829D01*
X1789829Y623292D02*
Y625292D01*
X1788829Y615292D02*
X1790829D01*
X1789829Y614292D02*
Y616292D01*
X1788829Y606292D02*
X1790829D01*
X1789829Y605292D02*
Y607292D01*
X1788829Y597292D02*
X1790829D01*
X1789829Y596292D02*
Y598292D01*
X1788829Y588292D02*
X1790829D01*
X1789829Y587292D02*
Y589292D01*
X1788829Y579292D02*
X1790829D01*
X1789829Y578292D02*
Y580292D01*
X1788829Y570292D02*
X1790829D01*
X1789829Y569292D02*
Y571292D01*
X1788829Y561292D02*
X1790829D01*
X1789829Y560292D02*
Y562292D01*
X1788829Y552292D02*
X1790829D01*
X1789829Y551292D02*
Y553292D01*
X1788829Y543292D02*
X1790829D01*
X1789829Y542292D02*
Y544292D01*
X1788829Y534292D02*
X1790829D01*
X1789829Y533292D02*
Y535292D01*
X1788829Y525292D02*
X1790829D01*
X1789829Y524292D02*
Y526292D01*
X1788829Y516292D02*
X1790829D01*
X1789829Y515292D02*
Y517292D01*
X1788829Y507292D02*
X1790829D01*
X1789830Y506292D02*
Y508292D01*
X1788829Y498292D02*
X1790829D01*
X1789830Y497292D02*
Y499292D01*
X1788829Y489292D02*
X1790829D01*
X1789830Y488292D02*
Y490292D01*
X1788829Y480292D02*
X1790829D01*
X1789830Y479292D02*
Y481292D01*
X1788829Y471292D02*
X1790829D01*
X1789830Y470292D02*
Y472292D01*
X1788829Y462292D02*
X1790829D01*
X1789830Y461292D02*
Y463292D01*
X1788829Y453292D02*
X1790829D01*
X1789830Y452292D02*
Y454292D01*
X1788829Y444292D02*
X1790829D01*
X1789830Y443292D02*
Y445292D01*
X1788829Y435292D02*
X1790829D01*
X1789830Y434292D02*
Y436292D01*
X1788829Y426292D02*
X1790829D01*
X1789830Y425292D02*
Y427292D01*
X1788830Y417292D02*
X1790830D01*
X1789830Y416292D02*
Y418292D01*
X1788830Y408293D02*
X1790830D01*
X1789830Y407293D02*
Y409292D01*
X1788830Y399292D02*
X1790830D01*
X1789830Y398293D02*
Y400293D01*
X1788830Y390293D02*
X1790830D01*
X1789830Y389292D02*
Y391292D01*
X1788830Y381292D02*
X1790830D01*
X1789830Y380293D02*
Y382293D01*
X1788830Y372293D02*
X1790830D01*
X1789830Y371292D02*
Y373293D01*
X1788830Y363293D02*
X1790830D01*
X1789830Y362293D02*
Y364292D01*
X1788830Y354293D02*
X1790830D01*
X1789830Y353293D02*
Y355293D01*
X1788830Y345293D02*
X1790830D01*
X1789830Y344293D02*
Y346293D01*
X1788830Y336293D02*
X1790830D01*
X1789830Y335293D02*
Y337293D01*
X1788830Y327293D02*
X1790830D01*
X1789830Y326293D02*
Y328293D01*
X1788830Y318293D02*
X1790830D01*
X1789830Y317293D02*
Y319293D01*
X1788830Y309293D02*
X1790830D01*
X1789830Y308293D02*
Y310293D01*
X1788830Y300293D02*
X1790830D01*
X1789830Y299293D02*
Y301293D01*
X1788830Y291293D02*
X1790830D01*
X1789830Y290293D02*
Y292293D01*
X1788830Y282293D02*
X1790830D01*
X1789830Y281293D02*
Y283293D01*
X1788830Y273293D02*
X1790830D01*
X1789830Y272293D02*
Y274293D01*
X1788830Y264293D02*
X1790830D01*
X1789830Y263293D02*
Y265293D01*
X1788830Y255293D02*
X1790830D01*
X1789830Y254293D02*
Y256293D01*
X1788830Y246293D02*
X1790830D01*
X1789830Y245293D02*
Y247293D01*
X1788830Y237293D02*
X1790830D01*
X1789830Y236293D02*
Y238293D01*
X1788830Y228293D02*
X1790830D01*
X1789830Y227293D02*
Y229293D01*
X1788830Y219293D02*
X1790830D01*
X1789830Y218293D02*
Y220293D01*
X1788830Y210293D02*
X1790830D01*
X1789830Y209293D02*
Y211293D01*
X1788830Y201293D02*
X1790830D01*
X1789830Y200293D02*
Y202293D01*
X1788830Y192293D02*
X1790830D01*
X1789830Y191293D02*
Y193293D01*
X1788830Y183293D02*
X1790830D01*
X1789830Y182293D02*
Y184293D01*
X1788830Y174293D02*
X1790830D01*
X1789830Y173293D02*
Y175293D01*
X1788830Y165293D02*
X1790830D01*
X1789830Y164293D02*
Y166293D01*
X1788830Y156293D02*
X1790830D01*
X1789830Y155293D02*
Y157293D01*
X1788830Y147293D02*
X1790830D01*
X1789830Y146293D02*
Y148293D01*
X1788830Y138293D02*
X1790830D01*
X1789830Y137293D02*
Y139293D01*
X1788830Y129293D02*
X1790830D01*
X1789830Y128293D02*
Y130293D01*
X1788830Y120293D02*
X1790830D01*
X1789830Y119293D02*
Y121293D01*
X1788830Y111293D02*
X1790830D01*
X1789830Y110293D02*
Y112293D01*
X1788830Y102293D02*
X1790830D01*
X1789830Y101293D02*
Y103293D01*
X1788830Y93293D02*
X1790830D01*
X1789830Y92293D02*
Y94293D01*
X1788830Y84293D02*
X1790830D01*
X1789830Y83293D02*
Y85293D01*
X1788830Y75293D02*
X1790830D01*
X1789830Y74293D02*
Y76293D01*
X1788830Y66293D02*
X1790830D01*
X1789830Y65293D02*
Y67293D01*
X1788830Y57293D02*
X1790830D01*
X1789830Y56293D02*
Y58293D01*
X1788830Y48293D02*
X1790830D01*
X1789830Y47293D02*
Y49293D01*
X1788818Y39293D02*
X1790818D01*
X1789818Y38293D02*
Y40293D01*
X1787224Y30436D02*
X1789224D01*
X1788224Y29436D02*
Y31435D01*
X1783104Y22434D02*
X1785104D01*
X1784104Y21434D02*
Y23434D01*
X1776774Y16036D02*
X1778774D01*
X1777774Y15036D02*
Y17036D01*
X1768803Y11857D02*
X1770803D01*
X1769803Y10857D02*
Y12857D01*
X1759957Y10198D02*
X1761957D01*
X1760957Y9198D02*
Y11198D01*
X1750957Y10170D02*
X1752957D01*
X1751957Y9170D02*
Y11170D01*
X1741957Y10170D02*
X1743957D01*
X1742957Y9170D02*
Y11170D01*
X1732957Y10170D02*
X1734957D01*
X1733957Y9170D02*
Y11170D01*
X1723958Y10170D02*
X1725957D01*
X1724957Y9170D02*
Y11170D01*
X1716903Y15759D02*
X1718903D01*
X1717903Y14759D02*
Y16759D01*
X1708768Y19609D02*
X1710768D01*
X1709768Y18609D02*
Y20609D01*
X1699786Y20170D02*
X1701786D01*
X1700786Y19170D02*
Y21170D01*
X1690786Y20170D02*
X1692786D01*
X1691786Y19170D02*
Y21170D01*
X1681786Y20170D02*
X1683786D01*
X1682786Y19170D02*
Y21170D01*
X1672786Y20170D02*
X1674786D01*
X1673786Y19170D02*
Y21170D01*
X1663786Y20170D02*
X1665786D01*
X1664786Y19170D02*
Y21170D01*
X1654786Y20170D02*
X1656786D01*
X1655786Y19170D02*
Y21170D01*
X1645786Y20170D02*
X1647786D01*
X1646786Y19170D02*
Y21170D01*
X1636786Y20170D02*
X1638786D01*
X1637786Y19170D02*
Y21170D01*
X1627786Y20170D02*
X1629786D01*
X1628786Y19170D02*
Y21170D01*
X1618786Y20170D02*
X1620786D01*
X1619786Y19170D02*
Y21170D01*
X1609786Y20170D02*
X1611786D01*
X1610786Y19170D02*
Y21170D01*
X1600786Y20170D02*
X1602786D01*
X1601786Y19170D02*
Y21170D01*
X1591786Y20170D02*
X1593786D01*
X1592786Y19170D02*
Y21170D01*
X1582786Y20170D02*
X1584786D01*
X1583786Y19170D02*
Y21170D01*
X1573786Y20170D02*
X1575786D01*
X1574786Y19170D02*
Y21170D01*
X1564786Y20170D02*
X1566786D01*
X1565786Y19170D02*
Y21170D01*
X1555786Y20170D02*
X1557786D01*
X1556786Y19170D02*
Y21170D01*
X1546786Y20170D02*
X1548786D01*
X1547786Y19170D02*
Y21170D01*
X1537786Y20170D02*
X1539786D01*
X1538786Y19170D02*
Y21170D01*
X1528786Y20170D02*
X1530786D01*
X1529786Y19170D02*
Y21170D01*
X1519786Y20170D02*
X1521786D01*
X1520786Y19170D02*
Y21170D01*
X1510786Y20170D02*
X1512786D01*
X1511786Y19170D02*
Y21170D01*
X1501786Y20170D02*
X1503786D01*
X1502786Y19170D02*
Y21170D01*
X1492786Y20170D02*
X1494786D01*
X1493786Y19170D02*
Y21170D01*
X1483786Y20170D02*
X1485786D01*
X1484786Y19170D02*
Y21170D01*
X1474786Y20170D02*
X1476786D01*
X1475786Y19170D02*
Y21170D01*
X1465786Y20170D02*
X1467786D01*
X1466786Y19170D02*
Y21170D01*
X1456786Y20170D02*
X1458786D01*
X1457786Y19170D02*
Y21170D01*
X1447786Y20170D02*
X1449786D01*
X1448786Y19170D02*
Y21170D01*
X1438786Y20170D02*
X1440786D01*
X1439786Y19170D02*
Y21170D01*
X1429786Y20170D02*
X1431786D01*
X1430786Y19170D02*
Y21170D01*
X1420786Y20170D02*
X1422786D01*
X1421786Y19170D02*
Y21170D01*
X1411786Y20170D02*
X1413786D01*
X1412787Y19170D02*
Y21170D01*
X1402787Y20170D02*
X1404787D01*
X1403786Y19170D02*
Y21170D01*
X1393786Y20170D02*
X1395786D01*
X1394787Y19170D02*
Y21170D01*
X1384787Y20170D02*
X1386786D01*
X1385786Y19170D02*
Y21170D01*
X1375786Y20170D02*
X1377787D01*
X1376786Y19170D02*
Y21170D01*
X1366786Y20170D02*
X1368786D01*
X1367787Y19170D02*
Y21170D01*
X1357787Y20170D02*
X1359787D01*
X1358787Y19170D02*
Y21170D01*
X1348787Y20170D02*
X1350787D01*
X1349787Y19170D02*
Y21170D01*
X1339787Y20170D02*
X1341787D01*
X1340787Y19170D02*
Y21170D01*
X1330787Y20170D02*
X1332787D01*
X1331787Y19170D02*
Y21170D01*
X1321787Y20170D02*
X1323787D01*
X1322787Y19170D02*
Y21170D01*
X1312787Y20170D02*
X1314787D01*
X1313787Y19170D02*
Y21170D01*
X1303787Y20170D02*
X1305787D01*
X1304787Y19170D02*
Y21170D01*
X1294787Y20170D02*
X1296787D01*
X1295787Y19170D02*
Y21170D01*
X1285787Y20170D02*
X1287787D01*
X1286787Y19170D02*
Y21170D01*
X1276787Y20170D02*
X1278787D01*
X1277787Y19170D02*
Y21170D01*
X1267787Y20170D02*
X1269787D01*
X1268787Y19170D02*
Y21170D01*
X1258787Y20170D02*
X1260787D01*
X1259787Y19170D02*
Y21170D01*
X1249787Y20170D02*
X1251787D01*
X1250787Y19170D02*
Y21170D01*
X1240787Y20170D02*
X1242787D01*
X1241787Y19170D02*
Y21170D01*
X1231787Y20170D02*
X1233787D01*
X1232787Y19170D02*
Y21170D01*
X1222787Y20170D02*
X1224787D01*
X1223787Y19170D02*
Y21170D01*
X1213787Y20170D02*
X1215787D01*
X1214787Y19170D02*
Y21170D01*
X1204787Y20170D02*
X1206787D01*
X1205787Y19170D02*
Y21170D01*
X1195787Y20170D02*
X1197787D01*
X1196787Y19170D02*
Y21170D01*
X1186787Y20170D02*
X1188787D01*
X1187787Y19170D02*
Y21170D01*
X1177787Y20170D02*
X1179787D01*
X1178787Y19170D02*
Y21170D01*
X1168787Y20170D02*
X1170787D01*
X1169787Y19170D02*
Y21170D01*
X1159787Y20170D02*
X1161787D01*
X1160787Y19170D02*
Y21170D01*
X1150787Y20170D02*
X1152787D01*
X1151787Y19170D02*
Y21170D01*
X1141787Y20170D02*
X1143787D01*
X1142787Y19170D02*
Y21170D01*
X1132787Y20170D02*
X1134787D01*
X1133787Y19170D02*
Y21170D01*
X1123787Y20170D02*
X1125787D01*
X1124787Y19170D02*
Y21170D01*
X1114787Y20170D02*
X1116787D01*
X1115787Y19170D02*
Y21170D01*
X1105787Y20170D02*
X1107787D01*
X1106787Y19170D02*
Y21170D01*
X1096787Y20170D02*
X1098787D01*
X1097787Y19170D02*
Y21170D01*
X1087787Y20170D02*
X1089787D01*
X1088787Y19170D02*
Y21170D01*
X1078787Y20170D02*
X1080787D01*
X1079787Y19170D02*
Y21170D01*
X1069787Y20170D02*
X1071787D01*
X1070787Y19170D02*
Y21170D01*
X1060787Y20170D02*
X1062787D01*
X1061787Y19170D02*
Y21170D01*
X1051787Y20170D02*
X1053787D01*
X1052787Y19170D02*
Y21170D01*
X1042787Y20170D02*
X1044787D01*
X1043787Y19170D02*
Y21170D01*
X1033787Y20170D02*
X1035787D01*
X1034787Y19170D02*
Y21170D01*
X1024787Y20170D02*
X1026787D01*
X1025787Y19170D02*
Y21170D01*
X1015787Y20170D02*
X1017787D01*
X1016787Y19170D02*
Y21170D01*
X1006787Y20170D02*
X1008787D01*
X1007787Y19170D02*
Y21170D01*
X997787Y20170D02*
X999787D01*
X998787Y19170D02*
Y21170D01*
X988787Y20170D02*
X990787D01*
X989787Y19170D02*
Y21170D01*
X979787Y20170D02*
X981787D01*
X980787Y19170D02*
Y21170D01*
X970787Y20170D02*
X972787D01*
X971787Y19170D02*
Y21170D01*
X961787Y20170D02*
X963787D01*
X962787Y19170D02*
Y21170D01*
X952787Y20170D02*
X954787D01*
X953787Y19170D02*
Y21170D01*
X943787Y20170D02*
X945787D01*
X944787Y19170D02*
Y21170D01*
X934787Y20170D02*
X936787D01*
X935787Y19170D02*
Y21170D01*
X925787Y20170D02*
X927787D01*
X926787Y19170D02*
Y21170D01*
X916787Y20170D02*
X918787D01*
X917787Y19170D02*
Y21170D01*
X907787Y20170D02*
X909788D01*
X908788Y19170D02*
Y21170D01*
X898788Y20170D02*
X900788D01*
X899788Y19170D02*
Y21170D01*
X889788Y20170D02*
X891787D01*
X890788Y19170D02*
Y21170D01*
X880788Y20170D02*
X882787D01*
X881787Y19170D02*
Y21170D01*
X871787Y20170D02*
X873788D01*
X872787Y19170D02*
Y21170D01*
X862788Y20170D02*
X864788D01*
X863788Y19170D02*
Y21170D01*
X853788Y20170D02*
X855788D01*
X854788Y19170D02*
Y21170D01*
X844788Y20170D02*
X846788D01*
X845788Y19170D02*
Y21170D01*
X835788Y20170D02*
X837788D01*
X836788Y19170D02*
Y21170D01*
X826788Y20170D02*
X828788D01*
X827788Y19170D02*
Y21170D01*
X817788Y20170D02*
X819788D01*
X818788Y19170D02*
Y21170D01*
X808788Y20170D02*
X810788D01*
X809788Y19170D02*
Y21170D01*
X799788Y20170D02*
X801788D01*
X800788Y19170D02*
Y21170D01*
X790788Y20170D02*
X792788D01*
X791788Y19170D02*
Y21170D01*
X781788Y20170D02*
X783788D01*
X782788Y19170D02*
Y21170D01*
X772788Y20170D02*
X774788D01*
X773788Y19170D02*
Y21170D01*
X763788Y20170D02*
X765788D01*
X764788Y19170D02*
Y21170D01*
X754788Y20170D02*
X756788D01*
X755788Y19170D02*
Y21170D01*
X745788Y20170D02*
X747788D01*
X746788Y19170D02*
Y21170D01*
X736788Y20170D02*
X738788D01*
X737788Y19170D02*
Y21170D01*
X727788Y20170D02*
X729788D01*
X728788Y19170D02*
Y21170D01*
X718788Y20170D02*
X720788D01*
X719788Y19170D02*
Y21170D01*
X709788Y20170D02*
X711788D01*
X710788Y19170D02*
Y21170D01*
X700788Y20170D02*
X702788D01*
X701788Y19170D02*
Y21170D01*
X691788Y20170D02*
X693788D01*
X692788Y19170D02*
Y21170D01*
X682788Y20170D02*
X684788D01*
X683788Y19170D02*
Y21170D01*
X673788Y20170D02*
X675788D01*
X674788Y19170D02*
Y21170D01*
X664788Y20170D02*
X666788D01*
X665788Y19170D02*
Y21170D01*
X655788Y20170D02*
X657788D01*
X656788Y19170D02*
Y21170D01*
X646788Y20170D02*
X648788D01*
X647788Y19170D02*
Y21170D01*
X637788Y20170D02*
X639788D01*
X638788Y19170D02*
Y21170D01*
X628788Y20170D02*
X630788D01*
X629788Y19170D02*
Y21170D01*
X619788Y20170D02*
X621788D01*
X620788Y19170D02*
Y21170D01*
X610788Y20170D02*
X612788D01*
X611788Y19170D02*
Y21170D01*
X601788Y20170D02*
X603788D01*
X602788Y19170D02*
Y21170D01*
X592788Y20170D02*
X594788D01*
X593788Y19170D02*
Y21170D01*
X583788Y20170D02*
X585788D01*
X584788Y19170D02*
Y21170D01*
X574788Y20170D02*
X576788D01*
X575788Y19170D02*
Y21170D01*
X565788Y20170D02*
X567788D01*
X566788Y19170D02*
Y21170D01*
X556788Y20170D02*
X558788D01*
X557788Y19170D02*
Y21170D01*
X547788Y20170D02*
X549788D01*
X548788Y19170D02*
Y21170D01*
X538788Y20170D02*
X540788D01*
X539788Y19170D02*
Y21170D01*
X529788Y20170D02*
X531788D01*
X530788Y19170D02*
Y21170D01*
X520788Y20170D02*
X522788D01*
X521788Y19170D02*
Y21170D01*
X511788Y20170D02*
X513788D01*
X512788Y19170D02*
Y21170D01*
X502788Y20170D02*
X504788D01*
X503788Y19170D02*
Y21170D01*
X493788Y20170D02*
X495788D01*
X494788Y19170D02*
Y21170D01*
X484788Y20170D02*
X486788D01*
X485788Y19170D02*
Y21170D01*
X475788Y20170D02*
X477788D01*
X476788Y19170D02*
Y21170D01*
X466788Y20170D02*
X468788D01*
X467788Y19170D02*
Y21170D01*
X457788Y20170D02*
X459788D01*
X458788Y19170D02*
Y21170D01*
X448788Y20170D02*
X450788D01*
X449788Y19170D02*
Y21170D01*
X439788Y20170D02*
X441788D01*
X440788Y19170D02*
Y21170D01*
X430788Y20170D02*
X432788D01*
X431788Y19170D02*
Y21170D01*
X421788Y20170D02*
X423788D01*
X422788Y19170D02*
Y21170D01*
X412789Y20170D02*
X414789D01*
X413788Y19170D02*
Y21170D01*
X403788Y20170D02*
X405788D01*
X404789Y19170D02*
Y21170D01*
X394789Y20170D02*
X396788D01*
X395788Y19170D02*
Y21170D01*
X385788Y20170D02*
X387789D01*
X386788Y19170D02*
Y21170D01*
X376788Y20170D02*
X378788D01*
X377789Y19170D02*
Y21170D01*
X367789Y20170D02*
X369789D01*
X368788Y19170D02*
Y21170D01*
X358789Y20170D02*
X360789D01*
X359789Y19170D02*
Y21170D01*
X349789Y20170D02*
X351789D01*
X350789Y19170D02*
Y21170D01*
X340789Y20170D02*
X342789D01*
X341789Y19170D02*
Y21170D01*
X331789Y20170D02*
X333789D01*
X332789Y19170D02*
Y21170D01*
X322789Y20170D02*
X324789D01*
X323789Y19170D02*
Y21170D01*
X313789Y20170D02*
X315789D01*
X314789Y19170D02*
Y21170D01*
X304789Y20170D02*
X306789D01*
X305789Y19170D02*
Y21170D01*
X295789Y20170D02*
X297789D01*
X296789Y19170D02*
Y21170D01*
X286789Y20170D02*
X288789D01*
X287789Y19170D02*
Y21170D01*
X277789Y20170D02*
X279789D01*
X278789Y19170D02*
Y21170D01*
X268789Y20170D02*
X270789D01*
X269789Y19170D02*
Y21170D01*
X259789Y20170D02*
X261789D01*
X260789Y19170D02*
Y21170D01*
X250789Y20170D02*
X252789D01*
X251789Y19170D02*
Y21170D01*
X241789Y20170D02*
X243789D01*
X242789Y19170D02*
Y21170D01*
X232789Y20170D02*
X234789D01*
X233789Y19170D02*
Y21170D01*
X223789Y20170D02*
X225789D01*
X224789Y19170D02*
Y21170D01*
X214789Y20170D02*
X216789D01*
X215789Y19170D02*
Y21170D01*
X205789Y20170D02*
X207789D01*
X206789Y19170D02*
Y21170D01*
X196789Y20170D02*
X198789D01*
X197789Y19170D02*
Y21170D01*
X187789Y20170D02*
X189789D01*
X188789Y19170D02*
Y21170D01*
X178789Y20170D02*
X180789D01*
X179789Y19170D02*
Y21170D01*
X169789Y20170D02*
X171789D01*
X170789Y19170D02*
Y21170D01*
X160789Y20170D02*
X162789D01*
X161789Y19170D02*
Y21170D01*
X151789Y20170D02*
X153789D01*
X152789Y19170D02*
Y21170D01*
X142789Y20170D02*
X144789D01*
X143789Y19170D02*
Y21170D01*
X133789Y20170D02*
X135789D01*
X134789Y19170D02*
Y21170D01*
X124789Y20170D02*
X126789D01*
X125789Y19170D02*
Y21170D01*
X115789Y20170D02*
X117789D01*
X116789Y19170D02*
Y21170D01*
X106789Y20170D02*
X108789D01*
X107789Y19170D02*
Y21170D01*
X97789Y20170D02*
X99789D01*
X98789Y19170D02*
Y21170D01*
X88807Y19603D02*
X90807D01*
X89807Y18603D02*
Y20603D01*
X80679Y15739D02*
X82679D01*
X81679Y14739D02*
Y16739D01*
X73608Y10170D02*
X75609D01*
X74608Y9170D02*
Y11170D01*
X64608Y10170D02*
X66609D01*
X65609Y9170D02*
Y11170D01*
X55609Y10170D02*
X57608D01*
X56609Y9170D02*
Y11170D01*
X46609Y10170D02*
X48608D01*
X47608Y9170D02*
Y11170D01*
X37609Y10202D02*
X39609D01*
X38609Y9202D02*
Y11202D01*
X28769Y11891D02*
X30769D01*
X29769Y10891D02*
Y12891D01*
X20824Y16121D02*
X22824D01*
X21824Y15121D02*
Y17121D01*
X14593Y22614D02*
X16593D01*
X15593Y21614D02*
Y23614D01*
X10584Y30672D02*
X12584D01*
X11584Y29672D02*
Y31672D01*
X9166Y39560D02*
X11166D01*
X10166Y38560D02*
Y40560D01*
X9170Y48560D02*
X11170D01*
X10170Y47560D02*
Y49560D01*
X9170Y57560D02*
X11170D01*
X10170Y56560D02*
Y58560D01*
X9170Y66560D02*
X11170D01*
X10170Y65560D02*
Y67560D01*
X9170Y75560D02*
X11170D01*
X10170Y74560D02*
Y76560D01*
X9170Y84560D02*
X11170D01*
X10170Y83560D02*
Y85560D01*
X9170Y93560D02*
X11170D01*
X10170Y92560D02*
Y94560D01*
X9170Y102559D02*
X11170D01*
X10170Y101559D02*
Y103560D01*
X9170Y111559D02*
X11170D01*
X10170Y110560D02*
Y112559D01*
X9170Y120560D02*
X11170D01*
X10170Y119559D02*
Y121559D01*
X9170Y129559D02*
X11170D01*
X10170Y128560D02*
Y130560D01*
X9170Y138560D02*
X11170D01*
X10170Y137559D02*
Y139559D01*
X9170Y147559D02*
X11170D01*
X10170Y146559D02*
Y148559D01*
X9170Y156559D02*
X11170D01*
X10170Y155559D02*
Y157559D01*
X9170Y165559D02*
X11170D01*
X10170Y164559D02*
Y166559D01*
X9170Y174559D02*
X11170D01*
X10170Y173559D02*
Y175559D01*
X9170Y183559D02*
X11170D01*
X10170Y182559D02*
Y184559D01*
X9170Y192559D02*
X11170D01*
X10170Y191559D02*
Y193559D01*
X9170Y201559D02*
X11170D01*
X10170Y200559D02*
Y202559D01*
X9170Y210559D02*
X11170D01*
X10170Y209559D02*
Y211559D01*
X9170Y219559D02*
X11170D01*
X10170Y218559D02*
Y220559D01*
X9170Y228559D02*
X11170D01*
X10170Y227559D02*
Y229559D01*
X9170Y237559D02*
X11170D01*
X10170Y236559D02*
Y238559D01*
X9170Y246559D02*
X11170D01*
X10170Y245559D02*
Y247559D01*
X9170Y255559D02*
X11170D01*
X10170Y254559D02*
Y256559D01*
X9170Y264559D02*
X11170D01*
X10170Y263559D02*
Y265559D01*
X9170Y273559D02*
X11170D01*
X10170Y272559D02*
Y274559D01*
X9170Y282559D02*
X11170D01*
X10170Y281559D02*
Y283559D01*
X9170Y291559D02*
X11170D01*
X10170Y290559D02*
Y292559D01*
X9170Y300559D02*
X11170D01*
X10170Y299559D02*
Y301559D01*
X9170Y309559D02*
X11170D01*
X10170Y308559D02*
Y310559D01*
X9170Y318559D02*
X11170D01*
X10170Y317559D02*
Y319559D01*
X9170Y327559D02*
X11170D01*
X10170Y326559D02*
Y328559D01*
X9170Y336559D02*
X11170D01*
X10170Y335559D02*
Y337559D01*
X9170Y345559D02*
X11170D01*
X10170Y344559D02*
Y346559D01*
X9170Y354559D02*
X11170D01*
X10170Y353559D02*
Y355559D01*
X9170Y363559D02*
X11170D01*
X10170Y362559D02*
Y364559D01*
X9170Y372559D02*
X11170D01*
X10170Y371559D02*
Y373559D01*
X9170Y381559D02*
X11170D01*
X10170Y380559D02*
Y382559D01*
X9170Y390559D02*
X11170D01*
X10170Y389559D02*
Y391559D01*
X9170Y399559D02*
X11170D01*
X10170Y398559D02*
Y400559D01*
X9170Y408559D02*
X11170D01*
X10170Y407559D02*
Y409559D01*
X9170Y417559D02*
X11170D01*
X10170Y416559D02*
Y418559D01*
X9170Y426559D02*
X11170D01*
X10170Y425559D02*
Y427559D01*
X9170Y435559D02*
X11170D01*
X10170Y434559D02*
Y436559D01*
X9170Y444559D02*
X11170D01*
X10170Y443559D02*
Y445559D01*
X9170Y453559D02*
X11170D01*
X10170Y452559D02*
Y454559D01*
X9170Y462559D02*
X11170D01*
X10170Y461559D02*
Y463559D01*
X9170Y471559D02*
X11170D01*
X10170Y470559D02*
Y472559D01*
X9170Y480559D02*
X11170D01*
X10170Y479559D02*
Y481559D01*
X9170Y489559D02*
X11170D01*
X10170Y488559D02*
Y490559D01*
X9170Y498559D02*
X11170D01*
X10170Y497559D02*
Y499559D01*
X9170Y507559D02*
X11170D01*
X10170Y506559D02*
Y508559D01*
X9170Y516559D02*
X11170D01*
X10170Y515559D02*
Y517559D01*
X9170Y525559D02*
X11170D01*
X10170Y524559D02*
Y526559D01*
X9170Y534559D02*
X11170D01*
X10170Y533559D02*
Y535559D01*
X9170Y543559D02*
X11170D01*
X10170Y542559D02*
Y544559D01*
X9170Y552559D02*
X11170D01*
X10170Y551559D02*
Y553559D01*
X9170Y561559D02*
X11170D01*
X10170Y560559D02*
Y562559D01*
X9170Y570559D02*
X11170D01*
X10170Y569559D02*
Y571559D01*
X9170Y579559D02*
X11170D01*
X10170Y578559D02*
Y580559D01*
X9170Y588559D02*
X11170D01*
X10170Y587559D02*
Y589559D01*
X9170Y597559D02*
X11170D01*
X10170Y596558D02*
Y598559D01*
X9170Y606558D02*
X11170D01*
X10170Y605559D02*
Y607559D01*
X9170Y615559D02*
X11170D01*
X10170Y614558D02*
Y616558D01*
X9170Y624558D02*
X11170D01*
X10170Y623559D02*
Y625559D01*
X9170Y633559D02*
X11170D01*
X10170Y632559D02*
Y634558D01*
X9170Y642559D02*
X11170D01*
X10170Y641559D02*
Y643559D01*
X9170Y651558D02*
X11170D01*
X10170Y650558D02*
Y652558D01*
X9170Y660558D02*
X11170D01*
X10170Y659558D02*
Y661558D01*
X9170Y669558D02*
X11170D01*
X10170Y668558D02*
Y670558D01*
X9170Y678558D02*
X11170D01*
X10170Y677558D02*
Y679558D01*
X9170Y687558D02*
X11170D01*
X10170Y686558D02*
Y688558D01*
X9170Y696558D02*
X11170D01*
X10170Y695558D02*
Y697558D01*
X9170Y705558D02*
X11170D01*
X10170Y704558D02*
Y706558D01*
X9170Y714558D02*
X11170D01*
X10170Y713558D02*
Y715558D01*
X9170Y723558D02*
X11170D01*
X10170Y722558D02*
Y724558D01*
X9170Y732558D02*
X11170D01*
X10170Y731558D02*
Y733558D01*
X9170Y741558D02*
X11170D01*
X10170Y740558D02*
Y742558D01*
X9170Y750558D02*
X11170D01*
X10170Y749558D02*
Y751558D01*
X9170Y759558D02*
X11170D01*
X10170Y758558D02*
Y760558D01*
X10406Y768473D02*
X12406D01*
X11406Y767473D02*
Y769473D01*
X14256Y776608D02*
X16256D01*
X15256Y775608D02*
Y777608D01*
X20322Y783257D02*
X22322D01*
X21322Y782256D02*
Y784257D01*
X28107Y787773D02*
X30107D01*
X29107Y786773D02*
Y788773D01*
X36892Y789726D02*
X38892D01*
X37892Y788726D02*
Y790726D01*
X45891Y789829D02*
X47892D01*
X46891Y788829D02*
Y790829D01*
X54892Y789829D02*
X56891D01*
X55891Y788829D02*
Y790829D01*
X63892Y789829D02*
X65891D01*
X64892Y788829D02*
Y790829D01*
X72892Y789829D02*
X74892D01*
X73892Y788829D02*
Y790829D01*
X80376Y784832D02*
X82376D01*
X81376Y783832D02*
Y785832D01*
X88322Y780605D02*
X90322D01*
X89322Y779605D02*
Y781605D01*
X97288Y779829D02*
X99288D01*
X98288Y778829D02*
Y780829D01*
X106288Y779829D02*
X108288D01*
X107288Y778829D02*
Y780829D01*
X115288Y779829D02*
X117288D01*
X116288Y778829D02*
Y780829D01*
X124288Y779829D02*
X126288D01*
X125288Y778829D02*
Y780829D01*
X133288Y779829D02*
X135288D01*
X134288Y778829D02*
Y780829D01*
X142288Y779829D02*
X144288D01*
X143288Y778829D02*
Y780829D01*
X151288Y779829D02*
X153288D01*
X152288Y778829D02*
Y780829D01*
X160288Y779829D02*
X162288D01*
X161288Y778829D02*
Y780829D01*
X169288Y779829D02*
X171288D01*
X170288Y778829D02*
Y780829D01*
X178288Y779829D02*
X180288D01*
X179288Y778829D02*
Y780829D01*
X187288Y779829D02*
X189288D01*
X188288Y778829D02*
Y780829D01*
X196288Y779829D02*
X198288D01*
X197288Y778829D02*
Y780829D01*
X205288Y779829D02*
X207288D01*
X206288Y778829D02*
Y780829D01*
X214288Y779829D02*
X216288D01*
X215288Y778829D02*
Y780829D01*
X223288Y779829D02*
X225288D01*
X224288Y778829D02*
Y780829D01*
X232288Y779829D02*
X234288D01*
X233288Y778829D02*
Y780829D01*
X241288Y779829D02*
X243288D01*
X242288Y778829D02*
Y780829D01*
X250288Y779829D02*
X252288D01*
X251288Y778829D02*
Y780829D01*
X259288Y779829D02*
X261288D01*
X260288Y778829D02*
Y780829D01*
X268288Y779829D02*
X270288D01*
X269288Y778829D02*
Y780829D01*
X277288Y779829D02*
X279288D01*
X278288Y778829D02*
Y780829D01*
X286288Y779829D02*
X288288D01*
X287288Y778829D02*
Y780829D01*
X295288Y779829D02*
X297288D01*
X296288Y778829D02*
Y780829D01*
X304288Y779829D02*
X306288D01*
X305288Y778829D02*
Y780829D01*
X313288Y779829D02*
X315288D01*
X314288Y778829D02*
Y780829D01*
X322288Y779829D02*
X324288D01*
X323288Y778829D02*
Y780829D01*
X331288Y779829D02*
X333288D01*
X332288Y778829D02*
Y780829D01*
X340288Y779829D02*
X342288D01*
X341288Y778829D02*
Y780829D01*
X349288Y779829D02*
X351288D01*
X350288Y778829D02*
Y780829D01*
X358288Y779829D02*
X360288D01*
X359288Y778829D02*
Y780829D01*
X367288Y779829D02*
X369288D01*
X368288Y778829D02*
Y780829D01*
X376288Y779829D02*
X378288D01*
X377288Y778829D02*
Y780829D01*
X385288Y779829D02*
X387288D01*
X386288Y778829D02*
Y780829D01*
X394288Y779829D02*
X396288D01*
X395288Y778829D02*
Y780829D01*
X403288Y779829D02*
X405288D01*
X404288Y778829D02*
Y780829D01*
X412288Y779829D02*
X414288D01*
X413288Y778829D02*
Y780829D01*
X421288Y779829D02*
X423288D01*
X422288Y778829D02*
Y780829D01*
X430288Y779829D02*
X432288D01*
X431288Y778829D02*
Y780829D01*
X439288Y779829D02*
X441288D01*
X440288Y778829D02*
Y780829D01*
X448288Y779829D02*
X450288D01*
X449288Y778829D02*
Y780829D01*
X457288Y779829D02*
X459288D01*
X458288Y778829D02*
Y780829D01*
X466288Y779829D02*
X468288D01*
X467288Y778829D02*
Y780829D01*
X475288Y779829D02*
X477288D01*
X476288Y778829D02*
Y780829D01*
X484288Y779829D02*
X486288D01*
X485288Y778829D02*
Y780829D01*
X493288Y779829D02*
X495288D01*
X494288Y778829D02*
Y780829D01*
X502288Y779829D02*
X504288D01*
X503288Y778829D02*
Y780829D01*
X511288Y779829D02*
X513288D01*
X512288Y778829D02*
Y780829D01*
X520288Y779829D02*
X522288D01*
X521288Y778829D02*
Y780829D01*
X529287Y779829D02*
X531287D01*
X530288Y778829D02*
Y780829D01*
X538288Y779829D02*
X540288D01*
X539287Y778829D02*
Y780829D01*
X547287Y779829D02*
X549287D01*
X548288Y778829D02*
Y780829D01*
X556287Y779829D02*
X558288D01*
X557287Y778829D02*
Y780829D01*
X565288Y779829D02*
X567287D01*
X566287Y778829D02*
Y780829D01*
X574287Y779829D02*
X576287D01*
X575287Y778829D02*
Y780829D01*
X583287Y779829D02*
X585287D01*
X584287Y778829D02*
Y780829D01*
X592287Y779829D02*
X594287D01*
X593287Y778829D02*
Y780829D01*
X601287Y779829D02*
X603287D01*
X602287Y778829D02*
Y780829D01*
X610287Y779829D02*
X612287D01*
X611287Y778829D02*
Y780829D01*
X619287Y779829D02*
X621287D01*
X620287Y778829D02*
Y780829D01*
X628287Y779829D02*
X630287D01*
X629287Y778829D02*
Y780829D01*
X637287Y779829D02*
X639287D01*
X638287Y778829D02*
Y780829D01*
X646287Y779829D02*
X648287D01*
X647287Y778829D02*
Y780829D01*
X655287Y779829D02*
X657287D01*
X656287Y778829D02*
Y780829D01*
X664287Y779829D02*
X666287D01*
X665287Y778829D02*
Y780829D01*
X673287Y779829D02*
X675287D01*
X674287Y778829D02*
Y780829D01*
X682287Y779829D02*
X684287D01*
X683287Y778829D02*
Y780829D01*
X691287Y779829D02*
X693287D01*
X692287Y778829D02*
Y780829D01*
X700287Y779829D02*
X702287D01*
X701287Y778829D02*
Y780829D01*
X709287Y779829D02*
X711287D01*
X710287Y778829D02*
Y780829D01*
X718287Y779829D02*
X720287D01*
X719287Y778829D02*
Y780829D01*
X727287Y779829D02*
X729287D01*
X728287Y778829D02*
Y780829D01*
X736287Y779829D02*
X738287D01*
X737287Y778829D02*
Y780829D01*
X745287Y779829D02*
X747287D01*
X746287Y778829D02*
Y780829D01*
X754287Y779829D02*
X756287D01*
X755287Y778829D02*
Y780829D01*
X763287Y779829D02*
X765287D01*
X764287Y778829D02*
Y780829D01*
X772287Y779829D02*
X774287D01*
X773287Y778829D02*
Y780829D01*
X781287Y779829D02*
X783287D01*
X782287Y778829D02*
Y780829D01*
X790287Y779829D02*
X792287D01*
X791287Y778829D02*
Y780829D01*
X799287Y779829D02*
X801287D01*
X800287Y778829D02*
Y780829D01*
X808287Y779829D02*
X810287D01*
X809287Y778829D02*
Y780829D01*
X817287Y779829D02*
X819287D01*
X818287Y778829D02*
Y780829D01*
X826287Y779829D02*
X828287D01*
X827287Y778829D02*
Y780829D01*
X835287Y779829D02*
X837287D01*
X836287Y778829D02*
Y780829D01*
X844287Y779829D02*
X846287D01*
X845287Y778829D02*
Y780829D01*
X853287Y779829D02*
X855287D01*
X854287Y778829D02*
Y780829D01*
X862287Y779829D02*
X864287D01*
X863287Y778829D02*
Y780829D01*
X871287Y779829D02*
X873287D01*
X872287Y778829D02*
Y780829D01*
X880287Y779829D02*
X882287D01*
X881287Y778829D02*
Y780829D01*
X889287Y779829D02*
X891287D01*
X890287Y778829D02*
Y780829D01*
X898287Y779829D02*
X900287D01*
X899287Y778829D02*
Y780829D01*
X907287Y779829D02*
X909287D01*
X908287Y778829D02*
Y780829D01*
X916287Y779829D02*
X918287D01*
X917287Y778829D02*
Y780829D01*
X925287Y779829D02*
X927287D01*
X926287Y778829D02*
Y780829D01*
X934287Y779829D02*
X936287D01*
X935287Y778829D02*
Y780829D01*
X943287Y779829D02*
X945287D01*
X944287Y778829D02*
Y780829D01*
X952287Y779829D02*
X954287D01*
X953287Y778829D02*
Y780829D01*
X961287Y779829D02*
X963287D01*
X962287Y778829D02*
Y780829D01*
X970287Y779829D02*
X972287D01*
X971287Y778829D02*
Y780829D01*
X979287Y779829D02*
X981287D01*
X980287Y778829D02*
Y780829D01*
X988287Y779829D02*
X990287D01*
X989287Y778829D02*
Y780829D01*
X997287Y779829D02*
X999287D01*
X998287Y778829D02*
Y780829D01*
X1006287Y779829D02*
X1008287D01*
X1007287Y778829D02*
Y780829D01*
X1015287Y779829D02*
X1017287D01*
X1016287Y778829D02*
Y780829D01*
X1024286Y779829D02*
X1026286D01*
X1025286Y778829D02*
Y780829D01*
X1033287Y779829D02*
X1035286D01*
X1034286Y778829D02*
Y780829D01*
X1042287Y779829D02*
X1044286D01*
X1043287Y778829D02*
Y780829D01*
X1051286Y779829D02*
X1053287D01*
X1052287Y778829D02*
Y780829D01*
X1060286Y779829D02*
X1062287D01*
X1061286Y778829D02*
Y780829D01*
X1069286Y779829D02*
X1071286D01*
X1070286Y778829D02*
Y780829D01*
X1078286Y779829D02*
X1080286D01*
X1079286Y778829D02*
Y780829D01*
X1087286Y779829D02*
X1089286D01*
X1088286Y778829D02*
Y780829D01*
X1096286Y779829D02*
X1098286D01*
X1097286Y778829D02*
Y780829D01*
X1105286Y779829D02*
X1107286D01*
X1106286Y778829D02*
Y780829D01*
X1114286Y779829D02*
X1116286D01*
X1115286Y778829D02*
Y780829D01*
X1123286Y779829D02*
X1125286D01*
X1124286Y778829D02*
Y780829D01*
X1132286Y779829D02*
X1134286D01*
X1133286Y778829D02*
Y780829D01*
X1141286Y779829D02*
X1143286D01*
X1142286Y778829D02*
Y780829D01*
X1150286Y779829D02*
X1152286D01*
X1151286Y778829D02*
Y780829D01*
X1159286Y779829D02*
X1161286D01*
X1160286Y778829D02*
Y780829D01*
X1168286Y779829D02*
X1170286D01*
X1169286Y778829D02*
Y780829D01*
X1177286Y779829D02*
X1179286D01*
X1178286Y778829D02*
Y780829D01*
X1186286Y779829D02*
X1188286D01*
X1187286Y778829D02*
Y780829D01*
X1195286Y779829D02*
X1197286D01*
X1196286Y778829D02*
Y780829D01*
X1204286Y779829D02*
X1206286D01*
X1205286Y778829D02*
Y780829D01*
X1213286Y779829D02*
X1215286D01*
X1214286Y778829D02*
Y780829D01*
X1222286Y779829D02*
X1224286D01*
X1223286Y778829D02*
Y780829D01*
X1231286Y779829D02*
X1233286D01*
X1232286Y778829D02*
Y780829D01*
X1240286Y779829D02*
X1242286D01*
X1241286Y778829D02*
Y780829D01*
X1249286Y779829D02*
X1251286D01*
X1250286Y778829D02*
Y780829D01*
X1258286Y779829D02*
X1260286D01*
X1259286Y778829D02*
Y780829D01*
X1267286Y779829D02*
X1269286D01*
X1268286Y778829D02*
Y780829D01*
X1276286Y779829D02*
X1278286D01*
X1277286Y778829D02*
Y780829D01*
X1285286Y779829D02*
X1287286D01*
X1286286Y778829D02*
Y780829D01*
X1294286Y779829D02*
X1296286D01*
X1295286Y778829D02*
Y780829D01*
X1303286Y779829D02*
X1305286D01*
X1304286Y778829D02*
Y780829D01*
X1312286Y779829D02*
X1314286D01*
X1313286Y778829D02*
Y780829D01*
X1321286Y779829D02*
X1323286D01*
X1322286Y778829D02*
Y780829D01*
X1330286Y779829D02*
X1332286D01*
X1331286Y778829D02*
Y780829D01*
X1339286Y779829D02*
X1341286D01*
X1340286Y778829D02*
Y780829D01*
X1348286Y779829D02*
X1350286D01*
X1349286Y778829D02*
Y780829D01*
X1357286Y779829D02*
X1359286D01*
X1358286Y778829D02*
Y780829D01*
X1366286Y779829D02*
X1368286D01*
X1367286Y778829D02*
Y780829D01*
X1375286Y779829D02*
X1377286D01*
X1376286Y778829D02*
Y780829D01*
X1384286Y779829D02*
X1386286D01*
X1385286Y778829D02*
Y780829D01*
X1393286Y779829D02*
X1395286D01*
X1394286Y778829D02*
Y780829D01*
X1402286Y779829D02*
X1404286D01*
X1403286Y778829D02*
Y780829D01*
X1411286Y779829D02*
X1413286D01*
X1412286Y778829D02*
Y780829D01*
X1420286Y779829D02*
X1422286D01*
X1421286Y778829D02*
Y780829D01*
X1429286Y779829D02*
X1431286D01*
X1430286Y778829D02*
Y780829D01*
X1438286Y779829D02*
X1440286D01*
X1439286Y778829D02*
Y780829D01*
X1447286Y779829D02*
X1449286D01*
X1448286Y778829D02*
Y780829D01*
X1456286Y779829D02*
X1458286D01*
X1457286Y778829D02*
Y780829D01*
X1465286Y779829D02*
X1467286D01*
X1466286Y778829D02*
Y780829D01*
X1474286Y779829D02*
X1476286D01*
X1475286Y778829D02*
Y780829D01*
X1483286Y779829D02*
X1485286D01*
X1484286Y778829D02*
Y780829D01*
X1492286Y779829D02*
X1494286D01*
X1493286Y778829D02*
Y780829D01*
X1501286Y779829D02*
X1503286D01*
X1502286Y778829D02*
Y780829D01*
X1510286Y779829D02*
X1512286D01*
X1511286Y778829D02*
Y780829D01*
X1519286Y779829D02*
X1521286D01*
X1520286Y778829D02*
Y780829D01*
X1528286Y779829D02*
X1530285D01*
X1529285Y778829D02*
Y780829D01*
X1537285Y779829D02*
X1539285D01*
X1538286Y778829D02*
Y780829D01*
X1546286Y779829D02*
X1548286D01*
X1547285Y778829D02*
Y780829D01*
X1555285Y779829D02*
X1557285D01*
X1556286Y778829D02*
Y780829D01*
X1564285Y779829D02*
X1566286D01*
X1565285Y778829D02*
Y780829D01*
X1573285Y779829D02*
X1575285D01*
X1574285Y778829D02*
Y780829D01*
X1582285Y779829D02*
X1584285D01*
X1583285Y778829D02*
Y780829D01*
X1591285Y779829D02*
X1593285D01*
X1592285Y778829D02*
Y780829D01*
X1600285Y779829D02*
X1602285D01*
X1601285Y778829D02*
Y780829D01*
X1609285Y779829D02*
X1611285D01*
X1610285Y778829D02*
Y780829D01*
X1618285Y779829D02*
X1620285D01*
X1619285Y778829D02*
Y780829D01*
X1627285Y779829D02*
X1629285D01*
X1628285Y778829D02*
Y780829D01*
X1636285Y779829D02*
X1638285D01*
X1637285Y778829D02*
Y780829D01*
X1645285Y779829D02*
X1647285D01*
X1646285Y778829D02*
Y780829D01*
X1654285Y779829D02*
X1656285D01*
X1655285Y778829D02*
Y780829D01*
X1663285Y779829D02*
X1665285D01*
X1664285Y778829D02*
Y780829D01*
X1672285Y779829D02*
X1674285D01*
X1673285Y778829D02*
Y780829D01*
X1681285Y779829D02*
X1683285D01*
X1682285Y778829D02*
Y780829D01*
X1690285Y779829D02*
X1692285D01*
X1691285Y778829D02*
Y780829D01*
X1699285Y779829D02*
X1701285D01*
X1700285Y778829D02*
Y780829D01*
X1708277Y780214D02*
X1710277D01*
X1709277Y779214D02*
Y781214D01*
X1716579Y783690D02*
X1718578D01*
X1717578Y782690D02*
Y784690D01*
X1723160Y789829D02*
X1725160D01*
X1724160Y788829D02*
Y790829D01*
X1732160Y789829D02*
X1734160D01*
X1733160Y788829D02*
Y790829D01*
X1741160Y789829D02*
X1743160D01*
X1742160Y788829D02*
Y790829D01*
X1750160Y789829D02*
X1752160D01*
X1751160Y788829D02*
Y790829D01*
X1759160Y789854D02*
X1761160D01*
X1760160Y788854D02*
Y790854D01*
X566988Y465154D02*
X568988D01*
X567988Y464154D02*
Y466154D01*
X580137Y465154D02*
X582137D01*
X581137Y464154D02*
Y466154D01*
X625364Y447881D02*
X627364D01*
X626364Y446881D02*
Y448881D01*
X638732Y440702D02*
X640732D01*
X639732Y439702D02*
Y441702D01*
X638794Y448461D02*
X640794D01*
X639794Y447461D02*
Y449461D01*
X639087Y454244D02*
X641087D01*
X640087Y453244D02*
Y455244D01*
X635517Y474247D02*
X637517D01*
X636517Y473247D02*
Y475247D01*
X652154Y466501D02*
X654154D01*
X653154Y465501D02*
Y467501D01*
X651912Y461076D02*
X653912D01*
X652912Y460076D02*
Y462076D01*
X651733Y453806D02*
X653733D01*
X652733Y452806D02*
Y454806D01*
X618796Y515932D02*
X620796D01*
X619796Y514932D02*
Y516932D01*
X576209Y523222D02*
X578209D01*
X577209Y522222D02*
Y524222D01*
X658267Y447621D02*
X660267D01*
X659267Y446621D02*
Y448621D01*
X658621Y460871D02*
X660621D01*
X659621Y459871D02*
Y461871D01*
X664172Y486709D02*
X666172D01*
X665172Y485709D02*
Y487709D01*
X658079Y486686D02*
X660079D01*
X659079Y485686D02*
Y487686D01*
X671628Y487090D02*
X673627D01*
X672627Y486090D02*
Y488090D01*
X658371Y480371D02*
X660371D01*
X659371Y479371D02*
Y481371D01*
X648621Y494371D02*
X650621D01*
X649621Y493371D02*
Y495371D01*
X658374Y473974D02*
X660374D01*
X659374Y472974D02*
Y474974D01*
X605880Y421875D02*
X607880D01*
X606880Y420875D02*
Y422875D01*
X619140Y421640D02*
X621140D01*
X620140Y420640D02*
Y422640D01*
X599112Y431621D02*
X601112D01*
X600112Y430621D02*
Y432621D01*
X606162Y428290D02*
X608162D01*
X607162Y427290D02*
Y429291D01*
X612944Y434798D02*
X614944D01*
X613944Y433798D02*
Y435798D01*
X823621Y334371D02*
X825621D01*
X824621Y333371D02*
Y335371D01*
X821121Y324621D02*
X823121D01*
X822121Y323621D02*
Y325621D01*
X823771Y320381D02*
X825771D01*
X824771Y319381D02*
Y321381D01*
X665371Y445141D02*
X667371D01*
X666371Y444141D02*
Y446141D01*
X655046Y371371D02*
X657046D01*
X656046Y370371D02*
Y372371D01*
X654957Y384505D02*
X656957D01*
X655957Y383505D02*
Y385505D01*
X67575Y405066D02*
X69575D01*
X68575Y404066D02*
Y406066D01*
X68412Y505074D02*
X70412D01*
X69412Y504074D02*
Y506074D01*
X677644Y422057D02*
X679644D01*
X678644Y421057D02*
Y423057D01*
X757650Y300673D02*
X759650D01*
X758650Y299673D02*
Y301673D01*
X747892Y312520D02*
X749892D01*
X748892Y311520D02*
Y313520D01*
X641409Y402371D02*
X643409D01*
X642409Y401371D02*
Y403371D01*
X709121Y405621D02*
X711121D01*
X710121Y404621D02*
Y406621D01*
X671338Y389413D02*
X673338D01*
X672338Y388413D02*
Y390413D01*
X674903Y385294D02*
X676903D01*
X675903Y384294D02*
Y386294D01*
X697599Y371035D02*
X699599D01*
X698599Y370035D02*
Y372035D01*
X697536Y376260D02*
X699536D01*
X698536Y375260D02*
Y377260D01*
X697066Y396252D02*
X699066D01*
X698066Y395252D02*
Y397252D01*
X697066Y389204D02*
X699066D01*
X698066Y388204D02*
Y390204D01*
X711813Y385576D02*
X713813D01*
X712813Y384576D02*
Y386576D01*
X747621Y304621D02*
X749621D01*
X748621Y303621D02*
Y305621D01*
X823771Y328861D02*
X825771D01*
X824771Y327861D02*
Y329861D01*
X805621Y308621D02*
X807621D01*
X806621Y307621D02*
Y309621D01*
X813621Y316621D02*
X815621D01*
X814621Y315621D02*
Y317621D01*
X823727Y304591D02*
X825727D01*
X824727Y303591D02*
Y305591D01*
X823657Y312633D02*
X825657D01*
X824657Y311633D02*
Y313633D01*
X757621Y260621D02*
X759621D01*
X758621Y259621D02*
Y261621D01*
X564316Y425073D02*
X566316D01*
X565316Y424073D02*
Y426073D01*
X580783Y414919D02*
X582783D01*
X581783Y413919D02*
Y415919D01*
X577067Y425148D02*
X579067D01*
X578067Y424148D02*
Y426148D01*
X581322Y430821D02*
X583322D01*
X582322Y429821D02*
Y431821D01*
X586371Y431621D02*
X588371D01*
X587371Y430621D02*
Y432621D01*
X695974Y406504D02*
X697974D01*
X696974Y405504D02*
Y407504D01*
X691371Y444765D02*
X693371D01*
X692371Y443765D02*
Y445765D01*
X671871Y431446D02*
X673871D01*
X672871Y430446D02*
Y432446D01*
X707621Y425375D02*
X709621D01*
X708621Y424375D02*
Y426375D01*
X689621Y431446D02*
X691621D01*
X690621Y430446D02*
Y432446D01*
X684611Y431621D02*
X686611D01*
X685611Y430621D02*
Y432621D01*
X704237Y444785D02*
X706237D01*
X705237Y443784D02*
Y445784D01*
X691361Y483621D02*
X693361D01*
X692361Y482621D02*
Y484621D01*
X704371Y483476D02*
X706371D01*
X705371Y482476D02*
Y484476D01*
X674394Y500561D02*
X676394D01*
X675394Y499561D02*
Y501561D01*
X674942Y514817D02*
X676942D01*
X675942Y513817D02*
Y515817D01*
X645235Y395871D02*
X647234D01*
X646235Y394871D02*
Y396871D01*
X645235Y389371D02*
X647234D01*
X646235Y388371D02*
Y390371D01*
X652381Y408883D02*
X654381D01*
X653381Y407883D02*
Y409883D01*
X622875Y395905D02*
X624875D01*
X623875Y394905D02*
Y396905D01*
X615855Y375871D02*
X617855D01*
X616855Y374871D02*
Y376871D01*
X615855Y388940D02*
X617855D01*
X616855Y387940D02*
Y389940D01*
X622895Y408337D02*
X624895D01*
X623895Y407337D02*
Y409337D01*
X596621Y375871D02*
X598621D01*
X597621Y374871D02*
Y376871D01*
X596621Y388871D02*
X598621D01*
X597621Y387871D02*
Y389871D01*
X635621Y413182D02*
X637621D01*
X636621Y412182D02*
Y414182D01*
X674621Y372371D02*
X676621D01*
X675621Y371371D02*
Y373371D01*
X566818Y405766D02*
X568818D01*
X567818Y404766D02*
Y406766D01*
X616161Y500371D02*
X618161D01*
X617161Y499371D02*
Y501371D01*
X586631Y457621D02*
X588631D01*
X587631Y456621D02*
Y458621D01*
X599371Y457621D02*
X601371D01*
X600371Y456621D02*
Y458621D01*
X581621Y457621D02*
X583621D01*
X582621Y456621D02*
Y458621D01*
X593390Y473559D02*
X595390D01*
X594390Y472560D02*
Y474560D01*
X593229Y480649D02*
X595229D01*
X594229Y479649D02*
Y481649D01*
X619068Y493145D02*
X621068D01*
X620068Y492145D02*
Y494145D01*
X625760Y461121D02*
X627760D01*
X626759Y460121D02*
Y462121D01*
X579977Y444694D02*
X581977D01*
X580977Y443694D02*
Y445694D01*
X757881Y324621D02*
X759881D01*
X758881Y323621D02*
Y325621D01*
X747621Y328621D02*
X749621D01*
X748621Y327621D02*
Y329621D01*
X747621Y320621D02*
X749621D01*
X748621Y319621D02*
Y321621D01*
X684371Y389629D02*
X686371D01*
X685371Y388629D02*
Y390629D01*
X664264Y396026D02*
X666264D01*
X665264Y395026D02*
Y397026D01*
X671284Y395805D02*
X673284D01*
X672284Y394805D02*
Y396805D01*
X619375Y441146D02*
X621375D01*
X620375Y440146D02*
Y442146D01*
X599871Y421871D02*
X601871D01*
X600871Y420871D02*
Y422871D01*
X613049Y415245D02*
X615049D01*
X614049Y414245D02*
Y416245D01*
X580572Y473882D02*
X582572D01*
X581572Y472882D02*
Y474882D01*
X678026Y493572D02*
X680026D01*
X679026Y492572D02*
Y494572D01*
X671585Y493262D02*
X673585D01*
X672585Y492262D02*
Y494262D01*
X665102Y467127D02*
X667102D01*
X666102Y466127D02*
Y468127D01*
X665011Y428299D02*
X667011D01*
X666011Y427299D02*
Y429299D01*
X658345Y395834D02*
X660346D01*
X659345Y394834D02*
Y396834D01*
X671547Y402070D02*
X673547D01*
X672547Y401070D02*
Y403070D01*
X586784Y421659D02*
X588784D01*
X587784Y420659D02*
Y422659D01*
X586769Y415534D02*
X588769D01*
X587769Y414534D02*
Y416534D01*
X573871Y506371D02*
X575871D01*
X574871Y505371D02*
Y507371D01*
X567371Y506371D02*
X569371D01*
X568371Y505371D02*
Y507371D01*
X797621Y276621D02*
X799621D01*
X798621Y275621D02*
Y277621D01*
X684371Y402371D02*
X686371D01*
X685371Y401371D02*
Y403371D01*
X797621Y284621D02*
X799621D01*
X798621Y283621D02*
Y285621D01*
X684371Y408871D02*
X686371D01*
X685371Y407871D02*
Y409871D01*
X690871Y408871D02*
X692871D01*
X691871Y407871D02*
Y409871D01*
X684371Y415371D02*
X686371D01*
X685371Y414371D02*
Y416371D01*
X553491Y434695D02*
X555491D01*
X554491Y433694D02*
Y435695D01*
X611536Y364379D02*
X613536D01*
X612536Y363379D02*
Y365379D01*
X709121Y496621D02*
X711121D01*
X710121Y495621D02*
Y497621D01*
X700772Y521522D02*
X702772D01*
X701772Y520522D02*
Y522522D01*
X658204Y467516D02*
X660204D01*
X659204Y466516D02*
Y468516D01*
X557371Y504946D02*
X559371D01*
X558371Y503946D02*
Y505946D01*
X697371Y506371D02*
X699371D01*
X698371Y505371D02*
Y507371D01*
X697756Y512871D02*
X699756D01*
X698756Y511871D02*
Y513871D01*
X664882Y506382D02*
X666882D01*
X665882Y505382D02*
Y507382D01*
X648710Y481960D02*
X650710D01*
X649710Y480960D02*
Y482960D01*
X566290Y382016D02*
X568290D01*
X567290Y381016D02*
Y383016D01*
X704246Y385143D02*
X706246D01*
X705246Y384143D02*
Y386143D01*
X671621Y474121D02*
X673621D01*
X672621Y473121D02*
Y475121D01*
X671523Y467121D02*
X673523D01*
X672523Y466121D02*
Y468121D01*
X677797Y414807D02*
X679797D01*
X678797Y413807D02*
Y415807D01*
X664266Y403299D02*
X666266D01*
X665266Y402299D02*
Y404299D01*
X658371Y415371D02*
X660371D01*
X659371Y414371D02*
Y416371D01*
X694121Y425375D02*
X696121D01*
X695121Y424375D02*
Y426375D01*
X606411Y492921D02*
X608411D01*
X607411Y491921D02*
Y493921D01*
X664871Y500360D02*
X666871D01*
X665871Y499361D02*
Y501361D01*
X566042Y483621D02*
X568042D01*
X567042Y482621D02*
Y484621D01*
X704488Y465250D02*
X706488D01*
X705488Y464250D02*
Y466250D01*
X622649Y498362D02*
X624649D01*
X623649Y497362D02*
Y499362D01*
X655121Y500371D02*
X657121D01*
X656121Y499371D02*
Y501371D01*
X635621Y500371D02*
X637621D01*
X636621Y499371D02*
Y501371D01*
X664871Y473871D02*
X666871D01*
X665871Y472871D02*
Y474871D01*
X677871Y486871D02*
X679871D01*
X678871Y485871D02*
Y487871D01*
X606493Y389621D02*
X608493D01*
X607493Y388621D02*
Y390621D01*
X599871Y493121D02*
X601871D01*
X600871Y492121D02*
Y494121D01*
X555647Y480078D02*
X557647D01*
X556647Y479078D02*
Y481078D01*
X560919Y483555D02*
X562919D01*
X561919Y482555D02*
Y484555D01*
X587347Y466766D02*
X589347D01*
X588347Y465766D02*
Y467766D01*
X604115Y444125D02*
X606115D01*
X605115Y443125D02*
Y445125D01*
X613116Y441395D02*
X615116D01*
X614116Y440395D02*
Y442395D01*
X619371Y447713D02*
X621371D01*
X620371Y446713D02*
Y448713D01*
X593371Y415371D02*
X595371D01*
X594371Y414371D02*
Y416371D01*
X578853Y405871D02*
X580853D01*
X579853Y404871D02*
Y406871D01*
X711216Y511556D02*
X713216D01*
X712216Y510556D02*
Y512556D01*
X823621Y284621D02*
X825621D01*
X824621Y283621D02*
Y285621D01*
X671635Y457471D02*
X673635D01*
X672635Y456471D02*
Y458471D01*
X690621Y396121D02*
X692621D01*
X691621Y395121D02*
Y397121D01*
X686569Y457621D02*
X688569D01*
X687569Y456621D02*
Y458621D01*
X691371Y464121D02*
X693371D01*
X692371Y463121D02*
Y465121D01*
X651871Y441371D02*
X653871D01*
X652871Y440371D02*
Y442371D01*
X593371Y402371D02*
X595371D01*
X594371Y401371D02*
Y403371D01*
X593371Y408871D02*
X595371D01*
X594371Y407871D02*
Y409871D01*
X599871Y402371D02*
X601871D01*
X600871Y401371D02*
Y403371D01*
X599871Y408871D02*
X601871D01*
X600871Y407871D02*
Y409871D01*
X664871Y421871D02*
X666871D01*
X665871Y420871D02*
Y422871D01*
X619371Y434871D02*
X621371D01*
X620371Y433871D02*
Y435871D01*
X651871Y415371D02*
X653871D01*
X652871Y414371D02*
Y416371D01*
X586871Y389371D02*
X588871D01*
X587871Y388371D02*
Y390371D01*
X573844Y382871D02*
X575844D01*
X574844Y381871D02*
Y383871D01*
X580371Y395871D02*
X582371D01*
X581371Y394871D02*
Y396871D01*
X599871Y395871D02*
X601871D01*
X600871Y394871D02*
Y396871D01*
X635621Y375871D02*
X637621D01*
X636621Y374871D02*
Y376871D01*
X593371Y421871D02*
X595371D01*
X594371Y420871D02*
Y422871D01*
X645371Y428371D02*
X647371D01*
X646371Y427371D02*
Y429371D01*
X658371Y421871D02*
X660371D01*
X659371Y420871D02*
Y422871D01*
X651871Y428371D02*
X653871D01*
X652871Y427371D02*
Y429371D01*
X632371Y434871D02*
X634371D01*
X633371Y433871D02*
Y435871D01*
X697371Y382871D02*
X699371D01*
X698371Y381871D02*
Y383871D01*
X606371Y408871D02*
X608371D01*
X607371Y407871D02*
Y409871D01*
X612871Y402371D02*
X614871D01*
X613871Y401371D02*
Y403371D01*
X677871Y402371D02*
X679871D01*
X678871Y401371D02*
Y403371D01*
X664871Y408871D02*
X666871D01*
X665871Y407871D02*
Y409871D01*
X684371Y395871D02*
X686371D01*
X685371Y394871D02*
Y396871D01*
X677871Y395871D02*
X679871D01*
X678871Y394871D02*
Y396871D01*
X645371Y434871D02*
X647371D01*
X646371Y433871D02*
Y435871D01*
X651871Y434871D02*
X653871D01*
X652871Y433871D02*
Y435871D01*
X579871Y483621D02*
X581871D01*
X580871Y482621D02*
Y484621D01*
X580371Y493371D02*
X582371D01*
X581371Y492371D02*
Y494371D01*
X580371Y499871D02*
X582371D01*
X581371Y498871D02*
Y500871D01*
X706121Y508121D02*
X708121D01*
X707121Y507121D02*
Y509121D01*
X622621Y480871D02*
X624621D01*
X623621Y479871D02*
Y481871D01*
X612871Y473871D02*
X614871D01*
X613871Y472871D02*
Y474871D01*
X677871Y473871D02*
X679871D01*
X678871Y472871D02*
Y474871D01*
X599871Y486871D02*
X601871D01*
X600871Y485871D02*
Y487871D01*
X596621Y500371D02*
X598621D01*
X597621Y499371D02*
Y501371D01*
X612871Y486871D02*
X614871D01*
X613871Y485871D02*
Y487871D01*
X586871Y499871D02*
X588871D01*
X587871Y498871D02*
Y500871D01*
X593371Y467371D02*
X595371D01*
X594371Y466371D02*
Y468371D01*
X684371Y467371D02*
X686371D01*
X685371Y466371D02*
Y468371D01*
X677802Y467221D02*
X679802D01*
X678802Y466221D02*
Y468221D01*
X612871Y467371D02*
X614871D01*
X613871Y466371D02*
Y468371D01*
X619371Y460871D02*
X621371D01*
X620371Y459871D02*
Y461871D01*
X612871Y460871D02*
X614871D01*
X613871Y459871D02*
Y461871D01*
X765621Y332621D02*
X767621D01*
X766621Y331621D02*
Y333621D01*
X765621Y324621D02*
X767621D01*
X766621Y323621D02*
Y325621D01*
X757621Y276621D02*
X759621D01*
X758621Y275621D02*
Y277621D01*
X757621Y316621D02*
X759621D01*
X758621Y315621D02*
Y317621D01*
X757621Y292621D02*
X759621D01*
X758621Y291621D02*
Y293621D01*
X805621Y276621D02*
X807621D01*
X806621Y275621D02*
Y277621D01*
X805621Y284621D02*
X807621D01*
X806621Y283621D02*
Y285621D01*
X765621Y276621D02*
X767621D01*
X766621Y275621D02*
Y277621D01*
X765621Y284621D02*
X767621D01*
X766621Y283621D02*
Y285621D01*
X773621Y284621D02*
X775621D01*
X774621Y283621D02*
Y285621D01*
X813621Y308621D02*
X815621D01*
X814621Y307621D02*
Y309621D01*
X813621Y300621D02*
X815621D01*
X814621Y299621D02*
Y301621D01*
X765621Y316621D02*
X767621D01*
X766621Y315621D02*
Y317621D01*
X823621Y340371D02*
X825621D01*
X824621Y339371D02*
Y341371D01*
X773621Y276621D02*
X775621D01*
X774621Y275621D02*
Y277621D01*
X813621Y292621D02*
X815621D01*
X814621Y291621D02*
Y293621D01*
X813621Y276621D02*
X815621D01*
X814621Y275621D02*
Y277621D01*
X823621Y296621D02*
X825621D01*
X824621Y295621D02*
Y297621D01*
X805621Y292621D02*
X807621D01*
X806621Y291621D02*
Y293621D01*
X797621Y292621D02*
X799621D01*
X798621Y291621D02*
Y293621D01*
X805621Y300621D02*
X807621D01*
X806621Y299621D02*
Y301621D01*
X765621Y292621D02*
X767621D01*
X766621Y291621D02*
Y293621D01*
X765371Y300371D02*
X767371D01*
X766371Y299371D02*
Y301371D01*
X765621Y308621D02*
X767621D01*
X766621Y307621D02*
Y309621D01*
X632142Y421807D02*
X634142D01*
X633142Y420807D02*
Y422807D01*
X632392Y428307D02*
X634392D01*
X633392Y427307D02*
Y429307D01*
X652143Y422057D02*
X654143D01*
X653143Y421057D02*
Y423057D01*
X645143Y408556D02*
X647143D01*
X646143Y407556D02*
Y409556D01*
X632392Y461309D02*
X634392D01*
X633392Y460309D02*
Y462309D01*
X632642Y447808D02*
X634642D01*
X633642Y446808D02*
Y448808D01*
X671144Y421807D02*
X673144D01*
X672144Y420807D02*
Y422807D01*
X606371Y480371D02*
X608371D01*
X607371Y479371D02*
Y481371D01*
X593371Y486871D02*
X595371D01*
X594371Y485871D02*
Y487871D01*
X566871Y444621D02*
X568871D01*
X567871Y443621D02*
Y445621D01*
X757621Y308621D02*
X759621D01*
X758621Y307621D02*
Y309621D01*
X671371Y415625D02*
X673371D01*
X672371Y414625D02*
Y416625D01*
X1706617Y721504D02*
X1709617D01*
X1708117Y720004D02*
Y723004D01*
X1678559Y735066D02*
X1681559D01*
X1680059Y733566D02*
Y736566D01*
X1653509Y745267D02*
X1656509D01*
X1655009Y743767D02*
Y746767D01*
X1628170Y755719D02*
X1631170D01*
X1629670Y754219D02*
Y757219D01*
X1450082Y744846D02*
X1453082D01*
X1451582Y743346D02*
Y746346D01*
X1393543Y752943D02*
X1396543D01*
X1395043Y751442D02*
Y754443D01*
X1378561Y753076D02*
X1381561D01*
X1380061Y751576D02*
Y754576D01*
X1364220Y752753D02*
X1367220D01*
X1365720Y751253D02*
Y754253D01*
X1490371Y734840D02*
X1493371D01*
X1491871Y733340D02*
Y736340D01*
X1408478Y752572D02*
X1411478D01*
X1409978Y751072D02*
Y754072D01*
X1425978Y752572D02*
X1428978D01*
X1427478Y751072D02*
Y754072D01*
X1566000Y755540D02*
X1569000D01*
X1567500Y754040D02*
Y757040D01*
X1581000Y755540D02*
X1584000D01*
X1582500Y754040D02*
Y757040D01*
X1597800Y755540D02*
X1600800D01*
X1599300Y754040D02*
Y757040D01*
X1613500Y755540D02*
X1616500D01*
X1615000Y754040D02*
Y757040D01*
X1233101Y731715D02*
X1235101D01*
X1234101Y730715D02*
Y732715D01*
X1514926Y724726D02*
X1517926D01*
X1516426Y723226D02*
Y726226D01*
X1248265Y732143D02*
X1250265D01*
X1249265Y731143D02*
Y733143D01*
X181840Y60371D02*
X183840D01*
X182840Y59371D02*
Y61371D01*
X201930Y59745D02*
X203930D01*
X202930Y58745D02*
Y60745D01*
X220928Y65979D02*
X222928D01*
X221928Y64979D02*
Y66979D01*
X211079Y65996D02*
X213079D01*
X212079Y64996D02*
Y66996D01*
X196068Y65979D02*
X198067D01*
X197068Y64979D02*
Y66979D01*
X766212Y459122D02*
X768212D01*
X767212Y458122D02*
Y460122D01*
X759286Y451100D02*
X761286D01*
X760286Y450100D02*
Y452100D01*
X750396Y450264D02*
X752396D01*
X751396Y449264D02*
Y451264D01*
X520983Y374798D02*
X522983D01*
X521983Y373798D02*
Y375798D01*
X521512Y402356D02*
X523512D01*
X522512Y401356D02*
Y403356D01*
X745890Y481946D02*
X747890D01*
X746890Y480946D02*
Y482946D01*
X486092Y519795D02*
X488092D01*
X487092Y518796D02*
Y520796D01*
X477900Y579097D02*
X479900D01*
X478900Y578097D02*
Y580097D01*
X1185029Y210241D02*
X1187029D01*
X1186029Y209241D02*
Y211241D01*
X1013871Y226226D02*
X1015871D01*
X1014871Y225226D02*
Y227226D01*
X1027459Y226267D02*
X1029460D01*
X1028459Y225267D02*
Y227267D01*
X1017123Y230732D02*
X1019123D01*
X1018123Y229732D02*
Y231733D01*
X1014321Y218677D02*
X1016321D01*
X1015321Y217677D02*
Y219677D01*
X1003302Y213798D02*
X1005302D01*
X1004302Y212798D02*
Y214798D01*
X1013139Y211564D02*
X1015139D01*
X1014139Y210564D02*
Y212564D01*
X998833Y208926D02*
X1000834D01*
X999834Y207926D02*
Y209926D01*
X994801Y197727D02*
X996801D01*
X995801Y196727D02*
Y198727D01*
X969509Y266053D02*
X971509D01*
X970509Y265053D02*
Y267053D01*
X962772Y266327D02*
X964772D01*
X963772Y265327D02*
Y267327D01*
X969864Y260599D02*
X971864D01*
X970864Y259599D02*
Y261599D01*
X969047Y254189D02*
X971047D01*
X970046Y253189D02*
Y255189D01*
X510886Y479355D02*
X512886D01*
X511886Y478355D02*
Y480355D01*
X510886Y514448D02*
X512886D01*
X511886Y513448D02*
Y515448D01*
X506726Y430812D02*
X508726D01*
X507726Y429812D02*
Y431812D01*
X495238Y406266D02*
X497238D01*
X496238Y405266D02*
Y407266D01*
X490092Y406313D02*
X492092D01*
X491092Y405313D02*
Y407313D01*
X485092Y406313D02*
X487092D01*
X486092Y405313D02*
Y407313D01*
X479729Y406266D02*
X481729D01*
X480729Y405266D02*
Y407266D01*
X476666Y414351D02*
X478666D01*
X477666Y413351D02*
Y415351D01*
X476666Y419351D02*
X478666D01*
X477666Y418351D02*
Y420351D01*
X488529Y440817D02*
X490528D01*
X489529Y439818D02*
Y441818D01*
X484846Y437436D02*
X486846D01*
X485846Y436436D02*
Y438436D01*
X596787Y514359D02*
X598787D01*
X597787Y513359D02*
Y515359D01*
X635585Y514313D02*
X637585D01*
X636585Y513313D02*
Y515313D01*
X655473Y514264D02*
X657473D01*
X656473Y513264D02*
Y515264D01*
X559991Y527697D02*
X561991D01*
X560991Y526697D02*
Y528697D01*
X493880Y275812D02*
X495880D01*
X494880Y274813D02*
Y276812D01*
X497166Y272044D02*
X499166D01*
X498166Y271044D02*
Y273044D01*
X705255Y539133D02*
X707255D01*
X706255Y538133D02*
Y540133D01*
X700180Y539068D02*
X702180D01*
X701180Y538068D02*
Y540068D01*
X750906Y481107D02*
X752906D01*
X751906Y480107D02*
Y482107D01*
X725691Y472980D02*
X727691D01*
X726691Y471980D02*
Y473980D01*
X712523Y342563D02*
X714523D01*
X713523Y341563D02*
Y343563D01*
X332970Y506840D02*
X334970D01*
X333970Y505840D02*
Y507840D01*
X68278Y614987D02*
X70278D01*
X69278Y613987D02*
Y615987D01*
X67808Y415298D02*
X69808D01*
X68808Y414298D02*
Y416298D01*
X1423444Y144019D02*
X1425444D01*
X1424444Y143019D02*
Y145019D01*
X1169491Y286906D02*
X1171491D01*
X1170491Y285906D02*
Y287906D01*
X1014595Y530616D02*
X1016595D01*
X1015595Y529616D02*
Y531616D01*
X599836Y563713D02*
X601836D01*
X600836Y562713D02*
Y564713D01*
X650122Y550869D02*
X652122D01*
X651122Y549869D02*
Y551869D01*
X756101Y57319D02*
X758101D01*
X757101Y56319D02*
Y58319D01*
X1325827Y247330D02*
X1327827D01*
X1326827Y246330D02*
Y248330D01*
X1163268Y105125D02*
X1165268D01*
X1164268Y104125D02*
Y106125D01*
X1526482Y142699D02*
X1528482D01*
X1527482Y141699D02*
Y143699D01*
X1197201Y48479D02*
X1199201D01*
X1198201Y47479D02*
Y49479D01*
X1381610Y48499D02*
X1383610D01*
X1382610Y47499D02*
Y49499D01*
X1343403Y48499D02*
X1345403D01*
X1344403Y47499D02*
Y49499D01*
X1343928Y153041D02*
X1345928D01*
X1344928Y152041D02*
Y154041D01*
X1218466Y143800D02*
X1220466D01*
X1219466Y142800D02*
Y144800D01*
X582744Y692195D02*
X584744D01*
X583744Y691195D02*
Y693195D01*
X539339Y662832D02*
X541339D01*
X540339Y661832D02*
Y663832D01*
X1117102Y368106D02*
X1119102D01*
X1118102Y367106D02*
Y369106D01*
X1478730Y186200D02*
X1480730D01*
X1479730Y185200D02*
Y187200D01*
X1412989Y192668D02*
X1414989D01*
X1413989Y191668D02*
Y193668D01*
X1313307Y192787D02*
X1315307D01*
X1314307Y191787D02*
Y193787D01*
X1330228Y175602D02*
X1332227D01*
X1331228Y174602D02*
Y176602D01*
X1342294Y186714D02*
X1344294D01*
X1343293Y185714D02*
Y187714D01*
X1290040Y170939D02*
X1292041D01*
X1291040Y169939D02*
Y171939D01*
X1285577Y176921D02*
X1287577D01*
X1286577Y175921D02*
Y177921D01*
X1249955Y174149D02*
X1251955D01*
X1250955Y173149D02*
Y175149D01*
X1273721Y183540D02*
X1275721D01*
X1274721Y182540D02*
Y184540D01*
X1247647Y182016D02*
X1249647D01*
X1248647Y181016D02*
Y183016D01*
X1238038Y185228D02*
X1240038D01*
X1239038Y184228D02*
Y186227D01*
X1208096Y192637D02*
X1210096D01*
X1209096Y191637D02*
Y193637D01*
X1183130Y176567D02*
X1185130D01*
X1184130Y175567D02*
Y177567D01*
X1145723Y176567D02*
X1147723D01*
X1146723Y175567D02*
Y177567D01*
X1069880Y214268D02*
X1071880D01*
X1070880Y213268D02*
Y215268D01*
X1060086Y214201D02*
X1062086D01*
X1061086Y213201D02*
Y215201D01*
X1057671Y201726D02*
X1059670D01*
X1058671Y200726D02*
Y202726D01*
X1106784Y172168D02*
X1108784D01*
X1107784Y171168D02*
Y173168D01*
X1025958Y167741D02*
X1027959D01*
X1026958Y166741D02*
Y168741D01*
X1006626Y168173D02*
X1008626D01*
X1007626Y167173D02*
Y169173D01*
X964831Y185196D02*
X966831D01*
X965831Y184196D02*
Y186196D01*
X933666Y184608D02*
X935666D01*
X934666Y183608D02*
Y185608D01*
X1031073Y314197D02*
X1033073D01*
X1032073Y313197D02*
Y315197D01*
X1746031Y584524D02*
X1748031D01*
X1747031Y583524D02*
Y585524D01*
X1746031Y602410D02*
X1748031D01*
X1747031Y601410D02*
Y603410D01*
X1617525Y602586D02*
X1619525D01*
X1618525Y601586D02*
Y603586D01*
X1635317Y652252D02*
X1637317D01*
X1636317Y651252D02*
Y653252D01*
X1576278Y649194D02*
X1578278D01*
X1577278Y648194D02*
Y650194D01*
X1531979Y648542D02*
X1533979D01*
X1532979Y647542D02*
Y649542D01*
X1400013Y688355D02*
X1402013D01*
X1401013Y687355D02*
Y689355D01*
X1331085Y719210D02*
X1333085D01*
X1332085Y718210D02*
Y720210D01*
X1101704Y503692D02*
X1103704D01*
X1102704Y502692D02*
Y504692D01*
X1113159Y434879D02*
X1115159D01*
X1114159Y433879D02*
Y435879D01*
X1183099Y504816D02*
X1185099D01*
X1184099Y503816D02*
Y505816D01*
X1119686Y559141D02*
X1121685D01*
X1120686Y558140D02*
Y560140D01*
X1057004Y649210D02*
X1059004D01*
X1058004Y648210D02*
Y650210D01*
X889148Y715194D02*
X891148D01*
X890148Y714194D02*
Y716194D01*
X713822Y752996D02*
X715822D01*
X714822Y751996D02*
Y753996D01*
X720361Y757228D02*
X722362D01*
X721361Y756228D02*
Y758228D01*
X595852Y618391D02*
X597852D01*
X596852Y617391D02*
Y619391D01*
X576823Y626391D02*
X578823D01*
X577823Y625391D02*
Y627391D01*
X804653Y691545D02*
X806653D01*
X805653Y690545D02*
Y692545D01*
X794472Y682190D02*
X796472D01*
X795472Y681190D02*
Y683190D01*
X686892Y682699D02*
X688892D01*
X687892Y681699D02*
Y683699D01*
X736094Y654381D02*
X738094D01*
X737094Y653382D02*
Y655381D01*
X736094Y649381D02*
X738094D01*
X737094Y648382D02*
Y650381D01*
X734997Y643523D02*
X736997D01*
X735997Y642523D02*
Y644523D01*
X712927Y643003D02*
X714927D01*
X713927Y642003D02*
Y644003D01*
X712990Y648003D02*
X714990D01*
X713990Y647003D02*
Y649003D01*
X729576Y634863D02*
X731576D01*
X730576Y633862D02*
Y635863D01*
X729576Y639863D02*
X731576D01*
X730576Y638862D02*
Y640863D01*
X726117Y646451D02*
X728117D01*
X727117Y645451D02*
Y647451D01*
X726117Y630482D02*
X728117D01*
X727117Y629482D02*
Y631482D01*
X824560Y603081D02*
X826560D01*
X825560Y602081D02*
Y604081D01*
X752011Y527465D02*
X754011D01*
X753011Y526465D02*
Y528465D01*
X593121Y328467D02*
X595121D01*
X594121Y327467D02*
Y329467D01*
X698562Y569167D02*
X700562D01*
X699562Y568167D02*
Y570167D01*
X674358Y592981D02*
X676358D01*
X675358Y591981D02*
Y593981D01*
X670813Y589455D02*
X672813D01*
X671813Y588455D02*
Y590455D01*
X646199Y589988D02*
X648199D01*
X647199Y588988D02*
Y590988D01*
X641991Y578396D02*
X643991D01*
X642991Y577397D02*
Y579397D01*
X629686Y573927D02*
X631686D01*
X630686Y572926D02*
Y574926D01*
X592442Y555712D02*
X594442D01*
X593442Y554712D02*
Y556712D01*
X501183Y617355D02*
X503183D01*
X502183Y616355D02*
Y618355D01*
X532285Y591999D02*
X534285D01*
X533285Y590999D02*
Y592999D01*
X443430Y238860D02*
X445430D01*
X444430Y237860D02*
Y239860D01*
X434610Y238860D02*
X436610D01*
X435610Y237860D02*
Y239860D01*
X428510Y243354D02*
X430510D01*
X429510Y242354D02*
Y244354D01*
X423387Y246769D02*
X425387D01*
X424387Y245769D02*
Y247769D01*
X69102Y220615D02*
X71101D01*
X70101Y219615D02*
Y221615D01*
X67473Y226985D02*
X69473D01*
X68473Y225985D02*
Y227985D01*
X458229Y68263D02*
X460229D01*
X459229Y67263D02*
Y69263D01*
X509392Y57137D02*
X511392D01*
X510392Y56137D02*
Y58137D01*
X558898Y88809D02*
X560898D01*
X559898Y87809D02*
Y89809D01*
X618190Y173915D02*
X620190D01*
X619190Y172915D02*
Y174915D01*
X867006Y507812D02*
X869006D01*
X868006Y506812D02*
Y508812D01*
X892172Y455770D02*
X894172D01*
X893172Y454770D02*
Y456770D01*
X903044Y426041D02*
X905044D01*
X904044Y425041D02*
Y427041D01*
X895408Y420046D02*
X897408D01*
X896408Y419045D02*
Y421045D01*
X895152Y432107D02*
X897152D01*
X896152Y431107D02*
Y433107D01*
X1074792Y444340D02*
X1076792D01*
X1075792Y443340D02*
Y445340D01*
X1047579Y439588D02*
X1049579D01*
X1048579Y438588D02*
Y440588D01*
X1061037Y470095D02*
X1063037D01*
X1062037Y469095D02*
Y471095D01*
X1056721Y403557D02*
X1058720D01*
X1057720Y402557D02*
Y404557D01*
X1053952Y390076D02*
X1055953D01*
X1054952Y389076D02*
Y391076D01*
X1169005Y212512D02*
X1171005D01*
X1170005Y211512D02*
Y213512D01*
X1161025Y215514D02*
X1163025D01*
X1162025Y214514D02*
Y216514D01*
X1080914Y229121D02*
X1082914D01*
X1081914Y228121D02*
Y230121D01*
X1087202Y229248D02*
X1089202D01*
X1088202Y228248D02*
Y230248D01*
X1100999Y229121D02*
X1102999D01*
X1101999Y228121D02*
Y230121D01*
X1145921Y225717D02*
X1147921D01*
X1146921Y224717D02*
Y226717D01*
X1134354Y225717D02*
X1136354D01*
X1135354Y224717D02*
Y226717D01*
X1121115Y225717D02*
X1123115D01*
X1122115Y224717D02*
Y226717D01*
X1107355Y229248D02*
X1109354D01*
X1108354Y228248D02*
Y230248D01*
X1124376Y251603D02*
X1126376D01*
X1125376Y250603D02*
Y252603D01*
X1129944Y295664D02*
X1131944D01*
X1130944Y294664D02*
Y296664D01*
X1203707Y324906D02*
X1205707D01*
X1204707Y323906D02*
Y325906D01*
X1184013Y321006D02*
X1186013D01*
X1185013Y320006D02*
Y322006D01*
X1071452Y324356D02*
X1073452D01*
X1072452Y323356D02*
Y325356D01*
X1188996Y345440D02*
X1190996D01*
X1189996Y344440D02*
Y346440D01*
X1304000Y389404D02*
X1306000D01*
X1305000Y388404D02*
Y390404D01*
X1265579Y423004D02*
X1267579D01*
X1266579Y422004D02*
Y424004D01*
X1123065Y533914D02*
X1125065D01*
X1124065Y532914D02*
Y534914D01*
X1176538Y533914D02*
X1178538D01*
X1177538Y532914D02*
Y534914D01*
X1220451Y545743D02*
X1222451D01*
X1221451Y544743D02*
Y546744D01*
X1068620Y521637D02*
X1070620D01*
X1069620Y520637D02*
Y522637D01*
X1023457Y534526D02*
X1025457D01*
X1024457Y533526D02*
Y535526D01*
X1024683Y542485D02*
X1026683D01*
X1025683Y541485D02*
Y543485D01*
X1032590Y526267D02*
X1034590D01*
X1033590Y525267D02*
Y527267D01*
X1627214Y567369D02*
X1629214D01*
X1628214Y566370D02*
Y568369D01*
X1555824Y540707D02*
X1557824D01*
X1556824Y539707D02*
Y541707D01*
X1519327Y574520D02*
X1521327D01*
X1520327Y573520D02*
Y575520D01*
X920099Y339619D02*
X922099D01*
X921099Y338619D02*
Y340619D01*
X956657Y390456D02*
X958658D01*
X957657Y389456D02*
Y391456D01*
X971544Y415266D02*
X973544D01*
X972544Y414266D02*
Y416266D01*
X995415Y254512D02*
X997415D01*
X996415Y253512D02*
Y255512D01*
X880651Y201676D02*
X882651D01*
X881651Y200676D02*
Y202676D01*
X894308Y170154D02*
X896308D01*
X895308Y169154D02*
Y171154D01*
X889770Y164820D02*
X891770D01*
X890770Y163820D02*
Y165820D01*
X863201Y174246D02*
X865201D01*
X864201Y173246D02*
Y175246D01*
X852937Y170343D02*
X854937D01*
X853937Y169343D02*
Y171343D01*
X637254Y193382D02*
X639254D01*
X638254Y192383D02*
Y194382D01*
X637069Y248498D02*
X639069D01*
X638069Y247498D02*
Y249499D01*
X641563Y254015D02*
X643563D01*
X642563Y253015D02*
Y255015D01*
X567187Y234209D02*
X569187D01*
X568187Y233209D02*
Y235209D01*
X577950Y236762D02*
X579950D01*
X578950Y235762D02*
Y237762D01*
X472188Y182365D02*
X474188D01*
X473189Y181365D02*
Y183365D01*
X459411Y182150D02*
X461411D01*
X460411Y181150D02*
Y183150D01*
X450643Y208165D02*
X452643D01*
X451642Y207166D02*
Y209165D01*
X496973Y253452D02*
X498973D01*
X497973Y252453D02*
Y254452D01*
X578105Y328377D02*
X580105D01*
X579105Y327377D02*
Y329377D01*
X567882Y332443D02*
X569883D01*
X568882Y331443D02*
Y333443D01*
X584804Y317400D02*
X586804D01*
X585804Y316401D02*
Y318400D01*
X589014Y323039D02*
X591014D01*
X590014Y322039D02*
Y324039D01*
X562323Y304934D02*
X564323D01*
X563323Y303934D02*
Y305934D01*
X567806Y309115D02*
X569806D01*
X568806Y308115D02*
Y310115D01*
X539946Y303366D02*
X541946D01*
X540946Y302366D02*
Y304366D01*
X543857Y296393D02*
X545857D01*
X544857Y295393D02*
Y297393D01*
X477799Y349892D02*
X479799D01*
X478799Y348892D02*
Y350892D01*
X373016Y566992D02*
X375016D01*
X374016Y565992D02*
Y567992D01*
X293063Y317700D02*
X295063D01*
X294063Y316700D02*
Y318700D01*
X135987Y591079D02*
X137987D01*
X136987Y590079D02*
Y592079D01*
X132855Y109669D02*
X134855D01*
X133855Y108669D02*
Y110669D01*
X134454Y299106D02*
X136454D01*
X135454Y298106D02*
Y300106D01*
X134015Y204015D02*
X136015D01*
X135015Y203015D02*
Y205015D01*
X304132Y225629D02*
X306132D01*
X305132Y224629D02*
Y226628D01*
X269375Y115016D02*
X271375D01*
X270375Y114016D02*
Y116016D01*
X255805Y115245D02*
X257805D01*
X256805Y114245D02*
Y116245D01*
X235743Y109952D02*
X237743D01*
X236743Y108953D02*
Y110953D01*
X1092674Y220371D02*
X1094674D01*
X1093674Y219371D02*
Y221371D01*
X1103631Y218576D02*
X1105631D01*
X1104631Y217576D02*
Y219576D01*
X1107129Y204446D02*
X1109129D01*
X1108129Y203446D02*
Y205446D01*
X414930Y297433D02*
X416930D01*
X415930Y296433D02*
Y298433D01*
X414930Y302433D02*
X416930D01*
X415930Y301433D02*
Y303433D01*
X414930Y356547D02*
X416930D01*
X415930Y355547D02*
Y357547D01*
X414930Y361547D02*
X416930D01*
X415930Y360547D02*
Y362547D01*
X1779000Y705000D02*
X1781000D01*
X1780000Y704000D02*
Y706000D01*
X1779000Y255000D02*
X1781000D01*
X1780000Y254000D02*
Y256000D01*
X1779000Y205000D02*
X1781000D01*
X1780000Y204000D02*
Y206000D01*
X1779000Y155000D02*
X1781000D01*
X1780000Y154000D02*
Y156000D01*
X1779000Y105000D02*
X1781000D01*
X1780000Y104000D02*
Y106000D01*
X1766500Y280000D02*
X1768500D01*
X1767500Y279000D02*
Y281000D01*
X1766500Y230000D02*
X1768500D01*
X1767500Y229000D02*
Y231000D01*
X1766500Y180000D02*
X1768500D01*
X1767500Y179000D02*
Y181000D01*
X1754000Y155000D02*
X1756000D01*
X1755000Y154000D02*
Y156000D01*
X1766500Y130000D02*
X1768500D01*
X1767500Y129000D02*
Y131000D01*
X1754000Y105000D02*
X1756000D01*
X1755000Y104000D02*
Y106000D01*
X1766500Y80000D02*
X1768500D01*
X1767500Y79000D02*
Y81000D01*
X1741500Y730000D02*
X1743500D01*
X1742500Y729000D02*
Y731000D01*
X1741500Y280000D02*
X1743500D01*
X1742500Y279000D02*
Y281000D01*
X1729000Y255000D02*
X1731000D01*
X1730000Y254000D02*
Y256000D01*
X1729000Y155000D02*
X1731000D01*
X1730000Y154000D02*
Y156000D01*
X1741500Y130000D02*
X1743500D01*
X1742500Y129000D02*
Y131000D01*
X1741500Y80000D02*
X1743500D01*
X1742500Y79000D02*
Y81000D01*
X1716500Y280000D02*
X1718500D01*
X1717500Y279000D02*
Y281000D01*
X1704000Y205000D02*
X1706000D01*
X1705000Y204000D02*
Y206000D01*
X1716500Y180000D02*
X1718500D01*
X1717500Y179000D02*
Y181000D01*
X1716500Y80000D02*
X1718500D01*
X1717500Y79000D02*
Y81000D01*
X1716500Y30000D02*
X1718500D01*
X1717500Y29000D02*
Y31000D01*
X1691500Y280000D02*
X1693500D01*
X1692500Y279000D02*
Y281000D01*
X1679000Y255000D02*
X1681000D01*
X1680000Y254000D02*
Y256000D01*
X1691500Y230000D02*
X1693500D01*
X1692500Y229000D02*
Y231000D01*
X1679000Y205000D02*
X1681000D01*
X1680000Y204000D02*
Y206000D01*
X1691500Y180000D02*
X1693500D01*
X1692500Y179000D02*
Y181000D01*
X1679000Y55000D02*
X1681000D01*
X1680000Y54000D02*
Y56000D01*
X1666500Y280000D02*
X1668500D01*
X1667500Y279000D02*
Y281000D01*
X1666500Y230000D02*
X1668500D01*
X1667500Y229000D02*
Y231000D01*
X1666500Y180000D02*
X1668500D01*
X1667500Y179000D02*
Y181000D01*
X1641500Y280000D02*
X1643500D01*
X1642500Y279000D02*
Y281000D01*
X1629000Y255000D02*
X1631000D01*
X1630000Y254000D02*
Y256000D01*
X1641500Y230000D02*
X1643500D01*
X1642500Y229000D02*
Y231000D01*
X1629000Y205000D02*
X1631000D01*
X1630000Y204000D02*
Y206000D01*
X1616500Y280000D02*
X1618500D01*
X1617500Y279000D02*
Y281000D01*
X1616500Y230000D02*
X1618500D01*
X1617500Y229000D02*
Y231000D01*
X1616500Y80000D02*
X1618500D01*
X1617500Y79000D02*
Y81000D01*
X1591500Y80000D02*
X1593500D01*
X1592500Y79000D02*
Y81000D01*
X1554000Y505000D02*
X1556000D01*
X1555000Y504000D02*
Y506000D01*
X1554000Y455000D02*
X1556000D01*
X1555000Y454000D02*
Y456000D01*
X1566500Y430000D02*
X1568500D01*
X1567500Y429000D02*
Y431000D01*
X1554000Y405000D02*
X1556000D01*
X1555000Y404000D02*
Y406000D01*
X1566500Y380000D02*
X1568500D01*
X1567500Y379000D02*
Y381000D01*
X1554000Y355000D02*
X1556000D01*
X1555000Y354000D02*
Y356000D01*
X1566500Y330000D02*
X1568500D01*
X1567500Y329000D02*
Y331000D01*
X1554000Y305000D02*
X1556000D01*
X1555000Y304000D02*
Y306000D01*
X1566500Y280000D02*
X1568500D01*
X1567500Y279000D02*
Y281000D01*
X1554000Y255000D02*
X1556000D01*
X1555000Y254000D02*
Y256000D01*
X1566500Y230000D02*
X1568500D01*
X1567500Y229000D02*
Y231000D01*
X1566500Y80000D02*
X1568500D01*
X1567500Y79000D02*
Y81000D01*
X1529000Y455000D02*
X1531000D01*
X1530000Y454000D02*
Y456000D01*
X1541500Y430000D02*
X1543500D01*
X1542500Y429000D02*
Y431000D01*
X1529000Y405000D02*
X1531000D01*
X1530000Y404000D02*
Y406000D01*
X1541500Y380000D02*
X1543500D01*
X1542500Y379000D02*
Y381000D01*
X1529000Y355000D02*
X1531000D01*
X1530000Y354000D02*
Y356000D01*
X1541500Y330000D02*
X1543500D01*
X1542500Y329000D02*
Y331000D01*
X1529000Y305000D02*
X1531000D01*
X1530000Y304000D02*
Y306000D01*
X1541500Y280000D02*
X1543500D01*
X1542500Y279000D02*
Y281000D01*
X1529000Y255000D02*
X1531000D01*
X1530000Y254000D02*
Y256000D01*
X1541500Y230000D02*
X1543500D01*
X1542500Y229000D02*
Y231000D01*
X1529000Y55000D02*
X1531000D01*
X1530000Y54000D02*
Y56000D01*
X1516500Y430000D02*
X1518500D01*
X1517500Y429000D02*
Y431000D01*
X1504000Y405000D02*
X1506000D01*
X1505000Y404000D02*
Y406000D01*
X1516500Y380000D02*
X1518500D01*
X1517500Y379000D02*
Y381000D01*
X1504000Y355000D02*
X1506000D01*
X1505000Y354000D02*
Y356000D01*
X1516500Y330000D02*
X1518500D01*
X1517500Y329000D02*
Y331000D01*
X1504000Y305000D02*
X1506000D01*
X1505000Y304000D02*
Y306000D01*
X1516500Y280000D02*
X1518500D01*
X1517500Y279000D02*
Y281000D01*
X1479000Y455000D02*
X1481000D01*
X1480000Y454000D02*
Y456000D01*
X1491500Y430000D02*
X1493500D01*
X1492500Y429000D02*
Y431000D01*
X1479000Y405000D02*
X1481000D01*
X1480000Y404000D02*
Y406000D01*
X1491500Y380000D02*
X1493500D01*
X1492500Y379000D02*
Y381000D01*
X1479000Y355000D02*
X1481000D01*
X1480000Y354000D02*
Y356000D01*
X1491500Y330000D02*
X1493500D01*
X1492500Y329000D02*
Y331000D01*
X1479000Y305000D02*
X1481000D01*
X1480000Y304000D02*
Y306000D01*
X1491500Y280000D02*
X1493500D01*
X1492500Y279000D02*
Y281000D01*
X1491500Y230000D02*
X1493500D01*
X1492500Y229000D02*
Y231000D01*
X1454000Y455000D02*
X1456000D01*
X1455000Y454000D02*
Y456000D01*
X1466500Y430000D02*
X1468500D01*
X1467500Y429000D02*
Y431000D01*
X1454000Y405000D02*
X1456000D01*
X1455000Y404000D02*
Y406000D01*
X1466500Y380000D02*
X1468500D01*
X1467500Y379000D02*
Y381000D01*
X1454000Y355000D02*
X1456000D01*
X1455000Y354000D02*
Y356000D01*
X1466500Y330000D02*
X1468500D01*
X1467500Y329000D02*
Y331000D01*
X1466500Y80000D02*
X1468500D01*
X1467500Y79000D02*
Y81000D01*
X1429000Y605000D02*
X1431000D01*
X1430000Y604000D02*
Y606000D01*
X1441500Y530000D02*
X1443500D01*
X1442500Y529000D02*
Y531000D01*
X1429000Y455000D02*
X1431000D01*
X1430000Y454000D02*
Y456000D01*
X1441500Y430000D02*
X1443500D01*
X1442500Y429000D02*
Y431000D01*
X1429000Y405000D02*
X1431000D01*
X1430000Y404000D02*
Y406000D01*
X1441500Y380000D02*
X1443500D01*
X1442500Y379000D02*
Y381000D01*
X1429000Y355000D02*
X1431000D01*
X1430000Y354000D02*
Y356000D01*
X1441500Y330000D02*
X1443500D01*
X1442500Y329000D02*
Y331000D01*
X1441500Y230000D02*
X1443500D01*
X1442500Y229000D02*
Y231000D01*
X1404000Y555000D02*
X1406000D01*
X1405000Y554000D02*
Y556000D01*
X1416500Y530000D02*
X1418500D01*
X1417500Y529000D02*
Y531000D01*
X1404000Y455000D02*
X1406000D01*
X1405000Y454000D02*
Y456000D01*
X1416500Y430000D02*
X1418500D01*
X1417500Y429000D02*
Y431000D01*
X1404000Y405000D02*
X1406000D01*
X1405000Y404000D02*
Y406000D01*
X1416500Y380000D02*
X1418500D01*
X1417500Y379000D02*
Y381000D01*
X1404000Y305000D02*
X1406000D01*
X1405000Y304000D02*
Y306000D01*
X1416500Y230000D02*
X1418500D01*
X1417500Y229000D02*
Y231000D01*
X1391500Y430000D02*
X1393500D01*
X1392500Y429000D02*
Y431000D01*
X1379000Y405000D02*
X1381000D01*
X1380000Y404000D02*
Y406000D01*
X1391500Y380000D02*
X1393500D01*
X1392500Y379000D02*
Y381000D01*
X1379000Y305000D02*
X1381000D01*
X1380000Y304000D02*
Y306000D01*
X1391500Y280000D02*
X1393500D01*
X1392500Y279000D02*
Y281000D01*
X1379000Y155000D02*
X1381000D01*
X1380000Y154000D02*
Y156000D01*
X1354000Y505000D02*
X1356000D01*
X1355000Y504000D02*
Y506000D01*
X1354000Y305000D02*
X1356000D01*
X1355000Y304000D02*
Y306000D01*
X1354000Y255000D02*
X1356000D01*
X1355000Y254000D02*
Y256000D01*
X1366500Y230000D02*
X1368500D01*
X1367500Y229000D02*
Y231000D01*
X1329000Y555000D02*
X1331000D01*
X1330000Y554000D02*
Y556000D01*
X1341500Y430000D02*
X1343500D01*
X1342500Y429000D02*
Y431000D01*
X1341500Y330000D02*
X1343500D01*
X1342500Y329000D02*
Y331000D01*
X1329000Y305000D02*
X1331000D01*
X1330000Y304000D02*
Y306000D01*
X1341500Y280000D02*
X1343500D01*
X1342500Y279000D02*
Y281000D01*
X1329000Y255000D02*
X1331000D01*
X1330000Y254000D02*
Y256000D01*
X1341500Y230000D02*
X1343500D01*
X1342500Y229000D02*
Y231000D01*
X1316500Y730000D02*
X1318500D01*
X1317500Y729000D02*
Y731000D01*
X1316500Y530000D02*
X1318500D01*
X1317500Y529000D02*
Y531000D01*
X1304000Y455000D02*
X1306000D01*
X1305000Y454000D02*
Y456000D01*
X1316500Y80000D02*
X1318500D01*
X1317500Y79000D02*
Y81000D01*
X1291500Y730000D02*
X1293500D01*
X1292500Y729000D02*
Y731000D01*
X1279000Y255000D02*
X1281000D01*
X1280000Y254000D02*
Y256000D01*
X1291500Y80000D02*
X1293500D01*
X1292500Y79000D02*
Y81000D01*
X1254000Y655000D02*
X1256000D01*
X1255000Y654000D02*
Y656000D01*
X1266500Y530000D02*
X1268500D01*
X1267500Y529000D02*
Y531000D01*
X1254000Y255000D02*
X1256000D01*
X1255000Y254000D02*
Y256000D01*
X1266500Y230000D02*
X1268500D01*
X1267500Y229000D02*
Y231000D01*
X1229000Y255000D02*
X1231000D01*
X1230000Y254000D02*
Y256000D01*
X1216500Y730000D02*
X1218500D01*
X1217500Y729000D02*
Y731000D01*
X1166500Y730000D02*
X1168500D01*
X1167500Y729000D02*
Y731000D01*
X1166500Y430000D02*
X1168500D01*
X1167500Y429000D02*
Y431000D01*
X1104000Y155000D02*
X1106000D01*
X1105000Y154000D02*
Y156000D01*
X1079000Y105000D02*
X1081000D01*
X1080000Y104000D02*
Y106000D01*
X1041500Y380000D02*
X1043500D01*
X1042500Y379000D02*
Y381000D01*
X1004000Y755000D02*
X1006000D01*
X1005000Y754000D02*
Y756000D01*
X979000Y755000D02*
X981000D01*
X980000Y754000D02*
Y756000D01*
X979000Y655000D02*
X981000D01*
X980000Y654000D02*
Y656000D01*
X966500Y680000D02*
X968500D01*
X967500Y679000D02*
Y681000D01*
X954000Y155000D02*
X956000D01*
X955000Y154000D02*
Y156000D01*
X929000Y755000D02*
X931000D01*
X930000Y754000D02*
Y756000D01*
X941500Y130000D02*
X943500D01*
X942500Y129000D02*
Y131000D01*
X929000Y105000D02*
X931000D01*
X930000Y104000D02*
Y106000D01*
X916500Y680000D02*
X918500D01*
X917500Y679000D02*
Y681000D01*
X916500Y80000D02*
X918500D01*
X917500Y79000D02*
Y81000D01*
X879000Y55000D02*
X881000D01*
X880000Y54000D02*
Y56000D01*
X816500Y580000D02*
X818500D01*
X817500Y579000D02*
Y581000D01*
X804000Y505000D02*
X806000D01*
X805000Y504000D02*
Y506000D01*
X804000Y55000D02*
X806000D01*
X805000Y54000D02*
Y56000D01*
X779000Y555000D02*
X781000D01*
X780000Y554000D02*
Y556000D01*
X779000Y105000D02*
X781000D01*
X780000Y104000D02*
Y106000D01*
X766500Y630000D02*
X768500D01*
X767500Y629000D02*
Y631000D01*
X741500Y130000D02*
X743500D01*
X742500Y129000D02*
Y131000D01*
X704000Y105000D02*
X706000D01*
X705000Y104000D02*
Y106000D01*
X629000Y155000D02*
X631000D01*
X630000Y154000D02*
Y156000D01*
X604000Y205000D02*
X606000D01*
X605000Y204000D02*
Y206000D01*
X604000Y155000D02*
X606000D01*
X605000Y154000D02*
Y156000D01*
X591500Y230000D02*
X593500D01*
X592500Y229000D02*
Y231000D01*
X579000Y105000D02*
X581000D01*
X580000Y104000D02*
Y106000D01*
X554000Y755000D02*
X556000D01*
X555000Y754000D02*
Y756000D01*
X554000Y155000D02*
X556000D01*
X555000Y154000D02*
Y156000D01*
X529000Y205000D02*
X531000D01*
X530000Y204000D02*
Y206000D01*
X541500Y180000D02*
X543500D01*
X542500Y179000D02*
Y181000D01*
X441500Y680000D02*
X443500D01*
X442500Y679000D02*
Y681000D01*
X429000Y655000D02*
X431000D01*
X430000Y654000D02*
Y656000D01*
X404000Y655000D02*
X406000D01*
X405000Y654000D02*
Y656000D01*
X379000Y655000D02*
X381000D01*
X380000Y654000D02*
Y656000D01*
X379000Y505000D02*
X381000D01*
X380000Y504000D02*
Y506000D01*
X379000Y455000D02*
X381000D01*
X380000Y454000D02*
Y456000D01*
X354000Y705000D02*
X356000D01*
X355000Y704000D02*
Y706000D01*
X354000Y655000D02*
X356000D01*
X355000Y654000D02*
Y656000D01*
X366500Y630000D02*
X368500D01*
X367500Y629000D02*
Y631000D01*
X354000Y505000D02*
X356000D01*
X355000Y504000D02*
Y506000D01*
X354000Y455000D02*
X356000D01*
X355000Y454000D02*
Y456000D01*
X329000Y655000D02*
X331000D01*
X330000Y654000D02*
Y656000D01*
X341500Y480000D02*
X343500D01*
X342500Y479000D02*
Y481000D01*
X329000Y405000D02*
X331000D01*
X330000Y404000D02*
Y406000D01*
X329000Y255000D02*
X331000D01*
X330000Y254000D02*
Y256000D01*
X304000Y655000D02*
X306000D01*
X305000Y654000D02*
Y656000D01*
X316500Y630000D02*
X318500D01*
X317500Y629000D02*
Y631000D01*
X304000Y505000D02*
X306000D01*
X305000Y504000D02*
Y506000D01*
X316500Y480000D02*
X318500D01*
X317500Y479000D02*
Y481000D01*
X316500Y430000D02*
X318500D01*
X317500Y429000D02*
Y431000D01*
X291500Y680000D02*
X293500D01*
X292500Y679000D02*
Y681000D01*
X279000Y605000D02*
X281000D01*
X280000Y604000D02*
Y606000D01*
X291500Y580000D02*
X293500D01*
X292500Y579000D02*
Y581000D01*
X279000Y555000D02*
X281000D01*
X280000Y554000D02*
Y556000D01*
X291500Y530000D02*
X293500D01*
X292500Y529000D02*
Y531000D01*
X291500Y480000D02*
X293500D01*
X292500Y479000D02*
Y481000D01*
X291500Y180000D02*
X293500D01*
X292500Y179000D02*
Y181000D01*
X266500Y530000D02*
X268500D01*
X267500Y529000D02*
Y531000D01*
X266500Y480000D02*
X268500D01*
X267500Y479000D02*
Y481000D01*
X266500Y430000D02*
X268500D01*
X267500Y429000D02*
Y431000D01*
X266500Y230000D02*
X268500D01*
X267500Y229000D02*
Y231000D01*
X216500Y680000D02*
X218500D01*
X217500Y679000D02*
Y681000D01*
X191500Y530000D02*
X193500D01*
X192500Y529000D02*
Y531000D01*
X179000Y455000D02*
X181000D01*
X180000Y454000D02*
Y456000D01*
X179000Y255000D02*
X181000D01*
X180000Y254000D02*
Y256000D01*
X179000Y205000D02*
X181000D01*
X180000Y204000D02*
Y206000D01*
X154000Y255000D02*
X156000D01*
X155000Y254000D02*
Y256000D01*
X154000Y55000D02*
X156000D01*
X155000Y54000D02*
Y56000D01*
X129000Y55000D02*
X131000D01*
X130000Y54000D02*
Y56000D01*
X104000Y55000D02*
X106000D01*
X105000Y54000D02*
Y56000D01*
X29000Y705000D02*
X31000D01*
X30000Y704000D02*
Y706000D01*
X326916Y330200D02*
X328916D01*
X327916Y329200D02*
Y331200D01*
X314914Y330200D02*
X316914D01*
X315914Y329200D02*
Y331200D01*
X338914Y330201D02*
X340914D01*
X339914Y329201D02*
Y331201D01*
X314914Y342201D02*
X316914D01*
X315914Y341201D02*
Y343201D01*
X326914Y342201D02*
X328914D01*
X327914Y341201D02*
Y343201D01*
X338914Y342201D02*
X340914D01*
X339914Y341201D02*
Y343201D01*
X338914Y318201D02*
X340914D01*
X339914Y317201D02*
Y319201D01*
X326914Y318201D02*
X328914D01*
X327914Y317201D02*
Y319201D01*
X314914Y318201D02*
X316914D01*
X315914Y317201D02*
Y319201D01*
X1507760Y454152D02*
X1509760D01*
X1508760Y453152D02*
Y455152D01*
X550926Y177225D02*
X552926D01*
X551926Y176225D02*
Y178225D01*
X567688Y274942D02*
X569688D01*
X568688Y273943D02*
Y275942D01*
X525045Y278745D02*
X527045D01*
X526045Y277745D02*
Y279746D01*
X927500Y712925D02*
X929500D01*
X928500Y711925D02*
Y713925D01*
X851630Y644394D02*
X853630D01*
X852630Y643394D02*
Y645394D01*
X844506Y652944D02*
X846506D01*
X845506Y651944D02*
Y653944D01*
X710664Y620257D02*
X712664D01*
X711664Y619257D02*
Y621257D01*
X773982Y620355D02*
X775982D01*
X774982Y619355D02*
Y621355D01*
X1346150Y147203D02*
X1348150D01*
X1347150Y146203D02*
Y148203D01*
X1243729Y147637D02*
X1245729D01*
X1244729Y146637D02*
Y148637D01*
X1446297Y149555D02*
X1448297D01*
X1447297Y148555D02*
Y150555D01*
X1718009Y139947D02*
X1720009D01*
X1719009Y138947D02*
Y140947D01*
X1766620Y111293D02*
X1768620D01*
X1767620Y110293D02*
Y112293D01*
X1751380Y111293D02*
X1753380D01*
X1752380Y110293D02*
Y112293D01*
X1736141Y111293D02*
X1738141D01*
X1737141Y110293D02*
Y112293D01*
X1760815Y100293D02*
X1762815D01*
X1761815Y99293D02*
Y101293D01*
X1745576Y100293D02*
X1747576D01*
X1746575Y99293D02*
Y101293D01*
X1730336Y100293D02*
X1732336D01*
X1731336Y99293D02*
Y101293D01*
X1705661Y87734D02*
X1707661D01*
X1706661Y86734D02*
Y88734D01*
X1720901Y87734D02*
X1722901D01*
X1721901Y86734D02*
Y88734D01*
X1736141Y87734D02*
X1738141D01*
X1737141Y86734D02*
Y88734D01*
X1751380Y87734D02*
X1753380D01*
X1752380Y86734D02*
Y88734D01*
X1766620Y87734D02*
X1768620D01*
X1767620Y86734D02*
Y88734D01*
X1641075Y102727D02*
X1643075D01*
X1642075Y101727D02*
Y103727D01*
X839519Y224621D02*
X841519D01*
X840519Y223621D02*
Y225621D01*
X839519Y234200D02*
X841519D01*
X840519Y233200D02*
Y235200D01*
X878315Y256248D02*
X880315D01*
X879315Y255248D02*
Y257248D01*
X836903Y90566D02*
X838903D01*
X837903Y89566D02*
Y91566D01*
X826056Y119118D02*
X828056D01*
X827056Y118118D02*
Y120118D01*
X831857Y149550D02*
X833857D01*
X832857Y148550D02*
Y150550D01*
X790210Y152595D02*
X792210D01*
X791210Y151595D02*
Y153595D01*
X998691Y618974D02*
X1000691D01*
X999691Y617974D02*
Y619974D01*
X169324Y133605D02*
X171324D01*
X170324Y132605D02*
Y134605D01*
X942563Y421243D02*
X944563D01*
X943563Y420243D02*
Y422243D01*
X901949Y465788D02*
X903949D01*
X902949Y464788D02*
Y466788D01*
X1209576Y48997D02*
X1211576D01*
X1210576Y47997D02*
Y49997D01*
X1143402Y61051D02*
X1145402D01*
X1144402Y60051D02*
Y62051D01*
X1173124Y53979D02*
X1175124D01*
X1174124Y52979D02*
Y54979D01*
X1233201Y53979D02*
X1235201D01*
X1234201Y52979D02*
Y54979D01*
X1203124Y53979D02*
X1205124D01*
X1204124Y52979D02*
Y54979D01*
X1160307Y204375D02*
X1162307D01*
X1161307Y203375D02*
Y205375D01*
X1196124Y378612D02*
X1198124D01*
X1197124Y377612D02*
Y379612D01*
X1190846Y372786D02*
X1192847D01*
X1191846Y371786D02*
Y373786D01*
X1185922Y367678D02*
X1187922D01*
X1186922Y366678D02*
Y368678D01*
X1295104Y230443D02*
X1297104D01*
X1296104Y229443D02*
Y231443D01*
X1277214Y230510D02*
X1279214D01*
X1278214Y229510D02*
Y231510D01*
X1259098Y230577D02*
X1261098D01*
X1260098Y229577D02*
Y231577D01*
X1238699Y230643D02*
X1240699D01*
X1239699Y229643D02*
Y231643D01*
X1213683Y247377D02*
X1215683D01*
X1214683Y246377D02*
Y248377D01*
X1223322Y256501D02*
X1225322D01*
X1224322Y255501D02*
Y257501D01*
X1213687Y256501D02*
X1215687D01*
X1214687Y255501D02*
Y257501D01*
X1205520Y225483D02*
X1207521D01*
X1206520Y224483D02*
Y226483D01*
X1157918Y166818D02*
X1159918D01*
X1158918Y165818D02*
Y167818D01*
X272968Y332736D02*
X274967D01*
X273967Y331736D02*
Y333736D01*
X1348248Y504444D02*
X1350248D01*
X1349248Y503444D02*
Y505444D01*
X1325756Y523361D02*
X1327756D01*
X1326756Y522361D02*
Y524361D01*
X1314212Y534924D02*
X1316212D01*
X1315212Y533924D02*
Y535924D01*
X1282970Y491998D02*
X1284970D01*
X1283970Y490998D02*
Y492998D01*
X1273572Y502158D02*
X1275572D01*
X1274572Y501158D02*
Y503158D01*
X1264119Y511191D02*
X1266119D01*
X1265119Y510191D02*
Y512191D01*
X1242866Y556621D02*
X1244866D01*
X1243866Y555621D02*
Y557621D01*
X462084Y381350D02*
X464084D01*
X463084Y380350D02*
Y382350D01*
X726413Y458728D02*
X728413D01*
X727413Y457728D02*
Y459728D01*
X727998Y478107D02*
X729998D01*
X728998Y477107D02*
Y479107D01*
X1746580Y647809D02*
X1748580D01*
X1747580Y646809D02*
Y648809D01*
X1723827Y652319D02*
X1725827D01*
X1724827Y651319D02*
Y653319D01*
X1696830Y520313D02*
X1698830D01*
X1697830Y519313D02*
Y521313D01*
X1689493Y552481D02*
X1691493D01*
X1690493Y551482D02*
Y553481D01*
X1719992Y445034D02*
X1721992D01*
X1720992Y444035D02*
Y446035D01*
X1708041Y482576D02*
X1710041D01*
X1709041Y481576D02*
Y483576D01*
X1677778Y647221D02*
X1679778D01*
X1678778Y646221D02*
Y648221D01*
X684169Y615414D02*
X686169D01*
X685169Y614414D02*
Y616414D01*
X507405Y452291D02*
X509405D01*
X508405Y451291D02*
Y453291D01*
X343599Y548297D02*
X345599D01*
X344599Y547297D02*
Y549297D01*
X343777Y557101D02*
X345777D01*
X344777Y556101D02*
Y558101D01*
X352403Y548119D02*
X354403D01*
X353403Y547119D02*
Y549119D01*
X352581Y556923D02*
X354581D01*
X353581Y555923D02*
Y557923D01*
X500810Y98550D02*
X502810D01*
X501810Y97550D02*
Y99550D01*
X303466Y100253D02*
X305466D01*
X304466Y99253D02*
Y101253D01*
X975734Y67484D02*
X977735D01*
X976734Y66483D02*
Y68484D01*
X912213Y149976D02*
X914213D01*
X913213Y148976D02*
Y150976D01*
X419739Y292758D02*
X421739D01*
X420739Y291758D02*
Y293758D01*
X418674Y351622D02*
X420674D01*
X419674Y350622D02*
Y352622D01*
X418930Y365700D02*
X420930D01*
X419930Y364700D02*
Y366700D01*
X534940Y191133D02*
X536940D01*
X535940Y190133D02*
Y192133D01*
X534940Y205040D02*
X536940D01*
X535940Y204040D02*
Y206040D01*
X601124Y184150D02*
X603124D01*
X602124Y183150D02*
Y185150D01*
X589550Y195798D02*
X591550D01*
X590550Y194798D02*
Y196798D01*
X578458Y207264D02*
X580458D01*
X579458Y206264D02*
Y208264D01*
X568334Y217409D02*
X570334D01*
X569334Y216409D02*
Y218409D01*
X607483Y195798D02*
X609483D01*
X608483Y194798D02*
Y196798D01*
X596154Y207264D02*
X598154D01*
X597154Y206264D02*
Y208264D01*
X586756Y217409D02*
X588756D01*
X587756Y216409D02*
Y218409D01*
X578458Y227291D02*
X580458D01*
X579458Y226291D02*
Y228291D01*
X617859Y184150D02*
X619860D01*
X618859Y183150D02*
Y185150D01*
X779710Y145477D02*
X781710D01*
X780710Y144477D02*
Y146477D01*
X855599Y132385D02*
X857599D01*
X856599Y131385D02*
Y133385D01*
X855599Y109220D02*
X857599D01*
X856599Y108220D02*
Y110220D01*
X855775Y120220D02*
X857775D01*
X856775Y119220D02*
Y121220D01*
X694198Y110566D02*
X696198D01*
X695198Y109566D02*
Y111566D01*
X694198Y96012D02*
X696198D01*
X695198Y95012D02*
Y97012D01*
X958273Y312635D02*
X960273D01*
X959273Y311635D02*
Y313635D01*
X958273Y304645D02*
X960273D01*
X959273Y303645D02*
Y305645D01*
X863370Y541136D02*
X865370D01*
X864370Y540136D02*
Y542136D01*
X863370Y552897D02*
X865370D01*
X864370Y551897D02*
Y553897D01*
X863370Y563197D02*
X865370D01*
X864370Y562197D02*
Y564197D01*
X863370Y573465D02*
X865370D01*
X864370Y572465D02*
Y574465D01*
X979186Y517686D02*
X981186D01*
X980186Y516686D02*
Y518686D01*
X1107643Y533474D02*
X1109643D01*
X1108643Y532473D02*
Y534473D01*
X1547335Y515010D02*
X1549335D01*
X1548335Y514010D02*
Y516010D01*
X1556471Y515010D02*
X1558471D01*
X1557471Y514010D02*
Y516010D01*
X1303882Y402942D02*
X1305882D01*
X1304882Y401942D02*
Y403942D01*
X1309479Y406875D02*
X1311479D01*
X1310479Y405875D02*
Y407875D01*
X1331831Y423944D02*
X1333831D01*
X1332831Y422944D02*
Y424944D01*
X1331445Y406875D02*
X1333445D01*
X1332445Y405875D02*
Y407875D01*
X1587220Y72898D02*
X1589220D01*
X1588219Y71898D02*
Y73898D01*
X1587220Y86217D02*
X1589220D01*
X1588219Y85217D02*
Y87217D01*
X1569120Y72898D02*
X1571120D01*
X1570120Y71898D02*
Y73898D01*
X1569120Y86217D02*
X1571120D01*
X1570120Y85217D02*
Y87217D01*
X1569120Y100227D02*
X1571120D01*
X1570120Y99227D02*
Y101227D01*
X1563116Y206335D02*
X1565116D01*
X1564116Y205335D02*
Y207335D01*
X1522621Y207900D02*
X1524621D01*
X1523621Y206900D02*
Y208900D01*
X1425674Y209094D02*
X1427674D01*
X1426674Y208094D02*
Y210094D01*
X1319478Y207253D02*
X1321478D01*
X1320477Y206253D02*
Y208253D01*
X1239035Y205177D02*
X1241035D01*
X1240035Y204177D02*
Y206177D01*
X1203203Y205380D02*
X1205203D01*
X1204203Y204380D02*
Y206380D01*
X1026696Y321758D02*
X1028697D01*
X1027697Y320758D02*
Y322758D01*
X1098375Y350816D02*
X1100375D01*
X1099375Y349816D02*
Y351816D01*
X1086352Y350816D02*
X1088352D01*
X1087352Y349816D02*
Y351816D01*
X1174506Y391948D02*
X1176506D01*
X1175506Y390947D02*
Y392948D01*
X1174506Y403615D02*
X1176506D01*
X1175506Y402615D02*
Y404615D01*
X1150221Y439883D02*
X1152221D01*
X1151221Y438883D02*
Y440883D01*
X1082779Y436077D02*
X1084779D01*
X1083779Y435077D02*
Y437077D01*
X1093106Y443565D02*
X1095106D01*
X1094106Y442565D02*
Y444565D01*
X1097883Y529605D02*
X1099883D01*
X1098883Y528605D02*
Y530605D01*
X1091471Y535115D02*
X1093471D01*
X1092471Y534115D02*
Y536115D01*
X1032590Y521007D02*
X1034590D01*
X1033590Y520008D02*
Y522007D01*
X1026212Y525947D02*
X1028212D01*
X1027212Y524947D02*
Y526947D01*
X1204627Y559491D02*
X1206627D01*
X1205627Y558491D02*
Y560491D01*
X878187Y309306D02*
X880187D01*
X879187Y308306D02*
Y310306D01*
X901371Y327914D02*
X903371D01*
X902371Y326914D02*
Y328914D01*
X890118Y327990D02*
X892118D01*
X891118Y326990D02*
Y328990D01*
X933949Y477179D02*
X935948D01*
X934949Y476179D02*
Y478179D01*
X948706Y462662D02*
X950706D01*
X949706Y461661D02*
Y463661D01*
X931164Y435293D02*
X933164D01*
X932164Y434293D02*
Y436293D01*
X941290Y469518D02*
X943290D01*
X942290Y468518D02*
Y470518D01*
X833889Y465788D02*
X835889D01*
X834889Y464788D02*
Y466788D01*
X819371Y461670D02*
X821371D01*
X820371Y460670D02*
Y462670D01*
X821820Y473734D02*
X823820D01*
X822820Y472734D02*
Y474734D01*
X812937Y481533D02*
X814937D01*
X813937Y480533D02*
Y482533D01*
X816003Y493268D02*
X818002D01*
X817002Y492268D02*
Y494268D01*
X804307Y510148D02*
X806307D01*
X805307Y509148D02*
Y511148D01*
X794632Y510368D02*
X796632D01*
X795632Y509368D02*
Y511368D01*
X785892Y584454D02*
X787892D01*
X786892Y583454D02*
Y585454D01*
X896261Y614172D02*
X898261D01*
X897261Y613172D02*
Y615172D01*
X885611Y614172D02*
X887611D01*
X886611Y613172D02*
Y615172D01*
X873522Y614172D02*
X875522D01*
X874522Y613172D02*
Y615172D01*
X877969Y680186D02*
X879969D01*
X878969Y679186D02*
Y681186D01*
X778288Y706882D02*
X780288D01*
X779288Y705882D02*
Y707882D01*
X755666Y706882D02*
X757666D01*
X756666Y705882D02*
Y707882D01*
X730724Y696053D02*
X732724D01*
X731724Y695053D02*
Y697053D01*
X718724Y696053D02*
X720724D01*
X719724Y695053D02*
Y697053D01*
X259096Y202870D02*
X261096D01*
X260096Y201870D02*
Y203870D01*
X259096Y218497D02*
X261096D01*
X260096Y217497D02*
Y219497D01*
X259096Y234442D02*
X261096D01*
X260096Y233442D02*
Y235442D01*
X395748Y408608D02*
X397748D01*
X396748Y407608D02*
Y409608D01*
X376664Y409156D02*
X378664D01*
X377664Y408156D02*
Y410156D01*
X267751Y441300D02*
X269751D01*
X268751Y440300D02*
Y442300D01*
X339538Y431276D02*
X341538D01*
X340538Y430276D02*
Y432276D01*
X395183Y477195D02*
X397183D01*
X396183Y476195D02*
Y478195D01*
X384318Y476598D02*
X386318D01*
X385318Y475598D02*
Y477598D01*
X370276Y460373D02*
X372276D01*
X371276Y459373D02*
Y461373D01*
X362651Y452120D02*
X364651D01*
X363651Y451120D02*
Y453120D01*
X349940Y497441D02*
X351940D01*
X350940Y496441D02*
Y498441D01*
X333777Y497441D02*
X335777D01*
X334777Y496441D02*
Y498441D01*
X1612645Y673488D02*
X1614645D01*
X1613645Y672488D02*
Y674488D01*
X332040Y481838D02*
X334040D01*
X333040Y480838D02*
Y482838D01*
X308975Y481838D02*
X310975D01*
X309975Y480838D02*
Y482838D01*
X297958Y494792D02*
X299958D01*
X298958Y493792D02*
Y495792D01*
X361456Y599186D02*
X363456D01*
X362456Y598186D02*
Y600186D01*
X349544Y599186D02*
X351544D01*
X350544Y598186D02*
Y600186D01*
X337593Y599186D02*
X339593D01*
X338593Y598186D02*
Y600186D01*
X326123Y599186D02*
X328123D01*
X327123Y598186D02*
Y600186D01*
X314620Y599186D02*
X316620D01*
X315620Y598186D02*
Y600186D01*
X772734Y596260D02*
X774734D01*
X773734Y595260D02*
Y597260D01*
X813841Y596613D02*
X815841D01*
X814841Y595612D02*
Y597612D01*
X802934Y596613D02*
X804934D01*
X803934Y595612D02*
Y597612D01*
X793134Y596613D02*
X795134D01*
X794134Y595612D02*
Y597612D01*
X783129Y596613D02*
X785129D01*
X784129Y595612D02*
Y597612D01*
X1273723Y204618D02*
X1275723D01*
X1274723Y203618D02*
Y205618D01*
X1375698Y181577D02*
X1377698D01*
X1376698Y180577D02*
Y182577D01*
X1478730Y191433D02*
X1480730D01*
X1479730Y190433D02*
Y192433D01*
X1575578Y144147D02*
X1577578D01*
X1576578Y143147D02*
Y145147D01*
X1569324Y144147D02*
X1571324D01*
X1570324Y143147D02*
Y145147D01*
X1562997Y144147D02*
X1564997D01*
X1563997Y143147D02*
Y145147D01*
X1510905Y150930D02*
X1512905D01*
X1511905Y149930D02*
Y151930D01*
X1478895Y151188D02*
X1480895D01*
X1479895Y150188D02*
Y152188D01*
X1157310Y159390D02*
X1159310D01*
X1158310Y158390D02*
Y160390D01*
X1164933Y159249D02*
X1166933D01*
X1165933Y158249D02*
Y160249D01*
X1265826Y144147D02*
X1267826D01*
X1266826Y143147D02*
Y145147D01*
X1257754Y144147D02*
X1259754D01*
X1258754Y143147D02*
Y145147D01*
X1384416Y144147D02*
X1386416D01*
X1385416Y143147D02*
Y145147D01*
X1376344Y144147D02*
X1378344D01*
X1377344Y143147D02*
Y145147D01*
X1368272Y144147D02*
X1370272D01*
X1369272Y143147D02*
Y145147D01*
X1360201Y144147D02*
X1362201D01*
X1361201Y143147D02*
Y145147D01*
X1227781Y166100D02*
X1229781D01*
X1228781Y165100D02*
Y167100D01*
X1218781Y166100D02*
X1220781D01*
X1219781Y165100D02*
Y167100D01*
X1330228Y166100D02*
X1332227D01*
X1331228Y165100D02*
Y167100D01*
X1321228Y166100D02*
X1323228D01*
X1322227Y165100D02*
Y167100D01*
X1535121Y166100D02*
X1537121D01*
X1536121Y165100D02*
Y167100D01*
X1526121Y166100D02*
X1528121D01*
X1527121Y165100D02*
Y167100D01*
X1432674Y166100D02*
X1434674D01*
X1433674Y165100D02*
Y167100D01*
X1423674Y166100D02*
X1425674D01*
X1424674Y165100D02*
Y167100D01*
X649996Y769019D02*
X651996D01*
X650996Y768019D02*
Y770019D01*
X641496Y769241D02*
X643496D01*
X642496Y768241D02*
Y770241D01*
X790379Y577467D02*
X792379D01*
X791379Y576466D02*
Y578466D01*
X798784Y567750D02*
X800785D01*
X799784Y566750D02*
Y568750D01*
X794686Y572503D02*
X796686D01*
X795686Y571503D02*
Y573503D01*
X1490457Y48997D02*
X1492457D01*
X1491457Y47997D02*
Y49997D01*
X1356138Y48997D02*
X1358138D01*
X1357138Y47997D02*
Y49997D01*
X538448Y107607D02*
X540448D01*
X539448Y106607D02*
Y108607D01*
X617617Y64114D02*
X619617D01*
X618617Y63114D02*
Y65114D01*
X624579Y64114D02*
X626578D01*
X625578Y63114D02*
Y65114D01*
X771500Y64444D02*
X773500D01*
X772500Y63444D02*
Y65444D01*
X777423Y64428D02*
X779423D01*
X778423Y63428D02*
Y65428D01*
X102431Y516613D02*
X104431D01*
X103431Y515613D02*
Y517613D01*
X101594Y416287D02*
X103594D01*
X102594Y415287D02*
Y417287D01*
X101472Y323895D02*
X103472D01*
X102472Y322895D02*
Y324895D01*
X19284Y646146D02*
X21284D01*
X20284Y645146D02*
Y647146D01*
X23536Y395268D02*
X25536D01*
X24536Y394268D02*
Y396268D01*
X23536Y380018D02*
X25536D01*
X24536Y379018D02*
Y381018D01*
X23536Y318711D02*
X25536D01*
X24536Y317711D02*
Y319711D01*
X23536Y390184D02*
X25536D01*
X24536Y389184D02*
Y391184D01*
X23536Y385101D02*
X25536D01*
X24536Y384101D02*
Y386101D01*
X217615Y607467D02*
X219615D01*
X218615Y606466D02*
Y608466D01*
X193412Y607424D02*
X195412D01*
X194412Y606423D02*
Y608424D01*
X193412Y629900D02*
X195412D01*
X194412Y628900D02*
Y630900D01*
X217778Y629900D02*
X219778D01*
X218778Y628900D02*
Y630900D01*
X217778Y618848D02*
X219778D01*
X218778Y617848D02*
Y619848D01*
X193412Y618848D02*
X195412D01*
X194412Y617848D02*
Y619848D01*
X205778Y618848D02*
X207778D01*
X206778Y617848D02*
Y619848D01*
X549703Y605123D02*
X551703D01*
X550703Y604123D02*
Y606123D01*
X559986Y616033D02*
X561986D01*
X560986Y615033D02*
Y617033D01*
X559986Y605123D02*
X561986D01*
X560986Y604123D02*
Y606123D01*
X554870Y610849D02*
X556870D01*
X555870Y609849D02*
Y611849D01*
X549703Y616033D02*
X551703D01*
X550703Y615033D02*
Y617033D01*
X575976Y598255D02*
X577976D01*
X576976Y597255D02*
Y599255D01*
X585089Y552077D02*
X587089D01*
X586089Y551077D02*
Y553077D01*
X275186Y412530D02*
X277186D01*
X276186Y411530D02*
Y413530D01*
X306022Y412530D02*
X308022D01*
X307022Y411530D02*
Y413530D01*
X290604Y412530D02*
X292604D01*
X291604Y411530D02*
Y413530D01*
X313731Y420143D02*
X315731D01*
X314731Y419143D02*
Y421143D01*
X298313Y420143D02*
X300313D01*
X299313Y419143D02*
Y421143D01*
X282895Y420143D02*
X284895D01*
X283895Y419143D02*
Y421143D01*
X321441Y412530D02*
X323441D01*
X322440Y411530D02*
Y413530D01*
X169710Y228752D02*
X171710D01*
X170710Y227752D02*
Y229752D01*
X169838Y236370D02*
X171838D01*
X170838Y235370D02*
Y237370D01*
X169838Y244117D02*
X171838D01*
X170838Y243117D02*
Y245117D01*
X169581Y205179D02*
X171581D01*
X170581Y204179D02*
Y206179D01*
X169710Y212797D02*
X171710D01*
X170710Y211797D02*
Y213797D01*
X169710Y220544D02*
X171710D01*
X170710Y219544D02*
Y221544D01*
X136842Y274929D02*
X138842D01*
X137842Y273929D02*
Y275929D01*
X144460Y274801D02*
X146460D01*
X145460Y273801D02*
Y275801D01*
X152207Y274801D02*
X154207D01*
X153207Y273801D02*
Y275801D01*
X113269Y275058D02*
X115269D01*
X114269Y274058D02*
Y276058D01*
X120887Y274929D02*
X122887D01*
X121887Y273929D02*
Y275929D01*
X128634Y274929D02*
X130634D01*
X129634Y273929D02*
Y275929D01*
X136502Y368593D02*
X138502D01*
X137502Y367593D02*
Y369593D01*
X144121Y368465D02*
X146121D01*
X145120Y367464D02*
Y369464D01*
X112929Y368722D02*
X114930D01*
X113930Y367722D02*
Y369722D01*
X120548Y368593D02*
X122548D01*
X121548Y367593D02*
Y369593D01*
X128295Y368593D02*
X130295D01*
X129295Y367593D02*
Y369593D01*
X173317Y435007D02*
X175317D01*
X174317Y434007D02*
Y436007D01*
X173317Y427260D02*
X175317D01*
X174317Y426260D02*
Y428260D01*
X173188Y419642D02*
X175188D01*
X174188Y418642D02*
Y420642D01*
X80023Y463651D02*
X82023D01*
X81023Y462651D02*
Y464651D01*
X72276Y463651D02*
X74276D01*
X73276Y462651D02*
Y464651D01*
X64657Y463780D02*
X66657D01*
X65657Y462780D02*
Y464780D01*
X104485Y463651D02*
X106485D01*
X105485Y462651D02*
Y464651D01*
X96738Y463651D02*
X98738D01*
X97738Y462651D02*
Y464651D01*
X89119Y463780D02*
X91119D01*
X90119Y462780D02*
Y464780D01*
X127984Y463651D02*
X129984D01*
X128984Y462651D02*
Y464651D01*
X120237Y463651D02*
X122237D01*
X121237Y462651D02*
Y464651D01*
X112619Y463780D02*
X114619D01*
X113619Y462780D02*
Y464780D01*
X151557Y463523D02*
X153557D01*
X152557Y462523D02*
Y464523D01*
X143810Y463523D02*
X145810D01*
X144810Y462523D02*
Y464523D01*
X136192Y463651D02*
X138192D01*
X137192Y462651D02*
Y464651D01*
X85210Y515377D02*
X87210D01*
X86209Y514377D02*
Y516377D01*
X156207Y503132D02*
X158207D01*
X157207Y502132D02*
Y504132D01*
X156079Y495514D02*
X158079D01*
X157079Y494514D02*
Y496514D01*
X156079Y487767D02*
X158079D01*
X157079Y486767D02*
Y488767D01*
X156207Y546232D02*
X158207D01*
X157207Y545233D02*
Y547233D01*
X156079Y538614D02*
X158079D01*
X157079Y537614D02*
Y539614D01*
X156079Y530867D02*
X158079D01*
X157079Y529867D02*
Y531867D01*
X156358Y645535D02*
X158358D01*
X157358Y644535D02*
Y646535D01*
X156229Y637917D02*
X158229D01*
X157229Y636917D02*
Y638917D01*
X156229Y630170D02*
X158229D01*
X157229Y629170D02*
Y631170D01*
X155454Y695072D02*
X157454D01*
X156454Y694072D02*
Y696072D01*
X155454Y702819D02*
X157454D01*
X156454Y701819D02*
Y703819D01*
X155583Y710437D02*
X157583D01*
X156583Y709437D02*
Y711437D01*
X546060Y519885D02*
X548060D01*
X547060Y518885D02*
Y520885D01*
X494998Y532104D02*
X496998D01*
X495998Y531104D02*
Y533104D01*
X1158167Y69022D02*
X1160167D01*
X1159167Y68022D02*
Y70023D01*
X1136885Y91052D02*
X1138885D01*
X1137885Y90052D02*
Y92052D01*
X1194940Y85013D02*
X1196940D01*
X1195940Y84012D02*
Y86012D01*
X359796Y661879D02*
X361796D01*
X360796Y660879D02*
Y662879D01*
X315135Y651534D02*
X317135D01*
X316135Y650534D02*
Y652534D01*
X756467Y625477D02*
X758467D01*
X757467Y624477D02*
Y626477D01*
X744490Y625477D02*
X746490D01*
X745490Y624477D02*
Y626477D01*
X648951Y618237D02*
X650951D01*
X649951Y617237D02*
Y619237D01*
X868564Y690222D02*
X870564D01*
X869564Y689222D02*
Y691222D01*
X283783Y607648D02*
X285783D01*
X284783Y606648D02*
Y608648D01*
X290308Y573479D02*
X292308D01*
X291308Y572479D02*
Y574479D01*
X290776Y553154D02*
X292776D01*
X291776Y552155D02*
Y554155D01*
X479206Y434792D02*
X481206D01*
X480206Y433792D02*
Y435792D01*
X466507Y133435D02*
X468507D01*
X467507Y132435D02*
Y134435D01*
X642350Y236416D02*
X644350D01*
X643350Y235416D02*
Y237416D01*
X1128030Y152954D02*
X1130030D01*
X1129030Y151953D02*
Y153954D01*
X1070534Y546646D02*
X1072534D01*
X1071534Y545646D02*
Y547646D01*
X1195727Y559897D02*
X1197727D01*
X1196727Y558897D02*
Y560897D01*
X1273734Y442316D02*
X1275734D01*
X1274734Y441316D02*
Y443316D01*
X1257024Y436331D02*
X1259024D01*
X1258024Y435331D02*
Y437331D01*
X1257024Y409767D02*
X1259024D01*
X1258024Y408767D02*
Y410767D01*
X1257024Y416472D02*
X1259024D01*
X1258024Y415472D02*
Y417472D01*
X1539722Y207253D02*
X1541722D01*
X1540722Y206253D02*
Y208253D01*
X1123995Y301661D02*
X1125995D01*
X1124995Y300662D02*
Y302661D01*
X1192584Y301597D02*
X1194584D01*
X1193584Y300597D02*
Y302596D01*
X1147971Y306015D02*
X1149971D01*
X1148971Y305015D02*
Y307015D01*
X970095Y332949D02*
X972095D01*
X971095Y331949D02*
Y333949D01*
X1063295Y337613D02*
X1065295D01*
X1064295Y336613D02*
Y338613D01*
X1058999Y356401D02*
X1060999D01*
X1059999Y355401D02*
Y357401D01*
X1067458Y292008D02*
X1069458D01*
X1068458Y291008D02*
Y293008D01*
X1202859Y290277D02*
X1204858D01*
X1203858Y289277D02*
Y291277D01*
X1364227Y274082D02*
X1366227D01*
X1365227Y273082D02*
Y275082D01*
X1384732Y369230D02*
X1386732D01*
X1385732Y368230D02*
Y370230D01*
X1373145Y286114D02*
X1375145D01*
X1374145Y285114D02*
Y287114D01*
X1368568Y462280D02*
X1370568D01*
X1369568Y461280D02*
Y463280D01*
X1546130Y186164D02*
X1548130D01*
X1547130Y185164D02*
Y187164D01*
X1531451Y200843D02*
X1533450D01*
X1532451Y199843D02*
Y201843D01*
X1360440Y468884D02*
X1362440D01*
X1361440Y467884D02*
Y469884D01*
X1350704Y487312D02*
X1352704D01*
X1351704Y486312D02*
Y488312D01*
X1331185Y397256D02*
X1333185D01*
X1332185Y396256D02*
Y398256D01*
X1324173Y290696D02*
X1326173D01*
X1325173Y289696D02*
Y291696D01*
X901500Y713135D02*
X903500D01*
X902500Y712135D02*
Y714135D01*
X561646Y696821D02*
X563646D01*
X562646Y695821D02*
Y697821D01*
X683040Y703925D02*
X685040D01*
X684040Y702925D02*
Y704925D01*
X574187Y701190D02*
X576187D01*
X575187Y700190D02*
Y702190D01*
X565826Y701190D02*
X567826D01*
X566826Y700190D02*
Y702190D01*
X914000Y713135D02*
X916000D01*
X915000Y712135D02*
Y714135D01*
X569992Y692150D02*
X571992D01*
X570992Y691150D02*
Y693150D01*
X693161Y693646D02*
X695161D01*
X694161Y692646D02*
Y694646D01*
X451538Y186926D02*
X453538D01*
X452538Y185926D02*
Y187926D01*
X731790Y150612D02*
X733790D01*
X732790Y149613D02*
Y151612D01*
X864175Y150039D02*
X866175D01*
X865175Y149039D02*
Y151039D01*
X646674Y150612D02*
X648674D01*
X647674Y149613D02*
Y151612D01*
X898959Y165021D02*
X900958D01*
X899958Y164021D02*
Y166021D01*
X641657Y157204D02*
X643657D01*
X642657Y156204D02*
Y158204D01*
X876461Y247288D02*
X878461D01*
X877461Y246288D02*
Y248288D01*
X870596Y320277D02*
X872596D01*
X871596Y319277D02*
Y321277D01*
X870093Y184608D02*
X872093D01*
X871093Y183608D02*
Y185608D01*
X1683163Y147324D02*
X1685163D01*
X1684162Y146324D02*
Y148324D01*
X1553457Y83127D02*
X1555457D01*
X1554457Y82127D02*
Y84127D01*
X1532174Y82967D02*
X1534174D01*
X1533174Y81967D02*
Y83967D01*
X1592850Y103517D02*
X1594850D01*
X1593850Y102517D02*
Y104517D01*
X1541015Y108804D02*
X1543015D01*
X1542015Y107804D02*
Y109804D01*
X1045480Y53340D02*
X1047480D01*
X1046480Y52340D02*
Y54340D01*
X1096445Y67205D02*
X1098446D01*
X1097446Y66205D02*
Y68205D01*
X989763Y177285D02*
X991764D01*
X990763Y176285D02*
Y178285D01*
X991352Y261399D02*
X993352D01*
X992352Y260399D02*
Y262399D01*
X633479Y88487D02*
X635479D01*
X634479Y87487D02*
Y89487D01*
X595849Y88152D02*
X597849D01*
X596849Y87152D02*
Y89152D01*
X670830Y88344D02*
X672830D01*
X671830Y87344D02*
Y89344D01*
X538448Y74040D02*
X540448D01*
X539448Y73039D02*
Y75040D01*
X940826Y221835D02*
X942826D01*
X941826Y220835D02*
Y222835D01*
X470569Y445572D02*
X472569D01*
X471569Y444572D02*
Y446572D01*
X506914Y546848D02*
X508914D01*
X507914Y545848D02*
Y547848D01*
X631327Y64428D02*
X633327D01*
X632327Y63428D02*
Y65428D01*
X910698Y74102D02*
X912698D01*
X911698Y73102D02*
Y75102D01*
X1123171Y165314D02*
X1125171D01*
X1124171Y164314D02*
Y166314D01*
X1121029Y216821D02*
X1123029D01*
X1122029Y215821D02*
Y217821D01*
X1176232Y110604D02*
X1178232D01*
X1177232Y109604D02*
Y111604D01*
X1070880Y103632D02*
X1072880D01*
X1071880Y102632D02*
Y104632D01*
X966769Y90264D02*
X968769D01*
X967769Y89264D02*
Y91264D01*
X1003395Y103926D02*
X1005395D01*
X1004395Y102926D02*
Y104926D01*
X984908Y97208D02*
X986908D01*
X985908Y96208D02*
Y98208D01*
X1003395Y150342D02*
X1005395D01*
X1004395Y149342D02*
Y151342D01*
X419982Y69286D02*
X421982D01*
X420983Y68286D02*
Y70286D01*
X1700800Y270090D02*
X1702800D01*
X1701800Y269090D02*
Y271090D01*
X1700800Y240538D02*
X1702800D01*
X1701800Y239538D02*
Y241538D01*
X1670985Y652841D02*
X1672985D01*
X1671985Y651841D02*
Y653841D01*
X625287Y744759D02*
X627287D01*
X626287Y743758D02*
Y745759D01*
X637791Y744759D02*
X639791D01*
X638791Y743758D02*
Y745759D01*
X650376Y744759D02*
X652376D01*
X651376Y743758D02*
Y745759D01*
X612787Y744759D02*
X614787D01*
X613787Y743758D02*
Y745759D01*
X675287Y744840D02*
X677287D01*
X676287Y743840D02*
Y745840D01*
X206009Y716239D02*
X208009D01*
X207009Y715239D02*
Y717239D01*
X105046Y717676D02*
X107046D01*
X106046Y716676D02*
Y718676D01*
X61308Y563319D02*
X63309D01*
X62309Y562319D02*
Y564319D01*
X441722Y687415D02*
X443722D01*
X442722Y686415D02*
Y688415D01*
X511172Y669444D02*
X513172D01*
X512172Y668444D02*
Y670444D01*
X231578Y329348D02*
X233578D01*
X232578Y328348D02*
Y330348D01*
X231578Y367019D02*
X233578D01*
X232578Y366019D02*
Y368019D01*
X231578Y358751D02*
X233578D01*
X232578Y357751D02*
Y359751D01*
X443577Y329813D02*
X445578D01*
X444577Y328813D02*
Y330813D01*
X435163Y329813D02*
X437163D01*
X436162Y328813D02*
Y330813D01*
X426748Y329813D02*
X428747D01*
X427747Y328813D02*
Y330813D01*
X443577Y338228D02*
X445578D01*
X444577Y337228D02*
Y339228D01*
X435163Y338228D02*
X437163D01*
X436162Y337228D02*
Y339228D01*
X426748Y338228D02*
X428747D01*
X427747Y337228D02*
Y339228D01*
X75200Y671576D02*
X77200D01*
X76200Y670576D02*
Y672576D01*
X410683Y285395D02*
X412683D01*
X411683Y284395D02*
Y286395D01*
X476249Y73050D02*
X478249D01*
X477249Y72050D02*
Y74050D01*
X341127Y63126D02*
X343127D01*
X342127Y62126D02*
Y64126D01*
X492210Y62796D02*
X494210D01*
X493210Y61796D02*
Y63796D01*
X361764Y73050D02*
X363764D01*
X362764Y72050D02*
Y74050D01*
X373113Y180228D02*
X375113D01*
X374113Y179228D02*
Y181228D01*
X386184Y180214D02*
X388184D01*
X387184Y179214D02*
Y181214D01*
X511452Y97263D02*
X513452D01*
X512452Y96264D02*
Y98264D01*
X356905Y96654D02*
X358905D01*
X357905Y95654D02*
Y97654D01*
X410683Y257288D02*
X412683D01*
X411683Y256288D02*
Y258288D01*
X417898Y285395D02*
X419898D01*
X418898Y284395D02*
Y286395D01*
X417898Y257302D02*
X419898D01*
X418898Y256302D02*
Y258302D01*
X1020296Y34841D02*
X1022296D01*
X1021296Y33841D02*
Y35841D01*
X263127Y312757D02*
X265127D01*
X264127Y311757D02*
Y313757D01*
X170119Y122861D02*
X172119D01*
X171119Y121861D02*
Y123862D01*
X104917Y710058D02*
X106917D01*
X105917Y709058D02*
Y711058D01*
X576900Y759000D02*
X578900D01*
X577900Y758000D02*
Y760000D01*
X938986Y761827D02*
X940986D01*
X939986Y760827D02*
Y762827D01*
X938986Y756798D02*
X940986D01*
X939986Y755798D02*
Y757798D01*
X564250Y759391D02*
X566250D01*
X565250Y758391D02*
Y760391D01*
X564281Y753574D02*
X566281D01*
X565281Y752574D02*
Y754574D01*
X876500Y744426D02*
X878500D01*
X877500Y743426D02*
Y745426D01*
X851500Y744426D02*
X853500D01*
X852500Y743426D02*
Y745426D01*
X839000Y744426D02*
X841000D01*
X840000Y743426D02*
Y745426D01*
X638970Y755757D02*
X640970D01*
X639970Y754757D02*
Y756757D01*
X982681Y736487D02*
X984681D01*
X983681Y735487D02*
Y737487D01*
X992140Y736600D02*
X994140D01*
X993140Y735600D02*
Y737600D01*
X1463983Y552948D02*
X1465983D01*
X1464983Y551948D02*
Y553948D01*
X1230960Y557267D02*
X1232960D01*
X1231960Y556267D02*
Y558267D01*
X1309640Y556260D02*
X1311640D01*
X1310640Y555260D02*
Y557260D01*
X1177246Y430184D02*
X1179246D01*
X1178246Y429184D02*
Y431184D01*
X1178169Y423067D02*
X1180169D01*
X1179169Y422067D02*
Y424067D01*
X1196449Y449588D02*
X1198449D01*
X1197449Y448588D02*
Y450588D01*
X1255609Y449580D02*
X1257609D01*
X1256609Y448580D02*
Y450580D01*
X1255609Y456390D02*
X1257609D01*
X1256609Y455390D02*
Y457389D01*
X1201872Y508339D02*
X1203872D01*
X1202872Y507339D02*
Y509339D01*
X1225151Y484472D02*
X1227151D01*
X1226151Y483472D02*
Y485472D01*
X1332092Y429260D02*
X1334092D01*
X1333092Y428260D02*
Y430260D01*
X1332092Y476319D02*
X1334092D01*
X1333092Y475319D02*
Y477319D01*
X1324880Y350520D02*
X1326880D01*
X1325880Y349520D02*
Y351520D01*
X1319218Y370728D02*
X1321218D01*
X1320218Y369729D02*
Y371729D01*
X1319218Y363455D02*
X1321218D01*
X1320218Y362455D02*
Y364455D01*
X1314930Y303848D02*
X1316930D01*
X1315930Y302848D02*
Y304848D01*
X1519185Y104703D02*
X1521185D01*
X1520185Y103702D02*
Y105702D01*
X1446214Y104076D02*
X1448214D01*
X1447214Y103076D02*
Y105076D01*
X1361671Y103179D02*
X1363672D01*
X1362672Y102179D02*
Y104179D01*
X1379979Y104885D02*
X1381979D01*
X1380979Y103885D02*
Y105885D01*
X1338844Y90041D02*
X1340844D01*
X1339844Y89040D02*
Y91040D01*
X498999Y604266D02*
X500999D01*
X499999Y603265D02*
Y605266D01*
X511059Y613617D02*
X513059D01*
X512059Y612617D02*
Y614617D01*
X482355Y606646D02*
X484355D01*
X483355Y605646D02*
Y607646D01*
X691417Y564676D02*
X693418D01*
X692418Y563676D02*
Y565676D01*
X889144Y477708D02*
X891144D01*
X890144Y476708D02*
Y478708D01*
X750840Y628641D02*
X752840D01*
X751840Y627641D02*
Y629641D01*
X761000Y628641D02*
X763000D01*
X762000Y627641D02*
Y629641D01*
X474304Y464958D02*
X476304D01*
X475304Y463958D02*
Y465958D01*
X420288Y405906D02*
X422288D01*
X421288Y404906D02*
Y406906D01*
X127016Y709168D02*
X129016D01*
X128016Y708168D02*
Y710168D01*
X877506Y191130D02*
X879506D01*
X878506Y190130D02*
Y192130D01*
X358194Y160010D02*
X360194D01*
X359194Y159010D02*
Y161010D01*
X358089Y168719D02*
X360089D01*
X359090Y167719D02*
Y169719D01*
X361764Y109220D02*
X363764D01*
X362764Y108220D02*
Y110220D01*
X398774Y676562D02*
X400774D01*
X399774Y675562D02*
Y677562D01*
X421023Y676669D02*
X423023D01*
X422023Y675669D02*
Y677669D01*
X428905Y624683D02*
X430905D01*
X429905Y623683D02*
Y625683D01*
X390883Y624565D02*
X392883D01*
X391883Y623565D02*
Y625565D01*
X580388Y534608D02*
X582388D01*
X581388Y533608D02*
Y535608D01*
X574624Y531317D02*
X576624D01*
X575624Y530317D02*
Y532317D01*
X569870Y527356D02*
X571870D01*
X570870Y526356D02*
Y528356D01*
X599769Y603343D02*
X601769D01*
X600769Y602343D02*
Y604343D01*
X625501Y563697D02*
X627501D01*
X626501Y562697D02*
Y564697D01*
X627223Y697173D02*
X629223D01*
X628223Y696173D02*
Y698173D01*
X639501Y697173D02*
X641501D01*
X640501Y696173D02*
Y698173D01*
X680256Y694212D02*
X682256D01*
X681256Y693212D02*
Y695212D01*
X668158Y693587D02*
X670158D01*
X669158Y692588D02*
Y694587D01*
X652102Y696938D02*
X654102D01*
X653102Y695938D02*
Y697938D01*
X596073Y609600D02*
X598073D01*
X597073Y608600D02*
Y610600D01*
X916173Y446747D02*
X918173D01*
X917173Y445747D02*
Y447747D01*
X924820Y447863D02*
X926820D01*
X925820Y446863D02*
Y448863D01*
X939449Y447769D02*
X941449D01*
X940449Y446769D02*
Y448769D01*
X864000Y744426D02*
X866000D01*
X865000Y743426D02*
Y745426D01*
X661960Y682517D02*
X663960D01*
X662960Y681517D02*
Y683517D01*
X1187975Y521581D02*
X1189975D01*
X1188975Y520581D02*
Y522581D01*
X1174971Y521583D02*
X1176971D01*
X1175971Y520583D02*
Y522583D01*
X706972Y748746D02*
X708972D01*
X707972Y747746D02*
Y749746D01*
X1161765Y503334D02*
X1163765D01*
X1162765Y502334D02*
Y504334D01*
X947663Y647809D02*
X949663D01*
X948663Y646809D02*
Y648809D01*
X1080146Y751964D02*
X1082146D01*
X1081146Y750964D02*
Y752964D01*
X1095146Y751964D02*
X1097146D01*
X1096146Y750964D02*
Y752964D01*
X1110152Y751903D02*
X1112152D01*
X1111152Y750903D02*
Y752903D01*
X1450957Y643986D02*
X1452957D01*
X1451957Y642986D02*
Y644986D01*
X1345198Y702634D02*
X1347198D01*
X1346198Y701634D02*
Y703634D01*
X1338432Y697794D02*
X1340432D01*
X1339431Y696794D02*
Y698794D01*
X1332872Y668208D02*
X1334872D01*
X1333872Y667208D02*
Y669208D01*
X1296500Y677500D02*
X1298500D01*
X1297500Y676500D02*
Y678500D01*
X1560161Y665162D02*
X1562161D01*
X1561161Y664162D02*
Y666162D01*
X1364000Y651912D02*
X1366000D01*
X1365000Y650912D02*
Y652912D01*
X1346928Y663545D02*
X1348928D01*
X1347928Y662545D02*
Y664545D01*
X1315739Y673529D02*
X1317738D01*
X1316738Y672529D02*
Y674529D01*
X1282685Y682500D02*
X1284685D01*
X1283685Y681500D02*
Y683500D01*
X1065140Y751909D02*
X1067140D01*
X1066140Y750909D02*
Y752909D01*
X1050017Y739773D02*
X1052017D01*
X1051017Y738773D02*
Y740773D01*
X1035156Y744766D02*
X1037156D01*
X1036156Y743766D02*
Y745766D01*
X968194Y564860D02*
X970194D01*
X969194Y563860D02*
Y565860D01*
X958315Y603266D02*
X960315D01*
X959315Y602266D02*
Y604266D01*
X1286761Y633907D02*
X1288761D01*
X1287761Y632906D02*
Y634907D01*
X1394155Y634702D02*
X1396155D01*
X1395155Y633702D02*
Y635702D01*
X1319953Y649079D02*
X1321953D01*
X1320953Y648079D02*
Y650079D01*
X1369263Y646115D02*
X1371263D01*
X1370263Y645115D02*
Y647115D01*
X1027481Y664671D02*
X1029481D01*
X1028481Y663671D02*
Y665671D01*
X1078206Y602410D02*
X1080206D01*
X1079206Y601410D02*
Y603410D01*
X1106921Y649079D02*
X1108921D01*
X1107921Y648079D02*
Y650079D01*
X1167192Y367773D02*
X1169192D01*
X1168192Y366773D02*
Y368773D01*
X1171890Y310098D02*
X1173890D01*
X1172890Y309098D02*
Y311098D01*
X1558642Y636008D02*
X1560642D01*
X1559642Y635008D02*
Y637008D01*
X1522577Y649350D02*
X1524577D01*
X1523577Y648350D02*
Y650350D01*
X1474235Y647939D02*
X1476235D01*
X1475235Y646939D02*
Y648939D01*
X1541754Y601437D02*
X1543754D01*
X1542754Y600437D02*
Y602436D01*
X1051094Y434584D02*
X1053094D01*
X1052094Y433584D02*
Y435584D01*
X578367Y696821D02*
X580367D01*
X579367Y695821D02*
Y697821D01*
X104917Y702311D02*
X106917D01*
X105917Y701311D02*
Y703311D01*
X460999Y704999D02*
X462999D01*
X461999Y703999D02*
Y705999D01*
X309999Y704999D02*
X311999D01*
X310999Y703999D02*
Y705999D01*
X477179Y681261D02*
X479179D01*
X478179Y680261D02*
Y682261D01*
X467992Y669444D02*
X469992D01*
X468992Y668444D02*
Y670444D01*
X501297Y682229D02*
X503297D01*
X502297Y681229D02*
Y683229D01*
X510641Y695406D02*
X512641D01*
X511641Y694406D02*
Y696406D01*
X486727Y687415D02*
X488727D01*
X487727Y686415D02*
Y688415D01*
X326228Y681261D02*
X328228D01*
X327228Y680261D02*
Y682261D01*
X359690Y695406D02*
X361690D01*
X360690Y694406D02*
Y696406D01*
X335777Y687415D02*
X337777D01*
X336777Y686415D02*
Y688415D01*
X288000Y646000D02*
X290000D01*
X289000Y645000D02*
Y647000D01*
X288000Y638396D02*
X290000D01*
X289000Y637396D02*
Y639396D01*
X239321Y95047D02*
X241321D01*
X240321Y94047D02*
Y96047D01*
X221031Y94342D02*
X223031D01*
X222031Y93342D02*
Y95342D01*
X770260Y73090D02*
X772260D01*
X771260Y72090D02*
Y74090D01*
X770688Y83672D02*
X772688D01*
X771688Y82672D02*
Y84672D01*
X802082Y99170D02*
X804082D01*
X803082Y98170D02*
Y100170D01*
X862119Y63472D02*
X864119D01*
X863119Y62472D02*
Y64472D01*
X783331Y64428D02*
X785331D01*
X784331Y63428D02*
Y65428D01*
X332005Y204365D02*
X334005D01*
X333005Y203365D02*
Y205365D01*
X1639814Y36444D02*
X1641814D01*
X1640813Y35444D02*
Y37444D01*
X1348336Y178605D02*
X1350336D01*
X1349335Y177605D02*
Y179606D01*
X1444682Y186849D02*
X1446682D01*
X1445682Y185849D02*
Y187849D01*
X209890Y94342D02*
X211890D01*
X210890Y93342D02*
Y95342D01*
X198750Y94342D02*
X200750D01*
X199750Y93342D02*
Y95342D01*
X292740Y332700D02*
X294739D01*
X293739Y331700D02*
Y333700D01*
X183039Y665931D02*
X185039D01*
X184039Y664931D02*
Y666931D01*
X152415Y133819D02*
X154415D01*
X153415Y132819D02*
Y134819D01*
X1086433Y470315D02*
X1088433D01*
X1087433Y469315D02*
Y471315D01*
X1627133Y592470D02*
X1629133D01*
X1628133Y591470D02*
Y593470D01*
X1110893Y580468D02*
X1112893D01*
X1111893Y579468D02*
Y581468D01*
X1100631Y580468D02*
X1102631D01*
X1101631Y579468D02*
Y581468D01*
X22752Y671672D02*
X24752D01*
X23752Y670672D02*
Y672672D01*
X1238520Y317447D02*
X1240520D01*
X1239520Y316447D02*
Y318447D01*
X896414Y518621D02*
X898414D01*
X897414Y517621D02*
Y519621D01*
X922044Y544899D02*
X924044D01*
X923044Y543899D02*
Y545899D01*
X632751Y258331D02*
X634751D01*
X633751Y257331D02*
Y259331D01*
X1102860Y286431D02*
X1104860D01*
X1103860Y285431D02*
Y287431D01*
X1047743Y286245D02*
X1049743D01*
X1048743Y285245D02*
Y287244D01*
X1086041Y287307D02*
X1088041D01*
X1087041Y286307D02*
Y288307D01*
X1078673Y372401D02*
X1080673D01*
X1079673Y371401D02*
Y373401D01*
X1139087Y372174D02*
X1141087D01*
X1140087Y371174D02*
Y373173D01*
X988410Y430083D02*
X990410D01*
X989410Y429083D02*
Y431083D01*
X1073558Y134425D02*
X1075558D01*
X1074558Y133425D02*
Y135425D01*
X1059378Y134422D02*
X1061378D01*
X1060378Y133422D02*
Y135422D01*
X921213Y143501D02*
X923213D01*
X922213Y142501D02*
Y144501D01*
X900724Y314887D02*
X902724D01*
X901724Y313887D02*
Y315887D01*
X878187Y342876D02*
X880187D01*
X879187Y341876D02*
Y343876D01*
X907261Y560272D02*
X909261D01*
X908261Y559272D02*
Y561272D01*
X890661Y573465D02*
X892661D01*
X891661Y572465D02*
Y574465D01*
X546947Y290156D02*
X548947D01*
X547947Y289156D02*
Y291156D01*
X484403Y307513D02*
X486403D01*
X485403Y306513D02*
Y308513D01*
X396067Y303996D02*
X398067D01*
X397067Y302996D02*
Y304996D01*
X494815Y319378D02*
X496815D01*
X495815Y318378D02*
Y320378D01*
X282388Y323204D02*
X284388D01*
X283388Y322204D02*
Y324204D01*
X762965Y467108D02*
X764965D01*
X763965Y466108D02*
Y468108D01*
X762885Y531350D02*
X764885D01*
X763885Y530350D02*
Y532350D01*
X794440Y523390D02*
X796440D01*
X795440Y522390D02*
Y524390D01*
X712746Y324195D02*
X714746D01*
X713746Y323195D02*
Y325195D01*
X1587948Y580468D02*
X1589948D01*
X1588948Y579468D02*
Y581468D01*
X1506721Y554680D02*
X1508721D01*
X1507721Y553680D02*
Y555680D01*
X1411257Y559089D02*
X1413257D01*
X1412257Y558088D02*
Y560089D01*
X68582Y515197D02*
X70582D01*
X69582Y514197D02*
Y516197D01*
X573909Y253832D02*
X575909D01*
X574909Y252833D02*
Y254832D01*
X395940Y330944D02*
X397940D01*
X396940Y329944D02*
Y331944D01*
X395940Y324746D02*
X397940D01*
X396940Y323746D02*
Y325746D01*
X395755Y337141D02*
X397755D01*
X396755Y336141D02*
Y338141D01*
X395755Y343338D02*
X397755D01*
X396755Y342338D02*
Y344338D01*
X348629Y369552D02*
X350629D01*
X349629Y368552D02*
Y370552D01*
X348629Y374302D02*
X350629D01*
X349629Y373302D02*
Y375302D01*
X348629Y378802D02*
X350629D01*
X349629Y377802D02*
Y379802D01*
X348629Y281414D02*
X350629D01*
X349629Y280414D02*
Y282414D01*
X348629Y286164D02*
X350629D01*
X349629Y285164D02*
Y287164D01*
X348629Y290664D02*
X350629D01*
X349629Y289664D02*
Y291664D01*
X305199Y281414D02*
X307199D01*
X306199Y280414D02*
Y282414D01*
X305199Y286164D02*
X307199D01*
X306199Y285164D02*
Y287164D01*
X305199Y290664D02*
X307199D01*
X306199Y289664D02*
Y291664D01*
X305199Y369552D02*
X307199D01*
X306199Y368552D02*
Y370552D01*
X305199Y374302D02*
X307199D01*
X306199Y373302D02*
Y375302D01*
X305199Y378802D02*
X307199D01*
X306199Y377802D02*
Y379802D01*
X172775Y359695D02*
X174775D01*
X173775Y358695D02*
Y360695D01*
X164895Y359719D02*
X166895D01*
X165895Y358719D02*
Y360719D01*
X176432Y364541D02*
X178432D01*
X177432Y363541D02*
Y365541D01*
X168883Y364869D02*
X170883D01*
X169883Y363869D02*
Y365869D01*
X160583Y364956D02*
X162583D01*
X161583Y363956D02*
Y365956D01*
X231578Y337610D02*
X233578D01*
X232578Y336610D02*
Y338610D01*
X1364836Y591891D02*
X1366836D01*
X1365836Y590891D02*
Y592891D01*
X1364836Y582407D02*
X1366836D01*
X1365836Y581407D02*
Y583407D01*
X1458474Y600018D02*
X1460474D01*
X1459474Y599018D02*
Y601018D01*
X1470007Y582680D02*
X1472007D01*
X1471007Y581680D02*
Y583680D01*
X1470007Y592164D02*
X1472007D01*
X1471007Y591163D02*
Y593163D01*
X1150771Y121014D02*
X1152771D01*
X1151771Y120014D02*
Y122014D01*
X1145706Y131614D02*
X1147706D01*
X1146706Y130614D02*
Y132614D01*
X1035399Y60358D02*
X1037399D01*
X1036399Y59358D02*
Y61358D01*
X1005399Y60358D02*
X1007399D01*
X1006399Y59358D02*
Y61358D01*
X945399Y60358D02*
X947399D01*
X946399Y59358D02*
Y61358D01*
X1267571Y110996D02*
X1269571D01*
X1268571Y109996D02*
Y111996D01*
X1270476Y123645D02*
X1272476D01*
X1271476Y122645D02*
Y124645D01*
X1292208Y117487D02*
X1294208D01*
X1293208Y116487D02*
Y118487D01*
X1302914Y143826D02*
X1304914D01*
X1303914Y142825D02*
Y144825D01*
X1320759Y147397D02*
X1322759D01*
X1321759Y146397D02*
Y148397D01*
X1394862Y143826D02*
X1396862D01*
X1395862Y142825D02*
Y144825D01*
X1502590Y72639D02*
X1504590D01*
X1503590Y71639D02*
Y73639D01*
X1583970Y122544D02*
X1585970D01*
X1584969Y121545D02*
Y123545D01*
X1622092Y144075D02*
X1624092D01*
X1623092Y143075D02*
Y145075D01*
X790569Y129006D02*
X792569D01*
X791569Y128006D02*
Y130006D01*
X825797Y128943D02*
X827797D01*
X826797Y127943D02*
Y129943D01*
X480757Y182730D02*
X482757D01*
X481757Y181730D02*
Y183730D01*
X412144Y226220D02*
X414144D01*
X413144Y225220D02*
Y227220D01*
X282626Y226260D02*
X284627D01*
X283626Y225260D02*
Y227260D01*
X348332Y226147D02*
X350332D01*
X349332Y225147D02*
Y227147D01*
X67427Y322660D02*
X69427D01*
X68427Y321660D02*
Y323660D01*
X61308Y573486D02*
X63309D01*
X62309Y572486D02*
Y574486D01*
X322335Y460021D02*
X324335D01*
X323335Y459021D02*
Y461021D01*
X182991Y586397D02*
X184991D01*
X183991Y585397D02*
Y587397D01*
X60402Y194499D02*
X62403D01*
X61403Y193499D02*
Y195499D01*
X60402Y199582D02*
X62403D01*
X61403Y198582D02*
Y200582D01*
X60402Y204665D02*
X62403D01*
X61403Y203665D02*
Y205665D01*
X60402Y209749D02*
X62403D01*
X61403Y208749D02*
Y210749D01*
X61308Y584472D02*
X63309D01*
X62309Y583472D02*
Y585472D01*
X61308Y589555D02*
X63309D01*
X62309Y588555D02*
Y590555D01*
X61308Y594638D02*
X63309D01*
X62309Y593638D02*
Y595638D01*
X60800Y480086D02*
X62800D01*
X61800Y479086D02*
Y481086D01*
X60800Y485169D02*
X62800D01*
X61800Y484169D02*
Y486169D01*
X60800Y490252D02*
X62800D01*
X61800Y489252D02*
Y491252D01*
X60800Y495336D02*
X62800D01*
X61800Y494336D02*
Y496336D01*
X60293Y379999D02*
X62292D01*
X61293Y378998D02*
Y380998D01*
X60293Y385082D02*
X62292D01*
X61293Y384082D02*
Y386082D01*
X60293Y390165D02*
X62292D01*
X61293Y389165D02*
Y391165D01*
X60293Y395248D02*
X62292D01*
X61293Y394248D02*
Y396248D01*
X59306Y287368D02*
X61305D01*
X60306Y286368D02*
Y288368D01*
X59306Y292452D02*
X61305D01*
X60306Y291452D02*
Y293452D01*
X59306Y297535D02*
X61305D01*
X60306Y296535D02*
Y298535D01*
X59306Y302618D02*
X61305D01*
X60306Y301618D02*
Y303618D01*
X162192Y98092D02*
X164191D01*
X163192Y97092D02*
Y99092D01*
X162192Y103175D02*
X164191D01*
X163192Y102175D02*
Y104175D01*
X162192Y108258D02*
X164191D01*
X163192Y107258D02*
Y109258D01*
X162192Y113342D02*
X164191D01*
X163192Y112342D02*
Y114342D01*
X324618Y98625D02*
X326618D01*
X325618Y97625D02*
Y99625D01*
X730090Y83544D02*
X732090D01*
X731090Y82544D02*
Y84544D01*
X796599Y672189D02*
X798599D01*
X797599Y671189D02*
Y673189D01*
X665287Y573927D02*
X667287D01*
X666287Y572926D02*
Y574926D01*
X671579Y579093D02*
X673579D01*
X672579Y578093D02*
Y580093D01*
X658748Y569063D02*
X660748D01*
X659748Y568063D02*
Y570063D01*
X1548497Y147795D02*
X1550497D01*
X1549497Y146796D02*
Y148795D01*
X1441024Y123163D02*
X1443024D01*
X1442024Y122163D02*
Y124163D01*
X119401Y282822D02*
X121401D01*
X120401Y281822D02*
Y283822D01*
X108260Y282822D02*
X110260D01*
X109260Y281822D02*
Y283822D01*
X119401Y375532D02*
X121401D01*
X120401Y374532D02*
Y376532D01*
X108260Y375532D02*
X110260D01*
X109260Y374532D02*
Y376532D01*
X97120Y375532D02*
X99120D01*
X98120Y374532D02*
Y376532D01*
X120237Y475540D02*
X122237D01*
X121237Y474540D02*
Y476540D01*
X109097Y475540D02*
X111097D01*
X110097Y474540D02*
Y476540D01*
X97956Y475540D02*
X99956D01*
X98956Y474540D02*
Y476540D01*
X230888Y551533D02*
X232888D01*
X231888Y550533D02*
Y552533D01*
X230888Y539323D02*
X232888D01*
X231888Y538323D02*
Y540323D01*
X230888Y563840D02*
X232888D01*
X231888Y562840D02*
Y564840D01*
X171262Y641490D02*
X173262D01*
X172262Y640490D02*
Y642490D01*
X178948Y641490D02*
X180948D01*
X179948Y640490D02*
Y642490D01*
X186633Y641490D02*
X188633D01*
X187633Y640490D02*
Y642490D01*
X206009Y710058D02*
X208009D01*
X207009Y709058D02*
Y711058D01*
X206009Y702311D02*
X208009D01*
X207009Y701311D02*
Y703311D01*
X174182Y596524D02*
X176182D01*
X175182Y595524D02*
Y597524D01*
X183286Y596524D02*
X185286D01*
X184286Y595524D02*
Y597524D01*
X138021Y573997D02*
X140021D01*
X139021Y572997D02*
Y574997D01*
X138021Y568913D02*
X140021D01*
X139021Y567913D02*
Y569913D01*
X138021Y563830D02*
X140021D01*
X139021Y562830D02*
Y564830D01*
X124984Y671830D02*
X126984D01*
X125984Y670830D02*
Y672830D01*
X135652Y671830D02*
X137652D01*
X136652Y670830D02*
Y672830D01*
X146320Y671576D02*
X148320D01*
X147320Y670576D02*
Y672576D01*
X130318Y665734D02*
X132318D01*
X131318Y664734D02*
Y666734D01*
X141240Y665988D02*
X143240D01*
X142240Y664988D02*
Y666988D01*
X242814Y666148D02*
X244814D01*
X243814Y665148D02*
Y667148D01*
X231892Y665894D02*
X233892D01*
X232892Y664894D02*
Y666894D01*
X247894Y671736D02*
X249894D01*
X248894Y670736D02*
Y672736D01*
X237226Y671990D02*
X239226D01*
X238226Y670990D02*
Y672990D01*
X226558Y671990D02*
X228558D01*
X227558Y670990D02*
Y672990D01*
X362071Y327667D02*
X364071D01*
X363071Y326667D02*
Y328667D01*
X474869Y300859D02*
X476869D01*
X475869Y299859D02*
Y301859D01*
X554684Y331859D02*
X556684D01*
X555684Y330859D02*
Y332859D01*
X270094Y317700D02*
X272094D01*
X271094Y316700D02*
Y318700D01*
X459061Y290887D02*
X461061D01*
X460061Y289887D02*
Y291887D01*
X488802Y314806D02*
X490802D01*
X489802Y313806D02*
Y315806D01*
X319160Y297950D02*
X321160D01*
X320160Y296950D02*
Y298950D01*
X326914Y297700D02*
X328914D01*
X327914Y296700D02*
Y298700D01*
X334629Y297950D02*
X336629D01*
X335629Y296950D02*
Y298950D01*
X1281969Y170939D02*
X1283969D01*
X1282969Y169939D02*
Y171939D01*
X1273897Y170939D02*
X1275897D01*
X1274897Y169939D02*
Y171939D01*
X1265826Y170939D02*
X1267826D01*
X1266826Y169939D02*
Y171939D01*
X1257754Y170939D02*
X1259754D01*
X1258754Y169939D02*
Y171939D01*
X1360201Y170939D02*
X1362201D01*
X1361201Y169939D02*
Y171939D01*
X1368272Y170939D02*
X1370272D01*
X1369272Y169939D02*
Y171939D01*
X1376344Y170939D02*
X1378344D01*
X1377344Y169939D02*
Y171939D01*
X1384416Y170939D02*
X1386416D01*
X1385416Y169939D02*
Y171939D01*
X1392487Y170939D02*
X1394487D01*
X1393487Y169939D02*
Y171939D01*
X1462648Y170939D02*
X1464648D01*
X1463647Y169939D02*
Y171939D01*
X1470719Y170939D02*
X1472719D01*
X1471719Y169939D02*
Y171939D01*
X1478791Y170939D02*
X1480791D01*
X1479791Y169939D02*
Y171939D01*
X1486862Y170939D02*
X1488862D01*
X1487862Y169939D02*
Y171939D01*
X1494934Y170939D02*
X1496934D01*
X1495934Y169939D02*
Y171939D01*
X1562997Y170939D02*
X1564997D01*
X1563997Y169939D02*
Y171939D01*
X1569324Y170939D02*
X1571324D01*
X1570324Y169939D02*
Y171939D01*
X1575578Y170939D02*
X1577578D01*
X1576578Y169939D02*
Y171939D01*
X1193951Y170842D02*
X1195951D01*
X1194951Y169842D02*
Y171842D01*
X1187624Y170939D02*
X1189624D01*
X1188624Y169939D02*
Y171939D01*
X1181370Y170939D02*
X1183370D01*
X1182370Y169939D02*
Y171939D01*
X61308Y568402D02*
X63309D01*
X62309Y567402D02*
Y569403D01*
X206040Y146050D02*
X208040D01*
X207040Y145050D02*
Y147050D01*
X181747Y146238D02*
X183747D01*
X182747Y145238D02*
Y147238D01*
X181915Y170740D02*
X183915D01*
X182915Y169740D02*
Y171740D01*
X205864Y170777D02*
X207864D01*
X206864Y169777D02*
Y171777D01*
X105397Y627300D02*
X107397D01*
X106397Y626300D02*
Y628300D01*
X81104Y627488D02*
X83104D01*
X82104Y626488D02*
Y628488D01*
X81272Y651990D02*
X83272D01*
X82272Y650990D02*
Y652990D01*
X105221Y652027D02*
X107221D01*
X106221Y651027D02*
Y653027D01*
X105246Y527998D02*
X107247D01*
X106247Y526997D02*
Y528997D01*
X80953Y528185D02*
X82953D01*
X81953Y527185D02*
Y529185D01*
X81122Y552687D02*
X83122D01*
X82122Y551688D02*
Y553688D01*
X105070Y552724D02*
X107070D01*
X106070Y551724D02*
Y553724D01*
X104410Y427990D02*
X106410D01*
X105410Y426990D02*
Y428990D01*
X80117Y428178D02*
X82117D01*
X81117Y427178D02*
Y429178D01*
X80285Y452680D02*
X82285D01*
X81285Y451680D02*
Y453680D01*
X104234Y452717D02*
X106234D01*
X105234Y451717D02*
Y453717D01*
X104410Y335280D02*
X106410D01*
X105410Y334280D02*
Y336280D01*
X80117Y335468D02*
X82117D01*
X81117Y334468D02*
Y336468D01*
X80285Y359970D02*
X82285D01*
X81285Y358970D02*
Y360970D01*
X104234Y360007D02*
X106234D01*
X105234Y359007D02*
Y361007D01*
X104380Y240030D02*
X106380D01*
X105380Y239030D02*
Y241030D01*
X80087Y240218D02*
X82087D01*
X81087Y239218D02*
Y241218D01*
X80255Y264720D02*
X82255D01*
X81255Y263720D02*
Y265720D01*
X104204Y264757D02*
X106204D01*
X105204Y263757D02*
Y265757D01*
X80280Y665988D02*
X82280D01*
X81280Y664988D02*
Y666988D01*
X85868Y671830D02*
X87868D01*
X86868Y670830D02*
Y672830D01*
X98060Y671830D02*
X100060D01*
X99060Y670830D02*
Y672830D01*
X177334Y671990D02*
X179334D01*
X178334Y670990D02*
Y672990D01*
X188002Y671990D02*
X190002D01*
X189002Y670990D02*
Y672990D01*
X166666Y671736D02*
X168666D01*
X167666Y670736D02*
Y672736D01*
X507225Y603349D02*
X509225D01*
X508225Y602349D02*
Y604349D01*
X363297Y568262D02*
X365297D01*
X364297Y567262D02*
Y569262D01*
X332581Y566923D02*
X334581D01*
X333581Y565923D02*
Y567923D01*
X382581Y536923D02*
X384581D01*
X383581Y535923D02*
Y537923D01*
X382581Y566923D02*
X384581D01*
X383581Y565923D02*
Y567923D01*
X332581Y546923D02*
X334581D01*
X333581Y545923D02*
Y547923D01*
X373312Y587051D02*
X375312D01*
X374313Y586051D02*
Y588051D01*
X373624Y535880D02*
X375624D01*
X374624Y534880D02*
Y536880D01*
X404763Y582929D02*
X406763D01*
X405764Y581929D02*
Y583929D01*
X363777Y527101D02*
X365777D01*
X364777Y526101D02*
Y528101D01*
X472015Y608759D02*
X474015D01*
X473015Y607759D02*
Y609759D01*
X725948Y529734D02*
X727948D01*
X726948Y528733D02*
Y530733D01*
X526023Y608349D02*
X528023D01*
X527024Y607349D02*
Y609349D01*
X749824Y559408D02*
X751824D01*
X750824Y558408D02*
Y560408D01*
X349127Y418503D02*
X351127D01*
X350127Y417503D02*
Y419503D01*
X359934Y353822D02*
X361934D01*
X360934Y352822D02*
Y354822D01*
X277130Y454791D02*
X279130D01*
X278130Y453791D02*
Y455791D01*
X1563262Y521301D02*
X1565262D01*
X1564261Y520301D02*
Y522301D01*
X1423982Y575317D02*
X1425982D01*
X1424982Y574317D02*
Y576317D01*
X1328656Y575317D02*
X1330656D01*
X1329656Y574317D02*
Y576317D01*
X1674675Y563168D02*
X1676675D01*
X1675675Y562169D02*
Y564169D01*
X1394430Y546003D02*
X1396430D01*
X1395430Y545003D02*
Y547003D01*
X1499968Y540743D02*
X1501968D01*
X1500968Y539743D02*
Y541743D01*
X1299252Y546100D02*
X1301252D01*
X1300252Y545100D02*
Y547100D01*
X1182386Y333190D02*
X1184386D01*
X1183386Y332190D02*
Y334190D01*
X1086298Y318655D02*
X1088298D01*
X1087298Y317655D02*
Y319655D01*
X1030623Y328241D02*
X1032623D01*
X1031623Y327241D02*
Y329241D01*
X1047931Y324025D02*
X1049931D01*
X1048931Y323025D02*
Y325025D01*
X1021500Y414425D02*
X1023500D01*
X1022500Y413425D02*
Y415425D01*
X1039063Y418063D02*
X1041063D01*
X1040063Y417063D02*
Y419063D01*
X1021500Y459728D02*
X1023500D01*
X1022500Y458728D02*
Y460728D01*
X1046509Y470161D02*
X1048509D01*
X1047509Y469161D02*
Y471161D01*
X1066951Y470023D02*
X1068951D01*
X1067951Y469023D02*
Y471023D01*
X1173468Y470200D02*
X1175468D01*
X1174468Y469199D02*
Y471199D01*
X1206004Y436972D02*
X1208004D01*
X1207004Y435972D02*
Y437972D01*
X1194546Y351709D02*
X1196546D01*
X1195546Y350709D02*
Y352709D01*
X1134430Y441724D02*
X1136431D01*
X1135431Y440724D02*
Y442724D01*
X1031535Y285542D02*
X1033535D01*
X1032535Y284542D02*
Y286542D01*
X1182386Y314198D02*
X1184386D01*
X1183386Y313198D02*
Y315198D01*
X1021500Y439728D02*
X1023500D01*
X1022500Y438728D02*
Y440728D01*
X1095133Y403557D02*
X1097133D01*
X1096133Y402557D02*
Y404557D01*
X922597Y521013D02*
X924597D01*
X923597Y520014D02*
Y522014D01*
X557466Y692451D02*
X559466D01*
X558466Y691451D02*
Y693451D01*
X1138818Y447060D02*
X1140818D01*
X1139818Y446060D02*
Y448060D01*
X1152156Y453528D02*
X1154156D01*
X1153156Y452528D02*
Y454528D01*
X902265Y593254D02*
X904266D01*
X903266Y592253D02*
Y594254D01*
X1007386Y530552D02*
X1009386D01*
X1008386Y529552D02*
Y531552D01*
X541290Y224536D02*
X543290D01*
X542290Y223536D02*
Y225536D01*
X534940Y218948D02*
X536940D01*
X535940Y217948D02*
Y219948D01*
X511737Y207800D02*
X513737D01*
X512737Y206800D02*
Y208800D01*
X758895Y518121D02*
X760895D01*
X759895Y517121D02*
Y519121D01*
X503716Y207800D02*
X505716D01*
X504716Y206800D02*
Y208800D01*
X1101739Y539713D02*
X1103739D01*
X1102739Y538713D02*
Y540713D01*
X1018534Y514436D02*
X1020534D01*
X1019534Y513436D02*
Y515436D01*
X939200Y373829D02*
X941200D01*
X940200Y372829D02*
Y374829D01*
X1404702Y90542D02*
X1406702D01*
X1405702Y89542D02*
Y91542D01*
X1464326Y102222D02*
X1466326D01*
X1465326Y101222D02*
Y103222D01*
X975544Y462662D02*
X977544D01*
X976544Y461661D02*
Y463661D01*
X1113723Y351463D02*
X1115723D01*
X1114723Y350463D02*
Y352463D01*
X875891Y236723D02*
X877891D01*
X876891Y235723D02*
Y237723D01*
X903058Y255773D02*
X905058D01*
X904058Y254773D02*
Y256773D01*
X875891Y223724D02*
X877891D01*
X876891Y222724D02*
Y224724D01*
X880651Y210613D02*
X882651D01*
X881651Y209613D02*
Y211613D01*
X908035Y216863D02*
X910035D01*
X909035Y215863D02*
Y217863D01*
X838270Y150612D02*
X840270D01*
X839270Y149613D02*
Y151612D01*
X1109872Y521679D02*
X1111872D01*
X1110872Y520679D02*
Y522679D01*
X456013Y257288D02*
X458013D01*
X457013Y256288D02*
Y258288D01*
X462042Y267208D02*
X464042D01*
X463042Y266208D02*
Y268208D01*
X462084Y272494D02*
X464084D01*
X463084Y271494D02*
Y273494D01*
X625959Y203402D02*
X627959D01*
X626959Y202402D02*
Y204402D01*
X970344Y371959D02*
X972344D01*
X971344Y370959D02*
Y372958D01*
X959377Y355686D02*
X961376D01*
X960377Y354686D02*
Y356686D01*
X956268Y369188D02*
X958268D01*
X957268Y368188D02*
Y370188D01*
X970253Y326917D02*
X972253D01*
X971253Y325917D02*
Y327917D01*
X636777Y549519D02*
X638777D01*
X637777Y548519D02*
Y550519D01*
X851630Y633041D02*
X853630D01*
X852630Y632042D02*
Y634041D01*
X1496513Y138830D02*
X1498513D01*
X1497513Y137830D02*
Y139830D01*
X1251366Y60750D02*
X1253366D01*
X1252366Y59750D02*
Y61750D01*
X1255530Y85293D02*
X1257530D01*
X1256530Y84292D02*
Y86292D01*
X1006963Y157037D02*
X1008963D01*
X1007963Y156037D02*
Y158037D01*
X1114800Y150584D02*
X1116800D01*
X1115800Y149584D02*
Y151584D01*
X1141382Y121020D02*
X1143382D01*
X1142382Y120020D02*
Y122020D01*
X1156023Y217329D02*
X1158023D01*
X1157023Y216329D02*
Y218329D01*
X1150330Y215264D02*
X1152330D01*
X1151330Y214264D02*
Y216264D01*
X1311914Y103672D02*
X1313914D01*
X1312914Y102671D02*
Y104671D01*
X1494806Y86614D02*
X1496806D01*
X1495806Y85614D02*
Y87614D01*
X954244Y411441D02*
X956244D01*
X955244Y410441D02*
Y412441D01*
X910184Y382444D02*
X912184D01*
X911184Y381444D02*
Y383444D01*
X918137Y382344D02*
X920137D01*
X919137Y381344D02*
Y383344D01*
X894184Y384891D02*
X896184D01*
X895184Y383891D02*
Y385891D01*
X902119Y524813D02*
X904119D01*
X903119Y523813D02*
Y525813D01*
X907261Y532082D02*
X909261D01*
X908261Y531082D02*
Y533082D01*
X909439Y321310D02*
X911439D01*
X910439Y320310D02*
Y322310D01*
X1083933Y521638D02*
X1085933D01*
X1084933Y520638D02*
Y522638D01*
X913640Y316484D02*
X915640D01*
X914640Y315484D02*
Y317484D01*
X943392Y404114D02*
X945392D01*
X944392Y403114D02*
Y405114D01*
X1203560Y455895D02*
X1205560D01*
X1204560Y454895D02*
Y456895D01*
X1024971Y285542D02*
X1026971D01*
X1025971Y284542D02*
Y286542D01*
X1270820Y285229D02*
X1272820D01*
X1271820Y284229D02*
Y286229D01*
X1261481Y284979D02*
X1263481D01*
X1262481Y283979D02*
Y285979D01*
X802910Y150612D02*
X804910D01*
X803910Y149613D02*
Y151612D01*
X836894Y99220D02*
X838894D01*
X837894Y98220D02*
Y100220D01*
X1080024Y448564D02*
X1082024D01*
X1081024Y447564D02*
Y449564D01*
X1206461Y429260D02*
X1208461D01*
X1207461Y428260D02*
Y430260D01*
X1162542Y470180D02*
X1164542D01*
X1163542Y469180D02*
Y471180D01*
X1186490Y470180D02*
X1188490D01*
X1187490Y469180D02*
Y471180D01*
X1197797Y410710D02*
X1199797D01*
X1198797Y409710D02*
Y411710D01*
X1072013Y397441D02*
X1074013D01*
X1073013Y396441D02*
Y398441D01*
X1107657Y543338D02*
X1109657D01*
X1108657Y542338D02*
Y544338D01*
X1094231Y229248D02*
X1096231D01*
X1095231Y228248D02*
Y230248D01*
X1563091Y529089D02*
X1565092D01*
X1564091Y528088D02*
Y530089D01*
X1259818Y68574D02*
X1261818D01*
X1260818Y67574D02*
Y69574D01*
X1259856Y75438D02*
X1261856D01*
X1260856Y74438D02*
Y76438D01*
X1276649Y145095D02*
X1278649D01*
X1277649Y144095D02*
Y146095D01*
X1283952Y145144D02*
X1285952D01*
X1284952Y144144D02*
Y146144D01*
X1271734Y116622D02*
X1273734D01*
X1272734Y115622D02*
Y117622D01*
X1271734Y105463D02*
X1273734D01*
X1272734Y104463D02*
Y106463D01*
X1320526Y197851D02*
X1322527D01*
X1321526Y196851D02*
Y198851D01*
X862461Y69934D02*
X864461D01*
X863461Y68934D02*
Y70934D01*
X1309479Y392932D02*
X1311479D01*
X1310479Y391932D02*
Y393932D01*
X1270004Y385653D02*
X1272004D01*
X1271004Y384653D02*
Y386653D01*
X1273405Y397115D02*
X1275405D01*
X1274405Y396115D02*
Y398115D01*
X1269754Y402672D02*
X1271754D01*
X1270754Y401672D02*
Y403672D01*
X861427Y455407D02*
X863427D01*
X862427Y454407D02*
Y456407D01*
X815356Y519176D02*
X817356D01*
X816356Y518176D02*
Y520176D01*
X766570Y99220D02*
X768570D01*
X767570Y98220D02*
Y100220D01*
X1187765Y234082D02*
X1189765D01*
X1188765Y233082D02*
Y235082D01*
X970213Y345414D02*
X972213D01*
X971213Y344414D02*
Y346414D01*
X970718Y353287D02*
X972718D01*
X971718Y352286D02*
Y354286D01*
X942267Y320734D02*
X944267D01*
X943267Y319734D02*
Y321734D01*
X942356Y327914D02*
X944356D01*
X943356Y326914D02*
Y328914D01*
X941935Y310151D02*
X943934D01*
X942934Y309151D02*
Y311151D01*
X937803Y306140D02*
X939803D01*
X938803Y305140D02*
Y307140D01*
X928894Y307848D02*
X930894D01*
X929894Y306848D02*
Y308848D01*
X920316Y345414D02*
X922316D01*
X921316Y344414D02*
Y346414D01*
X924665Y368808D02*
X926665D01*
X925665Y367808D02*
Y369808D01*
X904510Y437134D02*
X906510D01*
X905510Y436134D02*
Y438134D01*
X84373Y322660D02*
X86373D01*
X85373Y321660D02*
Y323660D01*
X84373Y415370D02*
X86373D01*
X85373Y414370D02*
Y416370D01*
X85360Y614680D02*
X87360D01*
X86360Y613680D02*
Y615680D01*
X994279Y182653D02*
X996279D01*
X995279Y181653D02*
Y183653D01*
X985766Y254189D02*
X987766D01*
X986766Y253189D02*
Y255189D01*
X981472Y260858D02*
X983472D01*
X982472Y259858D02*
Y261858D01*
X977154Y254000D02*
X979154D01*
X978154Y253000D02*
Y255000D01*
X954620Y293571D02*
X956620D01*
X955620Y292571D02*
Y294571D01*
X958512Y287523D02*
X960512D01*
X959512Y286523D02*
Y288523D01*
X1040860Y229818D02*
X1042860D01*
X1041860Y228818D02*
Y230818D01*
X1047532Y229818D02*
X1049531D01*
X1048531Y228818D02*
Y230818D01*
X886735Y451432D02*
X888735D01*
X887735Y450432D02*
Y452432D01*
X84343Y227410D02*
X86343D01*
X85343Y226410D02*
Y228410D01*
X235700Y288488D02*
X237700D01*
X236700Y287488D02*
Y289488D01*
X218738Y294341D02*
X220738D01*
X219738Y293341D02*
Y295341D01*
X217948Y488696D02*
X219948D01*
X218948Y487696D02*
Y489696D01*
X235257Y488696D02*
X237257D01*
X236257Y487696D02*
Y489696D01*
X230554Y497033D02*
X232554D01*
X231554Y496033D02*
Y498033D01*
X211752Y571545D02*
X213752D01*
X212752Y570545D02*
Y572545D01*
X622824Y177800D02*
X624824D01*
X623824Y176800D02*
Y178800D01*
X1077867Y169865D02*
X1079867D01*
X1078867Y168865D02*
Y170865D01*
X1054203Y229818D02*
X1056203D01*
X1055203Y228818D02*
Y230818D01*
X624692Y301324D02*
X626692D01*
X625692Y300324D02*
Y302324D01*
X577365Y323157D02*
X579365D01*
X578365Y322157D02*
Y324157D01*
X576894Y317252D02*
X578894D01*
X577894Y316252D02*
Y318252D01*
X749846Y505569D02*
X751846D01*
X750846Y504569D02*
Y506569D01*
X749824Y511965D02*
X751824D01*
X750824Y510965D02*
Y512965D01*
X745965Y543626D02*
X747965D01*
X746965Y542626D02*
Y544626D01*
X745978Y537098D02*
X747978D01*
X746978Y536097D02*
Y538097D01*
X490394Y378974D02*
X492394D01*
X491394Y377974D02*
Y379974D01*
X1076471Y503508D02*
X1078471D01*
X1077471Y502508D02*
Y504508D01*
X1141031Y215478D02*
X1143031D01*
X1142031Y214478D02*
Y216478D01*
X917718Y310456D02*
X919718D01*
X918718Y309456D02*
Y311456D01*
X817621Y202621D02*
X819621D01*
X818621Y201621D02*
Y203621D01*
X809621Y202621D02*
X811621D01*
X810621Y201621D02*
Y203621D01*
X933466Y302006D02*
X935466D01*
X934466Y301006D02*
Y303006D01*
X607574Y353291D02*
X609574D01*
X608574Y352291D02*
Y354291D01*
X360234Y316105D02*
X362234D01*
X361234Y315105D02*
Y317105D01*
X977177Y320751D02*
X979177D01*
X978177Y319751D02*
Y321751D01*
X1142193Y363620D02*
X1144193D01*
X1143193Y362620D02*
Y364620D01*
X269156Y364048D02*
X271156D01*
X270156Y363048D02*
Y365048D01*
X290164Y338980D02*
X292164D01*
X291164Y337980D02*
Y339980D01*
X290129Y352002D02*
X292129D01*
X291129Y351002D02*
Y353002D01*
X1194567Y231165D02*
X1196567D01*
X1195567Y230165D02*
Y232165D01*
X1025055Y304157D02*
X1027055D01*
X1026055Y303157D02*
Y305157D01*
X958121Y339619D02*
X960121D01*
X959121Y338619D02*
Y340619D01*
X1040863Y223162D02*
X1042863D01*
X1041863Y222162D02*
Y224163D01*
X1535121Y175602D02*
X1537121D01*
X1536121Y174602D02*
Y176602D01*
X1432674Y175602D02*
X1434674D01*
X1433674Y174602D02*
Y176602D01*
X1227781Y175602D02*
X1229781D01*
X1228781Y174602D02*
Y176602D01*
X1108051Y223126D02*
X1110051D01*
X1109051Y222126D02*
Y224126D01*
X1074593Y235721D02*
X1076593D01*
X1075593Y234721D02*
Y236721D01*
X1452095Y188279D02*
X1454095D01*
X1453095Y187279D02*
Y189279D01*
X805835Y672956D02*
X807835D01*
X806835Y671956D02*
Y673956D01*
X970213Y306218D02*
X972213D01*
X971213Y305218D02*
Y307218D01*
X965412Y299690D02*
X967411D01*
X966412Y298690D02*
Y300690D01*
X1180238Y204573D02*
X1182238D01*
X1181238Y203573D02*
Y205573D01*
X1223322Y216673D02*
X1225322D01*
X1224322Y215673D02*
Y217673D01*
X1212974Y216673D02*
X1214974D01*
X1213974Y215673D02*
Y217673D01*
X1232261Y207064D02*
X1234260D01*
X1233260Y206064D02*
Y208064D01*
X1201221Y357073D02*
X1203222D01*
X1202222Y356073D02*
Y358073D01*
X1201231Y337305D02*
X1203231D01*
X1202231Y336305D02*
Y338305D01*
X1158233Y286541D02*
X1160233D01*
X1159233Y285541D02*
Y287541D01*
X1093740Y286724D02*
X1095740D01*
X1094740Y285724D02*
Y287724D01*
X609108Y151892D02*
X611108D01*
X610108Y150892D02*
Y152892D01*
X1261481Y357073D02*
X1263481D01*
X1262481Y356073D02*
Y358073D01*
X683784Y150612D02*
X685784D01*
X684784Y149613D02*
Y151612D01*
X1261432Y337305D02*
X1263432D01*
X1262432Y336305D02*
Y338305D01*
X571770Y151892D02*
X573770D01*
X572770Y150892D02*
Y152892D01*
X1640814Y137067D02*
X1642814D01*
X1641814Y136067D02*
Y138067D01*
X1261481Y383550D02*
X1263481D01*
X1262481Y382551D02*
Y384551D01*
X1152568Y388112D02*
X1154568D01*
X1153568Y387112D02*
Y389112D01*
X1206411Y409767D02*
X1208411D01*
X1207411Y408767D02*
Y410767D01*
X999368Y556233D02*
X1001368D01*
X1000368Y555233D02*
Y557233D01*
X1261386Y343559D02*
X1263386D01*
X1262386Y342559D02*
Y344559D01*
X1261481Y324157D02*
X1263481D01*
X1262481Y323157D02*
Y325157D01*
X1261432Y330808D02*
X1263432D01*
X1262432Y329808D02*
Y331808D01*
X1206411Y399801D02*
X1208411D01*
X1207411Y398801D02*
Y400801D01*
X1149231Y521529D02*
X1151231D01*
X1150231Y520529D02*
Y522529D01*
X1142384Y521679D02*
X1144384D01*
X1143384Y520679D02*
Y522679D01*
X1090452Y521760D02*
X1092452D01*
X1091452Y520760D02*
Y522760D01*
X449298Y257302D02*
X451298D01*
X450298Y256302D02*
Y258302D01*
X444237Y285395D02*
X446237D01*
X445237Y284395D02*
Y286395D01*
X490394Y384328D02*
X492394D01*
X491394Y383328D02*
Y385328D01*
X490449Y390248D02*
X492449D01*
X491449Y389248D02*
Y391248D01*
X1134354Y215478D02*
X1136354D01*
X1135354Y214478D02*
Y216478D01*
X1130807Y111760D02*
X1132807D01*
X1131807Y110760D02*
Y112760D01*
X1116496Y521851D02*
X1118496D01*
X1117496Y520851D02*
Y522851D01*
X1135584Y521876D02*
X1137584D01*
X1136584Y520877D02*
Y522877D01*
X1103071Y521876D02*
X1105071D01*
X1104071Y520877D02*
Y522877D01*
X1129467Y521760D02*
X1131467D01*
X1130467Y520760D02*
Y522760D01*
X644154Y524882D02*
X646154D01*
X645154Y523882D02*
Y525882D01*
X472567Y537683D02*
X474567D01*
X473568Y536683D02*
Y538683D01*
X472567Y549621D02*
X474567D01*
X473568Y548621D02*
Y550621D01*
X472567Y561559D02*
X474567D01*
X473568Y560559D02*
Y562559D01*
X472567Y525745D02*
X474567D01*
X473568Y524745D02*
Y526745D01*
X472567Y573497D02*
X474567D01*
X473568Y572497D02*
Y574497D01*
X472567Y513807D02*
X474567D01*
X473568Y512807D02*
Y514807D01*
X472567Y489931D02*
X474567D01*
X473568Y488931D02*
Y490931D01*
X472567Y501869D02*
X474567D01*
X473568Y500869D02*
Y502869D01*
X472567Y585435D02*
X474567D01*
X473568Y584435D02*
Y586435D01*
X472567Y597373D02*
X474567D01*
X473568Y596373D02*
Y598373D01*
X474913Y379079D02*
X476913D01*
X475913Y378079D02*
Y380079D01*
X686435Y553513D02*
X688435D01*
X687435Y552513D02*
Y554513D01*
X700503Y559408D02*
X702503D01*
X701503Y558408D02*
Y560408D01*
X1718034Y104906D02*
X1720034D01*
X1719034Y103906D02*
Y105906D01*
X1334829Y207253D02*
X1336829D01*
X1335829Y206253D02*
Y208253D01*
X1554338Y183096D02*
X1556338D01*
X1555338Y182096D02*
Y184096D01*
X449298Y401828D02*
X451298D01*
X450298Y400828D02*
Y402828D01*
X455298Y401828D02*
X457298D01*
X456298Y400828D02*
Y402828D01*
X461298Y401828D02*
X463298D01*
X462298Y400828D02*
Y402828D01*
X461298Y257302D02*
X463298D01*
X462298Y256302D02*
Y258302D01*
X462084Y387350D02*
X464084D01*
X463084Y386350D02*
Y388350D01*
X462084Y393350D02*
X464084D01*
X463084Y392350D02*
Y394350D01*
X462084Y277780D02*
X464084D01*
X463084Y276780D02*
Y278780D01*
X130266Y499615D02*
X132266D01*
X131266Y498615D02*
Y500615D01*
X129430Y399607D02*
X131430D01*
X130430Y398607D02*
Y400607D01*
X158483Y596524D02*
X160483D01*
X159483Y595524D02*
Y597524D01*
X152415Y115274D02*
X154415D01*
X153415Y114274D02*
Y116274D01*
X157466Y209254D02*
X159466D01*
X158466Y208253D02*
Y210254D01*
X157496Y304503D02*
X159496D01*
X158496Y303503D02*
Y305504D01*
X361513Y433991D02*
X363513D01*
X362513Y432991D02*
Y434991D01*
X378701Y426720D02*
X380701D01*
X379701Y425720D02*
Y427720D01*
X1261481Y297679D02*
X1263481D01*
X1262481Y296679D02*
Y298679D01*
X1261481Y310980D02*
X1263481D01*
X1262481Y309980D02*
Y311980D01*
X1261481Y317600D02*
X1263481D01*
X1262481Y316600D02*
Y318600D01*
X1063683Y542485D02*
X1065683D01*
X1064683Y541485D02*
Y543485D01*
X1057534Y546930D02*
X1059534D01*
X1058534Y545930D02*
Y547930D01*
X1050683Y542485D02*
X1052683D01*
X1051683Y541485D02*
Y543485D01*
X1044534Y546930D02*
X1046534D01*
X1045534Y545930D02*
Y547930D01*
X601715Y325147D02*
X603715D01*
X602715Y324147D02*
Y326147D01*
X1116471Y503496D02*
X1118471D01*
X1117471Y502496D02*
Y504496D01*
X1111393Y503465D02*
X1113393D01*
X1112393Y502465D02*
Y504465D01*
X1044909Y521735D02*
X1046909D01*
X1045909Y520735D02*
Y522735D01*
X1038406Y521735D02*
X1040406D01*
X1039406Y520735D02*
Y522735D01*
X1057826Y521654D02*
X1059826D01*
X1058826Y520654D02*
Y522654D01*
X1051026Y521851D02*
X1053026D01*
X1052026Y520851D02*
Y522851D01*
X488802Y342761D02*
X490802D01*
X489802Y341761D02*
Y343761D01*
X289188Y327750D02*
X291188D01*
X290188Y326750D02*
Y328750D01*
X462935Y332592D02*
X464935D01*
X463935Y331592D02*
Y333592D01*
X477821Y356584D02*
X479821D01*
X478821Y355584D02*
Y357584D01*
X264362Y342800D02*
X266362D01*
X265362Y341800D02*
Y343800D01*
X762307Y491772D02*
X764307D01*
X763307Y490772D02*
Y492772D01*
X571945Y289767D02*
X573945D01*
X572945Y288767D02*
Y290767D01*
X509869Y457352D02*
X511869D01*
X510869Y456352D02*
Y458352D01*
X386914Y354923D02*
X388914D01*
X387914Y353923D02*
Y355923D01*
X381626Y349504D02*
X383626D01*
X382626Y348504D02*
Y350504D01*
X622241Y350405D02*
X624241D01*
X623241Y349404D02*
Y351404D01*
X488802Y323806D02*
X490802D01*
X489802Y322806D02*
Y324806D01*
X488802Y333761D02*
X490802D01*
X489802Y332761D02*
Y334761D01*
X350346Y682229D02*
X352346D01*
X351346Y681229D02*
Y683229D01*
X317041Y669444D02*
X319041D01*
X318041Y668444D02*
Y670444D01*
X490776Y585066D02*
X492776D01*
X491776Y584066D02*
Y586066D01*
X516290Y240335D02*
X518290D01*
X517290Y239335D02*
Y241335D01*
X497032Y546893D02*
X499032D01*
X498032Y545893D02*
Y547893D01*
X460570Y352362D02*
X462570D01*
X461570Y351362D02*
Y353362D01*
X508290Y484767D02*
X510290D01*
X509290Y483767D02*
Y485766D01*
X368230Y226320D02*
X370230D01*
X369230Y225320D02*
Y227320D01*
X433303Y226407D02*
X435303D01*
X434303Y225407D02*
Y227407D01*
X507424Y229574D02*
X509424D01*
X508424Y228574D02*
Y230574D01*
X513071Y231940D02*
X515071D01*
X514071Y230940D02*
Y232940D01*
X486680Y208257D02*
X488680D01*
X487680Y207257D02*
Y209257D01*
X531068Y157431D02*
X533068D01*
X532068Y156432D02*
Y158432D01*
X125330Y75500D02*
X127330D01*
X126330Y74500D02*
Y76500D01*
X120240Y81594D02*
X122240D01*
X121240Y80594D02*
Y82594D01*
X1005602Y546862D02*
X1007602D01*
X1006602Y545862D02*
Y547862D01*
X228776Y300099D02*
X230776D01*
X229776Y299099D02*
Y301099D01*
X1460335Y652841D02*
X1462335D01*
X1461335Y651841D02*
Y653841D01*
X1037683Y542485D02*
X1039683D01*
X1038683Y541485D02*
Y543485D01*
X1031534Y546930D02*
X1033534D01*
X1032534Y545930D02*
Y547930D01*
X1011751Y542417D02*
X1013751D01*
X1012751Y541417D02*
Y543417D01*
X1018534Y546930D02*
X1020534D01*
X1019534Y545930D02*
Y547930D01*
X1443244Y623062D02*
X1445244D01*
X1444244Y622062D02*
Y624062D01*
X1253672Y623806D02*
X1255672D01*
X1254672Y622806D02*
Y624806D01*
X1637000Y45720D02*
X1639000D01*
X1638000Y44720D02*
Y46720D01*
X1652552Y115231D02*
X1654552D01*
X1653552Y114231D02*
Y116231D01*
X1652598Y122446D02*
X1654598D01*
X1653598Y121446D02*
Y123446D01*
X1663862Y103532D02*
X1665862D01*
X1664862Y102532D02*
Y104532D01*
X1542066Y116588D02*
X1544066D01*
X1543066Y115588D02*
Y117588D01*
X1302703Y103566D02*
X1304703D01*
X1303703Y102566D02*
Y104566D01*
X1397288Y116622D02*
X1399288D01*
X1398288Y115622D02*
Y117622D01*
X1396237Y108838D02*
X1398237D01*
X1397237Y107838D02*
Y109838D01*
X1349924Y624466D02*
X1351924D01*
X1350924Y623466D02*
Y625466D01*
X102795Y146274D02*
X104795D01*
X103795Y145274D02*
Y147274D01*
X102964Y170777D02*
X104964D01*
X103964Y169777D02*
Y171777D01*
X79015Y170740D02*
X81015D01*
X80015Y169740D02*
Y171740D01*
X78847Y146238D02*
X80847D01*
X79847Y145238D02*
Y147238D01*
X1021480Y359709D02*
X1023481D01*
X1022480Y358709D02*
Y360709D01*
X1422897Y647809D02*
X1424897D01*
X1423897Y646809D02*
Y648809D01*
X1264909Y649079D02*
X1266909D01*
X1265909Y648079D02*
Y650079D01*
X1212246Y649079D02*
X1214246D01*
X1213246Y648079D02*
Y650079D01*
X1159584Y648919D02*
X1161584D01*
X1160584Y647919D02*
Y649919D01*
X767096Y150612D02*
X769096D01*
X768096Y149613D02*
Y151612D01*
X730090Y99220D02*
X732090D01*
X731090Y98220D02*
Y100220D01*
X134322Y392757D02*
X136322D01*
X135322Y391757D02*
Y393756D01*
X135158Y492764D02*
X137158D01*
X136158Y491764D02*
Y493764D01*
X99890Y572655D02*
X101890D01*
X100890Y571655D02*
Y573655D01*
X203500Y133350D02*
X205500D01*
X204500Y132350D02*
Y134350D01*
X102857Y614600D02*
X104857D01*
X103857Y613600D02*
Y615600D01*
X94551Y576113D02*
X96551D01*
X95551Y575113D02*
Y577113D01*
X105691Y576113D02*
X107691D01*
X106691Y575113D02*
Y577113D01*
X119371Y187572D02*
X121371D01*
X120371Y186572D02*
Y188572D01*
X108230Y187572D02*
X110230D01*
X109230Y186572D02*
Y188572D01*
X120240Y69496D02*
X122240D01*
X121240Y68496D02*
Y70496D01*
X110059Y69496D02*
X112059D01*
X111059Y68496D02*
Y70496D01*
X110059Y81594D02*
X112059D01*
X111059Y80594D02*
Y82594D01*
X351480Y180086D02*
X353480D01*
X352480Y179086D02*
Y181086D01*
X1091471Y503508D02*
X1093471D01*
X1092471Y502508D02*
Y504508D01*
X1096704Y503692D02*
X1098704D01*
X1097704Y502692D02*
Y504692D01*
X1122948Y503496D02*
X1124948D01*
X1123948Y502496D02*
Y504496D01*
X1135828Y503496D02*
X1137828D01*
X1136828Y502496D02*
Y504496D01*
X1129451Y503496D02*
X1131451D01*
X1130451Y502496D02*
Y504496D01*
X1142652Y503496D02*
X1144652D01*
X1143652Y502496D02*
Y504496D01*
X1069847Y192905D02*
X1071847D01*
X1070847Y191905D02*
Y193905D01*
X1064528Y197770D02*
X1066528D01*
X1065528Y196770D02*
Y198770D01*
X1524206Y197861D02*
X1526206D01*
X1525206Y196861D02*
Y198860D01*
X1515436Y192583D02*
X1517436D01*
X1516436Y191583D02*
Y193583D01*
X1490470Y177354D02*
X1492470D01*
X1491470Y176354D02*
Y178354D01*
X1557295Y174249D02*
X1559295D01*
X1558295Y173249D02*
Y175249D01*
X1328446Y202731D02*
X1330446D01*
X1329446Y201731D02*
Y203731D01*
X1352402Y174249D02*
X1354402D01*
X1353402Y173249D02*
Y175249D01*
X1437275Y207253D02*
X1439275D01*
X1438275Y206253D02*
Y208253D01*
X1430892Y202731D02*
X1432892D01*
X1431892Y201731D02*
Y203731D01*
X1421759Y197861D02*
X1423759D01*
X1422759Y196861D02*
Y198860D01*
X1388024Y177354D02*
X1390023D01*
X1389023Y176354D02*
Y178354D01*
X1454848Y174249D02*
X1456848D01*
X1455848Y173249D02*
Y175249D01*
X1206461Y344671D02*
X1208461D01*
X1207461Y343671D02*
Y345671D01*
X1036490Y470180D02*
X1038490D01*
X1037490Y469180D02*
Y471180D01*
X1046471Y255461D02*
X1048471D01*
X1047471Y254461D02*
Y256461D01*
X1141471Y255461D02*
X1143471D01*
X1142471Y254461D02*
Y256461D01*
X1216866Y197861D02*
X1218866D01*
X1217866Y196861D02*
Y198860D01*
X1225999Y202731D02*
X1227999D01*
X1226999Y201731D02*
Y203731D01*
X115149Y75545D02*
X117149D01*
X116149Y74545D02*
Y76545D01*
X104969Y75545D02*
X106968D01*
X105969Y74545D02*
Y76545D01*
X416277Y180086D02*
X418277D01*
X417277Y179086D02*
Y181086D01*
X428867Y180086D02*
X430867D01*
X429867Y179086D02*
Y181086D01*
X371337Y119903D02*
X373337D01*
X372337Y118903D02*
Y120903D01*
X339193Y114388D02*
X341193D01*
X340193Y113388D02*
Y115388D01*
X490821Y537617D02*
X492822D01*
X491822Y536617D02*
Y538616D01*
X503270Y458830D02*
X505270D01*
X504270Y457830D02*
Y459830D01*
X479060Y482423D02*
X481060D01*
X480060Y481423D02*
Y483423D01*
X405337Y572791D02*
X407337D01*
X406338Y571791D02*
Y573791D01*
X405337Y522791D02*
X407337D01*
X406338Y521791D02*
Y523791D01*
X405337Y512791D02*
X407337D01*
X406338Y511791D02*
Y513791D01*
X372403Y508119D02*
X374403D01*
X373403Y507119D02*
Y509119D01*
X333777Y587101D02*
X335777D01*
X334777Y586101D02*
Y588101D01*
X333777Y577101D02*
X335777D01*
X334777Y576101D02*
Y578101D01*
X333777Y527101D02*
X335777D01*
X334777Y526101D02*
Y528101D01*
X332581Y516923D02*
X334581D01*
X333581Y515923D02*
Y517923D01*
X323599Y518297D02*
X325599D01*
X324599Y517297D02*
Y519297D01*
X323599Y528297D02*
X325599D01*
X324599Y527297D02*
Y529297D01*
X323599Y548297D02*
X325599D01*
X324599Y547297D02*
Y549297D01*
X323599Y568297D02*
X325599D01*
X324599Y567297D02*
Y569297D01*
X323639Y577671D02*
X325639D01*
X324639Y576671D02*
Y578671D01*
X313777Y558119D02*
X315777D01*
X314777Y557119D02*
Y559119D01*
X313777Y548119D02*
X315777D01*
X314777Y547119D02*
Y549119D01*
X313777Y538119D02*
X315777D01*
X314777Y537119D02*
Y539119D01*
X313777Y528119D02*
X315777D01*
X314777Y527119D02*
Y529119D01*
X313777Y518119D02*
X315777D01*
X314777Y517119D02*
Y519119D01*
X313777Y508119D02*
X315777D01*
X314777Y507119D02*
Y509119D01*
X313777Y568119D02*
X315777D01*
X314777Y567119D02*
Y569119D01*
X303068Y567050D02*
X305068D01*
X304068Y566050D02*
Y568050D01*
X313777Y577942D02*
X315777D01*
X314777Y576942D02*
Y578942D01*
X171746Y666148D02*
X173746D01*
X172746Y665148D02*
Y667148D01*
X91202Y665734D02*
X93202D01*
X92202Y664734D02*
Y666734D01*
X70793Y609442D02*
X72793D01*
X71793Y608442D02*
Y610442D01*
X59275Y115848D02*
X61276D01*
X60276Y114848D02*
Y116848D01*
X59275Y110765D02*
X61276D01*
X60276Y109765D02*
Y111765D01*
X59275Y105682D02*
X61276D01*
X60276Y104682D02*
Y106682D01*
X59275Y100598D02*
X61276D01*
X60276Y99599D02*
Y101599D01*
X212360Y399550D02*
X214360D01*
X213360Y398550D02*
Y400550D01*
X194580Y188214D02*
X196580D01*
X195580Y187214D02*
Y189214D01*
X187550Y188126D02*
X189550D01*
X188550Y187126D02*
Y189126D01*
X191065Y182829D02*
X193065D01*
X192065Y181829D02*
Y183829D01*
X184035Y182741D02*
X186035D01*
X185035Y181741D02*
Y183741D01*
X227985Y182741D02*
X229985D01*
X228985Y181741D02*
Y183741D01*
X220955Y182829D02*
X222955D01*
X221955Y181829D02*
Y183829D01*
X224470Y188126D02*
X226470D01*
X225470Y187126D02*
Y189126D01*
X217440Y188214D02*
X219440D01*
X218440Y187214D02*
Y189214D01*
X205960Y387463D02*
X207960D01*
X206960Y386463D02*
Y388463D01*
X205972Y381329D02*
X207972D01*
X206972Y380329D02*
Y382329D01*
X205972Y375196D02*
X207972D01*
X206972Y374196D02*
Y376196D01*
X215504Y373415D02*
X217504D01*
X216504Y372415D02*
Y374415D01*
X196563Y373415D02*
X198563D01*
X197563Y372415D02*
Y374415D01*
X381626Y341376D02*
X383626D01*
X382626Y340376D02*
Y342376D01*
X381626Y315651D02*
X383626D01*
X382626Y314651D02*
Y316651D01*
X381626Y331470D02*
X383626D01*
X382626Y330470D02*
Y332470D01*
X326879Y381302D02*
X328879D01*
X327879Y380302D02*
Y382302D01*
X273383Y399935D02*
X275383D01*
X274383Y398935D02*
Y400935D01*
X273383Y259125D02*
X275383D01*
X274383Y258125D02*
Y260125D01*
X288633Y399935D02*
X290633D01*
X289633Y398935D02*
Y400935D01*
X283383Y399935D02*
X285383D01*
X284383Y398935D02*
Y400935D01*
X278383Y399935D02*
X280383D01*
X279383Y398935D02*
Y400935D01*
X293883Y399935D02*
X295883D01*
X294883Y398935D02*
Y400935D01*
X298883Y399935D02*
X300883D01*
X299883Y398935D02*
Y400935D01*
X443246Y364998D02*
X445246D01*
X444246Y363998D02*
Y365998D01*
X298883Y259125D02*
X300883D01*
X299883Y258125D02*
Y260125D01*
X293883Y259125D02*
X295883D01*
X294883Y258125D02*
Y260125D01*
X278383Y259125D02*
X280383D01*
X279383Y258125D02*
Y260125D01*
X283383Y259125D02*
X285383D01*
X284383Y258125D02*
Y260125D01*
X288633Y259125D02*
X290633D01*
X289633Y258125D02*
Y260125D01*
X332129Y400052D02*
X334129D01*
X333129Y399052D02*
Y401052D01*
X337129Y400052D02*
X339129D01*
X338129Y399052D02*
Y401052D01*
X326879Y400052D02*
X328879D01*
X327879Y399052D02*
Y401052D01*
X321629Y400052D02*
X323629D01*
X322629Y399052D02*
Y401052D01*
X316629Y400052D02*
X318629D01*
X317629Y399052D02*
Y401052D01*
X326879Y375052D02*
X328879D01*
X327879Y374052D02*
Y376052D01*
X384129Y295950D02*
X386129D01*
X385129Y294950D02*
Y296950D01*
X366379Y364302D02*
X368379D01*
X367379Y363302D02*
Y365302D01*
X372379Y364302D02*
X374379D01*
X373379Y363302D02*
Y365302D01*
X383879Y364302D02*
X385879D01*
X384879Y363302D02*
Y365302D01*
X378129Y364302D02*
X380129D01*
X379129Y363302D02*
Y365302D01*
X378379Y295950D02*
X380379D01*
X379379Y294950D02*
Y296950D01*
X366629Y295950D02*
X368629D01*
X367629Y294950D02*
Y296950D01*
X372629Y295950D02*
X374629D01*
X373629Y294950D02*
Y296950D01*
X334629Y293450D02*
X336629D01*
X335629Y292450D02*
Y294450D01*
X326914Y278950D02*
X328914D01*
X327914Y277950D02*
Y279950D01*
X339379Y293450D02*
X341379D01*
X340379Y292450D02*
Y294450D01*
X319160Y293450D02*
X321160D01*
X320160Y292450D02*
Y294450D01*
X326914Y291450D02*
X328914D01*
X327914Y290450D02*
Y292450D01*
X326914Y285200D02*
X328914D01*
X327914Y284200D02*
Y286200D01*
X314410Y293450D02*
X316410D01*
X315410Y292450D02*
Y294450D01*
X339129Y366802D02*
X341129D01*
X340129Y365802D02*
Y367802D01*
X334887Y366802D02*
X336887D01*
X335887Y365802D02*
Y367802D01*
X334887Y362302D02*
X336887D01*
X335887Y361302D02*
Y363302D01*
X326879Y368802D02*
X328879D01*
X327879Y367802D02*
Y369802D01*
X326879Y362552D02*
X328879D01*
X327879Y361552D02*
Y363552D01*
X332164Y260200D02*
X334164D01*
X333164Y259200D02*
Y261200D01*
X337164Y260200D02*
X339164D01*
X338164Y259200D02*
Y261200D01*
X326914Y260200D02*
X328914D01*
X327914Y259200D02*
Y261200D01*
X321664Y260200D02*
X323664D01*
X322664Y259200D02*
Y261200D01*
X316664Y260200D02*
X318664D01*
X317664Y259200D02*
Y261200D01*
X274906Y364048D02*
X276906D01*
X275906Y363048D02*
Y365048D01*
X286656Y364048D02*
X288656D01*
X287656Y363048D02*
Y365048D01*
X280656Y364048D02*
X282656D01*
X281656Y363048D02*
Y365048D01*
X318910Y366802D02*
X320910D01*
X319910Y365802D02*
Y367802D01*
X314414Y366802D02*
X316414D01*
X315414Y365802D02*
Y367802D01*
X318910Y362302D02*
X320910D01*
X319910Y361302D02*
Y363302D01*
X275156Y295696D02*
X277156D01*
X276156Y294696D02*
Y296696D01*
X286906Y295696D02*
X288906D01*
X287906Y294696D02*
Y296696D01*
X280906Y295696D02*
X282906D01*
X281906Y294696D02*
Y296696D01*
X186003Y133430D02*
X188003D01*
X187003Y132430D02*
Y134430D01*
X97090Y187572D02*
X99090D01*
X98090Y186572D02*
Y188572D01*
X101840Y227330D02*
X103840D01*
X102840Y226330D02*
Y228330D01*
X747621Y240621D02*
X749621D01*
X748621Y239621D02*
Y241621D01*
X747621Y248621D02*
X749621D01*
X748621Y247621D02*
Y249621D01*
X747621Y256621D02*
X749621D01*
X748621Y255621D02*
Y257621D01*
X823621Y224621D02*
X825621D01*
X824621Y223621D02*
Y225621D01*
X823621Y216621D02*
X825621D01*
X824621Y215621D02*
Y217621D01*
X757621Y220621D02*
X759621D01*
X758621Y219621D02*
Y221621D01*
X757621Y228621D02*
X759621D01*
X758621Y227621D02*
Y229621D01*
X757621Y244621D02*
X759621D01*
X758621Y243621D02*
Y245621D01*
X813621Y236621D02*
X815621D01*
X814621Y235621D02*
Y237621D01*
X747621Y232621D02*
X749621D01*
X748621Y231621D02*
Y233621D01*
X747621Y224621D02*
X749621D01*
X748621Y223621D02*
Y225621D01*
X747621Y208621D02*
X749621D01*
X748621Y207621D02*
Y209621D01*
X747621Y216621D02*
X749621D01*
X748621Y215621D02*
Y217621D01*
X747621Y264621D02*
X749621D01*
X748621Y263621D02*
Y265621D01*
X773621Y212621D02*
X775621D01*
X774621Y211621D02*
Y213621D01*
X823621Y264621D02*
X825621D01*
X824621Y263621D02*
Y265621D01*
X805621Y236621D02*
X807621D01*
X806621Y235621D02*
Y237621D01*
X797621Y252621D02*
X799621D01*
X798621Y251621D02*
Y253621D01*
X823621Y240621D02*
X825621D01*
X824621Y239621D02*
Y241621D01*
X805621Y260621D02*
X807621D01*
X806621Y259621D02*
Y261621D01*
X805621Y244621D02*
X807621D01*
X806621Y243621D02*
Y245621D01*
X823621Y256621D02*
X825621D01*
X824621Y255621D02*
Y257621D01*
X823621Y248621D02*
X825621D01*
X824621Y247621D02*
Y249621D01*
M02*
