G04*
G04 #@! TF.GenerationSoftware,Altium Limited,Altium Designer,24.1.2 (44)*
G04*
G04 Layer_Color=8388736*
%FSLAX44Y44*%
%MOMM*%
G71*
G04*
G04 #@! TF.SameCoordinates,08E163FE-A1B1-404E-B758-27256C6DDFFB*
G04*
G04*
G04 #@! TF.FilePolarity,Negative*
G04*
G01*
G75*
%ADD41R,0.7000X1.0000*%
%ADD45R,0.6604X1.0414*%
%ADD46R,1.2954X1.8542*%
%ADD47R,0.4318X1.3335*%
%ADD49R,0.6100X0.3500*%
%ADD50R,0.3500X0.6100*%
%ADD51R,0.2794X0.2540*%
%ADD52R,0.2540X0.2794*%
G04:AMPARAMS|DCode=66|XSize=0.86mm|YSize=0.22mm|CornerRadius=0.055mm|HoleSize=0mm|Usage=FLASHONLY|Rotation=90.000|XOffset=0mm|YOffset=0mm|HoleType=Round|Shape=RoundedRectangle|*
%AMROUNDEDRECTD66*
21,1,0.8600,0.1100,0,0,90.0*
21,1,0.7500,0.2200,0,0,90.0*
1,1,0.1100,0.0550,0.3750*
1,1,0.1100,0.0550,-0.3750*
1,1,0.1100,-0.0550,-0.3750*
1,1,0.1100,-0.0550,0.3750*
%
%ADD66ROUNDEDRECTD66*%
G04:AMPARAMS|DCode=67|XSize=0.86mm|YSize=0.22mm|CornerRadius=0.055mm|HoleSize=0mm|Usage=FLASHONLY|Rotation=0.000|XOffset=0mm|YOffset=0mm|HoleType=Round|Shape=RoundedRectangle|*
%AMROUNDEDRECTD67*
21,1,0.8600,0.1100,0,0,0.0*
21,1,0.7500,0.2200,0,0,0.0*
1,1,0.1100,0.3750,-0.0550*
1,1,0.1100,-0.3750,-0.0550*
1,1,0.1100,-0.3750,0.0550*
1,1,0.1100,0.3750,0.0550*
%
%ADD67ROUNDEDRECTD67*%
%ADD73R,1.4732X0.5588*%
%ADD86C,1.0000*%
%ADD87R,0.7524X1.1524*%
%ADD88R,1.4024X1.9524*%
G04:AMPARAMS|DCode=89|XSize=0.375mm|YSize=0.4mm|CornerRadius=0.1188mm|HoleSize=0mm|Usage=FLASHONLY|Rotation=90.000|XOffset=0mm|YOffset=0mm|HoleType=Round|Shape=RoundedRectangle|*
%AMROUNDEDRECTD89*
21,1,0.3750,0.1625,0,0,90.0*
21,1,0.1375,0.4000,0,0,90.0*
1,1,0.2375,0.0813,0.0688*
1,1,0.2375,0.0813,-0.0688*
1,1,0.2375,-0.0813,-0.0688*
1,1,0.2375,-0.0813,0.0688*
%
%ADD89ROUNDEDRECTD89*%
G04:AMPARAMS|DCode=90|XSize=0.375mm|YSize=0.4mm|CornerRadius=0.1188mm|HoleSize=0mm|Usage=FLASHONLY|Rotation=0.000|XOffset=0mm|YOffset=0mm|HoleType=Round|Shape=RoundedRectangle|*
%AMROUNDEDRECTD90*
21,1,0.3750,0.1625,0,0,0.0*
21,1,0.1375,0.4000,0,0,0.0*
1,1,0.2375,0.0688,-0.0813*
1,1,0.2375,-0.0688,-0.0813*
1,1,0.2375,-0.0688,0.0813*
1,1,0.2375,0.0688,0.0813*
%
%ADD90ROUNDEDRECTD90*%
G04:AMPARAMS|DCode=91|XSize=0.65mm|YSize=0.7mm|CornerRadius=0.1875mm|HoleSize=0mm|Usage=FLASHONLY|Rotation=0.000|XOffset=0mm|YOffset=0mm|HoleType=Round|Shape=RoundedRectangle|*
%AMROUNDEDRECTD91*
21,1,0.6500,0.3250,0,0,0.0*
21,1,0.2750,0.7000,0,0,0.0*
1,1,0.3750,0.1375,-0.1625*
1,1,0.3750,-0.1375,-0.1625*
1,1,0.3750,-0.1375,0.1625*
1,1,0.3750,0.1375,0.1625*
%
%ADD91ROUNDEDRECTD91*%
G04:AMPARAMS|DCode=92|XSize=0.65mm|YSize=0.7mm|CornerRadius=0.1875mm|HoleSize=0mm|Usage=FLASHONLY|Rotation=90.000|XOffset=0mm|YOffset=0mm|HoleType=Round|Shape=RoundedRectangle|*
%AMROUNDEDRECTD92*
21,1,0.6500,0.3250,0,0,90.0*
21,1,0.2750,0.7000,0,0,90.0*
1,1,0.3750,0.1625,0.1375*
1,1,0.3750,0.1625,-0.1375*
1,1,0.3750,-0.1625,-0.1375*
1,1,0.3750,-0.1625,0.1375*
%
%ADD92ROUNDEDRECTD92*%
%ADD93R,1.2000X0.5500*%
%ADD94R,1.2000X0.7000*%
%ADD95R,2.2524X3.1524*%
%ADD96R,0.9524X1.7524*%
G04:AMPARAMS|DCode=97|XSize=0.325mm|YSize=0.35mm|CornerRadius=0.0938mm|HoleSize=0mm|Usage=FLASHONLY|Rotation=180.000|XOffset=0mm|YOffset=0mm|HoleType=Round|Shape=RoundedRectangle|*
%AMROUNDEDRECTD97*
21,1,0.3250,0.1625,0,0,180.0*
21,1,0.1375,0.3500,0,0,180.0*
1,1,0.1875,-0.0688,0.0813*
1,1,0.1875,0.0688,0.0813*
1,1,0.1875,0.0688,-0.0813*
1,1,0.1875,-0.0688,-0.0813*
%
%ADD97ROUNDEDRECTD97*%
G04:AMPARAMS|DCode=98|XSize=1.1032mm|YSize=1.0032mm|CornerRadius=0.3016mm|HoleSize=0mm|Usage=FLASHONLY|Rotation=90.000|XOffset=0mm|YOffset=0mm|HoleType=Round|Shape=RoundedRectangle|*
%AMROUNDEDRECTD98*
21,1,1.1032,0.4000,0,0,90.0*
21,1,0.5000,1.0032,0,0,90.0*
1,1,0.6032,0.2000,0.2500*
1,1,0.6032,0.2000,-0.2500*
1,1,0.6032,-0.2000,-0.2500*
1,1,0.6032,-0.2000,0.2500*
%
%ADD98ROUNDEDRECTD98*%
G04:AMPARAMS|DCode=99|XSize=1.8532mm|YSize=2.7532mm|CornerRadius=0.3491mm|HoleSize=0mm|Usage=FLASHONLY|Rotation=90.000|XOffset=0mm|YOffset=0mm|HoleType=Round|Shape=RoundedRectangle|*
%AMROUNDEDRECTD99*
21,1,1.8532,2.0550,0,0,90.0*
21,1,1.1550,2.7532,0,0,90.0*
1,1,0.6982,1.0275,0.5775*
1,1,0.6982,1.0275,-0.5775*
1,1,0.6982,-1.0275,-0.5775*
1,1,0.6982,-1.0275,0.5775*
%
%ADD99ROUNDEDRECTD99*%
G04:AMPARAMS|DCode=100|XSize=1.8432mm|YSize=0.7932mm|CornerRadius=0.2491mm|HoleSize=0mm|Usage=FLASHONLY|Rotation=180.000|XOffset=0mm|YOffset=0mm|HoleType=Round|Shape=RoundedRectangle|*
%AMROUNDEDRECTD100*
21,1,1.8432,0.2950,0,0,180.0*
21,1,1.3450,0.7932,0,0,180.0*
1,1,0.4982,-0.6725,0.1475*
1,1,0.4982,0.6725,0.1475*
1,1,0.4982,0.6725,-0.1475*
1,1,0.4982,-0.6725,-0.1475*
%
%ADD100ROUNDEDRECTD100*%
%ADD101R,3.8000X3.8000*%
G04:AMPARAMS|DCode=102|XSize=0.38mm|YSize=0.78mm|CornerRadius=0.115mm|HoleSize=0mm|Usage=FLASHONLY|Rotation=90.000|XOffset=0mm|YOffset=0mm|HoleType=Round|Shape=RoundedRectangle|*
%AMROUNDEDRECTD102*
21,1,0.3800,0.5500,0,0,90.0*
21,1,0.1500,0.7800,0,0,90.0*
1,1,0.2300,0.2750,0.0750*
1,1,0.2300,0.2750,-0.0750*
1,1,0.2300,-0.2750,-0.0750*
1,1,0.2300,-0.2750,0.0750*
%
%ADD102ROUNDEDRECTD102*%
G04:AMPARAMS|DCode=103|XSize=0.38mm|YSize=0.78mm|CornerRadius=0.115mm|HoleSize=0mm|Usage=FLASHONLY|Rotation=0.000|XOffset=0mm|YOffset=0mm|HoleType=Round|Shape=RoundedRectangle|*
%AMROUNDEDRECTD103*
21,1,0.3800,0.5500,0,0,0.0*
21,1,0.1500,0.7800,0,0,0.0*
1,1,0.2300,0.0750,-0.2750*
1,1,0.2300,-0.0750,-0.2750*
1,1,0.2300,-0.0750,0.2750*
1,1,0.2300,0.0750,0.2750*
%
%ADD103ROUNDEDRECTD103*%
%ADD104R,2.7500X2.7500*%
G04:AMPARAMS|DCode=105|XSize=0.464mm|YSize=0.914mm|CornerRadius=0.1445mm|HoleSize=0mm|Usage=FLASHONLY|Rotation=180.000|XOffset=0mm|YOffset=0mm|HoleType=Round|Shape=RoundedRectangle|*
%AMROUNDEDRECTD105*
21,1,0.4640,0.6250,0,0,180.0*
21,1,0.1750,0.9140,0,0,180.0*
1,1,0.2890,-0.0875,0.3125*
1,1,0.2890,0.0875,0.3125*
1,1,0.2890,0.0875,-0.3125*
1,1,0.2890,-0.0875,-0.3125*
%
%ADD105ROUNDEDRECTD105*%
G04:AMPARAMS|DCode=106|XSize=0.5mm|YSize=0.95mm|CornerRadius=0.1625mm|HoleSize=0mm|Usage=FLASHONLY|Rotation=270.000|XOffset=0mm|YOffset=0mm|HoleType=Round|Shape=RoundedRectangle|*
%AMROUNDEDRECTD106*
21,1,0.5000,0.6250,0,0,270.0*
21,1,0.1750,0.9500,0,0,270.0*
1,1,0.3250,-0.3125,-0.0875*
1,1,0.3250,-0.3125,0.0875*
1,1,0.3250,0.3125,0.0875*
1,1,0.3250,0.3125,-0.0875*
%
%ADD106ROUNDEDRECTD106*%
G04:AMPARAMS|DCode=107|XSize=0.6mm|YSize=0.65mm|CornerRadius=0.1625mm|HoleSize=0mm|Usage=FLASHONLY|Rotation=180.000|XOffset=0mm|YOffset=0mm|HoleType=Round|Shape=RoundedRectangle|*
%AMROUNDEDRECTD107*
21,1,0.6000,0.3250,0,0,180.0*
21,1,0.2750,0.6500,0,0,180.0*
1,1,0.3250,-0.1375,0.1625*
1,1,0.3250,0.1375,0.1625*
1,1,0.3250,0.1375,-0.1625*
1,1,0.3250,-0.1375,-0.1625*
%
%ADD107ROUNDEDRECTD107*%
G04:AMPARAMS|DCode=108|XSize=1.5232mm|YSize=0.8032mm|CornerRadius=0.1766mm|HoleSize=0mm|Usage=FLASHONLY|Rotation=270.000|XOffset=0mm|YOffset=0mm|HoleType=Round|Shape=RoundedRectangle|*
%AMROUNDEDRECTD108*
21,1,1.5232,0.4500,0,0,270.0*
21,1,1.1700,0.8032,0,0,270.0*
1,1,0.3532,-0.2250,-0.5850*
1,1,0.3532,-0.2250,0.5850*
1,1,0.3532,0.2250,0.5850*
1,1,0.3532,0.2250,-0.5850*
%
%ADD108ROUNDEDRECTD108*%
%ADD109R,1.2032X1.7032*%
%ADD110R,0.3500X0.7500*%
%ADD111R,0.7500X0.4000*%
%ADD112R,0.7500X0.3500*%
%ADD113R,0.7500X0.3286*%
%ADD114O,1.5016X0.4516*%
%ADD115R,1.4986X2.0574*%
%ADD116R,2.9464X1.7526*%
G04:AMPARAMS|DCode=117|XSize=2.174mm|YSize=0.804mm|CornerRadius=0.177mm|HoleSize=0mm|Usage=FLASHONLY|Rotation=270.000|XOffset=0mm|YOffset=0mm|HoleType=Round|Shape=RoundedRectangle|*
%AMROUNDEDRECTD117*
21,1,2.1740,0.4500,0,0,270.0*
21,1,1.8200,0.8040,0,0,270.0*
1,1,0.3540,-0.2250,-0.9100*
1,1,0.3540,-0.2250,0.9100*
1,1,0.3540,0.2250,0.9100*
1,1,0.3540,0.2250,-0.9100*
%
%ADD117ROUNDEDRECTD117*%
%ADD118R,0.6000X0.9000*%
G04:AMPARAMS|DCode=119|XSize=1.5097mm|YSize=0.4556mm|CornerRadius=0.1389mm|HoleSize=0mm|Usage=FLASHONLY|Rotation=180.000|XOffset=0mm|YOffset=0mm|HoleType=Round|Shape=RoundedRectangle|*
%AMROUNDEDRECTD119*
21,1,1.5097,0.1778,0,0,180.0*
21,1,1.2319,0.4556,0,0,180.0*
1,1,0.2778,-0.6160,0.0889*
1,1,0.2778,0.6160,0.0889*
1,1,0.2778,0.6160,-0.0889*
1,1,0.2778,-0.6160,-0.0889*
%
%ADD119ROUNDEDRECTD119*%
G04:AMPARAMS|DCode=120|XSize=1.6637mm|YSize=0.762mm|CornerRadius=0.2413mm|HoleSize=0mm|Usage=FLASHONLY|Rotation=0.000|XOffset=0mm|YOffset=0mm|HoleType=Round|Shape=RoundedRectangle|*
%AMROUNDEDRECTD120*
21,1,1.6637,0.2794,0,0,0.0*
21,1,1.1811,0.7620,0,0,0.0*
1,1,0.4826,0.5906,-0.1397*
1,1,0.4826,-0.5906,-0.1397*
1,1,0.4826,-0.5906,0.1397*
1,1,0.4826,0.5906,0.1397*
%
%ADD120ROUNDEDRECTD120*%
%ADD121C,1.1000*%
G04:AMPARAMS|DCode=122|XSize=1.4032mm|YSize=1.5032mm|CornerRadius=0.3476mm|HoleSize=0mm|Usage=FLASHONLY|Rotation=90.000|XOffset=0mm|YOffset=0mm|HoleType=Round|Shape=RoundedRectangle|*
%AMROUNDEDRECTD122*
21,1,1.4032,0.8080,0,0,90.0*
21,1,0.7080,1.5032,0,0,90.0*
1,1,0.6952,0.4040,0.3540*
1,1,0.6952,0.4040,-0.3540*
1,1,0.6952,-0.4040,-0.3540*
1,1,0.6952,-0.4040,0.3540*
%
%ADD122ROUNDEDRECTD122*%
G04:AMPARAMS|DCode=123|XSize=1.4132mm|YSize=0.7932mm|CornerRadius=0.1754mm|HoleSize=0mm|Usage=FLASHONLY|Rotation=180.000|XOffset=0mm|YOffset=0mm|HoleType=Round|Shape=RoundedRectangle|*
%AMROUNDEDRECTD123*
21,1,1.4132,0.4425,0,0,180.0*
21,1,1.0625,0.7932,0,0,180.0*
1,1,0.3507,-0.5313,0.2213*
1,1,0.3507,0.5313,0.2213*
1,1,0.3507,0.5313,-0.2213*
1,1,0.3507,-0.5313,-0.2213*
%
%ADD123ROUNDEDRECTD123*%
%ADD124R,3.6068X2.9210*%
G04:AMPARAMS|DCode=125|XSize=1.8432mm|YSize=0.7932mm|CornerRadius=0.2491mm|HoleSize=0mm|Usage=FLASHONLY|Rotation=90.000|XOffset=0mm|YOffset=0mm|HoleType=Round|Shape=RoundedRectangle|*
%AMROUNDEDRECTD125*
21,1,1.8432,0.2950,0,0,90.0*
21,1,1.3450,0.7932,0,0,90.0*
1,1,0.4982,0.1475,0.6725*
1,1,0.4982,0.1475,-0.6725*
1,1,0.4982,-0.1475,-0.6725*
1,1,0.4982,-0.1475,0.6725*
%
%ADD125ROUNDEDRECTD125*%
G04:AMPARAMS|DCode=126|XSize=1.7032mm|YSize=0.6532mm|CornerRadius=0.2141mm|HoleSize=0mm|Usage=FLASHONLY|Rotation=270.000|XOffset=0mm|YOffset=0mm|HoleType=Round|Shape=RoundedRectangle|*
%AMROUNDEDRECTD126*
21,1,1.7032,0.2250,0,0,270.0*
21,1,1.2750,0.6532,0,0,270.0*
1,1,0.4282,-0.1125,-0.6375*
1,1,0.4282,-0.1125,0.6375*
1,1,0.4282,0.1125,0.6375*
1,1,0.4282,0.1125,-0.6375*
%
%ADD126ROUNDEDRECTD126*%
%ADD127R,1.7800X1.7800*%
G04:AMPARAMS|DCode=128|XSize=0.34mm|YSize=0.91mm|CornerRadius=0.0491mm|HoleSize=0mm|Usage=FLASHONLY|Rotation=90.000|XOffset=0mm|YOffset=0mm|HoleType=Round|Shape=RoundedRectangle|*
%AMROUNDEDRECTD128*
21,1,0.3400,0.8118,0,0,90.0*
21,1,0.2418,0.9100,0,0,90.0*
1,1,0.0982,0.4059,0.1209*
1,1,0.0982,0.4059,-0.1209*
1,1,0.0982,-0.4059,-0.1209*
1,1,0.0982,-0.4059,0.1209*
%
%ADD128ROUNDEDRECTD128*%
G04:AMPARAMS|DCode=129|XSize=0.91mm|YSize=0.34mm|CornerRadius=0.0491mm|HoleSize=0mm|Usage=FLASHONLY|Rotation=90.000|XOffset=0mm|YOffset=0mm|HoleType=Round|Shape=RoundedRectangle|*
%AMROUNDEDRECTD129*
21,1,0.9100,0.2418,0,0,90.0*
21,1,0.8118,0.3400,0,0,90.0*
1,1,0.0982,0.1209,0.4059*
1,1,0.0982,0.1209,-0.4059*
1,1,0.0982,-0.1209,-0.4059*
1,1,0.0982,-0.1209,0.4059*
%
%ADD129ROUNDEDRECTD129*%
%ADD130R,2.7000X2.7000*%
G04:AMPARAMS|DCode=131|XSize=1.4132mm|YSize=0.7932mm|CornerRadius=0.1754mm|HoleSize=0mm|Usage=FLASHONLY|Rotation=90.000|XOffset=0mm|YOffset=0mm|HoleType=Round|Shape=RoundedRectangle|*
%AMROUNDEDRECTD131*
21,1,1.4132,0.4425,0,0,90.0*
21,1,1.0625,0.7932,0,0,90.0*
1,1,0.3507,0.2213,0.5313*
1,1,0.3507,0.2213,-0.5313*
1,1,0.3507,-0.2213,-0.5313*
1,1,0.3507,-0.2213,0.5313*
%
%ADD131ROUNDEDRECTD131*%
G04:AMPARAMS|DCode=132|XSize=0.8532mm|YSize=1.1032mm|CornerRadius=0.2641mm|HoleSize=0mm|Usage=FLASHONLY|Rotation=180.000|XOffset=0mm|YOffset=0mm|HoleType=Round|Shape=RoundedRectangle|*
%AMROUNDEDRECTD132*
21,1,0.8532,0.5750,0,0,180.0*
21,1,0.3250,1.1032,0,0,180.0*
1,1,0.5282,-0.1625,0.2875*
1,1,0.5282,0.1625,0.2875*
1,1,0.5282,0.1625,-0.2875*
1,1,0.5282,-0.1625,-0.2875*
%
%ADD132ROUNDEDRECTD132*%
G04:AMPARAMS|DCode=133|XSize=1.1532mm|YSize=0.9532mm|CornerRadius=0.2891mm|HoleSize=0mm|Usage=FLASHONLY|Rotation=270.000|XOffset=0mm|YOffset=0mm|HoleType=Round|Shape=RoundedRectangle|*
%AMROUNDEDRECTD133*
21,1,1.1532,0.3750,0,0,270.0*
21,1,0.5750,0.9532,0,0,270.0*
1,1,0.5782,-0.1875,-0.2875*
1,1,0.5782,-0.1875,0.2875*
1,1,0.5782,0.1875,0.2875*
1,1,0.5782,0.1875,-0.2875*
%
%ADD133ROUNDEDRECTD133*%
G04:AMPARAMS|DCode=134|XSize=0.7032mm|YSize=0.9032mm|CornerRadius=0.2266mm|HoleSize=0mm|Usage=FLASHONLY|Rotation=0.000|XOffset=0mm|YOffset=0mm|HoleType=Round|Shape=RoundedRectangle|*
%AMROUNDEDRECTD134*
21,1,0.7032,0.4500,0,0,0.0*
21,1,0.2500,0.9032,0,0,0.0*
1,1,0.4532,0.1250,-0.2250*
1,1,0.4532,-0.1250,-0.2250*
1,1,0.4532,-0.1250,0.2250*
1,1,0.4532,0.1250,0.2250*
%
%ADD134ROUNDEDRECTD134*%
G04:AMPARAMS|DCode=135|XSize=1.5232mm|YSize=0.8032mm|CornerRadius=0.1766mm|HoleSize=0mm|Usage=FLASHONLY|Rotation=180.000|XOffset=0mm|YOffset=0mm|HoleType=Round|Shape=RoundedRectangle|*
%AMROUNDEDRECTD135*
21,1,1.5232,0.4500,0,0,180.0*
21,1,1.1700,0.8032,0,0,180.0*
1,1,0.3532,-0.5850,0.2250*
1,1,0.3532,0.5850,0.2250*
1,1,0.3532,0.5850,-0.2250*
1,1,0.3532,-0.5850,-0.2250*
%
%ADD135ROUNDEDRECTD135*%
%ADD136R,2.5500X1.0500*%
%ADD137R,5.1032X3.1532*%
G04:AMPARAMS|DCode=138|XSize=0.355mm|YSize=0.38mm|CornerRadius=0.1088mm|HoleSize=0mm|Usage=FLASHONLY|Rotation=0.000|XOffset=0mm|YOffset=0mm|HoleType=Round|Shape=RoundedRectangle|*
%AMROUNDEDRECTD138*
21,1,0.3550,0.1625,0,0,0.0*
21,1,0.1375,0.3800,0,0,0.0*
1,1,0.2175,0.0688,-0.0813*
1,1,0.2175,-0.0688,-0.0813*
1,1,0.2175,-0.0688,0.0813*
1,1,0.2175,0.0688,0.0813*
%
%ADD138ROUNDEDRECTD138*%
%ADD139R,3.7032X3.1532*%
%ADD140R,3.2500X3.2500*%
G04:AMPARAMS|DCode=141|XSize=1.15mm|YSize=0.44mm|CornerRadius=0.0925mm|HoleSize=0mm|Usage=FLASHONLY|Rotation=0.000|XOffset=0mm|YOffset=0mm|HoleType=Round|Shape=RoundedRectangle|*
%AMROUNDEDRECTD141*
21,1,1.1500,0.2550,0,0,0.0*
21,1,0.9650,0.4400,0,0,0.0*
1,1,0.1850,0.4825,-0.1275*
1,1,0.1850,-0.4825,-0.1275*
1,1,0.1850,-0.4825,0.1275*
1,1,0.1850,0.4825,0.1275*
%
%ADD141ROUNDEDRECTD141*%
G04:AMPARAMS|DCode=142|XSize=0.44mm|YSize=1.15mm|CornerRadius=0.0925mm|HoleSize=0mm|Usage=FLASHONLY|Rotation=0.000|XOffset=0mm|YOffset=0mm|HoleType=Round|Shape=RoundedRectangle|*
%AMROUNDEDRECTD142*
21,1,0.4400,0.9650,0,0,0.0*
21,1,0.2550,1.1500,0,0,0.0*
1,1,0.1850,0.1275,-0.4825*
1,1,0.1850,-0.1275,-0.4825*
1,1,0.1850,-0.1275,0.4825*
1,1,0.1850,0.1275,0.4825*
%
%ADD142ROUNDEDRECTD142*%
%ADD143R,0.5032X2.6032*%
%ADD144R,0.8532X0.5032*%
%ADD145R,0.4532X0.8532*%
%ADD146R,0.8532X0.4532*%
G04:AMPARAMS|DCode=147|XSize=0.75mm|YSize=0.7mm|CornerRadius=0.2mm|HoleSize=0mm|Usage=FLASHONLY|Rotation=270.000|XOffset=0mm|YOffset=0mm|HoleType=Round|Shape=RoundedRectangle|*
%AMROUNDEDRECTD147*
21,1,0.7500,0.3000,0,0,270.0*
21,1,0.3500,0.7000,0,0,270.0*
1,1,0.4000,-0.1500,-0.1750*
1,1,0.4000,-0.1500,0.1750*
1,1,0.4000,0.1500,0.1750*
1,1,0.4000,0.1500,-0.1750*
%
%ADD147ROUNDEDRECTD147*%
%ADD148R,3.4532X2.3532*%
%ADD149R,1.1532X2.3532*%
%ADD150C,6.2032*%
%ADD151C,1.5000*%
%ADD152C,0.6032*%
G36*
X48107Y794939D02*
X48725Y794758D01*
X48745Y794456D01*
X46891Y793807D01*
Y795000D01*
X48107Y794939D01*
D02*
G37*
G36*
X46891Y788911D02*
X32155Y788956D01*
X36318Y790104D01*
X46891Y793807D01*
X46891Y788911D01*
D02*
G37*
G36*
X48022Y788908D02*
X46891Y785000D01*
X46891Y788911D01*
X48022Y788908D01*
D02*
G37*
G36*
X1751308Y794932D02*
X1751842Y794731D01*
X1769969Y788295D01*
X1751160Y788193D01*
X1751160Y785000D01*
X1749723Y788185D01*
X1751160Y788193D01*
X1751160Y795000D01*
X1751308Y794932D01*
D02*
G37*
G36*
X1025286Y775000D02*
X1023579Y774960D01*
X1022052Y774841D01*
X1020704Y774643D01*
X1019535Y774365D01*
X1018546Y774009D01*
X1017736Y773572D01*
X1017105Y773057D01*
X1016655Y772462D01*
X1016383Y771788D01*
X1016291Y771035D01*
X1016322Y782169D01*
X1016412Y782707D01*
X1016680Y783188D01*
X1017129Y783613D01*
X1017756Y783981D01*
X1018563Y784292D01*
X1019549Y784547D01*
X1020714Y784745D01*
X1022059Y784887D01*
X1025286Y785000D01*
Y775000D01*
D02*
G37*
G36*
X1003883Y782169D02*
X1003913Y770000D01*
X1003811Y770950D01*
X1003508Y771800D01*
X1003005Y772550D01*
X1002302Y773200D01*
X1001399Y773750D01*
X1000296Y774200D01*
X998993Y774550D01*
X997490Y774800D01*
X995786Y774950D01*
X993883Y775000D01*
Y785000D01*
X1003883Y782169D01*
D02*
G37*
G36*
X1224572Y775000D02*
X1222668Y774950D01*
X1220965Y774800D01*
X1219462Y774550D01*
X1218158Y774200D01*
X1217055Y773750D01*
X1216152Y773200D01*
X1215449Y772550D01*
X1214947Y771800D01*
X1214644Y770950D01*
X1214541Y770000D01*
X1214572Y781721D01*
X1214672Y782344D01*
X1214972Y782901D01*
X1215472Y783393D01*
X1216172Y783819D01*
X1217072Y784180D01*
X1218172Y784475D01*
X1219472Y784705D01*
X1220972Y784869D01*
X1224572Y785000D01*
Y775000D01*
D02*
G37*
G36*
X1183422D02*
X1181518Y774950D01*
X1179815Y774800D01*
X1178312Y774550D01*
X1177008Y774200D01*
X1175905Y773750D01*
X1175002Y773200D01*
X1174299Y772550D01*
X1173797Y771800D01*
X1173494Y770950D01*
X1173391Y770000D01*
X1173422Y782169D01*
X1173522Y782707D01*
X1173822Y783188D01*
X1174322Y783613D01*
X1175022Y783981D01*
X1175922Y784292D01*
X1177022Y784547D01*
X1178322Y784745D01*
X1179822Y784887D01*
X1183422Y785000D01*
Y775000D01*
D02*
G37*
G36*
X1333255Y775000D02*
X1331351Y774950D01*
X1329648Y774800D01*
X1328145Y774550D01*
X1326841Y774200D01*
X1325738Y773750D01*
X1324835Y773200D01*
X1324132Y772550D01*
X1323630Y771800D01*
X1323327Y770950D01*
X1323224Y770000D01*
X1323255Y782169D01*
X1323355Y782707D01*
X1323655Y783188D01*
X1324155Y783613D01*
X1324855Y783981D01*
X1325755Y784292D01*
X1326855Y784547D01*
X1328155Y784745D01*
X1329655Y784887D01*
X1333255Y785000D01*
Y775000D01*
D02*
G37*
G36*
X1310816Y782169D02*
X1310846Y770000D01*
X1310744Y770950D01*
X1310441Y771800D01*
X1309938Y772550D01*
X1309235Y773200D01*
X1308332Y773750D01*
X1307229Y774200D01*
X1305926Y774550D01*
X1304423Y774800D01*
X1302719Y774950D01*
X1300816Y775000D01*
Y785000D01*
X1310816Y782169D01*
D02*
G37*
G36*
X1291672Y775000D02*
X1289768Y774950D01*
X1288065Y774800D01*
X1286562Y774550D01*
X1285258Y774200D01*
X1284155Y773750D01*
X1283252Y773200D01*
X1282549Y772550D01*
X1282047Y771800D01*
X1281744Y770950D01*
X1281641Y770000D01*
X1281672Y781721D01*
X1281772Y782344D01*
X1282072Y782901D01*
X1282572Y783393D01*
X1283272Y783819D01*
X1284172Y784180D01*
X1285272Y784475D01*
X1286572Y784705D01*
X1288072Y784869D01*
X1291672Y785000D01*
Y775000D01*
D02*
G37*
G36*
X1490355D02*
X1488451Y774950D01*
X1486748Y774800D01*
X1485245Y774550D01*
X1483941Y774200D01*
X1482838Y773750D01*
X1481935Y773200D01*
X1481232Y772550D01*
X1480730Y771800D01*
X1480427Y770950D01*
X1480324Y770000D01*
X1480355Y782169D01*
X1480455Y782707D01*
X1480755Y783188D01*
X1481255Y783613D01*
X1481955Y783981D01*
X1482855Y784292D01*
X1483955Y784547D01*
X1485255Y784745D01*
X1486755Y784886D01*
X1490355Y785000D01*
Y775000D01*
D02*
G37*
G36*
X1467916Y782169D02*
X1467946Y770000D01*
X1467844Y770950D01*
X1467541Y771800D01*
X1467038Y772550D01*
X1466335Y773200D01*
X1465432Y773750D01*
X1464329Y774200D01*
X1463026Y774550D01*
X1461523Y774800D01*
X1459819Y774950D01*
X1457916Y775000D01*
Y785000D01*
X1467916Y782169D01*
D02*
G37*
G36*
X1694070Y775000D02*
X1692166Y774950D01*
X1690463Y774800D01*
X1688959Y774550D01*
X1687656Y774200D01*
X1686553Y773750D01*
X1685650Y773200D01*
X1684947Y772550D01*
X1684444Y771800D01*
X1684142Y770950D01*
X1684039Y770000D01*
X1684070Y782169D01*
X1684169Y782707D01*
X1684469Y783188D01*
X1684969Y783613D01*
X1685670Y783981D01*
X1686570Y784292D01*
X1687670Y784547D01*
X1688970Y784745D01*
X1690470Y784886D01*
X1694070Y785000D01*
Y775000D01*
D02*
G37*
G36*
X1795000Y750292D02*
X1787800D01*
X1787896Y771037D01*
X1795000Y750292D01*
D02*
G37*
G36*
X1787793Y748707D02*
X1785000Y750292D01*
X1787800D01*
X1787793Y748707D01*
D02*
G37*
G36*
X229340Y461990D02*
X229360D01*
X229390Y461980D01*
X229410D01*
X229440Y461970D01*
X229460Y461960D01*
X229490Y461950D01*
X229510Y461930D01*
X229530Y461920D01*
X229550Y461900D01*
X229570Y461890D01*
X229590Y461870D01*
X229610Y461850D01*
X229630Y461830D01*
X229650Y461810D01*
X229660Y461790D01*
X229680Y461770D01*
X229690Y461750D01*
X229710Y461730D01*
X229720Y461700D01*
X229730Y461680D01*
X229740Y461650D01*
Y461630D01*
X229750Y461600D01*
Y461580D01*
X229760Y461550D01*
Y445550D01*
X229750Y445520D01*
Y445500D01*
X229740Y445470D01*
Y445450D01*
X229730Y445420D01*
X229720Y445400D01*
X229710Y445370D01*
X229690Y445350D01*
X229680Y445330D01*
X229660Y445310D01*
X229650Y445290D01*
X229630Y445270D01*
X229610Y445250D01*
X229590Y445230D01*
X229570Y445210D01*
X229550Y445200D01*
X229530Y445180D01*
X229510Y445170D01*
X229490Y445150D01*
X229460Y445140D01*
X229440Y445130D01*
X229410Y445120D01*
X229390D01*
X229360Y445110D01*
X229340D01*
X229310Y445100D01*
X222810D01*
X222780Y445110D01*
X222760D01*
X222730Y445120D01*
X222710D01*
X222680Y445130D01*
X222660Y445140D01*
X222630Y445150D01*
X222610Y445170D01*
X222590Y445180D01*
X222570Y445200D01*
X222550Y445210D01*
X222530Y445230D01*
X222510Y445250D01*
X222490Y445270D01*
X222470Y445290D01*
X222460Y445310D01*
X222440Y445330D01*
X222430Y445350D01*
X222410Y445370D01*
X222400Y445400D01*
X222390Y445420D01*
X222380Y445450D01*
Y445470D01*
X222370Y445500D01*
Y445520D01*
X222360Y445550D01*
Y461550D01*
X222370Y461580D01*
Y461600D01*
X222380Y461630D01*
Y461650D01*
X222390Y461680D01*
X222400Y461700D01*
X222410Y461730D01*
X222430Y461750D01*
X222440Y461770D01*
X222460Y461790D01*
X222470Y461810D01*
X222490Y461830D01*
X222510Y461850D01*
X222530Y461870D01*
X222550Y461890D01*
X222570Y461900D01*
X222590Y461920D01*
X222610Y461930D01*
X222630Y461950D01*
X222660Y461960D01*
X222680Y461970D01*
X222710Y461980D01*
X222730D01*
X222760Y461990D01*
X222780D01*
X222810Y462000D01*
X229310D01*
X229340Y461990D01*
D02*
G37*
G36*
X216640D02*
X216660D01*
X216690Y461980D01*
X216710D01*
X216740Y461970D01*
X216760Y461960D01*
X216790Y461950D01*
X216810Y461930D01*
X216830Y461920D01*
X216850Y461900D01*
X216870Y461890D01*
X216890Y461870D01*
X216910Y461850D01*
X216930Y461830D01*
X216950Y461810D01*
X216960Y461790D01*
X216980Y461770D01*
X216990Y461750D01*
X217010Y461730D01*
X217020Y461700D01*
X217030Y461680D01*
X217040Y461650D01*
Y461630D01*
X217050Y461600D01*
Y461580D01*
X217060Y461550D01*
Y445550D01*
X217050Y445520D01*
Y445500D01*
X217040Y445470D01*
Y445450D01*
X217030Y445420D01*
X217020Y445400D01*
X217010Y445370D01*
X216990Y445350D01*
X216980Y445330D01*
X216960Y445310D01*
X216950Y445290D01*
X216930Y445270D01*
X216910Y445250D01*
X216890Y445230D01*
X216870Y445210D01*
X216850Y445200D01*
X216830Y445180D01*
X216810Y445170D01*
X216790Y445150D01*
X216760Y445140D01*
X216740Y445130D01*
X216710Y445120D01*
X216690D01*
X216660Y445110D01*
X216640D01*
X216610Y445100D01*
X210110D01*
X210080Y445110D01*
X210060D01*
X210030Y445120D01*
X210010D01*
X209980Y445130D01*
X209960Y445140D01*
X209930Y445150D01*
X209910Y445170D01*
X209890Y445180D01*
X209870Y445200D01*
X209850Y445210D01*
X209830Y445230D01*
X209810Y445250D01*
X209790Y445270D01*
X209770Y445290D01*
X209760Y445310D01*
X209740Y445330D01*
X209730Y445350D01*
X209710Y445370D01*
X209700Y445400D01*
X209690Y445420D01*
X209680Y445450D01*
Y445470D01*
X209670Y445500D01*
Y445520D01*
X209660Y445550D01*
Y461550D01*
X209670Y461580D01*
Y461600D01*
X209680Y461630D01*
Y461650D01*
X209690Y461680D01*
X209700Y461700D01*
X209710Y461730D01*
X209730Y461750D01*
X209740Y461770D01*
X209760Y461790D01*
X209770Y461810D01*
X209790Y461830D01*
X209810Y461850D01*
X209830Y461870D01*
X209850Y461890D01*
X209870Y461900D01*
X209890Y461920D01*
X209910Y461930D01*
X209930Y461950D01*
X209960Y461960D01*
X209980Y461970D01*
X210010Y461980D01*
X210030D01*
X210060Y461990D01*
X210080D01*
X210110Y462000D01*
X216610D01*
X216640Y461990D01*
D02*
G37*
G36*
X203940D02*
X203960D01*
X203990Y461980D01*
X204010D01*
X204040Y461970D01*
X204060Y461960D01*
X204090Y461950D01*
X204110Y461930D01*
X204130Y461920D01*
X204150Y461900D01*
X204170Y461890D01*
X204190Y461870D01*
X204210Y461850D01*
X204230Y461830D01*
X204250Y461810D01*
X204260Y461790D01*
X204280Y461770D01*
X204290Y461750D01*
X204310Y461730D01*
X204320Y461700D01*
X204330Y461680D01*
X204340Y461650D01*
Y461630D01*
X204350Y461600D01*
Y461580D01*
X204360Y461550D01*
Y445550D01*
X204350Y445520D01*
Y445500D01*
X204340Y445470D01*
Y445450D01*
X204330Y445420D01*
X204320Y445400D01*
X204310Y445370D01*
X204290Y445350D01*
X204280Y445330D01*
X204260Y445310D01*
X204250Y445290D01*
X204230Y445270D01*
X204210Y445250D01*
X204190Y445230D01*
X204170Y445210D01*
X204150Y445200D01*
X204130Y445180D01*
X204110Y445170D01*
X204090Y445150D01*
X204060Y445140D01*
X204040Y445130D01*
X204010Y445120D01*
X203990D01*
X203960Y445110D01*
X203940D01*
X203910Y445100D01*
X197410D01*
X197380Y445110D01*
X197360D01*
X197330Y445120D01*
X197310D01*
X197280Y445130D01*
X197260Y445140D01*
X197230Y445150D01*
X197210Y445170D01*
X197190Y445180D01*
X197170Y445200D01*
X197150Y445210D01*
X197130Y445230D01*
X197110Y445250D01*
X197090Y445270D01*
X197070Y445290D01*
X197060Y445310D01*
X197040Y445330D01*
X197030Y445350D01*
X197010Y445370D01*
X197000Y445400D01*
X196990Y445420D01*
X196980Y445450D01*
Y445470D01*
X196970Y445500D01*
Y445520D01*
X196960Y445550D01*
Y461550D01*
X196970Y461580D01*
Y461600D01*
X196980Y461630D01*
Y461650D01*
X196990Y461680D01*
X197000Y461700D01*
X197010Y461730D01*
X197030Y461750D01*
X197040Y461770D01*
X197060Y461790D01*
X197070Y461810D01*
X197090Y461830D01*
X197110Y461850D01*
X197130Y461870D01*
X197150Y461890D01*
X197170Y461900D01*
X197190Y461920D01*
X197210Y461930D01*
X197230Y461950D01*
X197260Y461960D01*
X197280Y461970D01*
X197310Y461980D01*
X197330D01*
X197360Y461990D01*
X197380D01*
X197410Y462000D01*
X203910D01*
X203940Y461990D01*
D02*
G37*
G36*
X191240D02*
X191260D01*
X191290Y461980D01*
X191310D01*
X191340Y461970D01*
X191360Y461960D01*
X191390Y461950D01*
X191410Y461930D01*
X191430Y461920D01*
X191450Y461900D01*
X191470Y461890D01*
X191490Y461870D01*
X191510Y461850D01*
X191530Y461830D01*
X191550Y461810D01*
X191560Y461790D01*
X191580Y461770D01*
X191590Y461750D01*
X191610Y461730D01*
X191620Y461700D01*
X191630Y461680D01*
X191640Y461650D01*
Y461630D01*
X191650Y461600D01*
Y461580D01*
X191660Y461550D01*
Y445550D01*
X191650Y445520D01*
Y445500D01*
X191640Y445470D01*
Y445450D01*
X191630Y445420D01*
X191620Y445400D01*
X191610Y445370D01*
X191590Y445350D01*
X191580Y445330D01*
X191560Y445310D01*
X191550Y445290D01*
X191530Y445270D01*
X191510Y445250D01*
X191490Y445230D01*
X191470Y445210D01*
X191450Y445200D01*
X191430Y445180D01*
X191410Y445170D01*
X191390Y445150D01*
X191360Y445140D01*
X191340Y445130D01*
X191310Y445120D01*
X191290D01*
X191260Y445110D01*
X191240D01*
X191210Y445100D01*
X184710D01*
X184680Y445110D01*
X184660D01*
X184630Y445120D01*
X184610D01*
X184580Y445130D01*
X184560Y445140D01*
X184530Y445150D01*
X184510Y445170D01*
X184490Y445180D01*
X184470Y445200D01*
X184450Y445210D01*
X184430Y445230D01*
X184410Y445250D01*
X184390Y445270D01*
X184370Y445290D01*
X184360Y445310D01*
X184340Y445330D01*
X184330Y445350D01*
X184310Y445370D01*
X184300Y445400D01*
X184290Y445420D01*
X184280Y445450D01*
Y445470D01*
X184270Y445500D01*
Y445520D01*
X184260Y445550D01*
Y461550D01*
X184270Y461580D01*
Y461600D01*
X184280Y461630D01*
Y461650D01*
X184290Y461680D01*
X184300Y461700D01*
X184310Y461730D01*
X184330Y461750D01*
X184340Y461770D01*
X184360Y461790D01*
X184370Y461810D01*
X184390Y461830D01*
X184410Y461850D01*
X184430Y461870D01*
X184450Y461890D01*
X184470Y461900D01*
X184490Y461920D01*
X184510Y461930D01*
X184530Y461950D01*
X184560Y461960D01*
X184580Y461970D01*
X184610Y461980D01*
X184630D01*
X184660Y461990D01*
X184680D01*
X184710Y462000D01*
X191210D01*
X191240Y461990D01*
D02*
G37*
G36*
X1126837Y420550D02*
X1127046D01*
X1127080Y420548D01*
X1127113D01*
X1127146Y420544D01*
X1127179Y420541D01*
X1127212Y420535D01*
X1127245Y420531D01*
X1127655Y420449D01*
X1127688Y420440D01*
X1127720Y420434D01*
X1127752Y420423D01*
X1127784Y420415D01*
X1127815Y420402D01*
X1127846Y420391D01*
X1128233Y420231D01*
X1128263Y420216D01*
X1128294Y420203D01*
X1128323Y420187D01*
X1128353Y420172D01*
X1128380Y420153D01*
X1128409Y420137D01*
X1128757Y419904D01*
X1128784Y419884D01*
X1128811Y419865D01*
X1128836Y419843D01*
X1128863Y419823D01*
X1128887Y419799D01*
X1128912Y419777D01*
X1129208Y419482D01*
X1129230Y419456D01*
X1129253Y419433D01*
X1129273Y419407D01*
X1129295Y419381D01*
X1129314Y419354D01*
X1129334Y419327D01*
X1129567Y418979D01*
X1129583Y418950D01*
X1129602Y418923D01*
X1129617Y418893D01*
X1129633Y418864D01*
X1129646Y418833D01*
X1129661Y418803D01*
X1129821Y418416D01*
X1129832Y418385D01*
X1129845Y418354D01*
X1129853Y418322D01*
X1129864Y418290D01*
X1129870Y418258D01*
X1129879Y418226D01*
X1129961Y417815D01*
X1129965Y417782D01*
X1129971Y417749D01*
X1129974Y417716D01*
X1129978Y417683D01*
Y417650D01*
X1129980Y417616D01*
Y417407D01*
Y412157D01*
Y411948D01*
X1129978Y411914D01*
Y411881D01*
X1129974Y411848D01*
X1129971Y411815D01*
X1129965Y411782D01*
X1129961Y411749D01*
X1129879Y411339D01*
X1129870Y411306D01*
X1129864Y411274D01*
X1129853Y411242D01*
X1129845Y411210D01*
X1129832Y411179D01*
X1129821Y411148D01*
X1129661Y410761D01*
X1129646Y410731D01*
X1129633Y410700D01*
X1129617Y410671D01*
X1129602Y410641D01*
X1129583Y410614D01*
X1129567Y410585D01*
X1129334Y410237D01*
X1129314Y410210D01*
X1129295Y410183D01*
X1129274Y410158D01*
X1129253Y410131D01*
X1129229Y410107D01*
X1129208Y410082D01*
X1128912Y409786D01*
X1128886Y409764D01*
X1128863Y409741D01*
X1128837Y409721D01*
X1128811Y409699D01*
X1128784Y409680D01*
X1128757Y409660D01*
X1128409Y409427D01*
X1128380Y409411D01*
X1128353Y409392D01*
X1128323Y409377D01*
X1128294Y409361D01*
X1128263Y409348D01*
X1128233Y409333D01*
X1127847Y409173D01*
X1127815Y409162D01*
X1127784Y409150D01*
X1127752Y409141D01*
X1127720Y409130D01*
X1127688Y409124D01*
X1127655Y409115D01*
X1127245Y409033D01*
X1127212Y409029D01*
X1127179Y409022D01*
X1127146Y409020D01*
X1127113Y409016D01*
X1127080D01*
X1127046Y409014D01*
X1116094D01*
X1115961Y409022D01*
X1115831Y409049D01*
X1115704Y409091D01*
X1115585Y409150D01*
X1115474Y409224D01*
X1115374Y409312D01*
X1115286Y409412D01*
X1115212Y409523D01*
X1115153Y409642D01*
X1115111Y409768D01*
X1115085Y409899D01*
X1115076Y410026D01*
X1114371Y409315D01*
X1114370Y409314D01*
X1114368Y409312D01*
X1114319Y409269D01*
X1114271Y409227D01*
X1114269Y409226D01*
X1114268Y409224D01*
X1114214Y409188D01*
X1114161Y409152D01*
X1114159Y409151D01*
X1114157Y409150D01*
X1114100Y409122D01*
X1114041Y409093D01*
X1114040Y409092D01*
X1114038Y409091D01*
X1113977Y409071D01*
X1113915Y409049D01*
X1113913Y409049D01*
X1113912Y409049D01*
X1113846Y409035D01*
X1113785Y409023D01*
X1113783Y409023D01*
X1113781Y409022D01*
X1113712Y409018D01*
X1113652Y409014D01*
X1113650Y409014D01*
X1113648Y409014D01*
X1107008D01*
X1106974Y409016D01*
X1106941D01*
X1106908Y409020D01*
X1106875Y409022D01*
X1106842Y409029D01*
X1106809Y409033D01*
X1106398Y409115D01*
X1106366Y409124D01*
X1106334Y409130D01*
X1106302Y409141D01*
X1106270Y409150D01*
X1106239Y409162D01*
X1106208Y409173D01*
X1105821Y409333D01*
X1105791Y409348D01*
X1105760Y409361D01*
X1105731Y409377D01*
X1105701Y409392D01*
X1105674Y409411D01*
X1105645Y409427D01*
X1105297Y409660D01*
X1105270Y409680D01*
X1105243Y409699D01*
X1105218Y409720D01*
X1105191Y409741D01*
X1105167Y409765D01*
X1105142Y409786D01*
X1104846Y410082D01*
X1104824Y410108D01*
X1104801Y410131D01*
X1104781Y410157D01*
X1104759Y410183D01*
X1104740Y410210D01*
X1104720Y410237D01*
X1104487Y410585D01*
X1104471Y410614D01*
X1104452Y410641D01*
X1104437Y410671D01*
X1104421Y410700D01*
X1104408Y410731D01*
X1104393Y410761D01*
X1104233Y411147D01*
X1104222Y411179D01*
X1104210Y411210D01*
X1104201Y411242D01*
X1104190Y411274D01*
X1104184Y411306D01*
X1104175Y411339D01*
X1104093Y411749D01*
X1104089Y411782D01*
X1104082Y411815D01*
X1104080Y411848D01*
X1104076Y411881D01*
Y411914D01*
X1104074Y411948D01*
Y412157D01*
Y412157D01*
Y417407D01*
Y417616D01*
X1104076Y417650D01*
Y417683D01*
X1104080Y417716D01*
X1104082Y417749D01*
X1104089Y417782D01*
X1104093Y417815D01*
X1104175Y418226D01*
X1104184Y418258D01*
X1104190Y418290D01*
X1104201Y418322D01*
X1104210Y418354D01*
X1104222Y418385D01*
X1104233Y418416D01*
X1104393Y418803D01*
X1104408Y418833D01*
X1104421Y418864D01*
X1104437Y418893D01*
X1104452Y418923D01*
X1104471Y418950D01*
X1104487Y418979D01*
X1104720Y419327D01*
X1104740Y419354D01*
X1104759Y419381D01*
X1104781Y419406D01*
X1104801Y419433D01*
X1104825Y419457D01*
X1104846Y419482D01*
X1105142Y419777D01*
X1105168Y419800D01*
X1105191Y419823D01*
X1105217Y419843D01*
X1105243Y419865D01*
X1105270Y419884D01*
X1105297Y419904D01*
X1105645Y420137D01*
X1105674Y420153D01*
X1105701Y420172D01*
X1105731Y420187D01*
X1105760Y420203D01*
X1105791Y420216D01*
X1105821Y420231D01*
X1106208Y420391D01*
X1106239Y420402D01*
X1106270Y420415D01*
X1106302Y420423D01*
X1106334Y420434D01*
X1106366Y420440D01*
X1106398Y420449D01*
X1106809Y420531D01*
X1106842Y420535D01*
X1106875Y420541D01*
X1106908Y420544D01*
X1106941Y420548D01*
X1106974D01*
X1107008Y420550D01*
X1113648D01*
X1113650Y420550D01*
X1113652Y420550D01*
X1113718Y420546D01*
X1113781Y420541D01*
X1113783Y420541D01*
X1113785Y420541D01*
X1113849Y420528D01*
X1113912Y420516D01*
X1113913Y420515D01*
X1113915Y420514D01*
X1113977Y420493D01*
X1114038Y420473D01*
X1114040Y420472D01*
X1114041Y420471D01*
X1114101Y420441D01*
X1114157Y420414D01*
X1114159Y420413D01*
X1114161Y420412D01*
X1114216Y420375D01*
X1114268Y420340D01*
X1114269Y420339D01*
X1114271Y420337D01*
X1114321Y420294D01*
X1114368Y420252D01*
X1114369Y420251D01*
X1114371Y420249D01*
X1115125Y419490D01*
X1115122Y419532D01*
X1115131Y419665D01*
X1115157Y419796D01*
X1115199Y419922D01*
X1115258Y420041D01*
X1115332Y420152D01*
X1115420Y420252D01*
X1115520Y420340D01*
X1115631Y420414D01*
X1115750Y420473D01*
X1115877Y420516D01*
X1116007Y420541D01*
X1116140Y420550D01*
X1126837Y420550D01*
D02*
G37*
G36*
X222510Y413550D02*
X191510D01*
Y439550D01*
X222510D01*
Y413550D01*
D02*
G37*
G36*
X229340Y407990D02*
X229360D01*
X229390Y407980D01*
X229410D01*
X229440Y407970D01*
X229460Y407960D01*
X229490Y407950D01*
X229510Y407930D01*
X229530Y407920D01*
X229550Y407900D01*
X229570Y407890D01*
X229590Y407870D01*
X229610Y407850D01*
X229630Y407830D01*
X229650Y407810D01*
X229660Y407790D01*
X229680Y407770D01*
X229690Y407750D01*
X229710Y407730D01*
X229720Y407700D01*
X229730Y407680D01*
X229740Y407650D01*
Y407630D01*
X229750Y407600D01*
Y407580D01*
X229760Y407550D01*
Y391550D01*
X229750Y391520D01*
Y391500D01*
X229740Y391470D01*
Y391450D01*
X229730Y391420D01*
X229720Y391400D01*
X229710Y391370D01*
X229690Y391350D01*
X229680Y391330D01*
X229660Y391310D01*
X229650Y391290D01*
X229630Y391270D01*
X229610Y391250D01*
X229590Y391230D01*
X229570Y391210D01*
X229550Y391200D01*
X229530Y391180D01*
X229510Y391170D01*
X229490Y391150D01*
X229460Y391140D01*
X229440Y391130D01*
X229410Y391120D01*
X229390D01*
X229360Y391110D01*
X229340D01*
X229310Y391100D01*
X222810D01*
X222780Y391110D01*
X222760D01*
X222730Y391120D01*
X222710D01*
X222680Y391130D01*
X222660Y391140D01*
X222630Y391150D01*
X222610Y391170D01*
X222590Y391180D01*
X222570Y391200D01*
X222550Y391210D01*
X222530Y391230D01*
X222510Y391250D01*
X222490Y391270D01*
X222470Y391290D01*
X222460Y391310D01*
X222440Y391330D01*
X222430Y391350D01*
X222410Y391370D01*
X222400Y391400D01*
X222390Y391420D01*
X222380Y391450D01*
Y391470D01*
X222370Y391500D01*
Y391520D01*
X222360Y391550D01*
Y407550D01*
X222370Y407580D01*
Y407600D01*
X222380Y407630D01*
Y407650D01*
X222390Y407680D01*
X222400Y407700D01*
X222410Y407730D01*
X222430Y407750D01*
X222440Y407770D01*
X222460Y407790D01*
X222470Y407810D01*
X222490Y407830D01*
X222510Y407850D01*
X222530Y407870D01*
X222550Y407890D01*
X222570Y407900D01*
X222590Y407920D01*
X222610Y407930D01*
X222630Y407950D01*
X222660Y407960D01*
X222680Y407970D01*
X222710Y407980D01*
X222730D01*
X222760Y407990D01*
X222780D01*
X222810Y408000D01*
X229310D01*
X229340Y407990D01*
D02*
G37*
G36*
X216640D02*
X216660D01*
X216690Y407980D01*
X216710D01*
X216740Y407970D01*
X216760Y407960D01*
X216790Y407950D01*
X216810Y407930D01*
X216830Y407920D01*
X216850Y407900D01*
X216870Y407890D01*
X216890Y407870D01*
X216910Y407850D01*
X216930Y407830D01*
X216950Y407810D01*
X216960Y407790D01*
X216980Y407770D01*
X216990Y407750D01*
X217010Y407730D01*
X217020Y407700D01*
X217030Y407680D01*
X217040Y407650D01*
Y407630D01*
X217050Y407600D01*
Y407580D01*
X217060Y407550D01*
Y391550D01*
X217050Y391520D01*
Y391500D01*
X217040Y391470D01*
Y391450D01*
X217030Y391420D01*
X217020Y391400D01*
X217010Y391370D01*
X216990Y391350D01*
X216980Y391330D01*
X216960Y391310D01*
X216950Y391290D01*
X216930Y391270D01*
X216910Y391250D01*
X216890Y391230D01*
X216870Y391210D01*
X216850Y391200D01*
X216830Y391180D01*
X216810Y391170D01*
X216790Y391150D01*
X216760Y391140D01*
X216740Y391130D01*
X216710Y391120D01*
X216690D01*
X216660Y391110D01*
X216640D01*
X216610Y391100D01*
X210110D01*
X210080Y391110D01*
X210060D01*
X210030Y391120D01*
X210010D01*
X209980Y391130D01*
X209960Y391140D01*
X209930Y391150D01*
X209910Y391170D01*
X209890Y391180D01*
X209870Y391200D01*
X209850Y391210D01*
X209830Y391230D01*
X209810Y391250D01*
X209790Y391270D01*
X209770Y391290D01*
X209760Y391310D01*
X209740Y391330D01*
X209730Y391350D01*
X209710Y391370D01*
X209700Y391400D01*
X209690Y391420D01*
X209680Y391450D01*
Y391470D01*
X209670Y391500D01*
Y391520D01*
X209660Y391550D01*
Y407550D01*
X209670Y407580D01*
Y407600D01*
X209680Y407630D01*
Y407650D01*
X209690Y407680D01*
X209700Y407700D01*
X209710Y407730D01*
X209730Y407750D01*
X209740Y407770D01*
X209760Y407790D01*
X209770Y407810D01*
X209790Y407830D01*
X209810Y407850D01*
X209830Y407870D01*
X209850Y407890D01*
X209870Y407900D01*
X209890Y407920D01*
X209910Y407930D01*
X209930Y407950D01*
X209960Y407960D01*
X209980Y407970D01*
X210010Y407980D01*
X210030D01*
X210060Y407990D01*
X210080D01*
X210110Y408000D01*
X216610D01*
X216640Y407990D01*
D02*
G37*
G36*
X203940D02*
X203960D01*
X203990Y407980D01*
X204010D01*
X204040Y407970D01*
X204060Y407960D01*
X204090Y407950D01*
X204110Y407930D01*
X204130Y407920D01*
X204150Y407900D01*
X204170Y407890D01*
X204190Y407870D01*
X204210Y407850D01*
X204230Y407830D01*
X204250Y407810D01*
X204260Y407790D01*
X204280Y407770D01*
X204290Y407750D01*
X204310Y407730D01*
X204320Y407700D01*
X204330Y407680D01*
X204340Y407650D01*
Y407630D01*
X204350Y407600D01*
Y407580D01*
X204360Y407550D01*
Y391550D01*
X204350Y391520D01*
Y391500D01*
X204340Y391470D01*
Y391450D01*
X204330Y391420D01*
X204320Y391400D01*
X204310Y391370D01*
X204290Y391350D01*
X204280Y391330D01*
X204260Y391310D01*
X204250Y391290D01*
X204230Y391270D01*
X204210Y391250D01*
X204190Y391230D01*
X204170Y391210D01*
X204150Y391200D01*
X204130Y391180D01*
X204110Y391170D01*
X204090Y391150D01*
X204060Y391140D01*
X204040Y391130D01*
X204010Y391120D01*
X203990D01*
X203960Y391110D01*
X203940D01*
X203910Y391100D01*
X197410D01*
X197380Y391110D01*
X197360D01*
X197330Y391120D01*
X197310D01*
X197280Y391130D01*
X197260Y391140D01*
X197230Y391150D01*
X197210Y391170D01*
X197190Y391180D01*
X197170Y391200D01*
X197150Y391210D01*
X197130Y391230D01*
X197110Y391250D01*
X197090Y391270D01*
X197070Y391290D01*
X197060Y391310D01*
X197040Y391330D01*
X197030Y391350D01*
X197010Y391370D01*
X197000Y391400D01*
X196990Y391420D01*
X196980Y391450D01*
Y391470D01*
X196970Y391500D01*
Y391520D01*
X196960Y391550D01*
Y407550D01*
X196970Y407580D01*
Y407600D01*
X196980Y407630D01*
Y407650D01*
X196990Y407680D01*
X197000Y407700D01*
X197010Y407730D01*
X197030Y407750D01*
X197040Y407770D01*
X197060Y407790D01*
X197070Y407810D01*
X197090Y407830D01*
X197110Y407850D01*
X197130Y407870D01*
X197150Y407890D01*
X197170Y407900D01*
X197190Y407920D01*
X197210Y407930D01*
X197230Y407950D01*
X197260Y407960D01*
X197280Y407970D01*
X197310Y407980D01*
X197330D01*
X197360Y407990D01*
X197380D01*
X197410Y408000D01*
X203910D01*
X203940Y407990D01*
D02*
G37*
G36*
X191240D02*
X191260D01*
X191290Y407980D01*
X191310D01*
X191340Y407970D01*
X191360Y407960D01*
X191390Y407950D01*
X191410Y407930D01*
X191430Y407920D01*
X191450Y407900D01*
X191470Y407890D01*
X191490Y407870D01*
X191510Y407850D01*
X191530Y407830D01*
X191550Y407810D01*
X191560Y407790D01*
X191580Y407770D01*
X191590Y407750D01*
X191610Y407730D01*
X191620Y407700D01*
X191630Y407680D01*
X191640Y407650D01*
Y407630D01*
X191650Y407600D01*
Y407580D01*
X191660Y407550D01*
Y391550D01*
X191650Y391520D01*
Y391500D01*
X191640Y391470D01*
Y391450D01*
X191630Y391420D01*
X191620Y391400D01*
X191610Y391370D01*
X191590Y391350D01*
X191580Y391330D01*
X191560Y391310D01*
X191550Y391290D01*
X191530Y391270D01*
X191510Y391250D01*
X191490Y391230D01*
X191470Y391210D01*
X191450Y391200D01*
X191430Y391180D01*
X191410Y391170D01*
X191390Y391150D01*
X191360Y391140D01*
X191340Y391130D01*
X191310Y391120D01*
X191290D01*
X191260Y391110D01*
X191240D01*
X191210Y391100D01*
X184710D01*
X184680Y391110D01*
X184660D01*
X184630Y391120D01*
X184610D01*
X184580Y391130D01*
X184560Y391140D01*
X184530Y391150D01*
X184510Y391170D01*
X184490Y391180D01*
X184470Y391200D01*
X184450Y391210D01*
X184430Y391230D01*
X184410Y391250D01*
X184390Y391270D01*
X184370Y391290D01*
X184360Y391310D01*
X184340Y391330D01*
X184330Y391350D01*
X184310Y391370D01*
X184300Y391400D01*
X184290Y391420D01*
X184280Y391450D01*
Y391470D01*
X184270Y391500D01*
Y391520D01*
X184260Y391550D01*
Y407550D01*
X184270Y407580D01*
Y407600D01*
X184280Y407630D01*
Y407650D01*
X184290Y407680D01*
X184300Y407700D01*
X184310Y407730D01*
X184330Y407750D01*
X184340Y407770D01*
X184360Y407790D01*
X184370Y407810D01*
X184390Y407830D01*
X184410Y407850D01*
X184430Y407870D01*
X184450Y407890D01*
X184470Y407900D01*
X184490Y407920D01*
X184510Y407930D01*
X184530Y407950D01*
X184560Y407960D01*
X184580Y407970D01*
X184610Y407980D01*
X184630D01*
X184660Y407990D01*
X184680D01*
X184710Y408000D01*
X191210D01*
X191240Y407990D01*
D02*
G37*
G36*
X229340Y265310D02*
X229360D01*
X229390Y265300D01*
X229410D01*
X229440Y265290D01*
X229460Y265280D01*
X229490Y265270D01*
X229510Y265250D01*
X229530Y265240D01*
X229550Y265220D01*
X229570Y265210D01*
X229590Y265190D01*
X229610Y265170D01*
X229630Y265150D01*
X229650Y265130D01*
X229660Y265110D01*
X229680Y265090D01*
X229690Y265070D01*
X229710Y265050D01*
X229720Y265020D01*
X229730Y265000D01*
X229740Y264970D01*
Y264950D01*
X229750Y264920D01*
Y264900D01*
X229760Y264870D01*
Y248870D01*
X229750Y248840D01*
Y248820D01*
X229740Y248790D01*
Y248770D01*
X229730Y248740D01*
X229720Y248720D01*
X229710Y248690D01*
X229690Y248670D01*
X229680Y248650D01*
X229660Y248630D01*
X229650Y248610D01*
X229630Y248590D01*
X229610Y248570D01*
X229590Y248550D01*
X229570Y248530D01*
X229550Y248520D01*
X229530Y248500D01*
X229510Y248490D01*
X229490Y248470D01*
X229460Y248460D01*
X229440Y248450D01*
X229410Y248440D01*
X229390D01*
X229360Y248430D01*
X229340D01*
X229310Y248420D01*
X222810D01*
X222780Y248430D01*
X222760D01*
X222730Y248440D01*
X222710D01*
X222680Y248450D01*
X222660Y248460D01*
X222630Y248470D01*
X222610Y248490D01*
X222590Y248500D01*
X222570Y248520D01*
X222550Y248530D01*
X222530Y248550D01*
X222510Y248570D01*
X222490Y248590D01*
X222470Y248610D01*
X222460Y248630D01*
X222440Y248650D01*
X222430Y248670D01*
X222410Y248690D01*
X222400Y248720D01*
X222390Y248740D01*
X222380Y248770D01*
Y248790D01*
X222370Y248820D01*
Y248840D01*
X222360Y248870D01*
Y264870D01*
X222370Y264900D01*
Y264920D01*
X222380Y264950D01*
Y264970D01*
X222390Y265000D01*
X222400Y265020D01*
X222410Y265050D01*
X222430Y265070D01*
X222440Y265090D01*
X222460Y265110D01*
X222470Y265130D01*
X222490Y265150D01*
X222510Y265170D01*
X222530Y265190D01*
X222550Y265210D01*
X222570Y265220D01*
X222590Y265240D01*
X222610Y265250D01*
X222630Y265270D01*
X222660Y265280D01*
X222680Y265290D01*
X222710Y265300D01*
X222730D01*
X222760Y265310D01*
X222780D01*
X222810Y265320D01*
X229310D01*
X229340Y265310D01*
D02*
G37*
G36*
X216640D02*
X216660D01*
X216690Y265300D01*
X216710D01*
X216740Y265290D01*
X216760Y265280D01*
X216790Y265270D01*
X216810Y265250D01*
X216830Y265240D01*
X216850Y265220D01*
X216870Y265210D01*
X216890Y265190D01*
X216910Y265170D01*
X216930Y265150D01*
X216950Y265130D01*
X216960Y265110D01*
X216980Y265090D01*
X216990Y265070D01*
X217010Y265050D01*
X217020Y265020D01*
X217030Y265000D01*
X217040Y264970D01*
Y264950D01*
X217050Y264920D01*
Y264900D01*
X217060Y264870D01*
Y248870D01*
X217050Y248840D01*
Y248820D01*
X217040Y248790D01*
Y248770D01*
X217030Y248740D01*
X217020Y248720D01*
X217010Y248690D01*
X216990Y248670D01*
X216980Y248650D01*
X216960Y248630D01*
X216950Y248610D01*
X216930Y248590D01*
X216910Y248570D01*
X216890Y248550D01*
X216870Y248530D01*
X216850Y248520D01*
X216830Y248500D01*
X216810Y248490D01*
X216790Y248470D01*
X216760Y248460D01*
X216740Y248450D01*
X216710Y248440D01*
X216690D01*
X216660Y248430D01*
X216640D01*
X216610Y248420D01*
X210110D01*
X210080Y248430D01*
X210060D01*
X210030Y248440D01*
X210010D01*
X209980Y248450D01*
X209960Y248460D01*
X209930Y248470D01*
X209910Y248490D01*
X209890Y248500D01*
X209870Y248520D01*
X209850Y248530D01*
X209830Y248550D01*
X209810Y248570D01*
X209790Y248590D01*
X209770Y248610D01*
X209760Y248630D01*
X209740Y248650D01*
X209730Y248670D01*
X209710Y248690D01*
X209700Y248720D01*
X209690Y248740D01*
X209680Y248770D01*
Y248790D01*
X209670Y248820D01*
Y248840D01*
X209660Y248870D01*
Y264870D01*
X209670Y264900D01*
Y264920D01*
X209680Y264950D01*
Y264970D01*
X209690Y265000D01*
X209700Y265020D01*
X209710Y265050D01*
X209730Y265070D01*
X209740Y265090D01*
X209760Y265110D01*
X209770Y265130D01*
X209790Y265150D01*
X209810Y265170D01*
X209830Y265190D01*
X209850Y265210D01*
X209870Y265220D01*
X209890Y265240D01*
X209910Y265250D01*
X209930Y265270D01*
X209960Y265280D01*
X209980Y265290D01*
X210010Y265300D01*
X210030D01*
X210060Y265310D01*
X210080D01*
X210110Y265320D01*
X216610D01*
X216640Y265310D01*
D02*
G37*
G36*
X203940D02*
X203960D01*
X203990Y265300D01*
X204010D01*
X204040Y265290D01*
X204060Y265280D01*
X204090Y265270D01*
X204110Y265250D01*
X204130Y265240D01*
X204150Y265220D01*
X204170Y265210D01*
X204190Y265190D01*
X204210Y265170D01*
X204230Y265150D01*
X204250Y265130D01*
X204260Y265110D01*
X204280Y265090D01*
X204290Y265070D01*
X204310Y265050D01*
X204320Y265020D01*
X204330Y265000D01*
X204340Y264970D01*
Y264950D01*
X204350Y264920D01*
Y264900D01*
X204360Y264870D01*
Y248870D01*
X204350Y248840D01*
Y248820D01*
X204340Y248790D01*
Y248770D01*
X204330Y248740D01*
X204320Y248720D01*
X204310Y248690D01*
X204290Y248670D01*
X204280Y248650D01*
X204260Y248630D01*
X204250Y248610D01*
X204230Y248590D01*
X204210Y248570D01*
X204190Y248550D01*
X204170Y248530D01*
X204150Y248520D01*
X204130Y248500D01*
X204110Y248490D01*
X204090Y248470D01*
X204060Y248460D01*
X204040Y248450D01*
X204010Y248440D01*
X203990D01*
X203960Y248430D01*
X203940D01*
X203910Y248420D01*
X197410D01*
X197380Y248430D01*
X197360D01*
X197330Y248440D01*
X197310D01*
X197280Y248450D01*
X197260Y248460D01*
X197230Y248470D01*
X197210Y248490D01*
X197190Y248500D01*
X197170Y248520D01*
X197150Y248530D01*
X197130Y248550D01*
X197110Y248570D01*
X197090Y248590D01*
X197070Y248610D01*
X197060Y248630D01*
X197040Y248650D01*
X197030Y248670D01*
X197010Y248690D01*
X197000Y248720D01*
X196990Y248740D01*
X196980Y248770D01*
Y248790D01*
X196970Y248820D01*
Y248840D01*
X196960Y248870D01*
Y264870D01*
X196970Y264900D01*
Y264920D01*
X196980Y264950D01*
Y264970D01*
X196990Y265000D01*
X197000Y265020D01*
X197010Y265050D01*
X197030Y265070D01*
X197040Y265090D01*
X197060Y265110D01*
X197070Y265130D01*
X197090Y265150D01*
X197110Y265170D01*
X197130Y265190D01*
X197150Y265210D01*
X197170Y265220D01*
X197190Y265240D01*
X197210Y265250D01*
X197230Y265270D01*
X197260Y265280D01*
X197280Y265290D01*
X197310Y265300D01*
X197330D01*
X197360Y265310D01*
X197380D01*
X197410Y265320D01*
X203910D01*
X203940Y265310D01*
D02*
G37*
G36*
X191240D02*
X191260D01*
X191290Y265300D01*
X191310D01*
X191340Y265290D01*
X191360Y265280D01*
X191390Y265270D01*
X191410Y265250D01*
X191430Y265240D01*
X191450Y265220D01*
X191470Y265210D01*
X191490Y265190D01*
X191510Y265170D01*
X191530Y265150D01*
X191550Y265130D01*
X191560Y265110D01*
X191580Y265090D01*
X191590Y265070D01*
X191610Y265050D01*
X191620Y265020D01*
X191630Y265000D01*
X191640Y264970D01*
Y264950D01*
X191650Y264920D01*
Y264900D01*
X191660Y264870D01*
Y248870D01*
X191650Y248840D01*
Y248820D01*
X191640Y248790D01*
Y248770D01*
X191630Y248740D01*
X191620Y248720D01*
X191610Y248690D01*
X191590Y248670D01*
X191580Y248650D01*
X191560Y248630D01*
X191550Y248610D01*
X191530Y248590D01*
X191510Y248570D01*
X191490Y248550D01*
X191470Y248530D01*
X191450Y248520D01*
X191430Y248500D01*
X191410Y248490D01*
X191390Y248470D01*
X191360Y248460D01*
X191340Y248450D01*
X191310Y248440D01*
X191290D01*
X191260Y248430D01*
X191240D01*
X191210Y248420D01*
X184710D01*
X184680Y248430D01*
X184660D01*
X184630Y248440D01*
X184610D01*
X184580Y248450D01*
X184560Y248460D01*
X184530Y248470D01*
X184510Y248490D01*
X184490Y248500D01*
X184470Y248520D01*
X184450Y248530D01*
X184430Y248550D01*
X184410Y248570D01*
X184390Y248590D01*
X184370Y248610D01*
X184360Y248630D01*
X184340Y248650D01*
X184330Y248670D01*
X184310Y248690D01*
X184300Y248720D01*
X184290Y248740D01*
X184280Y248770D01*
Y248790D01*
X184270Y248820D01*
Y248840D01*
X184260Y248870D01*
Y264870D01*
X184270Y264900D01*
Y264920D01*
X184280Y264950D01*
Y264970D01*
X184290Y265000D01*
X184300Y265020D01*
X184310Y265050D01*
X184330Y265070D01*
X184340Y265090D01*
X184360Y265110D01*
X184370Y265130D01*
X184390Y265150D01*
X184410Y265170D01*
X184430Y265190D01*
X184450Y265210D01*
X184470Y265220D01*
X184490Y265240D01*
X184510Y265250D01*
X184530Y265270D01*
X184560Y265280D01*
X184580Y265290D01*
X184610Y265300D01*
X184630D01*
X184660Y265310D01*
X184680D01*
X184710Y265320D01*
X191210D01*
X191240Y265310D01*
D02*
G37*
G36*
X222510Y216870D02*
X191510D01*
Y242870D01*
X222510D01*
Y216870D01*
D02*
G37*
G36*
X229340Y211310D02*
X229360D01*
X229390Y211300D01*
X229410D01*
X229440Y211290D01*
X229460Y211280D01*
X229490Y211270D01*
X229510Y211250D01*
X229530Y211240D01*
X229550Y211220D01*
X229570Y211210D01*
X229590Y211190D01*
X229610Y211170D01*
X229630Y211150D01*
X229650Y211130D01*
X229660Y211110D01*
X229680Y211090D01*
X229690Y211070D01*
X229710Y211050D01*
X229720Y211020D01*
X229730Y211000D01*
X229740Y210970D01*
Y210950D01*
X229750Y210920D01*
Y210900D01*
X229760Y210870D01*
Y194870D01*
X229750Y194840D01*
Y194820D01*
X229740Y194790D01*
Y194770D01*
X229730Y194740D01*
X229720Y194720D01*
X229710Y194690D01*
X229690Y194670D01*
X229680Y194650D01*
X229660Y194630D01*
X229650Y194610D01*
X229630Y194590D01*
X229610Y194570D01*
X229590Y194550D01*
X229570Y194530D01*
X229550Y194520D01*
X229530Y194500D01*
X229510Y194490D01*
X229490Y194470D01*
X229460Y194460D01*
X229440Y194450D01*
X229410Y194440D01*
X229390D01*
X229360Y194430D01*
X229340D01*
X229310Y194420D01*
X222810D01*
X222780Y194430D01*
X222760D01*
X222730Y194440D01*
X222710D01*
X222680Y194450D01*
X222660Y194460D01*
X222630Y194470D01*
X222610Y194490D01*
X222590Y194500D01*
X222570Y194520D01*
X222550Y194530D01*
X222530Y194550D01*
X222510Y194570D01*
X222490Y194590D01*
X222470Y194610D01*
X222460Y194630D01*
X222440Y194650D01*
X222430Y194670D01*
X222410Y194690D01*
X222400Y194720D01*
X222390Y194740D01*
X222380Y194770D01*
Y194790D01*
X222370Y194820D01*
Y194840D01*
X222360Y194870D01*
Y210870D01*
X222370Y210900D01*
Y210920D01*
X222380Y210950D01*
Y210970D01*
X222390Y211000D01*
X222400Y211020D01*
X222410Y211050D01*
X222430Y211070D01*
X222440Y211090D01*
X222460Y211110D01*
X222470Y211130D01*
X222490Y211150D01*
X222510Y211170D01*
X222530Y211190D01*
X222550Y211210D01*
X222570Y211220D01*
X222590Y211240D01*
X222610Y211250D01*
X222630Y211270D01*
X222660Y211280D01*
X222680Y211290D01*
X222710Y211300D01*
X222730D01*
X222760Y211310D01*
X222780D01*
X222810Y211320D01*
X229310D01*
X229340Y211310D01*
D02*
G37*
G36*
X216640D02*
X216660D01*
X216690Y211300D01*
X216710D01*
X216740Y211290D01*
X216760Y211280D01*
X216790Y211270D01*
X216810Y211250D01*
X216830Y211240D01*
X216850Y211220D01*
X216870Y211210D01*
X216890Y211190D01*
X216910Y211170D01*
X216930Y211150D01*
X216950Y211130D01*
X216960Y211110D01*
X216980Y211090D01*
X216990Y211070D01*
X217010Y211050D01*
X217020Y211020D01*
X217030Y211000D01*
X217040Y210970D01*
Y210950D01*
X217050Y210920D01*
Y210900D01*
X217060Y210870D01*
Y194870D01*
X217050Y194840D01*
Y194820D01*
X217040Y194790D01*
Y194770D01*
X217030Y194740D01*
X217020Y194720D01*
X217010Y194690D01*
X216990Y194670D01*
X216980Y194650D01*
X216960Y194630D01*
X216950Y194610D01*
X216930Y194590D01*
X216910Y194570D01*
X216890Y194550D01*
X216870Y194530D01*
X216850Y194520D01*
X216830Y194500D01*
X216810Y194490D01*
X216790Y194470D01*
X216760Y194460D01*
X216740Y194450D01*
X216710Y194440D01*
X216690D01*
X216660Y194430D01*
X216640D01*
X216610Y194420D01*
X210110D01*
X210080Y194430D01*
X210060D01*
X210030Y194440D01*
X210010D01*
X209980Y194450D01*
X209960Y194460D01*
X209930Y194470D01*
X209910Y194490D01*
X209890Y194500D01*
X209870Y194520D01*
X209850Y194530D01*
X209830Y194550D01*
X209810Y194570D01*
X209790Y194590D01*
X209770Y194610D01*
X209760Y194630D01*
X209740Y194650D01*
X209730Y194670D01*
X209710Y194690D01*
X209700Y194720D01*
X209690Y194740D01*
X209680Y194770D01*
Y194790D01*
X209670Y194820D01*
Y194840D01*
X209660Y194870D01*
Y210870D01*
X209670Y210900D01*
Y210920D01*
X209680Y210950D01*
Y210970D01*
X209690Y211000D01*
X209700Y211020D01*
X209710Y211050D01*
X209730Y211070D01*
X209740Y211090D01*
X209760Y211110D01*
X209770Y211130D01*
X209790Y211150D01*
X209810Y211170D01*
X209830Y211190D01*
X209850Y211210D01*
X209870Y211220D01*
X209890Y211240D01*
X209910Y211250D01*
X209930Y211270D01*
X209960Y211280D01*
X209980Y211290D01*
X210010Y211300D01*
X210030D01*
X210060Y211310D01*
X210080D01*
X210110Y211320D01*
X216610D01*
X216640Y211310D01*
D02*
G37*
G36*
X203940D02*
X203960D01*
X203990Y211300D01*
X204010D01*
X204040Y211290D01*
X204060Y211280D01*
X204090Y211270D01*
X204110Y211250D01*
X204130Y211240D01*
X204150Y211220D01*
X204170Y211210D01*
X204190Y211190D01*
X204210Y211170D01*
X204230Y211150D01*
X204250Y211130D01*
X204260Y211110D01*
X204280Y211090D01*
X204290Y211070D01*
X204310Y211050D01*
X204320Y211020D01*
X204330Y211000D01*
X204340Y210970D01*
Y210950D01*
X204350Y210920D01*
Y210900D01*
X204360Y210870D01*
Y194870D01*
X204350Y194840D01*
Y194820D01*
X204340Y194790D01*
Y194770D01*
X204330Y194740D01*
X204320Y194720D01*
X204310Y194690D01*
X204290Y194670D01*
X204280Y194650D01*
X204260Y194630D01*
X204250Y194610D01*
X204230Y194590D01*
X204210Y194570D01*
X204190Y194550D01*
X204170Y194530D01*
X204150Y194520D01*
X204130Y194500D01*
X204110Y194490D01*
X204090Y194470D01*
X204060Y194460D01*
X204040Y194450D01*
X204010Y194440D01*
X203990D01*
X203960Y194430D01*
X203940D01*
X203910Y194420D01*
X197410D01*
X197380Y194430D01*
X197360D01*
X197330Y194440D01*
X197310D01*
X197280Y194450D01*
X197260Y194460D01*
X197230Y194470D01*
X197210Y194490D01*
X197190Y194500D01*
X197170Y194520D01*
X197150Y194530D01*
X197130Y194550D01*
X197110Y194570D01*
X197090Y194590D01*
X197070Y194610D01*
X197060Y194630D01*
X197040Y194650D01*
X197030Y194670D01*
X197010Y194690D01*
X197000Y194720D01*
X196990Y194740D01*
X196980Y194770D01*
Y194790D01*
X196970Y194820D01*
Y194840D01*
X196960Y194870D01*
Y210870D01*
X196970Y210900D01*
Y210920D01*
X196980Y210950D01*
Y210970D01*
X196990Y211000D01*
X197000Y211020D01*
X197010Y211050D01*
X197030Y211070D01*
X197040Y211090D01*
X197060Y211110D01*
X197070Y211130D01*
X197090Y211150D01*
X197110Y211170D01*
X197130Y211190D01*
X197150Y211210D01*
X197170Y211220D01*
X197190Y211240D01*
X197210Y211250D01*
X197230Y211270D01*
X197260Y211280D01*
X197280Y211290D01*
X197310Y211300D01*
X197330D01*
X197360Y211310D01*
X197380D01*
X197410Y211320D01*
X203910D01*
X203940Y211310D01*
D02*
G37*
G36*
X191240D02*
X191260D01*
X191290Y211300D01*
X191310D01*
X191340Y211290D01*
X191360Y211280D01*
X191390Y211270D01*
X191410Y211250D01*
X191430Y211240D01*
X191450Y211220D01*
X191470Y211210D01*
X191490Y211190D01*
X191510Y211170D01*
X191530Y211150D01*
X191550Y211130D01*
X191560Y211110D01*
X191580Y211090D01*
X191590Y211070D01*
X191610Y211050D01*
X191620Y211020D01*
X191630Y211000D01*
X191640Y210970D01*
Y210950D01*
X191650Y210920D01*
Y210900D01*
X191660Y210870D01*
Y194870D01*
X191650Y194840D01*
Y194820D01*
X191640Y194790D01*
Y194770D01*
X191630Y194740D01*
X191620Y194720D01*
X191610Y194690D01*
X191590Y194670D01*
X191580Y194650D01*
X191560Y194630D01*
X191550Y194610D01*
X191530Y194590D01*
X191510Y194570D01*
X191490Y194550D01*
X191470Y194530D01*
X191450Y194520D01*
X191430Y194500D01*
X191410Y194490D01*
X191390Y194470D01*
X191360Y194460D01*
X191340Y194450D01*
X191310Y194440D01*
X191290D01*
X191260Y194430D01*
X191240D01*
X191210Y194420D01*
X184710D01*
X184680Y194430D01*
X184660D01*
X184630Y194440D01*
X184610D01*
X184580Y194450D01*
X184560Y194460D01*
X184530Y194470D01*
X184510Y194490D01*
X184490Y194500D01*
X184470Y194520D01*
X184450Y194530D01*
X184430Y194550D01*
X184410Y194570D01*
X184390Y194590D01*
X184370Y194610D01*
X184360Y194630D01*
X184340Y194650D01*
X184330Y194670D01*
X184310Y194690D01*
X184300Y194720D01*
X184290Y194740D01*
X184280Y194770D01*
Y194790D01*
X184270Y194820D01*
Y194840D01*
X184260Y194870D01*
Y210870D01*
X184270Y210900D01*
Y210920D01*
X184280Y210950D01*
Y210970D01*
X184290Y211000D01*
X184300Y211020D01*
X184310Y211050D01*
X184330Y211070D01*
X184340Y211090D01*
X184360Y211110D01*
X184370Y211130D01*
X184390Y211150D01*
X184410Y211170D01*
X184430Y211190D01*
X184450Y211210D01*
X184470Y211220D01*
X184490Y211240D01*
X184510Y211250D01*
X184530Y211270D01*
X184560Y211280D01*
X184580Y211290D01*
X184610Y211300D01*
X184630D01*
X184660Y211310D01*
X184680D01*
X184710Y211320D01*
X191210D01*
X191240Y211310D01*
D02*
G37*
G36*
X1788409Y48293D02*
X1794815D01*
X1794935Y48457D01*
X1795000Y48293D01*
X1794815D01*
X1794739Y48190D01*
X1794413Y47492D01*
X1793955Y46363D01*
X1788469Y30538D01*
X1788409Y48293D01*
X1785000D01*
X1788405Y49653D01*
X1788409Y48293D01*
D02*
G37*
G36*
X135559Y29050D02*
X135861Y28200D01*
X136364Y27450D01*
X137067Y26800D01*
X137970Y26250D01*
X139073Y25800D01*
X140376Y25450D01*
X141879Y25200D01*
X143583Y25050D01*
X145486Y25000D01*
Y15000D01*
X135486Y17279D01*
X135456Y30000D01*
X135559Y29050D01*
D02*
G37*
G36*
X122593Y17279D02*
X122493Y16846D01*
X122193Y16459D01*
X121693Y16117D01*
X120993Y15820D01*
X120093Y15570D01*
X118994Y15365D01*
X117694Y15205D01*
X114494Y15022D01*
X112593Y15000D01*
Y25000D01*
X114497Y25050D01*
X116201Y25200D01*
X117704Y25450D01*
X119007Y25800D01*
X120110Y26250D01*
X121013Y26800D01*
X121716Y27450D01*
X122219Y28200D01*
X122521Y29050D01*
X122624Y30000D01*
X122593Y17279D01*
D02*
G37*
G36*
X344301Y17364D02*
X344201Y16915D01*
X343901Y16513D01*
X343401Y16158D01*
X342701Y15851D01*
X341801Y15591D01*
X340701Y15378D01*
X339401Y15213D01*
X336201Y15023D01*
X334301Y15000D01*
Y25000D01*
X336204Y25050D01*
X337908Y25200D01*
X339411Y25450D01*
X340714Y25800D01*
X341818Y26250D01*
X342721Y26800D01*
X343424Y27450D01*
X343926Y28200D01*
X344229Y29050D01*
X344331Y30000D01*
X344301Y17364D01*
D02*
G37*
G36*
X301658Y29050D02*
X301961Y28200D01*
X302464Y27450D01*
X303167Y26800D01*
X304070Y26250D01*
X305173Y25800D01*
X306476Y25450D01*
X307979Y25200D01*
X309683Y25050D01*
X311586Y25000D01*
Y15000D01*
X301586Y17279D01*
X301556Y30000D01*
X301658Y29050D01*
D02*
G37*
G36*
X531288Y29050D02*
X531591Y28200D01*
X532094Y27450D01*
X532796Y26800D01*
X533699Y26250D01*
X534803Y25800D01*
X536106Y25450D01*
X537609Y25200D01*
X539313Y25050D01*
X541216Y25000D01*
Y15000D01*
X531216Y17331D01*
X531186Y30000D01*
X531288Y29050D01*
D02*
G37*
G36*
X518777Y17331D02*
X518677Y16888D01*
X518377Y16491D01*
X517877Y16142D01*
X517177Y15839D01*
X516277Y15582D01*
X515177Y15373D01*
X513877Y15209D01*
X510677Y15023D01*
X508777Y15000D01*
Y25000D01*
X510681Y25050D01*
X512384Y25200D01*
X513888Y25450D01*
X515191Y25800D01*
X516294Y26250D01*
X517197Y26800D01*
X517900Y27450D01*
X518402Y28200D01*
X518705Y29050D01*
X518808Y30000D01*
X518777Y17331D01*
D02*
G37*
G36*
X483912Y29050D02*
X484214Y28200D01*
X484717Y27450D01*
X485420Y26800D01*
X486323Y26250D01*
X487426Y25800D01*
X488729Y25450D01*
X490233Y25200D01*
X491936Y25050D01*
X493840Y25000D01*
Y15000D01*
X483840Y17364D01*
X483809Y30000D01*
X483912Y29050D01*
D02*
G37*
G36*
X471401Y17364D02*
X471301Y16915D01*
X471001Y16513D01*
X470501Y16158D01*
X469801Y15851D01*
X468901Y15591D01*
X467801Y15378D01*
X466501Y15213D01*
X463301Y15023D01*
X461401Y15000D01*
Y25000D01*
X463304Y25050D01*
X465008Y25200D01*
X466511Y25450D01*
X467814Y25800D01*
X468918Y26250D01*
X469821Y26800D01*
X470523Y27450D01*
X471026Y28200D01*
X471329Y29050D01*
X471431Y30000D01*
X471401Y17364D01*
D02*
G37*
G36*
X926745Y29049D02*
X927047Y28200D01*
X927550Y27450D01*
X928253Y26800D01*
X929156Y26250D01*
X930259Y25800D01*
X931562Y25450D01*
X933066Y25200D01*
X934769Y25050D01*
X936673Y24999D01*
Y15000D01*
X926673Y17331D01*
X926642Y30000D01*
X926745Y29049D01*
D02*
G37*
G36*
X914234Y17331D02*
X914134Y16888D01*
X913834Y16491D01*
X913334Y16142D01*
X912634Y15839D01*
X911734Y15582D01*
X910634Y15373D01*
X909334Y15209D01*
X906134Y15023D01*
X904234Y15000D01*
Y24999D01*
X906137Y25050D01*
X907841Y25200D01*
X909344Y25450D01*
X910648Y25800D01*
X911751Y26250D01*
X912654Y26800D01*
X913356Y27450D01*
X913859Y28200D01*
X914162Y29049D01*
X914264Y30000D01*
X914234Y17331D01*
D02*
G37*
G36*
X886116Y29049D02*
X886419Y28200D01*
X886922Y27450D01*
X887625Y26800D01*
X888528Y26250D01*
X889631Y25800D01*
X890934Y25450D01*
X892437Y25200D01*
X894141Y25050D01*
X896044Y24999D01*
Y15000D01*
X886044Y17331D01*
X886014Y30000D01*
X886116Y29049D01*
D02*
G37*
G36*
X873605Y17331D02*
X873507Y16888D01*
X873213Y16491D01*
X872722Y16142D01*
X872035Y15839D01*
X871151Y15582D01*
X870071Y15373D01*
X868795Y15209D01*
X865653Y15023D01*
X863788Y15000D01*
Y24999D01*
X865657Y25048D01*
X867329Y25192D01*
X868805Y25433D01*
X870085Y25770D01*
X871168Y26204D01*
X872055Y26734D01*
X872745Y27360D01*
X873238Y28083D01*
X873535Y28902D01*
X873636Y29818D01*
X873605Y17331D01*
D02*
G37*
G36*
X729005Y28113D02*
X729272Y27459D01*
X729717Y26883D01*
X730339Y26383D01*
X731138Y25960D01*
X732113Y25615D01*
X733267Y25345D01*
X734596Y25153D01*
X736104Y25038D01*
X737788Y25000D01*
Y15000D01*
X728944Y17331D01*
X728914Y28843D01*
X729005Y28113D01*
D02*
G37*
G36*
X1124473Y29049D02*
X1124776Y28200D01*
X1125278Y27450D01*
X1125981Y26799D01*
X1126884Y26249D01*
X1127988Y25800D01*
X1129291Y25450D01*
X1130794Y25199D01*
X1132498Y25050D01*
X1134401Y24999D01*
Y15000D01*
X1124401Y17331D01*
X1124371Y29999D01*
X1124473Y29049D01*
D02*
G37*
G36*
X1083845Y29049D02*
X1084147Y28200D01*
X1084650Y27450D01*
X1085353Y26799D01*
X1086256Y26249D01*
X1087359Y25800D01*
X1088662Y25450D01*
X1090166Y25199D01*
X1091869Y25050D01*
X1093773Y24999D01*
Y15000D01*
X1083773Y17331D01*
X1083742Y29999D01*
X1083845Y29049D01*
D02*
G37*
G36*
X1071334Y17331D02*
X1071238Y16888D01*
X1070952Y16491D01*
X1070475Y16142D01*
X1069806Y15839D01*
X1068947Y15582D01*
X1067897Y15373D01*
X1066656Y15209D01*
X1063601Y15023D01*
X1061787Y15000D01*
Y24999D01*
X1063605Y25045D01*
X1065231Y25181D01*
X1066667Y25409D01*
X1067911Y25727D01*
X1068964Y26136D01*
X1069827Y26636D01*
X1070498Y27227D01*
X1070978Y27909D01*
X1071266Y28682D01*
X1071364Y29546D01*
X1071334Y17331D01*
D02*
G37*
G36*
X1479301Y29049D02*
X1479604Y28200D01*
X1480107Y27449D01*
X1480810Y26799D01*
X1481713Y26249D01*
X1482816Y25800D01*
X1484119Y25450D01*
X1485622Y25199D01*
X1487326Y25050D01*
X1489229Y24999D01*
Y15000D01*
X1479229Y17331D01*
X1479199Y29999D01*
X1479301Y29049D01*
D02*
G37*
G36*
X1322198Y28772D02*
X1322490Y27980D01*
X1322976Y27281D01*
X1323655Y26676D01*
X1324527Y26164D01*
X1325592Y25745D01*
X1326851Y25419D01*
X1328303Y25186D01*
X1329948Y25046D01*
X1331787Y24999D01*
Y15000D01*
X1322130Y17331D01*
X1322099Y29657D01*
X1322198Y28772D01*
D02*
G37*
G36*
X1281573Y29049D02*
X1281876Y28200D01*
X1282379Y27450D01*
X1283081Y26799D01*
X1283984Y26249D01*
X1285087Y25800D01*
X1286391Y25450D01*
X1287894Y25199D01*
X1289598Y25050D01*
X1291501Y24999D01*
Y15000D01*
X1281501Y17331D01*
X1281471Y29999D01*
X1281573Y29049D01*
D02*
G37*
G36*
X1269062Y17331D02*
X1268969Y16888D01*
X1268691Y16491D01*
X1268227Y16142D01*
X1267578Y15839D01*
X1266743Y15582D01*
X1265723Y15373D01*
X1264517Y15209D01*
X1261549Y15023D01*
X1259787Y15000D01*
Y24999D01*
X1261553Y25042D01*
X1263133Y25171D01*
X1264528Y25384D01*
X1265737Y25684D01*
X1266761Y26068D01*
X1267598Y26539D01*
X1268251Y27094D01*
X1268717Y27736D01*
X1268998Y28463D01*
X1269093Y29275D01*
X1269062Y17331D01*
D02*
G37*
G36*
X48877Y11343D02*
X47608D01*
X47608Y5665D01*
X46888Y6015D01*
X45484Y6586D01*
X38336Y9060D01*
X31123Y11343D01*
X47608Y11343D01*
X47609Y15000D01*
X48877Y11343D01*
D02*
G37*
G36*
X47802Y5571D02*
X48227Y5254D01*
X48162Y5063D01*
X47608Y5000D01*
Y5665D01*
X47802Y5571D01*
D02*
G37*
G36*
X1751957Y11494D02*
X1769180Y11439D01*
X1751957Y4999D01*
X1751957Y11494D01*
X1750638Y11498D01*
X1751957Y15000D01*
X1751957Y11494D01*
D02*
G37*
%LPC*%
G36*
X1119375Y414857D02*
X1119376Y414852D01*
X1119380Y414786D01*
X1119380Y414782D01*
X1119380Y414778D01*
X1119379Y414756D01*
X1119427Y414805D01*
X1119375Y414857D01*
D02*
G37*
%LPD*%
D41*
X1228781Y166100D02*
D03*
X1219781D02*
D03*
X1322227D02*
D03*
X1331228D02*
D03*
X1433674D02*
D03*
X1424674D02*
D03*
X1527121D02*
D03*
X1536121D02*
D03*
D45*
X152090Y78420D02*
D03*
X167090D02*
D03*
X182090D02*
D03*
X197090D02*
D03*
X212090D02*
D03*
X227090D02*
D03*
X242090D02*
D03*
X257090D02*
D03*
X272090D02*
D03*
X1234175Y720580D02*
D03*
X1249175D02*
D03*
D46*
X1275225Y772480D02*
D03*
X1208125D02*
D03*
D47*
X517906Y149289D02*
D03*
X511404D02*
D03*
X504901D02*
D03*
X498399D02*
D03*
X491896D02*
D03*
X485394D02*
D03*
Y193612D02*
D03*
X491896D02*
D03*
X498399D02*
D03*
X504901D02*
D03*
X511404D02*
D03*
X517906D02*
D03*
D49*
X914861Y549647D02*
D03*
Y554647D02*
D03*
Y559647D02*
D03*
Y564647D02*
D03*
X891661D02*
D03*
Y559647D02*
D03*
Y554647D02*
D03*
Y549647D02*
D03*
D50*
X908261Y566247D02*
D03*
X903261D02*
D03*
X898261D02*
D03*
Y548047D02*
D03*
X903261D02*
D03*
X908261D02*
D03*
D51*
X895427Y460788D02*
D03*
Y465788D02*
D03*
Y470788D02*
D03*
X911175D02*
D03*
Y465788D02*
D03*
Y460788D02*
D03*
D52*
X900801Y473662D02*
D03*
X905801D02*
D03*
Y457914D02*
D03*
X900801D02*
D03*
D66*
X656990Y663702D02*
D03*
X660990D02*
D03*
X664990D02*
D03*
X668990D02*
D03*
X672990D02*
D03*
X676990D02*
D03*
X680990D02*
D03*
Y625002D02*
D03*
X676990D02*
D03*
X672990D02*
D03*
X668990D02*
D03*
X664990D02*
D03*
X660990D02*
D03*
X656990D02*
D03*
X788484Y624494D02*
D03*
X792485D02*
D03*
X796485D02*
D03*
X800484D02*
D03*
X804484D02*
D03*
X808484D02*
D03*
X812485D02*
D03*
Y663194D02*
D03*
X808484D02*
D03*
X804484D02*
D03*
X800484D02*
D03*
X796485D02*
D03*
X792485D02*
D03*
X788484D02*
D03*
D67*
X688340Y656352D02*
D03*
Y652352D02*
D03*
Y648352D02*
D03*
Y644352D02*
D03*
Y640352D02*
D03*
Y636352D02*
D03*
Y632352D02*
D03*
X649640D02*
D03*
Y636352D02*
D03*
Y640352D02*
D03*
Y644352D02*
D03*
Y648352D02*
D03*
Y652352D02*
D03*
Y656352D02*
D03*
X781134Y655844D02*
D03*
Y651844D02*
D03*
Y647844D02*
D03*
Y643844D02*
D03*
Y639844D02*
D03*
Y635844D02*
D03*
Y631844D02*
D03*
X819835D02*
D03*
Y635844D02*
D03*
Y639844D02*
D03*
Y643844D02*
D03*
Y647844D02*
D03*
Y651844D02*
D03*
Y655844D02*
D03*
D73*
X465836Y426720D02*
D03*
Y439420D02*
D03*
Y452120D02*
D03*
Y464820D02*
D03*
X392684D02*
D03*
Y452120D02*
D03*
Y439420D02*
D03*
Y426720D02*
D03*
X1139613Y572472D02*
D03*
Y585172D02*
D03*
Y597872D02*
D03*
Y610572D02*
D03*
X1212765D02*
D03*
Y597872D02*
D03*
Y585172D02*
D03*
Y572472D02*
D03*
D86*
X1710000Y780000D02*
G03*
X1724142Y790000I-0J15000D01*
G01*
X1790000Y760068D02*
G03*
X1760161Y790000I-30000J-68D01*
G01*
X1723749Y9999D02*
G03*
X1709607Y19999I-14142J-5000D01*
G01*
X76251Y790000D02*
G03*
X90393Y780000I14142J5000D01*
G01*
X90000Y20000D02*
G03*
X75858Y10000I0J-15000D01*
G01*
X10000Y39607D02*
G03*
X39607Y10000I29607J0D01*
G01*
X39956Y790000D02*
G03*
X10000Y760000I44J-30000D01*
G01*
X1760000Y10000D02*
G03*
X1790000Y40000I0J30000D01*
G01*
X1760160Y790000D02*
X1760161D01*
X1760000D02*
X1760160D01*
X1751160Y790000D02*
X1760000Y790000D01*
X1742160Y790000D02*
X1751160Y790000D01*
X1733160Y790000D02*
X1742160Y790000D01*
X1724160Y790000D02*
X1733160Y790000D01*
X1724142Y790000D02*
X1724160D01*
X1790000Y750292D02*
Y760000D01*
Y750292D02*
X1790000Y741292D01*
Y732292D02*
Y741292D01*
Y732292D02*
X1790000Y723292D01*
Y705292D02*
Y723292D01*
Y705292D02*
X1790000Y696292D01*
Y687292D02*
Y696292D01*
Y687292D02*
X1790000Y678292D01*
Y660292D02*
Y678292D01*
Y660292D02*
X1790000Y651292D01*
Y642292D02*
Y651292D01*
Y642292D02*
X1790000Y633292D01*
Y615292D02*
Y633292D01*
Y615292D02*
X1790000Y606292D01*
Y597292D02*
Y606292D01*
Y597292D02*
X1790000Y588292D01*
Y570292D02*
Y588292D01*
Y570292D02*
X1790000Y561292D01*
Y552292D02*
Y561292D01*
Y552292D02*
X1790000Y543292D01*
Y525292D02*
Y543292D01*
Y525292D02*
X1790000Y516292D01*
Y507292D02*
Y516292D01*
Y507292D02*
X1790000Y498292D01*
Y480292D02*
Y498292D01*
Y480292D02*
X1790000Y471292D01*
Y462292D02*
Y471292D01*
Y462292D02*
X1790000Y453292D01*
Y435292D02*
Y453292D01*
Y435292D02*
X1790000Y426292D01*
Y417292D02*
Y426292D01*
Y417292D02*
X1790000Y408293D01*
Y390293D02*
Y408293D01*
Y390293D02*
X1790000Y381292D01*
Y372293D02*
Y381292D01*
Y372293D02*
X1790000Y363293D01*
Y345293D02*
Y363293D01*
Y345293D02*
X1790000Y336293D01*
Y327293D02*
Y336293D01*
Y327293D02*
X1790000Y318293D01*
Y300293D02*
Y318293D01*
Y300293D02*
X1790000Y291293D01*
Y282293D02*
Y291293D01*
Y282293D02*
X1790000Y273293D01*
Y255293D02*
Y273293D01*
Y255293D02*
X1790000Y246293D01*
Y237293D02*
Y246293D01*
Y237293D02*
X1790000Y228293D01*
Y210293D02*
Y228293D01*
Y210293D02*
X1790000Y201293D01*
Y192293D02*
Y201293D01*
Y192293D02*
X1790000Y183293D01*
Y165293D02*
Y183293D01*
Y165293D02*
X1790000Y156293D01*
Y147293D02*
Y156293D01*
Y147293D02*
X1790000Y138293D01*
Y120293D02*
Y138293D01*
Y120293D02*
X1790000Y111293D01*
Y102293D02*
Y111293D01*
Y102293D02*
X1790000Y93293D01*
Y75293D02*
Y93293D01*
Y75293D02*
X1790000Y66293D01*
Y57293D02*
Y66293D01*
Y57293D02*
X1790000Y48293D01*
Y40101D02*
Y48293D01*
X1751957Y9999D02*
X1759904Y9999D01*
X1742957Y9999D02*
X1751957Y9999D01*
X1733957Y9999D02*
X1742957Y9999D01*
X1724957Y9999D02*
X1733957Y9999D01*
X1723749Y9999D02*
X1724957D01*
X1700285Y780000D02*
X1710000D01*
X1664285D02*
X1700285D01*
X1646285D02*
X1664285D01*
X1637285Y780000D02*
X1646285Y780000D01*
X1619285Y780000D02*
X1637285D01*
X1592285D02*
X1619285D01*
X1556286D02*
X1592285D01*
X1529285D02*
X1556286D01*
X1511286D02*
X1529285D01*
X1502286Y780000D02*
X1511286Y780000D01*
X1474135Y780000D02*
X1502286D01*
X1448286D02*
X1474135D01*
X1421286D02*
X1448286D01*
X1412286D02*
X1421286D01*
X1376286D02*
X1412286D01*
X1367286Y780000D02*
X1376286Y780000D01*
X1349286Y780000D02*
X1367286D01*
X1322286D02*
X1349286D01*
X1313286D02*
X1322286D01*
X1277286D02*
X1313286D01*
X1268286D02*
X1277286D01*
X1241286D02*
X1268286D01*
X1232286Y780000D02*
X1241286Y780000D01*
X1205286Y780000D02*
X1232286D01*
X1196286D02*
X1205286D01*
X1160286D02*
X1196286D01*
X1142286D02*
X1160286D01*
X1106286D02*
X1142286D01*
X1097286Y780000D02*
X1106286Y780000D01*
X1088286Y780000D02*
X1097286D01*
X1061286D02*
X1088286D01*
X1025286D02*
X1061286D01*
X1010102D02*
X1025286D01*
X989287D02*
X1010102D01*
X971287D02*
X989287D01*
X962287Y780000D02*
X971287Y780000D01*
X926287Y780000D02*
X962287D01*
X917287D02*
X926287D01*
X881287D02*
X917287D01*
X863287D02*
X881287D01*
X845287D02*
X863287D01*
X836287D02*
X845287D01*
X827287Y780000D02*
X836287Y780000D01*
X791287Y780000D02*
X827287D01*
X764287D02*
X791287D01*
X737287D02*
X764287D01*
X728287D02*
X737287D01*
X701287D02*
X728287D01*
X692287Y780000D02*
X701287Y780000D01*
X674287Y780000D02*
X692287D01*
X665287D02*
X674287D01*
X620287D02*
X665287D01*
X611287D02*
X620287D01*
X575287D02*
X611287D01*
X566287D02*
X575287D01*
X557287Y780000D02*
X566287Y780000D01*
X539287Y780000D02*
X557287D01*
X512288D02*
X539287D01*
X503288D02*
X512288D01*
X467288D02*
X503288D01*
X431288D02*
X467288D01*
X422288Y780000D02*
X431288Y780000D01*
X395288Y780000D02*
X422288D01*
X368288D02*
X395288D01*
X359288D02*
X368288D01*
X332288D02*
X359288D01*
X305288D02*
X332288D01*
X296288D02*
X305288D01*
X287288Y780000D02*
X296288Y780000D01*
X285275Y780000D02*
X287288D01*
X269288D02*
X285275D01*
X215288D02*
X269288D01*
X179288D02*
X215288D01*
X161288D02*
X179288D01*
X152288Y780000D02*
X161288Y780000D01*
X107288Y780000D02*
X152288D01*
X90393D02*
X107288D01*
X73892Y790000D02*
X76251D01*
X64892Y790000D02*
X73892Y790000D01*
X55891Y790000D02*
X64892Y790000D01*
X46891Y790000D02*
X55891Y790000D01*
X40000Y790000D02*
X46891Y790000D01*
X1691786Y19999D02*
X1709607D01*
X1682786D02*
X1691786D01*
X1655786D02*
X1682786D01*
X1646786D02*
X1655786D01*
X1637786Y19999D02*
X1646786Y19999D01*
X1611895Y19999D02*
X1637786D01*
X1592786D02*
X1611895D01*
X1574786D02*
X1592786D01*
X1547786D02*
X1574786D01*
X1512153D02*
X1547786D01*
X1511786D02*
X1512153D01*
X1502786Y20000D02*
X1511786Y19999D01*
X1466786Y20000D02*
X1502786D01*
X1430786D02*
X1466786D01*
X1394787D02*
X1430786D01*
X1376786D02*
X1394787D01*
X1367787Y20000D02*
X1376786Y20000D01*
X1349787Y20000D02*
X1367787D01*
X1331787D02*
X1349787D01*
X1304787D02*
X1331787D01*
X1259787D02*
X1304787D01*
X1241787D02*
X1259787D01*
X1232787Y20000D02*
X1241787Y20000D01*
X1196787Y20000D02*
X1232787D01*
X1187787D02*
X1196787D01*
X1151787D02*
X1187787D01*
X1118182D02*
X1151787D01*
X1106787D02*
X1118182D01*
X1097787Y20000D02*
X1106787Y20000D01*
X1061787Y20000D02*
X1097787D01*
X1052787D02*
X1061787D01*
X1025787D02*
X1052787D01*
X989787D02*
X1025787D01*
X971787D02*
X989787D01*
X962787Y20000D02*
X971787Y20000D01*
X953787Y20000D02*
X962787D01*
X917787D02*
X953787D01*
X899788D02*
X917787D01*
X863788D02*
X899788D01*
X854788D02*
X863788D01*
X836788D02*
X854788D01*
X827788Y20000D02*
X836788Y20000D01*
X800788Y20000D02*
X827788D01*
X773788D02*
X800788D01*
X755788D02*
X773788D01*
X737788D02*
X755788D01*
X710788D02*
X737788D01*
X701788D02*
X710788D01*
X692788Y20000D02*
X701788Y20000D01*
X674788Y20000D02*
X692788D01*
X665788D02*
X674788D01*
X638788D02*
X665788D01*
X593788D02*
X638788D01*
X584788D02*
X593788D01*
X566788D02*
X584788D01*
X557788Y20000D02*
X566788Y20000D01*
X548788Y20000D02*
X557788D01*
X524997D02*
X548788D01*
X503788D02*
X524997D01*
X458788D02*
X503788D01*
X431788D02*
X458788D01*
X422788Y20000D02*
X431788Y20000D01*
X386788Y20000D02*
X422788D01*
X359789D02*
X386788D01*
X350520D02*
X359789D01*
X323789D02*
X350520D01*
X295140D02*
X323789D01*
X287789Y20000D02*
X295140Y20000D01*
X260789Y20000D02*
X287789D01*
X215789D02*
X260789D01*
X188789D02*
X215789D01*
X161789D02*
X188789D01*
X152789Y20000D02*
X161789Y20000D01*
X107789Y20000D02*
X152789D01*
X90000D02*
X107789D01*
X10000Y759558D02*
Y759950D01*
Y732558D02*
Y759558D01*
Y705558D02*
Y732558D01*
Y669558D02*
Y705558D01*
Y624558D02*
Y669558D01*
Y588559D02*
Y624558D01*
Y543559D02*
Y588559D01*
Y516559D02*
Y543559D01*
Y453559D02*
Y516559D01*
Y435559D02*
Y453559D01*
Y408559D02*
Y435559D01*
X10000Y399559D02*
X10000Y408559D01*
X10000Y363559D02*
Y399559D01*
Y354559D02*
Y363559D01*
Y318559D02*
Y354559D01*
Y300559D02*
Y318559D01*
Y264559D02*
Y300559D01*
Y228559D02*
Y264559D01*
Y210559D02*
Y228559D01*
Y183559D02*
Y210559D01*
Y165559D02*
Y183559D01*
Y138560D02*
Y165559D01*
Y129559D02*
Y138560D01*
Y93560D02*
Y129559D01*
Y66560D02*
Y93560D01*
Y39607D02*
Y66560D01*
X74608Y10000D02*
X75858D01*
X65609Y10000D02*
X74608Y10000D01*
X56609Y10000D02*
X65609Y10000D01*
X47608Y10000D02*
X56609Y10000D01*
X40000Y10000D02*
X47608Y10000D01*
X39607Y10000D02*
X40000D01*
D87*
X1446960Y78200D02*
D03*
X1431960D02*
D03*
X1416960D02*
D03*
X1401960D02*
D03*
X1386960D02*
D03*
X1371960D02*
D03*
X1356960D02*
D03*
X1341960D02*
D03*
X1249232D02*
D03*
X1234232D02*
D03*
X1219232D02*
D03*
X1204232D02*
D03*
X1189232D02*
D03*
X1174232D02*
D03*
X1159232D02*
D03*
X1144232D02*
D03*
X1051503D02*
D03*
X1036503D02*
D03*
X1021503D02*
D03*
X1006503D02*
D03*
X991503D02*
D03*
X976503D02*
D03*
X961503D02*
D03*
X946503D02*
D03*
X853775D02*
D03*
X838775D02*
D03*
X823775D02*
D03*
X808775D02*
D03*
X793775D02*
D03*
X778775D02*
D03*
X763775D02*
D03*
X748775D02*
D03*
X656047D02*
D03*
X641047D02*
D03*
X626047D02*
D03*
X611047D02*
D03*
X596047D02*
D03*
X581047D02*
D03*
X566047D02*
D03*
X551047D02*
D03*
X451570Y78234D02*
D03*
X436570D02*
D03*
X421570D02*
D03*
X406570D02*
D03*
X391570D02*
D03*
X376570D02*
D03*
X1546800Y721300D02*
D03*
X1561800D02*
D03*
X1576800D02*
D03*
X1591800D02*
D03*
X1606800D02*
D03*
X1621800D02*
D03*
X1636800D02*
D03*
X1651800D02*
D03*
X1343085D02*
D03*
X1358085D02*
D03*
X1373085D02*
D03*
X1388085D02*
D03*
X1403085D02*
D03*
X1418085D02*
D03*
X1433085D02*
D03*
X1448085D02*
D03*
X1036152D02*
D03*
X1051152D02*
D03*
X1066152D02*
D03*
X1081152D02*
D03*
X1096152D02*
D03*
X1111152D02*
D03*
X1126152D02*
D03*
X1141152D02*
D03*
D88*
X1315910Y26300D02*
D03*
X1473010D02*
D03*
X1118182D02*
D03*
X1275282D02*
D03*
X920453D02*
D03*
X1077553D02*
D03*
X722725D02*
D03*
X879825D02*
D03*
X524997D02*
D03*
X682097D02*
D03*
X350520Y26334D02*
D03*
X477620D02*
D03*
X1677850Y773200D02*
D03*
X1520750D02*
D03*
X1474135D02*
D03*
X1317035D02*
D03*
X1167202D02*
D03*
X1010102D02*
D03*
D89*
X439166Y359833D02*
D03*
Y365083D02*
D03*
X660938Y496302D02*
D03*
Y501552D02*
D03*
X678871Y477687D02*
D03*
Y482937D02*
D03*
X665617Y483250D02*
D03*
Y478000D02*
D03*
X672592Y477689D02*
D03*
Y482939D02*
D03*
X649230Y466141D02*
D03*
Y460891D02*
D03*
X642728Y460891D02*
D03*
Y466141D02*
D03*
X609871Y467933D02*
D03*
Y473183D02*
D03*
X590105Y408246D02*
D03*
Y402996D02*
D03*
X659378Y426412D02*
D03*
Y431662D02*
D03*
X633476Y444331D02*
D03*
Y439081D02*
D03*
X643636Y447379D02*
D03*
Y442129D02*
D03*
X600617Y417996D02*
D03*
Y412746D02*
D03*
X607425Y411984D02*
D03*
Y417234D02*
D03*
X623575Y399713D02*
D03*
Y404963D02*
D03*
X646371Y399746D02*
D03*
Y404996D02*
D03*
X661884Y402996D02*
D03*
Y408246D02*
D03*
X678942Y411339D02*
D03*
Y406088D02*
D03*
X672326Y411339D02*
D03*
Y406088D02*
D03*
X694261Y377057D02*
D03*
Y382307D02*
D03*
X694089Y371716D02*
D03*
Y366466D02*
D03*
X675621Y381697D02*
D03*
Y376447D02*
D03*
X656082Y375764D02*
D03*
Y381014D02*
D03*
X617121Y379619D02*
D03*
Y384869D02*
D03*
X597662Y379899D02*
D03*
Y385149D02*
D03*
X623575Y489516D02*
D03*
Y484266D02*
D03*
X649637Y490514D02*
D03*
Y485264D02*
D03*
X660938Y512996D02*
D03*
Y507746D02*
D03*
X675621Y509496D02*
D03*
Y504246D02*
D03*
X702118Y512103D02*
D03*
Y506853D02*
D03*
X656082Y509609D02*
D03*
Y504359D02*
D03*
X636621Y509609D02*
D03*
Y504359D02*
D03*
X617121Y509496D02*
D03*
Y504246D02*
D03*
X597662Y509609D02*
D03*
Y504359D02*
D03*
X830851Y284624D02*
D03*
Y289874D02*
D03*
X828756Y305959D02*
D03*
Y311209D02*
D03*
Y322071D02*
D03*
Y327321D02*
D03*
X744447Y322071D02*
D03*
Y327321D02*
D03*
X744885Y305959D02*
D03*
Y311209D02*
D03*
X803177Y283302D02*
D03*
Y278052D02*
D03*
X820690Y263258D02*
D03*
Y258008D02*
D03*
X820610Y242003D02*
D03*
Y247253D02*
D03*
X758648Y255105D02*
D03*
Y249855D02*
D03*
X758648Y234049D02*
D03*
Y239299D02*
D03*
X744578Y256620D02*
D03*
Y261870D02*
D03*
X744885Y247096D02*
D03*
Y241846D02*
D03*
X744731Y225856D02*
D03*
Y231106D02*
D03*
X744309Y210081D02*
D03*
Y215331D02*
D03*
X820610Y223306D02*
D03*
Y218056D02*
D03*
X1188973Y509873D02*
D03*
Y515123D02*
D03*
X1169466Y509873D02*
D03*
Y515123D02*
D03*
X1149958Y509873D02*
D03*
Y515123D02*
D03*
X1136953Y509873D02*
D03*
Y515123D02*
D03*
X1143456Y509873D02*
D03*
Y515123D02*
D03*
X1130451Y509873D02*
D03*
Y515123D02*
D03*
X1123948Y509873D02*
D03*
Y515123D02*
D03*
X1117446Y509873D02*
D03*
Y515123D02*
D03*
X1097938Y509873D02*
D03*
Y515123D02*
D03*
X1104441Y509873D02*
D03*
Y515123D02*
D03*
X1091435Y509873D02*
D03*
Y515123D02*
D03*
X1084672Y509873D02*
D03*
Y515123D02*
D03*
X1071928Y509873D02*
D03*
Y515123D02*
D03*
X801755Y475109D02*
D03*
Y480359D02*
D03*
X744121Y462396D02*
D03*
Y467645D02*
D03*
X633730Y340275D02*
D03*
Y345525D02*
D03*
X623241Y340275D02*
D03*
Y345525D02*
D03*
X589735Y340275D02*
D03*
Y345525D02*
D03*
X569745Y340275D02*
D03*
Y345525D02*
D03*
X576794Y340274D02*
D03*
Y345523D02*
D03*
X562715Y340275D02*
D03*
Y345525D02*
D03*
X555684Y340275D02*
D03*
Y345525D02*
D03*
X744982Y520869D02*
D03*
Y526119D02*
D03*
X687349Y545008D02*
D03*
Y539758D02*
D03*
X674122Y544980D02*
D03*
Y539730D02*
D03*
X680846Y544980D02*
D03*
Y539730D02*
D03*
X667399Y544980D02*
D03*
Y539730D02*
D03*
X639884Y539665D02*
D03*
Y544915D02*
D03*
X646387D02*
D03*
Y539665D02*
D03*
X626879Y544980D02*
D03*
Y539730D02*
D03*
X633382Y544915D02*
D03*
Y539665D02*
D03*
X620377Y544980D02*
D03*
Y539730D02*
D03*
X318082Y460041D02*
D03*
Y454791D02*
D03*
D90*
X447055Y299630D02*
D03*
X441805D02*
D03*
X665836Y491089D02*
D03*
X660586D02*
D03*
X701308Y465153D02*
D03*
X696058D02*
D03*
X681952Y457621D02*
D03*
X676702D02*
D03*
X609996Y404198D02*
D03*
X604746D02*
D03*
X594299Y426572D02*
D03*
X599549D02*
D03*
X611547Y428244D02*
D03*
X616797D02*
D03*
X645722Y473990D02*
D03*
X650972D02*
D03*
X666756Y462589D02*
D03*
X672006D02*
D03*
X610193Y486918D02*
D03*
X604943D02*
D03*
X598092Y480474D02*
D03*
X603342D02*
D03*
X584585Y488681D02*
D03*
X589836D02*
D03*
X591044Y431644D02*
D03*
X596294D02*
D03*
X571669Y444754D02*
D03*
X576919D02*
D03*
X571396Y402879D02*
D03*
X576646D02*
D03*
X569176Y425200D02*
D03*
X574426D02*
D03*
X607496Y395676D02*
D03*
X612746D02*
D03*
X623563Y428388D02*
D03*
X628813D02*
D03*
X629373Y421901D02*
D03*
X624123D02*
D03*
X614496Y457265D02*
D03*
X619746D02*
D03*
X591044Y457519D02*
D03*
X596294D02*
D03*
X668159Y415446D02*
D03*
X662909D02*
D03*
X681821Y431546D02*
D03*
X676571D02*
D03*
X701571Y444621D02*
D03*
X696320D02*
D03*
X704502Y425375D02*
D03*
X699252D02*
D03*
X706648Y406383D02*
D03*
X701398D02*
D03*
X707701Y389446D02*
D03*
X702451D02*
D03*
X701887Y483616D02*
D03*
X696637D02*
D03*
X571923Y464820D02*
D03*
X577173D02*
D03*
X571811Y486363D02*
D03*
X577061D02*
D03*
X615978Y494660D02*
D03*
X610728D02*
D03*
X824556Y292488D02*
D03*
X819306D02*
D03*
X802421Y252730D02*
D03*
X807671D02*
D03*
X759996Y272621D02*
D03*
X765246D02*
D03*
X763305Y212503D02*
D03*
X768555D02*
D03*
X813145Y232700D02*
D03*
X807895D02*
D03*
X811969Y206513D02*
D03*
X817219D02*
D03*
X1246418Y317293D02*
D03*
X1251668D02*
D03*
X756985Y473247D02*
D03*
X751735D02*
D03*
X756985Y468043D02*
D03*
X751735D02*
D03*
X733865Y485654D02*
D03*
X739115D02*
D03*
X739825Y450484D02*
D03*
X734575D02*
D03*
X739825Y455564D02*
D03*
X734575D02*
D03*
X620442Y305602D02*
D03*
X625692D02*
D03*
X532760Y426013D02*
D03*
X538010D02*
D03*
X532987Y447067D02*
D03*
X538237D02*
D03*
X532770Y511048D02*
D03*
X538020D02*
D03*
X376005Y349504D02*
D03*
X370755D02*
D03*
X376005Y355569D02*
D03*
X370755D02*
D03*
X279315Y332700D02*
D03*
X284565D02*
D03*
X532770Y412940D02*
D03*
X538020D02*
D03*
X532860Y419442D02*
D03*
X538110D02*
D03*
X532760Y432515D02*
D03*
X538010D02*
D03*
X532760Y476046D02*
D03*
X538010D02*
D03*
X532760Y468464D02*
D03*
X538010D02*
D03*
X532760Y460072D02*
D03*
X538010D02*
D03*
X532860Y453569D02*
D03*
X538110D02*
D03*
X532760Y439018D02*
D03*
X538010D02*
D03*
X532801Y505071D02*
D03*
X538051D02*
D03*
X532860Y492769D02*
D03*
X538110D02*
D03*
X532980Y486267D02*
D03*
X538230D02*
D03*
X532870Y498964D02*
D03*
X538120D02*
D03*
X532770Y516128D02*
D03*
X538020D02*
D03*
X568871Y386500D02*
D03*
X574121D02*
D03*
D91*
X453430Y291031D02*
D03*
X444430D02*
D03*
X1199481Y437071D02*
D03*
X1190481D02*
D03*
X182190Y275590D02*
D03*
X191190D02*
D03*
X199970D02*
D03*
X208970D02*
D03*
X211510Y186690D02*
D03*
X202510D02*
D03*
X1074238Y157037D02*
D03*
X1083238D02*
D03*
X1060378Y157037D02*
D03*
X1051378D02*
D03*
X936062Y157037D02*
D03*
X945062D02*
D03*
X922213Y157037D02*
D03*
X913213D02*
D03*
X985448Y103926D02*
D03*
X976448D02*
D03*
Y116626D02*
D03*
X985448D02*
D03*
X976448Y129326D02*
D03*
X985448D02*
D03*
Y142026D02*
D03*
X976448D02*
D03*
X873578Y103926D02*
D03*
X882578D02*
D03*
Y116626D02*
D03*
X873578D02*
D03*
X882578Y129326D02*
D03*
X873578D02*
D03*
Y142026D02*
D03*
X882578D02*
D03*
X704270Y458470D02*
D03*
X695270D02*
D03*
X713160Y378968D02*
D03*
X704160D02*
D03*
X1123878Y103926D02*
D03*
X1114878D02*
D03*
Y116626D02*
D03*
X1123878D02*
D03*
X1114878Y129326D02*
D03*
X1123878D02*
D03*
Y142026D02*
D03*
X1114878D02*
D03*
X1114880Y172428D02*
D03*
X1123880D02*
D03*
X1114880Y197861D02*
D03*
X1123880D02*
D03*
X1561122Y183202D02*
D03*
X1570121D02*
D03*
X1561120Y194201D02*
D03*
X1570120D02*
D03*
X1549722Y194200D02*
D03*
X1540722D02*
D03*
X1500560Y183200D02*
D03*
X1491560D02*
D03*
X1500560Y194201D02*
D03*
X1491560D02*
D03*
X1458675Y183202D02*
D03*
X1467675D02*
D03*
X1458673Y194201D02*
D03*
X1467673D02*
D03*
X1447275Y194200D02*
D03*
X1438275D02*
D03*
X1398113Y183200D02*
D03*
X1389113D02*
D03*
X1398113Y194201D02*
D03*
X1389113D02*
D03*
X1356228Y183202D02*
D03*
X1365228D02*
D03*
X1356227Y194201D02*
D03*
X1365227D02*
D03*
X1344829Y194200D02*
D03*
X1335829D02*
D03*
X1295667Y183200D02*
D03*
X1286667D02*
D03*
X1295667Y194201D02*
D03*
X1286667D02*
D03*
X1253782Y183202D02*
D03*
X1262782D02*
D03*
X1253780Y194201D02*
D03*
X1262780D02*
D03*
X1242382Y194200D02*
D03*
X1233382D02*
D03*
X1193220Y183200D02*
D03*
X1184220D02*
D03*
X1193220Y194201D02*
D03*
X1184220D02*
D03*
X1146998Y90088D02*
D03*
X1155998D02*
D03*
X1177055D02*
D03*
X1186055D02*
D03*
X1444856D02*
D03*
X1435856D02*
D03*
X1414678D02*
D03*
X1405678D02*
D03*
X1384500D02*
D03*
X1375500D02*
D03*
X1354322D02*
D03*
X1345322D02*
D03*
X1253780Y124460D02*
D03*
X1262780D02*
D03*
X1253780Y135890D02*
D03*
X1262780D02*
D03*
X1356227Y124460D02*
D03*
X1365227D02*
D03*
X1356227Y135890D02*
D03*
X1365227D02*
D03*
X1458673D02*
D03*
X1467673D02*
D03*
X1458673Y124460D02*
D03*
X1467673D02*
D03*
X1702708Y104956D02*
D03*
X1711708D02*
D03*
Y117654D02*
D03*
X1702708D02*
D03*
X1711708Y130356D02*
D03*
X1702708D02*
D03*
X1539395Y87858D02*
D03*
X1548396D02*
D03*
X1561120Y124460D02*
D03*
X1570120D02*
D03*
X1561120Y135890D02*
D03*
X1570120D02*
D03*
X1622918Y130358D02*
D03*
X1613918D02*
D03*
X1613919Y117658D02*
D03*
X1622919D02*
D03*
X1613919Y104956D02*
D03*
X1622919D02*
D03*
X428680Y215900D02*
D03*
X419680D02*
D03*
X428680Y226060D02*
D03*
X419680D02*
D03*
X363694Y215900D02*
D03*
X354694D02*
D03*
X363694Y226060D02*
D03*
X354694D02*
D03*
X515860Y124954D02*
D03*
X506860D02*
D03*
X496560D02*
D03*
X487560D02*
D03*
X883999Y485521D02*
D03*
X892999D02*
D03*
X898686Y445135D02*
D03*
X907686D02*
D03*
X907684Y409816D02*
D03*
X898684D02*
D03*
X765351Y220681D02*
D03*
X774351D02*
D03*
X810094Y196986D02*
D03*
X819094D02*
D03*
X892711Y307843D02*
D03*
X901711D02*
D03*
X946051Y193543D02*
D03*
X955051D02*
D03*
X946051Y203703D02*
D03*
X955051D02*
D03*
X946051Y213863D02*
D03*
X955051D02*
D03*
X1161343Y230616D02*
D03*
X1170343D02*
D03*
X1161345Y241060D02*
D03*
X1170344D02*
D03*
X1161345Y251502D02*
D03*
X1170344D02*
D03*
X1199481Y295157D02*
D03*
X1190481D02*
D03*
X1199472Y399917D02*
D03*
X1190472D02*
D03*
X1153568Y397612D02*
D03*
X1144568D02*
D03*
Y378612D02*
D03*
X1153568D02*
D03*
X1134650Y363620D02*
D03*
X1125650D02*
D03*
X1110722D02*
D03*
X1101722D02*
D03*
X1088603Y378612D02*
D03*
X1079603D02*
D03*
Y397612D02*
D03*
X1088603D02*
D03*
X1030969Y440881D02*
D03*
X1039969D02*
D03*
X1723332Y610432D02*
D03*
X1732332D02*
D03*
X1732330Y598838D02*
D03*
X1723330D02*
D03*
X1723333Y575656D02*
D03*
X1732333D02*
D03*
X1732330Y587245D02*
D03*
X1723330D02*
D03*
X1635318Y580501D02*
D03*
X1644318D02*
D03*
X1635318Y593202D02*
D03*
X1644318D02*
D03*
X1644317Y605902D02*
D03*
X1635317D02*
D03*
X1098881Y614930D02*
D03*
X1089881D02*
D03*
X1089883Y603146D02*
D03*
X1098883D02*
D03*
X1098881Y591358D02*
D03*
X1089881D02*
D03*
X1089883Y565406D02*
D03*
X1098883D02*
D03*
X1383991Y660400D02*
D03*
X1374991D02*
D03*
X1364991D02*
D03*
X1355991D02*
D03*
X1331328D02*
D03*
X1322328D02*
D03*
X1068015Y661670D02*
D03*
X1059015D02*
D03*
X1049015D02*
D03*
X1040015D02*
D03*
X1752630Y660400D02*
D03*
X1743629D02*
D03*
X1733629D02*
D03*
X1724630D02*
D03*
X1699967D02*
D03*
X1690967D02*
D03*
X1680967D02*
D03*
X1671967D02*
D03*
X1647304D02*
D03*
X1638304D02*
D03*
X1628304D02*
D03*
X1619304D02*
D03*
X1594642D02*
D03*
X1585642D02*
D03*
X1575642D02*
D03*
X1566642D02*
D03*
X1541979D02*
D03*
X1532979D02*
D03*
X1522979D02*
D03*
X1513979D02*
D03*
X1489316D02*
D03*
X1480316D02*
D03*
X1470316D02*
D03*
X1461316D02*
D03*
X1436654D02*
D03*
X1427654D02*
D03*
X1417654D02*
D03*
X1408654D02*
D03*
X1312328D02*
D03*
X1303328D02*
D03*
X1278666Y661670D02*
D03*
X1269666D02*
D03*
X1259666D02*
D03*
X1250666D02*
D03*
X1226003D02*
D03*
X1217003D02*
D03*
X1207003D02*
D03*
X1198003D02*
D03*
X1173341Y661510D02*
D03*
X1164341D02*
D03*
X1154341D02*
D03*
X1145340D02*
D03*
X1120678Y661670D02*
D03*
X1111678D02*
D03*
X1101678D02*
D03*
X1092678D02*
D03*
X1015353D02*
D03*
X1006353D02*
D03*
X996353D02*
D03*
X987353D02*
D03*
X961420Y660400D02*
D03*
X952420D02*
D03*
X942420D02*
D03*
X933420D02*
D03*
X843158Y663567D02*
D03*
X834158D02*
D03*
X757040Y663571D02*
D03*
X766040D02*
D03*
X576549Y574514D02*
D03*
X585549D02*
D03*
X576549Y585519D02*
D03*
X585549D02*
D03*
X711664Y664075D02*
D03*
X702664D02*
D03*
X625546Y664079D02*
D03*
X634546D02*
D03*
X427911Y709619D02*
D03*
X418911D02*
D03*
X393511Y709622D02*
D03*
X402511D02*
D03*
X845264Y493268D02*
D03*
X836264D02*
D03*
X483180Y426720D02*
D03*
X492180D02*
D03*
X371276D02*
D03*
X362276D02*
D03*
X334590Y374142D02*
D03*
X343590D02*
D03*
X321238D02*
D03*
X312238D02*
D03*
X377626Y315651D02*
D03*
X368626D02*
D03*
X377626Y331470D02*
D03*
X368626D02*
D03*
X377626Y341376D02*
D03*
X368626D02*
D03*
X334590Y286004D02*
D03*
X343590D02*
D03*
X321238Y286004D02*
D03*
X312238D02*
D03*
X299140Y215900D02*
D03*
X290140D02*
D03*
X299140Y226060D02*
D03*
X290140D02*
D03*
X188540Y382270D02*
D03*
X197540D02*
D03*
X131503Y384890D02*
D03*
X140503D02*
D03*
X216480Y382270D02*
D03*
X225480D02*
D03*
X199970Y472270D02*
D03*
X208970D02*
D03*
X182190D02*
D03*
X191190D02*
D03*
X320620Y511340D02*
D03*
X329620D02*
D03*
X379150Y522770D02*
D03*
X370150D02*
D03*
X340940D02*
D03*
X349940D02*
D03*
X320620Y535470D02*
D03*
X329620D02*
D03*
X308030Y553250D02*
D03*
X299030D02*
D03*
X320620Y559600D02*
D03*
X329620D02*
D03*
X379150Y572300D02*
D03*
X370150D02*
D03*
X340940Y572300D02*
D03*
X349940D02*
D03*
X320620Y583730D02*
D03*
X329620D02*
D03*
X308030Y573570D02*
D03*
X299030D02*
D03*
X233098Y579120D02*
D03*
X224098D02*
D03*
X203780D02*
D03*
X212780D02*
D03*
X193037D02*
D03*
X184037D02*
D03*
X203782Y657860D02*
D03*
X212782D02*
D03*
X233100D02*
D03*
X224100D02*
D03*
X184040D02*
D03*
X193040D02*
D03*
X233133Y102950D02*
D03*
X242133D02*
D03*
Y123270D02*
D03*
X233133D02*
D03*
Y133430D02*
D03*
X242133D02*
D03*
X130233Y102950D02*
D03*
X139233D02*
D03*
Y123270D02*
D03*
X130233D02*
D03*
Y133430D02*
D03*
X139233D02*
D03*
X186253Y133430D02*
D03*
X177253D02*
D03*
X186140Y123190D02*
D03*
X177140D02*
D03*
Y113030D02*
D03*
X186140D02*
D03*
Y102870D02*
D03*
X177140D02*
D03*
X186140Y92710D02*
D03*
X177140D02*
D03*
X141340Y515377D02*
D03*
X132339D02*
D03*
Y505217D02*
D03*
X141340D02*
D03*
Y484897D02*
D03*
X132339D02*
D03*
X132490Y584200D02*
D03*
X141490D02*
D03*
Y604520D02*
D03*
X132490D02*
D03*
Y614680D02*
D03*
X141490D02*
D03*
X83353Y92790D02*
D03*
X74353D02*
D03*
X83353Y102950D02*
D03*
X74353D02*
D03*
Y113110D02*
D03*
X83353D02*
D03*
Y123270D02*
D03*
X74353D02*
D03*
X83353Y133430D02*
D03*
X74353D02*
D03*
X85497Y573960D02*
D03*
X76497D02*
D03*
X85497Y584120D02*
D03*
X76497D02*
D03*
Y594280D02*
D03*
X85497D02*
D03*
Y604440D02*
D03*
X76497D02*
D03*
X85610Y614680D02*
D03*
X76610D02*
D03*
X923594Y485521D02*
D03*
X914594D02*
D03*
X1030969Y411671D02*
D03*
X1039969D02*
D03*
X1030969Y359601D02*
D03*
X1039969D02*
D03*
X131503Y322660D02*
D03*
X140503D02*
D03*
X131503Y292180D02*
D03*
X140503D02*
D03*
X131503Y415370D02*
D03*
X140503D02*
D03*
X949270Y90088D02*
D03*
X958270D02*
D03*
X979327D02*
D03*
X988327D02*
D03*
X84510Y312420D02*
D03*
X75510D02*
D03*
X84510Y292100D02*
D03*
X75510D02*
D03*
X84510Y281940D02*
D03*
X75510D02*
D03*
X84623Y322660D02*
D03*
X75623D02*
D03*
X140503Y312500D02*
D03*
X131503D02*
D03*
X75510Y302260D02*
D03*
X84510D02*
D03*
Y405130D02*
D03*
X75510D02*
D03*
X84510Y384810D02*
D03*
X75510D02*
D03*
X84510Y374650D02*
D03*
X75510D02*
D03*
X84623Y415370D02*
D03*
X75623D02*
D03*
X75510Y394970D02*
D03*
X84510D02*
D03*
X140503Y405210D02*
D03*
X131503D02*
D03*
X76347Y505137D02*
D03*
X85346D02*
D03*
X76347Y484818D02*
D03*
X85346D02*
D03*
X76347Y474658D02*
D03*
X85346D02*
D03*
X76459Y515377D02*
D03*
X85459D02*
D03*
X85346Y494977D02*
D03*
X76347D02*
D03*
X1021008Y116626D02*
D03*
X1012008D02*
D03*
X1012008Y142026D02*
D03*
X1021008D02*
D03*
Y129326D02*
D03*
X1012008D02*
D03*
X1012008Y103926D02*
D03*
X1021008D02*
D03*
X1009383Y89590D02*
D03*
X1018383D02*
D03*
X1207112Y90088D02*
D03*
X1216112D02*
D03*
X1039440D02*
D03*
X1048440D02*
D03*
X1237168D02*
D03*
X1246168D02*
D03*
X131473Y227410D02*
D03*
X140473D02*
D03*
X131473Y196930D02*
D03*
X140473D02*
D03*
X84480Y217170D02*
D03*
X75480D02*
D03*
X84480Y196850D02*
D03*
X75480D02*
D03*
X84480Y186690D02*
D03*
X75480D02*
D03*
X84593Y227410D02*
D03*
X75593D02*
D03*
X75480Y207010D02*
D03*
X84480D02*
D03*
X140473Y217250D02*
D03*
X131473D02*
D03*
X567124Y375621D02*
D03*
X576124D02*
D03*
D92*
X471170Y352370D02*
D03*
Y361370D02*
D03*
Y304220D02*
D03*
Y295220D02*
D03*
Y323270D02*
D03*
Y314270D02*
D03*
X483616Y314365D02*
D03*
Y323365D02*
D03*
Y342320D02*
D03*
Y333320D02*
D03*
X471170D02*
D03*
Y342320D02*
D03*
X1189901Y462145D02*
D03*
Y453145D02*
D03*
X1174482Y462145D02*
D03*
Y453145D02*
D03*
X1163231Y462145D02*
D03*
Y453145D02*
D03*
X1019633Y183083D02*
D03*
Y174083D02*
D03*
X591121Y373687D02*
D03*
Y382687D02*
D03*
X691842Y514964D02*
D03*
Y505965D02*
D03*
X839270Y144901D02*
D03*
Y135901D02*
D03*
X826770Y144901D02*
D03*
Y135901D02*
D03*
X815305Y135477D02*
D03*
Y144477D02*
D03*
X803910Y144475D02*
D03*
Y135475D02*
D03*
X791210Y144475D02*
D03*
Y135475D02*
D03*
X768096Y144475D02*
D03*
Y135475D02*
D03*
X755650Y144475D02*
D03*
Y135475D02*
D03*
X732790Y144475D02*
D03*
Y135475D02*
D03*
X720090Y144475D02*
D03*
Y135475D02*
D03*
X684784Y144200D02*
D03*
Y135200D02*
D03*
X672084Y144200D02*
D03*
Y135200D02*
D03*
X647446Y144200D02*
D03*
Y135200D02*
D03*
X634746Y144200D02*
D03*
Y135200D02*
D03*
X610108Y144200D02*
D03*
Y135200D02*
D03*
X597408Y144200D02*
D03*
Y135200D02*
D03*
X572770Y144200D02*
D03*
Y135200D02*
D03*
X560070Y144200D02*
D03*
Y135200D02*
D03*
X547370D02*
D03*
Y144200D02*
D03*
X1502410Y162170D02*
D03*
Y153170D02*
D03*
X1489710Y162170D02*
D03*
Y153170D02*
D03*
X1469813Y162170D02*
D03*
Y153170D02*
D03*
X1457113Y162170D02*
D03*
Y153170D02*
D03*
X1399963Y162170D02*
D03*
Y153170D02*
D03*
X1387263Y162170D02*
D03*
Y153170D02*
D03*
X1367367Y162170D02*
D03*
Y153170D02*
D03*
X1354667Y162170D02*
D03*
Y153170D02*
D03*
X1297517Y162170D02*
D03*
Y153170D02*
D03*
X1284817Y162170D02*
D03*
Y153170D02*
D03*
X1264920Y162170D02*
D03*
Y153170D02*
D03*
X1252220Y162170D02*
D03*
Y153170D02*
D03*
X1195070Y162170D02*
D03*
Y153170D02*
D03*
X1182370Y162170D02*
D03*
Y153170D02*
D03*
X1182370Y123770D02*
D03*
Y132770D02*
D03*
X1284817Y123770D02*
D03*
Y132770D02*
D03*
X1387263Y123770D02*
D03*
Y132770D02*
D03*
X1489710Y123770D02*
D03*
Y132770D02*
D03*
X1559560Y162170D02*
D03*
Y153170D02*
D03*
X1572260Y162170D02*
D03*
Y153170D02*
D03*
X532386Y167780D02*
D03*
Y176780D02*
D03*
X514071Y224898D02*
D03*
Y215898D02*
D03*
X503416Y224898D02*
D03*
Y215898D02*
D03*
X487680Y215900D02*
D03*
Y224900D02*
D03*
X470507Y165910D02*
D03*
Y174910D02*
D03*
X470553Y146252D02*
D03*
Y155252D02*
D03*
X340144Y119960D02*
D03*
Y128960D02*
D03*
X443230Y119960D02*
D03*
Y128960D02*
D03*
X430530Y119960D02*
D03*
Y128960D02*
D03*
X417833Y128957D02*
D03*
Y119957D02*
D03*
X405130Y119960D02*
D03*
Y128960D02*
D03*
X393700D02*
D03*
Y119960D02*
D03*
X378244D02*
D03*
Y128960D02*
D03*
X910011Y577995D02*
D03*
Y586995D02*
D03*
X896238Y577995D02*
D03*
Y586995D02*
D03*
X928370Y552647D02*
D03*
Y561647D02*
D03*
Y536582D02*
D03*
Y527582D02*
D03*
X914861D02*
D03*
Y536582D02*
D03*
X893238Y527582D02*
D03*
Y536582D02*
D03*
X923597Y470286D02*
D03*
Y461287D02*
D03*
X883997Y461288D02*
D03*
Y470288D02*
D03*
X927312Y358690D02*
D03*
Y349690D02*
D03*
X915248Y358690D02*
D03*
Y349690D02*
D03*
X903184Y358690D02*
D03*
Y349690D02*
D03*
X891118Y358690D02*
D03*
Y349690D02*
D03*
X879053D02*
D03*
Y358690D02*
D03*
X846411Y266623D02*
D03*
Y257623D02*
D03*
Y200583D02*
D03*
Y191583D02*
D03*
X945217Y283023D02*
D03*
Y292023D02*
D03*
X1170343Y295157D02*
D03*
Y304157D02*
D03*
X1159167Y295157D02*
D03*
Y304157D02*
D03*
X1033691Y295157D02*
D03*
Y304157D02*
D03*
X1087352Y295277D02*
D03*
Y304277D02*
D03*
X1067981Y462145D02*
D03*
Y453145D02*
D03*
X1051217Y462145D02*
D03*
Y453145D02*
D03*
X1041057Y462145D02*
D03*
Y453145D02*
D03*
X1030897Y462145D02*
D03*
Y453145D02*
D03*
X1601640Y567650D02*
D03*
Y576650D02*
D03*
X1601642Y617290D02*
D03*
Y608290D02*
D03*
Y587970D02*
D03*
Y596970D02*
D03*
X1533062D02*
D03*
Y587970D02*
D03*
X1507586Y617290D02*
D03*
Y608290D02*
D03*
Y587970D02*
D03*
Y596970D02*
D03*
X1507584Y567650D02*
D03*
Y576650D02*
D03*
X1437990Y596970D02*
D03*
Y587970D02*
D03*
X1412260Y617290D02*
D03*
Y608290D02*
D03*
Y587970D02*
D03*
Y596970D02*
D03*
X1412258Y567650D02*
D03*
Y576650D02*
D03*
X1343680Y596970D02*
D03*
Y587970D02*
D03*
X1316932Y567650D02*
D03*
Y576650D02*
D03*
X1316934Y587970D02*
D03*
Y596970D02*
D03*
Y617290D02*
D03*
Y608290D02*
D03*
X1248354Y596970D02*
D03*
Y587970D02*
D03*
X1231960Y572328D02*
D03*
Y563328D02*
D03*
X1120670Y572330D02*
D03*
Y563330D02*
D03*
X877344Y712925D02*
D03*
Y703925D02*
D03*
X864896Y712925D02*
D03*
Y703925D02*
D03*
X852448Y712925D02*
D03*
Y703925D02*
D03*
X840000Y712925D02*
D03*
Y703925D02*
D03*
X825423Y686839D02*
D03*
Y677839D02*
D03*
X812979Y677842D02*
D03*
Y686842D02*
D03*
X800539Y677840D02*
D03*
Y686840D02*
D03*
X788096Y677842D02*
D03*
Y686842D02*
D03*
X775658Y686839D02*
D03*
Y677839D02*
D03*
X527024Y592005D02*
D03*
Y601005D02*
D03*
X585810Y605069D02*
D03*
Y596069D02*
D03*
Y616389D02*
D03*
Y625389D02*
D03*
X693929Y687347D02*
D03*
Y678347D02*
D03*
X681540D02*
D03*
Y687347D02*
D03*
X668990Y678347D02*
D03*
Y687347D02*
D03*
X656664Y678347D02*
D03*
Y687347D02*
D03*
X644164D02*
D03*
Y678347D02*
D03*
X676287Y712925D02*
D03*
Y703925D02*
D03*
X663789Y712925D02*
D03*
Y703925D02*
D03*
X651290Y712925D02*
D03*
Y703925D02*
D03*
X638791Y712925D02*
D03*
Y703925D02*
D03*
X512172Y678914D02*
D03*
Y687914D02*
D03*
X463912Y678914D02*
D03*
Y687914D02*
D03*
X446001Y638855D02*
D03*
Y647855D02*
D03*
X375358Y638855D02*
D03*
Y647855D02*
D03*
X361221Y678914D02*
D03*
Y687914D02*
D03*
X312961Y678914D02*
D03*
Y687914D02*
D03*
X606317Y338400D02*
D03*
Y347400D02*
D03*
X398780Y522190D02*
D03*
Y513190D02*
D03*
Y572880D02*
D03*
Y581880D02*
D03*
X313690Y119960D02*
D03*
Y128960D02*
D03*
X300990Y119960D02*
D03*
Y128960D02*
D03*
X288290Y119960D02*
D03*
Y128960D02*
D03*
X275590Y119960D02*
D03*
Y128960D02*
D03*
X38135Y129454D02*
D03*
Y120454D02*
D03*
Y173584D02*
D03*
Y164584D02*
D03*
Y217713D02*
D03*
Y208713D02*
D03*
Y261843D02*
D03*
Y252843D02*
D03*
Y305972D02*
D03*
Y296972D02*
D03*
Y350102D02*
D03*
Y341102D02*
D03*
Y394231D02*
D03*
Y385232D02*
D03*
Y438361D02*
D03*
Y429361D02*
D03*
Y482491D02*
D03*
Y473491D02*
D03*
Y526620D02*
D03*
Y517620D02*
D03*
Y570750D02*
D03*
Y561750D02*
D03*
X38099Y605350D02*
D03*
Y614350D02*
D03*
Y649375D02*
D03*
Y658375D02*
D03*
Y693441D02*
D03*
Y702441D02*
D03*
D93*
X450610Y387350D02*
D03*
X420610D02*
D03*
X450610Y271780D02*
D03*
X420610D02*
D03*
D94*
X450610Y381350D02*
D03*
Y393350D02*
D03*
X420610D02*
D03*
Y381350D02*
D03*
X450610Y265780D02*
D03*
Y277780D02*
D03*
X420610D02*
D03*
Y265780D02*
D03*
D95*
X1512153Y39025D02*
D03*
X1575653D02*
D03*
X1611895Y39015D02*
D03*
X1700395D02*
D03*
X814500Y759385D02*
D03*
X965500D02*
D03*
X588287D02*
D03*
X764287D02*
D03*
X436226Y761000D02*
D03*
X537226D02*
D03*
X386275D02*
D03*
X285275D02*
D03*
D96*
X1550153Y68025D02*
D03*
X1537653D02*
D03*
X1674895Y68015D02*
D03*
X1662395D02*
D03*
X1649895D02*
D03*
X1637395D02*
D03*
X940000Y730385D02*
D03*
X927500D02*
D03*
X915000D02*
D03*
X902500D02*
D03*
X890000D02*
D03*
X877500D02*
D03*
X865000D02*
D03*
X852500D02*
D03*
X840000D02*
D03*
X738787D02*
D03*
X726287D02*
D03*
X713787D02*
D03*
X701287D02*
D03*
X688787D02*
D03*
X676287D02*
D03*
X663787D02*
D03*
X651287D02*
D03*
X638787D02*
D03*
X626287D02*
D03*
X613787D02*
D03*
X511726Y732000D02*
D03*
X499226D02*
D03*
X486726D02*
D03*
X474226D02*
D03*
X461726D02*
D03*
X310775D02*
D03*
X323275D02*
D03*
X335775D02*
D03*
X348275D02*
D03*
X360775D02*
D03*
D97*
X569005Y502078D02*
D03*
X574255D02*
D03*
D98*
X219330Y275590D02*
D03*
X235330D02*
D03*
X317880Y391160D02*
D03*
X301880D02*
D03*
X337440D02*
D03*
X353440D02*
D03*
X337440Y267970D02*
D03*
X353440D02*
D03*
X317880D02*
D03*
X301880D02*
D03*
X219330Y472270D02*
D03*
X235330D02*
D03*
D99*
X232620Y158750D02*
D03*
X191620D02*
D03*
X129720D02*
D03*
X88720D02*
D03*
X131977Y640000D02*
D03*
X90977D02*
D03*
X90827Y540698D02*
D03*
X131826D02*
D03*
X130990Y440690D02*
D03*
X89990D02*
D03*
X130990Y347980D02*
D03*
X89990D02*
D03*
X130960Y252730D02*
D03*
X89960D02*
D03*
D100*
X1040958Y172428D02*
D03*
Y185128D02*
D03*
Y197828D02*
D03*
Y210528D02*
D03*
X1093658D02*
D03*
Y197828D02*
D03*
Y185128D02*
D03*
Y172428D02*
D03*
X955482Y142026D02*
D03*
Y129326D02*
D03*
Y116626D02*
D03*
Y103926D02*
D03*
X902782D02*
D03*
Y116626D02*
D03*
Y129326D02*
D03*
Y142026D02*
D03*
X1093658D02*
D03*
Y129326D02*
D03*
Y116626D02*
D03*
Y103926D02*
D03*
X1040958D02*
D03*
Y116626D02*
D03*
Y129326D02*
D03*
Y142026D02*
D03*
D101*
X327916Y330199D02*
D03*
D102*
X302914Y347700D02*
D03*
Y342700D02*
D03*
Y337700D02*
D03*
Y332700D02*
D03*
Y327700D02*
D03*
Y322700D02*
D03*
Y317700D02*
D03*
Y312700D02*
D03*
X352914D02*
D03*
Y317700D02*
D03*
Y322700D02*
D03*
Y327700D02*
D03*
Y332700D02*
D03*
Y337700D02*
D03*
Y342700D02*
D03*
Y347700D02*
D03*
D103*
X310414Y305200D02*
D03*
X315414D02*
D03*
X320414D02*
D03*
X325414D02*
D03*
X330414D02*
D03*
X335414D02*
D03*
X340414D02*
D03*
X345414D02*
D03*
Y355200D02*
D03*
X340414D02*
D03*
X335414D02*
D03*
X330414D02*
D03*
X325414D02*
D03*
X320414D02*
D03*
X315414D02*
D03*
X310414D02*
D03*
D104*
X435930Y329490D02*
D03*
D105*
X445680Y309490D02*
D03*
X439180D02*
D03*
X432680D02*
D03*
X426180D02*
D03*
Y349490D02*
D03*
X432680D02*
D03*
X439180D02*
D03*
X445680D02*
D03*
D106*
X415930Y319740D02*
D03*
Y326240D02*
D03*
Y332740D02*
D03*
Y339240D02*
D03*
X455930D02*
D03*
Y332740D02*
D03*
Y326240D02*
D03*
Y319740D02*
D03*
D107*
X565148Y496141D02*
D03*
X574148D02*
D03*
D108*
X836270Y119220D02*
D03*
X817270D02*
D03*
X826770Y99220D02*
D03*
X800710Y119220D02*
D03*
X781710D02*
D03*
X791210Y99220D02*
D03*
X765150Y119220D02*
D03*
X746150D02*
D03*
X755650Y99220D02*
D03*
X729590Y119220D02*
D03*
X710590D02*
D03*
X720090Y99220D02*
D03*
X681330Y119220D02*
D03*
X662330D02*
D03*
X671830Y99220D02*
D03*
X644077Y119220D02*
D03*
X625077D02*
D03*
X634577Y99220D02*
D03*
X606823Y119220D02*
D03*
X587823D02*
D03*
X597323Y99220D02*
D03*
X569570Y119220D02*
D03*
X550570D02*
D03*
X560070Y99220D02*
D03*
X1729129Y677070D02*
D03*
X1748129D02*
D03*
X1738629Y697070D02*
D03*
X1676382Y677070D02*
D03*
X1695382D02*
D03*
X1685882Y697070D02*
D03*
X1623635Y677070D02*
D03*
X1642635D02*
D03*
X1633135Y697070D02*
D03*
X1570887Y677070D02*
D03*
X1589888D02*
D03*
X1580388Y697070D02*
D03*
X1518140Y677070D02*
D03*
X1537140D02*
D03*
X1527640Y697070D02*
D03*
X1465393Y677070D02*
D03*
X1484393D02*
D03*
X1474893Y697070D02*
D03*
X1412646Y677070D02*
D03*
X1431646D02*
D03*
X1422146Y697070D02*
D03*
X1359898Y677070D02*
D03*
X1378898D02*
D03*
X1369398Y697070D02*
D03*
X1307151Y677070D02*
D03*
X1326151D02*
D03*
X1316651Y697070D02*
D03*
X1254404Y677070D02*
D03*
X1273404D02*
D03*
X1263904Y697070D02*
D03*
X1201656Y677070D02*
D03*
X1220657D02*
D03*
X1211156Y697070D02*
D03*
X1148909Y677070D02*
D03*
X1167909D02*
D03*
X1158409Y697070D02*
D03*
X1096162Y677070D02*
D03*
X1115162D02*
D03*
X1105662Y697070D02*
D03*
X1043415Y677070D02*
D03*
X1062415D02*
D03*
X1052915Y697070D02*
D03*
X990667Y677070D02*
D03*
X1009667D02*
D03*
X1000167Y697070D02*
D03*
X937920Y677070D02*
D03*
X956920D02*
D03*
X947420Y697070D02*
D03*
D109*
X1431593Y128585D02*
D03*
X1403130D02*
D03*
X1226699D02*
D03*
X1198237D02*
D03*
X1329146D02*
D03*
X1300683D02*
D03*
X1534039D02*
D03*
X1505577D02*
D03*
D110*
X1231781Y155000D02*
D03*
Y183200D02*
D03*
X1226781D02*
D03*
X1221781D02*
D03*
X1216781D02*
D03*
X1226781Y155000D02*
D03*
X1221781D02*
D03*
X1216781D02*
D03*
X1319227D02*
D03*
X1324227D02*
D03*
X1329227D02*
D03*
X1319227Y183200D02*
D03*
X1324227D02*
D03*
X1329227D02*
D03*
X1334227D02*
D03*
Y155000D02*
D03*
X1436674D02*
D03*
Y183200D02*
D03*
X1431674D02*
D03*
X1426674D02*
D03*
X1421674D02*
D03*
X1431674Y155000D02*
D03*
X1426674D02*
D03*
X1421674D02*
D03*
X1524121D02*
D03*
X1529121D02*
D03*
X1534121D02*
D03*
X1524121Y183200D02*
D03*
X1529121D02*
D03*
X1534121D02*
D03*
X1539121D02*
D03*
Y155000D02*
D03*
D111*
X1229031Y175602D02*
D03*
X1219531D02*
D03*
X1321978D02*
D03*
X1331477D02*
D03*
X1433924D02*
D03*
X1424424D02*
D03*
X1526871D02*
D03*
X1536371D02*
D03*
D112*
X1238531Y179100D02*
D03*
Y174100D02*
D03*
Y164100D02*
D03*
Y159100D02*
D03*
X1210031D02*
D03*
Y164100D02*
D03*
Y169100D02*
D03*
Y174100D02*
D03*
Y179100D02*
D03*
X1312478D02*
D03*
Y174100D02*
D03*
Y169100D02*
D03*
Y164100D02*
D03*
Y159100D02*
D03*
X1340977D02*
D03*
Y164100D02*
D03*
Y174100D02*
D03*
Y179100D02*
D03*
X1443424D02*
D03*
Y174100D02*
D03*
Y164100D02*
D03*
Y159100D02*
D03*
X1414924D02*
D03*
Y164100D02*
D03*
Y169100D02*
D03*
Y174100D02*
D03*
Y179100D02*
D03*
X1517371D02*
D03*
Y174100D02*
D03*
Y169100D02*
D03*
Y164100D02*
D03*
Y159100D02*
D03*
X1545871D02*
D03*
Y164100D02*
D03*
Y174100D02*
D03*
Y179100D02*
D03*
D113*
X1238531Y169100D02*
D03*
X1340977D02*
D03*
X1443424D02*
D03*
X1545871D02*
D03*
D114*
X1642258Y126908D02*
D03*
Y120408D02*
D03*
Y113908D02*
D03*
Y107408D02*
D03*
X1683258Y126908D02*
D03*
Y120408D02*
D03*
Y113908D02*
D03*
Y107408D02*
D03*
X1662991Y602840D02*
D03*
Y596340D02*
D03*
Y589840D02*
D03*
Y583340D02*
D03*
X1703991Y602840D02*
D03*
Y596340D02*
D03*
Y589840D02*
D03*
Y583340D02*
D03*
D115*
X295140Y26520D02*
D03*
X129040D02*
D03*
D116*
X501650Y171450D02*
D03*
D117*
X443230Y146750D02*
D03*
X430530D02*
D03*
X417830D02*
D03*
X405130D02*
D03*
Y196150D02*
D03*
X417830D02*
D03*
X430530D02*
D03*
X443230D02*
D03*
X378244Y146750D02*
D03*
X365544D02*
D03*
X352844D02*
D03*
X340144D02*
D03*
Y196150D02*
D03*
X352844D02*
D03*
X365544D02*
D03*
X378244D02*
D03*
X313690D02*
D03*
X300990D02*
D03*
X288290D02*
D03*
X275590D02*
D03*
Y146750D02*
D03*
X288290D02*
D03*
X300990D02*
D03*
X313690D02*
D03*
D118*
X887184Y395891D02*
D03*
X895184D02*
D03*
X903184D02*
D03*
X911184D02*
D03*
X919184D02*
D03*
Y373891D02*
D03*
X911184D02*
D03*
X903184D02*
D03*
X895184D02*
D03*
X887184D02*
D03*
D119*
X924198Y191114D02*
D03*
Y197614D02*
D03*
Y204114D02*
D03*
Y210613D02*
D03*
Y217113D02*
D03*
Y223613D02*
D03*
Y230113D02*
D03*
Y236613D02*
D03*
X865143D02*
D03*
Y230113D02*
D03*
Y223613D02*
D03*
Y217113D02*
D03*
Y210613D02*
D03*
Y204114D02*
D03*
Y197614D02*
D03*
Y191114D02*
D03*
D120*
X921912Y293873D02*
D03*
Y281173D02*
D03*
Y268473D02*
D03*
Y255773D02*
D03*
X867429D02*
D03*
Y268473D02*
D03*
Y281173D02*
D03*
Y293873D02*
D03*
D121*
X1047471Y255461D02*
D03*
X752687Y489254D02*
D03*
X1142471Y255461D02*
D03*
D122*
X1048929Y298277D02*
D03*
Y316277D02*
D03*
X1103860Y298277D02*
D03*
Y316277D02*
D03*
D123*
X1105050Y378612D02*
D03*
Y388112D02*
D03*
Y397612D02*
D03*
X1130150D02*
D03*
Y388112D02*
D03*
Y378612D02*
D03*
D124*
X1565910Y592164D02*
D03*
X1471007D02*
D03*
X1376105D02*
D03*
X1281202D02*
D03*
D125*
X1546860Y618513D02*
D03*
X1559560D02*
D03*
X1572260D02*
D03*
X1584960D02*
D03*
Y565813D02*
D03*
X1572260D02*
D03*
X1559560D02*
D03*
X1546860D02*
D03*
X1451957Y618513D02*
D03*
X1464657D02*
D03*
X1477357D02*
D03*
X1490057D02*
D03*
Y565813D02*
D03*
X1477357D02*
D03*
X1464657D02*
D03*
X1451957D02*
D03*
X1357055Y618513D02*
D03*
X1369755D02*
D03*
X1382455D02*
D03*
X1395155D02*
D03*
Y565813D02*
D03*
X1382455D02*
D03*
X1369755D02*
D03*
X1357055D02*
D03*
X1262152Y618513D02*
D03*
X1274852D02*
D03*
X1287552D02*
D03*
X1300252D02*
D03*
Y565813D02*
D03*
X1287552D02*
D03*
X1274852D02*
D03*
X1262152D02*
D03*
X391661Y691816D02*
D03*
X404361D02*
D03*
X417061D02*
D03*
X429761D02*
D03*
Y639116D02*
D03*
X417061D02*
D03*
X404361D02*
D03*
X391661D02*
D03*
D126*
X1077965Y618943D02*
D03*
Y560944D02*
D03*
X1071465D02*
D03*
X1064965D02*
D03*
X1058465D02*
D03*
X1051965D02*
D03*
X1045465D02*
D03*
X1038965D02*
D03*
X1032465D02*
D03*
X1025965D02*
D03*
X1019465D02*
D03*
X1012965D02*
D03*
X1006465D02*
D03*
Y618943D02*
D03*
X1012965D02*
D03*
X1019465D02*
D03*
X1025965D02*
D03*
X1032465D02*
D03*
X1038965D02*
D03*
X1051965D02*
D03*
X1058465D02*
D03*
X1064965D02*
D03*
X1071465D02*
D03*
X1045465D02*
D03*
D127*
X555870Y610849D02*
D03*
D128*
X541170Y603349D02*
D03*
Y608349D02*
D03*
Y613349D02*
D03*
Y618349D02*
D03*
X570570D02*
D03*
Y613349D02*
D03*
Y608349D02*
D03*
Y603349D02*
D03*
D129*
X548370Y625549D02*
D03*
X553370D02*
D03*
X558370D02*
D03*
X563370D02*
D03*
Y596149D02*
D03*
X558370D02*
D03*
X553370D02*
D03*
X548370D02*
D03*
D130*
X668990Y644352D02*
D03*
X800484Y643844D02*
D03*
D131*
X327228Y695406D02*
D03*
X336728D02*
D03*
X346228D02*
D03*
Y670306D02*
D03*
X336728D02*
D03*
X327228D02*
D03*
X478179Y695406D02*
D03*
X487679D02*
D03*
X497179D02*
D03*
Y670306D02*
D03*
X487679D02*
D03*
X478179D02*
D03*
D132*
X770594Y486653D02*
D03*
X787094D02*
D03*
Y470653D02*
D03*
X770594D02*
D03*
D133*
X734452Y464820D02*
D03*
X719952D02*
D03*
Y523494D02*
D03*
X734452D02*
D03*
D134*
X630805Y317008D02*
D03*
X615305D02*
D03*
X615305Y327509D02*
D03*
X630805D02*
D03*
D135*
X850964Y507368D02*
D03*
Y526368D02*
D03*
X830964Y516868D02*
D03*
X291642Y455016D02*
D03*
Y436016D02*
D03*
X311642Y445516D02*
D03*
D136*
X376664Y372200D02*
D03*
Y392200D02*
D03*
X279164Y372200D02*
D03*
Y392200D02*
D03*
X279164Y286860D02*
D03*
Y266860D02*
D03*
X376664Y286860D02*
D03*
Y266860D02*
D03*
D137*
X207010Y229870D02*
D03*
Y426550D02*
D03*
D138*
X279315Y312700D02*
D03*
X284565D02*
D03*
X284565Y342700D02*
D03*
X279315D02*
D03*
X284565Y347700D02*
D03*
X279315D02*
D03*
X284565Y317700D02*
D03*
X279315D02*
D03*
D139*
X207008Y354910D02*
D03*
Y300410D02*
D03*
Y551590D02*
D03*
Y497090D02*
D03*
D140*
X206778Y618848D02*
D03*
D141*
X230378Y631848D02*
D03*
Y625348D02*
D03*
Y618848D02*
D03*
Y612348D02*
D03*
Y605848D02*
D03*
X183178D02*
D03*
Y612348D02*
D03*
Y618848D02*
D03*
Y625348D02*
D03*
Y631848D02*
D03*
D142*
X193778Y642448D02*
D03*
X200278D02*
D03*
X206778D02*
D03*
X213278D02*
D03*
X219778D02*
D03*
Y595248D02*
D03*
X213278D02*
D03*
X206778D02*
D03*
X200278D02*
D03*
X193778D02*
D03*
D143*
X207040Y113030D02*
D03*
X212040Y113041D02*
D03*
X111397Y594291D02*
D03*
X106397Y594280D02*
D03*
X111247Y494988D02*
D03*
X106247Y494977D02*
D03*
X110410Y394981D02*
D03*
X105410Y394970D02*
D03*
Y302260D02*
D03*
X110410Y302271D02*
D03*
X105380Y207010D02*
D03*
X110380Y207021D02*
D03*
X104140Y113030D02*
D03*
X109140Y113041D02*
D03*
D144*
X218781Y120030D02*
D03*
X200281Y106030D02*
D03*
X218781D02*
D03*
X200310Y120030D02*
D03*
X99668Y601280D02*
D03*
X118138Y587280D02*
D03*
X99638D02*
D03*
X118138Y601280D02*
D03*
X99517Y501977D02*
D03*
X117987Y487977D02*
D03*
X99488D02*
D03*
X117987Y501978D02*
D03*
X98680Y401970D02*
D03*
X117151Y387970D02*
D03*
X98651D02*
D03*
X117151Y401970D02*
D03*
Y309260D02*
D03*
X98651Y295260D02*
D03*
X117151D02*
D03*
X98680Y309260D02*
D03*
X117121Y214010D02*
D03*
X98621Y200010D02*
D03*
X117121D02*
D03*
X98651Y214010D02*
D03*
X115881Y120030D02*
D03*
X97381Y106030D02*
D03*
X115881D02*
D03*
X97410Y120030D02*
D03*
D145*
X202281Y104280D02*
D03*
X216781D02*
D03*
X216781Y121780D02*
D03*
X202311D02*
D03*
X101668Y603030D02*
D03*
X116138D02*
D03*
X116138Y585530D02*
D03*
X101638D02*
D03*
X101517Y503727D02*
D03*
X115987D02*
D03*
X115987Y486227D02*
D03*
X101488D02*
D03*
X100681Y403720D02*
D03*
X115151D02*
D03*
X115151Y386220D02*
D03*
X100651D02*
D03*
Y293510D02*
D03*
X115151D02*
D03*
X115151Y311010D02*
D03*
X100681D02*
D03*
X100621Y198260D02*
D03*
X115121D02*
D03*
X115121Y215760D02*
D03*
X100651D02*
D03*
X99381Y104280D02*
D03*
X113881D02*
D03*
X113881Y121780D02*
D03*
X99411D02*
D03*
D146*
X218781Y110782D02*
D03*
Y115274D02*
D03*
X200281Y110782D02*
D03*
X200311Y115274D02*
D03*
X99668Y596524D02*
D03*
X99638Y592032D02*
D03*
X118138Y596524D02*
D03*
Y592032D02*
D03*
X99517Y497221D02*
D03*
X99488Y492729D02*
D03*
X117987Y497221D02*
D03*
Y492729D02*
D03*
X98681Y397214D02*
D03*
X98651Y392722D02*
D03*
X117151Y397214D02*
D03*
Y392722D02*
D03*
Y300012D02*
D03*
Y304503D02*
D03*
X98651Y300012D02*
D03*
X98681Y304503D02*
D03*
X117121Y204762D02*
D03*
Y209254D02*
D03*
X98621Y204762D02*
D03*
X98651Y209254D02*
D03*
X115881Y110782D02*
D03*
Y115274D02*
D03*
X97381Y110782D02*
D03*
X97411Y115274D02*
D03*
D147*
X38054Y98269D02*
D03*
Y108769D02*
D03*
Y142399D02*
D03*
Y152899D02*
D03*
Y186528D02*
D03*
Y197029D02*
D03*
Y230658D02*
D03*
Y241158D02*
D03*
Y274788D02*
D03*
Y285288D02*
D03*
Y318917D02*
D03*
Y329417D02*
D03*
Y363047D02*
D03*
Y373547D02*
D03*
Y407176D02*
D03*
Y417676D02*
D03*
Y451306D02*
D03*
Y461806D02*
D03*
Y495436D02*
D03*
Y505936D02*
D03*
Y539565D02*
D03*
Y550065D02*
D03*
Y583695D02*
D03*
Y594195D02*
D03*
Y627824D02*
D03*
Y638324D02*
D03*
Y671954D02*
D03*
Y682454D02*
D03*
D148*
X208280Y740454D02*
D03*
X111760D02*
D03*
D149*
X231280Y682454D02*
D03*
X208280D02*
D03*
X185280D02*
D03*
X134760D02*
D03*
X111760D02*
D03*
X88760D02*
D03*
D150*
X40000Y760000D02*
D03*
Y40000D02*
D03*
X1760000Y760000D02*
D03*
Y40000D02*
D03*
D151*
X1752600Y184810D02*
D03*
X1600200Y438810D02*
D03*
Y464210D02*
D03*
Y489610D02*
D03*
X1752600Y235610D02*
D03*
Y261010D02*
D03*
Y515010D02*
D03*
Y286410D02*
D03*
Y489610D02*
D03*
Y311810D02*
D03*
Y464210D02*
D03*
Y337210D02*
D03*
Y438810D02*
D03*
Y362610D02*
D03*
Y413410D02*
D03*
Y388010D02*
D03*
Y210210D02*
D03*
X1600200Y515010D02*
D03*
Y413410D02*
D03*
Y388010D02*
D03*
Y362610D02*
D03*
Y337210D02*
D03*
Y311810D02*
D03*
Y286410D02*
D03*
Y261010D02*
D03*
Y235610D02*
D03*
Y210210D02*
D03*
Y184810D02*
D03*
X1375410Y247410D02*
D03*
X1426210D02*
D03*
X1451610D02*
D03*
X1477010D02*
D03*
X1375410Y522110D02*
D03*
X1400810D02*
D03*
X1426210D02*
D03*
X1477010D02*
D03*
X1451610D02*
D03*
X1400810Y247410D02*
D03*
D152*
X1014871Y226226D02*
D03*
X1015321Y218677D02*
D03*
X1014139Y211564D02*
D03*
X415930Y297433D02*
D03*
Y302433D02*
D03*
Y356547D02*
D03*
Y361547D02*
D03*
M02*
