G04*
G04 #@! TF.GenerationSoftware,Altium Limited,Altium Designer,24.1.2 (44)*
G04*
G04 Layer_Color=16711935*
%FSLAX44Y44*%
%MOMM*%
G71*
G04*
G04 #@! TF.SameCoordinates,08E163FE-A1B1-404E-B758-27256C6DDFFB*
G04*
G04*
G04 #@! TF.FilePolarity,Negative*
G04*
G01*
G75*
%ADD86C,1.0000*%
%ADD87R,0.7524X1.1524*%
%ADD88R,1.4024X1.9524*%
G04:AMPARAMS|DCode=89|XSize=0.375mm|YSize=0.4mm|CornerRadius=0.1188mm|HoleSize=0mm|Usage=FLASHONLY|Rotation=90.000|XOffset=0mm|YOffset=0mm|HoleType=Round|Shape=RoundedRectangle|*
%AMROUNDEDRECTD89*
21,1,0.3750,0.1625,0,0,90.0*
21,1,0.1375,0.4000,0,0,90.0*
1,1,0.2375,0.0813,0.0688*
1,1,0.2375,0.0813,-0.0688*
1,1,0.2375,-0.0813,-0.0688*
1,1,0.2375,-0.0813,0.0688*
%
%ADD89ROUNDEDRECTD89*%
G04:AMPARAMS|DCode=90|XSize=0.375mm|YSize=0.4mm|CornerRadius=0.1188mm|HoleSize=0mm|Usage=FLASHONLY|Rotation=0.000|XOffset=0mm|YOffset=0mm|HoleType=Round|Shape=RoundedRectangle|*
%AMROUNDEDRECTD90*
21,1,0.3750,0.1625,0,0,0.0*
21,1,0.1375,0.4000,0,0,0.0*
1,1,0.2375,0.0688,-0.0813*
1,1,0.2375,-0.0688,-0.0813*
1,1,0.2375,-0.0688,0.0813*
1,1,0.2375,0.0688,0.0813*
%
%ADD90ROUNDEDRECTD90*%
G04:AMPARAMS|DCode=91|XSize=0.65mm|YSize=0.7mm|CornerRadius=0.1875mm|HoleSize=0mm|Usage=FLASHONLY|Rotation=0.000|XOffset=0mm|YOffset=0mm|HoleType=Round|Shape=RoundedRectangle|*
%AMROUNDEDRECTD91*
21,1,0.6500,0.3250,0,0,0.0*
21,1,0.2750,0.7000,0,0,0.0*
1,1,0.3750,0.1375,-0.1625*
1,1,0.3750,-0.1375,-0.1625*
1,1,0.3750,-0.1375,0.1625*
1,1,0.3750,0.1375,0.1625*
%
%ADD91ROUNDEDRECTD91*%
G04:AMPARAMS|DCode=92|XSize=0.65mm|YSize=0.7mm|CornerRadius=0.1875mm|HoleSize=0mm|Usage=FLASHONLY|Rotation=90.000|XOffset=0mm|YOffset=0mm|HoleType=Round|Shape=RoundedRectangle|*
%AMROUNDEDRECTD92*
21,1,0.6500,0.3250,0,0,90.0*
21,1,0.2750,0.7000,0,0,90.0*
1,1,0.3750,0.1625,0.1375*
1,1,0.3750,0.1625,-0.1375*
1,1,0.3750,-0.1625,-0.1375*
1,1,0.3750,-0.1625,0.1375*
%
%ADD92ROUNDEDRECTD92*%
%ADD93R,1.2000X0.5500*%
%ADD94R,1.2000X0.7000*%
%ADD95R,2.2524X3.1524*%
%ADD96R,0.9524X1.7524*%
G04:AMPARAMS|DCode=99|XSize=1.8532mm|YSize=2.7532mm|CornerRadius=0.3491mm|HoleSize=0mm|Usage=FLASHONLY|Rotation=90.000|XOffset=0mm|YOffset=0mm|HoleType=Round|Shape=RoundedRectangle|*
%AMROUNDEDRECTD99*
21,1,1.8532,2.0550,0,0,90.0*
21,1,1.1550,2.7532,0,0,90.0*
1,1,0.6982,1.0275,0.5775*
1,1,0.6982,1.0275,-0.5775*
1,1,0.6982,-1.0275,-0.5775*
1,1,0.6982,-1.0275,0.5775*
%
%ADD99ROUNDEDRECTD99*%
G04:AMPARAMS|DCode=100|XSize=1.8432mm|YSize=0.7932mm|CornerRadius=0.2491mm|HoleSize=0mm|Usage=FLASHONLY|Rotation=180.000|XOffset=0mm|YOffset=0mm|HoleType=Round|Shape=RoundedRectangle|*
%AMROUNDEDRECTD100*
21,1,1.8432,0.2950,0,0,180.0*
21,1,1.3450,0.7932,0,0,180.0*
1,1,0.4982,-0.6725,0.1475*
1,1,0.4982,0.6725,0.1475*
1,1,0.4982,0.6725,-0.1475*
1,1,0.4982,-0.6725,-0.1475*
%
%ADD100ROUNDEDRECTD100*%
G04:AMPARAMS|DCode=108|XSize=1.5232mm|YSize=0.8032mm|CornerRadius=0.1766mm|HoleSize=0mm|Usage=FLASHONLY|Rotation=270.000|XOffset=0mm|YOffset=0mm|HoleType=Round|Shape=RoundedRectangle|*
%AMROUNDEDRECTD108*
21,1,1.5232,0.4500,0,0,270.0*
21,1,1.1700,0.8032,0,0,270.0*
1,1,0.3532,-0.2250,-0.5850*
1,1,0.3532,-0.2250,0.5850*
1,1,0.3532,0.2250,0.5850*
1,1,0.3532,0.2250,-0.5850*
%
%ADD108ROUNDEDRECTD108*%
%ADD114O,1.5016X0.4516*%
%ADD121C,1.1000*%
G04:AMPARAMS|DCode=122|XSize=1.4032mm|YSize=1.5032mm|CornerRadius=0.3476mm|HoleSize=0mm|Usage=FLASHONLY|Rotation=90.000|XOffset=0mm|YOffset=0mm|HoleType=Round|Shape=RoundedRectangle|*
%AMROUNDEDRECTD122*
21,1,1.4032,0.8080,0,0,90.0*
21,1,0.7080,1.5032,0,0,90.0*
1,1,0.6952,0.4040,0.3540*
1,1,0.6952,0.4040,-0.3540*
1,1,0.6952,-0.4040,-0.3540*
1,1,0.6952,-0.4040,0.3540*
%
%ADD122ROUNDEDRECTD122*%
G04:AMPARAMS|DCode=123|XSize=1.4132mm|YSize=0.7932mm|CornerRadius=0.1754mm|HoleSize=0mm|Usage=FLASHONLY|Rotation=180.000|XOffset=0mm|YOffset=0mm|HoleType=Round|Shape=RoundedRectangle|*
%AMROUNDEDRECTD123*
21,1,1.4132,0.4425,0,0,180.0*
21,1,1.0625,0.7932,0,0,180.0*
1,1,0.3507,-0.5313,0.2213*
1,1,0.3507,0.5313,0.2213*
1,1,0.3507,0.5313,-0.2213*
1,1,0.3507,-0.5313,-0.2213*
%
%ADD123ROUNDEDRECTD123*%
G04:AMPARAMS|DCode=138|XSize=0.355mm|YSize=0.38mm|CornerRadius=0.1088mm|HoleSize=0mm|Usage=FLASHONLY|Rotation=0.000|XOffset=0mm|YOffset=0mm|HoleType=Round|Shape=RoundedRectangle|*
%AMROUNDEDRECTD138*
21,1,0.3550,0.1625,0,0,0.0*
21,1,0.1375,0.3800,0,0,0.0*
1,1,0.2175,0.0688,-0.0813*
1,1,0.2175,-0.0688,-0.0813*
1,1,0.2175,-0.0688,0.0813*
1,1,0.2175,0.0688,0.0813*
%
%ADD138ROUNDEDRECTD138*%
%ADD150C,6.2032*%
%ADD151C,1.5000*%
%ADD152C,0.6032*%
%ADD179C,0.4064*%
%ADD202C,0.3500*%
%ADD203O,1.9032X0.5032*%
%ADD204O,0.5032X1.9032*%
G04:AMPARAMS|DCode=205|XSize=2.9032mm|YSize=1.5032mm|CornerRadius=0.3486mm|HoleSize=0mm|Usage=FLASHONLY|Rotation=270.000|XOffset=0mm|YOffset=0mm|HoleType=Round|Shape=RoundedRectangle|*
%AMROUNDEDRECTD205*
21,1,2.9032,0.8060,0,0,270.0*
21,1,2.2060,1.5032,0,0,270.0*
1,1,0.6972,-0.4030,-1.1030*
1,1,0.6972,-0.4030,1.1030*
1,1,0.6972,0.4030,1.1030*
1,1,0.6972,0.4030,-1.1030*
%
%ADD205ROUNDEDRECTD205*%
G04:AMPARAMS|DCode=206|XSize=1.1032mm|YSize=1.1532mm|CornerRadius=0.2006mm|HoleSize=0mm|Usage=FLASHONLY|Rotation=180.000|XOffset=0mm|YOffset=0mm|HoleType=Round|Shape=RoundedRectangle|*
%AMROUNDEDRECTD206*
21,1,1.1032,0.7520,0,0,180.0*
21,1,0.7020,1.1532,0,0,180.0*
1,1,0.4012,-0.3510,0.3760*
1,1,0.4012,0.3510,0.3760*
1,1,0.4012,0.3510,-0.3760*
1,1,0.4012,-0.3510,-0.3760*
%
%ADD206ROUNDEDRECTD206*%
%ADD207R,1.0032X1.8032*%
%ADD208R,2.3032X3.2032*%
%ADD209R,1.4732X3.6332*%
%ADD210R,3.1242X0.7620*%
%ADD211R,1.2446X2.5908*%
%ADD212R,1.2446X1.3970*%
%ADD213R,1.2446X1.2954*%
%ADD214R,0.9144X0.9906*%
%ADD215R,0.7112X1.1938*%
%ADD216C,0.6932*%
G04:AMPARAMS|DCode=217|XSize=1.6002mm|YSize=1.397mm|CornerRadius=0mm|HoleSize=0mm|Usage=FLASHONLY|Rotation=135.000|XOffset=0mm|YOffset=0mm|HoleType=Round|Shape=Rectangle|*
%AMROTATEDRECTD217*
4,1,4,1.0597,-0.0718,0.0718,-1.0597,-1.0597,0.0718,-0.0718,1.0597,1.0597,-0.0718,0.0*
%
%ADD217ROTATEDRECTD217*%

G04:AMPARAMS|DCode=218|XSize=0.375mm|YSize=0.4mm|CornerRadius=0.1188mm|HoleSize=0mm|Usage=FLASHONLY|Rotation=45.000|XOffset=0mm|YOffset=0mm|HoleType=Round|Shape=RoundedRectangle|*
%AMROUNDEDRECTD218*
21,1,0.3750,0.1625,0,0,45.0*
21,1,0.1375,0.4000,0,0,45.0*
1,1,0.2375,0.1061,-0.0088*
1,1,0.2375,0.0088,-0.1061*
1,1,0.2375,-0.1061,0.0088*
1,1,0.2375,-0.0088,0.1061*
%
%ADD218ROUNDEDRECTD218*%
G04:AMPARAMS|DCode=219|XSize=0.375mm|YSize=0.4mm|CornerRadius=0.1188mm|HoleSize=0mm|Usage=FLASHONLY|Rotation=315.000|XOffset=0mm|YOffset=0mm|HoleType=Round|Shape=RoundedRectangle|*
%AMROUNDEDRECTD219*
21,1,0.3750,0.1625,0,0,315.0*
21,1,0.1375,0.4000,0,0,315.0*
1,1,0.2375,-0.0088,-0.1061*
1,1,0.2375,-0.1061,-0.0088*
1,1,0.2375,0.0088,0.1061*
1,1,0.2375,0.1061,0.0088*
%
%ADD219ROUNDEDRECTD219*%
%ADD220R,1.2192X1.4732*%
G04:AMPARAMS|DCode=221|XSize=0.63mm|YSize=0.68mm|CornerRadius=0.1775mm|HoleSize=0mm|Usage=FLASHONLY|Rotation=270.000|XOffset=0mm|YOffset=0mm|HoleType=Round|Shape=RoundedRectangle|*
%AMROUNDEDRECTD221*
21,1,0.6300,0.3250,0,0,270.0*
21,1,0.2750,0.6800,0,0,270.0*
1,1,0.3550,-0.1625,-0.1375*
1,1,0.3550,-0.1625,0.1375*
1,1,0.3550,0.1625,0.1375*
1,1,0.3550,0.1625,-0.1375*
%
%ADD221ROUNDEDRECTD221*%
%ADD222R,3.4732X1.2732*%
%ADD223R,1.5032X1.8032*%
G04:AMPARAMS|DCode=224|XSize=1.1032mm|YSize=1.1532mm|CornerRadius=0.2006mm|HoleSize=0mm|Usage=FLASHONLY|Rotation=90.000|XOffset=0mm|YOffset=0mm|HoleType=Round|Shape=RoundedRectangle|*
%AMROUNDEDRECTD224*
21,1,1.1032,0.7520,0,0,90.0*
21,1,0.7020,1.1532,0,0,90.0*
1,1,0.4012,0.3760,0.3510*
1,1,0.4012,0.3760,-0.3510*
1,1,0.4012,-0.3760,-0.3510*
1,1,0.4012,-0.3760,0.3510*
%
%ADD224ROUNDEDRECTD224*%
%ADD225R,1.2032X1.8032*%
%ADD226R,2.0032X1.8032*%
%ADD227R,1.7526X1.6256*%
G04:AMPARAMS|DCode=228|XSize=0.6604mm|YSize=1.5748mm|CornerRadius=0.2159mm|HoleSize=0mm|Usage=FLASHONLY|Rotation=180.000|XOffset=0mm|YOffset=0mm|HoleType=Round|Shape=RoundedRectangle|*
%AMROUNDEDRECTD228*
21,1,0.6604,1.1430,0,0,180.0*
21,1,0.2286,1.5748,0,0,180.0*
1,1,0.4318,-0.1143,0.5715*
1,1,0.4318,0.1143,0.5715*
1,1,0.4318,0.1143,-0.5715*
1,1,0.4318,-0.1143,-0.5715*
%
%ADD228ROUNDEDRECTD228*%
G04:AMPARAMS|DCode=229|XSize=1.4032mm|YSize=1.5032mm|CornerRadius=0.3476mm|HoleSize=0mm|Usage=FLASHONLY|Rotation=180.000|XOffset=0mm|YOffset=0mm|HoleType=Round|Shape=RoundedRectangle|*
%AMROUNDEDRECTD229*
21,1,1.4032,0.8080,0,0,180.0*
21,1,0.7080,1.5032,0,0,180.0*
1,1,0.6952,-0.3540,0.4040*
1,1,0.6952,0.3540,0.4040*
1,1,0.6952,0.3540,-0.4040*
1,1,0.6952,-0.3540,-0.4040*
%
%ADD229ROUNDEDRECTD229*%
G36*
X48107Y794939D02*
X48725Y794758D01*
X48745Y794456D01*
X46891Y793807D01*
Y795000D01*
X48107Y794939D01*
D02*
G37*
G36*
X46891Y788911D02*
X32155Y788956D01*
X36318Y790104D01*
X46891Y793807D01*
X46891Y788911D01*
D02*
G37*
G36*
X48022Y788908D02*
X46891Y785000D01*
X46891Y788911D01*
X48022Y788908D01*
D02*
G37*
G36*
X18611Y738964D02*
X15000Y725417D01*
X5000Y741950D01*
X5067Y743824D01*
X5267Y745902D01*
X6069Y750675D01*
X6671Y753368D01*
X9277Y762678D01*
X11683Y769908D01*
X18611Y738964D01*
D02*
G37*
G36*
X81208Y592500D02*
X81338Y592473D01*
X81465Y592431D01*
X81584Y592372D01*
X81695Y592298D01*
X81795Y592210D01*
X81883Y592110D01*
X81957Y591999D01*
X82016Y591880D01*
X82058Y591754D01*
X82084Y591623D01*
X82093Y591490D01*
X82090Y591448D01*
X82844Y592207D01*
X82846Y592209D01*
X82847Y592210D01*
X82894Y592252D01*
X82944Y592295D01*
X82946Y592296D01*
X82947Y592298D01*
X82999Y592333D01*
X83054Y592370D01*
X83056Y592371D01*
X83058Y592372D01*
X83113Y592399D01*
X83174Y592429D01*
X83175Y592430D01*
X83177Y592431D01*
X83238Y592451D01*
X83300Y592472D01*
X83301Y592473D01*
X83303Y592473D01*
X83366Y592486D01*
X83430Y592499D01*
X83432Y592499D01*
X83434Y592500D01*
X83497Y592504D01*
X83563Y592508D01*
X83565Y592508D01*
X83567Y592508D01*
X90207D01*
X90241Y592506D01*
X90274D01*
X90307Y592502D01*
X90340Y592500D01*
X90373Y592493D01*
X90406Y592489D01*
X90816Y592407D01*
X90849Y592398D01*
X90881Y592392D01*
X90913Y592381D01*
X90945Y592372D01*
X90976Y592360D01*
X91007Y592349D01*
X91394Y592189D01*
X91424Y592174D01*
X91455Y592161D01*
X91484Y592145D01*
X91514Y592130D01*
X91541Y592111D01*
X91570Y592095D01*
X91918Y591862D01*
X91945Y591842D01*
X91972Y591823D01*
X91997Y591801D01*
X92024Y591781D01*
X92047Y591758D01*
X92072Y591735D01*
X92368Y591440D01*
X92390Y591415D01*
X92414Y591391D01*
X92435Y591364D01*
X92456Y591339D01*
X92475Y591312D01*
X92495Y591285D01*
X92728Y590937D01*
X92744Y590908D01*
X92763Y590881D01*
X92778Y590851D01*
X92794Y590822D01*
X92807Y590791D01*
X92822Y590761D01*
X92982Y590374D01*
X92993Y590343D01*
X93005Y590312D01*
X93014Y590280D01*
X93025Y590248D01*
X93031Y590216D01*
X93040Y590183D01*
X93122Y589773D01*
X93126Y589740D01*
X93132Y589707D01*
X93135Y589674D01*
X93139Y589641D01*
Y589608D01*
X93141Y589574D01*
Y589365D01*
Y584115D01*
Y583906D01*
X93139Y583872D01*
Y583839D01*
X93135Y583806D01*
X93132Y583773D01*
X93126Y583740D01*
X93122Y583707D01*
X93040Y583297D01*
X93031Y583264D01*
X93025Y583232D01*
X93014Y583200D01*
X93005Y583168D01*
X92993Y583137D01*
X92982Y583106D01*
X92822Y582719D01*
X92807Y582689D01*
X92794Y582658D01*
X92778Y582629D01*
X92763Y582599D01*
X92744Y582572D01*
X92728Y582543D01*
X92495Y582195D01*
X92475Y582168D01*
X92456Y582141D01*
X92434Y582115D01*
X92414Y582089D01*
X92391Y582066D01*
X92368Y582040D01*
X92072Y581744D01*
X92048Y581723D01*
X92024Y581699D01*
X91997Y581679D01*
X91972Y581657D01*
X91945Y581638D01*
X91918Y581618D01*
X91570Y581385D01*
X91541Y581369D01*
X91514Y581350D01*
X91484Y581335D01*
X91455Y581319D01*
X91424Y581306D01*
X91394Y581291D01*
X91007Y581131D01*
X90976Y581120D01*
X90945Y581107D01*
X90913Y581099D01*
X90881Y581088D01*
X90849Y581082D01*
X90816Y581073D01*
X90406Y580991D01*
X90373Y580987D01*
X90340Y580980D01*
X90307Y580978D01*
X90274Y580974D01*
X90241D01*
X90207Y580972D01*
X83567D01*
X83565Y580972D01*
X83563Y580972D01*
X83503Y580976D01*
X83434Y580980D01*
X83432Y580981D01*
X83430Y580981D01*
X83369Y580993D01*
X83303Y581007D01*
X83301Y581007D01*
X83300Y581007D01*
X83238Y581029D01*
X83177Y581049D01*
X83175Y581050D01*
X83174Y581051D01*
X83115Y581080D01*
X83058Y581108D01*
X83056Y581109D01*
X83054Y581110D01*
X83000Y581146D01*
X82947Y581182D01*
X82945Y581184D01*
X82944Y581185D01*
X82896Y581227D01*
X82847Y581270D01*
X82845Y581272D01*
X82844Y581273D01*
X82139Y581984D01*
X82130Y581857D01*
X82104Y581726D01*
X82062Y581600D01*
X82003Y581481D01*
X81929Y581370D01*
X81841Y581270D01*
X81741Y581182D01*
X81630Y581108D01*
X81510Y581049D01*
X81384Y581007D01*
X81254Y580980D01*
X81121Y580972D01*
X70169D01*
X70135Y580974D01*
X70102D01*
X70069Y580978D01*
X70036Y580980D01*
X70003Y580987D01*
X69970Y580991D01*
X69559Y581073D01*
X69527Y581082D01*
X69495Y581088D01*
X69463Y581099D01*
X69431Y581107D01*
X69400Y581120D01*
X69369Y581131D01*
X68982Y581291D01*
X68952Y581306D01*
X68921Y581319D01*
X68892Y581335D01*
X68862Y581350D01*
X68835Y581369D01*
X68806Y581385D01*
X68458Y581618D01*
X68431Y581638D01*
X68404Y581657D01*
X68378Y581679D01*
X68352Y581699D01*
X68329Y581722D01*
X68303Y581744D01*
X68007Y582040D01*
X67986Y582065D01*
X67962Y582089D01*
X67941Y582116D01*
X67920Y582141D01*
X67901Y582168D01*
X67881Y582195D01*
X67648Y582543D01*
X67632Y582572D01*
X67613Y582599D01*
X67598Y582629D01*
X67582Y582658D01*
X67569Y582689D01*
X67554Y582719D01*
X67394Y583106D01*
X67383Y583137D01*
X67371Y583168D01*
X67362Y583200D01*
X67351Y583232D01*
X67345Y583264D01*
X67336Y583297D01*
X67254Y583707D01*
X67250Y583740D01*
X67243Y583773D01*
X67241Y583806D01*
X67237Y583839D01*
Y583872D01*
X67235Y583906D01*
Y584115D01*
Y589365D01*
Y589574D01*
X67237Y589608D01*
Y589641D01*
X67241Y589674D01*
X67243Y589707D01*
X67250Y589740D01*
X67254Y589773D01*
X67336Y590183D01*
X67345Y590216D01*
X67351Y590248D01*
X67362Y590280D01*
X67371Y590312D01*
X67383Y590343D01*
X67394Y590374D01*
X67554Y590761D01*
X67569Y590791D01*
X67582Y590822D01*
X67598Y590851D01*
X67613Y590881D01*
X67632Y590908D01*
X67648Y590937D01*
X67881Y591285D01*
X67901Y591312D01*
X67920Y591339D01*
X67942Y591365D01*
X67962Y591391D01*
X67985Y591414D01*
X68007Y591440D01*
X68303Y591735D01*
X68328Y591757D01*
X68352Y591781D01*
X68379Y591801D01*
X68404Y591823D01*
X68431Y591842D01*
X68458Y591862D01*
X68806Y592095D01*
X68835Y592111D01*
X68862Y592130D01*
X68892Y592145D01*
X68921Y592161D01*
X68952Y592174D01*
X68982Y592189D01*
X69369Y592349D01*
X69400Y592360D01*
X69431Y592372D01*
X69463Y592381D01*
X69495Y592392D01*
X69527Y592398D01*
X69559Y592407D01*
X69970Y592489D01*
X70003Y592493D01*
X70036Y592500D01*
X70069Y592502D01*
X70102Y592506D01*
X70135D01*
X70169Y592508D01*
X70378D01*
X81075Y592508D01*
X81208Y592500D01*
D02*
G37*
G36*
X90442Y574726D02*
X90475D01*
X90508Y574722D01*
X90541Y574720D01*
X90574Y574713D01*
X90607Y574709D01*
X91018Y574627D01*
X91050Y574618D01*
X91082Y574612D01*
X91114Y574601D01*
X91146Y574592D01*
X91177Y574580D01*
X91208Y574569D01*
X91595Y574409D01*
X91625Y574394D01*
X91656Y574381D01*
X91685Y574365D01*
X91715Y574350D01*
X91742Y574331D01*
X91771Y574315D01*
X92119Y574082D01*
X92146Y574062D01*
X92174Y574043D01*
X92199Y574021D01*
X92225Y574001D01*
X92248Y573978D01*
X92274Y573955D01*
X92570Y573660D01*
X92591Y573635D01*
X92615Y573611D01*
X92635Y573584D01*
X92657Y573559D01*
X92676Y573532D01*
X92696Y573505D01*
X92929Y573157D01*
X92945Y573128D01*
X92964Y573101D01*
X92979Y573071D01*
X92995Y573042D01*
X93008Y573011D01*
X93023Y572981D01*
X93183Y572594D01*
X93194Y572563D01*
X93207Y572532D01*
X93215Y572500D01*
X93226Y572468D01*
X93232Y572436D01*
X93241Y572403D01*
X93323Y571993D01*
X93327Y571960D01*
X93334Y571927D01*
X93336Y571894D01*
X93340Y571861D01*
Y571828D01*
X93342Y571794D01*
Y571585D01*
Y566335D01*
Y566126D01*
X93340Y566092D01*
Y566059D01*
X93336Y566026D01*
X93334Y565993D01*
X93327Y565960D01*
X93323Y565927D01*
X93241Y565517D01*
X93232Y565484D01*
X93226Y565452D01*
X93215Y565420D01*
X93207Y565388D01*
X93194Y565357D01*
X93183Y565326D01*
X93023Y564939D01*
X93008Y564909D01*
X92995Y564878D01*
X92979Y564849D01*
X92964Y564819D01*
X92945Y564792D01*
X92929Y564763D01*
X92696Y564415D01*
X92676Y564388D01*
X92657Y564361D01*
X92635Y564335D01*
X92615Y564309D01*
X92592Y564286D01*
X92570Y564260D01*
X92274Y563965D01*
X92249Y563943D01*
X92225Y563919D01*
X92198Y563899D01*
X92174Y563877D01*
X92146Y563858D01*
X92119Y563838D01*
X91771Y563605D01*
X91742Y563589D01*
X91715Y563570D01*
X91685Y563555D01*
X91656Y563539D01*
X91625Y563526D01*
X91595Y563511D01*
X91208Y563351D01*
X91177Y563340D01*
X91146Y563327D01*
X91114Y563319D01*
X91082Y563308D01*
X91050Y563302D01*
X91018Y563293D01*
X90607Y563211D01*
X90574Y563207D01*
X90541Y563200D01*
X90508Y563198D01*
X90475Y563194D01*
X90442D01*
X90408Y563192D01*
X90199D01*
X79502Y563192D01*
X79369Y563200D01*
X79239Y563227D01*
X79113Y563269D01*
X78993Y563328D01*
X78882Y563402D01*
X78782Y563490D01*
X78694Y563590D01*
X78620Y563701D01*
X78562Y563820D01*
X78519Y563946D01*
X78493Y564077D01*
X78484Y564210D01*
X78487Y564252D01*
X77733Y563493D01*
X77731Y563492D01*
X77730Y563490D01*
X77683Y563448D01*
X77633Y563405D01*
X77632Y563404D01*
X77630Y563402D01*
X77578Y563367D01*
X77523Y563330D01*
X77521Y563329D01*
X77519Y563328D01*
X77463Y563301D01*
X77403Y563271D01*
X77402Y563270D01*
X77400Y563269D01*
X77339Y563249D01*
X77277Y563228D01*
X77276Y563227D01*
X77274Y563227D01*
X77211Y563214D01*
X77147Y563201D01*
X77145Y563201D01*
X77143Y563200D01*
X77080Y563196D01*
X77014Y563192D01*
X77012Y563192D01*
X77010Y563192D01*
X70370D01*
X70336Y563194D01*
X70303D01*
X70270Y563198D01*
X70237Y563200D01*
X70204Y563207D01*
X70171Y563211D01*
X69760Y563293D01*
X69728Y563302D01*
X69696Y563308D01*
X69664Y563319D01*
X69632Y563327D01*
X69601Y563340D01*
X69570Y563351D01*
X69183Y563511D01*
X69153Y563526D01*
X69122Y563539D01*
X69093Y563555D01*
X69063Y563570D01*
X69036Y563589D01*
X69007Y563605D01*
X68659Y563838D01*
X68632Y563858D01*
X68605Y563877D01*
X68580Y563899D01*
X68553Y563919D01*
X68530Y563942D01*
X68505Y563965D01*
X68208Y564260D01*
X68187Y564285D01*
X68163Y564309D01*
X68143Y564336D01*
X68121Y564361D01*
X68102Y564388D01*
X68082Y564415D01*
X67849Y564763D01*
X67833Y564792D01*
X67814Y564819D01*
X67799Y564849D01*
X67783Y564878D01*
X67770Y564909D01*
X67755Y564939D01*
X67595Y565326D01*
X67584Y565357D01*
X67572Y565388D01*
X67563Y565420D01*
X67552Y565452D01*
X67546Y565484D01*
X67537Y565517D01*
X67455Y565927D01*
X67451Y565960D01*
X67445Y565993D01*
X67442Y566026D01*
X67438Y566059D01*
Y566092D01*
X67436Y566126D01*
Y566335D01*
Y571585D01*
Y571794D01*
X67438Y571828D01*
Y571861D01*
X67442Y571894D01*
X67445Y571927D01*
X67451Y571960D01*
X67455Y571993D01*
X67537Y572403D01*
X67546Y572436D01*
X67552Y572468D01*
X67563Y572500D01*
X67572Y572532D01*
X67584Y572563D01*
X67595Y572594D01*
X67755Y572981D01*
X67770Y573011D01*
X67783Y573042D01*
X67799Y573071D01*
X67814Y573101D01*
X67833Y573128D01*
X67849Y573157D01*
X68082Y573505D01*
X68102Y573532D01*
X68121Y573559D01*
X68143Y573585D01*
X68163Y573611D01*
X68186Y573634D01*
X68208Y573660D01*
X68505Y573955D01*
X68530Y573977D01*
X68553Y574001D01*
X68580Y574021D01*
X68605Y574043D01*
X68632Y574062D01*
X68659Y574082D01*
X69007Y574315D01*
X69036Y574331D01*
X69063Y574350D01*
X69093Y574365D01*
X69122Y574381D01*
X69153Y574394D01*
X69183Y574409D01*
X69570Y574569D01*
X69601Y574580D01*
X69632Y574592D01*
X69664Y574601D01*
X69696Y574612D01*
X69728Y574618D01*
X69760Y574627D01*
X70171Y574709D01*
X70204Y574713D01*
X70237Y574720D01*
X70270Y574722D01*
X70303Y574726D01*
X70336D01*
X70370Y574728D01*
X77010D01*
X77012Y574728D01*
X77014Y574728D01*
X77074Y574724D01*
X77143Y574720D01*
X77145Y574719D01*
X77147Y574719D01*
X77208Y574707D01*
X77274Y574693D01*
X77276Y574693D01*
X77277Y574692D01*
X77339Y574671D01*
X77400Y574651D01*
X77402Y574650D01*
X77403Y574649D01*
X77462Y574620D01*
X77519Y574592D01*
X77521Y574591D01*
X77523Y574590D01*
X77576Y574554D01*
X77630Y574518D01*
X77632Y574516D01*
X77633Y574515D01*
X77681Y574473D01*
X77730Y574430D01*
X77731Y574428D01*
X77733Y574427D01*
X78438Y573716D01*
X78447Y573843D01*
X78473Y573974D01*
X78516Y574100D01*
X78574Y574219D01*
X78648Y574330D01*
X78736Y574430D01*
X78836Y574518D01*
X78947Y574592D01*
X79067Y574651D01*
X79193Y574693D01*
X79323Y574720D01*
X79456Y574728D01*
X90408D01*
X90442Y574726D01*
D02*
G37*
G36*
X120465Y574720D02*
X120595Y574693D01*
X120722Y574651D01*
X120841Y574592D01*
X120952Y574518D01*
X121052Y574430D01*
X121140Y574330D01*
X121214Y574219D01*
X121273Y574100D01*
X121315Y573974D01*
X121341Y573843D01*
X121350Y573710D01*
X121347Y573668D01*
X122101Y574427D01*
X122103Y574428D01*
X122104Y574430D01*
X122151Y574472D01*
X122201Y574515D01*
X122203Y574516D01*
X122204Y574518D01*
X122256Y574553D01*
X122311Y574590D01*
X122313Y574591D01*
X122315Y574592D01*
X122371Y574619D01*
X122431Y574649D01*
X122432Y574650D01*
X122434Y574651D01*
X122495Y574671D01*
X122556Y574692D01*
X122558Y574693D01*
X122560Y574693D01*
X122623Y574706D01*
X122687Y574719D01*
X122689Y574719D01*
X122691Y574720D01*
X122753Y574724D01*
X122820Y574728D01*
X122822Y574728D01*
X122824Y574728D01*
X129464D01*
X129498Y574726D01*
X129531D01*
X129564Y574722D01*
X129597Y574720D01*
X129630Y574713D01*
X129663Y574709D01*
X130073Y574627D01*
X130106Y574618D01*
X130138Y574612D01*
X130170Y574601D01*
X130202Y574592D01*
X130233Y574580D01*
X130265Y574569D01*
X130651Y574409D01*
X130681Y574394D01*
X130712Y574381D01*
X130741Y574365D01*
X130771Y574350D01*
X130798Y574331D01*
X130827Y574315D01*
X131175Y574082D01*
X131202Y574062D01*
X131229Y574043D01*
X131255Y574021D01*
X131281Y574001D01*
X131304Y573978D01*
X131330Y573955D01*
X131625Y573660D01*
X131647Y573635D01*
X131671Y573611D01*
X131692Y573584D01*
X131713Y573559D01*
X131732Y573532D01*
X131752Y573505D01*
X131985Y573157D01*
X132001Y573128D01*
X132020Y573101D01*
X132035Y573071D01*
X132051Y573042D01*
X132064Y573011D01*
X132079Y572981D01*
X132239Y572594D01*
X132250Y572563D01*
X132262Y572532D01*
X132271Y572500D01*
X132282Y572468D01*
X132288Y572436D01*
X132297Y572403D01*
X132379Y571993D01*
X132383Y571960D01*
X132389Y571927D01*
X132392Y571894D01*
X132396Y571861D01*
Y571828D01*
X132398Y571794D01*
Y571585D01*
Y566335D01*
Y566126D01*
X132396Y566092D01*
Y566059D01*
X132392Y566026D01*
X132389Y565993D01*
X132383Y565960D01*
X132379Y565927D01*
X132297Y565517D01*
X132288Y565484D01*
X132282Y565452D01*
X132271Y565420D01*
X132262Y565388D01*
X132250Y565357D01*
X132239Y565326D01*
X132079Y564939D01*
X132064Y564909D01*
X132051Y564878D01*
X132035Y564849D01*
X132020Y564819D01*
X132001Y564792D01*
X131985Y564763D01*
X131752Y564415D01*
X131732Y564388D01*
X131713Y564361D01*
X131691Y564335D01*
X131671Y564309D01*
X131648Y564286D01*
X131625Y564260D01*
X131330Y563965D01*
X131305Y563943D01*
X131281Y563919D01*
X131254Y563899D01*
X131229Y563877D01*
X131202Y563858D01*
X131175Y563838D01*
X130827Y563605D01*
X130798Y563589D01*
X130771Y563570D01*
X130741Y563555D01*
X130712Y563539D01*
X130681Y563526D01*
X130651Y563511D01*
X130264Y563351D01*
X130233Y563340D01*
X130202Y563327D01*
X130170Y563319D01*
X130138Y563308D01*
X130106Y563302D01*
X130073Y563293D01*
X129663Y563211D01*
X129630Y563207D01*
X129597Y563200D01*
X129564Y563198D01*
X129531Y563194D01*
X129498D01*
X129464Y563192D01*
X122824D01*
X122822Y563192D01*
X122820Y563192D01*
X122760Y563196D01*
X122691Y563200D01*
X122689Y563201D01*
X122687Y563201D01*
X122626Y563213D01*
X122560Y563227D01*
X122558Y563227D01*
X122556Y563228D01*
X122495Y563249D01*
X122434Y563269D01*
X122432Y563270D01*
X122431Y563271D01*
X122372Y563300D01*
X122315Y563328D01*
X122313Y563329D01*
X122311Y563330D01*
X122258Y563366D01*
X122204Y563402D01*
X122203Y563404D01*
X122201Y563405D01*
X122153Y563447D01*
X122104Y563490D01*
X122102Y563492D01*
X122101Y563493D01*
X121396Y564204D01*
X121387Y564077D01*
X121361Y563946D01*
X121319Y563820D01*
X121260Y563701D01*
X121186Y563590D01*
X121098Y563490D01*
X120998Y563402D01*
X120887Y563328D01*
X120767Y563269D01*
X120641Y563227D01*
X120511Y563200D01*
X120378Y563192D01*
X109426D01*
X109392Y563194D01*
X109359D01*
X109326Y563198D01*
X109293Y563200D01*
X109260Y563207D01*
X109227Y563211D01*
X108816Y563293D01*
X108784Y563302D01*
X108752Y563308D01*
X108720Y563319D01*
X108688Y563327D01*
X108657Y563340D01*
X108625Y563351D01*
X108239Y563511D01*
X108209Y563526D01*
X108178Y563539D01*
X108149Y563555D01*
X108119Y563570D01*
X108092Y563589D01*
X108063Y563605D01*
X107715Y563838D01*
X107688Y563858D01*
X107661Y563877D01*
X107635Y563899D01*
X107609Y563919D01*
X107586Y563942D01*
X107560Y563965D01*
X107264Y564260D01*
X107243Y564285D01*
X107219Y564309D01*
X107198Y564336D01*
X107177Y564361D01*
X107158Y564388D01*
X107138Y564415D01*
X106905Y564763D01*
X106889Y564792D01*
X106870Y564819D01*
X106855Y564849D01*
X106839Y564878D01*
X106826Y564909D01*
X106811Y564939D01*
X106651Y565326D01*
X106640Y565357D01*
X106628Y565388D01*
X106619Y565420D01*
X106608Y565452D01*
X106602Y565484D01*
X106593Y565517D01*
X106511Y565927D01*
X106507Y565960D01*
X106501Y565993D01*
X106498Y566026D01*
X106494Y566059D01*
Y566092D01*
X106492Y566126D01*
Y566335D01*
Y571585D01*
Y571794D01*
X106494Y571828D01*
Y571861D01*
X106498Y571894D01*
X106501Y571927D01*
X106507Y571960D01*
X106511Y571993D01*
X106593Y572403D01*
X106602Y572436D01*
X106608Y572468D01*
X106619Y572500D01*
X106628Y572532D01*
X106640Y572563D01*
X106651Y572594D01*
X106811Y572981D01*
X106826Y573011D01*
X106839Y573042D01*
X106855Y573071D01*
X106870Y573101D01*
X106889Y573128D01*
X106905Y573157D01*
X107138Y573505D01*
X107158Y573532D01*
X107177Y573559D01*
X107199Y573585D01*
X107219Y573611D01*
X107242Y573634D01*
X107264Y573660D01*
X107560Y573955D01*
X107585Y573977D01*
X107609Y574001D01*
X107636Y574021D01*
X107661Y574043D01*
X107688Y574062D01*
X107715Y574082D01*
X108063Y574315D01*
X108092Y574331D01*
X108119Y574350D01*
X108149Y574365D01*
X108178Y574381D01*
X108209Y574394D01*
X108239Y574409D01*
X108626Y574569D01*
X108657Y574580D01*
X108688Y574592D01*
X108720Y574601D01*
X108752Y574612D01*
X108784Y574618D01*
X108816Y574627D01*
X109227Y574709D01*
X109260Y574713D01*
X109293Y574720D01*
X109326Y574722D01*
X109359Y574726D01*
X109392D01*
X109426Y574728D01*
X109635D01*
X120332Y574728D01*
X120465Y574720D01*
D02*
G37*
G36*
X81208Y493197D02*
X81338Y493171D01*
X81465Y493128D01*
X81584Y493069D01*
X81695Y492995D01*
X81795Y492907D01*
X81883Y492807D01*
X81957Y492696D01*
X82016Y492577D01*
X82058Y492451D01*
X82084Y492320D01*
X82093Y492187D01*
X82090Y492145D01*
X82844Y492905D01*
X82846Y492906D01*
X82847Y492907D01*
X82894Y492949D01*
X82944Y492993D01*
X82946Y492994D01*
X82947Y492995D01*
X82999Y493030D01*
X83054Y493067D01*
X83056Y493068D01*
X83058Y493069D01*
X83113Y493097D01*
X83174Y493126D01*
X83175Y493127D01*
X83177Y493128D01*
X83238Y493149D01*
X83300Y493170D01*
X83301Y493170D01*
X83303Y493171D01*
X83366Y493183D01*
X83430Y493196D01*
X83432Y493196D01*
X83434Y493197D01*
X83497Y493201D01*
X83563Y493205D01*
X83565Y493205D01*
X83567Y493205D01*
X90207D01*
X90241Y493203D01*
X90274D01*
X90307Y493199D01*
X90340Y493197D01*
X90373Y493190D01*
X90406Y493186D01*
X90816Y493104D01*
X90849Y493096D01*
X90881Y493089D01*
X90913Y493078D01*
X90945Y493070D01*
X90976Y493057D01*
X91007Y493046D01*
X91394Y492886D01*
X91424Y492871D01*
X91455Y492859D01*
X91484Y492842D01*
X91514Y492827D01*
X91541Y492809D01*
X91570Y492792D01*
X91918Y492559D01*
X91945Y492539D01*
X91972Y492521D01*
X91997Y492499D01*
X92024Y492478D01*
X92047Y492455D01*
X92072Y492433D01*
X92368Y492137D01*
X92390Y492112D01*
X92414Y492088D01*
X92435Y492062D01*
X92456Y492037D01*
X92475Y492009D01*
X92495Y491982D01*
X92728Y491634D01*
X92744Y491606D01*
X92763Y491578D01*
X92778Y491548D01*
X92794Y491519D01*
X92807Y491488D01*
X92822Y491458D01*
X92982Y491072D01*
X92993Y491040D01*
X93005Y491009D01*
X93014Y490977D01*
X93025Y490946D01*
X93031Y490913D01*
X93040Y490881D01*
X93122Y490470D01*
X93126Y490437D01*
X93132Y490404D01*
X93135Y490371D01*
X93139Y490338D01*
Y490305D01*
X93141Y490271D01*
Y490062D01*
Y484812D01*
Y484603D01*
X93139Y484570D01*
Y484536D01*
X93135Y484503D01*
X93132Y484470D01*
X93126Y484437D01*
X93122Y484404D01*
X93040Y483994D01*
X93031Y483962D01*
X93025Y483929D01*
X93014Y483897D01*
X93005Y483865D01*
X92993Y483834D01*
X92982Y483803D01*
X92822Y483416D01*
X92807Y483386D01*
X92794Y483355D01*
X92778Y483326D01*
X92763Y483297D01*
X92744Y483269D01*
X92728Y483240D01*
X92495Y482892D01*
X92475Y482866D01*
X92456Y482838D01*
X92434Y482813D01*
X92414Y482786D01*
X92391Y482763D01*
X92368Y482738D01*
X92072Y482442D01*
X92048Y482420D01*
X92024Y482396D01*
X91997Y482376D01*
X91972Y482354D01*
X91945Y482336D01*
X91918Y482315D01*
X91570Y482082D01*
X91541Y482066D01*
X91514Y482047D01*
X91484Y482033D01*
X91455Y482016D01*
X91424Y482003D01*
X91394Y481988D01*
X91007Y481828D01*
X90976Y481818D01*
X90945Y481805D01*
X90913Y481796D01*
X90881Y481785D01*
X90849Y481779D01*
X90816Y481770D01*
X90406Y481689D01*
X90373Y481684D01*
X90340Y481678D01*
X90307Y481676D01*
X90274Y481671D01*
X90241D01*
X90207Y481669D01*
X83567D01*
X83565Y481669D01*
X83563Y481669D01*
X83503Y481673D01*
X83434Y481678D01*
X83432Y481678D01*
X83430Y481678D01*
X83369Y481691D01*
X83303Y481704D01*
X83301Y481704D01*
X83300Y481705D01*
X83238Y481726D01*
X83177Y481747D01*
X83175Y481747D01*
X83174Y481748D01*
X83115Y481777D01*
X83058Y481805D01*
X83056Y481807D01*
X83054Y481807D01*
X83000Y481844D01*
X82947Y481880D01*
X82945Y481881D01*
X82944Y481882D01*
X82896Y481924D01*
X82847Y481967D01*
X82845Y481969D01*
X82844Y481970D01*
X82139Y482681D01*
X82130Y482554D01*
X82104Y482424D01*
X82062Y482298D01*
X82003Y482178D01*
X81929Y482067D01*
X81841Y481967D01*
X81741Y481880D01*
X81630Y481805D01*
X81510Y481747D01*
X81384Y481704D01*
X81254Y481678D01*
X81121Y481669D01*
X70169D01*
X70135Y481671D01*
X70102D01*
X70069Y481676D01*
X70036Y481678D01*
X70003Y481684D01*
X69970Y481689D01*
X69559Y481770D01*
X69527Y481779D01*
X69495Y481785D01*
X69463Y481796D01*
X69431Y481805D01*
X69400Y481818D01*
X69369Y481828D01*
X68982Y481988D01*
X68952Y482003D01*
X68921Y482016D01*
X68892Y482033D01*
X68862Y482047D01*
X68835Y482066D01*
X68806Y482082D01*
X68458Y482315D01*
X68431Y482335D01*
X68404Y482354D01*
X68378Y482376D01*
X68352Y482396D01*
X68329Y482420D01*
X68303Y482442D01*
X68007Y482738D01*
X67986Y482763D01*
X67962Y482786D01*
X67941Y482813D01*
X67920Y482838D01*
X67901Y482865D01*
X67881Y482892D01*
X67648Y483240D01*
X67632Y483269D01*
X67613Y483297D01*
X67598Y483326D01*
X67582Y483355D01*
X67569Y483386D01*
X67554Y483416D01*
X67394Y483803D01*
X67383Y483834D01*
X67371Y483865D01*
X67362Y483897D01*
X67351Y483929D01*
X67345Y483962D01*
X67336Y483994D01*
X67254Y484404D01*
X67250Y484437D01*
X67243Y484470D01*
X67241Y484503D01*
X67237Y484536D01*
Y484570D01*
X67235Y484603D01*
Y484812D01*
Y490062D01*
Y490271D01*
X67237Y490305D01*
Y490338D01*
X67241Y490371D01*
X67243Y490404D01*
X67250Y490437D01*
X67254Y490470D01*
X67336Y490881D01*
X67345Y490913D01*
X67351Y490946D01*
X67362Y490977D01*
X67371Y491009D01*
X67383Y491040D01*
X67394Y491072D01*
X67554Y491458D01*
X67569Y491488D01*
X67582Y491519D01*
X67598Y491548D01*
X67613Y491578D01*
X67632Y491606D01*
X67648Y491634D01*
X67881Y491982D01*
X67901Y492009D01*
X67920Y492037D01*
X67942Y492062D01*
X67962Y492088D01*
X67985Y492112D01*
X68007Y492137D01*
X68303Y492433D01*
X68328Y492455D01*
X68352Y492478D01*
X68379Y492499D01*
X68404Y492521D01*
X68431Y492539D01*
X68458Y492559D01*
X68806Y492792D01*
X68835Y492809D01*
X68862Y492827D01*
X68892Y492842D01*
X68921Y492859D01*
X68952Y492871D01*
X68982Y492886D01*
X69369Y493046D01*
X69400Y493057D01*
X69431Y493070D01*
X69463Y493078D01*
X69495Y493089D01*
X69527Y493096D01*
X69559Y493104D01*
X69970Y493186D01*
X70003Y493190D01*
X70036Y493197D01*
X70069Y493199D01*
X70102Y493203D01*
X70135D01*
X70169Y493205D01*
X70378D01*
X81075Y493205D01*
X81208Y493197D01*
D02*
G37*
G36*
Y393110D02*
X81338Y393083D01*
X81465Y393041D01*
X81584Y392982D01*
X81695Y392908D01*
X81795Y392820D01*
X81883Y392720D01*
X81957Y392609D01*
X82016Y392490D01*
X82058Y392364D01*
X82084Y392233D01*
X82093Y392100D01*
X82090Y392058D01*
X82844Y392817D01*
X82846Y392818D01*
X82847Y392820D01*
X82894Y392862D01*
X82944Y392905D01*
X82946Y392906D01*
X82947Y392908D01*
X82999Y392943D01*
X83054Y392980D01*
X83056Y392981D01*
X83058Y392982D01*
X83113Y393009D01*
X83174Y393039D01*
X83175Y393040D01*
X83177Y393041D01*
X83238Y393061D01*
X83300Y393083D01*
X83301Y393083D01*
X83303Y393083D01*
X83366Y393096D01*
X83430Y393109D01*
X83432Y393109D01*
X83434Y393110D01*
X83497Y393114D01*
X83563Y393118D01*
X83565Y393118D01*
X83567Y393118D01*
X90207D01*
X90241Y393116D01*
X90274D01*
X90307Y393112D01*
X90340Y393110D01*
X90373Y393103D01*
X90406Y393099D01*
X90816Y393017D01*
X90849Y393008D01*
X90881Y393002D01*
X90913Y392991D01*
X90945Y392982D01*
X90976Y392970D01*
X91007Y392959D01*
X91394Y392799D01*
X91424Y392784D01*
X91455Y392771D01*
X91484Y392755D01*
X91514Y392740D01*
X91541Y392721D01*
X91570Y392705D01*
X91918Y392472D01*
X91945Y392452D01*
X91972Y392433D01*
X91997Y392411D01*
X92024Y392391D01*
X92047Y392368D01*
X92072Y392346D01*
X92368Y392050D01*
X92390Y392025D01*
X92414Y392001D01*
X92435Y391974D01*
X92456Y391949D01*
X92475Y391922D01*
X92495Y391895D01*
X92728Y391547D01*
X92744Y391518D01*
X92763Y391491D01*
X92778Y391461D01*
X92794Y391432D01*
X92807Y391401D01*
X92822Y391371D01*
X92982Y390984D01*
X92993Y390953D01*
X93005Y390922D01*
X93014Y390890D01*
X93025Y390858D01*
X93031Y390826D01*
X93040Y390793D01*
X93122Y390383D01*
X93126Y390350D01*
X93132Y390317D01*
X93135Y390284D01*
X93139Y390251D01*
Y390218D01*
X93141Y390184D01*
Y389975D01*
Y384725D01*
Y384516D01*
X93139Y384482D01*
Y384449D01*
X93135Y384416D01*
X93132Y384383D01*
X93126Y384350D01*
X93122Y384317D01*
X93040Y383907D01*
X93031Y383874D01*
X93025Y383842D01*
X93014Y383810D01*
X93005Y383778D01*
X92993Y383747D01*
X92982Y383716D01*
X92822Y383329D01*
X92807Y383299D01*
X92794Y383268D01*
X92778Y383239D01*
X92763Y383209D01*
X92744Y383182D01*
X92728Y383153D01*
X92495Y382805D01*
X92475Y382778D01*
X92456Y382751D01*
X92434Y382725D01*
X92414Y382699D01*
X92391Y382676D01*
X92368Y382650D01*
X92072Y382355D01*
X92048Y382333D01*
X92024Y382309D01*
X91997Y382289D01*
X91972Y382267D01*
X91945Y382248D01*
X91918Y382228D01*
X91570Y381995D01*
X91541Y381979D01*
X91514Y381960D01*
X91484Y381945D01*
X91455Y381929D01*
X91424Y381916D01*
X91394Y381901D01*
X91007Y381741D01*
X90976Y381730D01*
X90945Y381717D01*
X90913Y381709D01*
X90881Y381698D01*
X90849Y381692D01*
X90816Y381683D01*
X90406Y381601D01*
X90373Y381597D01*
X90340Y381590D01*
X90307Y381588D01*
X90274Y381584D01*
X90241D01*
X90207Y381582D01*
X83567D01*
X83565Y381582D01*
X83563Y381582D01*
X83503Y381586D01*
X83434Y381590D01*
X83432Y381591D01*
X83430Y381591D01*
X83369Y381603D01*
X83303Y381617D01*
X83301Y381617D01*
X83300Y381618D01*
X83238Y381639D01*
X83177Y381659D01*
X83175Y381660D01*
X83174Y381661D01*
X83115Y381690D01*
X83058Y381718D01*
X83056Y381719D01*
X83054Y381720D01*
X83000Y381756D01*
X82947Y381792D01*
X82945Y381794D01*
X82944Y381795D01*
X82896Y381837D01*
X82847Y381880D01*
X82845Y381882D01*
X82844Y381883D01*
X82139Y382594D01*
X82130Y382467D01*
X82104Y382337D01*
X82062Y382210D01*
X82003Y382091D01*
X81929Y381980D01*
X81841Y381880D01*
X81741Y381792D01*
X81630Y381718D01*
X81510Y381659D01*
X81384Y381617D01*
X81254Y381590D01*
X81121Y381582D01*
X70169D01*
X70135Y381584D01*
X70102D01*
X70069Y381588D01*
X70036Y381590D01*
X70003Y381597D01*
X69970Y381601D01*
X69559Y381683D01*
X69527Y381692D01*
X69495Y381698D01*
X69463Y381709D01*
X69431Y381717D01*
X69400Y381730D01*
X69369Y381741D01*
X68982Y381901D01*
X68952Y381916D01*
X68921Y381929D01*
X68892Y381945D01*
X68862Y381960D01*
X68835Y381979D01*
X68806Y381995D01*
X68458Y382228D01*
X68431Y382248D01*
X68404Y382267D01*
X68378Y382289D01*
X68352Y382309D01*
X68329Y382332D01*
X68303Y382355D01*
X68007Y382650D01*
X67986Y382675D01*
X67962Y382699D01*
X67941Y382726D01*
X67920Y382751D01*
X67901Y382778D01*
X67881Y382805D01*
X67648Y383153D01*
X67632Y383182D01*
X67613Y383209D01*
X67598Y383239D01*
X67582Y383268D01*
X67569Y383299D01*
X67554Y383329D01*
X67394Y383716D01*
X67383Y383747D01*
X67371Y383778D01*
X67362Y383810D01*
X67351Y383842D01*
X67345Y383874D01*
X67336Y383907D01*
X67254Y384317D01*
X67250Y384350D01*
X67243Y384383D01*
X67241Y384416D01*
X67237Y384449D01*
Y384482D01*
X67235Y384516D01*
Y384725D01*
Y389975D01*
Y390184D01*
X67237Y390218D01*
Y390251D01*
X67241Y390284D01*
X67243Y390317D01*
X67250Y390350D01*
X67254Y390383D01*
X67336Y390793D01*
X67345Y390826D01*
X67351Y390858D01*
X67362Y390890D01*
X67371Y390922D01*
X67383Y390953D01*
X67394Y390984D01*
X67554Y391371D01*
X67569Y391401D01*
X67582Y391432D01*
X67598Y391461D01*
X67613Y391491D01*
X67632Y391518D01*
X67648Y391547D01*
X67881Y391895D01*
X67901Y391922D01*
X67920Y391949D01*
X67942Y391975D01*
X67962Y392001D01*
X67985Y392024D01*
X68007Y392050D01*
X68303Y392346D01*
X68328Y392367D01*
X68352Y392391D01*
X68379Y392411D01*
X68404Y392433D01*
X68431Y392452D01*
X68458Y392472D01*
X68806Y392705D01*
X68835Y392721D01*
X68862Y392740D01*
X68892Y392755D01*
X68921Y392771D01*
X68952Y392784D01*
X68982Y392799D01*
X69369Y392959D01*
X69400Y392970D01*
X69431Y392982D01*
X69463Y392991D01*
X69495Y393002D01*
X69527Y393008D01*
X69559Y393017D01*
X69970Y393099D01*
X70003Y393103D01*
X70036Y393110D01*
X70069Y393112D01*
X70102Y393116D01*
X70135D01*
X70169Y393118D01*
X70378D01*
X81075Y393118D01*
X81208Y393110D01*
D02*
G37*
G36*
Y300479D02*
X81338Y300453D01*
X81465Y300410D01*
X81584Y300352D01*
X81695Y300278D01*
X81795Y300190D01*
X81883Y300090D01*
X81957Y299979D01*
X82016Y299860D01*
X82058Y299733D01*
X82084Y299603D01*
X82093Y299470D01*
X82090Y299427D01*
X82844Y300187D01*
X82846Y300188D01*
X82847Y300190D01*
X82894Y300231D01*
X82944Y300275D01*
X82946Y300276D01*
X82947Y300278D01*
X82999Y300312D01*
X83054Y300350D01*
X83056Y300350D01*
X83058Y300352D01*
X83113Y300379D01*
X83174Y300409D01*
X83175Y300410D01*
X83177Y300410D01*
X83238Y300431D01*
X83300Y300452D01*
X83301Y300453D01*
X83303Y300453D01*
X83366Y300466D01*
X83430Y300479D01*
X83432Y300479D01*
X83434Y300479D01*
X83497Y300483D01*
X83563Y300488D01*
X83565Y300488D01*
X83567Y300488D01*
X90207D01*
X90241Y300486D01*
X90274D01*
X90307Y300481D01*
X90340Y300479D01*
X90373Y300473D01*
X90406Y300468D01*
X90816Y300387D01*
X90849Y300378D01*
X90881Y300372D01*
X90913Y300361D01*
X90945Y300352D01*
X90976Y300340D01*
X91007Y300329D01*
X91394Y300169D01*
X91424Y300154D01*
X91455Y300141D01*
X91484Y300124D01*
X91514Y300110D01*
X91541Y300091D01*
X91570Y300075D01*
X91918Y299842D01*
X91945Y299822D01*
X91972Y299803D01*
X91997Y299781D01*
X92024Y299761D01*
X92047Y299737D01*
X92072Y299715D01*
X92368Y299419D01*
X92390Y299394D01*
X92414Y299371D01*
X92435Y299344D01*
X92456Y299319D01*
X92475Y299292D01*
X92495Y299265D01*
X92728Y298917D01*
X92744Y298888D01*
X92763Y298860D01*
X92778Y298831D01*
X92794Y298802D01*
X92807Y298771D01*
X92822Y298741D01*
X92982Y298354D01*
X92993Y298323D01*
X93005Y298292D01*
X93014Y298260D01*
X93025Y298228D01*
X93031Y298195D01*
X93040Y298163D01*
X93122Y297753D01*
X93126Y297720D01*
X93132Y297687D01*
X93135Y297654D01*
X93139Y297621D01*
Y297587D01*
X93141Y297554D01*
Y297345D01*
Y292095D01*
Y291886D01*
X93139Y291852D01*
Y291819D01*
X93135Y291786D01*
X93132Y291753D01*
X93126Y291720D01*
X93122Y291687D01*
X93040Y291276D01*
X93031Y291244D01*
X93025Y291211D01*
X93014Y291180D01*
X93005Y291148D01*
X92993Y291117D01*
X92982Y291085D01*
X92822Y290699D01*
X92807Y290669D01*
X92794Y290638D01*
X92778Y290609D01*
X92763Y290579D01*
X92744Y290551D01*
X92728Y290523D01*
X92495Y290175D01*
X92475Y290148D01*
X92456Y290120D01*
X92434Y290095D01*
X92414Y290069D01*
X92391Y290045D01*
X92368Y290020D01*
X92072Y289724D01*
X92048Y289702D01*
X92024Y289679D01*
X91997Y289658D01*
X91972Y289636D01*
X91945Y289618D01*
X91918Y289598D01*
X91570Y289365D01*
X91541Y289348D01*
X91514Y289330D01*
X91484Y289315D01*
X91455Y289298D01*
X91424Y289286D01*
X91394Y289271D01*
X91007Y289111D01*
X90976Y289100D01*
X90945Y289087D01*
X90913Y289079D01*
X90881Y289068D01*
X90849Y289062D01*
X90816Y289053D01*
X90406Y288971D01*
X90373Y288967D01*
X90340Y288960D01*
X90307Y288958D01*
X90274Y288954D01*
X90241D01*
X90207Y288952D01*
X83567D01*
X83565Y288952D01*
X83563Y288952D01*
X83503Y288956D01*
X83434Y288960D01*
X83432Y288961D01*
X83430Y288961D01*
X83369Y288973D01*
X83303Y288986D01*
X83301Y288987D01*
X83300Y288987D01*
X83238Y289008D01*
X83177Y289029D01*
X83175Y289030D01*
X83174Y289031D01*
X83115Y289060D01*
X83058Y289088D01*
X83056Y289089D01*
X83054Y289090D01*
X83000Y289126D01*
X82947Y289162D01*
X82945Y289163D01*
X82944Y289164D01*
X82896Y289206D01*
X82847Y289250D01*
X82845Y289251D01*
X82844Y289253D01*
X82139Y289963D01*
X82130Y289837D01*
X82104Y289706D01*
X82062Y289580D01*
X82003Y289461D01*
X81929Y289350D01*
X81841Y289250D01*
X81741Y289162D01*
X81630Y289088D01*
X81510Y289029D01*
X81384Y288986D01*
X81254Y288960D01*
X81121Y288952D01*
X70169D01*
X70135Y288954D01*
X70102D01*
X70069Y288958D01*
X70036Y288960D01*
X70003Y288967D01*
X69970Y288971D01*
X69559Y289053D01*
X69527Y289061D01*
X69495Y289068D01*
X69463Y289079D01*
X69431Y289087D01*
X69400Y289100D01*
X69369Y289111D01*
X68982Y289271D01*
X68952Y289286D01*
X68921Y289298D01*
X68892Y289315D01*
X68862Y289330D01*
X68835Y289348D01*
X68806Y289365D01*
X68458Y289598D01*
X68431Y289618D01*
X68404Y289636D01*
X68378Y289659D01*
X68352Y289679D01*
X68329Y289702D01*
X68303Y289724D01*
X68007Y290020D01*
X67986Y290045D01*
X67962Y290069D01*
X67941Y290095D01*
X67920Y290120D01*
X67901Y290148D01*
X67881Y290175D01*
X67648Y290523D01*
X67632Y290551D01*
X67613Y290579D01*
X67598Y290609D01*
X67582Y290638D01*
X67569Y290669D01*
X67554Y290699D01*
X67394Y291085D01*
X67383Y291117D01*
X67371Y291148D01*
X67362Y291180D01*
X67351Y291211D01*
X67345Y291244D01*
X67336Y291276D01*
X67254Y291687D01*
X67250Y291720D01*
X67243Y291753D01*
X67241Y291786D01*
X67237Y291819D01*
Y291852D01*
X67235Y291886D01*
Y292095D01*
Y297345D01*
Y297554D01*
X67237Y297587D01*
Y297621D01*
X67241Y297654D01*
X67243Y297687D01*
X67250Y297720D01*
X67254Y297753D01*
X67336Y298163D01*
X67345Y298195D01*
X67351Y298228D01*
X67362Y298260D01*
X67371Y298292D01*
X67383Y298323D01*
X67394Y298354D01*
X67554Y298741D01*
X67569Y298771D01*
X67582Y298802D01*
X67598Y298831D01*
X67613Y298860D01*
X67632Y298888D01*
X67648Y298917D01*
X67881Y299265D01*
X67901Y299291D01*
X67920Y299319D01*
X67942Y299344D01*
X67962Y299371D01*
X67985Y299394D01*
X68007Y299419D01*
X68303Y299715D01*
X68328Y299737D01*
X68352Y299761D01*
X68379Y299781D01*
X68404Y299803D01*
X68431Y299821D01*
X68458Y299842D01*
X68806Y300075D01*
X68835Y300091D01*
X68862Y300110D01*
X68892Y300124D01*
X68921Y300141D01*
X68952Y300154D01*
X68982Y300169D01*
X69369Y300329D01*
X69400Y300340D01*
X69431Y300352D01*
X69463Y300361D01*
X69495Y300372D01*
X69527Y300378D01*
X69559Y300387D01*
X69970Y300468D01*
X70003Y300473D01*
X70036Y300479D01*
X70069Y300481D01*
X70102Y300486D01*
X70135D01*
X70169Y300488D01*
X70378D01*
X81075Y300488D01*
X81208Y300479D01*
D02*
G37*
G36*
Y205229D02*
X81338Y205203D01*
X81465Y205161D01*
X81584Y205102D01*
X81695Y205028D01*
X81795Y204940D01*
X81883Y204840D01*
X81957Y204729D01*
X82016Y204610D01*
X82058Y204483D01*
X82084Y204353D01*
X82093Y204220D01*
X82090Y204177D01*
X82844Y204937D01*
X82846Y204938D01*
X82847Y204940D01*
X82894Y204981D01*
X82944Y205025D01*
X82946Y205026D01*
X82947Y205028D01*
X82999Y205062D01*
X83054Y205100D01*
X83056Y205100D01*
X83058Y205102D01*
X83113Y205129D01*
X83174Y205159D01*
X83175Y205160D01*
X83177Y205161D01*
X83238Y205181D01*
X83300Y205202D01*
X83301Y205203D01*
X83303Y205203D01*
X83366Y205216D01*
X83430Y205229D01*
X83432Y205229D01*
X83434Y205229D01*
X83497Y205233D01*
X83563Y205238D01*
X83565Y205238D01*
X83567Y205238D01*
X90207D01*
X90241Y205236D01*
X90274D01*
X90307Y205231D01*
X90340Y205229D01*
X90373Y205223D01*
X90406Y205218D01*
X90816Y205137D01*
X90849Y205128D01*
X90881Y205122D01*
X90913Y205111D01*
X90945Y205102D01*
X90976Y205089D01*
X91007Y205079D01*
X91394Y204919D01*
X91424Y204904D01*
X91455Y204891D01*
X91484Y204874D01*
X91514Y204860D01*
X91541Y204841D01*
X91570Y204825D01*
X91918Y204592D01*
X91945Y204572D01*
X91972Y204553D01*
X91997Y204531D01*
X92024Y204511D01*
X92047Y204487D01*
X92072Y204465D01*
X92368Y204169D01*
X92390Y204144D01*
X92414Y204121D01*
X92435Y204094D01*
X92456Y204069D01*
X92475Y204042D01*
X92495Y204015D01*
X92728Y203667D01*
X92744Y203638D01*
X92763Y203610D01*
X92778Y203581D01*
X92794Y203552D01*
X92807Y203521D01*
X92822Y203491D01*
X92982Y203104D01*
X92993Y203073D01*
X93005Y203042D01*
X93014Y203010D01*
X93025Y202978D01*
X93031Y202945D01*
X93040Y202913D01*
X93122Y202503D01*
X93126Y202470D01*
X93132Y202437D01*
X93135Y202404D01*
X93139Y202371D01*
Y202337D01*
X93141Y202304D01*
Y202095D01*
Y196845D01*
Y196635D01*
X93139Y196602D01*
Y196569D01*
X93135Y196536D01*
X93132Y196503D01*
X93126Y196470D01*
X93122Y196437D01*
X93040Y196026D01*
X93031Y195994D01*
X93025Y195961D01*
X93014Y195930D01*
X93005Y195898D01*
X92993Y195867D01*
X92982Y195835D01*
X92822Y195449D01*
X92807Y195419D01*
X92794Y195388D01*
X92778Y195359D01*
X92763Y195329D01*
X92744Y195301D01*
X92728Y195273D01*
X92495Y194925D01*
X92475Y194898D01*
X92456Y194870D01*
X92434Y194845D01*
X92414Y194819D01*
X92391Y194795D01*
X92368Y194770D01*
X92072Y194474D01*
X92048Y194452D01*
X92024Y194429D01*
X91997Y194408D01*
X91972Y194386D01*
X91945Y194368D01*
X91918Y194348D01*
X91570Y194115D01*
X91541Y194098D01*
X91514Y194080D01*
X91484Y194065D01*
X91455Y194049D01*
X91424Y194036D01*
X91394Y194021D01*
X91007Y193861D01*
X90976Y193850D01*
X90945Y193837D01*
X90913Y193829D01*
X90881Y193818D01*
X90849Y193811D01*
X90816Y193803D01*
X90406Y193721D01*
X90373Y193717D01*
X90340Y193710D01*
X90307Y193708D01*
X90274Y193704D01*
X90241D01*
X90207Y193702D01*
X83567D01*
X83565Y193702D01*
X83563Y193702D01*
X83503Y193706D01*
X83434Y193710D01*
X83432Y193711D01*
X83430Y193711D01*
X83369Y193723D01*
X83303Y193736D01*
X83301Y193737D01*
X83300Y193737D01*
X83238Y193758D01*
X83177Y193779D01*
X83175Y193780D01*
X83174Y193781D01*
X83115Y193810D01*
X83058Y193838D01*
X83056Y193839D01*
X83054Y193840D01*
X83000Y193876D01*
X82947Y193912D01*
X82945Y193913D01*
X82944Y193914D01*
X82896Y193956D01*
X82847Y194000D01*
X82845Y194001D01*
X82844Y194003D01*
X82139Y194713D01*
X82130Y194587D01*
X82104Y194456D01*
X82062Y194330D01*
X82003Y194211D01*
X81929Y194100D01*
X81841Y194000D01*
X81741Y193912D01*
X81630Y193838D01*
X81510Y193779D01*
X81384Y193736D01*
X81254Y193710D01*
X81121Y193702D01*
X70169D01*
X70135Y193704D01*
X70102D01*
X70069Y193708D01*
X70036Y193710D01*
X70003Y193717D01*
X69970Y193721D01*
X69559Y193803D01*
X69527Y193811D01*
X69495Y193818D01*
X69463Y193829D01*
X69431Y193837D01*
X69400Y193850D01*
X69369Y193861D01*
X68982Y194021D01*
X68952Y194036D01*
X68921Y194049D01*
X68892Y194065D01*
X68862Y194080D01*
X68835Y194098D01*
X68806Y194115D01*
X68458Y194348D01*
X68431Y194368D01*
X68404Y194386D01*
X68378Y194408D01*
X68352Y194429D01*
X68329Y194452D01*
X68303Y194474D01*
X68007Y194770D01*
X67986Y194795D01*
X67962Y194819D01*
X67941Y194845D01*
X67920Y194870D01*
X67901Y194898D01*
X67881Y194925D01*
X67648Y195273D01*
X67632Y195301D01*
X67613Y195329D01*
X67598Y195359D01*
X67582Y195388D01*
X67569Y195419D01*
X67554Y195449D01*
X67394Y195835D01*
X67383Y195867D01*
X67371Y195898D01*
X67362Y195930D01*
X67351Y195961D01*
X67345Y195994D01*
X67336Y196026D01*
X67254Y196437D01*
X67250Y196470D01*
X67243Y196503D01*
X67241Y196536D01*
X67237Y196569D01*
Y196602D01*
X67235Y196635D01*
Y196845D01*
Y202095D01*
Y202304D01*
X67237Y202337D01*
Y202371D01*
X67241Y202404D01*
X67243Y202437D01*
X67250Y202470D01*
X67254Y202503D01*
X67336Y202913D01*
X67345Y202945D01*
X67351Y202978D01*
X67362Y203010D01*
X67371Y203042D01*
X67383Y203073D01*
X67394Y203104D01*
X67554Y203491D01*
X67569Y203521D01*
X67582Y203552D01*
X67598Y203581D01*
X67613Y203610D01*
X67632Y203638D01*
X67648Y203667D01*
X67881Y204015D01*
X67901Y204042D01*
X67920Y204069D01*
X67942Y204094D01*
X67962Y204121D01*
X67985Y204144D01*
X68007Y204169D01*
X68303Y204465D01*
X68328Y204487D01*
X68352Y204511D01*
X68379Y204531D01*
X68404Y204553D01*
X68431Y204571D01*
X68458Y204592D01*
X68806Y204825D01*
X68835Y204841D01*
X68862Y204860D01*
X68892Y204874D01*
X68921Y204891D01*
X68952Y204904D01*
X68982Y204919D01*
X69369Y205079D01*
X69400Y205089D01*
X69431Y205102D01*
X69463Y205111D01*
X69495Y205122D01*
X69527Y205128D01*
X69559Y205137D01*
X69970Y205218D01*
X70003Y205223D01*
X70036Y205229D01*
X70069Y205231D01*
X70102Y205236D01*
X70135D01*
X70169Y205238D01*
X70378D01*
X81075Y205238D01*
X81208Y205229D01*
D02*
G37*
G36*
X81178Y113709D02*
X81308Y113684D01*
X81434Y113641D01*
X81554Y113582D01*
X81665Y113508D01*
X81765Y113420D01*
X81853Y113320D01*
X81927Y113209D01*
X81986Y113090D01*
X82028Y112964D01*
X82054Y112833D01*
X82063Y112700D01*
X82060Y112658D01*
X82814Y113417D01*
X82816Y113419D01*
X82817Y113420D01*
X82864Y113462D01*
X82914Y113505D01*
X82916Y113506D01*
X82917Y113508D01*
X82969Y113543D01*
X83024Y113580D01*
X83026Y113581D01*
X83028Y113582D01*
X83083Y113609D01*
X83144Y113639D01*
X83146Y113640D01*
X83147Y113641D01*
X83208Y113661D01*
X83270Y113682D01*
X83271Y113683D01*
X83273Y113684D01*
X83336Y113696D01*
X83400Y113709D01*
X83402Y113709D01*
X83404Y113709D01*
X83467Y113714D01*
X83533Y113718D01*
X83535Y113718D01*
X83537Y113718D01*
X90177D01*
X90211Y113716D01*
X90244D01*
X90277Y113712D01*
X90310Y113709D01*
X90343Y113703D01*
X90376Y113699D01*
X90787Y113617D01*
X90819Y113608D01*
X90851Y113602D01*
X90883Y113591D01*
X90915Y113582D01*
X90946Y113570D01*
X90977Y113559D01*
X91364Y113399D01*
X91394Y113384D01*
X91425Y113371D01*
X91454Y113355D01*
X91484Y113340D01*
X91511Y113321D01*
X91540Y113305D01*
X91888Y113072D01*
X91915Y113052D01*
X91942Y113033D01*
X91967Y113011D01*
X91994Y112991D01*
X92017Y112968D01*
X92043Y112945D01*
X92338Y112650D01*
X92360Y112625D01*
X92384Y112601D01*
X92404Y112574D01*
X92426Y112549D01*
X92445Y112522D01*
X92465Y112495D01*
X92698Y112147D01*
X92714Y112118D01*
X92733Y112091D01*
X92748Y112061D01*
X92764Y112032D01*
X92777Y112001D01*
X92792Y111971D01*
X92952Y111584D01*
X92963Y111553D01*
X92975Y111522D01*
X92984Y111490D01*
X92995Y111458D01*
X93001Y111426D01*
X93010Y111393D01*
X93092Y110983D01*
X93096Y110950D01*
X93103Y110917D01*
X93105Y110884D01*
X93109Y110851D01*
Y110818D01*
X93111Y110784D01*
Y110575D01*
Y105325D01*
Y105116D01*
X93109Y105082D01*
Y105049D01*
X93105Y105016D01*
X93103Y104983D01*
X93096Y104950D01*
X93092Y104917D01*
X93010Y104507D01*
X93001Y104474D01*
X92995Y104442D01*
X92984Y104410D01*
X92975Y104378D01*
X92963Y104347D01*
X92952Y104316D01*
X92792Y103929D01*
X92777Y103899D01*
X92764Y103868D01*
X92748Y103839D01*
X92733Y103809D01*
X92714Y103782D01*
X92698Y103753D01*
X92465Y103405D01*
X92445Y103378D01*
X92426Y103351D01*
X92404Y103325D01*
X92384Y103299D01*
X92361Y103276D01*
X92338Y103250D01*
X92043Y102955D01*
X92018Y102933D01*
X91994Y102909D01*
X91967Y102888D01*
X91942Y102867D01*
X91915Y102848D01*
X91888Y102828D01*
X91540Y102595D01*
X91511Y102579D01*
X91484Y102560D01*
X91454Y102545D01*
X91425Y102529D01*
X91394Y102516D01*
X91364Y102501D01*
X90977Y102341D01*
X90946Y102330D01*
X90915Y102317D01*
X90883Y102309D01*
X90851Y102298D01*
X90819Y102292D01*
X90787Y102283D01*
X90376Y102201D01*
X90343Y102197D01*
X90310Y102191D01*
X90277Y102188D01*
X90244Y102184D01*
X90211D01*
X90177Y102182D01*
X83537D01*
X83535Y102182D01*
X83533Y102182D01*
X83473Y102186D01*
X83404Y102191D01*
X83402Y102191D01*
X83400Y102191D01*
X83339Y102203D01*
X83273Y102217D01*
X83271Y102217D01*
X83270Y102218D01*
X83208Y102239D01*
X83147Y102259D01*
X83146Y102260D01*
X83144Y102261D01*
X83085Y102290D01*
X83028Y102318D01*
X83026Y102319D01*
X83024Y102320D01*
X82971Y102356D01*
X82917Y102392D01*
X82915Y102394D01*
X82914Y102395D01*
X82866Y102437D01*
X82817Y102480D01*
X82816Y102482D01*
X82814Y102483D01*
X82109Y103194D01*
X82100Y103067D01*
X82074Y102936D01*
X82031Y102810D01*
X81973Y102691D01*
X81899Y102580D01*
X81811Y102480D01*
X81711Y102392D01*
X81600Y102318D01*
X81481Y102259D01*
X81354Y102217D01*
X81224Y102191D01*
X81091Y102182D01*
X70139D01*
X70105Y102184D01*
X70072D01*
X70039Y102188D01*
X70006Y102191D01*
X69973Y102197D01*
X69940Y102201D01*
X69530Y102283D01*
X69497Y102292D01*
X69465Y102298D01*
X69433Y102309D01*
X69401Y102317D01*
X69370Y102330D01*
X69338Y102341D01*
X68952Y102501D01*
X68922Y102516D01*
X68891Y102529D01*
X68862Y102545D01*
X68832Y102560D01*
X68805Y102579D01*
X68776Y102595D01*
X68428Y102828D01*
X68401Y102848D01*
X68373Y102867D01*
X68348Y102889D01*
X68322Y102909D01*
X68299Y102932D01*
X68273Y102955D01*
X67977Y103250D01*
X67955Y103275D01*
X67932Y103299D01*
X67912Y103326D01*
X67890Y103351D01*
X67871Y103378D01*
X67851Y103405D01*
X67618Y103753D01*
X67602Y103782D01*
X67583Y103809D01*
X67568Y103839D01*
X67552Y103868D01*
X67539Y103899D01*
X67524Y103929D01*
X67364Y104316D01*
X67353Y104347D01*
X67340Y104378D01*
X67332Y104410D01*
X67321Y104442D01*
X67315Y104474D01*
X67306Y104507D01*
X67224Y104917D01*
X67220Y104950D01*
X67214Y104983D01*
X67211Y105016D01*
X67207Y105049D01*
Y105082D01*
X67205Y105116D01*
Y105325D01*
Y110575D01*
Y110784D01*
X67207Y110818D01*
Y110851D01*
X67211Y110884D01*
X67214Y110917D01*
X67220Y110950D01*
X67224Y110983D01*
X67306Y111393D01*
X67315Y111426D01*
X67321Y111458D01*
X67332Y111490D01*
X67340Y111522D01*
X67353Y111553D01*
X67364Y111585D01*
X67524Y111971D01*
X67539Y112001D01*
X67552Y112032D01*
X67568Y112061D01*
X67583Y112091D01*
X67602Y112118D01*
X67618Y112147D01*
X67851Y112495D01*
X67871Y112522D01*
X67890Y112549D01*
X67912Y112575D01*
X67932Y112601D01*
X67955Y112624D01*
X67977Y112650D01*
X68273Y112945D01*
X68298Y112967D01*
X68322Y112991D01*
X68349Y113012D01*
X68373Y113033D01*
X68401Y113052D01*
X68428Y113072D01*
X68776Y113305D01*
X68805Y113321D01*
X68832Y113340D01*
X68862Y113355D01*
X68891Y113371D01*
X68922Y113384D01*
X68952Y113399D01*
X69338Y113559D01*
X69370Y113570D01*
X69401Y113582D01*
X69433Y113591D01*
X69465Y113602D01*
X69497Y113608D01*
X69530Y113617D01*
X69940Y113699D01*
X69973Y113703D01*
X70006Y113709D01*
X70039Y113712D01*
X70072Y113716D01*
X70105D01*
X70139Y113718D01*
X70348D01*
X81045Y113718D01*
X81178Y113709D01*
D02*
G37*
G36*
X140191Y29050D02*
X140494Y28200D01*
X140997Y27450D01*
X141700Y26800D01*
X142603Y26250D01*
X143706Y25800D01*
X145009Y25450D01*
X146512Y25200D01*
X148216Y25050D01*
X150119Y25000D01*
Y15000D01*
X140119Y17488D01*
X140089Y30000D01*
X140191Y29050D01*
D02*
G37*
G36*
X127681Y17488D02*
X117681Y15000D01*
Y25000D01*
X119584Y25050D01*
X121287Y25200D01*
X122791Y25450D01*
X124094Y25800D01*
X125197Y26250D01*
X126100Y26800D01*
X126803Y27450D01*
X127306Y28200D01*
X127608Y29050D01*
X127711Y30000D01*
X127681Y17488D01*
D02*
G37*
G36*
X48877Y11343D02*
X47608D01*
X47608Y5665D01*
X46888Y6015D01*
X45484Y6586D01*
X38336Y9060D01*
X31123Y11343D01*
X47608Y11343D01*
X47609Y15000D01*
X48877Y11343D01*
D02*
G37*
G36*
X47802Y5571D02*
X48227Y5254D01*
X48162Y5063D01*
X47608Y5000D01*
Y5665D01*
X47802Y5571D01*
D02*
G37*
G36*
X182838Y111249D02*
X182968Y111223D01*
X183095Y111180D01*
X183214Y111122D01*
X183325Y111048D01*
X183425Y110960D01*
X183513Y110860D01*
X183587Y110749D01*
X183646Y110630D01*
X183688Y110503D01*
X183714Y110373D01*
X183723Y110240D01*
X183720Y110197D01*
X184474Y110957D01*
X184476Y110958D01*
X184477Y110960D01*
X184524Y111001D01*
X184574Y111045D01*
X184576Y111046D01*
X184577Y111048D01*
X184629Y111082D01*
X184684Y111120D01*
X184686Y111121D01*
X184688Y111122D01*
X184743Y111149D01*
X184804Y111179D01*
X184805Y111180D01*
X184807Y111180D01*
X184868Y111201D01*
X184930Y111222D01*
X184931Y111223D01*
X184933Y111223D01*
X184996Y111236D01*
X185060Y111249D01*
X185062Y111249D01*
X185064Y111249D01*
X185126Y111253D01*
X185193Y111258D01*
X185195Y111258D01*
X185197Y111258D01*
X191837D01*
X191871Y111256D01*
X191904D01*
X191937Y111251D01*
X191970Y111249D01*
X192003Y111243D01*
X192036Y111238D01*
X192446Y111157D01*
X192479Y111148D01*
X192511Y111142D01*
X192543Y111131D01*
X192575Y111122D01*
X192606Y111110D01*
X192637Y111099D01*
X193024Y110939D01*
X193054Y110924D01*
X193085Y110911D01*
X193114Y110894D01*
X193144Y110880D01*
X193171Y110861D01*
X193200Y110844D01*
X193548Y110612D01*
X193575Y110592D01*
X193602Y110573D01*
X193627Y110551D01*
X193654Y110531D01*
X193677Y110507D01*
X193703Y110485D01*
X193999Y110189D01*
X194020Y110164D01*
X194044Y110141D01*
X194065Y110114D01*
X194086Y110089D01*
X194105Y110062D01*
X194125Y110035D01*
X194358Y109687D01*
X194374Y109658D01*
X194393Y109630D01*
X194408Y109601D01*
X194424Y109572D01*
X194437Y109541D01*
X194452Y109511D01*
X194612Y109124D01*
X194623Y109093D01*
X194635Y109062D01*
X194644Y109030D01*
X194655Y108998D01*
X194661Y108965D01*
X194670Y108933D01*
X194752Y108523D01*
X194756Y108490D01*
X194762Y108457D01*
X194765Y108424D01*
X194769Y108391D01*
Y108357D01*
X194771Y108324D01*
Y108115D01*
Y102865D01*
Y102655D01*
X194769Y102622D01*
Y102589D01*
X194765Y102556D01*
X194762Y102523D01*
X194756Y102490D01*
X194752Y102457D01*
X194670Y102046D01*
X194661Y102014D01*
X194655Y101981D01*
X194644Y101950D01*
X194635Y101918D01*
X194623Y101887D01*
X194612Y101855D01*
X194452Y101469D01*
X194437Y101439D01*
X194424Y101408D01*
X194408Y101379D01*
X194393Y101349D01*
X194374Y101321D01*
X194358Y101293D01*
X194125Y100944D01*
X194105Y100918D01*
X194086Y100890D01*
X194064Y100865D01*
X194044Y100839D01*
X194021Y100815D01*
X193999Y100790D01*
X193703Y100494D01*
X193678Y100472D01*
X193654Y100449D01*
X193627Y100428D01*
X193602Y100406D01*
X193575Y100388D01*
X193548Y100368D01*
X193200Y100135D01*
X193171Y100118D01*
X193144Y100100D01*
X193114Y100085D01*
X193085Y100069D01*
X193054Y100056D01*
X193024Y100041D01*
X192637Y99881D01*
X192606Y99870D01*
X192575Y99857D01*
X192543Y99849D01*
X192511Y99838D01*
X192479Y99831D01*
X192446Y99823D01*
X192036Y99741D01*
X192003Y99737D01*
X191970Y99730D01*
X191937Y99728D01*
X191904Y99724D01*
X191871D01*
X191837Y99722D01*
X185197D01*
X185195Y99722D01*
X185193Y99722D01*
X185133Y99726D01*
X185064Y99730D01*
X185062Y99731D01*
X185060Y99731D01*
X184999Y99743D01*
X184933Y99756D01*
X184931Y99757D01*
X184930Y99757D01*
X184868Y99778D01*
X184807Y99799D01*
X184805Y99800D01*
X184804Y99801D01*
X184745Y99830D01*
X184688Y99858D01*
X184686Y99859D01*
X184684Y99860D01*
X184631Y99896D01*
X184577Y99932D01*
X184576Y99933D01*
X184574Y99934D01*
X184526Y99976D01*
X184477Y100020D01*
X184475Y100021D01*
X184474Y100023D01*
X183769Y100733D01*
X183760Y100607D01*
X183734Y100476D01*
X183692Y100350D01*
X183633Y100231D01*
X183559Y100120D01*
X183471Y100020D01*
X183371Y99932D01*
X183260Y99858D01*
X183141Y99799D01*
X183014Y99756D01*
X182884Y99730D01*
X182751Y99722D01*
X171799D01*
X171765Y99724D01*
X171732D01*
X171699Y99728D01*
X171666Y99730D01*
X171633Y99737D01*
X171600Y99741D01*
X171189Y99823D01*
X171157Y99831D01*
X171125Y99838D01*
X171093Y99849D01*
X171061Y99857D01*
X171030Y99870D01*
X170998Y99881D01*
X170612Y100041D01*
X170582Y100056D01*
X170551Y100069D01*
X170522Y100085D01*
X170492Y100100D01*
X170465Y100118D01*
X170436Y100135D01*
X170088Y100368D01*
X170061Y100388D01*
X170033Y100406D01*
X170008Y100428D01*
X169982Y100449D01*
X169959Y100472D01*
X169933Y100494D01*
X169637Y100790D01*
X169615Y100815D01*
X169592Y100839D01*
X169571Y100865D01*
X169550Y100890D01*
X169531Y100918D01*
X169511Y100944D01*
X169278Y101293D01*
X169262Y101321D01*
X169243Y101349D01*
X169228Y101379D01*
X169212Y101408D01*
X169199Y101439D01*
X169184Y101469D01*
X169024Y101855D01*
X169013Y101887D01*
X169000Y101918D01*
X168992Y101950D01*
X168981Y101981D01*
X168975Y102014D01*
X168966Y102046D01*
X168884Y102457D01*
X168880Y102490D01*
X168874Y102523D01*
X168871Y102556D01*
X168867Y102589D01*
Y102622D01*
X168865Y102655D01*
Y102865D01*
Y108115D01*
Y108324D01*
X168867Y108357D01*
Y108391D01*
X168871Y108424D01*
X168874Y108457D01*
X168880Y108490D01*
X168884Y108523D01*
X168966Y108933D01*
X168975Y108965D01*
X168981Y108998D01*
X168992Y109030D01*
X169000Y109062D01*
X169013Y109093D01*
X169024Y109124D01*
X169184Y109511D01*
X169199Y109541D01*
X169212Y109572D01*
X169228Y109601D01*
X169243Y109630D01*
X169262Y109658D01*
X169278Y109687D01*
X169511Y110035D01*
X169531Y110062D01*
X169550Y110089D01*
X169572Y110114D01*
X169592Y110141D01*
X169615Y110164D01*
X169637Y110189D01*
X169933Y110485D01*
X169958Y110507D01*
X169982Y110531D01*
X170009Y110551D01*
X170033Y110573D01*
X170061Y110591D01*
X170088Y110612D01*
X170436Y110844D01*
X170465Y110861D01*
X170492Y110880D01*
X170522Y110894D01*
X170551Y110911D01*
X170582Y110924D01*
X170612Y110939D01*
X170998Y111099D01*
X171030Y111110D01*
X171061Y111122D01*
X171093Y111131D01*
X171125Y111142D01*
X171157Y111148D01*
X171189Y111157D01*
X171600Y111238D01*
X171633Y111243D01*
X171666Y111249D01*
X171699Y111251D01*
X171732Y111256D01*
X171765D01*
X171799Y111258D01*
X172008D01*
X182705Y111258D01*
X182838Y111249D01*
D02*
G37*
G36*
X284781Y17488D02*
X274781Y15000D01*
Y25000D01*
X276684Y25050D01*
X278388Y25200D01*
X279891Y25450D01*
X281194Y25800D01*
X282297Y26250D01*
X283200Y26800D01*
X283903Y27450D01*
X284406Y28200D01*
X284708Y29050D01*
X284811Y30000D01*
X284781Y17488D01*
D02*
G37*
G36*
X513408Y52386D02*
X513441D01*
X513474Y52382D01*
X513507Y52379D01*
X513540Y52373D01*
X513573Y52369D01*
X513983Y52287D01*
X514016Y52278D01*
X514048Y52272D01*
X514080Y52261D01*
X514112Y52252D01*
X514143Y52240D01*
X514174Y52229D01*
X514561Y52069D01*
X514591Y52054D01*
X514622Y52041D01*
X514651Y52025D01*
X514681Y52010D01*
X514708Y51991D01*
X514737Y51975D01*
X515085Y51742D01*
X515112Y51722D01*
X515139Y51703D01*
X515165Y51681D01*
X515191Y51661D01*
X515214Y51638D01*
X515240Y51616D01*
X515536Y51320D01*
X515557Y51295D01*
X515581Y51271D01*
X515602Y51244D01*
X515623Y51219D01*
X515642Y51192D01*
X515662Y51165D01*
X515895Y50817D01*
X515911Y50788D01*
X515930Y50761D01*
X515945Y50731D01*
X515961Y50702D01*
X515974Y50671D01*
X515989Y50641D01*
X516149Y50254D01*
X516160Y50223D01*
X516172Y50192D01*
X516181Y50160D01*
X516192Y50128D01*
X516198Y50096D01*
X516207Y50064D01*
X516289Y49653D01*
X516293Y49620D01*
X516300Y49587D01*
X516302Y49554D01*
X516306Y49521D01*
Y49488D01*
X516308Y49454D01*
Y49245D01*
Y42814D01*
X516308Y42812D01*
X516308Y42810D01*
X516304Y42750D01*
X516300Y42681D01*
X516299Y42679D01*
X516299Y42677D01*
X516287Y42616D01*
X516273Y42550D01*
X516273Y42548D01*
X516273Y42547D01*
X516251Y42485D01*
X516231Y42424D01*
X516230Y42422D01*
X516229Y42421D01*
X516200Y42362D01*
X516172Y42305D01*
X516171Y42303D01*
X516170Y42301D01*
X516134Y42248D01*
X516098Y42194D01*
X516096Y42193D01*
X516095Y42191D01*
X516053Y42143D01*
X516010Y42094D01*
X516008Y42092D01*
X516007Y42091D01*
X515296Y41386D01*
X515423Y41377D01*
X515554Y41351D01*
X515680Y41309D01*
X515799Y41250D01*
X515910Y41176D01*
X516010Y41088D01*
X516098Y40988D01*
X516172Y40877D01*
X516231Y40757D01*
X516273Y40631D01*
X516300Y40501D01*
X516308Y40368D01*
Y29625D01*
Y29416D01*
X516306Y29382D01*
Y29349D01*
X516302Y29316D01*
X516300Y29283D01*
X516293Y29250D01*
X516289Y29217D01*
X516207Y28807D01*
X516198Y28774D01*
X516192Y28742D01*
X516181Y28710D01*
X516172Y28678D01*
X516160Y28647D01*
X516149Y28616D01*
X515989Y28229D01*
X515974Y28199D01*
X515961Y28168D01*
X515945Y28139D01*
X515930Y28109D01*
X515911Y28082D01*
X515895Y28053D01*
X515662Y27705D01*
X515642Y27678D01*
X515623Y27651D01*
X515601Y27625D01*
X515581Y27599D01*
X515558Y27576D01*
X515536Y27550D01*
X515240Y27255D01*
X515215Y27233D01*
X515191Y27209D01*
X515164Y27188D01*
X515139Y27167D01*
X515112Y27148D01*
X515085Y27128D01*
X514737Y26895D01*
X514708Y26879D01*
X514681Y26860D01*
X514651Y26845D01*
X514622Y26829D01*
X514591Y26816D01*
X514561Y26801D01*
X514174Y26641D01*
X514143Y26630D01*
X514112Y26618D01*
X514080Y26609D01*
X514048Y26598D01*
X514016Y26592D01*
X513983Y26583D01*
X513573Y26501D01*
X513540Y26497D01*
X513507Y26490D01*
X513474Y26488D01*
X513441Y26484D01*
X513408D01*
X513374Y26482D01*
X507706D01*
X507672Y26484D01*
X507639D01*
X507606Y26488D01*
X507573Y26490D01*
X507540Y26497D01*
X507507Y26501D01*
X507096Y26583D01*
X507064Y26592D01*
X507032Y26598D01*
X507000Y26609D01*
X506968Y26618D01*
X506937Y26630D01*
X506906Y26641D01*
X506519Y26801D01*
X506489Y26816D01*
X506458Y26829D01*
X506429Y26845D01*
X506399Y26860D01*
X506372Y26879D01*
X506343Y26895D01*
X505995Y27128D01*
X505968Y27148D01*
X505941Y27167D01*
X505915Y27189D01*
X505889Y27209D01*
X505866Y27232D01*
X505840Y27255D01*
X505545Y27550D01*
X505523Y27575D01*
X505499Y27599D01*
X505479Y27626D01*
X505457Y27651D01*
X505438Y27678D01*
X505418Y27705D01*
X505185Y28053D01*
X505169Y28082D01*
X505150Y28109D01*
X505135Y28139D01*
X505119Y28168D01*
X505106Y28199D01*
X505091Y28229D01*
X504931Y28616D01*
X504920Y28647D01*
X504908Y28678D01*
X504899Y28710D01*
X504888Y28742D01*
X504882Y28774D01*
X504873Y28807D01*
X504791Y29217D01*
X504787Y29250D01*
X504781Y29283D01*
X504778Y29316D01*
X504774Y29349D01*
Y29382D01*
X504772Y29416D01*
Y29625D01*
X504772Y40322D01*
X504781Y40455D01*
X504807Y40585D01*
X504849Y40712D01*
X504908Y40831D01*
X504982Y40942D01*
X505070Y41042D01*
X505170Y41130D01*
X505281Y41204D01*
X505400Y41263D01*
X505526Y41305D01*
X505657Y41331D01*
X505790Y41340D01*
X505832Y41337D01*
X505073Y42091D01*
X505071Y42093D01*
X505070Y42094D01*
X505028Y42141D01*
X504985Y42191D01*
X504983Y42193D01*
X504982Y42194D01*
X504947Y42246D01*
X504910Y42301D01*
X504909Y42303D01*
X504908Y42305D01*
X504881Y42361D01*
X504851Y42421D01*
X504850Y42422D01*
X504849Y42424D01*
X504829Y42485D01*
X504808Y42547D01*
X504807Y42548D01*
X504807Y42550D01*
X504794Y42613D01*
X504781Y42677D01*
X504781Y42679D01*
X504781Y42681D01*
X504776Y42744D01*
X504772Y42810D01*
X504772Y42812D01*
X504772Y42814D01*
Y49245D01*
Y49454D01*
X504774Y49488D01*
Y49521D01*
X504778Y49554D01*
X504781Y49587D01*
X504787Y49620D01*
X504791Y49653D01*
X504873Y50064D01*
X504882Y50096D01*
X504888Y50128D01*
X504899Y50160D01*
X504908Y50192D01*
X504920Y50223D01*
X504931Y50255D01*
X505091Y50641D01*
X505106Y50671D01*
X505119Y50702D01*
X505135Y50731D01*
X505150Y50761D01*
X505169Y50788D01*
X505185Y50817D01*
X505418Y51165D01*
X505438Y51192D01*
X505457Y51219D01*
X505479Y51245D01*
X505499Y51271D01*
X505522Y51294D01*
X505545Y51320D01*
X505840Y51616D01*
X505865Y51637D01*
X505889Y51661D01*
X505916Y51681D01*
X505941Y51703D01*
X505968Y51722D01*
X505995Y51742D01*
X506343Y51975D01*
X506372Y51991D01*
X506399Y52010D01*
X506429Y52025D01*
X506458Y52041D01*
X506489Y52054D01*
X506519Y52069D01*
X506906Y52229D01*
X506937Y52240D01*
X506968Y52252D01*
X507000Y52261D01*
X507032Y52272D01*
X507064Y52278D01*
X507096Y52287D01*
X507507Y52369D01*
X507540Y52373D01*
X507573Y52379D01*
X507606Y52382D01*
X507639Y52386D01*
X507672D01*
X507706Y52388D01*
X513374D01*
X513408Y52386D01*
D02*
G37*
G36*
X297292Y29050D02*
X297594Y28200D01*
X298097Y27450D01*
X298800Y26800D01*
X299703Y26250D01*
X300806Y25800D01*
X302109Y25450D01*
X303612Y25200D01*
X305316Y25050D01*
X307220Y25000D01*
Y15000D01*
X297220Y17488D01*
X297189Y30000D01*
X297292Y29050D01*
D02*
G37*
G36*
X960638Y782169D02*
X960668Y770000D01*
X960566Y770950D01*
X960263Y771800D01*
X959760Y772550D01*
X959057Y773200D01*
X958154Y773750D01*
X957051Y774200D01*
X955748Y774550D01*
X954245Y774800D01*
X952541Y774950D01*
X950638Y775000D01*
Y785000D01*
X960638Y782169D01*
D02*
G37*
G36*
X983077Y775000D02*
X981173Y774950D01*
X979470Y774800D01*
X977967Y774550D01*
X976663Y774200D01*
X975560Y773750D01*
X974657Y773200D01*
X973954Y772550D01*
X973452Y771800D01*
X973149Y770950D01*
X973046Y770000D01*
X973077Y782169D01*
X983077Y785000D01*
Y775000D01*
D02*
G37*
G36*
X1117738Y782169D02*
X1117768Y770000D01*
X1117666Y770950D01*
X1117363Y771800D01*
X1116860Y772550D01*
X1116158Y773200D01*
X1115255Y773750D01*
X1114151Y774200D01*
X1112848Y774550D01*
X1111345Y774800D01*
X1109641Y774950D01*
X1107738Y775000D01*
Y785000D01*
X1117738Y782169D01*
D02*
G37*
G36*
X1140177Y775000D02*
X1138273Y774950D01*
X1136570Y774800D01*
X1135067Y774550D01*
X1133763Y774200D01*
X1132660Y773750D01*
X1131757Y773200D01*
X1131054Y772550D01*
X1130552Y771800D01*
X1130249Y770950D01*
X1130146Y770000D01*
X1130177Y782169D01*
X1140177Y785000D01*
Y775000D01*
D02*
G37*
G36*
X1303515Y782169D02*
X1303546Y770000D01*
X1303443Y770950D01*
X1303141Y771800D01*
X1302638Y772550D01*
X1301935Y773200D01*
X1301032Y773750D01*
X1299929Y774200D01*
X1298626Y774550D01*
X1297122Y774800D01*
X1295419Y774950D01*
X1293515Y775000D01*
Y785000D01*
X1303515Y782169D01*
D02*
G37*
G36*
X1751308Y794932D02*
X1751842Y794731D01*
X1769969Y788295D01*
X1751160Y788193D01*
X1751160Y785000D01*
X1749723Y788185D01*
X1751160Y788193D01*
X1751160Y795000D01*
X1751308Y794932D01*
D02*
G37*
G36*
X1325954Y783935D02*
X1332193Y782169D01*
X1332223Y770000D01*
X1332121Y770950D01*
X1331818Y771800D01*
X1331315Y772550D01*
X1330612Y773200D01*
X1329709Y773750D01*
X1328606Y774200D01*
X1327303Y774550D01*
X1325800Y774800D01*
X1324096Y774950D01*
X1324074Y774950D01*
X1324051Y774950D01*
X1322348Y774800D01*
X1320844Y774550D01*
X1319541Y774200D01*
X1318438Y773750D01*
X1317535Y773200D01*
X1316832Y772550D01*
X1316329Y771800D01*
X1316026Y770950D01*
X1315924Y770000D01*
X1315954Y782169D01*
X1322193Y783935D01*
Y785000D01*
X1324074Y784467D01*
X1325954Y785000D01*
Y783935D01*
D02*
G37*
G36*
X1354632Y775000D02*
X1352728Y774950D01*
X1351025Y774800D01*
X1349522Y774550D01*
X1348219Y774200D01*
X1347115Y773750D01*
X1346212Y773200D01*
X1345509Y772550D01*
X1345007Y771800D01*
X1344704Y770950D01*
X1344601Y770000D01*
X1344632Y782169D01*
X1354632Y785000D01*
Y775000D01*
D02*
G37*
G36*
X1489293Y782169D02*
X1489323Y770000D01*
X1489221Y770950D01*
X1488918Y771800D01*
X1488415Y772550D01*
X1487713Y773200D01*
X1486810Y773750D01*
X1485706Y774200D01*
X1484403Y774550D01*
X1482900Y774800D01*
X1481196Y774950D01*
X1479293Y775000D01*
Y785000D01*
X1489293Y782169D01*
D02*
G37*
G36*
X1540410Y775000D02*
X1538506Y774950D01*
X1536803Y774800D01*
X1535299Y774550D01*
X1533996Y774200D01*
X1532893Y773750D01*
X1531990Y773200D01*
X1531287Y772550D01*
X1530784Y771800D01*
X1530482Y770950D01*
X1530379Y770000D01*
X1530410Y782169D01*
X1540410Y785000D01*
Y775000D01*
D02*
G37*
G36*
X1675070Y782169D02*
X1675101Y770000D01*
X1674998Y770950D01*
X1674696Y771800D01*
X1674193Y772550D01*
X1673490Y773200D01*
X1672587Y773750D01*
X1671484Y774200D01*
X1670181Y774550D01*
X1668677Y774800D01*
X1666974Y774950D01*
X1665070Y775000D01*
Y785000D01*
X1675070Y782169D01*
D02*
G37*
G36*
X1795000Y750292D02*
X1787800D01*
X1787896Y771037D01*
X1795000Y750292D01*
D02*
G37*
G36*
X1787793Y748707D02*
X1785000Y750292D01*
X1787800D01*
X1787793Y748707D01*
D02*
G37*
G36*
X1788409Y48293D02*
X1794815D01*
X1794935Y48457D01*
X1795000Y48293D01*
X1794815D01*
X1794739Y48190D01*
X1794413Y47492D01*
X1793955Y46363D01*
X1788469Y30538D01*
X1788409Y48293D01*
X1785000D01*
X1788405Y49653D01*
X1788409Y48293D01*
D02*
G37*
G36*
X1751957Y11494D02*
X1769180Y11439D01*
X1751957Y4999D01*
X1751957Y11494D01*
X1750638Y11498D01*
X1751957Y15000D01*
X1751957Y11494D01*
D02*
G37*
%LPC*%
G36*
X77840Y586815D02*
X77788Y586763D01*
X77836Y586714D01*
X77835Y586736D01*
X77835Y586740D01*
X77835Y586744D01*
X77839Y586810D01*
X77840Y586815D01*
D02*
G37*
G36*
X82741Y568986D02*
X82742Y568964D01*
X82742Y568960D01*
X82742Y568956D01*
X82738Y568890D01*
X82737Y568885D01*
X82789Y568937D01*
X82741Y568986D01*
D02*
G37*
G36*
X117097Y569035D02*
X117045Y568983D01*
X117093Y568934D01*
X117092Y568956D01*
X117092Y568960D01*
X117092Y568964D01*
X117096Y569030D01*
X117097Y569035D01*
D02*
G37*
G36*
X77840Y487512D02*
X77788Y487460D01*
X77836Y487412D01*
X77835Y487433D01*
X77835Y487437D01*
X77835Y487441D01*
X77839Y487507D01*
X77840Y487512D01*
D02*
G37*
G36*
Y387425D02*
X77788Y387373D01*
X77836Y387324D01*
X77835Y387346D01*
X77835Y387350D01*
X77835Y387354D01*
X77839Y387420D01*
X77840Y387425D01*
D02*
G37*
G36*
Y294795D02*
X77788Y294743D01*
X77836Y294694D01*
X77835Y294716D01*
X77835Y294720D01*
X77835Y294724D01*
X77839Y294790D01*
X77840Y294795D01*
D02*
G37*
G36*
Y199545D02*
X77788Y199493D01*
X77836Y199444D01*
X77835Y199466D01*
X77835Y199470D01*
X77835Y199474D01*
X77839Y199540D01*
X77840Y199545D01*
D02*
G37*
G36*
X77810Y108025D02*
X77758Y107973D01*
X77806Y107924D01*
X77805Y107946D01*
X77805Y107950D01*
X77805Y107954D01*
X77809Y108020D01*
X77810Y108025D01*
D02*
G37*
G36*
X179470Y105565D02*
X179418Y105513D01*
X179466Y105464D01*
X179465Y105486D01*
X179465Y105490D01*
X179465Y105494D01*
X179469Y105560D01*
X179470Y105565D01*
D02*
G37*
G36*
X510465Y37087D02*
X510517Y37035D01*
X510566Y37083D01*
X510544Y37082D01*
X510540Y37082D01*
X510536Y37082D01*
X510470Y37086D01*
X510465Y37087D01*
D02*
G37*
%LPD*%
D86*
X1710000Y780000D02*
G03*
X1724142Y790000I-0J15000D01*
G01*
X1790000Y760068D02*
G03*
X1760161Y790000I-30000J-68D01*
G01*
X1723749Y9999D02*
G03*
X1709607Y19999I-14142J-5000D01*
G01*
X76251Y790000D02*
G03*
X90393Y780000I14142J5000D01*
G01*
X90000Y20000D02*
G03*
X75858Y10000I0J-15000D01*
G01*
X10000Y39607D02*
G03*
X39607Y10000I29607J0D01*
G01*
X1760000Y10000D02*
G03*
X1790000Y40000I0J30000D01*
G01*
X39956Y790000D02*
G03*
X10000Y760000I44J-30000D01*
G01*
X1760160Y790000D02*
X1760161D01*
X1760000D02*
X1760160D01*
X1751160Y790000D02*
X1760000Y790000D01*
X1742160Y790000D02*
X1751160Y790000D01*
X1733160Y790000D02*
X1742160Y790000D01*
X1724160Y790000D02*
X1733160Y790000D01*
X1724142Y790000D02*
X1724160D01*
X1790000Y750292D02*
Y760000D01*
Y750292D02*
X1790000Y741292D01*
Y732292D02*
Y741292D01*
Y732292D02*
X1790000Y723292D01*
Y705292D02*
Y723292D01*
Y705292D02*
X1790000Y696292D01*
Y687292D02*
Y696292D01*
Y687292D02*
X1790000Y678292D01*
Y660292D02*
Y678292D01*
Y660292D02*
X1790000Y651292D01*
Y642292D02*
Y651292D01*
Y642292D02*
X1790000Y633292D01*
Y615292D02*
Y633292D01*
Y615292D02*
X1790000Y606292D01*
Y597292D02*
Y606292D01*
Y597292D02*
X1790000Y588292D01*
Y570292D02*
Y588292D01*
Y570292D02*
X1790000Y561292D01*
Y552292D02*
Y561292D01*
Y552292D02*
X1790000Y543292D01*
Y525292D02*
Y543292D01*
Y525292D02*
X1790000Y516292D01*
Y507292D02*
Y516292D01*
Y507292D02*
X1790000Y498292D01*
Y480292D02*
Y498292D01*
Y480292D02*
X1790000Y471292D01*
Y462292D02*
Y471292D01*
Y462292D02*
X1790000Y453292D01*
Y435292D02*
Y453292D01*
Y435292D02*
X1790000Y426292D01*
Y417292D02*
Y426292D01*
Y417292D02*
X1790000Y408293D01*
Y390293D02*
Y408293D01*
Y390293D02*
X1790000Y381292D01*
Y372293D02*
Y381292D01*
Y372293D02*
X1790000Y363293D01*
Y345293D02*
Y363293D01*
Y345293D02*
X1790000Y336293D01*
Y327293D02*
Y336293D01*
Y327293D02*
X1790000Y318293D01*
Y300293D02*
Y318293D01*
Y300293D02*
X1790000Y291293D01*
Y282293D02*
Y291293D01*
Y282293D02*
X1790000Y273293D01*
Y255293D02*
Y273293D01*
Y255293D02*
X1790000Y246293D01*
Y237293D02*
Y246293D01*
Y237293D02*
X1790000Y228293D01*
Y210293D02*
Y228293D01*
Y210293D02*
X1790000Y201293D01*
Y192293D02*
Y201293D01*
Y192293D02*
X1790000Y183293D01*
Y165293D02*
Y183293D01*
Y165293D02*
X1790000Y156293D01*
Y147293D02*
Y156293D01*
Y147293D02*
X1790000Y138293D01*
Y120293D02*
Y138293D01*
Y120293D02*
X1790000Y111293D01*
Y102293D02*
Y111293D01*
Y102293D02*
X1790000Y93293D01*
Y75293D02*
Y93293D01*
Y75293D02*
X1790000Y66293D01*
Y57293D02*
Y66293D01*
Y57293D02*
X1790000Y48293D01*
Y40101D02*
Y48293D01*
X1751957Y9999D02*
X1759904Y9999D01*
X1742957Y9999D02*
X1751957Y9999D01*
X1733957Y9999D02*
X1742957Y9999D01*
X1724957Y9999D02*
X1733957Y9999D01*
X1723749Y9999D02*
X1724957D01*
X1691285Y780000D02*
X1710000D01*
X1646285D02*
X1691285D01*
X1637285Y780000D02*
X1646285Y780000D01*
X1619285Y780000D02*
X1637285D01*
X1610285D02*
X1619285D01*
X1556286D02*
X1610285D01*
X1529285D02*
X1556286D01*
X1511286D02*
X1529285D01*
X1502286Y780000D02*
X1511286Y780000D01*
X1495513Y780000D02*
X1502286D01*
X1457286D02*
X1495513D01*
X1439286D02*
X1457286D01*
X1430286D02*
X1439286D01*
X1412286D02*
X1430286D01*
X1376286D02*
X1412286D01*
X1367286Y780000D02*
X1376286Y780000D01*
X1338412Y780000D02*
X1367286D01*
X1304286D02*
X1338412D01*
X1286286D02*
X1304286D01*
X1241286D02*
X1286286D01*
X1232286Y780000D02*
X1241286Y780000D01*
X1214286Y780000D02*
X1232286D01*
X1169286D02*
X1214286D01*
X1160286D02*
X1169286D01*
X1142286D02*
X1160286D01*
X1106286D02*
X1142286D01*
X1097286Y780000D02*
X1106286Y780000D01*
X1088286Y780000D02*
X1097286D01*
X1061286D02*
X1088286D01*
X1034286D02*
X1061286D01*
X998287D02*
X1034286D01*
X971287D02*
X998287D01*
X966857Y780000D02*
X971287Y780000D01*
X944287Y780000D02*
X966857D01*
X917287D02*
X944287D01*
X890287D02*
X917287D01*
X854287D02*
X890287D01*
X836287D02*
X854287D01*
X827287Y780000D02*
X836287Y780000D01*
X791287Y780000D02*
X827287D01*
X782287D02*
X791287D01*
X755287D02*
X782287D01*
X737287D02*
X755287D01*
X701287D02*
X737287D01*
X692287Y780000D02*
X701287Y780000D01*
X674287Y780000D02*
X692287D01*
X647287D02*
X674287D01*
X638287D02*
X647287D01*
X602287D02*
X638287D01*
X575287D02*
X602287D01*
X566287D02*
X575287D01*
X557287Y780000D02*
X566287Y780000D01*
X503288Y780000D02*
X557287D01*
X494288D02*
X503288D01*
X449288D02*
X494288D01*
X431288D02*
X449288D01*
X422288Y780000D02*
X431288Y780000D01*
X395288Y780000D02*
X422288D01*
X368288D02*
X395288D01*
X359288D02*
X368288D01*
X323288D02*
X359288D01*
X314288D02*
X323288D01*
X296288D02*
X314288D01*
X287288Y780000D02*
X296288Y780000D01*
X269288Y780000D02*
X287288D01*
X233288D02*
X269288D01*
X179288D02*
X233288D01*
X161288D02*
X179288D01*
X152288Y780000D02*
X161288Y780000D01*
X107288Y780000D02*
X152288D01*
X90393D02*
X107288D01*
X73892Y790000D02*
X76251D01*
X64892Y790000D02*
X73892Y790000D01*
X55891Y790000D02*
X64892Y790000D01*
X46891Y790000D02*
X55891Y790000D01*
X40000Y790000D02*
X46891Y790000D01*
X1701000Y19999D02*
X1709607D01*
X1664786D02*
X1701000D01*
X1646786D02*
X1664786D01*
X1637786Y19999D02*
X1646786Y19999D01*
X1601786Y19999D02*
X1637786D01*
X1574786D02*
X1601786D01*
X1554403D02*
X1574786D01*
X1511786D02*
X1554403D01*
X1502786Y20000D02*
X1511786Y19999D01*
X1475786Y20000D02*
X1502786D01*
X1440903D02*
X1475786D01*
X1430786D02*
X1440903D01*
X1412787D02*
X1430786D01*
X1394787D02*
X1412787D01*
X1376786D02*
X1394787D01*
X1367787Y20000D02*
X1376786Y20000D01*
X1349787Y20000D02*
X1367787D01*
X1313787D02*
X1349787D01*
X1294307D02*
X1313787D01*
X1277787D02*
X1294307D01*
X1241787D02*
X1277787D01*
X1232787Y20000D02*
X1241787Y20000D01*
X1196787Y20000D02*
X1232787D01*
X1178787D02*
X1196787D01*
X1147710D02*
X1178787D01*
X1133787D02*
X1147710D01*
X1106787D02*
X1133787D01*
X1097787Y20000D02*
X1106787Y20000D01*
X1061787Y20000D02*
X1097787D01*
X1034787D02*
X1061787D01*
X1007787D02*
X1034787D01*
X971787D02*
X1007787D01*
X962787Y20000D02*
X971787Y20000D01*
X953787Y20000D02*
X962787D01*
X926787D02*
X953787D01*
X899788D02*
X926787D01*
X881787D02*
X899788D01*
X836788D02*
X881787D01*
X827788Y20000D02*
X836788Y20000D01*
X800788Y20000D02*
X827788D01*
X773630D02*
X800788D01*
X740210D02*
X773630D01*
X728788D02*
X740210D01*
X701788D02*
X728788D01*
X692788Y20000D02*
X701788Y20000D01*
X683788Y20000D02*
X692788D01*
X656788D02*
X683788D01*
X620788D02*
X656788D01*
X566788D02*
X620788D01*
X557788Y20000D02*
X566788Y20000D01*
X530788Y20000D02*
X557788D01*
X521788D02*
X530788D01*
X494788D02*
X521788D01*
X449788D02*
X494788D01*
X431788D02*
X449788D01*
X422788Y20000D02*
X431788Y20000D01*
X395788Y20000D02*
X422788D01*
X368788D02*
X395788D01*
X350789D02*
X368788D01*
X323789D02*
X350789D01*
X296789D02*
X323789D01*
X291000Y20000D02*
X296789Y20000D01*
X260789Y20000D02*
X291000D01*
X224789D02*
X260789D01*
X215789D02*
X224789D01*
X188789D02*
X215789D01*
X161789D02*
X188789D01*
X152789Y20000D02*
X161789Y20000D01*
X133900Y20000D02*
X152789D01*
X107789D02*
X133900D01*
X90000D02*
X107789D01*
X10000Y714558D02*
Y759950D01*
Y678558D02*
Y714558D01*
Y642559D02*
Y678558D01*
Y624558D02*
Y642559D01*
Y588559D02*
Y624558D01*
Y570559D02*
Y588559D01*
Y543559D02*
Y570559D01*
Y525559D02*
Y543559D01*
Y498559D02*
Y525559D01*
Y453559D02*
Y498559D01*
Y435559D02*
Y453559D01*
Y408559D02*
Y435559D01*
X10000Y399559D02*
X10000Y408559D01*
X10000Y381559D02*
Y399559D01*
Y354559D02*
Y381559D01*
Y318559D02*
Y354559D01*
Y273559D02*
Y318559D01*
Y228559D02*
Y273559D01*
Y201559D02*
Y228559D01*
Y165559D02*
Y201559D01*
Y138560D02*
Y165559D01*
Y111559D02*
Y138560D01*
Y66560D02*
Y111559D01*
Y57560D02*
Y66560D01*
Y39607D02*
Y57560D01*
X74608Y10000D02*
X75858D01*
X65609Y10000D02*
X74608Y10000D01*
X56609Y10000D02*
X65609Y10000D01*
X47608Y10000D02*
X56609Y10000D01*
X40000Y10000D02*
X47608Y10000D01*
X39607Y10000D02*
X40000D01*
D87*
X159950Y78358D02*
D03*
X174950D02*
D03*
X189950D02*
D03*
X204950D02*
D03*
X219950D02*
D03*
X234950D02*
D03*
X249950D02*
D03*
X264950D02*
D03*
X992907Y721300D02*
D03*
X1007907D02*
D03*
X1022907D02*
D03*
X1037907D02*
D03*
X1052907D02*
D03*
X1067907D02*
D03*
X1082907D02*
D03*
X1097907D02*
D03*
X1283685D02*
D03*
X1268685D02*
D03*
X1253685D02*
D03*
X1238685D02*
D03*
X1223685D02*
D03*
X1208685D02*
D03*
X1193685D02*
D03*
X1178685D02*
D03*
X1469462D02*
D03*
X1454462D02*
D03*
X1439462D02*
D03*
X1424462D02*
D03*
X1409462D02*
D03*
X1394462D02*
D03*
X1379462D02*
D03*
X1364462D02*
D03*
X1655240D02*
D03*
X1640240D02*
D03*
X1625240D02*
D03*
X1610240D02*
D03*
X1595240D02*
D03*
X1580240D02*
D03*
X1565240D02*
D03*
X1550240D02*
D03*
D88*
X291000Y26458D02*
D03*
X133900D02*
D03*
X1123957Y773200D02*
D03*
X966857D02*
D03*
X1152635D02*
D03*
X1309735D02*
D03*
X1338412D02*
D03*
X1495513D02*
D03*
X1524190D02*
D03*
X1681290D02*
D03*
D89*
X600882Y544548D02*
D03*
Y539298D02*
D03*
X593902Y544548D02*
D03*
Y539298D02*
D03*
X614241Y544915D02*
D03*
Y539665D02*
D03*
X607621Y544680D02*
D03*
Y539430D02*
D03*
X620743Y544680D02*
D03*
Y539430D02*
D03*
X627246Y544915D02*
D03*
Y539665D02*
D03*
X640251Y544915D02*
D03*
Y539665D02*
D03*
X633748Y544915D02*
D03*
Y539665D02*
D03*
X646753Y544915D02*
D03*
Y539665D02*
D03*
X653256Y544915D02*
D03*
Y539665D02*
D03*
X666261Y544915D02*
D03*
Y539665D02*
D03*
X659759Y544915D02*
D03*
Y539665D02*
D03*
X673060Y544915D02*
D03*
Y539665D02*
D03*
X579230Y340275D02*
D03*
Y345525D02*
D03*
X572767Y340283D02*
D03*
Y345533D02*
D03*
X592235Y340275D02*
D03*
Y345525D02*
D03*
X585732Y340275D02*
D03*
Y345525D02*
D03*
X605092Y340274D02*
D03*
Y345524D02*
D03*
X598737Y340275D02*
D03*
Y345525D02*
D03*
X638747Y340274D02*
D03*
Y345523D02*
D03*
X632245Y340275D02*
D03*
Y345525D02*
D03*
X646970Y345523D02*
D03*
Y340274D02*
D03*
X1028518Y246656D02*
D03*
Y241406D02*
D03*
X1035189Y241406D02*
D03*
Y246656D02*
D03*
X1048531Y246656D02*
D03*
Y241406D02*
D03*
X1041860Y246656D02*
D03*
Y241406D02*
D03*
X1055203Y241406D02*
D03*
Y246656D02*
D03*
X1061874Y246656D02*
D03*
Y241406D02*
D03*
X1068545Y246656D02*
D03*
Y241406D02*
D03*
X1081888Y246656D02*
D03*
Y241406D02*
D03*
X1075217Y241406D02*
D03*
Y246656D02*
D03*
X1088559Y246656D02*
D03*
Y241406D02*
D03*
X1095231Y246656D02*
D03*
Y241406D02*
D03*
X1108573Y246656D02*
D03*
Y241406D02*
D03*
X1101902Y241406D02*
D03*
Y246656D02*
D03*
X1121916Y241406D02*
D03*
Y246656D02*
D03*
X1128587Y241406D02*
D03*
Y246656D02*
D03*
X1115245Y246656D02*
D03*
Y241406D02*
D03*
X1141930Y246656D02*
D03*
Y241406D02*
D03*
X1135259Y241406D02*
D03*
Y246656D02*
D03*
X1148601Y241406D02*
D03*
Y246656D02*
D03*
X1161944Y246656D02*
D03*
Y241406D02*
D03*
X1155272Y246656D02*
D03*
Y241406D02*
D03*
X1168615Y241406D02*
D03*
Y246656D02*
D03*
X1181958Y246656D02*
D03*
Y241406D02*
D03*
X1175286Y241406D02*
D03*
Y246656D02*
D03*
X1188629Y246656D02*
D03*
Y241406D02*
D03*
X1201972Y241406D02*
D03*
Y246656D02*
D03*
X1195300Y246656D02*
D03*
Y241406D02*
D03*
X1032913Y515123D02*
D03*
Y509873D02*
D03*
X1026410Y515123D02*
D03*
Y509873D02*
D03*
X1039415Y515123D02*
D03*
Y509873D02*
D03*
X1045918Y515123D02*
D03*
Y509873D02*
D03*
X1058923Y515123D02*
D03*
Y509873D02*
D03*
X1052420Y515123D02*
D03*
Y509873D02*
D03*
X1065425Y515123D02*
D03*
Y509873D02*
D03*
X1078430Y509873D02*
D03*
Y515123D02*
D03*
X1071928Y509873D02*
D03*
Y515123D02*
D03*
X1091435Y509873D02*
D03*
Y515123D02*
D03*
X1084933Y509873D02*
D03*
Y515123D02*
D03*
X1104441Y509873D02*
D03*
Y515123D02*
D03*
X1097938Y509873D02*
D03*
Y515123D02*
D03*
X1110943Y509873D02*
D03*
Y515123D02*
D03*
X1117446Y509873D02*
D03*
Y515123D02*
D03*
X1130451Y515123D02*
D03*
Y509873D02*
D03*
X1123948Y509873D02*
D03*
Y515123D02*
D03*
X1143456Y509873D02*
D03*
Y515123D02*
D03*
X1136953Y515123D02*
D03*
Y509873D02*
D03*
X1149958Y509873D02*
D03*
Y515123D02*
D03*
X1156461Y509873D02*
D03*
Y515123D02*
D03*
X1169466Y515123D02*
D03*
Y509873D02*
D03*
X1162963Y509873D02*
D03*
Y515123D02*
D03*
X1175968Y515123D02*
D03*
Y509873D02*
D03*
X1188973Y515123D02*
D03*
Y509873D02*
D03*
X1182471Y515123D02*
D03*
Y509873D02*
D03*
X1195476Y509873D02*
D03*
Y515123D02*
D03*
D90*
X739030Y446639D02*
D03*
X733780D02*
D03*
X733825Y453904D02*
D03*
X739075D02*
D03*
X733825Y460152D02*
D03*
X739075D02*
D03*
X739030Y466147D02*
D03*
X733780D02*
D03*
X739115Y472649D02*
D03*
X733865D02*
D03*
Y479152D02*
D03*
X739115D02*
D03*
X739115Y485654D02*
D03*
X733865D02*
D03*
X734214Y543510D02*
D03*
X739464D02*
D03*
X734119Y537030D02*
D03*
X739370D02*
D03*
X739244Y530657D02*
D03*
X733994D02*
D03*
X739305Y524222D02*
D03*
X734055D02*
D03*
X739238Y518051D02*
D03*
X733988D02*
D03*
X733865Y511978D02*
D03*
X739115D02*
D03*
X739137Y505582D02*
D03*
X733887D02*
D03*
X739115Y499152D02*
D03*
X733865D02*
D03*
X739115Y492157D02*
D03*
X733865D02*
D03*
X532760Y504623D02*
D03*
X538010D02*
D03*
X532760Y498121D02*
D03*
X538010D02*
D03*
X532760Y491505D02*
D03*
X538010D02*
D03*
X532760Y473963D02*
D03*
X538010D02*
D03*
X532760Y467460D02*
D03*
X538010D02*
D03*
X532860Y460957D02*
D03*
X538110D02*
D03*
X538237Y454455D02*
D03*
X532987D02*
D03*
X533106Y447952D02*
D03*
X538356D02*
D03*
X532770Y402421D02*
D03*
X538020D02*
D03*
X532860Y395918D02*
D03*
X538110D02*
D03*
X532760Y389416D02*
D03*
X538010D02*
D03*
X532760Y382913D02*
D03*
X538010D02*
D03*
X532860Y376411D02*
D03*
X538110D02*
D03*
X532749Y408923D02*
D03*
X537999D02*
D03*
X532801Y428445D02*
D03*
X538051D02*
D03*
X725001Y336550D02*
D03*
X719751D02*
D03*
Y341630D02*
D03*
X725001D02*
D03*
X739833Y345160D02*
D03*
X745082D02*
D03*
X614518Y306324D02*
D03*
X609268D02*
D03*
X623366Y306324D02*
D03*
X628616D02*
D03*
X978176Y280339D02*
D03*
X983427D02*
D03*
X978176Y286858D02*
D03*
X983427D02*
D03*
X978176Y293377D02*
D03*
X983427D02*
D03*
X983427Y299879D02*
D03*
X978177D02*
D03*
X983427Y306382D02*
D03*
X978177D02*
D03*
X978176Y312884D02*
D03*
X983427D02*
D03*
X983427Y325889D02*
D03*
X978177D02*
D03*
X983427Y332392D02*
D03*
X978177D02*
D03*
X978176Y345397D02*
D03*
X983427D02*
D03*
X983427Y338895D02*
D03*
X978177D02*
D03*
X983427Y351900D02*
D03*
X978177D02*
D03*
X978176Y358402D02*
D03*
X983427D02*
D03*
X983427Y364905D02*
D03*
X978177D02*
D03*
X983427Y371407D02*
D03*
X978177D02*
D03*
X978176Y377910D02*
D03*
X983427D02*
D03*
X978176Y384412D02*
D03*
X983427D02*
D03*
X983427Y390915D02*
D03*
X978177D02*
D03*
X978176Y397417D02*
D03*
X983427D02*
D03*
X983427Y403920D02*
D03*
X978177D02*
D03*
X983427Y410422D02*
D03*
X978177D02*
D03*
X978176Y416925D02*
D03*
X983427D02*
D03*
X978176Y423427D02*
D03*
X983427D02*
D03*
X983365Y429930D02*
D03*
X978115D02*
D03*
X978176Y273820D02*
D03*
X983427D02*
D03*
X983487Y436432D02*
D03*
X978237D02*
D03*
X1215959Y543791D02*
D03*
X1210709D02*
D03*
X1226646Y543791D02*
D03*
X1231896D02*
D03*
X1251668Y376806D02*
D03*
X1246418D02*
D03*
X1246418Y476098D02*
D03*
X1251668D02*
D03*
X1251668Y277514D02*
D03*
X1246418D02*
D03*
X367199Y354584D02*
D03*
X372449D02*
D03*
X367199Y341291D02*
D03*
X372449D02*
D03*
X367199Y327999D02*
D03*
X372449D02*
D03*
X366945Y314706D02*
D03*
X372195D02*
D03*
X1246418Y310611D02*
D03*
X1251668D02*
D03*
X1246418Y323850D02*
D03*
X1251668D02*
D03*
X1246418Y297372D02*
D03*
X1251668D02*
D03*
X1246418Y443001D02*
D03*
X1251668D02*
D03*
X1246418Y403284D02*
D03*
X1251668D02*
D03*
X1246418Y409903D02*
D03*
X1251668D02*
D03*
X1246418Y436381D02*
D03*
X1251668D02*
D03*
X1251668Y290753D02*
D03*
X1246418D02*
D03*
X1246418Y303992D02*
D03*
X1251668D02*
D03*
X1251668Y317231D02*
D03*
X1246418D02*
D03*
X1251668Y330470D02*
D03*
X1246418D02*
D03*
X1251668Y343709D02*
D03*
X1246418D02*
D03*
X1246418Y429762D02*
D03*
X1251668D02*
D03*
X1246418Y370187D02*
D03*
X1251668D02*
D03*
X1246418Y350328D02*
D03*
X1251668D02*
D03*
X1251668Y396665D02*
D03*
X1246418D02*
D03*
X1246418Y337089D02*
D03*
X1251668D02*
D03*
X1251668Y390045D02*
D03*
X1246418D02*
D03*
X1246418Y284133D02*
D03*
X1251668D02*
D03*
X1251668Y423142D02*
D03*
X1246418D02*
D03*
X1246418Y469479D02*
D03*
X1251668D02*
D03*
X1246418Y462859D02*
D03*
X1251668D02*
D03*
X1246418Y456240D02*
D03*
X1251668D02*
D03*
X1246418Y449620D02*
D03*
X1251668D02*
D03*
X1246418Y356948D02*
D03*
X1251668D02*
D03*
X1246418Y383425D02*
D03*
X1251668D02*
D03*
X1246418Y416523D02*
D03*
X1251668D02*
D03*
X1251668Y363567D02*
D03*
X1246418D02*
D03*
D91*
X75593Y214630D02*
D03*
X84593D02*
D03*
X75510Y402590D02*
D03*
X84510D02*
D03*
X75621Y309960D02*
D03*
X84621D02*
D03*
X85459Y502677D02*
D03*
X76459D02*
D03*
X76610Y601980D02*
D03*
X85610D02*
D03*
X212780Y330454D02*
D03*
X203780D02*
D03*
X1349430Y247650D02*
D03*
X1340430D02*
D03*
X406211Y676495D02*
D03*
X415211D02*
D03*
X457320Y549440D02*
D03*
X466320D02*
D03*
X457320Y561378D02*
D03*
X466320D02*
D03*
X457320Y573316D02*
D03*
X466320D02*
D03*
X457320Y585254D02*
D03*
X466320D02*
D03*
X457320Y597192D02*
D03*
X466320D02*
D03*
X457320Y609130D02*
D03*
X466320D02*
D03*
X457320Y537502D02*
D03*
X466320D02*
D03*
X457320Y525564D02*
D03*
X466320D02*
D03*
X457320Y513626D02*
D03*
X466320D02*
D03*
X457320Y501688D02*
D03*
X466320D02*
D03*
X457320Y489750D02*
D03*
X466320D02*
D03*
X623241Y342900D02*
D03*
X614241D02*
D03*
X981044Y445435D02*
D03*
X972044D02*
D03*
X971984Y456936D02*
D03*
X980984D02*
D03*
X965329Y555573D02*
D03*
X956329D02*
D03*
X1217151Y508191D02*
D03*
X1226151D02*
D03*
X1710790Y270002D02*
D03*
X1719790D02*
D03*
X1710790Y255226D02*
D03*
X1719790D02*
D03*
X1710790Y240450D02*
D03*
X1719790D02*
D03*
X1710790Y225673D02*
D03*
X1719790D02*
D03*
Y210210D02*
D03*
X1710790D02*
D03*
X1629090Y184810D02*
D03*
X1638090D02*
D03*
X1684600Y135865D02*
D03*
X1693600D02*
D03*
X1602922Y110463D02*
D03*
X1593922D02*
D03*
Y122544D02*
D03*
X1602922D02*
D03*
X1593922Y135863D02*
D03*
X1602922D02*
D03*
X1540497Y135865D02*
D03*
X1549497D02*
D03*
X1456025Y110463D02*
D03*
X1447025D02*
D03*
Y123161D02*
D03*
X1456025D02*
D03*
X1447025Y135863D02*
D03*
X1456025D02*
D03*
X1395862Y135865D02*
D03*
X1404862D02*
D03*
X1258616Y110463D02*
D03*
X1249616D02*
D03*
X1258616Y123165D02*
D03*
X1249616D02*
D03*
Y135865D02*
D03*
X1258616D02*
D03*
X1168741Y110463D02*
D03*
X1159741D02*
D03*
X1159744Y135863D02*
D03*
X1168744D02*
D03*
X1159744Y123161D02*
D03*
X1168744D02*
D03*
X1123898Y104024D02*
D03*
X1114898D02*
D03*
Y116724D02*
D03*
X1123898D02*
D03*
X1114898Y129424D02*
D03*
X1123898D02*
D03*
Y142124D02*
D03*
X1114898D02*
D03*
X985713Y103821D02*
D03*
X976713D02*
D03*
Y116521D02*
D03*
X985713D02*
D03*
X976713Y129221D02*
D03*
X985713D02*
D03*
Y141921D02*
D03*
X976713D02*
D03*
X1012028Y142124D02*
D03*
X1021028D02*
D03*
Y129424D02*
D03*
X1012028D02*
D03*
X1021028Y116724D02*
D03*
X1012028D02*
D03*
Y104024D02*
D03*
X1021028D02*
D03*
X1060398Y157037D02*
D03*
X1051398D02*
D03*
X1074258Y157037D02*
D03*
X1083258D02*
D03*
X1062808Y172428D02*
D03*
X1071808D02*
D03*
X936073Y157037D02*
D03*
X945073D02*
D03*
X873843Y141921D02*
D03*
X882843D02*
D03*
Y129221D02*
D03*
X873843D02*
D03*
X882843Y116521D02*
D03*
X873843D02*
D03*
Y103821D02*
D03*
X882843D02*
D03*
X320170Y105410D02*
D03*
X311170D02*
D03*
X330780Y105410D02*
D03*
X339780D02*
D03*
X507420D02*
D03*
X498420D02*
D03*
X517620D02*
D03*
X526620D02*
D03*
X352480Y173223D02*
D03*
X343480D02*
D03*
X460457D02*
D03*
X451457D02*
D03*
X473047D02*
D03*
X482047D02*
D03*
X186110Y120650D02*
D03*
X177110D02*
D03*
X177253Y133430D02*
D03*
X186253D02*
D03*
X83240Y127000D02*
D03*
X74240D02*
D03*
X75593Y227410D02*
D03*
X84593D02*
D03*
X75623Y322660D02*
D03*
X84623D02*
D03*
X75623Y415370D02*
D03*
X84623D02*
D03*
X85459Y515377D02*
D03*
X76459D02*
D03*
X76610Y614680D02*
D03*
X85610D02*
D03*
X212780Y530018D02*
D03*
X203780D02*
D03*
X417277Y173223D02*
D03*
X408277D02*
D03*
X429867D02*
D03*
X438867D02*
D03*
X387184D02*
D03*
X396184D02*
D03*
X374334D02*
D03*
X365334D02*
D03*
X922213Y157037D02*
D03*
X913213D02*
D03*
X752063Y83544D02*
D03*
X761063D02*
D03*
X873842D02*
D03*
X882842D02*
D03*
X1303914Y123161D02*
D03*
X1312914D02*
D03*
X1303914Y135863D02*
D03*
X1312914D02*
D03*
Y110463D02*
D03*
X1303914D02*
D03*
X752065Y73507D02*
D03*
X761065D02*
D03*
X752065Y63472D02*
D03*
X761065D02*
D03*
X873843Y73507D02*
D03*
X882843D02*
D03*
X873843Y63472D02*
D03*
X882843D02*
D03*
D92*
X665400Y713160D02*
D03*
Y704160D02*
D03*
X652900Y713160D02*
D03*
Y704160D02*
D03*
X640400Y713160D02*
D03*
Y704160D02*
D03*
X628122Y713160D02*
D03*
Y704160D02*
D03*
X361221Y678914D02*
D03*
Y687914D02*
D03*
X512172Y678914D02*
D03*
Y687914D02*
D03*
X751614Y465426D02*
D03*
Y474426D02*
D03*
X713351Y337621D02*
D03*
X980862Y477438D02*
D03*
Y468438D02*
D03*
X933531Y515121D02*
D03*
Y524121D02*
D03*
X201168Y596210D02*
D03*
Y605210D02*
D03*
X212598Y596210D02*
D03*
Y605210D02*
D03*
D93*
X450610Y271780D02*
D03*
X420610D02*
D03*
X450610Y387350D02*
D03*
X420610D02*
D03*
D94*
X450610Y277780D02*
D03*
Y265780D02*
D03*
X420610D02*
D03*
Y277780D02*
D03*
X450610Y393350D02*
D03*
Y381350D02*
D03*
X420610D02*
D03*
Y393350D02*
D03*
D95*
X539900Y759000D02*
D03*
X690900D02*
D03*
X914000D02*
D03*
X738000D02*
D03*
X740210Y39115D02*
D03*
X651710D02*
D03*
X862130D02*
D03*
X773630D02*
D03*
D96*
X665400Y730000D02*
D03*
X652900D02*
D03*
X640400D02*
D03*
X627900D02*
D03*
X615400D02*
D03*
X602900D02*
D03*
X590400D02*
D03*
X577900D02*
D03*
X565400D02*
D03*
X763500D02*
D03*
X776000D02*
D03*
X788500D02*
D03*
X801000D02*
D03*
X813500D02*
D03*
X826000D02*
D03*
X838500D02*
D03*
X851000D02*
D03*
X863500D02*
D03*
X876000D02*
D03*
X888500D02*
D03*
X677210Y68115D02*
D03*
X689710D02*
D03*
X702210D02*
D03*
X714710D02*
D03*
X799130D02*
D03*
X811630D02*
D03*
X824130D02*
D03*
X836630D02*
D03*
D99*
X186510Y273050D02*
D03*
X227510D02*
D03*
X186510Y469730D02*
D03*
X227510D02*
D03*
D100*
X902793Y141921D02*
D03*
Y129221D02*
D03*
Y116521D02*
D03*
Y103821D02*
D03*
X955493D02*
D03*
Y116521D02*
D03*
Y129221D02*
D03*
Y141921D02*
D03*
X1040978Y142124D02*
D03*
Y129424D02*
D03*
Y116724D02*
D03*
Y104024D02*
D03*
X1093678D02*
D03*
Y116724D02*
D03*
Y129424D02*
D03*
Y142124D02*
D03*
D108*
X327228Y692856D02*
D03*
X346228D02*
D03*
X336728Y672856D02*
D03*
X478179Y692856D02*
D03*
X497179D02*
D03*
X487679Y672856D02*
D03*
D114*
X1623896Y113232D02*
D03*
Y119733D02*
D03*
Y126232D02*
D03*
Y132732D02*
D03*
X1664896Y113232D02*
D03*
Y119733D02*
D03*
Y126232D02*
D03*
Y132732D02*
D03*
X1520084D02*
D03*
Y126232D02*
D03*
Y119733D02*
D03*
Y113232D02*
D03*
X1479084Y132732D02*
D03*
Y126232D02*
D03*
Y119733D02*
D03*
Y113232D02*
D03*
X1375272Y132732D02*
D03*
Y126232D02*
D03*
Y119733D02*
D03*
Y113232D02*
D03*
X1334272Y132732D02*
D03*
Y126232D02*
D03*
Y119733D02*
D03*
Y113232D02*
D03*
X1189461D02*
D03*
Y119733D02*
D03*
Y126232D02*
D03*
Y132732D02*
D03*
X1230461Y113232D02*
D03*
Y119733D02*
D03*
Y126232D02*
D03*
Y132732D02*
D03*
D121*
X816760Y351419D02*
D03*
X677846Y191439D02*
D03*
D122*
X206754Y641460D02*
D03*
Y623460D02*
D03*
D123*
X499260Y92050D02*
D03*
Y82550D02*
D03*
Y73050D02*
D03*
X524360D02*
D03*
Y82550D02*
D03*
Y92050D02*
D03*
X337670Y73050D02*
D03*
Y82550D02*
D03*
Y92050D02*
D03*
X312570D02*
D03*
Y82550D02*
D03*
Y73050D02*
D03*
D138*
X724916Y330200D02*
D03*
X719666D02*
D03*
Y325120D02*
D03*
X724916D02*
D03*
D150*
X40000Y760000D02*
D03*
Y40000D02*
D03*
X1760000Y760000D02*
D03*
Y40000D02*
D03*
D151*
X1752600Y184810D02*
D03*
X1600200Y438810D02*
D03*
Y464210D02*
D03*
Y489610D02*
D03*
X1752600Y235610D02*
D03*
Y261010D02*
D03*
Y515010D02*
D03*
Y286410D02*
D03*
Y489610D02*
D03*
Y311810D02*
D03*
Y464210D02*
D03*
Y337210D02*
D03*
Y438810D02*
D03*
Y362610D02*
D03*
Y413410D02*
D03*
Y388010D02*
D03*
Y210210D02*
D03*
X1600200Y515010D02*
D03*
Y413410D02*
D03*
Y388010D02*
D03*
Y362610D02*
D03*
Y337210D02*
D03*
Y311810D02*
D03*
Y286410D02*
D03*
Y261010D02*
D03*
Y235610D02*
D03*
Y210210D02*
D03*
Y184810D02*
D03*
X1375410Y247410D02*
D03*
X1426210D02*
D03*
X1451610D02*
D03*
X1477010D02*
D03*
X1375410Y522110D02*
D03*
X1400810D02*
D03*
X1426210D02*
D03*
X1477010D02*
D03*
X1451610D02*
D03*
X1400810Y247410D02*
D03*
D152*
X1014871Y226226D02*
D03*
X1015321Y218677D02*
D03*
X1014139Y211564D02*
D03*
X415930Y297433D02*
D03*
Y302433D02*
D03*
Y356547D02*
D03*
Y361547D02*
D03*
D179*
X818621Y328621D02*
D03*
X810621D02*
D03*
X802621D02*
D03*
X770621D02*
D03*
X762621D02*
D03*
X754621D02*
D03*
X818621Y320621D02*
D03*
X810621D02*
D03*
X802621D02*
D03*
X770621D02*
D03*
X762621D02*
D03*
X754621D02*
D03*
X818621Y312621D02*
D03*
X810621D02*
D03*
X802621D02*
D03*
X770621D02*
D03*
X762621D02*
D03*
X754621D02*
D03*
X818621Y304621D02*
D03*
X810621D02*
D03*
X802621D02*
D03*
X770621D02*
D03*
X762621D02*
D03*
X754621D02*
D03*
X818621Y296621D02*
D03*
X810621D02*
D03*
X802621D02*
D03*
X770621D02*
D03*
X762621D02*
D03*
X754621D02*
D03*
X818621Y288621D02*
D03*
X810621D02*
D03*
X802621D02*
D03*
X770621D02*
D03*
X762621D02*
D03*
X754621D02*
D03*
X818621Y280621D02*
D03*
X810621D02*
D03*
X802621D02*
D03*
X770621D02*
D03*
X762621D02*
D03*
X754621D02*
D03*
X818621Y272621D02*
D03*
X810621D02*
D03*
X802621D02*
D03*
X770621D02*
D03*
X762621D02*
D03*
X754621D02*
D03*
X818621Y264621D02*
D03*
X810621D02*
D03*
X802621D02*
D03*
X770621D02*
D03*
X762621D02*
D03*
X754621D02*
D03*
X818621Y256621D02*
D03*
X810621D02*
D03*
X802621D02*
D03*
X770621D02*
D03*
X762621D02*
D03*
X754621D02*
D03*
X818621Y248621D02*
D03*
X810621D02*
D03*
X802621D02*
D03*
X770621D02*
D03*
X762621D02*
D03*
X754621D02*
D03*
X818621Y240621D02*
D03*
X810621D02*
D03*
X802621D02*
D03*
X770621D02*
D03*
X762621D02*
D03*
X754621D02*
D03*
X818621Y232621D02*
D03*
X810621D02*
D03*
X802621D02*
D03*
X770621D02*
D03*
X762621D02*
D03*
X754621D02*
D03*
X818621Y224621D02*
D03*
X810621D02*
D03*
X802621D02*
D03*
X770621D02*
D03*
X762621D02*
D03*
X754621D02*
D03*
X818621Y216621D02*
D03*
X810621D02*
D03*
X802621D02*
D03*
X770621D02*
D03*
X762621D02*
D03*
X754621D02*
D03*
X818621Y208621D02*
D03*
X810621D02*
D03*
X802621D02*
D03*
X770621D02*
D03*
X762621D02*
D03*
X754621D02*
D03*
D202*
X636621Y451121D02*
D03*
Y438121D02*
D03*
X701621Y509621D02*
D03*
X695121D02*
D03*
X688621D02*
D03*
X682121D02*
D03*
X675621D02*
D03*
X669121D02*
D03*
X662621D02*
D03*
X656121D02*
D03*
X649621D02*
D03*
X636621D02*
D03*
X623621D02*
D03*
X617121D02*
D03*
X610621D02*
D03*
X604121D02*
D03*
X597621D02*
D03*
X591121D02*
D03*
X584621D02*
D03*
X578121D02*
D03*
X571621D02*
D03*
X701621Y503121D02*
D03*
X695121D02*
D03*
X688621D02*
D03*
X682121D02*
D03*
X669121D02*
D03*
X662621D02*
D03*
X649621D02*
D03*
X623621D02*
D03*
X610621D02*
D03*
X604121D02*
D03*
X591121D02*
D03*
X584621D02*
D03*
X578121D02*
D03*
X571621D02*
D03*
X701621Y496621D02*
D03*
X695121D02*
D03*
X688621D02*
D03*
X682121D02*
D03*
X675621D02*
D03*
X669121D02*
D03*
X662621D02*
D03*
X656121D02*
D03*
X636621D02*
D03*
X617121D02*
D03*
X610621D02*
D03*
X604121D02*
D03*
X597621D02*
D03*
X591121D02*
D03*
X584621D02*
D03*
X578121D02*
D03*
X571621D02*
D03*
X701621Y490121D02*
D03*
X695121D02*
D03*
X688621D02*
D03*
X682121D02*
D03*
X675621D02*
D03*
X669121D02*
D03*
X662621D02*
D03*
X656121D02*
D03*
X649621D02*
D03*
X623621D02*
D03*
X617121D02*
D03*
X610621D02*
D03*
X604121D02*
D03*
X597621D02*
D03*
X591121D02*
D03*
X584621D02*
D03*
X578121D02*
D03*
X571621D02*
D03*
X701621Y483621D02*
D03*
X688621D02*
D03*
X682121D02*
D03*
X675621D02*
D03*
X669121D02*
D03*
X662621D02*
D03*
X656121D02*
D03*
X617121D02*
D03*
X610621D02*
D03*
X604121D02*
D03*
X597621D02*
D03*
X591121D02*
D03*
X584621D02*
D03*
X571621D02*
D03*
X701621Y477121D02*
D03*
X695121D02*
D03*
X688621D02*
D03*
X682121D02*
D03*
X675621D02*
D03*
X669121D02*
D03*
X662621D02*
D03*
X656121D02*
D03*
X649621D02*
D03*
X623621D02*
D03*
X617121D02*
D03*
X610621D02*
D03*
X604121D02*
D03*
X597621D02*
D03*
X591121D02*
D03*
X584621D02*
D03*
X578121D02*
D03*
X571621D02*
D03*
X701621Y470621D02*
D03*
X695121D02*
D03*
X688621D02*
D03*
X682121D02*
D03*
X675621D02*
D03*
X669121D02*
D03*
X662621D02*
D03*
X656121D02*
D03*
X649621D02*
D03*
X643121D02*
D03*
X636621D02*
D03*
X630121D02*
D03*
X623621D02*
D03*
X617121D02*
D03*
X610621D02*
D03*
X604121D02*
D03*
X597621D02*
D03*
X591121D02*
D03*
X584621D02*
D03*
X578121D02*
D03*
X571621D02*
D03*
X701621Y464121D02*
D03*
X688621D02*
D03*
X682121D02*
D03*
X675621D02*
D03*
X669121D02*
D03*
X662621D02*
D03*
X656121D02*
D03*
X649621D02*
D03*
X643121D02*
D03*
X636621D02*
D03*
X630121D02*
D03*
X623621D02*
D03*
X617121D02*
D03*
X610621D02*
D03*
X604121D02*
D03*
X597621D02*
D03*
X591121D02*
D03*
X584621D02*
D03*
X571621D02*
D03*
X701621Y457621D02*
D03*
X695121D02*
D03*
X662621D02*
D03*
X656121D02*
D03*
X649621D02*
D03*
X643121D02*
D03*
X636621D02*
D03*
X630121D02*
D03*
X623621D02*
D03*
X617121D02*
D03*
X610621D02*
D03*
X604121D02*
D03*
X591121D02*
D03*
X578121D02*
D03*
X571621D02*
D03*
X662621Y451121D02*
D03*
X656121D02*
D03*
X649621D02*
D03*
X643121D02*
D03*
X630121D02*
D03*
X623621D02*
D03*
X617121D02*
D03*
X610621D02*
D03*
X701621Y444621D02*
D03*
X688621D02*
D03*
X662621D02*
D03*
X656121D02*
D03*
X649621D02*
D03*
X636621D02*
D03*
X623621D02*
D03*
X617121D02*
D03*
X610621D02*
D03*
X584621D02*
D03*
X571621D02*
D03*
X662621Y438121D02*
D03*
X656121D02*
D03*
X649621D02*
D03*
X643121D02*
D03*
X630121D02*
D03*
X623621D02*
D03*
X617121D02*
D03*
X610621D02*
D03*
X701621Y431621D02*
D03*
X695121D02*
D03*
X682121D02*
D03*
X669121D02*
D03*
X662621D02*
D03*
X656121D02*
D03*
X649621D02*
D03*
X643121D02*
D03*
X636621D02*
D03*
X630121D02*
D03*
X623621D02*
D03*
X617121D02*
D03*
X610621D02*
D03*
X604121D02*
D03*
X591121D02*
D03*
X578121D02*
D03*
X571621D02*
D03*
X701621Y425121D02*
D03*
X688621D02*
D03*
X682121D02*
D03*
X675621D02*
D03*
X669121D02*
D03*
X662621D02*
D03*
X656121D02*
D03*
X649621D02*
D03*
X643121D02*
D03*
X636621D02*
D03*
X630121D02*
D03*
X623621D02*
D03*
X617121D02*
D03*
X610621D02*
D03*
X604121D02*
D03*
X597621D02*
D03*
X591121D02*
D03*
X584621D02*
D03*
X571621D02*
D03*
X701621Y418621D02*
D03*
X695121D02*
D03*
X688621D02*
D03*
X682121D02*
D03*
X675621D02*
D03*
X669121D02*
D03*
X662621D02*
D03*
X656121D02*
D03*
X649621D02*
D03*
X643121D02*
D03*
X636621D02*
D03*
X630121D02*
D03*
X623621D02*
D03*
X617121D02*
D03*
X610621D02*
D03*
X604121D02*
D03*
X597621D02*
D03*
X591121D02*
D03*
X584621D02*
D03*
X578121D02*
D03*
X571621D02*
D03*
X701621Y412121D02*
D03*
X695121D02*
D03*
X688621D02*
D03*
X682121D02*
D03*
X675621D02*
D03*
X669121D02*
D03*
X662621D02*
D03*
X656121D02*
D03*
X649621D02*
D03*
X623621D02*
D03*
X617121D02*
D03*
X610621D02*
D03*
X604121D02*
D03*
X597621D02*
D03*
X591121D02*
D03*
X584621D02*
D03*
X578121D02*
D03*
X571621D02*
D03*
X701621Y405621D02*
D03*
X688621D02*
D03*
X682121D02*
D03*
X675621D02*
D03*
X669121D02*
D03*
X662621D02*
D03*
X656121D02*
D03*
X617121D02*
D03*
X610621D02*
D03*
X604121D02*
D03*
X597621D02*
D03*
X591121D02*
D03*
X584621D02*
D03*
X571621D02*
D03*
X701621Y399121D02*
D03*
X695121D02*
D03*
X688621D02*
D03*
X682121D02*
D03*
X675621D02*
D03*
X669121D02*
D03*
X662621D02*
D03*
X656121D02*
D03*
X649621D02*
D03*
X623621D02*
D03*
X617121D02*
D03*
X610621D02*
D03*
X604121D02*
D03*
X597621D02*
D03*
X591121D02*
D03*
X584621D02*
D03*
X578121D02*
D03*
X571621D02*
D03*
X701621Y392621D02*
D03*
X695121D02*
D03*
X688621D02*
D03*
X682121D02*
D03*
X675621D02*
D03*
X669121D02*
D03*
X662621D02*
D03*
X656121D02*
D03*
X636621D02*
D03*
X617121D02*
D03*
X610621D02*
D03*
X604121D02*
D03*
X597621D02*
D03*
X591121D02*
D03*
X584621D02*
D03*
X578121D02*
D03*
X571621D02*
D03*
X701621Y386121D02*
D03*
X695121D02*
D03*
X688621D02*
D03*
X682121D02*
D03*
X669121D02*
D03*
X662621D02*
D03*
X649621D02*
D03*
X623621D02*
D03*
X610621D02*
D03*
X604121D02*
D03*
X591121D02*
D03*
X584621D02*
D03*
X578121D02*
D03*
X571621D02*
D03*
X701621Y379621D02*
D03*
X695121D02*
D03*
X688621D02*
D03*
X682121D02*
D03*
X675621D02*
D03*
X669121D02*
D03*
X662621D02*
D03*
X656121D02*
D03*
X649621D02*
D03*
X636621D02*
D03*
X623621D02*
D03*
X617121D02*
D03*
X610621D02*
D03*
X604121D02*
D03*
X597621D02*
D03*
X591121D02*
D03*
X584621D02*
D03*
X578121D02*
D03*
X571621D02*
D03*
X682121Y457621D02*
D03*
X669121D02*
D03*
D203*
X1009471Y464690D02*
D03*
Y459690D02*
D03*
Y454690D02*
D03*
Y449690D02*
D03*
Y444690D02*
D03*
Y439690D02*
D03*
Y434690D02*
D03*
Y419690D02*
D03*
Y414690D02*
D03*
Y409690D02*
D03*
Y404690D02*
D03*
Y399690D02*
D03*
Y394690D02*
D03*
Y389690D02*
D03*
Y384690D02*
D03*
Y379690D02*
D03*
Y374690D02*
D03*
Y369690D02*
D03*
Y364690D02*
D03*
Y359690D02*
D03*
Y354690D02*
D03*
Y349690D02*
D03*
Y344690D02*
D03*
Y339690D02*
D03*
Y334690D02*
D03*
Y329690D02*
D03*
Y324690D02*
D03*
Y319690D02*
D03*
Y314690D02*
D03*
Y309690D02*
D03*
Y304690D02*
D03*
Y299690D02*
D03*
Y294690D02*
D03*
Y289690D02*
D03*
X1220471D02*
D03*
Y294690D02*
D03*
Y299690D02*
D03*
Y304690D02*
D03*
Y309690D02*
D03*
Y314690D02*
D03*
Y319690D02*
D03*
Y324690D02*
D03*
Y329690D02*
D03*
Y334690D02*
D03*
Y339690D02*
D03*
Y344690D02*
D03*
Y349690D02*
D03*
Y354690D02*
D03*
Y359690D02*
D03*
Y364690D02*
D03*
Y369690D02*
D03*
Y374690D02*
D03*
Y379690D02*
D03*
Y384690D02*
D03*
Y389690D02*
D03*
Y394690D02*
D03*
Y399690D02*
D03*
Y404690D02*
D03*
Y409690D02*
D03*
Y414690D02*
D03*
Y419690D02*
D03*
Y424690D02*
D03*
Y429690D02*
D03*
Y434690D02*
D03*
Y439690D02*
D03*
Y444690D02*
D03*
Y449690D02*
D03*
Y454690D02*
D03*
Y459690D02*
D03*
Y464690D02*
D03*
X1009471Y424690D02*
D03*
Y429690D02*
D03*
D204*
X1027471Y271190D02*
D03*
X1032471D02*
D03*
X1037471D02*
D03*
X1042471D02*
D03*
X1047471D02*
D03*
X1052471D02*
D03*
X1057471D02*
D03*
X1062471D02*
D03*
X1067471D02*
D03*
X1072471D02*
D03*
X1077471D02*
D03*
X1082471D02*
D03*
X1087471D02*
D03*
X1092471D02*
D03*
X1097471D02*
D03*
X1102471D02*
D03*
X1107471D02*
D03*
X1112471D02*
D03*
X1117471D02*
D03*
X1122471D02*
D03*
X1127471D02*
D03*
X1132471D02*
D03*
X1137471D02*
D03*
X1142471D02*
D03*
X1147471D02*
D03*
X1152471D02*
D03*
X1157471D02*
D03*
X1162471D02*
D03*
X1167471D02*
D03*
X1172471D02*
D03*
X1177471D02*
D03*
X1182471D02*
D03*
X1187471D02*
D03*
X1192471D02*
D03*
X1197471D02*
D03*
X1202471D02*
D03*
Y483190D02*
D03*
X1197471D02*
D03*
X1192471D02*
D03*
X1187471D02*
D03*
X1182471D02*
D03*
X1177471D02*
D03*
X1172471D02*
D03*
X1167471D02*
D03*
X1162471D02*
D03*
X1157471D02*
D03*
X1152471D02*
D03*
X1147471D02*
D03*
X1142471D02*
D03*
X1137471D02*
D03*
X1132471D02*
D03*
X1127471D02*
D03*
X1122471D02*
D03*
X1117471D02*
D03*
X1112471D02*
D03*
X1107471D02*
D03*
X1102471D02*
D03*
X1097471D02*
D03*
X1092471D02*
D03*
X1087471D02*
D03*
X1082471D02*
D03*
X1077471D02*
D03*
X1072471D02*
D03*
X1067471D02*
D03*
X1062471D02*
D03*
X1057471D02*
D03*
X1052471D02*
D03*
X1047471D02*
D03*
X1042471D02*
D03*
X1037471D02*
D03*
X1032471D02*
D03*
X1027471D02*
D03*
D205*
X167640Y156210D02*
D03*
X195640D02*
D03*
X246440D02*
D03*
X218440D02*
D03*
X66010Y345440D02*
D03*
X94010D02*
D03*
X66010Y438150D02*
D03*
X94010D02*
D03*
X94846Y538158D02*
D03*
X66846D02*
D03*
X221008Y352116D02*
D03*
X193008D02*
D03*
X221010Y394800D02*
D03*
X193010D02*
D03*
X218440Y113030D02*
D03*
X246440D02*
D03*
X115540D02*
D03*
X143540D02*
D03*
X221010Y198120D02*
D03*
X193010D02*
D03*
X92740Y156210D02*
D03*
X64740D02*
D03*
X93980Y250190D02*
D03*
X65980D02*
D03*
X116700Y207021D02*
D03*
X144700D02*
D03*
X116780Y250190D02*
D03*
X144780D02*
D03*
X116810Y345440D02*
D03*
X144810D02*
D03*
X116780Y302340D02*
D03*
X144780D02*
D03*
X116810Y438150D02*
D03*
X144810D02*
D03*
X116810Y395050D02*
D03*
X144810D02*
D03*
X145646Y495057D02*
D03*
X117647D02*
D03*
X145646Y538158D02*
D03*
X117647D02*
D03*
X117797Y594360D02*
D03*
X145797D02*
D03*
X94997Y637460D02*
D03*
X66997D02*
D03*
X117797D02*
D03*
X145797D02*
D03*
X94222Y702362D02*
D03*
X66222D02*
D03*
X117022Y702362D02*
D03*
X145022D02*
D03*
X218482Y702362D02*
D03*
X246482D02*
D03*
X221010Y550418D02*
D03*
X193010D02*
D03*
X115540Y156210D02*
D03*
X143540D02*
D03*
X195682Y702362D02*
D03*
X167682D02*
D03*
D206*
X1229314Y586772D02*
D03*
X1195703Y586740D02*
D03*
X930609Y613378D02*
D03*
X964220Y613410D02*
D03*
X964731Y586772D02*
D03*
X931120Y586740D02*
D03*
X1721819Y613378D02*
D03*
X1755430Y613410D02*
D03*
X1755940Y586772D02*
D03*
X1722330Y586740D02*
D03*
X1018663Y586772D02*
D03*
X985053Y586740D02*
D03*
X1071326Y586772D02*
D03*
X1037715Y586740D02*
D03*
X1123988Y586772D02*
D03*
X1090378Y586740D02*
D03*
X1176651Y586772D02*
D03*
X1143040Y586740D02*
D03*
X1281976Y586772D02*
D03*
X1248366Y586740D02*
D03*
X1334639Y586772D02*
D03*
X1301028Y586740D02*
D03*
X984542Y613378D02*
D03*
X1018153Y613410D02*
D03*
X1037205Y613378D02*
D03*
X1070815Y613410D02*
D03*
X1089867Y613378D02*
D03*
X1123478Y613410D02*
D03*
X1142530Y613378D02*
D03*
X1176141Y613410D02*
D03*
X1195193Y613378D02*
D03*
X1228803Y613410D02*
D03*
X1247855Y613378D02*
D03*
X1281466Y613410D02*
D03*
X1300518Y613378D02*
D03*
X1334128Y613410D02*
D03*
X1387302Y586772D02*
D03*
X1353691Y586740D02*
D03*
X1439964Y586772D02*
D03*
X1406354Y586740D02*
D03*
X1492627Y586772D02*
D03*
X1459016Y586740D02*
D03*
X1545289Y586772D02*
D03*
X1511679Y586740D02*
D03*
X1597952Y586772D02*
D03*
X1564342Y586740D02*
D03*
X1650615Y586772D02*
D03*
X1617004Y586740D02*
D03*
X1703277Y586772D02*
D03*
X1669667Y586740D02*
D03*
X1353181Y613378D02*
D03*
X1386791Y613410D02*
D03*
X1405843Y613378D02*
D03*
X1439454Y613410D02*
D03*
X1458506Y613378D02*
D03*
X1492116Y613410D02*
D03*
X1511168Y613378D02*
D03*
X1544779Y613410D02*
D03*
X1563831Y613378D02*
D03*
X1597442Y613410D02*
D03*
X1616494Y613378D02*
D03*
X1650104Y613410D02*
D03*
X1669156Y613378D02*
D03*
X1702767Y613410D02*
D03*
D207*
X1675500Y68000D02*
D03*
X1663000D02*
D03*
X1650500D02*
D03*
X1638000D02*
D03*
X1625500D02*
D03*
X1613000D02*
D03*
X1528903D02*
D03*
X1516403D02*
D03*
X1503903D02*
D03*
X1491403D02*
D03*
X1478903D02*
D03*
X1466403D02*
D03*
X1382307D02*
D03*
X1369807D02*
D03*
X1357307D02*
D03*
X1344807D02*
D03*
X1332307D02*
D03*
X1319807D02*
D03*
X1235710D02*
D03*
X1223210D02*
D03*
X1210710D02*
D03*
X1198210D02*
D03*
X1185710D02*
D03*
X1173210D02*
D03*
D208*
X1701000Y39000D02*
D03*
X1587500D02*
D03*
X1554403D02*
D03*
X1440903D02*
D03*
X1407807D02*
D03*
X1294307D02*
D03*
X1261210D02*
D03*
X1147710D02*
D03*
D209*
X919297Y44195D02*
D03*
X944697Y73396D02*
D03*
X970097Y44195D02*
D03*
X995497Y73396D02*
D03*
X1020897Y44195D02*
D03*
X1046297Y73396D02*
D03*
X1071697Y44195D02*
D03*
X1097097Y73396D02*
D03*
X481838Y755524D02*
D03*
X456438Y726324D02*
D03*
X431038Y755524D02*
D03*
X405638Y726324D02*
D03*
X380238Y755524D02*
D03*
X354838Y726324D02*
D03*
X329438Y755524D02*
D03*
X304038Y726324D02*
D03*
D210*
X402850Y154900D02*
D03*
X444750D02*
D03*
D211*
X476550Y110600D02*
D03*
D212*
X476550Y142450D02*
D03*
X370050Y148150D02*
D03*
D213*
Y122050D02*
D03*
D214*
X370200Y109350D02*
D03*
D215*
X464800Y82550D02*
D03*
X453800D02*
D03*
X442800D02*
D03*
X431800D02*
D03*
X420800D02*
D03*
X409800D02*
D03*
X398800D02*
D03*
X387800D02*
D03*
D216*
X429090Y502610D02*
D03*
Y512610D02*
D03*
Y582610D02*
D03*
Y592610D02*
D03*
X419090Y502610D02*
D03*
Y592610D02*
D03*
X399090Y512610D02*
D03*
Y522610D02*
D03*
Y532610D02*
D03*
Y542610D02*
D03*
Y552610D02*
D03*
Y562610D02*
D03*
Y572610D02*
D03*
Y582610D02*
D03*
X389090Y512610D02*
D03*
Y522610D02*
D03*
Y532610D02*
D03*
Y542610D02*
D03*
Y552610D02*
D03*
Y562610D02*
D03*
Y572610D02*
D03*
Y582610D02*
D03*
X379090Y512610D02*
D03*
Y522610D02*
D03*
Y532610D02*
D03*
Y542610D02*
D03*
Y552610D02*
D03*
Y562610D02*
D03*
Y572610D02*
D03*
Y582610D02*
D03*
X369090Y512610D02*
D03*
Y522610D02*
D03*
Y532610D02*
D03*
Y542610D02*
D03*
Y552610D02*
D03*
Y562610D02*
D03*
Y572610D02*
D03*
Y582610D02*
D03*
X359090Y512610D02*
D03*
Y522610D02*
D03*
Y532610D02*
D03*
Y542610D02*
D03*
Y552610D02*
D03*
Y562610D02*
D03*
Y572610D02*
D03*
Y582610D02*
D03*
X349090Y512610D02*
D03*
Y522610D02*
D03*
Y532610D02*
D03*
Y542610D02*
D03*
Y552610D02*
D03*
Y562610D02*
D03*
Y572610D02*
D03*
Y582610D02*
D03*
X339090Y512610D02*
D03*
Y522610D02*
D03*
Y532610D02*
D03*
Y542610D02*
D03*
Y552610D02*
D03*
Y562610D02*
D03*
Y572610D02*
D03*
Y582610D02*
D03*
X329090Y512610D02*
D03*
Y522610D02*
D03*
Y532610D02*
D03*
Y542610D02*
D03*
Y552610D02*
D03*
Y562610D02*
D03*
Y572610D02*
D03*
Y582610D02*
D03*
X319090Y512610D02*
D03*
Y522610D02*
D03*
Y532610D02*
D03*
Y542610D02*
D03*
Y552610D02*
D03*
Y562610D02*
D03*
Y572610D02*
D03*
Y582610D02*
D03*
X309090Y512610D02*
D03*
Y522610D02*
D03*
Y532610D02*
D03*
Y542610D02*
D03*
Y552610D02*
D03*
Y562610D02*
D03*
Y572610D02*
D03*
Y582610D02*
D03*
X299090Y512610D02*
D03*
Y522610D02*
D03*
Y532610D02*
D03*
Y542610D02*
D03*
Y552610D02*
D03*
Y562610D02*
D03*
Y572610D02*
D03*
Y582610D02*
D03*
X279090Y502610D02*
D03*
Y592610D02*
D03*
X269090Y502610D02*
D03*
Y512610D02*
D03*
Y582610D02*
D03*
Y592610D02*
D03*
D217*
X791036Y460286D02*
D03*
X775410Y475911D02*
D03*
X787444Y487945D02*
D03*
X803070Y472319D02*
D03*
D218*
X812873Y456443D02*
D03*
X809161Y452731D02*
D03*
D219*
X809497Y489749D02*
D03*
X805785Y493461D02*
D03*
D220*
X626618Y323596D02*
D03*
X611378D02*
D03*
X1214031Y527738D02*
D03*
X1229271D02*
D03*
D221*
X713351Y328621D02*
D03*
D222*
X947219Y637172D02*
D03*
Y698272D02*
D03*
X1001152Y637172D02*
D03*
Y698272D02*
D03*
X1053815Y637172D02*
D03*
Y698272D02*
D03*
X1106477Y637172D02*
D03*
Y698272D02*
D03*
X1159140Y637172D02*
D03*
Y698272D02*
D03*
X1211803Y637172D02*
D03*
Y698272D02*
D03*
X1264465Y637172D02*
D03*
Y698272D02*
D03*
X1317128Y637172D02*
D03*
Y698272D02*
D03*
X1369790Y637172D02*
D03*
Y698272D02*
D03*
X1422453Y637172D02*
D03*
Y698272D02*
D03*
X1475116Y637172D02*
D03*
Y698272D02*
D03*
X1527778Y637172D02*
D03*
Y698272D02*
D03*
X1580441Y637172D02*
D03*
Y698272D02*
D03*
X1633104Y637172D02*
D03*
Y698272D02*
D03*
X1685766Y637172D02*
D03*
Y698272D02*
D03*
X1738429Y637172D02*
D03*
Y698272D02*
D03*
D223*
X949783Y538621D02*
D03*
Y500621D02*
D03*
X972783D02*
D03*
Y538621D02*
D03*
X607822Y33114D02*
D03*
X540322D02*
D03*
D224*
X560102Y105109D02*
D03*
X560070Y138720D02*
D03*
X719977Y105109D02*
D03*
X719945Y138720D02*
D03*
X597403Y105109D02*
D03*
X597372Y138720D02*
D03*
X755669Y105109D02*
D03*
X755638Y138720D02*
D03*
X634705Y105109D02*
D03*
X634673Y138720D02*
D03*
X791363Y105109D02*
D03*
X791331Y138720D02*
D03*
X672007Y105109D02*
D03*
X671975Y138720D02*
D03*
X827056Y105109D02*
D03*
X827024Y138720D02*
D03*
D225*
X558578Y33114D02*
D03*
D226*
X585572D02*
D03*
D227*
X549197Y58864D02*
D03*
X598947D02*
D03*
D228*
X587072Y59714D02*
D03*
X580572D02*
D03*
X574072D02*
D03*
X567572D02*
D03*
X561072D02*
D03*
D229*
X114397Y669185D02*
D03*
X96397D02*
D03*
X216587D02*
D03*
X198587D02*
D03*
M02*
