G04*
G04 #@! TF.GenerationSoftware,Altium Limited,Altium Designer,24.1.2 (44)*
G04*
G04 Layer_Color=255*
%FSLAX44Y44*%
%MOMM*%
G71*
G04*
G04 #@! TF.SameCoordinates,08E163FE-A1B1-404E-B758-27256C6DDFFB*
G04*
G04*
G04 #@! TF.FilePolarity,Positive*
G04*
G01*
G75*
%ADD18R,0.6000X1.0000*%
%ADD19R,1.2500X1.8000*%
G04:AMPARAMS|DCode=20|XSize=0.275mm|YSize=0.3mm|CornerRadius=0.0688mm|HoleSize=0mm|Usage=FLASHONLY|Rotation=90.000|XOffset=0mm|YOffset=0mm|HoleType=Round|Shape=RoundedRectangle|*
%AMROUNDEDRECTD20*
21,1,0.2750,0.1625,0,0,90.0*
21,1,0.1375,0.3000,0,0,90.0*
1,1,0.1375,0.0813,0.0688*
1,1,0.1375,0.0813,-0.0688*
1,1,0.1375,-0.0813,-0.0688*
1,1,0.1375,-0.0813,0.0688*
%
%ADD20ROUNDEDRECTD20*%
G04:AMPARAMS|DCode=21|XSize=0.275mm|YSize=0.3mm|CornerRadius=0.0688mm|HoleSize=0mm|Usage=FLASHONLY|Rotation=0.000|XOffset=0mm|YOffset=0mm|HoleType=Round|Shape=RoundedRectangle|*
%AMROUNDEDRECTD21*
21,1,0.2750,0.1625,0,0,0.0*
21,1,0.1375,0.3000,0,0,0.0*
1,1,0.1375,0.0688,-0.0813*
1,1,0.1375,-0.0688,-0.0813*
1,1,0.1375,-0.0688,0.0813*
1,1,0.1375,0.0688,0.0813*
%
%ADD21ROUNDEDRECTD21*%
G04:AMPARAMS|DCode=22|XSize=0.55mm|YSize=0.6mm|CornerRadius=0.1375mm|HoleSize=0mm|Usage=FLASHONLY|Rotation=0.000|XOffset=0mm|YOffset=0mm|HoleType=Round|Shape=RoundedRectangle|*
%AMROUNDEDRECTD22*
21,1,0.5500,0.3250,0,0,0.0*
21,1,0.2750,0.6000,0,0,0.0*
1,1,0.2750,0.1375,-0.1625*
1,1,0.2750,-0.1375,-0.1625*
1,1,0.2750,-0.1375,0.1625*
1,1,0.2750,0.1375,0.1625*
%
%ADD22ROUNDEDRECTD22*%
G04:AMPARAMS|DCode=23|XSize=0.55mm|YSize=0.6mm|CornerRadius=0.1375mm|HoleSize=0mm|Usage=FLASHONLY|Rotation=90.000|XOffset=0mm|YOffset=0mm|HoleType=Round|Shape=RoundedRectangle|*
%AMROUNDEDRECTD23*
21,1,0.5500,0.3250,0,0,90.0*
21,1,0.2750,0.6000,0,0,90.0*
1,1,0.2750,0.1625,0.1375*
1,1,0.2750,0.1625,-0.1375*
1,1,0.2750,-0.1625,-0.1375*
1,1,0.2750,-0.1625,0.1375*
%
%ADD23ROUNDEDRECTD23*%
%ADD24R,1.0000X0.3500*%
%ADD25R,1.0000X0.5000*%
%ADD26R,2.1000X3.0000*%
%ADD27R,0.8000X1.6000*%
G04:AMPARAMS|DCode=28|XSize=0.9mm|YSize=0.8mm|CornerRadius=0.2mm|HoleSize=0mm|Usage=FLASHONLY|Rotation=90.000|XOffset=0mm|YOffset=0mm|HoleType=Round|Shape=RoundedRectangle|*
%AMROUNDEDRECTD28*
21,1,0.9000,0.4000,0,0,90.0*
21,1,0.5000,0.8000,0,0,90.0*
1,1,0.4000,0.2000,0.2500*
1,1,0.4000,0.2000,-0.2500*
1,1,0.4000,-0.2000,-0.2500*
1,1,0.4000,-0.2000,0.2500*
%
%ADD28ROUNDEDRECTD28*%
G04:AMPARAMS|DCode=29|XSize=1.65mm|YSize=2.55mm|CornerRadius=0.2475mm|HoleSize=0mm|Usage=FLASHONLY|Rotation=90.000|XOffset=0mm|YOffset=0mm|HoleType=Round|Shape=RoundedRectangle|*
%AMROUNDEDRECTD29*
21,1,1.6500,2.0550,0,0,90.0*
21,1,1.1550,2.5500,0,0,90.0*
1,1,0.4950,1.0275,0.5775*
1,1,0.4950,1.0275,-0.5775*
1,1,0.4950,-1.0275,-0.5775*
1,1,0.4950,-1.0275,0.5775*
%
%ADD29ROUNDEDRECTD29*%
G04:AMPARAMS|DCode=30|XSize=1.64mm|YSize=0.59mm|CornerRadius=0.1475mm|HoleSize=0mm|Usage=FLASHONLY|Rotation=180.000|XOffset=0mm|YOffset=0mm|HoleType=Round|Shape=RoundedRectangle|*
%AMROUNDEDRECTD30*
21,1,1.6400,0.2950,0,0,180.0*
21,1,1.3450,0.5900,0,0,180.0*
1,1,0.2950,-0.6725,0.1475*
1,1,0.2950,0.6725,0.1475*
1,1,0.2950,0.6725,-0.1475*
1,1,0.2950,-0.6725,-0.1475*
%
%ADD30ROUNDEDRECTD30*%
%ADD31R,3.7000X3.7000*%
G04:AMPARAMS|DCode=32|XSize=0.3mm|YSize=0.7mm|CornerRadius=0.075mm|HoleSize=0mm|Usage=FLASHONLY|Rotation=90.000|XOffset=0mm|YOffset=0mm|HoleType=Round|Shape=RoundedRectangle|*
%AMROUNDEDRECTD32*
21,1,0.3000,0.5500,0,0,90.0*
21,1,0.1500,0.7000,0,0,90.0*
1,1,0.1500,0.2750,0.0750*
1,1,0.1500,0.2750,-0.0750*
1,1,0.1500,-0.2750,-0.0750*
1,1,0.1500,-0.2750,0.0750*
%
%ADD32ROUNDEDRECTD32*%
G04:AMPARAMS|DCode=33|XSize=0.3mm|YSize=0.7mm|CornerRadius=0.075mm|HoleSize=0mm|Usage=FLASHONLY|Rotation=0.000|XOffset=0mm|YOffset=0mm|HoleType=Round|Shape=RoundedRectangle|*
%AMROUNDEDRECTD33*
21,1,0.3000,0.5500,0,0,0.0*
21,1,0.1500,0.7000,0,0,0.0*
1,1,0.1500,0.0750,-0.2750*
1,1,0.1500,-0.0750,-0.2750*
1,1,0.1500,-0.0750,0.2750*
1,1,0.1500,0.0750,0.2750*
%
%ADD33ROUNDEDRECTD33*%
G04:AMPARAMS|DCode=35|XSize=0.35mm|YSize=0.8mm|CornerRadius=0.0875mm|HoleSize=0mm|Usage=FLASHONLY|Rotation=180.000|XOffset=0mm|YOffset=0mm|HoleType=Round|Shape=RoundedRectangle|*
%AMROUNDEDRECTD35*
21,1,0.3500,0.6250,0,0,180.0*
21,1,0.1750,0.8000,0,0,180.0*
1,1,0.1750,-0.0875,0.3125*
1,1,0.1750,0.0875,0.3125*
1,1,0.1750,0.0875,-0.3125*
1,1,0.1750,-0.0875,-0.3125*
%
%ADD35ROUNDEDRECTD35*%
G04:AMPARAMS|DCode=36|XSize=0.35mm|YSize=0.8mm|CornerRadius=0.0875mm|HoleSize=0mm|Usage=FLASHONLY|Rotation=270.000|XOffset=0mm|YOffset=0mm|HoleType=Round|Shape=RoundedRectangle|*
%AMROUNDEDRECTD36*
21,1,0.3500,0.6250,0,0,270.0*
21,1,0.1750,0.8000,0,0,270.0*
1,1,0.1750,-0.3125,-0.0875*
1,1,0.1750,-0.3125,0.0875*
1,1,0.1750,0.3125,0.0875*
1,1,0.1750,0.3125,-0.0875*
%
%ADD36ROUNDEDRECTD36*%
G04:AMPARAMS|DCode=37|XSize=1.32mm|YSize=0.6mm|CornerRadius=0.075mm|HoleSize=0mm|Usage=FLASHONLY|Rotation=270.000|XOffset=0mm|YOffset=0mm|HoleType=Round|Shape=RoundedRectangle|*
%AMROUNDEDRECTD37*
21,1,1.3200,0.4500,0,0,270.0*
21,1,1.1700,0.6000,0,0,270.0*
1,1,0.1500,-0.2250,-0.5850*
1,1,0.1500,-0.2250,0.5850*
1,1,0.1500,0.2250,0.5850*
1,1,0.1500,0.2250,-0.5850*
%
%ADD37ROUNDEDRECTD37*%
%ADD38R,1.0000X1.5000*%
%ADD39R,0.2500X0.6500*%
%ADD40R,0.6500X0.3000*%
%ADD41R,0.7000X1.0000*%
%ADD42R,0.6500X0.2500*%
%ADD43R,0.6500X0.2286*%
%ADD44O,1.4000X0.3500*%
%ADD45R,0.6604X1.0414*%
%ADD46R,1.2954X1.8542*%
%ADD47R,0.4318X1.3335*%
G04:AMPARAMS|DCode=48|XSize=1.97mm|YSize=0.6mm|CornerRadius=0.075mm|HoleSize=0mm|Usage=FLASHONLY|Rotation=270.000|XOffset=0mm|YOffset=0mm|HoleType=Round|Shape=RoundedRectangle|*
%AMROUNDEDRECTD48*
21,1,1.9700,0.4500,0,0,270.0*
21,1,1.8200,0.6000,0,0,270.0*
1,1,0.1500,-0.2250,-0.9100*
1,1,0.1500,-0.2250,0.9100*
1,1,0.1500,0.2250,0.9100*
1,1,0.1500,0.2250,-0.9100*
%
%ADD48ROUNDEDRECTD48*%
%ADD49R,0.6100X0.3500*%
%ADD50R,0.3500X0.6100*%
%ADD51R,0.2794X0.2540*%
%ADD52R,0.2540X0.2794*%
%ADD53R,0.5000X0.8000*%
G04:AMPARAMS|DCode=54|XSize=1.4097mm|YSize=0.3556mm|CornerRadius=0.0889mm|HoleSize=0mm|Usage=FLASHONLY|Rotation=180.000|XOffset=0mm|YOffset=0mm|HoleType=Round|Shape=RoundedRectangle|*
%AMROUNDEDRECTD54*
21,1,1.4097,0.1778,0,0,180.0*
21,1,1.2319,0.3556,0,0,180.0*
1,1,0.1778,-0.6160,0.0889*
1,1,0.1778,0.6160,0.0889*
1,1,0.1778,0.6160,-0.0889*
1,1,0.1778,-0.6160,-0.0889*
%
%ADD54ROUNDEDRECTD54*%
G04:AMPARAMS|DCode=55|XSize=1.4605mm|YSize=0.5588mm|CornerRadius=0.1397mm|HoleSize=0mm|Usage=FLASHONLY|Rotation=0.000|XOffset=0mm|YOffset=0mm|HoleType=Round|Shape=RoundedRectangle|*
%AMROUNDEDRECTD55*
21,1,1.4605,0.2794,0,0,0.0*
21,1,1.1811,0.5588,0,0,0.0*
1,1,0.2794,0.5906,-0.1397*
1,1,0.2794,-0.5906,-0.1397*
1,1,0.2794,-0.5906,0.1397*
1,1,0.2794,0.5906,0.1397*
%
%ADD55ROUNDEDRECTD55*%
%ADD56C,1.0000*%
G04:AMPARAMS|DCode=57|XSize=1.2mm|YSize=1.3mm|CornerRadius=0.246mm|HoleSize=0mm|Usage=FLASHONLY|Rotation=90.000|XOffset=0mm|YOffset=0mm|HoleType=Round|Shape=RoundedRectangle|*
%AMROUNDEDRECTD57*
21,1,1.2000,0.8080,0,0,90.0*
21,1,0.7080,1.3000,0,0,90.0*
1,1,0.4920,0.4040,0.3540*
1,1,0.4920,0.4040,-0.3540*
1,1,0.4920,-0.4040,-0.3540*
1,1,0.4920,-0.4040,0.3540*
%
%ADD57ROUNDEDRECTD57*%
G04:AMPARAMS|DCode=58|XSize=1.21mm|YSize=0.59mm|CornerRadius=0.0738mm|HoleSize=0mm|Usage=FLASHONLY|Rotation=180.000|XOffset=0mm|YOffset=0mm|HoleType=Round|Shape=RoundedRectangle|*
%AMROUNDEDRECTD58*
21,1,1.2100,0.4425,0,0,180.0*
21,1,1.0625,0.5900,0,0,180.0*
1,1,0.1475,-0.5313,0.2213*
1,1,0.1475,0.5313,0.2213*
1,1,0.1475,0.5313,-0.2213*
1,1,0.1475,-0.5313,-0.2213*
%
%ADD58ROUNDEDRECTD58*%
G04:AMPARAMS|DCode=60|XSize=1.64mm|YSize=0.59mm|CornerRadius=0.1475mm|HoleSize=0mm|Usage=FLASHONLY|Rotation=90.000|XOffset=0mm|YOffset=0mm|HoleType=Round|Shape=RoundedRectangle|*
%AMROUNDEDRECTD60*
21,1,1.6400,0.2950,0,0,90.0*
21,1,1.3450,0.5900,0,0,90.0*
1,1,0.2950,0.1475,0.6725*
1,1,0.2950,0.1475,-0.6725*
1,1,0.2950,-0.1475,-0.6725*
1,1,0.2950,-0.1475,0.6725*
%
%ADD60ROUNDEDRECTD60*%
G04:AMPARAMS|DCode=61|XSize=1.5mm|YSize=0.45mm|CornerRadius=0.1125mm|HoleSize=0mm|Usage=FLASHONLY|Rotation=270.000|XOffset=0mm|YOffset=0mm|HoleType=Round|Shape=RoundedRectangle|*
%AMROUNDEDRECTD61*
21,1,1.5000,0.2250,0,0,270.0*
21,1,1.2750,0.4500,0,0,270.0*
1,1,0.2250,-0.1125,-0.6375*
1,1,0.2250,-0.1125,0.6375*
1,1,0.2250,0.1125,0.6375*
1,1,0.2250,0.1125,-0.6375*
%
%ADD61ROUNDEDRECTD61*%
G04:AMPARAMS|DCode=63|XSize=0.26mm|YSize=0.83mm|CornerRadius=0.0091mm|HoleSize=0mm|Usage=FLASHONLY|Rotation=90.000|XOffset=0mm|YOffset=0mm|HoleType=Round|Shape=RoundedRectangle|*
%AMROUNDEDRECTD63*
21,1,0.2600,0.8118,0,0,90.0*
21,1,0.2418,0.8300,0,0,90.0*
1,1,0.0182,0.4059,0.1209*
1,1,0.0182,0.4059,-0.1209*
1,1,0.0182,-0.4059,-0.1209*
1,1,0.0182,-0.4059,0.1209*
%
%ADD63ROUNDEDRECTD63*%
G04:AMPARAMS|DCode=64|XSize=0.83mm|YSize=0.26mm|CornerRadius=0.0091mm|HoleSize=0mm|Usage=FLASHONLY|Rotation=90.000|XOffset=0mm|YOffset=0mm|HoleType=Round|Shape=RoundedRectangle|*
%AMROUNDEDRECTD64*
21,1,0.8300,0.2418,0,0,90.0*
21,1,0.8118,0.2600,0,0,90.0*
1,1,0.0182,0.1209,0.4059*
1,1,0.0182,0.1209,-0.4059*
1,1,0.0182,-0.1209,-0.4059*
1,1,0.0182,-0.1209,0.4059*
%
%ADD64ROUNDEDRECTD64*%
G04:AMPARAMS|DCode=66|XSize=0.86mm|YSize=0.22mm|CornerRadius=0.055mm|HoleSize=0mm|Usage=FLASHONLY|Rotation=90.000|XOffset=0mm|YOffset=0mm|HoleType=Round|Shape=RoundedRectangle|*
%AMROUNDEDRECTD66*
21,1,0.8600,0.1100,0,0,90.0*
21,1,0.7500,0.2200,0,0,90.0*
1,1,0.1100,0.0550,0.3750*
1,1,0.1100,0.0550,-0.3750*
1,1,0.1100,-0.0550,-0.3750*
1,1,0.1100,-0.0550,0.3750*
%
%ADD66ROUNDEDRECTD66*%
G04:AMPARAMS|DCode=67|XSize=0.86mm|YSize=0.22mm|CornerRadius=0.055mm|HoleSize=0mm|Usage=FLASHONLY|Rotation=0.000|XOffset=0mm|YOffset=0mm|HoleType=Round|Shape=RoundedRectangle|*
%AMROUNDEDRECTD67*
21,1,0.8600,0.1100,0,0,0.0*
21,1,0.7500,0.2200,0,0,0.0*
1,1,0.1100,0.3750,-0.0550*
1,1,0.1100,-0.3750,-0.0550*
1,1,0.1100,-0.3750,0.0550*
1,1,0.1100,0.3750,0.0550*
%
%ADD67ROUNDEDRECTD67*%
G04:AMPARAMS|DCode=68|XSize=1.21mm|YSize=0.59mm|CornerRadius=0.0738mm|HoleSize=0mm|Usage=FLASHONLY|Rotation=90.000|XOffset=0mm|YOffset=0mm|HoleType=Round|Shape=RoundedRectangle|*
%AMROUNDEDRECTD68*
21,1,1.2100,0.4425,0,0,90.0*
21,1,1.0625,0.5900,0,0,90.0*
1,1,0.1475,0.2213,0.5313*
1,1,0.1475,0.2213,-0.5313*
1,1,0.1475,-0.2213,-0.5313*
1,1,0.1475,-0.2213,0.5313*
%
%ADD68ROUNDEDRECTD68*%
G04:AMPARAMS|DCode=69|XSize=0.65mm|YSize=0.9mm|CornerRadius=0.1625mm|HoleSize=0mm|Usage=FLASHONLY|Rotation=180.000|XOffset=0mm|YOffset=0mm|HoleType=Round|Shape=RoundedRectangle|*
%AMROUNDEDRECTD69*
21,1,0.6500,0.5750,0,0,180.0*
21,1,0.3250,0.9000,0,0,180.0*
1,1,0.3250,-0.1625,0.2875*
1,1,0.3250,0.1625,0.2875*
1,1,0.3250,0.1625,-0.2875*
1,1,0.3250,-0.1625,-0.2875*
%
%ADD69ROUNDEDRECTD69*%
G04:AMPARAMS|DCode=70|XSize=0.95mm|YSize=0.75mm|CornerRadius=0.1875mm|HoleSize=0mm|Usage=FLASHONLY|Rotation=270.000|XOffset=0mm|YOffset=0mm|HoleType=Round|Shape=RoundedRectangle|*
%AMROUNDEDRECTD70*
21,1,0.9500,0.3750,0,0,270.0*
21,1,0.5750,0.7500,0,0,270.0*
1,1,0.3750,-0.1875,-0.2875*
1,1,0.3750,-0.1875,0.2875*
1,1,0.3750,0.1875,0.2875*
1,1,0.3750,0.1875,-0.2875*
%
%ADD70ROUNDEDRECTD70*%
G04:AMPARAMS|DCode=71|XSize=0.5mm|YSize=0.7mm|CornerRadius=0.125mm|HoleSize=0mm|Usage=FLASHONLY|Rotation=0.000|XOffset=0mm|YOffset=0mm|HoleType=Round|Shape=RoundedRectangle|*
%AMROUNDEDRECTD71*
21,1,0.5000,0.4500,0,0,0.0*
21,1,0.2500,0.7000,0,0,0.0*
1,1,0.2500,0.1250,-0.2250*
1,1,0.2500,-0.1250,-0.2250*
1,1,0.2500,-0.1250,0.2250*
1,1,0.2500,0.1250,0.2250*
%
%ADD71ROUNDEDRECTD71*%
G04:AMPARAMS|DCode=72|XSize=1.32mm|YSize=0.6mm|CornerRadius=0.075mm|HoleSize=0mm|Usage=FLASHONLY|Rotation=180.000|XOffset=0mm|YOffset=0mm|HoleType=Round|Shape=RoundedRectangle|*
%AMROUNDEDRECTD72*
21,1,1.3200,0.4500,0,0,180.0*
21,1,1.1700,0.6000,0,0,180.0*
1,1,0.1500,-0.5850,0.2250*
1,1,0.1500,0.5850,0.2250*
1,1,0.1500,0.5850,-0.2250*
1,1,0.1500,-0.5850,-0.2250*
%
%ADD72ROUNDEDRECTD72*%
%ADD73R,1.4732X0.5588*%
%ADD74R,2.4000X0.9000*%
G04:AMPARAMS|DCode=75|XSize=1.55mm|YSize=0.6mm|CornerRadius=0.03mm|HoleSize=0mm|Usage=FLASHONLY|Rotation=270.000|XOffset=0mm|YOffset=0mm|HoleType=Round|Shape=RoundedRectangle|*
%AMROUNDEDRECTD75*
21,1,1.5500,0.5400,0,0,270.0*
21,1,1.4900,0.6000,0,0,270.0*
1,1,0.0600,-0.2700,-0.7450*
1,1,0.0600,-0.2700,0.7450*
1,1,0.0600,0.2700,0.7450*
1,1,0.0600,0.2700,-0.7450*
%
%ADD75ROUNDEDRECTD75*%
%ADD76R,4.9000X2.9500*%
%ADD77R,3.5000X2.9500*%
G04:AMPARAMS|DCode=79|XSize=1.05mm|YSize=0.34mm|CornerRadius=0.0425mm|HoleSize=0mm|Usage=FLASHONLY|Rotation=0.000|XOffset=0mm|YOffset=0mm|HoleType=Round|Shape=RoundedRectangle|*
%AMROUNDEDRECTD79*
21,1,1.0500,0.2550,0,0,0.0*
21,1,0.9650,0.3400,0,0,0.0*
1,1,0.0850,0.4825,-0.1275*
1,1,0.0850,-0.4825,-0.1275*
1,1,0.0850,-0.4825,0.1275*
1,1,0.0850,0.4825,0.1275*
%
%ADD79ROUNDEDRECTD79*%
G04:AMPARAMS|DCode=80|XSize=0.34mm|YSize=1.05mm|CornerRadius=0.0425mm|HoleSize=0mm|Usage=FLASHONLY|Rotation=0.000|XOffset=0mm|YOffset=0mm|HoleType=Round|Shape=RoundedRectangle|*
%AMROUNDEDRECTD80*
21,1,0.3400,0.9650,0,0,0.0*
21,1,0.2550,1.0500,0,0,0.0*
1,1,0.0850,0.1275,-0.4825*
1,1,0.0850,-0.1275,-0.4825*
1,1,0.0850,-0.1275,0.4825*
1,1,0.0850,0.1275,0.4825*
%
%ADD80ROUNDEDRECTD80*%
%ADD81R,0.3000X2.4000*%
%ADD82R,0.6500X0.3000*%
G04:AMPARAMS|DCode=83|XSize=0.65mm|YSize=0.6mm|CornerRadius=0.15mm|HoleSize=0mm|Usage=FLASHONLY|Rotation=270.000|XOffset=0mm|YOffset=0mm|HoleType=Round|Shape=RoundedRectangle|*
%AMROUNDEDRECTD83*
21,1,0.6500,0.3000,0,0,270.0*
21,1,0.3500,0.6000,0,0,270.0*
1,1,0.3000,-0.1500,-0.1750*
1,1,0.3000,-0.1500,0.1750*
1,1,0.3000,0.1500,0.1750*
1,1,0.3000,0.1500,-0.1750*
%
%ADD83ROUNDEDRECTD83*%
%ADD84R,3.2500X2.1500*%
%ADD85R,0.9500X2.1500*%
%ADD116R,2.9464X1.7526*%
%ADD151C,1.5000*%
%ADD155R,2.6000X2.6000*%
%ADD156R,3.4036X2.7178*%
%ADD157R,1.7000X1.7000*%
%ADD158R,3.1500X3.1500*%
%ADD164C,0.3000*%
%ADD165C,6.0000*%
%ADD166C,0.4000*%
G36*
G01X1120867Y414805D02*
G01X1116140Y419532D01*
G01X1126837Y419532D01*
G02X1128962Y417407I0J-2125D01*
G01Y412157D01*
G02X1126837Y410032I-2125J0D01*
G01X1116094D01*
G01X1120867Y414805D01*
D02*
G37*
G36*
G01X1107217Y419532D02*
G01X1113648D01*
G01X1118362Y414782D01*
G01X1113648Y410032D01*
G01X1107217D01*
G02X1105092Y412157I0J2125D01*
G01Y417407D01*
G02X1107217Y419532I2125J0D01*
D02*
G37*
D18*
X1446960Y78200D02*
D03*
X1431960D02*
D03*
X1416960D02*
D03*
X1401960D02*
D03*
X1386960D02*
D03*
X1371960D02*
D03*
X1356960D02*
D03*
X1341960D02*
D03*
X1249232D02*
D03*
X1234232D02*
D03*
X1219232D02*
D03*
X1204232D02*
D03*
X1189232D02*
D03*
X1174232D02*
D03*
X1159232D02*
D03*
X1144232D02*
D03*
X1051503D02*
D03*
X1036503D02*
D03*
X1021503D02*
D03*
X1006503D02*
D03*
X991503D02*
D03*
X976503D02*
D03*
X961503D02*
D03*
X946503D02*
D03*
X853775D02*
D03*
X838775D02*
D03*
X823775D02*
D03*
X808775D02*
D03*
X793775D02*
D03*
X778775D02*
D03*
X763775D02*
D03*
X748775D02*
D03*
X656047D02*
D03*
X641047D02*
D03*
X626047D02*
D03*
X611047D02*
D03*
X596047D02*
D03*
X581047D02*
D03*
X566047D02*
D03*
X551047D02*
D03*
X451570Y78234D02*
D03*
X436570D02*
D03*
X421570D02*
D03*
X406570D02*
D03*
X391570D02*
D03*
X376570D02*
D03*
X1546800Y721300D02*
D03*
X1561800D02*
D03*
X1576800D02*
D03*
X1591800D02*
D03*
X1606800D02*
D03*
X1621800D02*
D03*
X1636800D02*
D03*
X1651800D02*
D03*
X1343085D02*
D03*
X1358085D02*
D03*
X1373085D02*
D03*
X1388085D02*
D03*
X1403085D02*
D03*
X1418085D02*
D03*
X1433085D02*
D03*
X1448085D02*
D03*
X1036152D02*
D03*
X1051152D02*
D03*
X1066152D02*
D03*
X1081152D02*
D03*
X1096152D02*
D03*
X1111152D02*
D03*
X1126152D02*
D03*
X1141152D02*
D03*
D19*
X1315910Y26300D02*
D03*
X1473010D02*
D03*
X1118182D02*
D03*
X1275282D02*
D03*
X920453D02*
D03*
X1077553D02*
D03*
X722725D02*
D03*
X879825D02*
D03*
X524997D02*
D03*
X682097D02*
D03*
X350520Y26334D02*
D03*
X477620D02*
D03*
X1677850Y773200D02*
D03*
X1520750D02*
D03*
X1474135D02*
D03*
X1317035D02*
D03*
X1167202D02*
D03*
X1010102D02*
D03*
D20*
X439166Y359833D02*
D03*
Y365083D02*
D03*
X660938Y496302D02*
D03*
Y501552D02*
D03*
X678871Y477687D02*
D03*
Y482937D02*
D03*
X665617Y483250D02*
D03*
Y478000D02*
D03*
X672592Y477689D02*
D03*
Y482939D02*
D03*
X649230Y466141D02*
D03*
Y460891D02*
D03*
X642728Y460891D02*
D03*
Y466141D02*
D03*
X609871Y467933D02*
D03*
Y473183D02*
D03*
X590105Y408246D02*
D03*
Y402996D02*
D03*
X659378Y426412D02*
D03*
Y431662D02*
D03*
X633476Y444331D02*
D03*
Y439081D02*
D03*
X643636Y447379D02*
D03*
Y442129D02*
D03*
X600617Y417996D02*
D03*
Y412746D02*
D03*
X607425Y411984D02*
D03*
Y417234D02*
D03*
X623575Y399713D02*
D03*
Y404963D02*
D03*
X646371Y399746D02*
D03*
Y404996D02*
D03*
X661884Y402996D02*
D03*
Y408246D02*
D03*
X678942Y411339D02*
D03*
Y406088D02*
D03*
X672326Y411339D02*
D03*
Y406088D02*
D03*
X694261Y377057D02*
D03*
Y382307D02*
D03*
X694089Y371716D02*
D03*
Y366466D02*
D03*
X675621Y381697D02*
D03*
Y376447D02*
D03*
X656082Y375764D02*
D03*
Y381014D02*
D03*
X617121Y379619D02*
D03*
Y384869D02*
D03*
X597662Y379899D02*
D03*
Y385149D02*
D03*
X623575Y489516D02*
D03*
Y484266D02*
D03*
X649637Y490514D02*
D03*
Y485264D02*
D03*
X660938Y512996D02*
D03*
Y507746D02*
D03*
X675621Y509496D02*
D03*
Y504246D02*
D03*
X702118Y512103D02*
D03*
Y506853D02*
D03*
X656082Y509609D02*
D03*
Y504359D02*
D03*
X636621Y509609D02*
D03*
Y504359D02*
D03*
X617121Y509496D02*
D03*
Y504246D02*
D03*
X597662Y509609D02*
D03*
Y504359D02*
D03*
X830851Y284624D02*
D03*
Y289874D02*
D03*
X828756Y305959D02*
D03*
Y311209D02*
D03*
Y322071D02*
D03*
Y327321D02*
D03*
X744447Y322071D02*
D03*
Y327321D02*
D03*
X744885Y305959D02*
D03*
Y311209D02*
D03*
X803177Y283302D02*
D03*
Y278052D02*
D03*
X820690Y263258D02*
D03*
Y258008D02*
D03*
X820610Y242003D02*
D03*
Y247253D02*
D03*
X758648Y255105D02*
D03*
Y249855D02*
D03*
X758648Y234049D02*
D03*
Y239299D02*
D03*
X744578Y256620D02*
D03*
Y261870D02*
D03*
X744885Y247096D02*
D03*
Y241846D02*
D03*
X744731Y225856D02*
D03*
Y231106D02*
D03*
X744309Y210081D02*
D03*
Y215331D02*
D03*
X820610Y223306D02*
D03*
Y218056D02*
D03*
X1188973Y509873D02*
D03*
Y515123D02*
D03*
X1169466Y509873D02*
D03*
Y515123D02*
D03*
X1149958Y509873D02*
D03*
Y515123D02*
D03*
X1136953Y509873D02*
D03*
Y515123D02*
D03*
X1143456Y509873D02*
D03*
Y515123D02*
D03*
X1130451Y509873D02*
D03*
Y515123D02*
D03*
X1123948Y509873D02*
D03*
Y515123D02*
D03*
X1117446Y509873D02*
D03*
Y515123D02*
D03*
X1097938Y509873D02*
D03*
Y515123D02*
D03*
X1104441Y509873D02*
D03*
Y515123D02*
D03*
X1091435Y509873D02*
D03*
Y515123D02*
D03*
X1084672Y509873D02*
D03*
Y515123D02*
D03*
X1071928Y509873D02*
D03*
Y515123D02*
D03*
X801755Y475109D02*
D03*
Y480359D02*
D03*
X744121Y462396D02*
D03*
Y467645D02*
D03*
X633730Y340275D02*
D03*
Y345525D02*
D03*
X623241Y340275D02*
D03*
Y345525D02*
D03*
X589735Y340275D02*
D03*
Y345525D02*
D03*
X569745Y340275D02*
D03*
Y345525D02*
D03*
X576794Y340274D02*
D03*
Y345523D02*
D03*
X562715Y340275D02*
D03*
Y345525D02*
D03*
X555684Y340275D02*
D03*
Y345525D02*
D03*
X744982Y520869D02*
D03*
Y526119D02*
D03*
X687349Y545008D02*
D03*
Y539758D02*
D03*
X674122Y544980D02*
D03*
Y539730D02*
D03*
X680846Y544980D02*
D03*
Y539730D02*
D03*
X667399Y544980D02*
D03*
Y539730D02*
D03*
X639884Y539665D02*
D03*
Y544915D02*
D03*
X646387D02*
D03*
Y539665D02*
D03*
X626879Y544980D02*
D03*
Y539730D02*
D03*
X633382Y544915D02*
D03*
Y539665D02*
D03*
X620377Y544980D02*
D03*
Y539730D02*
D03*
X318082Y460041D02*
D03*
Y454791D02*
D03*
D21*
X447055Y299630D02*
D03*
X441805D02*
D03*
X665836Y491089D02*
D03*
X660586D02*
D03*
X569005Y502078D02*
D03*
X574255D02*
D03*
X701308Y465153D02*
D03*
X696058D02*
D03*
X681952Y457621D02*
D03*
X676702D02*
D03*
X609996Y404198D02*
D03*
X604746D02*
D03*
X594299Y426572D02*
D03*
X599549D02*
D03*
X611547Y428244D02*
D03*
X616797D02*
D03*
X645722Y473990D02*
D03*
X650972D02*
D03*
X666756Y462589D02*
D03*
X672006D02*
D03*
X610193Y486918D02*
D03*
X604943D02*
D03*
X598092Y480474D02*
D03*
X603342D02*
D03*
X584585Y488681D02*
D03*
X589836D02*
D03*
X591044Y431644D02*
D03*
X596294D02*
D03*
X571669Y444754D02*
D03*
X576919D02*
D03*
X571396Y402879D02*
D03*
X576646D02*
D03*
X569176Y425200D02*
D03*
X574426D02*
D03*
X607496Y395676D02*
D03*
X612746D02*
D03*
X623563Y428388D02*
D03*
X628813D02*
D03*
X629373Y421901D02*
D03*
X624123D02*
D03*
X614496Y457265D02*
D03*
X619746D02*
D03*
X591044Y457519D02*
D03*
X596294D02*
D03*
X668159Y415446D02*
D03*
X662909D02*
D03*
X681821Y431546D02*
D03*
X676571D02*
D03*
X701571Y444621D02*
D03*
X696320D02*
D03*
X704502Y425375D02*
D03*
X699252D02*
D03*
X706648Y406383D02*
D03*
X701398D02*
D03*
X707701Y389446D02*
D03*
X702451D02*
D03*
X701887Y483616D02*
D03*
X696637D02*
D03*
X571923Y464820D02*
D03*
X577173D02*
D03*
X571811Y486363D02*
D03*
X577061D02*
D03*
X615978Y494660D02*
D03*
X610728D02*
D03*
X824556Y292488D02*
D03*
X819306D02*
D03*
X802421Y252730D02*
D03*
X807671D02*
D03*
X759996Y272621D02*
D03*
X765246D02*
D03*
X763305Y212503D02*
D03*
X768555D02*
D03*
X813145Y232700D02*
D03*
X807895D02*
D03*
X811969Y206513D02*
D03*
X817219D02*
D03*
X1246418Y317293D02*
D03*
X1251668D02*
D03*
X756985Y473247D02*
D03*
X751735D02*
D03*
X756985Y468043D02*
D03*
X751735D02*
D03*
X733865Y485654D02*
D03*
X739115D02*
D03*
X739825Y450484D02*
D03*
X734575D02*
D03*
X739825Y455564D02*
D03*
X734575D02*
D03*
X620442Y305602D02*
D03*
X625692D02*
D03*
X532760Y426013D02*
D03*
X538010D02*
D03*
X532987Y447067D02*
D03*
X538237D02*
D03*
X532770Y511048D02*
D03*
X538020D02*
D03*
X376005Y349504D02*
D03*
X370755D02*
D03*
X376005Y355569D02*
D03*
X370755D02*
D03*
X279315Y312700D02*
D03*
X284565D02*
D03*
X279315Y332700D02*
D03*
X284565D02*
D03*
Y342700D02*
D03*
X279315D02*
D03*
X284565Y347700D02*
D03*
X279315D02*
D03*
X532770Y412940D02*
D03*
X538020D02*
D03*
X532860Y419442D02*
D03*
X538110D02*
D03*
X532760Y432515D02*
D03*
X538010D02*
D03*
X532760Y476046D02*
D03*
X538010D02*
D03*
X532760Y468464D02*
D03*
X538010D02*
D03*
X532760Y460072D02*
D03*
X538010D02*
D03*
X532860Y453569D02*
D03*
X538110D02*
D03*
X532760Y439018D02*
D03*
X538010D02*
D03*
X532801Y505071D02*
D03*
X538051D02*
D03*
X532860Y492769D02*
D03*
X538110D02*
D03*
X532980Y486267D02*
D03*
X538230D02*
D03*
X532870Y498964D02*
D03*
X538120D02*
D03*
X532770Y516128D02*
D03*
X538020D02*
D03*
X284565Y317700D02*
D03*
X279315D02*
D03*
X568871Y386500D02*
D03*
X574121D02*
D03*
D22*
X453430Y291031D02*
D03*
X444430D02*
D03*
X1199481Y437071D02*
D03*
X1190481D02*
D03*
X182190Y275590D02*
D03*
X191190D02*
D03*
X199970D02*
D03*
X208970D02*
D03*
X211510Y186690D02*
D03*
X202510D02*
D03*
X1074238Y157037D02*
D03*
X1083238D02*
D03*
X1060378Y157037D02*
D03*
X1051378D02*
D03*
X936062Y157037D02*
D03*
X945062D02*
D03*
X922213Y157037D02*
D03*
X913213D02*
D03*
X985448Y103926D02*
D03*
X976448D02*
D03*
Y116626D02*
D03*
X985448D02*
D03*
X976448Y129326D02*
D03*
X985448D02*
D03*
Y142026D02*
D03*
X976448D02*
D03*
X873578Y103926D02*
D03*
X882578D02*
D03*
Y116626D02*
D03*
X873578D02*
D03*
X882578Y129326D02*
D03*
X873578D02*
D03*
Y142026D02*
D03*
X882578D02*
D03*
X704270Y458470D02*
D03*
X695270D02*
D03*
X713160Y378968D02*
D03*
X704160D02*
D03*
X565148Y496141D02*
D03*
X574148D02*
D03*
X1123878Y103926D02*
D03*
X1114878D02*
D03*
Y116626D02*
D03*
X1123878D02*
D03*
X1114878Y129326D02*
D03*
X1123878D02*
D03*
Y142026D02*
D03*
X1114878D02*
D03*
X1114880Y172428D02*
D03*
X1123880D02*
D03*
X1114880Y197861D02*
D03*
X1123880D02*
D03*
X1561122Y183202D02*
D03*
X1570121D02*
D03*
X1561120Y194201D02*
D03*
X1570120D02*
D03*
X1549722Y194200D02*
D03*
X1540722D02*
D03*
X1500560Y183200D02*
D03*
X1491560D02*
D03*
X1500560Y194201D02*
D03*
X1491560D02*
D03*
X1458675Y183202D02*
D03*
X1467675D02*
D03*
X1458673Y194201D02*
D03*
X1467673D02*
D03*
X1447275Y194200D02*
D03*
X1438275D02*
D03*
X1398113Y183200D02*
D03*
X1389113D02*
D03*
X1398113Y194201D02*
D03*
X1389113D02*
D03*
X1356228Y183202D02*
D03*
X1365228D02*
D03*
X1356227Y194201D02*
D03*
X1365227D02*
D03*
X1344829Y194200D02*
D03*
X1335829D02*
D03*
X1295667Y183200D02*
D03*
X1286667D02*
D03*
X1295667Y194201D02*
D03*
X1286667D02*
D03*
X1253782Y183202D02*
D03*
X1262782D02*
D03*
X1253780Y194201D02*
D03*
X1262780D02*
D03*
X1242382Y194200D02*
D03*
X1233382D02*
D03*
X1193220Y183200D02*
D03*
X1184220D02*
D03*
X1193220Y194201D02*
D03*
X1184220D02*
D03*
X1146998Y90088D02*
D03*
X1155998D02*
D03*
X1177055D02*
D03*
X1186055D02*
D03*
X1444856D02*
D03*
X1435856D02*
D03*
X1414678D02*
D03*
X1405678D02*
D03*
X1384500D02*
D03*
X1375500D02*
D03*
X1354322D02*
D03*
X1345322D02*
D03*
X1253780Y124460D02*
D03*
X1262780D02*
D03*
X1253780Y135890D02*
D03*
X1262780D02*
D03*
X1356227Y124460D02*
D03*
X1365227D02*
D03*
X1356227Y135890D02*
D03*
X1365227D02*
D03*
X1458673D02*
D03*
X1467673D02*
D03*
X1458673Y124460D02*
D03*
X1467673D02*
D03*
X1702708Y104956D02*
D03*
X1711708D02*
D03*
Y117654D02*
D03*
X1702708D02*
D03*
X1711708Y130356D02*
D03*
X1702708D02*
D03*
X1539395Y87858D02*
D03*
X1548396D02*
D03*
X1561120Y124460D02*
D03*
X1570120D02*
D03*
X1561120Y135890D02*
D03*
X1570120D02*
D03*
X1622918Y130358D02*
D03*
X1613918D02*
D03*
X1613919Y117658D02*
D03*
X1622919D02*
D03*
X1613919Y104956D02*
D03*
X1622919D02*
D03*
X428680Y215900D02*
D03*
X419680D02*
D03*
X428680Y226060D02*
D03*
X419680D02*
D03*
X363694Y215900D02*
D03*
X354694D02*
D03*
X363694Y226060D02*
D03*
X354694D02*
D03*
X515860Y124954D02*
D03*
X506860D02*
D03*
X496560D02*
D03*
X487560D02*
D03*
X883999Y485521D02*
D03*
X892999D02*
D03*
X898686Y445135D02*
D03*
X907686D02*
D03*
X907684Y409816D02*
D03*
X898684D02*
D03*
X765351Y220681D02*
D03*
X774351D02*
D03*
X810094Y196986D02*
D03*
X819094D02*
D03*
X892711Y307843D02*
D03*
X901711D02*
D03*
X946051Y193543D02*
D03*
X955051D02*
D03*
X946051Y203703D02*
D03*
X955051D02*
D03*
X946051Y213863D02*
D03*
X955051D02*
D03*
X1161343Y230616D02*
D03*
X1170343D02*
D03*
X1161345Y241060D02*
D03*
X1170344D02*
D03*
X1161345Y251502D02*
D03*
X1170344D02*
D03*
X1199481Y295157D02*
D03*
X1190481D02*
D03*
X1199472Y399917D02*
D03*
X1190472D02*
D03*
X1153568Y397612D02*
D03*
X1144568D02*
D03*
Y378612D02*
D03*
X1153568D02*
D03*
X1134650Y363620D02*
D03*
X1125650D02*
D03*
X1110722D02*
D03*
X1101722D02*
D03*
X1088603Y378612D02*
D03*
X1079603D02*
D03*
Y397612D02*
D03*
X1088603D02*
D03*
X1030969Y440881D02*
D03*
X1039969D02*
D03*
X1723332Y610432D02*
D03*
X1732332D02*
D03*
X1732330Y598838D02*
D03*
X1723330D02*
D03*
X1723333Y575656D02*
D03*
X1732333D02*
D03*
X1732330Y587245D02*
D03*
X1723330D02*
D03*
X1635318Y580501D02*
D03*
X1644318D02*
D03*
X1635318Y593202D02*
D03*
X1644318D02*
D03*
X1644317Y605902D02*
D03*
X1635317D02*
D03*
X1098881Y614930D02*
D03*
X1089881D02*
D03*
X1089883Y603146D02*
D03*
X1098883D02*
D03*
X1098881Y591358D02*
D03*
X1089881D02*
D03*
X1089883Y565406D02*
D03*
X1098883D02*
D03*
X1383991Y660400D02*
D03*
X1374991D02*
D03*
X1364991D02*
D03*
X1355991D02*
D03*
X1331328D02*
D03*
X1322328D02*
D03*
X1068015Y661670D02*
D03*
X1059015D02*
D03*
X1049015D02*
D03*
X1040015D02*
D03*
X1752630Y660400D02*
D03*
X1743629D02*
D03*
X1733629D02*
D03*
X1724630D02*
D03*
X1699967D02*
D03*
X1690967D02*
D03*
X1680967D02*
D03*
X1671967D02*
D03*
X1647304D02*
D03*
X1638304D02*
D03*
X1628304D02*
D03*
X1619304D02*
D03*
X1594642D02*
D03*
X1585642D02*
D03*
X1575642D02*
D03*
X1566642D02*
D03*
X1541979D02*
D03*
X1532979D02*
D03*
X1522979D02*
D03*
X1513979D02*
D03*
X1489316D02*
D03*
X1480316D02*
D03*
X1470316D02*
D03*
X1461316D02*
D03*
X1436654D02*
D03*
X1427654D02*
D03*
X1417654D02*
D03*
X1408654D02*
D03*
X1312328D02*
D03*
X1303328D02*
D03*
X1278666Y661670D02*
D03*
X1269666D02*
D03*
X1259666D02*
D03*
X1250666D02*
D03*
X1226003D02*
D03*
X1217003D02*
D03*
X1207003D02*
D03*
X1198003D02*
D03*
X1173341Y661510D02*
D03*
X1164341D02*
D03*
X1154341D02*
D03*
X1145340D02*
D03*
X1120678Y661670D02*
D03*
X1111678D02*
D03*
X1101678D02*
D03*
X1092678D02*
D03*
X1015353D02*
D03*
X1006353D02*
D03*
X996353D02*
D03*
X987353D02*
D03*
X961420Y660400D02*
D03*
X952420D02*
D03*
X942420D02*
D03*
X933420D02*
D03*
X843158Y663567D02*
D03*
X834158D02*
D03*
X757040Y663571D02*
D03*
X766040D02*
D03*
X576549Y574514D02*
D03*
X585549D02*
D03*
X576549Y585519D02*
D03*
X585549D02*
D03*
X711664Y664075D02*
D03*
X702664D02*
D03*
X625546Y664079D02*
D03*
X634546D02*
D03*
X427911Y709619D02*
D03*
X418911D02*
D03*
X393511Y709622D02*
D03*
X402511D02*
D03*
X845264Y493268D02*
D03*
X836264D02*
D03*
X483180Y426720D02*
D03*
X492180D02*
D03*
X371276D02*
D03*
X362276D02*
D03*
X334590Y374142D02*
D03*
X343590D02*
D03*
X321238D02*
D03*
X312238D02*
D03*
X377626Y315651D02*
D03*
X368626D02*
D03*
X377626Y331470D02*
D03*
X368626D02*
D03*
X377626Y341376D02*
D03*
X368626D02*
D03*
X334590Y286004D02*
D03*
X343590D02*
D03*
X321238Y286004D02*
D03*
X312238D02*
D03*
X299140Y215900D02*
D03*
X290140D02*
D03*
X299140Y226060D02*
D03*
X290140D02*
D03*
X188540Y382270D02*
D03*
X197540D02*
D03*
X131503Y384890D02*
D03*
X140503D02*
D03*
X216480Y382270D02*
D03*
X225480D02*
D03*
X199970Y472270D02*
D03*
X208970D02*
D03*
X182190D02*
D03*
X191190D02*
D03*
X320620Y511340D02*
D03*
X329620D02*
D03*
X379150Y522770D02*
D03*
X370150D02*
D03*
X340940D02*
D03*
X349940D02*
D03*
X320620Y535470D02*
D03*
X329620D02*
D03*
X308030Y553250D02*
D03*
X299030D02*
D03*
X320620Y559600D02*
D03*
X329620D02*
D03*
X379150Y572300D02*
D03*
X370150D02*
D03*
X340940Y572300D02*
D03*
X349940D02*
D03*
X320620Y583730D02*
D03*
X329620D02*
D03*
X308030Y573570D02*
D03*
X299030D02*
D03*
X233098Y579120D02*
D03*
X224098D02*
D03*
X203780D02*
D03*
X212780D02*
D03*
X193037D02*
D03*
X184037D02*
D03*
X203782Y657860D02*
D03*
X212782D02*
D03*
X233100D02*
D03*
X224100D02*
D03*
X184040D02*
D03*
X193040D02*
D03*
X233133Y102950D02*
D03*
X242133D02*
D03*
Y123270D02*
D03*
X233133D02*
D03*
Y133430D02*
D03*
X242133D02*
D03*
X130233Y102950D02*
D03*
X139233D02*
D03*
Y123270D02*
D03*
X130233D02*
D03*
Y133430D02*
D03*
X139233D02*
D03*
X186253Y133430D02*
D03*
X177253D02*
D03*
X186140Y123190D02*
D03*
X177140D02*
D03*
Y113030D02*
D03*
X186140D02*
D03*
Y102870D02*
D03*
X177140D02*
D03*
X186140Y92710D02*
D03*
X177140D02*
D03*
X141340Y515377D02*
D03*
X132339D02*
D03*
Y505217D02*
D03*
X141340D02*
D03*
Y484897D02*
D03*
X132339D02*
D03*
X132490Y584200D02*
D03*
X141490D02*
D03*
Y604520D02*
D03*
X132490D02*
D03*
Y614680D02*
D03*
X141490D02*
D03*
X83353Y92790D02*
D03*
X74353D02*
D03*
X83353Y102950D02*
D03*
X74353D02*
D03*
Y113110D02*
D03*
X83353D02*
D03*
Y123270D02*
D03*
X74353D02*
D03*
X83353Y133430D02*
D03*
X74353D02*
D03*
X85497Y573960D02*
D03*
X76497D02*
D03*
X85497Y584120D02*
D03*
X76497D02*
D03*
Y594280D02*
D03*
X85497D02*
D03*
Y604440D02*
D03*
X76497D02*
D03*
X85610Y614680D02*
D03*
X76610D02*
D03*
X923594Y485521D02*
D03*
X914594D02*
D03*
X1030969Y411671D02*
D03*
X1039969D02*
D03*
X1030969Y359601D02*
D03*
X1039969D02*
D03*
X131503Y322660D02*
D03*
X140503D02*
D03*
X131503Y292180D02*
D03*
X140503D02*
D03*
X131503Y415370D02*
D03*
X140503D02*
D03*
X949270Y90088D02*
D03*
X958270D02*
D03*
X979327D02*
D03*
X988327D02*
D03*
X84510Y312420D02*
D03*
X75510D02*
D03*
X84510Y292100D02*
D03*
X75510D02*
D03*
X84510Y281940D02*
D03*
X75510D02*
D03*
X84623Y322660D02*
D03*
X75623D02*
D03*
X140503Y312500D02*
D03*
X131503D02*
D03*
X75510Y302260D02*
D03*
X84510D02*
D03*
Y405130D02*
D03*
X75510D02*
D03*
X84510Y384810D02*
D03*
X75510D02*
D03*
X84510Y374650D02*
D03*
X75510D02*
D03*
X84623Y415370D02*
D03*
X75623D02*
D03*
X75510Y394970D02*
D03*
X84510D02*
D03*
X140503Y405210D02*
D03*
X131503D02*
D03*
X76347Y505137D02*
D03*
X85346D02*
D03*
X76347Y484818D02*
D03*
X85346D02*
D03*
X76347Y474658D02*
D03*
X85346D02*
D03*
X76459Y515377D02*
D03*
X85459D02*
D03*
X85346Y494977D02*
D03*
X76347D02*
D03*
X1021008Y116626D02*
D03*
X1012008D02*
D03*
X1012008Y142026D02*
D03*
X1021008D02*
D03*
Y129326D02*
D03*
X1012008D02*
D03*
X1012008Y103926D02*
D03*
X1021008D02*
D03*
X1009383Y89590D02*
D03*
X1018383D02*
D03*
X1207112Y90088D02*
D03*
X1216112D02*
D03*
X1039440D02*
D03*
X1048440D02*
D03*
X1237168D02*
D03*
X1246168D02*
D03*
X131473Y227410D02*
D03*
X140473D02*
D03*
X131473Y196930D02*
D03*
X140473D02*
D03*
X84480Y217170D02*
D03*
X75480D02*
D03*
X84480Y196850D02*
D03*
X75480D02*
D03*
X84480Y186690D02*
D03*
X75480D02*
D03*
X84593Y227410D02*
D03*
X75593D02*
D03*
X75480Y207010D02*
D03*
X84480D02*
D03*
X140473Y217250D02*
D03*
X131473D02*
D03*
X567124Y375621D02*
D03*
X576124D02*
D03*
D23*
X471170Y352370D02*
D03*
Y361370D02*
D03*
Y304220D02*
D03*
Y295220D02*
D03*
Y323270D02*
D03*
Y314270D02*
D03*
X483616Y314365D02*
D03*
Y323365D02*
D03*
Y342320D02*
D03*
Y333320D02*
D03*
X471170D02*
D03*
Y342320D02*
D03*
X1189901Y462145D02*
D03*
Y453145D02*
D03*
X1174482Y462145D02*
D03*
Y453145D02*
D03*
X1163231Y462145D02*
D03*
Y453145D02*
D03*
X1019633Y183083D02*
D03*
Y174083D02*
D03*
X591121Y373687D02*
D03*
Y382687D02*
D03*
X691842Y514964D02*
D03*
Y505965D02*
D03*
X839270Y144901D02*
D03*
Y135901D02*
D03*
X826770Y144901D02*
D03*
Y135901D02*
D03*
X815305Y135477D02*
D03*
Y144477D02*
D03*
X803910Y144475D02*
D03*
Y135475D02*
D03*
X791210Y144475D02*
D03*
Y135475D02*
D03*
X768096Y144475D02*
D03*
Y135475D02*
D03*
X755650Y144475D02*
D03*
Y135475D02*
D03*
X732790Y144475D02*
D03*
Y135475D02*
D03*
X720090Y144475D02*
D03*
Y135475D02*
D03*
X684784Y144200D02*
D03*
Y135200D02*
D03*
X672084Y144200D02*
D03*
Y135200D02*
D03*
X647446Y144200D02*
D03*
Y135200D02*
D03*
X634746Y144200D02*
D03*
Y135200D02*
D03*
X610108Y144200D02*
D03*
Y135200D02*
D03*
X597408Y144200D02*
D03*
Y135200D02*
D03*
X572770Y144200D02*
D03*
Y135200D02*
D03*
X560070Y144200D02*
D03*
Y135200D02*
D03*
X547370D02*
D03*
Y144200D02*
D03*
X1502410Y162170D02*
D03*
Y153170D02*
D03*
X1489710Y162170D02*
D03*
Y153170D02*
D03*
X1469813Y162170D02*
D03*
Y153170D02*
D03*
X1457113Y162170D02*
D03*
Y153170D02*
D03*
X1399963Y162170D02*
D03*
Y153170D02*
D03*
X1387263Y162170D02*
D03*
Y153170D02*
D03*
X1367367Y162170D02*
D03*
Y153170D02*
D03*
X1354667Y162170D02*
D03*
Y153170D02*
D03*
X1297517Y162170D02*
D03*
Y153170D02*
D03*
X1284817Y162170D02*
D03*
Y153170D02*
D03*
X1264920Y162170D02*
D03*
Y153170D02*
D03*
X1252220Y162170D02*
D03*
Y153170D02*
D03*
X1195070Y162170D02*
D03*
Y153170D02*
D03*
X1182370Y162170D02*
D03*
Y153170D02*
D03*
X1182370Y123770D02*
D03*
Y132770D02*
D03*
X1284817Y123770D02*
D03*
Y132770D02*
D03*
X1387263Y123770D02*
D03*
Y132770D02*
D03*
X1489710Y123770D02*
D03*
Y132770D02*
D03*
X1559560Y162170D02*
D03*
Y153170D02*
D03*
X1572260Y162170D02*
D03*
Y153170D02*
D03*
X532386Y167780D02*
D03*
Y176780D02*
D03*
X514071Y224898D02*
D03*
Y215898D02*
D03*
X503416Y224898D02*
D03*
Y215898D02*
D03*
X487680Y215900D02*
D03*
Y224900D02*
D03*
X470507Y165910D02*
D03*
Y174910D02*
D03*
X470553Y146252D02*
D03*
Y155252D02*
D03*
X340144Y119960D02*
D03*
Y128960D02*
D03*
X443230Y119960D02*
D03*
Y128960D02*
D03*
X430530Y119960D02*
D03*
Y128960D02*
D03*
X417833Y128957D02*
D03*
Y119957D02*
D03*
X405130Y119960D02*
D03*
Y128960D02*
D03*
X393700D02*
D03*
Y119960D02*
D03*
X378244D02*
D03*
Y128960D02*
D03*
X910011Y577995D02*
D03*
Y586995D02*
D03*
X896238Y577995D02*
D03*
Y586995D02*
D03*
X928370Y552647D02*
D03*
Y561647D02*
D03*
Y536582D02*
D03*
Y527582D02*
D03*
X914861D02*
D03*
Y536582D02*
D03*
X893238Y527582D02*
D03*
Y536582D02*
D03*
X923597Y470286D02*
D03*
Y461287D02*
D03*
X883997Y461288D02*
D03*
Y470288D02*
D03*
X927312Y358690D02*
D03*
Y349690D02*
D03*
X915248Y358690D02*
D03*
Y349690D02*
D03*
X903184Y358690D02*
D03*
Y349690D02*
D03*
X891118Y358690D02*
D03*
Y349690D02*
D03*
X879053D02*
D03*
Y358690D02*
D03*
X846411Y266623D02*
D03*
Y257623D02*
D03*
Y200583D02*
D03*
Y191583D02*
D03*
X945217Y283023D02*
D03*
Y292023D02*
D03*
X1170343Y295157D02*
D03*
Y304157D02*
D03*
X1159167Y295157D02*
D03*
Y304157D02*
D03*
X1033691Y295157D02*
D03*
Y304157D02*
D03*
X1087352Y295277D02*
D03*
Y304277D02*
D03*
X1067981Y462145D02*
D03*
Y453145D02*
D03*
X1051217Y462145D02*
D03*
Y453145D02*
D03*
X1041057Y462145D02*
D03*
Y453145D02*
D03*
X1030897Y462145D02*
D03*
Y453145D02*
D03*
X1601640Y567650D02*
D03*
Y576650D02*
D03*
X1601642Y617290D02*
D03*
Y608290D02*
D03*
Y587970D02*
D03*
Y596970D02*
D03*
X1533062D02*
D03*
Y587970D02*
D03*
X1507586Y617290D02*
D03*
Y608290D02*
D03*
Y587970D02*
D03*
Y596970D02*
D03*
X1507584Y567650D02*
D03*
Y576650D02*
D03*
X1437990Y596970D02*
D03*
Y587970D02*
D03*
X1412260Y617290D02*
D03*
Y608290D02*
D03*
Y587970D02*
D03*
Y596970D02*
D03*
X1412258Y567650D02*
D03*
Y576650D02*
D03*
X1343680Y596970D02*
D03*
Y587970D02*
D03*
X1316932Y567650D02*
D03*
Y576650D02*
D03*
X1316934Y587970D02*
D03*
Y596970D02*
D03*
Y617290D02*
D03*
Y608290D02*
D03*
X1248354Y596970D02*
D03*
Y587970D02*
D03*
X1231960Y572328D02*
D03*
Y563328D02*
D03*
X1120670Y572330D02*
D03*
Y563330D02*
D03*
X877344Y712925D02*
D03*
Y703925D02*
D03*
X864896Y712925D02*
D03*
Y703925D02*
D03*
X852448Y712925D02*
D03*
Y703925D02*
D03*
X840000Y712925D02*
D03*
Y703925D02*
D03*
X825423Y686839D02*
D03*
Y677839D02*
D03*
X812979Y677842D02*
D03*
Y686842D02*
D03*
X800539Y677840D02*
D03*
Y686840D02*
D03*
X788096Y677842D02*
D03*
Y686842D02*
D03*
X775658Y686839D02*
D03*
Y677839D02*
D03*
X527024Y592005D02*
D03*
Y601005D02*
D03*
X585810Y605069D02*
D03*
Y596069D02*
D03*
Y616389D02*
D03*
Y625389D02*
D03*
X693929Y687347D02*
D03*
Y678347D02*
D03*
X681540D02*
D03*
Y687347D02*
D03*
X668990Y678347D02*
D03*
Y687347D02*
D03*
X656664Y678347D02*
D03*
Y687347D02*
D03*
X644164D02*
D03*
Y678347D02*
D03*
X676287Y712925D02*
D03*
Y703925D02*
D03*
X663789Y712925D02*
D03*
Y703925D02*
D03*
X651290Y712925D02*
D03*
Y703925D02*
D03*
X638791Y712925D02*
D03*
Y703925D02*
D03*
X512172Y678914D02*
D03*
Y687914D02*
D03*
X463912Y678914D02*
D03*
Y687914D02*
D03*
X446001Y638855D02*
D03*
Y647855D02*
D03*
X375358Y638855D02*
D03*
Y647855D02*
D03*
X361221Y678914D02*
D03*
Y687914D02*
D03*
X312961Y678914D02*
D03*
Y687914D02*
D03*
X606317Y338400D02*
D03*
Y347400D02*
D03*
X398780Y522190D02*
D03*
Y513190D02*
D03*
Y572880D02*
D03*
Y581880D02*
D03*
X313690Y119960D02*
D03*
Y128960D02*
D03*
X300990Y119960D02*
D03*
Y128960D02*
D03*
X288290Y119960D02*
D03*
Y128960D02*
D03*
X275590Y119960D02*
D03*
Y128960D02*
D03*
X38135Y129454D02*
D03*
Y120454D02*
D03*
Y173584D02*
D03*
Y164584D02*
D03*
Y217713D02*
D03*
Y208713D02*
D03*
Y261843D02*
D03*
Y252843D02*
D03*
Y305972D02*
D03*
Y296972D02*
D03*
Y350102D02*
D03*
Y341102D02*
D03*
Y394231D02*
D03*
Y385232D02*
D03*
Y438361D02*
D03*
Y429361D02*
D03*
Y482491D02*
D03*
Y473491D02*
D03*
Y526620D02*
D03*
Y517620D02*
D03*
Y570750D02*
D03*
Y561750D02*
D03*
X38099Y605350D02*
D03*
Y614350D02*
D03*
Y649375D02*
D03*
Y658375D02*
D03*
Y693441D02*
D03*
Y702441D02*
D03*
D24*
X450610Y387350D02*
D03*
X420610D02*
D03*
X450610Y271780D02*
D03*
X420610D02*
D03*
D25*
X450610Y381350D02*
D03*
Y393350D02*
D03*
X420610D02*
D03*
Y381350D02*
D03*
X450610Y265780D02*
D03*
Y277780D02*
D03*
X420610D02*
D03*
Y265780D02*
D03*
D26*
X1512153Y39025D02*
D03*
X1575653D02*
D03*
X1611895Y39015D02*
D03*
X1700395D02*
D03*
X814500Y759385D02*
D03*
X965500D02*
D03*
X588287D02*
D03*
X764287D02*
D03*
X436226Y761000D02*
D03*
X537226D02*
D03*
X386275D02*
D03*
X285275D02*
D03*
D27*
X1550153Y68025D02*
D03*
X1537653D02*
D03*
X1674895Y68015D02*
D03*
X1662395D02*
D03*
X1649895D02*
D03*
X1637395D02*
D03*
X940000Y730385D02*
D03*
X927500D02*
D03*
X915000D02*
D03*
X902500D02*
D03*
X890000D02*
D03*
X877500D02*
D03*
X865000D02*
D03*
X852500D02*
D03*
X840000D02*
D03*
X738787D02*
D03*
X726287D02*
D03*
X713787D02*
D03*
X701287D02*
D03*
X688787D02*
D03*
X676287D02*
D03*
X663787D02*
D03*
X651287D02*
D03*
X638787D02*
D03*
X626287D02*
D03*
X613787D02*
D03*
X511726Y732000D02*
D03*
X499226D02*
D03*
X486726D02*
D03*
X474226D02*
D03*
X461726D02*
D03*
X310775D02*
D03*
X323275D02*
D03*
X335775D02*
D03*
X348275D02*
D03*
X360775D02*
D03*
D28*
X219330Y275590D02*
D03*
X235330D02*
D03*
X317880Y391160D02*
D03*
X301880D02*
D03*
X337440D02*
D03*
X353440D02*
D03*
X337440Y267970D02*
D03*
X353440D02*
D03*
X317880D02*
D03*
X301880D02*
D03*
X219330Y472270D02*
D03*
X235330D02*
D03*
D29*
X232620Y158750D02*
D03*
X191620D02*
D03*
X129720D02*
D03*
X88720D02*
D03*
X131977Y640000D02*
D03*
X90977D02*
D03*
X90827Y540698D02*
D03*
X131826D02*
D03*
X130990Y440690D02*
D03*
X89990D02*
D03*
X130990Y347980D02*
D03*
X89990D02*
D03*
X130960Y252730D02*
D03*
X89960D02*
D03*
D30*
X1040958Y172428D02*
D03*
Y185128D02*
D03*
Y197828D02*
D03*
Y210528D02*
D03*
X1093658D02*
D03*
Y197828D02*
D03*
Y185128D02*
D03*
Y172428D02*
D03*
X955482Y142026D02*
D03*
Y129326D02*
D03*
Y116626D02*
D03*
Y103926D02*
D03*
X902782D02*
D03*
Y116626D02*
D03*
Y129326D02*
D03*
Y142026D02*
D03*
X1093658D02*
D03*
Y129326D02*
D03*
Y116626D02*
D03*
Y103926D02*
D03*
X1040958D02*
D03*
Y116626D02*
D03*
Y129326D02*
D03*
Y142026D02*
D03*
D31*
X327916Y330199D02*
D03*
D32*
X302914Y347700D02*
D03*
Y342700D02*
D03*
Y337700D02*
D03*
Y332700D02*
D03*
Y327700D02*
D03*
Y322700D02*
D03*
Y317700D02*
D03*
Y312700D02*
D03*
X352914D02*
D03*
Y317700D02*
D03*
Y322700D02*
D03*
Y327700D02*
D03*
Y332700D02*
D03*
Y337700D02*
D03*
Y342700D02*
D03*
Y347700D02*
D03*
D33*
X310414Y305200D02*
D03*
X315414D02*
D03*
X320414D02*
D03*
X325414D02*
D03*
X330414D02*
D03*
X335414D02*
D03*
X340414D02*
D03*
X345414D02*
D03*
Y355200D02*
D03*
X340414D02*
D03*
X335414D02*
D03*
X330414D02*
D03*
X325414D02*
D03*
X320414D02*
D03*
X315414D02*
D03*
X310414D02*
D03*
D35*
X445680Y309490D02*
D03*
X439180D02*
D03*
X432680D02*
D03*
X426180D02*
D03*
Y349490D02*
D03*
X432680D02*
D03*
X439180D02*
D03*
X445680D02*
D03*
D36*
X415930Y319740D02*
D03*
Y326240D02*
D03*
Y332740D02*
D03*
Y339240D02*
D03*
X455930D02*
D03*
Y332740D02*
D03*
Y326240D02*
D03*
Y319740D02*
D03*
D37*
X836270Y119220D02*
D03*
X817270D02*
D03*
X826770Y99220D02*
D03*
X800710Y119220D02*
D03*
X781710D02*
D03*
X791210Y99220D02*
D03*
X765150Y119220D02*
D03*
X746150D02*
D03*
X755650Y99220D02*
D03*
X729590Y119220D02*
D03*
X710590D02*
D03*
X720090Y99220D02*
D03*
X681330Y119220D02*
D03*
X662330D02*
D03*
X671830Y99220D02*
D03*
X644077Y119220D02*
D03*
X625077D02*
D03*
X634577Y99220D02*
D03*
X606823Y119220D02*
D03*
X587823D02*
D03*
X597323Y99220D02*
D03*
X569570Y119220D02*
D03*
X550570D02*
D03*
X560070Y99220D02*
D03*
X1729129Y677070D02*
D03*
X1748129D02*
D03*
X1738629Y697070D02*
D03*
X1676382Y677070D02*
D03*
X1695382D02*
D03*
X1685882Y697070D02*
D03*
X1623635Y677070D02*
D03*
X1642635D02*
D03*
X1633135Y697070D02*
D03*
X1570887Y677070D02*
D03*
X1589888D02*
D03*
X1580388Y697070D02*
D03*
X1518140Y677070D02*
D03*
X1537140D02*
D03*
X1527640Y697070D02*
D03*
X1465393Y677070D02*
D03*
X1484393D02*
D03*
X1474893Y697070D02*
D03*
X1412646Y677070D02*
D03*
X1431646D02*
D03*
X1422146Y697070D02*
D03*
X1359898Y677070D02*
D03*
X1378898D02*
D03*
X1369398Y697070D02*
D03*
X1307151Y677070D02*
D03*
X1326151D02*
D03*
X1316651Y697070D02*
D03*
X1254404Y677070D02*
D03*
X1273404D02*
D03*
X1263904Y697070D02*
D03*
X1201656Y677070D02*
D03*
X1220657D02*
D03*
X1211156Y697070D02*
D03*
X1148909Y677070D02*
D03*
X1167909D02*
D03*
X1158409Y697070D02*
D03*
X1096162Y677070D02*
D03*
X1115162D02*
D03*
X1105662Y697070D02*
D03*
X1043415Y677070D02*
D03*
X1062415D02*
D03*
X1052915Y697070D02*
D03*
X990667Y677070D02*
D03*
X1009667D02*
D03*
X1000167Y697070D02*
D03*
X937920Y677070D02*
D03*
X956920D02*
D03*
X947420Y697070D02*
D03*
D38*
X1431593Y128585D02*
D03*
X1403130D02*
D03*
X1226699D02*
D03*
X1198237D02*
D03*
X1329146D02*
D03*
X1300683D02*
D03*
X1534039D02*
D03*
X1505577D02*
D03*
D39*
X1231781Y155000D02*
D03*
Y183200D02*
D03*
X1226781D02*
D03*
X1221781D02*
D03*
X1216781D02*
D03*
X1226781Y155000D02*
D03*
X1221781D02*
D03*
X1216781D02*
D03*
X1319227D02*
D03*
X1324227D02*
D03*
X1329227D02*
D03*
X1319227Y183200D02*
D03*
X1324227D02*
D03*
X1329227D02*
D03*
X1334227D02*
D03*
Y155000D02*
D03*
X1436674D02*
D03*
Y183200D02*
D03*
X1431674D02*
D03*
X1426674D02*
D03*
X1421674D02*
D03*
X1431674Y155000D02*
D03*
X1426674D02*
D03*
X1421674D02*
D03*
X1524121D02*
D03*
X1529121D02*
D03*
X1534121D02*
D03*
X1524121Y183200D02*
D03*
X1529121D02*
D03*
X1534121D02*
D03*
X1539121D02*
D03*
Y155000D02*
D03*
X202281Y104280D02*
D03*
X216781D02*
D03*
X216781Y121780D02*
D03*
X202311D02*
D03*
X101668Y603030D02*
D03*
X116138D02*
D03*
X116138Y585530D02*
D03*
X101638D02*
D03*
X101517Y503727D02*
D03*
X115987D02*
D03*
X115987Y486227D02*
D03*
X101488D02*
D03*
X100681Y403720D02*
D03*
X115151D02*
D03*
X115151Y386220D02*
D03*
X100651D02*
D03*
Y293510D02*
D03*
X115151D02*
D03*
X115151Y311010D02*
D03*
X100681D02*
D03*
X100621Y198260D02*
D03*
X115121D02*
D03*
X115121Y215760D02*
D03*
X100651D02*
D03*
X99381Y104280D02*
D03*
X113881D02*
D03*
X113881Y121780D02*
D03*
X99411D02*
D03*
D40*
X1229031Y175602D02*
D03*
X1219531D02*
D03*
X1321978D02*
D03*
X1331477D02*
D03*
X1433924D02*
D03*
X1424424D02*
D03*
X1526871D02*
D03*
X1536371D02*
D03*
D41*
X1228781Y166100D02*
D03*
X1219781D02*
D03*
X1322227D02*
D03*
X1331228D02*
D03*
X1433674D02*
D03*
X1424674D02*
D03*
X1527121D02*
D03*
X1536121D02*
D03*
D42*
X1238531Y179100D02*
D03*
Y174100D02*
D03*
Y164100D02*
D03*
Y159100D02*
D03*
X1210031D02*
D03*
Y164100D02*
D03*
Y169100D02*
D03*
Y174100D02*
D03*
Y179100D02*
D03*
X1312478D02*
D03*
Y174100D02*
D03*
Y169100D02*
D03*
Y164100D02*
D03*
Y159100D02*
D03*
X1340977D02*
D03*
Y164100D02*
D03*
Y174100D02*
D03*
Y179100D02*
D03*
X1443424D02*
D03*
Y174100D02*
D03*
Y164100D02*
D03*
Y159100D02*
D03*
X1414924D02*
D03*
Y164100D02*
D03*
Y169100D02*
D03*
Y174100D02*
D03*
Y179100D02*
D03*
X1517371D02*
D03*
Y174100D02*
D03*
Y169100D02*
D03*
Y164100D02*
D03*
Y159100D02*
D03*
X1545871D02*
D03*
Y164100D02*
D03*
Y174100D02*
D03*
Y179100D02*
D03*
X218781Y110782D02*
D03*
Y115274D02*
D03*
X200281Y110782D02*
D03*
X200311Y115274D02*
D03*
X99668Y596524D02*
D03*
X99638Y592032D02*
D03*
X118138Y596524D02*
D03*
Y592032D02*
D03*
X99517Y497221D02*
D03*
X99488Y492729D02*
D03*
X117987Y497221D02*
D03*
Y492729D02*
D03*
X98681Y397214D02*
D03*
X98651Y392722D02*
D03*
X117151Y397214D02*
D03*
Y392722D02*
D03*
Y300012D02*
D03*
Y304503D02*
D03*
X98651Y300012D02*
D03*
X98681Y304503D02*
D03*
X117121Y204762D02*
D03*
Y209254D02*
D03*
X98621Y204762D02*
D03*
X98651Y209254D02*
D03*
X115881Y110782D02*
D03*
Y115274D02*
D03*
X97381Y110782D02*
D03*
X97411Y115274D02*
D03*
D43*
X1238531Y169100D02*
D03*
X1340977D02*
D03*
X1443424D02*
D03*
X1545871D02*
D03*
D44*
X1642258Y126908D02*
D03*
Y120408D02*
D03*
Y113908D02*
D03*
Y107408D02*
D03*
X1683258Y126908D02*
D03*
Y120408D02*
D03*
Y113908D02*
D03*
Y107408D02*
D03*
X1662991Y602840D02*
D03*
Y596340D02*
D03*
Y589840D02*
D03*
Y583340D02*
D03*
X1703991Y602840D02*
D03*
Y596340D02*
D03*
Y589840D02*
D03*
Y583340D02*
D03*
D45*
X152090Y78420D02*
D03*
X167090D02*
D03*
X182090D02*
D03*
X197090D02*
D03*
X212090D02*
D03*
X227090D02*
D03*
X242090D02*
D03*
X257090D02*
D03*
X272090D02*
D03*
X1234175Y720580D02*
D03*
X1249175D02*
D03*
D46*
X295140Y26520D02*
D03*
X129040D02*
D03*
X1275225Y772480D02*
D03*
X1208125D02*
D03*
D47*
X517906Y149289D02*
D03*
X511404D02*
D03*
X504901D02*
D03*
X498399D02*
D03*
X491896D02*
D03*
X485394D02*
D03*
Y193612D02*
D03*
X491896D02*
D03*
X498399D02*
D03*
X504901D02*
D03*
X511404D02*
D03*
X517906D02*
D03*
D48*
X443230Y146750D02*
D03*
X430530D02*
D03*
X417830D02*
D03*
X405130D02*
D03*
Y196150D02*
D03*
X417830D02*
D03*
X430530D02*
D03*
X443230D02*
D03*
X378244Y146750D02*
D03*
X365544D02*
D03*
X352844D02*
D03*
X340144D02*
D03*
Y196150D02*
D03*
X352844D02*
D03*
X365544D02*
D03*
X378244D02*
D03*
X313690D02*
D03*
X300990D02*
D03*
X288290D02*
D03*
X275590D02*
D03*
Y146750D02*
D03*
X288290D02*
D03*
X300990D02*
D03*
X313690D02*
D03*
D49*
X914861Y549647D02*
D03*
Y554647D02*
D03*
Y559647D02*
D03*
Y564647D02*
D03*
X891661D02*
D03*
Y559647D02*
D03*
Y554647D02*
D03*
Y549647D02*
D03*
D50*
X908261Y566247D02*
D03*
X903261D02*
D03*
X898261D02*
D03*
Y548047D02*
D03*
X903261D02*
D03*
X908261D02*
D03*
D51*
X895427Y460788D02*
D03*
Y465788D02*
D03*
Y470788D02*
D03*
X911175D02*
D03*
Y465788D02*
D03*
Y460788D02*
D03*
D52*
X900801Y473662D02*
D03*
X905801D02*
D03*
Y457914D02*
D03*
X900801D02*
D03*
D53*
X887184Y395891D02*
D03*
X895184D02*
D03*
X903184D02*
D03*
X911184D02*
D03*
X919184D02*
D03*
Y373891D02*
D03*
X911184D02*
D03*
X903184D02*
D03*
X895184D02*
D03*
X887184D02*
D03*
D54*
X924198Y191114D02*
D03*
Y197614D02*
D03*
Y204114D02*
D03*
Y210613D02*
D03*
Y217113D02*
D03*
Y223613D02*
D03*
Y230113D02*
D03*
Y236613D02*
D03*
X865143D02*
D03*
Y230113D02*
D03*
Y223613D02*
D03*
Y217113D02*
D03*
Y210613D02*
D03*
Y204114D02*
D03*
Y197614D02*
D03*
Y191114D02*
D03*
D55*
X921912Y293873D02*
D03*
Y281173D02*
D03*
Y268473D02*
D03*
Y255773D02*
D03*
X867429D02*
D03*
Y268473D02*
D03*
Y281173D02*
D03*
Y293873D02*
D03*
D56*
X1047471Y255461D02*
D03*
X752687Y489254D02*
D03*
X1142471Y255461D02*
D03*
D57*
X1048929Y298277D02*
D03*
Y316277D02*
D03*
X1103860Y298277D02*
D03*
Y316277D02*
D03*
D58*
X1105050Y378612D02*
D03*
Y388112D02*
D03*
Y397612D02*
D03*
X1130150D02*
D03*
Y388112D02*
D03*
Y378612D02*
D03*
D60*
X1546860Y618513D02*
D03*
X1559560D02*
D03*
X1572260D02*
D03*
X1584960D02*
D03*
Y565813D02*
D03*
X1572260D02*
D03*
X1559560D02*
D03*
X1546860D02*
D03*
X1451957Y618513D02*
D03*
X1464657D02*
D03*
X1477357D02*
D03*
X1490057D02*
D03*
Y565813D02*
D03*
X1477357D02*
D03*
X1464657D02*
D03*
X1451957D02*
D03*
X1357055Y618513D02*
D03*
X1369755D02*
D03*
X1382455D02*
D03*
X1395155D02*
D03*
Y565813D02*
D03*
X1382455D02*
D03*
X1369755D02*
D03*
X1357055D02*
D03*
X1262152Y618513D02*
D03*
X1274852D02*
D03*
X1287552D02*
D03*
X1300252D02*
D03*
Y565813D02*
D03*
X1287552D02*
D03*
X1274852D02*
D03*
X1262152D02*
D03*
X391661Y691816D02*
D03*
X404361D02*
D03*
X417061D02*
D03*
X429761D02*
D03*
Y639116D02*
D03*
X417061D02*
D03*
X404361D02*
D03*
X391661D02*
D03*
D61*
X1077965Y618943D02*
D03*
Y560944D02*
D03*
X1071465D02*
D03*
X1064965D02*
D03*
X1058465D02*
D03*
X1051965D02*
D03*
X1045465D02*
D03*
X1038965D02*
D03*
X1032465D02*
D03*
X1025965D02*
D03*
X1019465D02*
D03*
X1012965D02*
D03*
X1006465D02*
D03*
Y618943D02*
D03*
X1012965D02*
D03*
X1019465D02*
D03*
X1025965D02*
D03*
X1032465D02*
D03*
X1038965D02*
D03*
X1051965D02*
D03*
X1058465D02*
D03*
X1064965D02*
D03*
X1071465D02*
D03*
X1045465D02*
D03*
D63*
X541170Y603349D02*
D03*
Y608349D02*
D03*
Y613349D02*
D03*
Y618349D02*
D03*
X570570D02*
D03*
Y613349D02*
D03*
Y608349D02*
D03*
Y603349D02*
D03*
D64*
X548370Y625549D02*
D03*
X553370D02*
D03*
X558370D02*
D03*
X563370D02*
D03*
Y596149D02*
D03*
X558370D02*
D03*
X553370D02*
D03*
X548370D02*
D03*
D66*
X656990Y663702D02*
D03*
X660990D02*
D03*
X664990D02*
D03*
X668990D02*
D03*
X672990D02*
D03*
X676990D02*
D03*
X680990D02*
D03*
Y625002D02*
D03*
X676990D02*
D03*
X672990D02*
D03*
X668990D02*
D03*
X664990D02*
D03*
X660990D02*
D03*
X656990D02*
D03*
X788484Y624494D02*
D03*
X792485D02*
D03*
X796485D02*
D03*
X800484D02*
D03*
X804484D02*
D03*
X808484D02*
D03*
X812485D02*
D03*
Y663194D02*
D03*
X808484D02*
D03*
X804484D02*
D03*
X800484D02*
D03*
X796485D02*
D03*
X792485D02*
D03*
X788484D02*
D03*
D67*
X688340Y656352D02*
D03*
Y652352D02*
D03*
Y648352D02*
D03*
Y644352D02*
D03*
Y640352D02*
D03*
Y636352D02*
D03*
Y632352D02*
D03*
X649640D02*
D03*
Y636352D02*
D03*
Y640352D02*
D03*
Y644352D02*
D03*
Y648352D02*
D03*
Y652352D02*
D03*
Y656352D02*
D03*
X781134Y655844D02*
D03*
Y651844D02*
D03*
Y647844D02*
D03*
Y643844D02*
D03*
Y639844D02*
D03*
Y635844D02*
D03*
Y631844D02*
D03*
X819835D02*
D03*
Y635844D02*
D03*
Y639844D02*
D03*
Y643844D02*
D03*
Y647844D02*
D03*
Y651844D02*
D03*
Y655844D02*
D03*
D68*
X327228Y695406D02*
D03*
X336728D02*
D03*
X346228D02*
D03*
Y670306D02*
D03*
X336728D02*
D03*
X327228D02*
D03*
X478179Y695406D02*
D03*
X487679D02*
D03*
X497179D02*
D03*
Y670306D02*
D03*
X487679D02*
D03*
X478179D02*
D03*
D69*
X770594Y486653D02*
D03*
X787094D02*
D03*
Y470653D02*
D03*
X770594D02*
D03*
D70*
X734452Y464820D02*
D03*
X719952D02*
D03*
Y523494D02*
D03*
X734452D02*
D03*
D71*
X630805Y317008D02*
D03*
X615305D02*
D03*
X615305Y327509D02*
D03*
X630805D02*
D03*
D72*
X850964Y507368D02*
D03*
Y526368D02*
D03*
X830964Y516868D02*
D03*
X291642Y455016D02*
D03*
Y436016D02*
D03*
X311642Y445516D02*
D03*
D73*
X465836Y426720D02*
D03*
Y439420D02*
D03*
Y452120D02*
D03*
Y464820D02*
D03*
X392684D02*
D03*
Y452120D02*
D03*
Y439420D02*
D03*
Y426720D02*
D03*
X1139613Y572472D02*
D03*
Y585172D02*
D03*
Y597872D02*
D03*
Y610572D02*
D03*
X1212765D02*
D03*
Y597872D02*
D03*
Y585172D02*
D03*
Y572472D02*
D03*
D74*
X376664Y372200D02*
D03*
Y392200D02*
D03*
X279164Y372200D02*
D03*
Y392200D02*
D03*
X279164Y286860D02*
D03*
Y266860D02*
D03*
X376664Y286860D02*
D03*
Y266860D02*
D03*
D75*
X226060Y256870D02*
D03*
X213360D02*
D03*
X200660D02*
D03*
X187960D02*
D03*
Y202870D02*
D03*
X200660D02*
D03*
X213360D02*
D03*
X226060D02*
D03*
Y453550D02*
D03*
X213360D02*
D03*
X200660D02*
D03*
X187960D02*
D03*
Y399550D02*
D03*
X200660D02*
D03*
X213360D02*
D03*
X226060D02*
D03*
D76*
X207010Y229870D02*
D03*
Y426550D02*
D03*
D77*
X207008Y354910D02*
D03*
Y300410D02*
D03*
Y551590D02*
D03*
Y497090D02*
D03*
D79*
X230378Y631848D02*
D03*
Y625348D02*
D03*
Y618848D02*
D03*
Y612348D02*
D03*
Y605848D02*
D03*
X183178D02*
D03*
Y612348D02*
D03*
Y618848D02*
D03*
Y625348D02*
D03*
Y631848D02*
D03*
D80*
X193778Y642448D02*
D03*
X200278D02*
D03*
X206778D02*
D03*
X213278D02*
D03*
X219778D02*
D03*
Y595248D02*
D03*
X213278D02*
D03*
X206778D02*
D03*
X200278D02*
D03*
X193778D02*
D03*
D81*
X207040Y113030D02*
D03*
X212040Y113041D02*
D03*
X111397Y594291D02*
D03*
X106397Y594280D02*
D03*
X111247Y494988D02*
D03*
X106247Y494977D02*
D03*
X110410Y394981D02*
D03*
X105410Y394970D02*
D03*
Y302260D02*
D03*
X110410Y302271D02*
D03*
X105380Y207010D02*
D03*
X110380Y207021D02*
D03*
X104140Y113030D02*
D03*
X109140Y113041D02*
D03*
D82*
X218781Y120030D02*
D03*
X200281Y106030D02*
D03*
X218781D02*
D03*
X200310Y120030D02*
D03*
X99668Y601280D02*
D03*
X118138Y587280D02*
D03*
X99638D02*
D03*
X118138Y601280D02*
D03*
X99517Y501977D02*
D03*
X117987Y487977D02*
D03*
X99488D02*
D03*
X117987Y501978D02*
D03*
X98680Y401970D02*
D03*
X117151Y387970D02*
D03*
X98651D02*
D03*
X117151Y401970D02*
D03*
Y309260D02*
D03*
X98651Y295260D02*
D03*
X117151D02*
D03*
X98680Y309260D02*
D03*
X117121Y214010D02*
D03*
X98621Y200010D02*
D03*
X117121D02*
D03*
X98651Y214010D02*
D03*
X115881Y120030D02*
D03*
X97381Y106030D02*
D03*
X115881D02*
D03*
X97410Y120030D02*
D03*
D83*
X38054Y98269D02*
D03*
Y108769D02*
D03*
Y142399D02*
D03*
Y152899D02*
D03*
Y186528D02*
D03*
Y197029D02*
D03*
Y230658D02*
D03*
Y241158D02*
D03*
Y274788D02*
D03*
Y285288D02*
D03*
Y318917D02*
D03*
Y329417D02*
D03*
Y363047D02*
D03*
Y373547D02*
D03*
Y407176D02*
D03*
Y417676D02*
D03*
Y451306D02*
D03*
Y461806D02*
D03*
Y495436D02*
D03*
Y505936D02*
D03*
Y539565D02*
D03*
Y550065D02*
D03*
Y583695D02*
D03*
Y594195D02*
D03*
Y627824D02*
D03*
Y638324D02*
D03*
Y671954D02*
D03*
Y682454D02*
D03*
D84*
X208280Y740454D02*
D03*
X111760D02*
D03*
D85*
X231280Y682454D02*
D03*
X208280D02*
D03*
X185280D02*
D03*
X134760D02*
D03*
X111760D02*
D03*
X88760D02*
D03*
D116*
X501650Y171450D02*
D03*
D151*
X1752600Y184810D02*
D03*
X1600200Y438810D02*
D03*
Y464210D02*
D03*
Y489610D02*
D03*
X1752600Y235610D02*
D03*
Y261010D02*
D03*
Y515010D02*
D03*
Y286410D02*
D03*
Y489610D02*
D03*
Y311810D02*
D03*
Y464210D02*
D03*
Y337210D02*
D03*
Y438810D02*
D03*
Y362610D02*
D03*
Y413410D02*
D03*
Y388010D02*
D03*
Y210210D02*
D03*
X1600200Y515010D02*
D03*
Y413410D02*
D03*
Y388010D02*
D03*
Y362610D02*
D03*
Y337210D02*
D03*
Y311810D02*
D03*
Y286410D02*
D03*
Y261010D02*
D03*
Y235610D02*
D03*
Y210210D02*
D03*
Y184810D02*
D03*
X1375410Y247410D02*
D03*
X1426210D02*
D03*
X1451610D02*
D03*
X1477010D02*
D03*
X1375410Y522110D02*
D03*
X1400810D02*
D03*
X1426210D02*
D03*
X1477010D02*
D03*
X1451610D02*
D03*
X1400810Y247410D02*
D03*
D155*
X435930Y329490D02*
D03*
X668990Y644352D02*
D03*
X800484Y643844D02*
D03*
D156*
X1565910Y592164D02*
D03*
X1471007D02*
D03*
X1376105D02*
D03*
X1281202D02*
D03*
D157*
X555870Y610849D02*
D03*
D158*
X206778Y618848D02*
D03*
D164*
X213510Y236370D02*
D03*
Y223370D02*
D03*
X226510Y236370D02*
D03*
X200510D02*
D03*
Y223370D02*
D03*
X187510Y236370D02*
D03*
Y223370D02*
D03*
X226510D02*
D03*
X213510Y433050D02*
D03*
Y420050D02*
D03*
X226510Y433050D02*
D03*
X200510D02*
D03*
Y420050D02*
D03*
X187510Y433050D02*
D03*
Y420050D02*
D03*
X226510D02*
D03*
D165*
X40000Y760000D02*
D03*
Y40000D02*
D03*
X1760000Y760000D02*
D03*
Y40000D02*
D03*
D166*
X1771149Y787686D02*
D03*
X1778881Y783079D02*
D03*
X1784894Y776383D02*
D03*
X1788681Y768218D02*
D03*
X1789829Y759292D02*
D03*
Y750292D02*
D03*
Y741292D02*
D03*
X1789829Y732292D02*
D03*
Y723292D02*
D03*
X1789829Y714292D02*
D03*
Y705292D02*
D03*
Y696292D02*
D03*
X1789829Y687292D02*
D03*
Y678292D02*
D03*
X1789829Y669292D02*
D03*
Y660292D02*
D03*
Y651292D02*
D03*
X1789829Y642292D02*
D03*
Y633292D02*
D03*
X1789829Y624292D02*
D03*
Y615292D02*
D03*
Y606292D02*
D03*
X1789829Y597292D02*
D03*
Y588292D02*
D03*
X1789829Y579292D02*
D03*
Y570292D02*
D03*
Y561292D02*
D03*
X1789829Y552292D02*
D03*
Y543292D02*
D03*
X1789829Y534292D02*
D03*
Y525292D02*
D03*
Y516292D02*
D03*
X1789830Y507292D02*
D03*
Y498292D02*
D03*
X1789830Y489292D02*
D03*
Y480292D02*
D03*
Y471292D02*
D03*
X1789830Y462292D02*
D03*
Y453292D02*
D03*
X1789830Y444292D02*
D03*
Y435292D02*
D03*
Y426292D02*
D03*
X1789830Y417292D02*
D03*
Y408293D02*
D03*
X1789830Y399292D02*
D03*
Y390293D02*
D03*
Y381292D02*
D03*
X1789830Y372293D02*
D03*
Y363293D02*
D03*
X1789830Y354293D02*
D03*
Y345293D02*
D03*
Y336293D02*
D03*
X1789830Y327293D02*
D03*
Y318293D02*
D03*
X1789830Y309293D02*
D03*
Y300293D02*
D03*
Y291293D02*
D03*
X1789830Y282293D02*
D03*
Y273293D02*
D03*
X1789830Y264293D02*
D03*
Y255293D02*
D03*
Y246293D02*
D03*
X1789830Y237293D02*
D03*
Y228293D02*
D03*
X1789830Y219293D02*
D03*
Y210293D02*
D03*
Y201293D02*
D03*
X1789830Y192293D02*
D03*
Y183293D02*
D03*
X1789830Y174293D02*
D03*
Y165293D02*
D03*
Y156293D02*
D03*
X1789830Y147293D02*
D03*
Y138293D02*
D03*
X1789830Y129293D02*
D03*
Y120293D02*
D03*
Y111293D02*
D03*
X1789830Y102293D02*
D03*
Y93293D02*
D03*
X1789830Y84293D02*
D03*
Y75293D02*
D03*
Y66293D02*
D03*
X1789830Y57293D02*
D03*
Y48293D02*
D03*
X1789818Y39293D02*
D03*
X1788224Y30436D02*
D03*
X1784104Y22434D02*
D03*
X1777774Y16036D02*
D03*
X1769803Y11857D02*
D03*
X1760957Y10198D02*
D03*
X1751957Y10170D02*
D03*
X1742957Y10170D02*
D03*
X1733957Y10170D02*
D03*
X1724957Y10170D02*
D03*
X1717903Y15759D02*
D03*
X1709768Y19609D02*
D03*
X1700786Y20170D02*
D03*
X1691786D02*
D03*
X1682786D02*
D03*
X1673786D02*
D03*
X1664786D02*
D03*
X1655786D02*
D03*
X1646786D02*
D03*
X1637786D02*
D03*
X1628786D02*
D03*
X1619786D02*
D03*
X1610786D02*
D03*
X1601786D02*
D03*
X1592786D02*
D03*
X1583786D02*
D03*
X1574786D02*
D03*
X1565786Y20170D02*
D03*
X1556786D02*
D03*
X1547786D02*
D03*
X1538786D02*
D03*
X1529786D02*
D03*
X1520786D02*
D03*
X1511786D02*
D03*
X1502786D02*
D03*
X1493786D02*
D03*
X1484786D02*
D03*
X1475786D02*
D03*
X1466786D02*
D03*
X1457786D02*
D03*
X1448786D02*
D03*
X1439786D02*
D03*
X1430786Y20170D02*
D03*
X1421786D02*
D03*
X1412787D02*
D03*
X1403786D02*
D03*
X1394787D02*
D03*
X1385786D02*
D03*
X1376786D02*
D03*
X1367787D02*
D03*
X1358787D02*
D03*
X1349787D02*
D03*
X1340787D02*
D03*
X1331787D02*
D03*
X1322787D02*
D03*
X1313787D02*
D03*
X1304787D02*
D03*
X1295787Y20170D02*
D03*
X1286787D02*
D03*
X1277787D02*
D03*
X1268787D02*
D03*
X1259787D02*
D03*
X1250787D02*
D03*
X1241787D02*
D03*
X1232787D02*
D03*
X1223787D02*
D03*
X1214787D02*
D03*
X1205787D02*
D03*
X1196787D02*
D03*
X1187787D02*
D03*
X1178787D02*
D03*
X1169787D02*
D03*
X1160787Y20170D02*
D03*
X1151787D02*
D03*
X1142787D02*
D03*
X1133787D02*
D03*
X1124787D02*
D03*
X1115787D02*
D03*
X1106787D02*
D03*
X1097787D02*
D03*
X1088787D02*
D03*
X1079787D02*
D03*
X1070787D02*
D03*
X1061787D02*
D03*
X1052787D02*
D03*
X1043787D02*
D03*
X1034787D02*
D03*
X1025787Y20170D02*
D03*
X1016787D02*
D03*
X1007787D02*
D03*
X998787D02*
D03*
X989787D02*
D03*
X980787D02*
D03*
X971787D02*
D03*
X962787D02*
D03*
X953787D02*
D03*
X944787D02*
D03*
X935787D02*
D03*
X926787D02*
D03*
X917787D02*
D03*
X908788D02*
D03*
X899788D02*
D03*
X890788Y20170D02*
D03*
X881787D02*
D03*
X872787D02*
D03*
X863788D02*
D03*
X854788D02*
D03*
X845788D02*
D03*
X836788D02*
D03*
X827788D02*
D03*
X818788D02*
D03*
X809788D02*
D03*
X800788D02*
D03*
X791788D02*
D03*
X782788D02*
D03*
X773788D02*
D03*
X764788Y20170D02*
D03*
X755788D02*
D03*
X746788D02*
D03*
X737788D02*
D03*
X728788D02*
D03*
X719788D02*
D03*
X710788D02*
D03*
X701788D02*
D03*
X692788D02*
D03*
X683788D02*
D03*
X674788D02*
D03*
X665788D02*
D03*
X656788D02*
D03*
X647788D02*
D03*
X638788D02*
D03*
X629788Y20170D02*
D03*
X620788D02*
D03*
X611788D02*
D03*
X602788D02*
D03*
X593788D02*
D03*
X584788D02*
D03*
X575788D02*
D03*
X566788D02*
D03*
X557788D02*
D03*
X548788D02*
D03*
X539788D02*
D03*
X530788D02*
D03*
X521788D02*
D03*
X512788D02*
D03*
X503788D02*
D03*
X494788Y20170D02*
D03*
X485788D02*
D03*
X476788D02*
D03*
X467788D02*
D03*
X458788D02*
D03*
X449788D02*
D03*
X440788D02*
D03*
X431788D02*
D03*
X422788D02*
D03*
X413788D02*
D03*
X404789D02*
D03*
X395788D02*
D03*
X386788D02*
D03*
X377789D02*
D03*
X368788D02*
D03*
X359789Y20170D02*
D03*
X350789D02*
D03*
X341789D02*
D03*
X332789D02*
D03*
X323789D02*
D03*
X314789D02*
D03*
X305789D02*
D03*
X296789D02*
D03*
X287789D02*
D03*
X278789D02*
D03*
X269789D02*
D03*
X260789D02*
D03*
X251789D02*
D03*
X242789D02*
D03*
X233789D02*
D03*
X224789Y20170D02*
D03*
X215789D02*
D03*
X206789D02*
D03*
X197789D02*
D03*
X188789D02*
D03*
X179789D02*
D03*
X170789D02*
D03*
X161789D02*
D03*
X152789D02*
D03*
X143789D02*
D03*
X134789D02*
D03*
X125789D02*
D03*
X116789D02*
D03*
X107789D02*
D03*
X98789D02*
D03*
X89807Y19603D02*
D03*
X81679Y15739D02*
D03*
X74608Y10170D02*
D03*
X65609Y10170D02*
D03*
X56609Y10170D02*
D03*
X47608Y10170D02*
D03*
X38609Y10202D02*
D03*
X29769Y11891D02*
D03*
X21824Y16121D02*
D03*
X15593Y22614D02*
D03*
X11584Y30672D02*
D03*
X10166Y39560D02*
D03*
X10170Y48560D02*
D03*
Y57560D02*
D03*
Y66560D02*
D03*
Y75560D02*
D03*
Y84560D02*
D03*
Y93560D02*
D03*
Y102559D02*
D03*
Y111559D02*
D03*
Y120560D02*
D03*
Y129559D02*
D03*
Y138560D02*
D03*
Y147559D02*
D03*
Y156559D02*
D03*
Y165559D02*
D03*
Y174559D02*
D03*
Y183559D02*
D03*
Y192559D02*
D03*
Y201559D02*
D03*
Y210559D02*
D03*
Y219559D02*
D03*
Y228559D02*
D03*
Y237559D02*
D03*
Y246559D02*
D03*
Y255559D02*
D03*
Y264559D02*
D03*
Y273559D02*
D03*
Y282559D02*
D03*
Y291559D02*
D03*
Y300559D02*
D03*
Y309559D02*
D03*
Y318559D02*
D03*
Y327559D02*
D03*
Y336559D02*
D03*
Y345559D02*
D03*
Y354559D02*
D03*
Y363559D02*
D03*
Y372559D02*
D03*
Y381559D02*
D03*
Y390559D02*
D03*
Y399559D02*
D03*
Y408559D02*
D03*
Y417559D02*
D03*
Y426559D02*
D03*
Y435559D02*
D03*
Y444559D02*
D03*
Y453559D02*
D03*
Y462559D02*
D03*
Y471559D02*
D03*
Y480559D02*
D03*
Y489559D02*
D03*
Y498559D02*
D03*
Y507559D02*
D03*
Y516559D02*
D03*
Y525559D02*
D03*
Y534559D02*
D03*
Y543559D02*
D03*
Y552559D02*
D03*
Y561559D02*
D03*
Y570559D02*
D03*
Y579559D02*
D03*
Y588559D02*
D03*
Y597559D02*
D03*
Y606558D02*
D03*
Y615559D02*
D03*
Y624558D02*
D03*
Y633559D02*
D03*
Y642559D02*
D03*
Y651558D02*
D03*
Y660558D02*
D03*
Y669558D02*
D03*
Y678558D02*
D03*
Y687558D02*
D03*
Y696558D02*
D03*
Y705558D02*
D03*
Y714558D02*
D03*
Y723558D02*
D03*
Y732558D02*
D03*
Y741558D02*
D03*
Y750558D02*
D03*
Y759558D02*
D03*
X11406Y768473D02*
D03*
X15256Y776608D02*
D03*
X21322Y783257D02*
D03*
X29107Y787773D02*
D03*
X37892Y789726D02*
D03*
X46891Y789829D02*
D03*
X55891Y789829D02*
D03*
X64892Y789829D02*
D03*
X73892Y789829D02*
D03*
X81376Y784832D02*
D03*
X89322Y780605D02*
D03*
X98288Y779829D02*
D03*
X107288D02*
D03*
X116288D02*
D03*
X125288D02*
D03*
X134288D02*
D03*
X143288D02*
D03*
X152288D02*
D03*
X161288D02*
D03*
X170288D02*
D03*
X179288D02*
D03*
X188288D02*
D03*
X197288D02*
D03*
X206288D02*
D03*
X215288D02*
D03*
X224288D02*
D03*
X233288Y779829D02*
D03*
X242288D02*
D03*
X251288D02*
D03*
X260288D02*
D03*
X269288D02*
D03*
X278288D02*
D03*
X287288D02*
D03*
X296288D02*
D03*
X305288D02*
D03*
X314288D02*
D03*
X323288D02*
D03*
X332288D02*
D03*
X341288D02*
D03*
X350288D02*
D03*
X359288D02*
D03*
X368288Y779829D02*
D03*
X377288D02*
D03*
X386288D02*
D03*
X395288D02*
D03*
X404288D02*
D03*
X413288D02*
D03*
X422288D02*
D03*
X431288D02*
D03*
X440288D02*
D03*
X449288D02*
D03*
X458288D02*
D03*
X467288D02*
D03*
X476288D02*
D03*
X485288D02*
D03*
X494288D02*
D03*
X503288Y779829D02*
D03*
X512288D02*
D03*
X521288D02*
D03*
X530288D02*
D03*
X539287D02*
D03*
X548288D02*
D03*
X557287D02*
D03*
X566287D02*
D03*
X575287D02*
D03*
X584287D02*
D03*
X593287D02*
D03*
X602287D02*
D03*
X611287D02*
D03*
X620287D02*
D03*
X629287D02*
D03*
X638287Y779829D02*
D03*
X647287D02*
D03*
X656287D02*
D03*
X665287D02*
D03*
X674287D02*
D03*
X683287D02*
D03*
X692287D02*
D03*
X701287D02*
D03*
X710287D02*
D03*
X719287D02*
D03*
X728287D02*
D03*
X737287D02*
D03*
X746287D02*
D03*
X755287D02*
D03*
X764287D02*
D03*
X773287Y779829D02*
D03*
X782287D02*
D03*
X791287D02*
D03*
X800287D02*
D03*
X809287D02*
D03*
X818287D02*
D03*
X827287D02*
D03*
X836287D02*
D03*
X845287D02*
D03*
X854287D02*
D03*
X863287D02*
D03*
X872287D02*
D03*
X881287D02*
D03*
X890287D02*
D03*
X899287D02*
D03*
X908287Y779829D02*
D03*
X917287D02*
D03*
X926287D02*
D03*
X935287D02*
D03*
X944287D02*
D03*
X953287D02*
D03*
X962287D02*
D03*
X971287D02*
D03*
X980287D02*
D03*
X989287D02*
D03*
X998287D02*
D03*
X1007287D02*
D03*
X1016287D02*
D03*
X1025286D02*
D03*
X1034286D02*
D03*
X1043287Y779829D02*
D03*
X1052287D02*
D03*
X1061286D02*
D03*
X1070286D02*
D03*
X1079286D02*
D03*
X1088286D02*
D03*
X1097286D02*
D03*
X1106286D02*
D03*
X1115286D02*
D03*
X1124286D02*
D03*
X1133286D02*
D03*
X1142286D02*
D03*
X1151286D02*
D03*
X1160286D02*
D03*
X1169286D02*
D03*
X1178286Y779829D02*
D03*
X1187286D02*
D03*
X1196286D02*
D03*
X1205286D02*
D03*
X1214286D02*
D03*
X1223286D02*
D03*
X1232286D02*
D03*
X1241286D02*
D03*
X1250286D02*
D03*
X1259286D02*
D03*
X1268286D02*
D03*
X1277286D02*
D03*
X1286286D02*
D03*
X1295286D02*
D03*
X1304286D02*
D03*
X1313286Y779829D02*
D03*
X1322286D02*
D03*
X1331286D02*
D03*
X1340286D02*
D03*
X1349286D02*
D03*
X1358286D02*
D03*
X1367286D02*
D03*
X1376286D02*
D03*
X1385286D02*
D03*
X1394286D02*
D03*
X1403286D02*
D03*
X1412286D02*
D03*
X1421286D02*
D03*
X1430286D02*
D03*
X1439286D02*
D03*
X1448286Y779829D02*
D03*
X1457286D02*
D03*
X1466286D02*
D03*
X1475286D02*
D03*
X1484286D02*
D03*
X1493286D02*
D03*
X1502286D02*
D03*
X1511286D02*
D03*
X1520286D02*
D03*
X1529285D02*
D03*
X1538286D02*
D03*
X1547285D02*
D03*
X1556286D02*
D03*
X1565285D02*
D03*
X1574285D02*
D03*
X1583285Y779829D02*
D03*
X1592285D02*
D03*
X1601285D02*
D03*
X1610285D02*
D03*
X1619285D02*
D03*
X1628285D02*
D03*
X1637285D02*
D03*
X1646285D02*
D03*
X1655285D02*
D03*
X1664285D02*
D03*
X1673285D02*
D03*
X1682285D02*
D03*
X1691285D02*
D03*
X1700285D02*
D03*
X1709277Y780214D02*
D03*
X1717578Y783690D02*
D03*
X1724160Y789829D02*
D03*
X1733160Y789829D02*
D03*
X1742160Y789829D02*
D03*
X1751160Y789829D02*
D03*
X1760160Y789854D02*
D03*
M02*
